<?xml version="1.0" encoding="UTF-8" standalone="no"?>
<svg
   width="14"
   height="14"
   viewBox="0 0 14 14"
   version="1.1"
   id="svg18436"
   sodipodi:docname="skipped.svg"
   inkscape:export-filename="/home/dosimont/git/alya-cicd/web/img/png/skipped.png"
   inkscape:export-xdpi="300.29901"
   inkscape:export-ydpi="300.29901"
   inkscape:version="1.1.2 (0a00cf5339, 2022-02-04)"
   xmlns:inkscape="http://www.inkscape.org/namespaces/inkscape"
   xmlns:sodipodi="http://sodipodi.sourceforge.net/DTD/sodipodi-0.dtd"
   xmlns="http://www.w3.org/2000/svg"
   xmlns:svg="http://www.w3.org/2000/svg">
  <defs
     id="defs18440" />
  <sodipodi:namedview
     id="namedview18438"
     pagecolor="#ffffff"
     bordercolor="#666666"
     borderopacity="1.0"
     inkscape:pageshadow="2"
     inkscape:pageopacity="0.0"
     inkscape:pagecheckerboard="0"
     showgrid="false"
     inkscape:zoom="57.285714"
     inkscape:cx="6.9912718"
     inkscape:cy="7"
     inkscape:window-width="1920"
     inkscape:window-height="1011"
     inkscape:window-x="0"
     inkscape:window-y="0"
     inkscape:window-maximized="1"
     inkscape:current-layer="svg18436" />
  <path
     d="M7 14A7 7 0 1 1 7 0a7 7 0 0 1 0 14z"
     id="path18430" />
  <path
     d="M7 13A6 6 0 1 0 7 1a6 6 0 0 0 0 12z"
     fill="#FFF"
     fill-rule="nonzero"
     style="fill: var(--svg-status-bg, #fff);"
     id="path18432" />
  <path
     d="M6.415 7.04L4.579 5.203a.295.295 0 0 1 .004-.416l.349-.349a.29.29 0 0 1 .416-.004l2.214 2.214a.289.289 0 0 1 .019.021l.132.133c.11.11.108.291 0 .398L5.341 9.573a.282.282 0 0 1-.398 0l-.331-.331a.285.285 0 0 1 0-.399L6.415 7.04zm2.54 0L7.119 5.203a.295.295 0 0 1 .004-.416l.349-.349a.29.29 0 0 1 .416-.004l2.214 2.214a.289.289 0 0 1 .019.021l.132.133c.11.11.108.291 0 .398L7.881 9.573a.282.282 0 0 1-.398 0l-.331-.331a.285.285 0 0 1 0-.399L8.955 7.04z"
     id="path18434" />
</svg>
