<?xml version="1.0" encoding="UTF-8" standalone="no"?>
<svg
   width="14"
   height="14"
   viewBox="0 0 14 14"
   version="1.1"
   id="svg8922"
   sodipodi:docname="warning.svg"
   inkscape:version="1.1.2 (0a00cf5339, 2022-02-04)"
   inkscape:export-filename="/home/dosimont/git/alya-cicd/web/img/png/warning.png"
   inkscape:export-xdpi="300.29901"
   inkscape:export-ydpi="300.29901"
   xmlns:inkscape="http://www.inkscape.org/namespaces/inkscape"
   xmlns:sodipodi="http://sodipodi.sourceforge.net/DTD/sodipodi-0.dtd"
   xmlns="http://www.w3.org/2000/svg"
   xmlns:svg="http://www.w3.org/2000/svg">
  <defs
     id="defs8926" />
  <sodipodi:namedview
     id="namedview8924"
     pagecolor="#ffffff"
     bordercolor="#666666"
     borderopacity="1.0"
     inkscape:pageshadow="2"
     inkscape:pageopacity="0.0"
     inkscape:pagecheckerboard="0"
     showgrid="false"
     inkscape:zoom="57.285714"
     inkscape:cx="6.9912718"
     inkscape:cy="7"
     inkscape:window-width="1920"
     inkscape:window-height="1011"
     inkscape:window-x="0"
     inkscape:window-y="0"
     inkscape:window-maximized="1"
     inkscape:current-layer="g8920" />
  <g
     fill-rule="evenodd"
     id="g8920">
    <path
       d="M0 7a7 7 0 1 1 14 0A7 7 0 0 1 0 7z"
       id="path8914"
       style="fill:#ff9400;fill-opacity:1" />
    <path
       d="M13 7A6 6 0 1 0 1 7a6 6 0 0 0 12 0z"
       fill="#FFF"
       style="fill: var(--svg-status-bg, #fff);"
       id="path8916" />
    <path
       d="M6 3.5c0-.3.2-.5.5-.5h1c.3 0 .5.2.5.5v4c0 .3-.2.5-.5.5h-1c-.3 0-.5-.2-.5-.5v-4m0 6c0-.3.2-.5.5-.5h1c.3 0 .5.2.5.5v1c0 .3-.2.5-.5.5h-1c-.3 0-.5-.2-.5-.5v-1"
       id="path8918"
       style="fill:#ff9400;fill-opacity:1" />
  </g>
</svg>
