<?xml version="1.0" encoding="UTF-8"?>
<svg version="1.1" xmlns="http://www.w3.org/2000/svg" width="372" height="372">
<path d="M0 0 C3.44188025 1.5473805 6.64195832 3.43453032 9.875 5.375 C10.80320557 5.9201123 11.73141113 6.46522461 12.68774414 7.02685547 C15.46853557 8.66840941 18.23609811 10.33019545 21 12 C21.76328613 12.45826172 22.52657227 12.91652344 23.31298828 13.38867188 C35.7048788 20.85962583 47.52722542 29.01357509 58.734375 38.1796875 C61.61074525 40.49070222 64.5899777 42.64271149 67.6015625 44.7734375 C68.06304687 45.17820313 68.52453125 45.58296875 69 46 C69 46.66 69 47.32 69 48 C69.58628174 48.26176025 70.17256348 48.52352051 70.77661133 48.79321289 C73.12431048 50.06747191 74.68581889 51.42738878 76.57421875 53.30859375 C77.23719971 53.96738525 77.90018066 54.62617676 78.58325195 55.30493164 C79.27765381 56.0086792 79.97205566 56.71242676 80.6875 57.4375 C81.40574951 58.16251709 82.12399902 58.88753418 82.86401367 59.63452148 C88.28236525 65.15823841 93.31764219 70.8344644 98 77 C98.84237124 78.06646682 99.68482358 79.13286958 100.52734375 80.19921875 C123.38531443 109.6793207 138.07286582 146.2447739 142.6875 183.1875 C142.80697998 184.12924072 142.92645996 185.07098145 143.04956055 186.04125977 C145.45601635 207.01976916 145.17504444 228.22835293 145.20018864 249.31279564 C145.20315712 251.68188574 145.20726732 254.05097141 145.21169281 256.4200592 C145.22526667 263.86092775 145.23499203 271.30178574 145.2388947 278.74266577 C145.2434041 287.28601047 145.26112624 295.82919748 145.2898953 304.37249422 C145.31150231 311.02181206 145.32159782 317.67108534 145.32293582 324.32043791 C145.32398102 328.27523673 145.3298327 332.22988518 145.34775543 336.18464661 C145.36422767 339.88837754 145.36639601 343.59184447 145.35761642 347.29559898 C145.35648035 349.29574379 145.37018861 351.29587987 145.3843689 353.29597473 C145.37601517 355.09073494 145.37601517 355.09073494 145.36749268 356.92175293 C145.36895924 357.95692802 145.3704258 358.99210312 145.3719368 360.05864716 C144.82480102 364.38550964 143.16517592 367.7099838 140.25 370.9375 C136.85407962 372.54112907 134.42551855 372.21648274 131 371 C119.60899067 365.21798134 119.60899067 365.21798134 118 362 C117.91029803 360.02656834 117.88689839 358.05001368 117.89320374 356.07455444 C117.89471939 354.81070923 117.89623505 353.54686401 117.89779663 352.24472046 C117.9045268 350.83550989 117.91133487 349.4262997 117.91821289 348.01708984 C117.92176821 346.53851421 117.92485442 345.05993739 117.92750549 343.58135986 C117.9340709 340.38820371 117.94364136 337.19507525 117.95540047 334.00193405 C117.97371775 328.92924358 117.98330237 323.85655985 117.99131775 318.78384399 C118.01543824 304.35472632 118.05091266 289.92564921 118.09594727 275.49658203 C118.12072284 267.53367955 118.13795117 259.57079387 118.14750665 251.6078583 C118.15291419 247.40405137 118.16209362 243.20033303 118.18089485 238.99656296 C118.49705166 203.7273117 118.49705166 203.7273117 113 169 C112.82597656 168.30245605 112.65195312 167.60491211 112.47265625 166.88623047 C104.5952612 135.81805603 89.8275762 104.34956625 66.6171875 81.671875 C65 80 65 80 65 78 C64.43023437 77.76152344 63.86046875 77.52304688 63.2734375 77.27734375 C60.5198864 75.73024545 58.78561331 73.86690839 56.625 71.5625 C52.57145065 67.42487703 48.36498045 63.70507646 43.8125 60.125 C42.95809326 59.44739624 42.95809326 59.44739624 42.08642578 58.75610352 C38.23756599 55.77420912 34.27272536 53.33452593 30 51 C29.79375 51.66 29.5875 52.32 29.375 53 C27.79545644 56.44627686 25.75696879 59.15229511 23.4375 62.1328125 C22.22583894 63.70665485 21.10176115 65.34735828 20 67 C21.05574219 67.76570313 21.05574219 67.76570313 22.1328125 68.546875 C40.94242447 82.39624987 56.71671026 97.72282732 70 117 C70.64582031 117.92167969 71.29164063 118.84335938 71.95703125 119.79296875 C91.06420619 148.30277153 98.20564151 183.09710263 98.11352539 216.87817383 C98.11324251 218.31849668 98.11340321 219.75881968 98.1139679 221.19914246 C98.11425194 225.06603088 98.10841931 228.93288756 98.10139394 232.79976869 C98.09509445 236.85696386 98.09455143 240.91415995 98.09336853 244.97135925 C98.09027451 252.63494857 98.0820874 260.29852343 98.07201904 267.96210641 C98.06079764 276.69500877 98.05533234 285.42791186 98.05032361 294.16081965 C98.03990295 312.10722126 98.02234128 330.05360946 98 348 C93.95594173 347.38863812 91.02937465 346.73881893 87.546875 344.56640625 C86.763125 344.08236328 85.979375 343.59832031 85.171875 343.09960938 C84.37265625 342.59236328 83.5734375 342.08511719 82.75 341.5625 C81.9353125 341.05912109 81.120625 340.55574219 80.28125 340.03710938 C74.32317995 336.32317995 74.32317995 336.32317995 72 334 C71.74666691 331.71983624 71.74666691 331.71983624 71.74171448 328.81364441 C71.73488647 327.7137468 71.72805847 326.61384918 71.72102356 325.48062134 C71.72357651 324.26780487 71.72612946 323.0549884 71.72875977 321.80541992 C71.72073489 319.85009392 71.71270768 317.89476792 71.70459449 315.93944228 C71.69772629 313.83100283 71.69573823 311.72260678 71.69503975 309.61415672 C71.69309603 305.20171089 71.67501731 300.78942159 71.65428162 296.37702942 C71.60509605 285.39895943 71.57440952 274.42084609 71.55297852 263.44268799 C71.53634576 254.94336303 71.51316767 246.44417064 71.46995777 237.94493371 C71.45195107 234.28839678 71.43953874 230.6320394 71.44125557 226.97545433 C71.45598236 182.10818781 62.1417353 142.91623495 30 110 C29.3090625 109.2471875 28.618125 108.494375 27.90625 107.71875 C21.33469106 100.74278744 13.64663273 95.04761491 5.92431641 89.41162109 C4.70507685 88.51722334 3.50163616 87.60052593 2.32177734 86.65478516 C0.656487 85.31904605 0.656487 85.31904605 -2 84 C-6.39826149 84.84340672 -9.969903 87.84637252 -13.5625 90.4375 C-14.17456299 90.87779541 -14.78662598 91.31809082 -15.41723633 91.77172852 C-21.72499483 96.39872353 -27.38050796 101.57164714 -33 107 C-33.93714844 107.87398438 -34.87429687 108.74796875 -35.83984375 109.6484375 C-61.08900316 133.79980737 -76.41684002 170.09729925 -77.23638916 204.90249634 C-77.31362646 211.60617322 -77.28259403 218.30846155 -77.22729874 225.01212502 C-77.19126615 229.48059225 -77.18549218 233.94880954 -77.18502808 238.41740417 C-77.18011068 251.10704515 -77.15041213 263.79626511 -77.05859375 276.4855957 C-77.00786958 283.53047183 -76.98919664 290.57467651 -77.0061816 297.6197235 C-77.01515568 302.05891666 -76.98513164 306.49554591 -76.92592168 310.93432581 C-76.8923477 314.33514063 -76.91769438 317.7350541 -76.93408203 321.13598633 C-76.90636215 322.35626526 -76.87864227 323.57654419 -76.8500824 324.83380127 C-76.96829666 332.91886817 -76.96829666 332.91886817 -79.94904709 336.04242516 C-82.24025534 337.58883271 -84.50834867 338.8111641 -87 340 C-88.20538444 340.76091955 -89.40063073 341.53828907 -90.58203125 342.3359375 C-91.64808594 343.00882812 -92.71414062 343.68171875 -93.8125 344.375 C-94.89144531 345.06335938 -95.97039062 345.75171875 -97.08203125 346.4609375 C-100 348 -100 348 -104 348 C-104.04687925 328.97953916 -104.08206646 309.95909016 -104.10362434 290.93858337 C-104.11390349 282.10552022 -104.12789893 273.27249312 -104.15087891 264.43945312 C-104.17091637 256.73373291 -104.18374082 249.02803883 -104.18817699 241.32229328 C-104.19076697 237.2483884 -104.19678303 233.17455824 -104.21146011 229.10067749 C-104.22520839 225.25280316 -104.2291885 221.4050331 -104.22621536 217.55713654 C-104.22675793 216.15770142 -104.23063135 214.75826217 -104.23841095 213.35884857 C-104.31053978 199.6939959 -102.86754185 186.38060845 -99.75 173.0625 C-99.53384033 172.13284424 -99.31768066 171.20318848 -99.0949707 170.24536133 C-92.66366927 143.50903119 -80.20346775 119.65152031 -62 99 C-61.14921875 98.02804688 -60.2984375 97.05609375 -59.421875 96.0546875 C-44.49664124 79.24997986 -27.06304345 65.81934322 -7.69873047 54.46289062 C-6.99377441 54.04845703 -6.28881836 53.63402344 -5.5625 53.20703125 C-4.94503906 52.8510083 -4.32757813 52.49498535 -3.69140625 52.12817383 C-1.91935409 51.03096351 -1.91935409 51.03096351 -0.40234375 49.36206055 C1 48 1 48 3 48 C5.31082041 43.54341778 7 40.09639729 7 35 C5.64114298 34.10013468 4.26193195 33.2309613 2.875 32.375 C2.10929688 31.88773438 1.34359375 31.40046875 0.5546875 30.8984375 C-3.01149692 29.64427478 -4.58224901 30.47766424 -8 32 C-10.28644242 33.21999431 -12.48236267 34.46177828 -14.6875 35.8125 C-15.32397461 36.19921875 -15.96044922 36.5859375 -16.61621094 36.984375 C-32.54411999 46.79321683 -47.33882302 57.55713835 -61.00390625 70.34765625 C-63 72 -63 72 -65 72 C-65 72.66 -65 73.32 -65 74 C-65.66 74 -66.32 74 -67 74 C-67 74.66 -67 75.32 -67 76 C-67.66 76 -68.32 76 -69 76 C-69 76.66 -69 77.32 -69 78 C-69.66 78 -70.32 78 -71 78 C-71.23847656 78.56203125 -71.47695312 79.1240625 -71.72265625 79.703125 C-73.27941011 82.50242552 -75.20588506 84.45054397 -77.4375 86.75 C-103.31842112 114.7970011 -118.47260605 152.92333152 -122.71452141 190.48305225 C-122.88954571 192.02616977 -123.07262859 193.56843192 -123.26945686 195.1089201 C-124.18596918 202.91809478 -124.11178055 210.71143281 -124.06591797 218.55981445 C-124.06071546 220.10980579 -124.05600922 221.65979886 -124.05175781 223.20979309 C-124.04187305 226.52835496 -124.02904585 229.8468875 -124.01403427 233.16543007 C-123.99084864 238.41416444 -123.9776328 243.66289512 -123.96633911 248.91166687 C-123.93300089 263.8302398 -123.89114203 278.74875526 -123.82861328 293.66723633 C-123.79410166 301.92116783 -123.77028807 310.17505802 -123.75840485 318.42905396 C-123.7503099 323.64623219 -123.72907528 328.86313885 -123.69819999 334.0802294 C-123.68219805 337.32215617 -123.67878026 340.56400485 -123.67897034 343.80596733 C-123.67654834 345.3084094 -123.66896944 346.81085338 -123.65584183 348.31324005 C-123.63866105 350.3649904 -123.64003231 352.41593264 -123.64596558 354.46772766 C-123.64190138 355.61527684 -123.63783718 356.76282602 -123.63364983 357.94514942 C-124.04536455 361.3782772 -124.95881576 363.2356231 -127 366 C-131.25471172 369.01251441 -135.66815706 370.80349858 -140.8125 371.5625 C-144.64963832 370.88535794 -146.29867868 369.77850193 -149 367 C-151.168379 363.60348874 -151.25123323 360.82733294 -151.25396729 356.84077454 C-151.25960693 355.57562515 -151.26524658 354.31047577 -151.27105713 353.00698853 C-151.26716815 351.60662785 -151.26307179 350.20626773 -151.25878906 348.8059082 C-151.26149998 347.3286573 -151.26506147 345.85140776 -151.26940918 344.37416077 C-151.27854024 340.35628465 -151.27498156 336.33851112 -151.26865101 332.32063317 C-151.26357486 328.0935694 -151.26828878 323.86651421 -151.27142334 319.63945007 C-151.27506665 312.51816241 -151.27026308 305.39691614 -151.26074219 298.27563477 C-151.24994463 290.10650291 -151.25331767 281.93747157 -151.264395 273.76834232 C-151.27356332 266.71908835 -151.27470461 259.66986415 -151.26951766 252.62060612 C-151.26643837 248.42744163 -151.26587277 244.23432377 -151.27259064 240.04116249 C-151.35199533 182.43176151 -143.10110103 127.94537897 -107 81 C-106.50983398 80.35047363 -106.01966797 79.70094727 -105.51464844 79.03173828 C-92.82352944 62.3055582 -77.91337117 47.42955514 -61 35 C-60.06800781 34.27296875 -59.13601562 33.5459375 -58.17578125 32.796875 C-44.02555135 21.82403285 -28.68949831 12.57551704 -13 4 C-12.40912598 3.62633301 -11.81825195 3.25266602 -11.20947266 2.86767578 C-7.22726679 0.38111362 -4.66209293 -0.85910803 0 0 Z " fill="#000000" transform="translate(189,0)"/>
</svg>
