<svg xmlns="http://www.w3.org/2000/svg" xmlns:xlink="http://www.w3.org/1999/xlink" width="500" zoomAndPan="magnify" viewBox="0 0 375 374.999991" height="500" preserveAspectRatio="xMidYMid meet" version="1.0"><defs><style>
    .bg-fill { fill: #1a1a1a; }
    .text-fill { fill: #ffffff; }
    @media (prefers-color-scheme: dark) {
      .bg-fill { fill: #ffffff; }
      .text-fill { fill: #000000; }
    }
  </style><g/><clipPath id="b51f76a337"><path d="M 3.035156 144.140625 L 230.859375 144.140625 L 230.859375 372.855469 L 3.035156 372.855469 Z M 3.035156 144.140625 " clip-rule="nonzero"/></clipPath><clipPath id="8f1e40d1fe"><path d="M 36.785156 144.140625 L 197.109375 144.140625 C 215.746094 144.140625 230.859375 159.253906 230.859375 177.890625 L 230.859375 338.4375 C 230.859375 357.078125 215.746094 372.1875 197.109375 372.1875 L 36.785156 372.1875 C 18.144531 372.1875 3.035156 357.078125 3.035156 338.4375 L 3.035156 177.890625 C 3.035156 159.253906 18.144531 144.140625 36.785156 144.140625 Z M 36.785156 144.140625 " clip-rule="nonzero"/></clipPath><clipPath id="a9743c4ed4"><path d="M 0.0351562 0.140625 L 227.859375 0.140625 L 227.859375 228 L 0.0351562 228 Z M 0.0351562 0.140625 " clip-rule="nonzero"/></clipPath><clipPath id="7df17fe9d7"><path d="M 33.785156 0.140625 L 194.109375 0.140625 C 212.746094 0.140625 227.859375 15.253906 227.859375 33.890625 L 227.859375 194.4375 C 227.859375 213.078125 212.746094 228.1875 194.109375 228.1875 L 33.785156 228.1875 C 15.144531 228.1875 0.0351562 213.078125 0.0351562 194.4375 L 0.0351562 33.890625 C 0.0351562 15.253906 15.144531 0.140625 33.785156 0.140625 Z M 33.785156 0.140625 " clip-rule="nonzero"/></clipPath><clipPath id="3c7a6c5c0d"><rect x="0" width="228" y="0" height="229"/></clipPath><clipPath id="8c49c456ae"><path d="M 144.140625 3.035156 L 371.964844 3.035156 L 371.964844 231.746094 L 144.140625 231.746094 Z M 144.140625 3.035156 " clip-rule="nonzero"/></clipPath><clipPath id="7256281efc"><path d="M 177.890625 3.035156 L 338.214844 3.035156 C 356.855469 3.035156 371.964844 18.144531 371.964844 36.785156 L 371.964844 197.34375 C 371.964844 215.984375 356.855469 231.09375 338.214844 231.09375 L 177.890625 231.09375 C 159.253906 231.09375 144.140625 215.984375 144.140625 197.34375 L 144.140625 36.785156 C 144.140625 18.144531 159.253906 3.035156 177.890625 3.035156 Z M 177.890625 3.035156 " clip-rule="nonzero"/></clipPath><clipPath id="dcec00fd11"><path d="M 0.140625 0.0351562 L 227.964844 0.0351562 L 227.964844 228 L 0.140625 228 Z M 0.140625 0.0351562 " clip-rule="nonzero"/></clipPath><clipPath id="ca13e785e3"><path d="M 33.890625 0.0351562 L 194.214844 0.0351562 C 212.855469 0.0351562 227.964844 15.144531 227.964844 33.785156 L 227.964844 194.34375 C 227.964844 212.984375 212.855469 228.09375 194.214844 228.09375 L 33.890625 228.09375 C 15.253906 228.09375 0.140625 212.984375 0.140625 194.34375 L 0.140625 33.785156 C 0.140625 15.144531 15.253906 0.0351562 33.890625 0.0351562 Z M 33.890625 0.0351562 " clip-rule="nonzero"/></clipPath><clipPath id="2c00dca172"><rect x="0" width="228" y="0" height="229"/></clipPath></defs><g clip-path="url(#b51f76a337)"><g clip-path="url(#8f1e40d1fe)"><g transform="matrix(1, 0, 0, 1, 3, 144)"><g clip-path="url(#3c7a6c5c0d)"><g clip-path="url(#a9743c4ed4)"><g clip-path="url(#7df17fe9d7)"><path class="bg-fill" d="M 0.0351562 0.140625 L 227.859375 0.140625 L 227.859375 227.964844 L 0.0351562 227.964844 Z M 0.0351562 0.140625 " fill-opacity="1" fill-rule="nonzero"/></g></g></g></g></g></g><g class="text-fill" fill-opacity="1"><g transform="translate(93.814767, 318.141908)"><g><path d="M 38.59375 -1.359375 C 38.59375 -0.335938 32.8125 0.171875 21.25 0.171875 C 12.1875 0.0546875 7.65625 -0.394531 7.65625 -1.1875 L 7.65625 -116.953125 C 7.65625 -118.648438 13.148438 -119.5 24.140625 -119.5 C 33.773438 -119.15625 38.59375 -118.585938 38.59375 -117.796875 Z M 38.59375 -1.359375 "/></g></g></g><g clip-path="url(#8c49c456ae)"><g clip-path="url(#7256281efc)"><g transform="matrix(1, 0, 0, 1, 144, 3)"><g clip-path="url(#2c00dca172)"><g clip-path="url(#dcec00fd11)"><g clip-path="url(#ca13e785e3)"><path class="bg-fill" d="M 0.140625 0.0351562 L 227.964844 0.0351562 L 227.964844 227.859375 L 0.140625 227.859375 Z M 0.140625 0.0351562 " fill-opacity="1" fill-rule="nonzero"/></g></g></g></g></g></g><g class="text-fill" fill-opacity="1"><g transform="translate(213.849071, 177.035864)"><g><path d="M 8.5 -118.484375 C 8.5 -119.847656 13.398438 -120.53125 23.203125 -120.53125 C 33.003906 -120.53125 37.90625 -119.789062 37.90625 -118.3125 L 37.90625 -85.34375 C 42.78125 -86.25 46.238281 -86.703125 48.28125 -86.703125 C 72.082031 -86.703125 83.984375 -73.046875 83.984375 -45.734375 C 83.984375 -30.546875 80.328125 -18.84375 73.015625 -10.625 C 65.703125 -2.40625 55.332031 1.703125 41.90625 1.703125 C 28.476562 1.703125 17.34375 -1.300781 8.5 -7.3125 Z M 43.515625 -60.1875 C 41.585938 -60.1875 39.71875 -59.5625 37.90625 -58.3125 L 37.90625 -25.84375 C 39.5 -25.15625 41.171875 -24.8125 42.921875 -24.8125 C 44.679688 -24.8125 46.46875 -25.492188 48.28125 -26.859375 C 51.457031 -29.128906 53.046875 -34.398438 53.046875 -42.671875 C 53.046875 -54.347656 49.867188 -60.1875 43.515625 -60.1875 Z M 43.515625 -60.1875 "/></g></g></g></svg>
