<svg width="39" height="36" viewBox="0 0 39 36" fill="none"
    xmlns="http://www.w3.org/2000/svg">
    <path d="M32.5 0C36.0899 0 39 2.91015 39 6.5V21.5C39 25.0898 36.0899 28 32.5 28H31.3281L31.2256 25.5H32.5L32.7061 25.4951C34.7512 25.3913 36.3913 23.7512 36.4951 21.7061L36.5 21.5V6.5C36.5 4.29086 34.7091 2.5 32.5 2.5H6.5C4.29086 2.5 2.5 4.29086 2.5 6.5V21.5L2.50488 21.7061C2.60865 23.7512 4.2488 25.3913 6.29395 25.4951L6.5 25.5H22.2588L26.5889 28H6.5C2.91015 28 4.0266e-08 25.0899 0 21.5V6.5C2.25497e-07 2.91015 2.91015 8.0532e-09 6.5 0H32.5Z" fill="#2F9872"/>
    <path d="M11.7639 22.94C10.5639 22.94 9.62391 22.5933 8.94391 21.9C8.27724 21.22 7.94391 20.34 7.94391 19.26V17.6C7.94391 17.04 7.87057 16.5867 7.72391 16.24C7.59057 15.88 7.38391 15.62 7.10391 15.46C6.82391 15.3 6.47724 15.22 6.06391 15.22V13.1C6.47724 13.1 6.82391 13.02 7.10391 12.86C7.38391 12.7 7.59057 12.4467 7.72391 12.1C7.87057 11.74 7.94391 11.28 7.94391 10.72V9.06C7.94391 7.98 8.27724 7.1 8.94391 6.42C9.62391 5.72667 10.5639 5.38 11.7639 5.38H12.9439V7.62C12.0506 7.59333 11.3972 7.72 10.9839 8C10.5839 8.26667 10.3839 8.71333 10.3839 9.34V10.9C10.3839 11.8467 10.1572 12.5933 9.70391 13.14C9.25057 13.6733 8.71724 13.9933 8.10391 14.1V14.18C8.73057 14.2867 9.26391 14.6133 9.70391 15.16C10.1572 15.7067 10.3839 16.46 10.3839 17.42V18.96C10.3839 19.6133 10.5839 20.08 10.9839 20.36C11.3972 20.64 12.0506 20.7667 12.9439 20.74V22.94H11.7639Z" fill="#2C383E"/>
    <path d="M27.2439 22.94H26.0639V20.74C26.9706 20.7667 27.6239 20.64 28.0239 20.36C28.4239 20.08 28.6239 19.6133 28.6239 18.96V17.42C28.6239 16.46 28.8439 15.7067 29.2839 15.16C29.7372 14.6133 30.2772 14.2867 30.9039 14.18V14.1C30.2906 13.9933 29.7572 13.6733 29.3039 13.14C28.8506 12.5933 28.6239 11.8467 28.6239 10.9V9.34C28.6239 8.71333 28.4239 8.26667 28.0239 8C27.6239 7.72 26.9706 7.59333 26.0639 7.62V5.38H27.2439C28.4572 5.38 29.3972 5.72667 30.0639 6.42C30.7306 7.1 31.0639 7.98 31.0639 9.06V10.72C31.0639 11.28 31.1306 11.74 31.2639 12.1C31.4106 12.4467 31.6239 12.7 31.9039 12.86C32.1839 13.02 32.5306 13.1 32.9439 13.1V15.22C32.5306 15.22 32.1839 15.3 31.9039 15.46C31.6239 15.62 31.4106 15.88 31.2639 16.24C31.1306 16.5867 31.0639 17.04 31.0639 17.6V19.26C31.0639 20.34 30.7306 21.22 30.0639 21.9C29.3972 22.5933 28.4572 22.94 27.2439 22.94Z" fill="#2C383E"/>
    <path d="M14.5293 19.5C14.4226 19.5 14.3266 19.4627 14.2413 19.388C14.1666 19.3133 14.1293 19.2173 14.1293 19.1V8.7C14.1293 8.58267 14.1666 8.48667 14.2413 8.412C14.3266 8.33733 14.4226 8.3 14.5293 8.3H16.0173C16.1773 8.3 16.2946 8.34267 16.3693 8.428C16.4546 8.51333 16.5133 8.57733 16.5453 8.62L19.4893 14.044L22.4653 8.62C22.4866 8.57733 22.5346 8.51333 22.6093 8.428C22.6946 8.34267 22.8173 8.3 22.9773 8.3H24.4653C24.5826 8.3 24.6786 8.33733 24.7533 8.412C24.828 8.48667 24.8653 8.58267 24.8653 8.7V19.1C24.8653 19.2173 24.828 19.3133 24.7533 19.388C24.6786 19.4627 24.5826 19.5 24.4653 19.5H22.8333C22.7266 19.5 22.636 19.4627 22.5613 19.388C22.4866 19.3133 22.4493 19.2173 22.4493 19.1V12.636L20.4173 16.444C20.364 16.54 20.2946 16.6253 20.2093 16.7C20.124 16.7747 20.012 16.812 19.8733 16.812H19.1213C18.9826 16.812 18.8706 16.7747 18.7853 16.7C18.7 16.6253 18.6306 16.54 18.5773 16.444L16.5453 12.636V19.1C16.5453 19.2173 16.508 19.3133 16.4333 19.388C16.3586 19.4627 16.268 19.5 16.1613 19.5H14.5293Z" fill="#2F9872"/>
    <mask id="mask0_6_2" style="mask-type:alpha" maskUnits="userSpaceOnUse" x="11" y="25" width="26" height="11">
        <rect x="11.5" y="25.5" width="25" height="10" fill="#D9D9D9"/>
    </mask>
    <g mask="url(#mask0_6_2)">
        <path d="M33.3539 21.0919L33.1508 29.8751L33.0395 34.6974L29.1625 31.8253L24.0121 28.0089L21.5912 26.216L23.4604 24.4816L30.7885 30.0001L30.9223 17.5587L33.4916 15.1779L33.3539 21.0919Z" fill="#2F9872"/>
    </g>
</svg>
