<svg width="512" height="512" viewBox="0 0 512 512" fill="none" xmlns="http://www.w3.org/2000/svg">
<rect width="512" height="512" fill="white"/>
<circle cx="256" cy="256" r="175" stroke="black" stroke-width="50"/>
<path d="M256 150C313.9 150 361 197.143 361 255.5C361 313.857 313.9 361 256 361C198.1 361 151 313.857 151 255.5C151 197.143 198.1 150 256 150Z" stroke="black" stroke-width="50"/>
<path d="M126 245.303C126 174.995 182.995 118 253.303 118V118C254.24 118 255 118.76 255 119.697V392.303C255 393.24 254.24 394 253.303 394V394C182.995 394 126 337.005 126 266.697V245.303Z" fill="white"/>
<path d="M255.5 215C277.713 215 296 233.201 296 256C296 278.799 277.713 297 255.5 297C233.287 297 215 278.799 215 256C215 233.201 233.287 215 255.5 215Z" fill="black" stroke="black" stroke-width="40"/>
<path d="M255 188H252.5C215.221 188 185 218.221 185 255.5V255.5C185 292.779 215.221 323 252.5 323H255V188Z" fill="white"/>
</svg>
