<?xml version="1.0" encoding="UTF-8"?>
<svg version="1.1" xmlns="http://www.w3.org/2000/svg" width="130" height="130">
<path d="M0 0 C9.52010513 7.41664491 15.09853501 16.35618403 17.1328125 28.1953125 C18.01725435 37.47514857 15.88989296 45.34958098 12.38671875 53.859375 C10.98679606 56.93880087 10.98679606 56.93880087 12.8203125 60.109375 C13.47848674 61.36455981 14.14689222 62.61442077 14.82421875 63.859375 C18.38671875 70.48223214 18.38671875 70.48223214 18.38671875 73.859375 C2.65525724 73.22042208 -15.00974233 72.08079075 -26.984375 60.7109375 C-30.49363363 56.72199603 -31.75046099 52.75541053 -31.86328125 47.546875 C-31.61328125 43.859375 -31.61328125 43.859375 -30.61328125 41.859375 C-25.86248209 41.39650959 -21.34398294 41.1307505 -16.61328125 41.859375 C-13.97191277 44.16236549 -12.74380816 46.57056944 -11.61328125 49.859375 C-9.96328125 49.529375 -8.31328125 49.199375 -6.61328125 48.859375 C-8.00700945 44.42478527 -10.2191036 41.98559126 -13.61328125 38.859375 C-10.61871923 35.95555728 -9.15501717 34.90528482 -4.92578125 34.546875 C-1.61328125 34.859375 -1.61328125 34.859375 0.38671875 35.859375 C0.14036837 28.22251329 -1.77547649 22.84903803 -6.61328125 16.859375 C-12.07592707 12.12655635 -18.65391678 9.50087232 -25.92578125 9.921875 C-34.02481124 11.12224231 -40.39963488 15.06591653 -45.875 21.01171875 C-48.88757586 24.21384994 -52.27404622 27.00584689 -55.61328125 29.859375 C-54.04934955 34.95444809 -50.91166324 38.47190803 -47.55078125 42.484375 C-46.96659424 43.19223145 -46.38240723 43.90008789 -45.78051758 44.62939453 C-44.6055445 46.05253769 -43.42809123 47.47363714 -42.24804688 48.89257812 C-39.37450816 52.34975075 -36.53551545 55.83500591 -33.69140625 59.31640625 C-32.22668201 61.10876617 -30.75751212 62.89749762 -29.28515625 64.68359375 C-28.5478125 65.58722656 -27.81046875 66.49085937 -27.05078125 67.421875 C-26.38949219 68.22753906 -25.72820312 69.03320312 -25.046875 69.86328125 C-23.61328125 71.859375 -23.61328125 71.859375 -23.61328125 73.859375 C-40.99332615 75.65126139 -40.99332615 75.65126139 -46.62890625 71.796875 C-48.89161842 68.93185815 -50.7472814 65.99534552 -52.61328125 62.859375 C-54.12429831 60.95958855 -55.66609149 59.08385613 -57.23828125 57.234375 C-61.11100795 52.50406734 -64.8900255 47.70798779 -68.61328125 42.859375 C-71.08128172 44.01110855 -72.6611169 44.90721065 -74.61328125 46.859375 C-74.98567352 49.67340183 -74.98567352 49.67340183 -75.02734375 52.9609375 C-75.06601563 54.17265625 -75.1046875 55.384375 -75.14453125 56.6328125 C-75.17546875 57.90382813 -75.20640625 59.17484375 -75.23828125 60.484375 C-75.27695313 61.763125 -75.315625 63.041875 -75.35546875 64.359375 C-75.44998881 67.52579711 -75.53273325 70.69256666 -75.61328125 73.859375 C-80.89328125 73.859375 -86.17328125 73.859375 -91.61328125 73.859375 C-91.61328125 47.459375 -91.61328125 21.059375 -91.61328125 -6.140625 C-86.33328125 -6.140625 -81.05328125 -6.140625 -75.61328125 -6.140625 C-75.28328125 3.759375 -74.95328125 13.659375 -74.61328125 23.859375 C-72.30328125 21.549375 -69.99328125 19.239375 -67.61328125 16.859375 C-65.01095438 14.44906448 -62.30915491 12.16420897 -59.61328125 9.859375 C-58.69289062 9.03824219 -57.7725 8.21710937 -56.82421875 7.37109375 C-40.38522243 -7.09640645 -19.47866702 -12.67211188 0 0 Z " fill="#8D1F28" transform="translate(101.61328125,40.140625)"/>
<path d="M0 0 C5.28 0 10.56 0 16 0 C16 5.28 16 10.56 16 16 C10.72 16 5.44 16 0 16 C0 10.72 0 5.44 0 0 Z " fill="#8D1F28" transform="translate(10,13)"/>
<path d="M0 0 C2.5881216 2.25417042 2.94242643 3.60520979 3.4375 7 C3 10 3 10 1.3125 12.4375 C-1 14 -1 14 -3.5 14 C-6.52883952 12.78846419 -7.99800318 11.57399591 -10 9 C-11.02109189 6.08259461 -11.24058113 4.66622467 -10.1875 1.75 C-7.5157702 -2.18728602 -4.18538448 -0.95456137 0 0 Z " fill="#8D1E28" transform="translate(83,63)"/>
</svg>
