<?xml version="1.0" encoding="UTF-8" standalone="no"?>
<!DOCTYPE svg PUBLIC "-//W3C//DTD SVG 1.1//EN" "http://www.w3.org/Graphics/SVG/1.1/DTD/svg11.dtd">
<svg width="100%" height="100%" viewBox="0 0 291 582" version="1.1" xmlns="http://www.w3.org/2000/svg" xmlns:xlink="http://www.w3.org/1999/xlink" xml:space="preserve" xmlns:serif="http://www.serif.com/" style="fill-rule:evenodd;clip-rule:evenodd;">
    <g id="Calque-1" transform="matrix(2.834646,0,0,2.834646,-150.197736,-9.325816)">
        <g id="rect11950" transform="matrix(-0,1,-1,-0,154.143222,1.921143)">
            <rect x="7.474" y="4.613" width="193.178" height="89.39" style="fill:rgb(0,83,50);stroke:rgb(0,83,50);stroke-width:0.89px;"/>
        </g>
        <g id="path79-2-4-8" transform="matrix(-0.000583,-1,1,-0.000583,154.143222,1.921143)">
            <ellipse cx="-17.574" cy="-16.161" rx="6.936" ry="6.88" style="fill:white;stroke:rgb(171,148,79);stroke-width:4.39px;"/>
        </g>
        <g id="path79-2-4-8-9" transform="matrix(-0.000583,-1,1,-0.000583,154.143222,1.921143)">
            <ellipse cx="-17.325" cy="-85.218" rx="6.936" ry="6.88" style="fill:white;stroke:rgb(171,148,79);stroke-width:4.39px;"/>
        </g>
        <g id="path79-2-4-8-0" transform="matrix(-0.000583,-1,1,-0.000583,154.143222,1.921143)">
            <ellipse cx="-190.596" cy="-84.481" rx="6.936" ry="6.88" style="fill:white;stroke:rgb(171,148,79);stroke-width:4.39px;"/>
        </g>
        <g id="path79-2-4-8-7" transform="matrix(-0.000583,-1,1,-0.000583,154.143222,1.921143)">
            <ellipse cx="-190.218" cy="-14.587" rx="6.936" ry="6.88" style="fill:white;stroke:rgb(171,148,79);stroke-width:4.39px;"/>
        </g>
        <g id="path12034" transform="matrix(-0,1,-1,-0,154.143222,1.921143)">
            <ellipse cx="32.078" cy="11.959" rx="2.411" ry="2.201" style="fill:white;stroke:rgb(170,137,100);stroke-width:0.91px;"/>
        </g>
        <g id="path120341" transform="matrix(-0,1,-1,-0,146.029333,1.921143)">
            <ellipse cx="32.078" cy="11.959" rx="2.411" ry="2.201" style="fill:white;stroke:rgb(170,137,100);stroke-width:0.91px;"/>
        </g>
        <g id="use12289" transform="matrix(-0,1,-1,-0,154.143232,9.375775)">
            <ellipse cx="32.078" cy="11.959" rx="2.411" ry="2.201" style="fill:white;stroke:rgb(170,137,100);stroke-width:0.91px;"/>
        </g>
        <g id="use122891" transform="matrix(-0,1,-1,-0,146.029343,9.375775)">
            <ellipse cx="32.078" cy="11.959" rx="2.411" ry="2.201" style="fill:white;stroke:rgb(170,137,100);stroke-width:0.91px;"/>
        </g>
        <g id="use12291" transform="matrix(-0,1,-1,-0,154.143232,16.830434)">
            <ellipse cx="32.078" cy="11.959" rx="2.411" ry="2.201" style="fill:white;stroke:rgb(170,137,100);stroke-width:0.91px;"/>
        </g>
        <g id="use122911" transform="matrix(-0,1,-1,-0,146.029343,16.830434)">
            <ellipse cx="32.078" cy="11.959" rx="2.411" ry="2.201" style="fill:white;stroke:rgb(170,137,100);stroke-width:0.91px;"/>
        </g>
        <g id="use12293" transform="matrix(-0,1,-1,-0,154.143232,24.285048)">
            <ellipse cx="32.078" cy="11.959" rx="2.411" ry="2.201" style="fill:white;stroke:rgb(170,137,100);stroke-width:0.91px;"/>
        </g>
        <g id="use122931" transform="matrix(-0,1,-1,-0,146.029343,24.285048)">
            <ellipse cx="32.078" cy="11.959" rx="2.411" ry="2.201" style="fill:white;stroke:rgb(170,137,100);stroke-width:0.91px;"/>
        </g>
        <g id="use12295" transform="matrix(-0,1,-1,-0,154.143232,31.739707)">
            <ellipse cx="32.078" cy="11.959" rx="2.411" ry="2.201" style="fill:white;stroke:rgb(170,137,100);stroke-width:0.91px;"/>
        </g>
        <g id="use122951" transform="matrix(-0,1,-1,-0,146.029343,31.739707)">
            <ellipse cx="32.078" cy="11.959" rx="2.411" ry="2.201" style="fill:white;stroke:rgb(170,137,100);stroke-width:0.91px;"/>
        </g>
        <g id="use12297" transform="matrix(-0,1,-1,-0,154.143232,39.194366)">
            <ellipse cx="32.078" cy="11.959" rx="2.411" ry="2.201" style="fill:white;stroke:rgb(170,137,100);stroke-width:0.91px;"/>
        </g>
        <g id="use122971" transform="matrix(-0,1,-1,-0,146.029343,39.194366)">
            <ellipse cx="32.078" cy="11.959" rx="2.411" ry="2.201" style="fill:white;stroke:rgb(170,137,100);stroke-width:0.91px;"/>
        </g>
        <g id="use12299" transform="matrix(-0,1,-1,-0,154.143232,46.648982)">
            <ellipse cx="32.078" cy="11.959" rx="2.411" ry="2.201" style="fill:white;stroke:rgb(170,137,100);stroke-width:0.91px;"/>
        </g>
        <g id="use122991" transform="matrix(-0,1,-1,-0,146.029343,46.648982)">
            <ellipse cx="32.078" cy="11.959" rx="2.411" ry="2.201" style="fill:white;stroke:rgb(170,137,100);stroke-width:0.91px;"/>
        </g>
        <g id="use12301" transform="matrix(-0,1,-1,-0,154.143232,54.103641)">
            <ellipse cx="32.078" cy="11.959" rx="2.411" ry="2.201" style="fill:white;stroke:rgb(170,137,100);stroke-width:0.91px;"/>
        </g>
        <g id="use123011" transform="matrix(-0,1,-1,-0,146.029343,54.103641)">
            <ellipse cx="32.078" cy="11.959" rx="2.411" ry="2.201" style="fill:white;stroke:rgb(170,137,100);stroke-width:0.91px;"/>
        </g>
        <g id="use12303" transform="matrix(-0,1,-1,-0,154.143232,61.558256)">
            <ellipse cx="32.078" cy="11.959" rx="2.411" ry="2.201" style="fill:white;stroke:rgb(170,137,100);stroke-width:0.91px;"/>
        </g>
        <g id="use123031" transform="matrix(-0,1,-1,-0,146.029343,61.558256)">
            <ellipse cx="32.078" cy="11.959" rx="2.411" ry="2.201" style="fill:white;stroke:rgb(170,137,100);stroke-width:0.91px;"/>
        </g>
        <g id="use12305" transform="matrix(-0,1,-1,-0,154.143232,69.012915)">
            <ellipse cx="32.078" cy="11.959" rx="2.411" ry="2.201" style="fill:white;stroke:rgb(170,137,100);stroke-width:0.91px;"/>
        </g>
        <g id="use123051" transform="matrix(-0,1,-1,-0,146.029343,69.012915)">
            <ellipse cx="32.078" cy="11.959" rx="2.411" ry="2.201" style="fill:white;stroke:rgb(170,137,100);stroke-width:0.91px;"/>
        </g>
        <g id="use12307" transform="matrix(-0,1,-1,-0,154.143232,76.467573)">
            <ellipse cx="32.078" cy="11.959" rx="2.411" ry="2.201" style="fill:white;stroke:rgb(170,137,100);stroke-width:0.91px;"/>
        </g>
        <g id="use123071" transform="matrix(-0,1,-1,-0,146.029343,76.467573)">
            <ellipse cx="32.078" cy="11.959" rx="2.411" ry="2.201" style="fill:white;stroke:rgb(170,137,100);stroke-width:0.91px;"/>
        </g>
        <g id="use12309" transform="matrix(-0,1,-1,-0,154.143232,83.922189)">
            <ellipse cx="32.078" cy="11.959" rx="2.411" ry="2.201" style="fill:white;stroke:rgb(170,137,100);stroke-width:0.91px;"/>
        </g>
        <g id="use123091" transform="matrix(-0,1,-1,-0,146.029343,83.922189)">
            <ellipse cx="32.078" cy="11.959" rx="2.411" ry="2.201" style="fill:white;stroke:rgb(170,137,100);stroke-width:0.91px;"/>
        </g>
        <g id="use12311" transform="matrix(-0,1,-1,-0,154.143232,91.376848)">
            <ellipse cx="32.078" cy="11.959" rx="2.411" ry="2.201" style="fill:white;stroke:rgb(170,137,100);stroke-width:0.91px;"/>
        </g>
        <g id="use123111" transform="matrix(-0,1,-1,-0,146.029343,91.376848)">
            <ellipse cx="32.078" cy="11.959" rx="2.411" ry="2.201" style="fill:white;stroke:rgb(170,137,100);stroke-width:0.91px;"/>
        </g>
        <g id="use12313" transform="matrix(-0,1,-1,-0,154.143232,98.831462)">
            <ellipse cx="32.078" cy="11.959" rx="2.411" ry="2.201" style="fill:white;stroke:rgb(170,137,100);stroke-width:0.91px;"/>
        </g>
        <g id="use123131" transform="matrix(-0,1,-1,-0,146.029343,98.831462)">
            <ellipse cx="32.078" cy="11.959" rx="2.411" ry="2.201" style="fill:white;stroke:rgb(170,137,100);stroke-width:0.91px;"/>
        </g>
        <g id="use12315" transform="matrix(-0,1,-1,-0,154.143232,106.286123)">
            <ellipse cx="32.078" cy="11.959" rx="2.411" ry="2.201" style="fill:white;stroke:rgb(170,137,100);stroke-width:0.91px;"/>
        </g>
        <g id="use123151" transform="matrix(-0,1,-1,-0,146.029343,106.286123)">
            <ellipse cx="32.078" cy="11.959" rx="2.411" ry="2.201" style="fill:white;stroke:rgb(170,137,100);stroke-width:0.91px;"/>
        </g>
        <g id="use12317" transform="matrix(-0,1,-1,-0,154.143232,113.740783)">
            <ellipse cx="32.078" cy="11.959" rx="2.411" ry="2.201" style="fill:white;stroke:rgb(170,137,100);stroke-width:0.91px;"/>
        </g>
        <g id="use123171" transform="matrix(-0,1,-1,-0,146.029343,113.740783)">
            <ellipse cx="32.078" cy="11.959" rx="2.411" ry="2.201" style="fill:white;stroke:rgb(170,137,100);stroke-width:0.91px;"/>
        </g>
        <g id="use12319" transform="matrix(-0,1,-1,-0,154.143232,121.195393)">
            <ellipse cx="32.078" cy="11.959" rx="2.411" ry="2.201" style="fill:white;stroke:rgb(170,137,100);stroke-width:0.91px;"/>
        </g>
        <g id="use123191" transform="matrix(-0,1,-1,-0,146.029343,121.195393)">
            <ellipse cx="32.078" cy="11.959" rx="2.411" ry="2.201" style="fill:white;stroke:rgb(170,137,100);stroke-width:0.91px;"/>
        </g>
        <g id="use12321" transform="matrix(-0,1,-1,-0,154.143232,128.650053)">
            <ellipse cx="32.078" cy="11.959" rx="2.411" ry="2.201" style="fill:white;stroke:rgb(170,137,100);stroke-width:0.91px;"/>
        </g>
        <g id="use123211" transform="matrix(-0,1,-1,-0,146.029343,128.650053)">
            <ellipse cx="32.078" cy="11.959" rx="2.411" ry="2.201" style="fill:white;stroke:rgb(170,137,100);stroke-width:0.91px;"/>
        </g>
        <g id="use12323" transform="matrix(-0,1,-1,-0,154.143232,136.104673)">
            <ellipse cx="32.078" cy="11.959" rx="2.411" ry="2.201" style="fill:white;stroke:rgb(170,137,100);stroke-width:0.91px;"/>
        </g>
        <g id="use123231" transform="matrix(-0,1,-1,-0,146.029343,136.104673)">
            <ellipse cx="32.078" cy="11.959" rx="2.411" ry="2.201" style="fill:white;stroke:rgb(170,137,100);stroke-width:0.91px;"/>
        </g>
        <g id="use12325" transform="matrix(-0,1,-1,-0,154.143232,143.559333)">
            <ellipse cx="32.078" cy="11.959" rx="2.411" ry="2.201" style="fill:white;"/>
        </g>
        <g id="use123251" transform="matrix(-0,1,-1,-0,146.029343,143.559333)">
            <ellipse cx="32.078" cy="11.959" rx="2.411" ry="2.201" style="fill:white;"/>
        </g>
        <g id="use12363" transform="matrix(-0,1,-1,-0,154.143232,1.92116)">
            <ellipse cx="32.078" cy="11.959" rx="2.411" ry="2.201" style="fill:white;"/>
        </g>
        <g id="use123631" transform="matrix(-0,1,-1,-0,146.029343,1.92116)">
            <ellipse cx="32.078" cy="11.959" rx="2.411" ry="2.201" style="fill:white;"/>
        </g>
        <g id="use12365" transform="matrix(-0,1,-1,-0,154.143232,9.375775)">
            <ellipse cx="32.078" cy="11.959" rx="2.411" ry="2.201" style="fill:white;"/>
        </g>
        <g id="use123651" transform="matrix(-0,1,-1,-0,146.029343,9.375775)">
            <ellipse cx="32.078" cy="11.959" rx="2.411" ry="2.201" style="fill:white;"/>
        </g>
        <g id="use12367" transform="matrix(-0,1,-1,-0,154.143232,16.830434)">
            <ellipse cx="32.078" cy="11.959" rx="2.411" ry="2.201" style="fill:white;"/>
        </g>
        <g id="use123671" transform="matrix(-0,1,-1,-0,146.029343,16.830434)">
            <ellipse cx="32.078" cy="11.959" rx="2.411" ry="2.201" style="fill:white;"/>
        </g>
        <g id="use12369" transform="matrix(-0,1,-1,-0,154.143232,24.285048)">
            <ellipse cx="32.078" cy="11.959" rx="2.411" ry="2.201" style="fill:white;"/>
        </g>
        <g id="use123691" transform="matrix(-0,1,-1,-0,146.029343,24.285048)">
            <ellipse cx="32.078" cy="11.959" rx="2.411" ry="2.201" style="fill:white;"/>
        </g>
        <g id="use12371" transform="matrix(-0,1,-1,-0,154.143232,31.739707)">
            <ellipse cx="32.078" cy="11.959" rx="2.411" ry="2.201" style="fill:white;"/>
        </g>
        <g id="use123711" transform="matrix(-0,1,-1,-0,146.029343,31.739707)">
            <ellipse cx="32.078" cy="11.959" rx="2.411" ry="2.201" style="fill:white;"/>
        </g>
        <g id="use12373" transform="matrix(-0,1,-1,-0,154.143232,39.194366)">
            <ellipse cx="32.078" cy="11.959" rx="2.411" ry="2.201" style="fill:white;"/>
        </g>
        <g id="use123731" transform="matrix(-0,1,-1,-0,146.029343,39.194366)">
            <ellipse cx="32.078" cy="11.959" rx="2.411" ry="2.201" style="fill:white;"/>
        </g>
        <g id="use12375" transform="matrix(-0,1,-1,-0,154.143232,46.648982)">
            <ellipse cx="32.078" cy="11.959" rx="2.411" ry="2.201" style="fill:white;"/>
        </g>
        <g id="use123751" transform="matrix(-0,1,-1,-0,146.029343,46.648982)">
            <ellipse cx="32.078" cy="11.959" rx="2.411" ry="2.201" style="fill:white;"/>
        </g>
        <g id="use12377" transform="matrix(-0,1,-1,-0,154.143232,54.103641)">
            <ellipse cx="32.078" cy="11.959" rx="2.411" ry="2.201" style="fill:white;"/>
        </g>
        <g id="use123771" transform="matrix(-0,1,-1,-0,146.029343,54.103641)">
            <ellipse cx="32.078" cy="11.959" rx="2.411" ry="2.201" style="fill:white;"/>
        </g>
        <g id="use12379" transform="matrix(-0,1,-1,-0,154.143232,61.558256)">
            <ellipse cx="32.078" cy="11.959" rx="2.411" ry="2.201" style="fill:white;"/>
        </g>
        <g id="use123791" transform="matrix(-0,1,-1,-0,146.029343,61.558256)">
            <ellipse cx="32.078" cy="11.959" rx="2.411" ry="2.201" style="fill:white;"/>
        </g>
        <g id="use12381" transform="matrix(-0,1,-1,-0,154.143232,69.012915)">
            <ellipse cx="32.078" cy="11.959" rx="2.411" ry="2.201" style="fill:white;"/>
        </g>
        <g id="use123811" transform="matrix(-0,1,-1,-0,146.029343,69.012915)">
            <ellipse cx="32.078" cy="11.959" rx="2.411" ry="2.201" style="fill:white;"/>
        </g>
        <g id="use12383" transform="matrix(-0,1,-1,-0,154.143232,76.467573)">
            <ellipse cx="32.078" cy="11.959" rx="2.411" ry="2.201" style="fill:white;"/>
        </g>
        <g id="use123831" transform="matrix(-0,1,-1,-0,146.029343,76.467573)">
            <ellipse cx="32.078" cy="11.959" rx="2.411" ry="2.201" style="fill:white;"/>
        </g>
        <g id="use12385" transform="matrix(-0,1,-1,-0,154.143232,83.922189)">
            <ellipse cx="32.078" cy="11.959" rx="2.411" ry="2.201" style="fill:white;"/>
        </g>
        <g id="use123851" transform="matrix(-0,1,-1,-0,146.029343,83.922189)">
            <ellipse cx="32.078" cy="11.959" rx="2.411" ry="2.201" style="fill:white;"/>
        </g>
        <g id="use12387" transform="matrix(-0,1,-1,-0,154.143232,91.376848)">
            <ellipse cx="32.078" cy="11.959" rx="2.411" ry="2.201" style="fill:white;"/>
        </g>
        <g id="use123871" transform="matrix(-0,1,-1,-0,146.029343,91.376848)">
            <ellipse cx="32.078" cy="11.959" rx="2.411" ry="2.201" style="fill:white;"/>
        </g>
        <g id="use12389" transform="matrix(-0,1,-1,-0,154.143232,98.831462)">
            <ellipse cx="32.078" cy="11.959" rx="2.411" ry="2.201" style="fill:white;"/>
        </g>
        <g id="use123891" transform="matrix(-0,1,-1,-0,146.029343,98.831462)">
            <ellipse cx="32.078" cy="11.959" rx="2.411" ry="2.201" style="fill:white;"/>
        </g>
        <g id="use12391" transform="matrix(-0,1,-1,-0,154.143232,106.286123)">
            <ellipse cx="32.078" cy="11.959" rx="2.411" ry="2.201" style="fill:white;"/>
        </g>
        <g id="use123911" transform="matrix(-0,1,-1,-0,146.029343,106.286123)">
            <ellipse cx="32.078" cy="11.959" rx="2.411" ry="2.201" style="fill:white;"/>
        </g>
        <g id="use12393" transform="matrix(-0,1,-1,-0,154.143232,113.740783)">
            <ellipse cx="32.078" cy="11.959" rx="2.411" ry="2.201" style="fill:white;"/>
        </g>
        <g id="use123931" transform="matrix(-0,1,-1,-0,146.029343,113.740783)">
            <ellipse cx="32.078" cy="11.959" rx="2.411" ry="2.201" style="fill:white;"/>
        </g>
        <g id="use12395" transform="matrix(-0,1,-1,-0,154.143232,121.195393)">
            <ellipse cx="32.078" cy="11.959" rx="2.411" ry="2.201" style="fill:white;"/>
        </g>
        <g id="use123951" transform="matrix(-0,1,-1,-0,146.029343,121.195393)">
            <ellipse cx="32.078" cy="11.959" rx="2.411" ry="2.201" style="fill:white;"/>
        </g>
        <g id="use12397" transform="matrix(-0,1,-1,-0,154.143232,128.650053)">
            <ellipse cx="32.078" cy="11.959" rx="2.411" ry="2.201" style="fill:white;"/>
        </g>
        <g id="use123971" transform="matrix(-0,1,-1,-0,146.029343,128.650053)">
            <ellipse cx="32.078" cy="11.959" rx="2.411" ry="2.201" style="fill:white;"/>
        </g>
        <g id="use12399" transform="matrix(-0,1,-1,-0,154.143232,136.104673)">
            <ellipse cx="32.078" cy="11.959" rx="2.411" ry="2.201" style="fill:white;"/>
        </g>
        <g id="use123991" transform="matrix(-0,1,-1,-0,146.029343,136.104673)">
            <ellipse cx="32.078" cy="11.959" rx="2.411" ry="2.201" style="fill:white;"/>
        </g>
        <g id="rect12401" transform="matrix(-0,1,-1,-0,154.143222,1.921143)">
            <rect x="65.455" y="37.908" width="36.621" height="36.621" style="fill:rgb(63,58,62);stroke:rgb(67,61,66);stroke-width:0.92px;"/>
        </g>
        <g id="rect12401-6" transform="matrix(-0,1,-1,-0,154.143222,1.921143)">
            <rect x="128.247" y="49.43" width="15.67" height="10.229" style="fill:rgb(63,58,62);stroke:rgb(67,61,66);stroke-width:0.32px;"/>
        </g>
        <g id="rect12418" transform="matrix(-0,1,-1,-0,154.143222,1.921143)">
            <rect x="190.595" y="25.143" width="3.976" height="47.503" style="fill:rgb(198,184,177);stroke:rgb(199,185,178);stroke-width:0.92px;"/>
        </g>
        <g id="rect12418-1" transform="matrix(-0,1,-1,-0,154.143222,1.921143)">
            <rect x="194.761" y="28.366" width="4.015" height="40.847" style="fill:rgb(198,184,177);stroke:rgb(199,185,178);stroke-width:0.86px;"/>
        </g>
        <g id="rect12418-1-5" transform="matrix(-0,1,-1,-0,154.143222,1.921143)">
            <rect x="195.633" y="25.724" width="2.086" height="3.134" style="fill:rgb(198,184,177);stroke:rgb(199,185,178);stroke-width:0.17px;"/>
        </g>
        <g id="rect12418-1-5-0" transform="matrix(-0,1,-1,-0,154.143222,1.921143)">
            <rect x="195.853" y="69.214" width="2.086" height="3.134" style="fill:rgb(198,184,177);stroke:rgb(199,185,178);stroke-width:0.17px;"/>
        </g>
        <g id="rect12465" transform="matrix(-0,1,-1,-0,154.143222,1.921143)">
            <rect x="199.698" y="22.527" width="5.022" height="51.06" style="fill:rgb(55,53,62);stroke:rgb(58,57,65);stroke-width:0.92px;"/>
        </g>
        <g id="rect12465-4" transform="matrix(-0,1,-1,-0,154.143222,1.921143)">
            <rect x="198.06" y="69.703" width="1.163" height="2.68" style="fill:rgb(55,53,62);stroke:rgb(58,57,65);stroke-width:0.1px;"/>
        </g>
        <g id="rect12465-4-6" transform="matrix(-0,1,-1,-0,154.143222,1.921143)">
            <rect x="197.811" y="25.687" width="1.718" height="2.195" style="fill:rgb(55,53,62);stroke:rgb(58,57,65);stroke-width:0.11px;"/>
        </g>
        <g id="rect12497" transform="matrix(-0,1,-1,-0,154.143222,1.921143)">
            <rect x="27.555" y="72.991" width="32.706" height="23.182" style="fill:rgb(193,182,177);"/>
        </g>
        <g id="rect12497-0" transform="matrix(-0,1,-1,-0,154.143222,1.921143)">
            <rect x="119.518" y="78.97" width="22.761" height="18.859" style="fill:rgb(193,182,177);"/>
        </g>
        <g id="rect12497-0-8" transform="matrix(-0,1,-1,-0,154.143222,1.921143)">
            <rect x="156.881" y="78.6" width="22.761" height="18.859" style="fill:rgb(193,182,177);"/>
        </g>
    </g>
</svg>
