<svg xmlns="http://www.w3.org/2000/svg" viewBox="35 45 505 120">
  <g style="transform-origin: 169.469px 149.857px 0px;" transform="matrix(0.638233, 0.638233, -0.584901, 0.584901, -84.886093, -35.880978)">
    <path id="path0" d="M 136.389 138.204 C 135.36 138.314 99.347 162.814 98.665 163.872 C 98.201 164.588 94.254 228.016 94.615 228.936 C 94.742 229.257 95.097 229.662 95.406 229.83 C 95.995 230.154 159.579 226.525 160.382 226.124 C 161.259 225.683 162.022 224.624 174.125 207.034 C 187.694 187.318 187.23 188.119 185.881 186.772 C 185.14 186.028 182.783 186.047 181.59 186.807 C 181.257 187.017 176.334 193.887 169.801 203.257 L 158.585 219.345 L 157.695 219.546 C 156.072 219.911 105.039 221.707 104.183 221.428 C 103.496 221.205 103.299 221.021 103.098 220.406 C 102.764 219.391 104.786 167.287 105.192 166.494 C 105.432 166.021 109.452 163.138 121.231 154.986 C 138.996 142.69 137.93 143.529 138.344 141.533 C 138.796 139.366 138.011 138.036 136.389 138.204" fill-rule="evenodd" style="fill: rgb(218, 62, 54); stroke-width: 0.981px; transform-origin: 60.327px 109.909px 0px;" stroke="none" transform="matrix(0.707107, -0.707107, 0.707107, 0.707107, 0, 0)"></path>
    <path id="path-1" d="M 109.104 243.545 C 109.031 242.582 110.813 240.358 122.066 227.376 L 132.902 214.878 L 135.168 214.507 C 139.411 213.819 140.303 214.827 139.431 219.338 L 139.07 221.21 L 126.68 232.069 C 113.753 243.4 111.608 245.142 110.636 245.071 C 109.913 245.023 109.158 244.271 109.104 243.545" fill-rule="evenodd" style="stroke-width: 0.981px; fill: rgb(218, 62, 54); transform-origin: 115.174px 162.038px 0px;" stroke="none" transform="matrix(0.707107, -0.707107, 0.707107, 0.707107, 0, 0)"></path>
    <path id="path-2" d="M 149.93 166.837 C 148.75 166.979 145.559 169.734 126.715 186.863 L 108.576 203.356 L 107.569 206.263 C 105.687 211.706 106.726 212.565 112.538 210.39 L 114.947 209.488 L 131.43 191.457 C 148.626 172.649 151.304 169.56 151.453 168.372 C 151.565 167.482 150.815 166.726 149.93 166.837" fill-rule="evenodd" style="stroke-width: 0.981px; fill: rgb(218, 62, 54); transform-origin: 49.431px 99.054px 0px;" stroke="none" transform="matrix(0.707107, -0.707107, 0.707107, 0.707107, 0, 0)"></path>
  </g>
  <text style="fill: rgb(73, 64, 64); font-family: Arial; font-size: 120px; white-space: pre;" x="170.336" y="146.513">inferno</text>
</svg>