<?xml version="1.0" encoding="UTF-8" standalone="no"?>
<svg
   version="1.1"
   width="16"
   height="16"
   viewbox="0 0 16 16"
   id="svg4"
   xmlns="http://www.w3.org/2000/svg"
   xmlns:svg="http://www.w3.org/2000/svg">
  <defs
     id="defs8" />
  <path
     style="color:#000000;overflow:visible;fill:#007104;fill-opacity:1;fill-rule:evenodd;stroke:none;stroke-width:9.5;stroke-opacity:1"
     d="m 1.09295,7.47454 c -1.161284,1.18716 1.20426,3.21776 2.35003,4.29276 1.12483,1.0638 2.18707,2.489 2.68492,2.6799 0.61479,0.2358 2.12164,0.1531 2.53119,-0.1808 C 9.22134,13.2727 10.6551,10.0692 12.2836,7.29921 13.1359,5.84944 16.5063,2.73993 15.3495,1.55735 14.0692,0.248531 11.439,2.93366 9.98841,5.34397 8.46912,7.86826 7.06711,11.7699 7.06711,11.7699 c 0,0 -1.95167,-2.30148 -2.73075,-3.16044 C 3.03209,7.17144 2.04329,6.50302 1.09295,7.47454 Z"
     id="path1228"
     transform="translate(0.275824,-0.102302)" />
</svg>
