<?xml version="1.0" encoding="UTF-8" standalone="no"?>
<svg
   version="1.1"
   width="16"
   height="16"
   viewbox="0 0 16 16"
   id="svg4"
   xmlns="http://www.w3.org/2000/svg"
   xmlns:svg="http://www.w3.org/2000/svg">
  <defs
     id="defs8" />
  <g
     id="g4139"
     transform="translate(-379,-420.803)"
     style="fill:#bebebe;fill-opacity:1">
    <path
       id="path4140"
       d="m 387,428.362 c -1,-2 -2,-6 0,-6 2,0 1,4 0,6 z"
       style="fill:#bebebe;fill-opacity:1;fill-rule:evenodd;stroke:none;stroke-width:0.1;stroke-linecap:butt;stroke-linejoin:miter;stroke-miterlimit:4;stroke-dasharray:none;stroke-opacity:1" />
    <path
       style="fill:#bebebe;fill-opacity:1;fill-rule:evenodd;stroke:none;stroke-width:0.1;stroke-linecap:butt;stroke-linejoin:miter;stroke-miterlimit:4;stroke-dasharray:none;stroke-opacity:1"
       d="m 386.049,429.053 c -2.211,0.333 -6.324,0.05 -5.706,-1.854 0.618,-1.902 4.113,0.285 5.706,1.854 z"
       id="path4173" />
    <path
       id="path4185"
       d="m 386.412,430.171 c -0.366,2.206 -1.908,6.03 -3.526,4.854 -1.619,-1.175 1.542,-3.824 3.526,-4.854 z"
       style="fill:#bebebe;fill-opacity:1;fill-rule:evenodd;stroke:none;stroke-width:0.1;stroke-linecap:butt;stroke-linejoin:miter;stroke-miterlimit:4;stroke-dasharray:none;stroke-opacity:1" />
    <path
       style="fill:#bebebe;fill-opacity:1;fill-rule:evenodd;stroke:none;stroke-width:0.1;stroke-linecap:butt;stroke-linejoin:miter;stroke-miterlimit:4;stroke-dasharray:none;stroke-opacity:1"
       d="m 387.588,430.171 c 1.984,1.03 5.145,3.679 3.527,4.854 -1.619,1.176 -3.161,-2.648 -3.527,-4.854 z"
       id="path4191" />
    <path
       id="path4197"
       d="m 387.951,429.053 c 1.593,-1.569 5.088,-3.756 5.706,-1.854 0.618,1.902 -3.495,2.187 -5.706,1.854 z"
       style="fill:#bebebe;fill-opacity:1;fill-rule:evenodd;stroke:none;stroke-width:0.1;stroke-linecap:butt;stroke-linejoin:miter;stroke-miterlimit:4;stroke-dasharray:none;stroke-opacity:1" />
  </g>
</svg>
