<?xml version="1.0" encoding="UTF-8" standalone="no"?>
<svg
   version="1.1"
   width="16"
   height="16"
   viewbox="0 0 16 16"
   id="svg4"
   xmlns="http://www.w3.org/2000/svg"
   xmlns:svg="http://www.w3.org/2000/svg">
  <defs
     id="defs8" />
  <path
     style="color:#000000;overflow:visible;fill:#dfdfdf;fill-opacity:1;fill-rule:evenodd;stroke:none;stroke-width:10.8745;stroke-opacity:1"
     d="m 1.09295,7.47454 c -1.161284,1.18716 1.20426,3.21776 2.35003,4.29276 1.12483,1.0638 2.18707,2.489 2.68492,2.6799 0.61479,0.2358 2.12164,0.1531 2.53119,-0.1808 C 9.22134,13.2727 10.6551,10.0692 12.2836,7.29921 13.1359,5.84944 16.5063,2.73993 15.3495,1.55735 14.0692,0.248531 11.3124,2.72124 9.86179,5.13155 8.3425,7.65584 7.0057,11.5828 7.0057,11.5828 c 0,0 -1.66497,-2.04743 -2.44405,-2.90639 C 3.25738,7.23839 2.04329,6.50302 1.09295,7.47454 Z"
     id="path1228"
     transform="matrix(0.873603,0,0,0.873603,1.88976,1.16737)" />
</svg>
