<svg version="1.1" xmlns="http://www.w3.org/2000/svg" viewBox="361.28 310 301.18 418.63">
<path
  d="M0 0 C3.46315595 0.56492802 6.11501029 1.40342349 9.15234375 3.15234375 C9.92167236 3.59376709 10.69100098 4.03519043 11.48364258 4.48999023 C12.29341553 4.96766846 13.10318848 5.44534668 13.9375 5.9375 C14.78143311 6.43258057 15.62536621 6.92766113 16.49487305 7.43774414 C55.39656817 30.56339872 89.83448967 67.09569926 102.125 111.5390625 C102.41375 112.68117188 102.7025 113.82328125 103 115 C103.18046875 115.64936523 103.3609375 116.29873047 103.546875 116.96777344 C106.72286529 128.60412974 107.37699765 140.06258856 107.375 152.0625 C107.37681274 152.77055786 107.37862549 153.47861572 107.38049316 154.20812988 C107.37804688 162.64635413 106.896269 170.75046612 105 179 C117.37871709 173.63385663 123.30659526 167.92757454 128.65625 155.53515625 C133.27545908 143.38287654 135.18070147 130.80400252 137 118 C141.22945887 119.40981962 142.99675847 122.47747006 145.5625 125.9375 C146.09335205 126.65260742 146.6242041 127.36771484 147.17114258 128.10449219 C164.57840994 152.0911915 175.02481894 180.1732601 181 209 C181.26401611 210.25756104 181.52803223 211.51512207 181.80004883 212.81079102 C183.89522297 223.31609159 184.52518558 233.49083232 184.4375 244.1875 C184.43412628 244.99226776 184.43075256 245.79703552 184.42727661 246.62619019 C184.19318148 285.33039735 170.46981596 319.10305284 145 348 C144.38382813 348.75023437 143.76765625 349.50046875 143.1328125 350.2734375 C138.40880579 355.99197194 132.85678774 360.47827378 127 365 C126.12214844 365.68191406 125.24429688 366.36382813 124.33984375 367.06640625 C113.00509382 375.59668197 100.86691463 381.80607135 87.83178711 387.23095703 C85.99615378 388.00161477 84.17378392 388.80361329 82.3515625 389.60546875 C77.33270556 391.6937344 72.31313068 392.88595647 67 394 C66.33967773 394.13970215 65.67935547 394.2794043 64.99902344 394.42333984 C25.46221015 402.43755875 -15.46396397 395.43362357 -49.2421875 373.25 C-81.71957988 351.31815681 -102.95428212 320.82417717 -113 283 C-113.34417969 281.72769531 -113.68835938 280.45539063 -114.04296875 279.14453125 C-121.56994921 246.17423657 -111.95394119 215.53198985 -99.4375 185.3125 C-89.69530236 161.78000749 -83.18260426 140.61173315 -84 115 C-79.01487154 117.66792051 -74.87476481 120.51752764 -70.75 124.375 C-69.91529175 125.15447998 -69.91529175 125.15447998 -69.0637207 125.94970703 C-58.90827027 135.67894351 -51.7980014 146.80573429 -45 159 C-20.65113063 112.5116957 0.3704618 69.19589923 0.0625 15.75 C0.05747043 14.21484522 0.05291012 12.67968884 0.04882812 11.14453125 C0.03794839 7.4296533 0.02076577 3.71483741 0 0 Z M17 29 C16.96036133 29.59200195 16.92072266 30.18400391 16.87988281 30.79394531 C14.12843609 70.24148254 1.53459447 104.72507448 -15.99700928 139.98223877 C-17.11396271 142.22926387 -18.22815625 144.47764737 -19.34228516 146.72607422 C-21.9508745 151.98728441 -24.56742358 157.24450203 -27.1875 162.5 C-27.6070697 163.34209015 -28.0266394 164.1841803 -28.45892334 165.05178833 C-29.69277149 167.52536988 -30.92938827 169.99753484 -32.16796875 172.46875 C-32.56600708 173.26325058 -32.96404541 174.05775116 -33.37414551 174.87632751 C-35.40583788 178.90980864 -37.47691623 182.91670739 -39.61572266 186.89453125 C-40.03509598 187.67509888 -40.4544693 188.4556665 -40.8865509 189.2598877 C-41.6848488 190.73798251 -42.48883407 192.21302445 -43.29936218 193.68444824 C-45.45288919 197.61140594 -45.45288919 197.61140594 -46 202 C-46.66 202 -47.32 202 -48 202 C-48.08121094 201.0821875 -48.16242188 200.164375 -48.24609375 199.21875 C-49.03841971 193.72896459 -51.10326155 188.66250215 -53.0625 183.5 C-53.46299561 182.44006836 -53.86349121 181.38013672 -54.27612305 180.28808594 C-60.05336783 164.84325572 -60.05336783 164.84325572 -70 152 C-70.40605469 153.53914063 -70.40605469 153.53914063 -70.8203125 155.109375 C-74.84175193 169.63123959 -80.33790049 183.52796475 -85.87443542 197.52110291 C-91.82582707 212.34491708 -91.82582707 212.34491708 -96.1875 227.6875 C-96.4340332 228.72874023 -96.4340332 228.72874023 -96.68554688 229.79101562 C-102.80372259 256.36916356 -98.22714139 282.53058927 -87 307 C-86.29230469 308.55074219 -86.29230469 308.55074219 -85.5703125 310.1328125 C-75.64747632 329.80233984 -59.32604253 346.1312727 -41 358 C-40.4220166 358.38494629 -39.8440332 358.76989258 -39.24853516 359.16650391 C-10.56022881 378.16206209 25.41983153 384.83152788 59.20800781 378.33764648 C83.48777487 373.17167695 105.81773093 361.85549966 124 345 C124.54930176 344.49452637 125.09860352 343.98905273 125.66455078 343.46826172 C150.64458722 320.22747934 165.74960248 288.07287061 167.12402344 253.91796875 C167.91584667 221.9322206 162.70993112 188.88701838 146 161 C142.88912056 162.55543972 142.41015878 165.24960001 141 168.375 C134.85420888 181.25622142 125.32988092 189.96985626 112 195 C108.40029819 195.85586007 104.95540224 196.17814002 101.26171875 196.31640625 C99.66166992 196.37924805 99.66166992 196.37924805 98.02929688 196.44335938 C96.92650391 196.48267578 95.82371094 196.52199219 94.6875 196.5625 C93.56537109 196.60568359 92.44324219 196.64886719 91.28710938 196.69335938 C88.52485431 196.79914787 85.7625137 196.90123672 83 197 C83.25394531 196.19820312 83.50789062 195.39640625 83.76953125 194.5703125 C91.35308355 169.51902737 92.97031024 143.42989109 86 118 C85.81808105 117.32582031 85.63616211 116.65164063 85.44873047 115.95703125 C82.5797496 105.68100327 78.08386544 96.32502492 73 87 C72.65453125 86.36030273 72.3090625 85.72060547 71.953125 85.06152344 C60.90974808 64.88057626 39.30488284 36.77414712 17 29 Z "
  fill="black"
  transform="translate(478,331)"
/>
<path
  d="M0 0 C3.99012371 0.55989303 6.5255052 1.75669768 9.8125 4.0625 C10.60269531 4.61035156 11.39289062 5.15820312 12.20703125 5.72265625 C12.79871094 6.14417969 13.39039063 6.56570313 14 7 C13.35976136 10.70300188 11.73346457 13.16905993 9.625 16.25 C8.89539063 17.32121094 8.16578125 18.39242188 7.4140625 19.49609375 C6.6094884 20.66414062 5.80479856 21.83210777 5 23 C4.19488662 24.17809448 3.39020697 25.35648548 2.5859375 26.53515625 C-2.26197533 33.6246574 -7.16473902 40.67559679 -12.07617188 47.72119141 C-18.14165215 56.42243427 -24.19549508 65.12139872 -30 74 C-33.76119476 73.37606349 -36.18960042 71.65226285 -39.25 69.4375 C-40.14203125 68.79683594 -41.0340625 68.15617187 -41.953125 67.49609375 C-42.62859375 67.00238281 -43.3040625 66.50867188 -44 66 C-42.47254653 61.55192121 -40.06343443 57.93628543 -37.375 54.125 C-36.8991748 53.44155518 -36.42334961 52.75811035 -35.93310547 52.05395508 C-34.87353753 50.53302731 -33.81172808 49.01365941 -32.74804688 47.49560547 C-29.52942713 42.90053131 -26.3290913 38.29271021 -23.125 33.6875 C-22.11131348 32.232229 -22.11131348 32.232229 -21.07714844 30.74755859 C-13.97852516 20.55027614 -6.89226136 10.33839204 0 0 Z "
  fill="black"
  transform="translate(617,310)"
/>
<path
  d="M0 0 C3.62276315 1.3255581 6.63505348 2.94346955 9.8125 5.125 C10.60269531 5.66382813 11.39289062 6.20265625 12.20703125 6.7578125 C12.79871094 7.16773438 13.39039063 7.57765625 14 8 C12.6517939 11.72260908 10.9719548 14.72638393 8.69140625 17.95703125 C7.70321899 19.36577515 7.70321899 19.36577515 6.69506836 20.80297852 C5.9913208 21.79612061 5.28757324 22.7892627 4.5625 23.8125 C3.09603391 25.90081681 1.62988882 27.98935907 0.1640625 30.078125 C-0.55233398 31.09583984 -1.26873047 32.11355469 -2.00683594 33.16210938 C-4.54799229 36.78023792 -7.06150568 40.41654181 -9.5625 44.0625 C-9.97935059 44.66819824 -10.39620117 45.27389648 -10.82568359 45.89794922 C-13.55026395 49.86348839 -16.24796426 53.84654503 -18.9375 57.8359375 C-19.61997803 58.84519287 -20.30245605 59.85444824 -21.00561523 60.89428711 C-22.35794901 62.89509904 -23.70653395 64.89845084 -25.05102539 66.90454102 C-25.66453857 67.81131592 -26.27805176 68.71809082 -26.91015625 69.65234375 C-27.45808838 70.46695068 -28.00602051 71.28155762 -28.57055664 72.12084961 C-30 74 -30 74 -32 75 C-35.96 72.36 -39.92 69.72 -44 67 C-43.01944825 63.07779299 -41.96602669 61.18290193 -39.7109375 57.9140625 C-39.02402832 56.91173584 -38.33711914 55.90940918 -37.62939453 54.87670898 C-36.88544434 53.80364502 -36.14149414 52.73058105 -35.375 51.625 C-34.60341641 50.50308937 -33.83242759 49.38076947 -33.06201172 48.25805664 C-31.48217243 45.95712556 -29.89943968 43.65822802 -28.31445312 41.36083984 C-24.89556265 36.40167353 -21.51265808 31.41802457 -18.125 26.4375 C-12.10721061 17.60854442 -6.06284853 8.79806294 0 0 Z "
  fill="black"
  transform="translate(635,355)"
/>
</svg>
