<svg xmlns="http://www.w3.org/2000/svg" style="position:absolute;width:0;height:0;overflow:hidden" aria-hidden="true">
  <!-- All icons inherit color from currentColor, so Tailwind text-* controls stroke color -->
  <symbol id="activity" viewBox="0 0 24 24" fill="none" stroke="currentColor"
          stroke-width="2" stroke-linecap="round" stroke-linejoin="round">
    <path d="M22 12h-2.48a2 2 0 0 0-1.93 1.46l-2.35 8.36a.25.25 0 0 1-.48 0L9.24 2.18a.25.25 0 0 0-.48 0l-2.35 8.36A2 2 0 0 1 4.49 12H2"/>
  </symbol>

  <symbol id="arrow-left" viewBox="0 0 24 24" fill="none" stroke="currentColor"
          stroke-width="2" stroke-linecap="round" stroke-linejoin="round">
    <path d="m12 19-7-7 7-7"></path>
    <path d="M19 12H5"></path>
  </symbol>

  <symbol id="calendar" viewBox="0 0 24 24" fill="none" stroke="currentColor"
          stroke-width="2" stroke-linecap="round" stroke-linejoin="round">
    <path d="M8 2v4"></path>
    <path d="M16 2v4"></path>
    <rect width="18" height="18" x="3" y="4" rx="2"></rect>
    <path d="M3 10h18"></path>
  </symbol>

  <symbol id="package" viewBox="0 0 24 24" fill="none" stroke="currentColor"
          stroke-width="2" stroke-linecap="round" stroke-linejoin="round">
    <path d="M11 21.73a2 2 0 0 0 2 0l7-4A2 2 0 0 0 21 16V8a2 2 0 0 0-1-1.73l-7-4a2 2 0 0 0-2 0l-7 4A2 2 0 0 0 3 8v8a2 2 0 0 0 1 1.73z"/>
    <path d="M12 22V12"/>
    <polyline points="3.29 7 12 12 20.71 7"/>
    <path d="m7.5 4.27 9 5.15"/>
  </symbol>

  <symbol id="people" viewBox="0 0 24 24" fill="none" stroke="currentColor"
          stroke-width="2" stroke-linecap="round" stroke-linejoin="round">
    <path d="M16 21v-2a4 4 0 0 0-4-4H6a4 4 0 0 0-4 4v2"/>
    <path d="M16 3.128a4 4 0 0 1 0 7.744"/>
    <path d="M22 21v-2a4 4 0 0 0-3-3.87"/>
    <circle cx="9" cy="7" r="4"/>
  </symbol>

  <symbol id="search" viewBox="0 0 24 24" fill="none" stroke="currentColor"
          stroke-width="2" stroke-linecap="round" stroke-linejoin="round">
    <path d="m21 21-4.34-4.34"/>
    <circle cx="11" cy="11" r="8"/>
  </symbol>

  <symbol id="external-link" viewBox="0 0 24 24" fill="none" stroke="currentColor"
          stroke-width="2" stroke-linecap="round" stroke-linejoin="round">
    <path d="M15 3h6v6"/>
    <path d="M10 14 21 3"/>
    <path d="M18 13v6a2 2 0 0 1-2 2H5a2 2 0 0 1-2-2V8a2 2 0 0 1 2-2h6"/>
  </symbol>

  <symbol id="star" viewBox="0 0 24 24" fill="none" stroke="currentColor"
          stroke-width="2" stroke-linecap="round" stroke-linejoin="round">
    <path d="M11.525 2.295a.53.53 0 0 1 .95 0l2.31 4.679a2.123 2.123 0 0 0 1.595 1.16l5.166.756a.53.53 0 0 1 .294.904l-3.736 3.638a2.123 2.123 0 0 0-.611 1.878l.882 5.14a.53.53 0 0 1-.771.56l-4.618-2.428a2.122 2.122 0 0 0-1.973 0L6.396 21.01a.53.53 0 0 1-.77-.56l.881-5.139a2.122 2.122 0 0 0-.611-1.879L2.16 9.795a.53.53 0 0 1 .294-.906l5.165-.755a2.122 2.122 0 0 0 1.597-1.16z"/>
  </symbol>

<symbol id="git-fork" viewBox="0 0 24 24" fill="none" stroke="currentColor"
          stroke-width="2" stroke-linecap="round" stroke-linejoin="round">
    <circle cx="12" cy="18" r="3"/>
    <circle cx="6" cy="6" r="3"/>
    <circle cx="18" cy="6" r="3"/>
    <path d="M18 9v2c0 .6-.4 1-1 1H7c-.6 0-1-.4-1-1V9"/>
    <path d="M12 12v3"/>
  </symbol>

<symbol id="folders" viewBox="0 0 24 24" fill="none" stroke="currentColor"
          stroke-width="2" stroke-linecap="round" stroke-linejoin="round">
    <path d="M20 5a2 2 0 0 1 2 2v7a2 2 0 0 1-2 2H9a2 2 0 0 1-2-2V5a2 2 0 0 1 2-2h2.5a1.5 1.5 0 0 1 1.2.6l.6.8a1.5 1.5 0 0 0 1.2.6z"/>
    <path d="M3 8.268a2 2 0 0 0-1 1.738V19a2 2 0 0 0 2 2h11a2 2 0 0 0 1.732-1"/>
  </symbol>

<symbol id="chevron-left" viewBox="0 0 24 24" fill="none" stroke="currentColor"
        stroke-width="2" stroke-linecap="round" stroke-linejoin="round">
  <path d="m15 18-6-6 6-6"/>
</symbol>

<symbol id="copy" viewBox="0 0 24 24" fill="none" stroke="currentColor"
        stroke-width="2" stroke-linecap="round" stroke-linejoin="round">
    <rect width="14" height="14" x="8" y="8" rx="2" ry="2"/>
    <path d="M4 16c-1.1 0-2-.9-2-2V4c0-1.1.9-2 2-2h10c1.1 0 2 .9 2 2"/>
</symbol>

<symbol id="copy-check"  viewBox="0 0 24 24" fill="none" stroke="currentColor"
        stroke-width="2" stroke-linecap="round" stroke-linejoin="round">
    <path d="m12 15 2 2 4-4"/>
    <rect width="14" height="14" x="8" y="8" rx="2" ry="2"/>
    <path d="M4 16c-1.1 0-2-.9-2-2V4c0-1.1.9-2 2-2h10c1.1 0 2 .9 2 2"/>
</symbol>

<symbol id="arrow-up-down" viewBox="0 0 24 24" fill="none" stroke="currentColor"
        stroke-width="2" stroke-linecap="round" stroke-linejoin="round">
    <path d="m21 16-4 4-4-4"/>
    <path d="M17 20V4"/>
    <path d="m3 8 4-4 4 4"/>
    <path d="M7 4v16"/>
</symbol>

<symbol id="github" viewBox="0 0 24 24" fill="none" stroke="currentColor"
        stroke-width="2" stroke-linecap="round" stroke-linejoin="round">
    <path d="M15 22v-4a4.8 4.8 0 0 0-1-3.5c2.6-.3 5.4-1.3 5.4-6 0-1.3-.5-2.5-1.3-3.4.1-.3.6-1.6-.1-3.2 0 0-1-.3-3.4 1.2a11.5 11.5 0 0 0-6 0C6.5 2.8 5.4 3.1 5.4 3.1c-.7 1.6-.2 2.9-.1 3.2-.8.9-1.3 2-1.3 3.4 0 4.6 2.8 5.7 5.4 6-.7.6-1 1.4-1 2.3v4"/>
    <path d="M9 18c-4.51 2-5-2-7-2"/>
</symbol>

<symbol id="book-open" viewBox="0 0 24 24" fill="none" stroke="currentColor"
        stroke-width="2" stroke-linecap="round" stroke-linejoin="round">
    <path d="M2 3h6a4 4 0 0 1 4 4v14a3 3 0 0 0-3-3H2z"/>
    <path d="M22 3h-6a4 4 0 0 0-4 4v14a3 3 0 0 1 3-3h7z"/>
</symbol>

</svg>
