<?xml version="1.0" encoding="UTF-8" standalone="no"?>
<!-- Created with Inkscape (http://www.inkscape.org/) -->

<svg
   width="320"
   height="320"
   viewBox="0 0 84.666667 84.666666"
   version="1.1"
   id="svg1"
   inkscape:export-filename="dry-logo.png"
   inkscape:export-xdpi="120"
   inkscape:export-ydpi="120"
   inkscape:version="1.3 (0e150ed, 2023-07-21)"
   sodipodi:docname="logo.svg"
   xmlns:inkscape="http://www.inkscape.org/namespaces/inkscape"
   xmlns:sodipodi="http://sodipodi.sourceforge.net/DTD/sodipodi-0.dtd"
   xmlns="http://www.w3.org/2000/svg"
   xmlns:svg="http://www.w3.org/2000/svg">
  <sodipodi:namedview
     id="namedview1"
     pagecolor="#0e1116"
     bordercolor="#000000"
     borderopacity="0.25"
     inkscape:showpageshadow="2"
     inkscape:pageopacity="0.0"
     inkscape:pagecheckerboard="0"
     inkscape:deskcolor="#d1d1d1"
     inkscape:document-units="mm"
     inkscape:zoom="1.2705648"
     inkscape:cx="204.23988"
     inkscape:cy="221.55501"
     inkscape:window-width="1520"
     inkscape:window-height="806"
     inkscape:window-x="1264"
     inkscape:window-y="37"
     inkscape:window-maximized="0"
     inkscape:current-layer="layer1" />
  <defs
     id="defs1" />
  <g
     inkscape:label="Layer 1"
     inkscape:groupmode="layer"
     id="layer1">
    <g
       id="g1"
       transform="matrix(1.2681763,0,0,1.2779791,-14.237859,-35.213998)">
      <path
         id="rect6"
         style="fill:#820a04;fill-opacity:1;stroke:#11ff00;stroke-width:0;stroke-linejoin:round;stroke-dasharray:none;stroke-opacity:1"
         d="m 17.364661,33.108883 c -1.684205,0 -3.040125,1.355921 -3.040125,3.040125 v 11.919686 c 0,1.684204 1.35592,3.040124 3.040125,3.040124 h 23.91947 c 1.684204,0 3.040124,-1.35592 3.040124,-3.040124 V 36.149008 c 0,-1.684204 -1.35592,-3.040125 -3.040124,-3.040125 z m 8.899198,5.166093 h 2.349727 c 1.192289,0 2.118847,0.330325 2.779676,0.991154 0.660828,0.660829 0.991154,1.584044 0.991154,2.76934 0,1.265714 -0.344212,2.233931 -1.033012,2.905249 -0.685304,0.667822 -1.672937,1.002006 -2.963127,1.002006 h -2.124418 z m 0.891935,0.771012 v 6.125725 h 1.085722 c 1.06292,0 1.861796,-0.260377 2.396753,-0.781348 0.534957,-0.524467 0.802535,-1.29943 0.802535,-2.323889 0,-0.999984 -0.252021,-1.753342 -0.75551,-2.260327 -0.499992,-0.506985 -1.244477,-0.760161 -2.233972,-0.760161 z" />
      <path
         id="rect7"
         style="fill:#820a04;fill-opacity:1;stroke:#11ff00;stroke-width:0;stroke-linejoin:round;stroke-dasharray:none;stroke-opacity:1"
         d="m 47.932475,70.250492 c -1.684204,0 -3.040125,1.355404 -3.040125,3.039608 v 11.920203 c 0,1.684204 1.355921,3.040124 3.040125,3.040124 h 23.91947 c 1.684204,0 3.040124,-1.35592 3.040124,-3.040124 V 73.2901 c 0,-1.684204 -1.35592,-3.039608 -3.040124,-3.039608 z m 8.951908,5.166093 h 0.975651 l 2.02985,3.833875 2.045354,-3.833875 h 0.964799 l -2.559534,4.693771 v 2.973978 h -0.901754 v -2.93212 z" />
      <rect
         style="fill:#820a04;fill-opacity:1;stroke:#11ff00;stroke-width:0;stroke-linejoin:round;stroke-dasharray:none;stroke-opacity:1"
         id="rect8"
         width="29.999998"
         height="17.999998"
         x="14.324536"
         y="70.250267"
         ry="3.0400827" />
      <path
         id="rect9"
         style="fill:#820a04;fill-opacity:1;stroke:#11ff00;stroke-width:0;stroke-linejoin:round;stroke-dasharray:none;stroke-opacity:1"
         d="m 33.17782,51.679533 c -1.684204,0 -3.040125,1.35592 -3.040125,3.040124 v 11.919686 c 0,1.684204 1.355921,3.040125 3.040125,3.040125 h 23.91947 c 1.684204,0 3.040125,-1.355921 3.040125,-3.040125 V 54.719657 c 0,-1.684204 -1.355921,-3.040124 -3.040125,-3.040124 z m 9.258866,5.166093 h 2.103231 c 0.940545,0 1.634498,0.180401 2.082043,0.540535 0.451042,0.360134 0.676445,0.901976 0.676445,1.625741 0,1.01397 -0.514069,1.699051 -1.542025,2.055688 l 2.082044,3.445785 h -1.0542 l -1.856217,-3.188953 h -1.599902 v 3.188953 h -0.891419 z m 0.891419,0.781347 v 2.932121 h 1.222147 c 0.629361,0 1.09071,-0.124339 1.384412,-0.372587 0.293702,-0.251744 0.4408,-0.627587 0.4408,-1.12758 0,-0.506985 -0.150441,-0.872284 -0.451135,-1.096057 -0.297199,-0.223772 -0.776293,-0.335897 -1.437122,-0.335897 z" />
      <rect
         style="fill:#820a04;fill-opacity:1;stroke:#11ff00;stroke-width:0;stroke-linejoin:round;stroke-dasharray:none;stroke-opacity:1"
         id="rect10"
         width="14.999999"
         height="17.999998"
         x="14.324536"
         y="51.679573"
         ry="3.0400827" />
    </g>
  </g>
</svg>
