<?xml version="1.0" encoding="utf-8" standalone="no"?>
<!DOCTYPE svg PUBLIC "-//W3C//DTD SVG 1.1//EN"
  "http://www.w3.org/Graphics/SVG/1.1/DTD/svg11.dtd">
<svg xmlns:xlink="http://www.w3.org/1999/xlink" width="497.626926pt" height="242.278125pt" viewBox="0 0 497.626926 242.278125" xmlns="http://www.w3.org/2000/svg" version="1.1">
 <metadata>
  <rdf:RDF xmlns:dc="http://purl.org/dc/elements/1.1/" xmlns:cc="http://creativecommons.org/ns#" xmlns:rdf="http://www.w3.org/1999/02/22-rdf-syntax-ns#">
   <cc:Work>
    <dc:type rdf:resource="http://purl.org/dc/dcmitype/StillImage"/>
    <dc:date>2025-12-18T16:19:20.586441</dc:date>
    <dc:format>image/svg+xml</dc:format>
    <dc:creator>
     <cc:Agent>
      <dc:title>Matplotlib v3.10.0, https://matplotlib.org/</dc:title>
     </cc:Agent>
    </dc:creator>
   </cc:Work>
  </rdf:RDF>
 </metadata>
 <defs>
  <style type="text/css">*{stroke-linejoin: round; stroke-linecap: butt}</style>
 </defs>
 <g id="figure_1">
  <g id="patch_1">
   <path d="M 0 242.278125 
L 497.626926 242.278125 
L 497.626926 0 
L 0 0 
z
" style="fill: #ffffff"/>
  </g>
  <g id="axes_1">
   <g id="patch_2">
    <path d="M 51.378125 170.44 
L 242.757321 170.44 
L 242.757321 7.2 
L 51.378125 7.2 
z
" style="fill: #ffffff"/>
   </g>
   <g id="FillBetweenPolyCollection_1"/>
   <g id="matplotlib.axis_1">
    <g id="xtick_1">
     <g id="line2d_1">
      <defs>
       <path id="m99dd540fff" d="M 0 0 
L 0 3.5 
" style="stroke: #000000; stroke-width: 0.8"/>
      </defs>
      <g>
       <use xlink:href="#m99dd540fff" x="60.077179" y="170.44" style="stroke: #000000; stroke-width: 0.8"/>
      </g>
     </g>
     <g id="text_1">
      <!-- 0 -->
      <g transform="translate(56.895929 185.038438) scale(0.1 -0.1)">
       <defs>
        <path id="DejaVuSans-30" d="M 2034 4250 
Q 1547 4250 1301 3770 
Q 1056 3291 1056 2328 
Q 1056 1369 1301 889 
Q 1547 409 2034 409 
Q 2525 409 2770 889 
Q 3016 1369 3016 2328 
Q 3016 3291 2770 3770 
Q 2525 4250 2034 4250 
z
M 2034 4750 
Q 2819 4750 3233 4129 
Q 3647 3509 3647 2328 
Q 3647 1150 3233 529 
Q 2819 -91 2034 -91 
Q 1250 -91 836 529 
Q 422 1150 422 2328 
Q 422 3509 836 4129 
Q 1250 4750 2034 4750 
z
" transform="scale(0.015625)"/>
       </defs>
       <use xlink:href="#DejaVuSans-30"/>
      </g>
     </g>
    </g>
    <g id="xtick_2">
     <g id="line2d_2">
      <g>
       <use xlink:href="#m99dd540fff" x="94.943129" y="170.44" style="stroke: #000000; stroke-width: 0.8"/>
      </g>
     </g>
     <g id="text_2">
      <!-- 100 -->
      <g transform="translate(85.399379 185.038438) scale(0.1 -0.1)">
       <defs>
        <path id="DejaVuSans-31" d="M 794 531 
L 1825 531 
L 1825 4091 
L 703 3866 
L 703 4441 
L 1819 4666 
L 2450 4666 
L 2450 531 
L 3481 531 
L 3481 0 
L 794 0 
L 794 531 
z
" transform="scale(0.015625)"/>
       </defs>
       <use xlink:href="#DejaVuSans-31"/>
       <use xlink:href="#DejaVuSans-30" transform="translate(63.623047 0)"/>
       <use xlink:href="#DejaVuSans-30" transform="translate(127.246094 0)"/>
      </g>
     </g>
    </g>
    <g id="xtick_3">
     <g id="line2d_3">
      <g>
       <use xlink:href="#m99dd540fff" x="129.809078" y="170.44" style="stroke: #000000; stroke-width: 0.8"/>
      </g>
     </g>
     <g id="text_3">
      <!-- 200 -->
      <g transform="translate(120.265328 185.038438) scale(0.1 -0.1)">
       <defs>
        <path id="DejaVuSans-32" d="M 1228 531 
L 3431 531 
L 3431 0 
L 469 0 
L 469 531 
Q 828 903 1448 1529 
Q 2069 2156 2228 2338 
Q 2531 2678 2651 2914 
Q 2772 3150 2772 3378 
Q 2772 3750 2511 3984 
Q 2250 4219 1831 4219 
Q 1534 4219 1204 4116 
Q 875 4013 500 3803 
L 500 4441 
Q 881 4594 1212 4672 
Q 1544 4750 1819 4750 
Q 2544 4750 2975 4387 
Q 3406 4025 3406 3419 
Q 3406 3131 3298 2873 
Q 3191 2616 2906 2266 
Q 2828 2175 2409 1742 
Q 1991 1309 1228 531 
z
" transform="scale(0.015625)"/>
       </defs>
       <use xlink:href="#DejaVuSans-32"/>
       <use xlink:href="#DejaVuSans-30" transform="translate(63.623047 0)"/>
       <use xlink:href="#DejaVuSans-30" transform="translate(127.246094 0)"/>
      </g>
     </g>
    </g>
    <g id="xtick_4">
     <g id="line2d_4">
      <g>
       <use xlink:href="#m99dd540fff" x="164.675027" y="170.44" style="stroke: #000000; stroke-width: 0.8"/>
      </g>
     </g>
     <g id="text_4">
      <!-- 300 -->
      <g transform="translate(155.131277 185.038438) scale(0.1 -0.1)">
       <defs>
        <path id="DejaVuSans-33" d="M 2597 2516 
Q 3050 2419 3304 2112 
Q 3559 1806 3559 1356 
Q 3559 666 3084 287 
Q 2609 -91 1734 -91 
Q 1441 -91 1130 -33 
Q 819 25 488 141 
L 488 750 
Q 750 597 1062 519 
Q 1375 441 1716 441 
Q 2309 441 2620 675 
Q 2931 909 2931 1356 
Q 2931 1769 2642 2001 
Q 2353 2234 1838 2234 
L 1294 2234 
L 1294 2753 
L 1863 2753 
Q 2328 2753 2575 2939 
Q 2822 3125 2822 3475 
Q 2822 3834 2567 4026 
Q 2313 4219 1838 4219 
Q 1578 4219 1281 4162 
Q 984 4106 628 3988 
L 628 4550 
Q 988 4650 1302 4700 
Q 1616 4750 1894 4750 
Q 2613 4750 3031 4423 
Q 3450 4097 3450 3541 
Q 3450 3153 3228 2886 
Q 3006 2619 2597 2516 
z
" transform="scale(0.015625)"/>
       </defs>
       <use xlink:href="#DejaVuSans-33"/>
       <use xlink:href="#DejaVuSans-30" transform="translate(63.623047 0)"/>
       <use xlink:href="#DejaVuSans-30" transform="translate(127.246094 0)"/>
      </g>
     </g>
    </g>
    <g id="xtick_5">
     <g id="line2d_5">
      <g>
       <use xlink:href="#m99dd540fff" x="199.540977" y="170.44" style="stroke: #000000; stroke-width: 0.8"/>
      </g>
     </g>
     <g id="text_5">
      <!-- 400 -->
      <g transform="translate(189.997227 185.038438) scale(0.1 -0.1)">
       <defs>
        <path id="DejaVuSans-34" d="M 2419 4116 
L 825 1625 
L 2419 1625 
L 2419 4116 
z
M 2253 4666 
L 3047 4666 
L 3047 1625 
L 3713 1625 
L 3713 1100 
L 3047 1100 
L 3047 0 
L 2419 0 
L 2419 1100 
L 313 1100 
L 313 1709 
L 2253 4666 
z
" transform="scale(0.015625)"/>
       </defs>
       <use xlink:href="#DejaVuSans-34"/>
       <use xlink:href="#DejaVuSans-30" transform="translate(63.623047 0)"/>
       <use xlink:href="#DejaVuSans-30" transform="translate(127.246094 0)"/>
      </g>
     </g>
    </g>
    <g id="xtick_6">
     <g id="line2d_6">
      <g>
       <use xlink:href="#m99dd540fff" x="234.406926" y="170.44" style="stroke: #000000; stroke-width: 0.8"/>
      </g>
     </g>
     <g id="text_6">
      <!-- 500 -->
      <g transform="translate(224.863176 185.038438) scale(0.1 -0.1)">
       <defs>
        <path id="DejaVuSans-35" d="M 691 4666 
L 3169 4666 
L 3169 4134 
L 1269 4134 
L 1269 2991 
Q 1406 3038 1543 3061 
Q 1681 3084 1819 3084 
Q 2600 3084 3056 2656 
Q 3513 2228 3513 1497 
Q 3513 744 3044 326 
Q 2575 -91 1722 -91 
Q 1428 -91 1123 -41 
Q 819 9 494 109 
L 494 744 
Q 775 591 1075 516 
Q 1375 441 1709 441 
Q 2250 441 2565 725 
Q 2881 1009 2881 1497 
Q 2881 1984 2565 2268 
Q 2250 2553 1709 2553 
Q 1456 2553 1204 2497 
Q 953 2441 691 2322 
L 691 4666 
z
" transform="scale(0.015625)"/>
       </defs>
       <use xlink:href="#DejaVuSans-35"/>
       <use xlink:href="#DejaVuSans-30" transform="translate(63.623047 0)"/>
       <use xlink:href="#DejaVuSans-30" transform="translate(127.246094 0)"/>
      </g>
     </g>
    </g>
    <g id="text_7">
     <!-- Epoch -->
     <g transform="translate(131.756786 198.716563) scale(0.1 -0.1)">
      <defs>
       <path id="DejaVuSans-45" d="M 628 4666 
L 3578 4666 
L 3578 4134 
L 1259 4134 
L 1259 2753 
L 3481 2753 
L 3481 2222 
L 1259 2222 
L 1259 531 
L 3634 531 
L 3634 0 
L 628 0 
L 628 4666 
z
" transform="scale(0.015625)"/>
       <path id="DejaVuSans-70" d="M 1159 525 
L 1159 -1331 
L 581 -1331 
L 581 3500 
L 1159 3500 
L 1159 2969 
Q 1341 3281 1617 3432 
Q 1894 3584 2278 3584 
Q 2916 3584 3314 3078 
Q 3713 2572 3713 1747 
Q 3713 922 3314 415 
Q 2916 -91 2278 -91 
Q 1894 -91 1617 61 
Q 1341 213 1159 525 
z
M 3116 1747 
Q 3116 2381 2855 2742 
Q 2594 3103 2138 3103 
Q 1681 3103 1420 2742 
Q 1159 2381 1159 1747 
Q 1159 1113 1420 752 
Q 1681 391 2138 391 
Q 2594 391 2855 752 
Q 3116 1113 3116 1747 
z
" transform="scale(0.015625)"/>
       <path id="DejaVuSans-6f" d="M 1959 3097 
Q 1497 3097 1228 2736 
Q 959 2375 959 1747 
Q 959 1119 1226 758 
Q 1494 397 1959 397 
Q 2419 397 2687 759 
Q 2956 1122 2956 1747 
Q 2956 2369 2687 2733 
Q 2419 3097 1959 3097 
z
M 1959 3584 
Q 2709 3584 3137 3096 
Q 3566 2609 3566 1747 
Q 3566 888 3137 398 
Q 2709 -91 1959 -91 
Q 1206 -91 779 398 
Q 353 888 353 1747 
Q 353 2609 779 3096 
Q 1206 3584 1959 3584 
z
" transform="scale(0.015625)"/>
       <path id="DejaVuSans-63" d="M 3122 3366 
L 3122 2828 
Q 2878 2963 2633 3030 
Q 2388 3097 2138 3097 
Q 1578 3097 1268 2742 
Q 959 2388 959 1747 
Q 959 1106 1268 751 
Q 1578 397 2138 397 
Q 2388 397 2633 464 
Q 2878 531 3122 666 
L 3122 134 
Q 2881 22 2623 -34 
Q 2366 -91 2075 -91 
Q 1284 -91 818 406 
Q 353 903 353 1747 
Q 353 2603 823 3093 
Q 1294 3584 2113 3584 
Q 2378 3584 2631 3529 
Q 2884 3475 3122 3366 
z
" transform="scale(0.015625)"/>
       <path id="DejaVuSans-68" d="M 3513 2113 
L 3513 0 
L 2938 0 
L 2938 2094 
Q 2938 2591 2744 2837 
Q 2550 3084 2163 3084 
Q 1697 3084 1428 2787 
Q 1159 2491 1159 1978 
L 1159 0 
L 581 0 
L 581 4863 
L 1159 4863 
L 1159 2956 
Q 1366 3272 1645 3428 
Q 1925 3584 2291 3584 
Q 2894 3584 3203 3211 
Q 3513 2838 3513 2113 
z
" transform="scale(0.015625)"/>
      </defs>
      <use xlink:href="#DejaVuSans-45"/>
      <use xlink:href="#DejaVuSans-70" transform="translate(63.183594 0)"/>
      <use xlink:href="#DejaVuSans-6f" transform="translate(126.660156 0)"/>
      <use xlink:href="#DejaVuSans-63" transform="translate(187.841797 0)"/>
      <use xlink:href="#DejaVuSans-68" transform="translate(242.822266 0)"/>
     </g>
    </g>
   </g>
   <g id="matplotlib.axis_2">
    <g id="ytick_1">
     <g id="line2d_7">
      <defs>
       <path id="m85da587209" d="M 0 0 
L -3.5 0 
" style="stroke: #000000; stroke-width: 0.8"/>
      </defs>
      <g>
       <use xlink:href="#m85da587209" x="51.378125" y="163.353468" style="stroke: #000000; stroke-width: 0.8"/>
      </g>
     </g>
     <g id="text_8">
      <!-- $\mathdefault{10^{-5}}$ -->
      <g transform="translate(20.878125 167.152687) scale(0.1 -0.1)">
       <defs>
        <path id="DejaVuSans-2212" d="M 678 2272 
L 4684 2272 
L 4684 1741 
L 678 1741 
L 678 2272 
z
" transform="scale(0.015625)"/>
       </defs>
       <use xlink:href="#DejaVuSans-31" transform="translate(0 0.684375)"/>
       <use xlink:href="#DejaVuSans-30" transform="translate(63.623047 0.684375)"/>
       <use xlink:href="#DejaVuSans-2212" transform="translate(128.203125 38.965625) scale(0.7)"/>
       <use xlink:href="#DejaVuSans-35" transform="translate(186.855469 38.965625) scale(0.7)"/>
      </g>
     </g>
    </g>
    <g id="ytick_2">
     <g id="line2d_8">
      <g>
       <use xlink:href="#m85da587209" x="51.378125" y="135.086964" style="stroke: #000000; stroke-width: 0.8"/>
      </g>
     </g>
     <g id="text_9">
      <!-- $\mathdefault{10^{-4}}$ -->
      <g transform="translate(20.878125 138.886183) scale(0.1 -0.1)">
       <use xlink:href="#DejaVuSans-31" transform="translate(0 0.684375)"/>
       <use xlink:href="#DejaVuSans-30" transform="translate(63.623047 0.684375)"/>
       <use xlink:href="#DejaVuSans-2212" transform="translate(128.203125 38.965625) scale(0.7)"/>
       <use xlink:href="#DejaVuSans-34" transform="translate(186.855469 38.965625) scale(0.7)"/>
      </g>
     </g>
    </g>
    <g id="ytick_3">
     <g id="line2d_9">
      <g>
       <use xlink:href="#m85da587209" x="51.378125" y="106.820461" style="stroke: #000000; stroke-width: 0.8"/>
      </g>
     </g>
     <g id="text_10">
      <!-- $\mathdefault{10^{-3}}$ -->
      <g transform="translate(20.878125 110.619679) scale(0.1 -0.1)">
       <use xlink:href="#DejaVuSans-31" transform="translate(0 0.765625)"/>
       <use xlink:href="#DejaVuSans-30" transform="translate(63.623047 0.765625)"/>
       <use xlink:href="#DejaVuSans-2212" transform="translate(128.203125 39.046875) scale(0.7)"/>
       <use xlink:href="#DejaVuSans-33" transform="translate(186.855469 39.046875) scale(0.7)"/>
      </g>
     </g>
    </g>
    <g id="ytick_4">
     <g id="line2d_10">
      <g>
       <use xlink:href="#m85da587209" x="51.378125" y="78.553957" style="stroke: #000000; stroke-width: 0.8"/>
      </g>
     </g>
     <g id="text_11">
      <!-- $\mathdefault{10^{-2}}$ -->
      <g transform="translate(20.878125 82.353176) scale(0.1 -0.1)">
       <use xlink:href="#DejaVuSans-31" transform="translate(0 0.765625)"/>
       <use xlink:href="#DejaVuSans-30" transform="translate(63.623047 0.765625)"/>
       <use xlink:href="#DejaVuSans-2212" transform="translate(128.203125 39.046875) scale(0.7)"/>
       <use xlink:href="#DejaVuSans-32" transform="translate(186.855469 39.046875) scale(0.7)"/>
      </g>
     </g>
    </g>
    <g id="ytick_5">
     <g id="line2d_11">
      <g>
       <use xlink:href="#m85da587209" x="51.378125" y="50.287453" style="stroke: #000000; stroke-width: 0.8"/>
      </g>
     </g>
     <g id="text_12">
      <!-- $\mathdefault{10^{-1}}$ -->
      <g transform="translate(20.878125 54.086672) scale(0.1 -0.1)">
       <use xlink:href="#DejaVuSans-31" transform="translate(0 0.684375)"/>
       <use xlink:href="#DejaVuSans-30" transform="translate(63.623047 0.684375)"/>
       <use xlink:href="#DejaVuSans-2212" transform="translate(128.203125 38.965625) scale(0.7)"/>
       <use xlink:href="#DejaVuSans-31" transform="translate(186.855469 38.965625) scale(0.7)"/>
      </g>
     </g>
    </g>
    <g id="ytick_6">
     <g id="line2d_12">
      <g>
       <use xlink:href="#m85da587209" x="51.378125" y="22.020949" style="stroke: #000000; stroke-width: 0.8"/>
      </g>
     </g>
     <g id="text_13">
      <!-- $\mathdefault{10^{0}}$ -->
      <g transform="translate(26.778125 25.820168) scale(0.1 -0.1)">
       <use xlink:href="#DejaVuSans-31" transform="translate(0 0.765625)"/>
       <use xlink:href="#DejaVuSans-30" transform="translate(63.623047 0.765625)"/>
       <use xlink:href="#DejaVuSans-30" transform="translate(128.203125 39.046875) scale(0.7)"/>
      </g>
     </g>
    </g>
    <g id="ytick_7">
     <g id="line2d_13">
      <defs>
       <path id="mff39526beb" d="M 0 0 
L -2 0 
" style="stroke: #000000; stroke-width: 0.6"/>
      </defs>
      <g>
       <use xlink:href="#mff39526beb" x="51.378125" y="169.624356" style="stroke: #000000; stroke-width: 0.6"/>
      </g>
     </g>
    </g>
    <g id="ytick_8">
     <g id="line2d_14">
      <g>
       <use xlink:href="#mff39526beb" x="51.378125" y="167.732005" style="stroke: #000000; stroke-width: 0.6"/>
      </g>
     </g>
    </g>
    <g id="ytick_9">
     <g id="line2d_15">
      <g>
       <use xlink:href="#mff39526beb" x="51.378125" y="166.092775" style="stroke: #000000; stroke-width: 0.6"/>
      </g>
     </g>
    </g>
    <g id="ytick_10">
     <g id="line2d_16">
      <g>
       <use xlink:href="#mff39526beb" x="51.378125" y="164.646872" style="stroke: #000000; stroke-width: 0.6"/>
      </g>
     </g>
    </g>
    <g id="ytick_11">
     <g id="line2d_17">
      <g>
       <use xlink:href="#mff39526beb" x="51.378125" y="154.844403" style="stroke: #000000; stroke-width: 0.6"/>
      </g>
     </g>
    </g>
    <g id="ytick_12">
     <g id="line2d_18">
      <g>
       <use xlink:href="#mff39526beb" x="51.378125" y="149.866918" style="stroke: #000000; stroke-width: 0.6"/>
      </g>
     </g>
    </g>
    <g id="ytick_13">
     <g id="line2d_19">
      <g>
       <use xlink:href="#mff39526beb" x="51.378125" y="146.335337" style="stroke: #000000; stroke-width: 0.6"/>
      </g>
     </g>
    </g>
    <g id="ytick_14">
     <g id="line2d_20">
      <g>
       <use xlink:href="#mff39526beb" x="51.378125" y="143.59603" style="stroke: #000000; stroke-width: 0.6"/>
      </g>
     </g>
    </g>
    <g id="ytick_15">
     <g id="line2d_21">
      <g>
       <use xlink:href="#mff39526beb" x="51.378125" y="141.357853" style="stroke: #000000; stroke-width: 0.6"/>
      </g>
     </g>
    </g>
    <g id="ytick_16">
     <g id="line2d_22">
      <g>
       <use xlink:href="#mff39526beb" x="51.378125" y="139.465501" style="stroke: #000000; stroke-width: 0.6"/>
      </g>
     </g>
    </g>
    <g id="ytick_17">
     <g id="line2d_23">
      <g>
       <use xlink:href="#mff39526beb" x="51.378125" y="137.826272" style="stroke: #000000; stroke-width: 0.6"/>
      </g>
     </g>
    </g>
    <g id="ytick_18">
     <g id="line2d_24">
      <g>
       <use xlink:href="#mff39526beb" x="51.378125" y="136.380369" style="stroke: #000000; stroke-width: 0.6"/>
      </g>
     </g>
    </g>
    <g id="ytick_19">
     <g id="line2d_25">
      <g>
       <use xlink:href="#mff39526beb" x="51.378125" y="126.577899" style="stroke: #000000; stroke-width: 0.6"/>
      </g>
     </g>
    </g>
    <g id="ytick_20">
     <g id="line2d_26">
      <g>
       <use xlink:href="#mff39526beb" x="51.378125" y="121.600415" style="stroke: #000000; stroke-width: 0.6"/>
      </g>
     </g>
    </g>
    <g id="ytick_21">
     <g id="line2d_27">
      <g>
       <use xlink:href="#mff39526beb" x="51.378125" y="118.068833" style="stroke: #000000; stroke-width: 0.6"/>
      </g>
     </g>
    </g>
    <g id="ytick_22">
     <g id="line2d_28">
      <g>
       <use xlink:href="#mff39526beb" x="51.378125" y="115.329526" style="stroke: #000000; stroke-width: 0.6"/>
      </g>
     </g>
    </g>
    <g id="ytick_23">
     <g id="line2d_29">
      <g>
       <use xlink:href="#mff39526beb" x="51.378125" y="113.091349" style="stroke: #000000; stroke-width: 0.6"/>
      </g>
     </g>
    </g>
    <g id="ytick_24">
     <g id="line2d_30">
      <g>
       <use xlink:href="#mff39526beb" x="51.378125" y="111.198997" style="stroke: #000000; stroke-width: 0.6"/>
      </g>
     </g>
    </g>
    <g id="ytick_25">
     <g id="line2d_31">
      <g>
       <use xlink:href="#mff39526beb" x="51.378125" y="109.559768" style="stroke: #000000; stroke-width: 0.6"/>
      </g>
     </g>
    </g>
    <g id="ytick_26">
     <g id="line2d_32">
      <g>
       <use xlink:href="#mff39526beb" x="51.378125" y="108.113865" style="stroke: #000000; stroke-width: 0.6"/>
      </g>
     </g>
    </g>
    <g id="ytick_27">
     <g id="line2d_33">
      <g>
       <use xlink:href="#mff39526beb" x="51.378125" y="98.311395" style="stroke: #000000; stroke-width: 0.6"/>
      </g>
     </g>
    </g>
    <g id="ytick_28">
     <g id="line2d_34">
      <g>
       <use xlink:href="#mff39526beb" x="51.378125" y="93.333911" style="stroke: #000000; stroke-width: 0.6"/>
      </g>
     </g>
    </g>
    <g id="ytick_29">
     <g id="line2d_35">
      <g>
       <use xlink:href="#mff39526beb" x="51.378125" y="89.80233" style="stroke: #000000; stroke-width: 0.6"/>
      </g>
     </g>
    </g>
    <g id="ytick_30">
     <g id="line2d_36">
      <g>
       <use xlink:href="#mff39526beb" x="51.378125" y="87.063022" style="stroke: #000000; stroke-width: 0.6"/>
      </g>
     </g>
    </g>
    <g id="ytick_31">
     <g id="line2d_37">
      <g>
       <use xlink:href="#mff39526beb" x="51.378125" y="84.824845" style="stroke: #000000; stroke-width: 0.6"/>
      </g>
     </g>
    </g>
    <g id="ytick_32">
     <g id="line2d_38">
      <g>
       <use xlink:href="#mff39526beb" x="51.378125" y="82.932494" style="stroke: #000000; stroke-width: 0.6"/>
      </g>
     </g>
    </g>
    <g id="ytick_33">
     <g id="line2d_39">
      <g>
       <use xlink:href="#mff39526beb" x="51.378125" y="81.293264" style="stroke: #000000; stroke-width: 0.6"/>
      </g>
     </g>
    </g>
    <g id="ytick_34">
     <g id="line2d_40">
      <g>
       <use xlink:href="#mff39526beb" x="51.378125" y="79.847361" style="stroke: #000000; stroke-width: 0.6"/>
      </g>
     </g>
    </g>
    <g id="ytick_35">
     <g id="line2d_41">
      <g>
       <use xlink:href="#mff39526beb" x="51.378125" y="70.044891" style="stroke: #000000; stroke-width: 0.6"/>
      </g>
     </g>
    </g>
    <g id="ytick_36">
     <g id="line2d_42">
      <g>
       <use xlink:href="#mff39526beb" x="51.378125" y="65.067407" style="stroke: #000000; stroke-width: 0.6"/>
      </g>
     </g>
    </g>
    <g id="ytick_37">
     <g id="line2d_43">
      <g>
       <use xlink:href="#mff39526beb" x="51.378125" y="61.535826" style="stroke: #000000; stroke-width: 0.6"/>
      </g>
     </g>
    </g>
    <g id="ytick_38">
     <g id="line2d_44">
      <g>
       <use xlink:href="#mff39526beb" x="51.378125" y="58.796519" style="stroke: #000000; stroke-width: 0.6"/>
      </g>
     </g>
    </g>
    <g id="ytick_39">
     <g id="line2d_45">
      <g>
       <use xlink:href="#mff39526beb" x="51.378125" y="56.558342" style="stroke: #000000; stroke-width: 0.6"/>
      </g>
     </g>
    </g>
    <g id="ytick_40">
     <g id="line2d_46">
      <g>
       <use xlink:href="#mff39526beb" x="51.378125" y="54.66599" style="stroke: #000000; stroke-width: 0.6"/>
      </g>
     </g>
    </g>
    <g id="ytick_41">
     <g id="line2d_47">
      <g>
       <use xlink:href="#mff39526beb" x="51.378125" y="53.02676" style="stroke: #000000; stroke-width: 0.6"/>
      </g>
     </g>
    </g>
    <g id="ytick_42">
     <g id="line2d_48">
      <g>
       <use xlink:href="#mff39526beb" x="51.378125" y="51.580857" style="stroke: #000000; stroke-width: 0.6"/>
      </g>
     </g>
    </g>
    <g id="ytick_43">
     <g id="line2d_49">
      <g>
       <use xlink:href="#mff39526beb" x="51.378125" y="41.778388" style="stroke: #000000; stroke-width: 0.6"/>
      </g>
     </g>
    </g>
    <g id="ytick_44">
     <g id="line2d_50">
      <g>
       <use xlink:href="#mff39526beb" x="51.378125" y="36.800903" style="stroke: #000000; stroke-width: 0.6"/>
      </g>
     </g>
    </g>
    <g id="ytick_45">
     <g id="line2d_51">
      <g>
       <use xlink:href="#mff39526beb" x="51.378125" y="33.269322" style="stroke: #000000; stroke-width: 0.6"/>
      </g>
     </g>
    </g>
    <g id="ytick_46">
     <g id="line2d_52">
      <g>
       <use xlink:href="#mff39526beb" x="51.378125" y="30.530015" style="stroke: #000000; stroke-width: 0.6"/>
      </g>
     </g>
    </g>
    <g id="ytick_47">
     <g id="line2d_53">
      <g>
       <use xlink:href="#mff39526beb" x="51.378125" y="28.291838" style="stroke: #000000; stroke-width: 0.6"/>
      </g>
     </g>
    </g>
    <g id="ytick_48">
     <g id="line2d_54">
      <g>
       <use xlink:href="#mff39526beb" x="51.378125" y="26.399486" style="stroke: #000000; stroke-width: 0.6"/>
      </g>
     </g>
    </g>
    <g id="ytick_49">
     <g id="line2d_55">
      <g>
       <use xlink:href="#mff39526beb" x="51.378125" y="24.760257" style="stroke: #000000; stroke-width: 0.6"/>
      </g>
     </g>
    </g>
    <g id="ytick_50">
     <g id="line2d_56">
      <g>
       <use xlink:href="#mff39526beb" x="51.378125" y="23.314354" style="stroke: #000000; stroke-width: 0.6"/>
      </g>
     </g>
    </g>
    <g id="ytick_51">
     <g id="line2d_57">
      <g>
       <use xlink:href="#mff39526beb" x="51.378125" y="13.511884" style="stroke: #000000; stroke-width: 0.6"/>
      </g>
     </g>
    </g>
    <g id="ytick_52">
     <g id="line2d_58">
      <g>
       <use xlink:href="#mff39526beb" x="51.378125" y="8.5344" style="stroke: #000000; stroke-width: 0.6"/>
      </g>
     </g>
    </g>
    <g id="text_14">
     <!-- Train Loss -->
     <g transform="translate(14.798438 113.37) rotate(-90) scale(0.1 -0.1)">
      <defs>
       <path id="DejaVuSans-54" d="M -19 4666 
L 3928 4666 
L 3928 4134 
L 2272 4134 
L 2272 0 
L 1638 0 
L 1638 4134 
L -19 4134 
L -19 4666 
z
" transform="scale(0.015625)"/>
       <path id="DejaVuSans-72" d="M 2631 2963 
Q 2534 3019 2420 3045 
Q 2306 3072 2169 3072 
Q 1681 3072 1420 2755 
Q 1159 2438 1159 1844 
L 1159 0 
L 581 0 
L 581 3500 
L 1159 3500 
L 1159 2956 
Q 1341 3275 1631 3429 
Q 1922 3584 2338 3584 
Q 2397 3584 2469 3576 
Q 2541 3569 2628 3553 
L 2631 2963 
z
" transform="scale(0.015625)"/>
       <path id="DejaVuSans-61" d="M 2194 1759 
Q 1497 1759 1228 1600 
Q 959 1441 959 1056 
Q 959 750 1161 570 
Q 1363 391 1709 391 
Q 2188 391 2477 730 
Q 2766 1069 2766 1631 
L 2766 1759 
L 2194 1759 
z
M 3341 1997 
L 3341 0 
L 2766 0 
L 2766 531 
Q 2569 213 2275 61 
Q 1981 -91 1556 -91 
Q 1019 -91 701 211 
Q 384 513 384 1019 
Q 384 1609 779 1909 
Q 1175 2209 1959 2209 
L 2766 2209 
L 2766 2266 
Q 2766 2663 2505 2880 
Q 2244 3097 1772 3097 
Q 1472 3097 1187 3025 
Q 903 2953 641 2809 
L 641 3341 
Q 956 3463 1253 3523 
Q 1550 3584 1831 3584 
Q 2591 3584 2966 3190 
Q 3341 2797 3341 1997 
z
" transform="scale(0.015625)"/>
       <path id="DejaVuSans-69" d="M 603 3500 
L 1178 3500 
L 1178 0 
L 603 0 
L 603 3500 
z
M 603 4863 
L 1178 4863 
L 1178 4134 
L 603 4134 
L 603 4863 
z
" transform="scale(0.015625)"/>
       <path id="DejaVuSans-6e" d="M 3513 2113 
L 3513 0 
L 2938 0 
L 2938 2094 
Q 2938 2591 2744 2837 
Q 2550 3084 2163 3084 
Q 1697 3084 1428 2787 
Q 1159 2491 1159 1978 
L 1159 0 
L 581 0 
L 581 3500 
L 1159 3500 
L 1159 2956 
Q 1366 3272 1645 3428 
Q 1925 3584 2291 3584 
Q 2894 3584 3203 3211 
Q 3513 2838 3513 2113 
z
" transform="scale(0.015625)"/>
       <path id="DejaVuSans-20" transform="scale(0.015625)"/>
       <path id="DejaVuSans-4c" d="M 628 4666 
L 1259 4666 
L 1259 531 
L 3531 531 
L 3531 0 
L 628 0 
L 628 4666 
z
" transform="scale(0.015625)"/>
       <path id="DejaVuSans-73" d="M 2834 3397 
L 2834 2853 
Q 2591 2978 2328 3040 
Q 2066 3103 1784 3103 
Q 1356 3103 1142 2972 
Q 928 2841 928 2578 
Q 928 2378 1081 2264 
Q 1234 2150 1697 2047 
L 1894 2003 
Q 2506 1872 2764 1633 
Q 3022 1394 3022 966 
Q 3022 478 2636 193 
Q 2250 -91 1575 -91 
Q 1294 -91 989 -36 
Q 684 19 347 128 
L 347 722 
Q 666 556 975 473 
Q 1284 391 1588 391 
Q 1994 391 2212 530 
Q 2431 669 2431 922 
Q 2431 1156 2273 1281 
Q 2116 1406 1581 1522 
L 1381 1569 
Q 847 1681 609 1914 
Q 372 2147 372 2553 
Q 372 3047 722 3315 
Q 1072 3584 1716 3584 
Q 2034 3584 2315 3537 
Q 2597 3491 2834 3397 
z
" transform="scale(0.015625)"/>
      </defs>
      <use xlink:href="#DejaVuSans-54"/>
      <use xlink:href="#DejaVuSans-72" transform="translate(46.333984 0)"/>
      <use xlink:href="#DejaVuSans-61" transform="translate(87.447266 0)"/>
      <use xlink:href="#DejaVuSans-69" transform="translate(148.726562 0)"/>
      <use xlink:href="#DejaVuSans-6e" transform="translate(176.509766 0)"/>
      <use xlink:href="#DejaVuSans-20" transform="translate(239.888672 0)"/>
      <use xlink:href="#DejaVuSans-4c" transform="translate(271.675781 0)"/>
      <use xlink:href="#DejaVuSans-6f" transform="translate(325.638672 0)"/>
      <use xlink:href="#DejaVuSans-73" transform="translate(386.820312 0)"/>
      <use xlink:href="#DejaVuSans-73" transform="translate(438.919922 0)"/>
     </g>
    </g>
   </g>
   <g id="line2d_59">
    <path d="M 60.077179 28.214224 
L 60.425839 14.62 
L 60.774498 29.347125 
L 61.123158 33.03913 
L 61.471817 57.719188 
L 61.820477 26.829306 
L 62.169136 38.249376 
L 62.517796 31.792534 
L 62.866455 34.69049 
L 63.215115 61.153672 
L 63.563774 42.051731 
L 63.912434 60.27981 
L 64.261093 37.800973 
L 64.609753 52.305314 
L 64.958412 77.722238 
L 65.307072 84.307223 
L 65.655731 25.626635 
L 66.004391 55.217914 
L 66.35305 71.386581 
L 66.70171 60.369188 
L 67.050369 65.145185 
L 67.399029 44.437812 
L 67.747688 59.318763 
L 68.096348 107.384599 
L 68.445007 62.22958 
L 68.793667 72.741931 
L 69.142326 95.148535 
L 69.490986 71.076302 
L 69.839645 76.798503 
L 70.188305 95.578119 
L 70.536964 65.700227 
L 70.885624 73.583111 
L 71.234283 75.594529 
L 71.582943 69.555635 
L 71.931602 81.113405 
L 72.280262 76.949113 
L 72.628921 66.188396 
L 72.977581 115.877607 
L 73.32624 99.486823 
L 73.6749 63.858925 
L 74.372219 90.10093 
L 74.720878 74.463868 
L 75.069538 72.997412 
L 75.418197 114.967511 
L 75.766857 76.679949 
L 76.115516 101.610283 
L 76.464176 63.282914 
L 76.812835 106.997467 
L 77.161495 89.884129 
L 77.510154 105.918384 
L 77.858814 87.787189 
L 78.207473 79.163573 
L 78.904792 68.487493 
L 79.253452 83.009154 
L 79.602111 76.46718 
L 79.950771 101.085428 
L 80.29943 69.906353 
L 80.648089 100.736725 
L 80.996749 88.644038 
L 81.345408 53.257697 
L 81.694068 69.409494 
L 82.042727 123.953626 
L 82.391387 65.253867 
L 82.740046 86.408224 
L 83.088706 94.436372 
L 83.437365 85.437696 
L 83.786025 88.339362 
L 84.134684 118.151261 
L 84.483344 108.14995 
L 84.832003 74.58639 
L 85.529322 94.318527 
L 85.877982 67.467496 
L 86.226641 82.647849 
L 86.92396 94.543419 
L 87.27262 105.614042 
L 87.621279 95.958396 
L 87.969939 111.130949 
L 88.318598 78.998179 
L 88.667258 102.511131 
L 89.015917 90.402604 
L 89.364577 92.34831 
L 89.713236 82.568201 
L 90.061896 69.327819 
L 90.410555 90.794431 
L 90.759215 143.65634 
L 91.107874 86.87035 
L 91.456534 98.690221 
L 92.153853 70.423678 
L 92.851172 126.955962 
L 93.199831 91.113103 
L 93.548491 94.6783 
L 93.89715 102.850529 
L 94.24581 95.861384 
L 94.594469 127.193536 
L 94.943129 89.12774 
L 95.291788 95.236517 
L 95.640448 70.47649 
L 95.989107 105.703347 
L 96.337767 77.545045 
L 96.686426 89.959562 
L 97.035086 89.241747 
L 97.383745 84.889415 
L 97.732405 71.131534 
L 98.081064 109.808464 
L 98.429724 107.406715 
L 98.778383 70.032061 
L 99.127043 88.814239 
L 99.475702 101.180046 
L 99.824362 72.996244 
L 100.173021 116.589058 
L 100.521681 80.95037 
L 100.87034 94.998884 
L 101.219 85.926372 
L 101.567659 120.180648 
L 101.916319 91.297249 
L 102.264978 94.306878 
L 102.613638 121.049812 
L 102.962297 90.725549 
L 103.310957 120.672437 
L 103.659616 96.747655 
L 104.008276 93.743835 
L 104.705595 104.573058 
L 105.054254 84.799223 
L 105.751573 120.90463 
L 106.100233 133.814578 
L 106.448892 75.981292 
L 106.797552 126.660997 
L 107.146211 77.635628 
L 107.494871 98.521634 
L 107.84353 76.737543 
L 108.192189 93.057333 
L 108.540849 88.775252 
L 108.889508 75.786343 
L 109.238168 71.291912 
L 109.586827 83.161867 
L 109.935487 99.31975 
L 110.284146 77.473532 
L 110.632806 85.492207 
L 110.981465 96.33056 
L 111.330125 90.418997 
L 111.678784 117.4975 
L 112.027444 116.712927 
L 112.376103 95.117242 
L 112.724763 125.796032 
L 113.073422 96.96353 
L 113.422082 117.251404 
L 114.119401 104.988523 
L 114.46806 103.338308 
L 114.81672 109.237319 
L 115.165379 129.21267 
L 115.862698 105.13774 
L 116.211358 117.882525 
L 116.560017 109.214372 
L 116.908677 88.902964 
L 117.257336 108.51071 
L 117.605996 100.646792 
L 117.954655 99.58662 
L 118.303315 107.491703 
L 118.651974 89.202313 
L 119.000634 105.954689 
L 119.349293 90.0482 
L 119.697953 93.376602 
L 120.046612 106.33298 
L 120.395272 106.37504 
L 120.743931 95.120954 
L 121.092591 142.289598 
L 121.44125 117.221268 
L 121.78991 104.970234 
L 122.138569 101.167467 
L 122.487229 74.917414 
L 122.835888 137.344728 
L 123.184548 84.739242 
L 123.533207 119.17986 
L 123.881867 80.012379 
L 124.230526 92.496033 
L 124.579186 120.378006 
L 124.927845 80.415563 
L 125.276505 95.838089 
L 125.625164 94.873723 
L 125.973824 113.847395 
L 127.019802 101.352512 
L 127.368462 121.461153 
L 127.717121 91.73971 
L 128.065781 82.857781 
L 128.41444 133.036638 
L 128.7631 105.688891 
L 129.111759 91.947323 
L 129.460419 162.929837 
L 129.809078 116.454427 
L 130.157738 115.741052 
L 130.506397 86.36312 
L 130.855057 103.872882 
L 131.203716 88.804242 
L 131.552376 114.787131 
L 131.901035 81.96639 
L 132.249695 86.911349 
L 132.598354 111.169752 
L 132.947014 109.272415 
L 133.295673 108.91919 
L 133.644333 78.609354 
L 133.992992 88.023983 
L 134.341652 81.593258 
L 134.690311 110.331763 
L 135.038971 115.974029 
L 135.38763 96.218149 
L 135.73629 105.050845 
L 136.084949 109.545371 
L 136.433608 75.03352 
L 136.782268 107.445284 
L 137.130927 129.100718 
L 137.479587 73.67856 
L 137.828246 77.163435 
L 138.176906 99.67177 
L 138.525565 90.09908 
L 138.874225 109.787401 
L 139.222884 98.811774 
L 139.571544 101.986895 
L 139.920203 128.430783 
L 140.268863 108.03048 
L 140.617522 98.969116 
L 140.966182 108.381667 
L 141.314841 89.299908 
L 141.663501 89.836861 
L 142.01216 116.853659 
L 142.709479 98.420847 
L 143.058139 112.003322 
L 143.406798 104.004997 
L 143.755458 103.074215 
L 144.104117 100.105025 
L 144.452777 111.711695 
L 144.801436 103.743662 
L 145.150096 108.615487 
L 145.498755 91.072089 
L 145.847415 106.151345 
L 146.196074 110.591774 
L 146.544734 78.675659 
L 146.893393 108.182136 
L 147.242053 93.930857 
L 147.590712 163.02 
L 147.939372 111.317221 
L 148.288031 117.322996 
L 148.98535 79.443501 
L 149.33401 81.655416 
L 149.682669 100.18257 
L 150.031329 91.188289 
L 150.379988 93.280307 
L 150.728648 116.627003 
L 151.077307 109.474431 
L 151.425967 107.730597 
L 151.774626 108.407337 
L 152.123286 91.269714 
L 152.471945 109.929539 
L 152.820605 90.231967 
L 153.169264 127.725394 
L 153.517924 90.947471 
L 153.866583 87.089487 
L 154.215243 118.156396 
L 154.563902 102.487152 
L 154.912562 93.851449 
L 155.261221 136.95161 
L 155.609881 117.122774 
L 155.95854 88.773498 
L 156.3072 106.395619 
L 156.655859 99.763217 
L 157.004519 135.550221 
L 157.353178 105.864475 
L 157.701838 126.209996 
L 158.399157 104.419942 
L 158.747816 121.539312 
L 159.096476 97.406276 
L 159.445135 102.239968 
L 159.793795 115.840512 
L 160.142454 114.853875 
L 160.491114 108.780319 
L 160.839773 111.616843 
L 161.188433 131.257166 
L 161.537092 92.922092 
L 161.885752 90.411737 
L 162.234411 88.941223 
L 162.583071 86.370686 
L 162.93173 123.102446 
L 163.28039 122.662071 
L 163.629049 93.497375 
L 163.977708 88.182931 
L 164.326368 124.417484 
L 164.675027 109.761972 
L 165.023687 102.279061 
L 165.372346 88.249201 
L 165.721006 117.825716 
L 166.069665 107.155397 
L 166.418325 107.278617 
L 166.766984 96.204535 
L 167.115644 111.220482 
L 167.464303 107.136077 
L 167.812963 111.844412 
L 168.161622 99.818624 
L 168.510282 104.353332 
L 168.858941 131.537975 
L 169.207601 87.252411 
L 169.55626 107.388496 
L 169.90492 117.815205 
L 170.253579 85.102754 
L 170.602239 90.808665 
L 170.950898 137.015849 
L 171.299558 111.780514 
L 171.648217 104.016389 
L 171.996877 112.202459 
L 172.345536 101.308706 
L 172.694196 105.316778 
L 173.042855 105.782676 
L 173.391515 78.880642 
L 173.740174 94.004627 
L 174.088834 80.468904 
L 174.437493 104.386945 
L 174.786153 142.317122 
L 175.134812 103.206943 
L 175.483472 92.135774 
L 175.832131 97.232055 
L 176.180791 103.96023 
L 176.52945 101.018176 
L 176.87811 107.652591 
L 177.226769 122.888598 
L 177.575429 118.76852 
L 177.924088 106.168609 
L 178.272748 116.327126 
L 178.621407 69.602402 
L 178.970067 93.775427 
L 179.318726 94.44565 
L 179.667386 84.703803 
L 180.016045 102.763598 
L 180.364705 90.555614 
L 180.713364 111.774493 
L 181.062024 124.694753 
L 181.410683 89.524647 
L 181.759343 84.005686 
L 182.456662 130.189989 
L 182.805321 106.678741 
L 183.153981 115.99557 
L 183.50264 142.264128 
L 183.8513 108.537447 
L 184.199959 88.538503 
L 184.548619 106.435188 
L 184.897278 103.173891 
L 185.245938 94.269036 
L 185.594597 103.200129 
L 185.943257 97.043586 
L 186.291916 97.450885 
L 186.640576 104.812386 
L 186.989235 121.599167 
L 187.337895 101.753023 
L 187.686554 109.244967 
L 188.035214 97.933026 
L 188.732533 126.083505 
L 189.081192 106.465752 
L 189.429852 93.732986 
L 189.778511 88.846756 
L 190.47583 110.019333 
L 190.82449 101.425044 
L 191.173149 98.022073 
L 191.521808 106.158831 
L 191.870468 100.959133 
L 192.219127 91.910922 
L 192.567787 98.408017 
L 192.916446 110.21452 
L 193.265106 86.844057 
L 193.613765 103.864824 
L 193.962425 96.160799 
L 194.311084 123.642896 
L 195.008403 95.579036 
L 195.357063 97.00013 
L 195.705722 100.77331 
L 196.054382 111.852419 
L 196.403041 95.046663 
L 196.751701 117.953359 
L 197.44902 83.064498 
L 197.797679 106.760757 
L 198.146339 118.661447 
L 198.494998 108.348902 
L 198.843658 85.756721 
L 199.192317 113.17168 
L 199.540977 124.302778 
L 199.889636 111.640564 
L 200.238296 108.54335 
L 200.586955 110.852496 
L 200.935615 88.573019 
L 201.284274 121.044264 
L 201.632934 116.450735 
L 201.981593 86.297216 
L 202.330253 103.41237 
L 202.678912 113.682912 
L 203.027572 119.998862 
L 203.376231 98.322838 
L 203.724891 121.591886 
L 204.07355 78.997902 
L 204.42221 98.414935 
L 204.770869 132.815468 
L 205.119529 76.086518 
L 205.468188 109.112793 
L 205.816848 85.667065 
L 206.165507 106.856114 
L 206.514167 118.059629 
L 206.862826 90.24399 
L 207.211486 101.833619 
L 207.560145 100.254249 
L 207.908805 103.149852 
L 208.257464 114.505167 
L 208.606124 90.950009 
L 208.954783 85.116899 
L 209.652102 110.452272 
L 210.000762 126.835522 
L 210.349421 93.294881 
L 210.698081 112.628287 
L 211.04674 87.951961 
L 211.3954 101.28858 
L 211.744059 104.401829 
L 212.092719 122.34534 
L 212.441378 95.502957 
L 212.790038 102.436695 
L 213.138697 93.853233 
L 213.487357 103.983838 
L 213.836016 106.368522 
L 214.184676 145.645895 
L 214.533335 95.861965 
L 214.881995 120.375534 
L 215.230654 120.751964 
L 215.579314 100.919215 
L 215.927973 98.487841 
L 216.276633 120.132006 
L 216.973952 99.779933 
L 217.322611 97.987849 
L 217.671271 109.632962 
L 218.01993 109.691201 
L 218.36859 99.513657 
L 218.717249 117.188426 
L 219.065908 87.341187 
L 219.414568 102.575784 
L 219.763227 103.251049 
L 220.111887 112.988731 
L 220.460546 95.775331 
L 220.809206 112.71151 
L 221.157865 118.407051 
L 221.506525 94.952923 
L 221.855184 105.778411 
L 222.203844 108.02452 
L 222.552503 117.160506 
L 223.249822 91.299919 
L 223.598482 100.073582 
L 224.295801 103.918098 
L 224.64446 114.668988 
L 224.99312 93.935328 
L 225.341779 121.223095 
L 225.690439 115.481868 
L 226.039098 107.459515 
L 226.387758 93.477427 
L 226.736417 99.772084 
L 227.085077 103.145381 
L 227.433736 125.948311 
L 227.782396 106.872623 
L 228.131055 116.697075 
L 228.479715 95.955049 
L 228.828374 102.160203 
L 229.177034 113.249099 
L 229.525693 103.712414 
L 229.874353 111.223894 
L 230.223012 92.791948 
L 230.571672 99.39335 
L 230.920331 113.859566 
L 231.268991 108.363983 
L 231.61765 107.506066 
L 231.96631 111.658007 
L 232.314969 122.141026 
L 232.663629 109.346636 
L 233.012288 111.086262 
L 233.360948 161.646575 
L 233.709607 90.53464 
L 234.058267 90.060446 
L 234.058267 90.060446 
" clip-path="url(#p4bb7c8be98)" style="fill: none; stroke: #1f77b4; stroke-opacity: 0.8; stroke-width: 1.5; stroke-linecap: square"/>
   </g>
   <g id="line2d_60"/>
   <g id="patch_3">
    <path d="M 51.378125 170.44 
L 51.378125 7.2 
" style="fill: none; stroke: #000000; stroke-width: 0.8; stroke-linejoin: miter; stroke-linecap: square"/>
   </g>
   <g id="patch_4">
    <path d="M 242.757321 170.44 
L 242.757321 7.2 
" style="fill: none; stroke: #000000; stroke-width: 0.8; stroke-linejoin: miter; stroke-linecap: square"/>
   </g>
   <g id="patch_5">
    <path d="M 51.378125 170.44 
L 242.757321 170.44 
" style="fill: none; stroke: #000000; stroke-width: 0.8; stroke-linejoin: miter; stroke-linecap: square"/>
   </g>
   <g id="patch_6">
    <path d="M 51.378125 7.2 
L 242.757321 7.2 
" style="fill: none; stroke: #000000; stroke-width: 0.8; stroke-linejoin: miter; stroke-linecap: square"/>
   </g>
  </g>
  <g id="axes_2">
   <g id="patch_7">
    <path d="M 297.854375 170.44 
L 489.233571 170.44 
L 489.233571 7.2 
L 297.854375 7.2 
z
" style="fill: #ffffff"/>
   </g>
   <g id="FillBetweenPolyCollection_2"/>
   <g id="matplotlib.axis_3">
    <g id="xtick_7">
     <g id="line2d_61">
      <g>
       <use xlink:href="#m99dd540fff" x="306.553429" y="170.44" style="stroke: #000000; stroke-width: 0.8"/>
      </g>
     </g>
     <g id="text_15">
      <!-- 0 -->
      <g transform="translate(303.372179 185.038438) scale(0.1 -0.1)">
       <use xlink:href="#DejaVuSans-30"/>
      </g>
     </g>
    </g>
    <g id="xtick_8">
     <g id="line2d_62">
      <g>
       <use xlink:href="#m99dd540fff" x="341.419379" y="170.44" style="stroke: #000000; stroke-width: 0.8"/>
      </g>
     </g>
     <g id="text_16">
      <!-- 100 -->
      <g transform="translate(331.875629 185.038438) scale(0.1 -0.1)">
       <use xlink:href="#DejaVuSans-31"/>
       <use xlink:href="#DejaVuSans-30" transform="translate(63.623047 0)"/>
       <use xlink:href="#DejaVuSans-30" transform="translate(127.246094 0)"/>
      </g>
     </g>
    </g>
    <g id="xtick_9">
     <g id="line2d_63">
      <g>
       <use xlink:href="#m99dd540fff" x="376.285328" y="170.44" style="stroke: #000000; stroke-width: 0.8"/>
      </g>
     </g>
     <g id="text_17">
      <!-- 200 -->
      <g transform="translate(366.741578 185.038438) scale(0.1 -0.1)">
       <use xlink:href="#DejaVuSans-32"/>
       <use xlink:href="#DejaVuSans-30" transform="translate(63.623047 0)"/>
       <use xlink:href="#DejaVuSans-30" transform="translate(127.246094 0)"/>
      </g>
     </g>
    </g>
    <g id="xtick_10">
     <g id="line2d_64">
      <g>
       <use xlink:href="#m99dd540fff" x="411.151277" y="170.44" style="stroke: #000000; stroke-width: 0.8"/>
      </g>
     </g>
     <g id="text_18">
      <!-- 300 -->
      <g transform="translate(401.607527 185.038438) scale(0.1 -0.1)">
       <use xlink:href="#DejaVuSans-33"/>
       <use xlink:href="#DejaVuSans-30" transform="translate(63.623047 0)"/>
       <use xlink:href="#DejaVuSans-30" transform="translate(127.246094 0)"/>
      </g>
     </g>
    </g>
    <g id="xtick_11">
     <g id="line2d_65">
      <g>
       <use xlink:href="#m99dd540fff" x="446.017227" y="170.44" style="stroke: #000000; stroke-width: 0.8"/>
      </g>
     </g>
     <g id="text_19">
      <!-- 400 -->
      <g transform="translate(436.473477 185.038438) scale(0.1 -0.1)">
       <use xlink:href="#DejaVuSans-34"/>
       <use xlink:href="#DejaVuSans-30" transform="translate(63.623047 0)"/>
       <use xlink:href="#DejaVuSans-30" transform="translate(127.246094 0)"/>
      </g>
     </g>
    </g>
    <g id="xtick_12">
     <g id="line2d_66">
      <g>
       <use xlink:href="#m99dd540fff" x="480.883176" y="170.44" style="stroke: #000000; stroke-width: 0.8"/>
      </g>
     </g>
     <g id="text_20">
      <!-- 500 -->
      <g transform="translate(471.339426 185.038438) scale(0.1 -0.1)">
       <use xlink:href="#DejaVuSans-35"/>
       <use xlink:href="#DejaVuSans-30" transform="translate(63.623047 0)"/>
       <use xlink:href="#DejaVuSans-30" transform="translate(127.246094 0)"/>
      </g>
     </g>
    </g>
    <g id="text_21">
     <!-- Epoch -->
     <g transform="translate(378.233036 198.716563) scale(0.1 -0.1)">
      <use xlink:href="#DejaVuSans-45"/>
      <use xlink:href="#DejaVuSans-70" transform="translate(63.183594 0)"/>
      <use xlink:href="#DejaVuSans-6f" transform="translate(126.660156 0)"/>
      <use xlink:href="#DejaVuSans-63" transform="translate(187.841797 0)"/>
      <use xlink:href="#DejaVuSans-68" transform="translate(242.822266 0)"/>
     </g>
    </g>
   </g>
   <g id="matplotlib.axis_4">
    <g id="ytick_53">
     <g id="line2d_67">
      <g>
       <use xlink:href="#m85da587209" x="297.854375" y="168.897952" style="stroke: #000000; stroke-width: 0.8"/>
      </g>
     </g>
     <g id="text_22">
      <!-- $\mathdefault{10^{-2}}$ -->
      <g transform="translate(267.354375 172.697171) scale(0.1 -0.1)">
       <use xlink:href="#DejaVuSans-31" transform="translate(0 0.765625)"/>
       <use xlink:href="#DejaVuSans-30" transform="translate(63.623047 0.765625)"/>
       <use xlink:href="#DejaVuSans-2212" transform="translate(128.203125 39.046875) scale(0.7)"/>
       <use xlink:href="#DejaVuSans-32" transform="translate(186.855469 39.046875) scale(0.7)"/>
      </g>
     </g>
    </g>
    <g id="ytick_54">
     <g id="line2d_68">
      <g>
       <use xlink:href="#m85da587209" x="297.854375" y="85.976788" style="stroke: #000000; stroke-width: 0.8"/>
      </g>
     </g>
     <g id="text_23">
      <!-- $\mathdefault{10^{-1}}$ -->
      <g transform="translate(267.354375 89.776007) scale(0.1 -0.1)">
       <use xlink:href="#DejaVuSans-31" transform="translate(0 0.684375)"/>
       <use xlink:href="#DejaVuSans-30" transform="translate(63.623047 0.684375)"/>
       <use xlink:href="#DejaVuSans-2212" transform="translate(128.203125 38.965625) scale(0.7)"/>
       <use xlink:href="#DejaVuSans-31" transform="translate(186.855469 38.965625) scale(0.7)"/>
      </g>
     </g>
    </g>
    <g id="ytick_55">
     <g id="line2d_69">
      <g>
       <use xlink:href="#mff39526beb" x="297.854375" y="143.936194" style="stroke: #000000; stroke-width: 0.6"/>
      </g>
     </g>
    </g>
    <g id="ytick_56">
     <g id="line2d_70">
      <g>
       <use xlink:href="#mff39526beb" x="297.854375" y="129.334502" style="stroke: #000000; stroke-width: 0.6"/>
      </g>
     </g>
    </g>
    <g id="ytick_57">
     <g id="line2d_71">
      <g>
       <use xlink:href="#mff39526beb" x="297.854375" y="118.974437" style="stroke: #000000; stroke-width: 0.6"/>
      </g>
     </g>
    </g>
    <g id="ytick_58">
     <g id="line2d_72">
      <g>
       <use xlink:href="#mff39526beb" x="297.854375" y="110.938546" style="stroke: #000000; stroke-width: 0.6"/>
      </g>
     </g>
    </g>
    <g id="ytick_59">
     <g id="line2d_73">
      <g>
       <use xlink:href="#mff39526beb" x="297.854375" y="104.372745" style="stroke: #000000; stroke-width: 0.6"/>
      </g>
     </g>
    </g>
    <g id="ytick_60">
     <g id="line2d_74">
      <g>
       <use xlink:href="#mff39526beb" x="297.854375" y="98.821439" style="stroke: #000000; stroke-width: 0.6"/>
      </g>
     </g>
    </g>
    <g id="ytick_61">
     <g id="line2d_75">
      <g>
       <use xlink:href="#mff39526beb" x="297.854375" y="94.012679" style="stroke: #000000; stroke-width: 0.6"/>
      </g>
     </g>
    </g>
    <g id="ytick_62">
     <g id="line2d_76">
      <g>
       <use xlink:href="#mff39526beb" x="297.854375" y="89.771053" style="stroke: #000000; stroke-width: 0.6"/>
      </g>
     </g>
    </g>
    <g id="ytick_63">
     <g id="line2d_77">
      <g>
       <use xlink:href="#mff39526beb" x="297.854375" y="61.015031" style="stroke: #000000; stroke-width: 0.6"/>
      </g>
     </g>
    </g>
    <g id="ytick_64">
     <g id="line2d_78">
      <g>
       <use xlink:href="#mff39526beb" x="297.854375" y="46.413338" style="stroke: #000000; stroke-width: 0.6"/>
      </g>
     </g>
    </g>
    <g id="ytick_65">
     <g id="line2d_79">
      <g>
       <use xlink:href="#mff39526beb" x="297.854375" y="36.053273" style="stroke: #000000; stroke-width: 0.6"/>
      </g>
     </g>
    </g>
    <g id="ytick_66">
     <g id="line2d_80">
      <g>
       <use xlink:href="#mff39526beb" x="297.854375" y="28.017382" style="stroke: #000000; stroke-width: 0.6"/>
      </g>
     </g>
    </g>
    <g id="ytick_67">
     <g id="line2d_81">
      <g>
       <use xlink:href="#mff39526beb" x="297.854375" y="21.451581" style="stroke: #000000; stroke-width: 0.6"/>
      </g>
     </g>
    </g>
    <g id="ytick_68">
     <g id="line2d_82">
      <g>
       <use xlink:href="#mff39526beb" x="297.854375" y="15.900275" style="stroke: #000000; stroke-width: 0.6"/>
      </g>
     </g>
    </g>
    <g id="ytick_69">
     <g id="line2d_83">
      <g>
       <use xlink:href="#mff39526beb" x="297.854375" y="11.091515" style="stroke: #000000; stroke-width: 0.6"/>
      </g>
     </g>
    </g>
    <g id="text_24">
     <!-- Test MSE -->
     <g transform="translate(261.274688 110.902031) rotate(-90) scale(0.1 -0.1)">
      <defs>
       <path id="DejaVuSans-65" d="M 3597 1894 
L 3597 1613 
L 953 1613 
Q 991 1019 1311 708 
Q 1631 397 2203 397 
Q 2534 397 2845 478 
Q 3156 559 3463 722 
L 3463 178 
Q 3153 47 2828 -22 
Q 2503 -91 2169 -91 
Q 1331 -91 842 396 
Q 353 884 353 1716 
Q 353 2575 817 3079 
Q 1281 3584 2069 3584 
Q 2775 3584 3186 3129 
Q 3597 2675 3597 1894 
z
M 3022 2063 
Q 3016 2534 2758 2815 
Q 2500 3097 2075 3097 
Q 1594 3097 1305 2825 
Q 1016 2553 972 2059 
L 3022 2063 
z
" transform="scale(0.015625)"/>
       <path id="DejaVuSans-74" d="M 1172 4494 
L 1172 3500 
L 2356 3500 
L 2356 3053 
L 1172 3053 
L 1172 1153 
Q 1172 725 1289 603 
Q 1406 481 1766 481 
L 2356 481 
L 2356 0 
L 1766 0 
Q 1100 0 847 248 
Q 594 497 594 1153 
L 594 3053 
L 172 3053 
L 172 3500 
L 594 3500 
L 594 4494 
L 1172 4494 
z
" transform="scale(0.015625)"/>
       <path id="DejaVuSans-4d" d="M 628 4666 
L 1569 4666 
L 2759 1491 
L 3956 4666 
L 4897 4666 
L 4897 0 
L 4281 0 
L 4281 4097 
L 3078 897 
L 2444 897 
L 1241 4097 
L 1241 0 
L 628 0 
L 628 4666 
z
" transform="scale(0.015625)"/>
       <path id="DejaVuSans-53" d="M 3425 4513 
L 3425 3897 
Q 3066 4069 2747 4153 
Q 2428 4238 2131 4238 
Q 1616 4238 1336 4038 
Q 1056 3838 1056 3469 
Q 1056 3159 1242 3001 
Q 1428 2844 1947 2747 
L 2328 2669 
Q 3034 2534 3370 2195 
Q 3706 1856 3706 1288 
Q 3706 609 3251 259 
Q 2797 -91 1919 -91 
Q 1588 -91 1214 -16 
Q 841 59 441 206 
L 441 856 
Q 825 641 1194 531 
Q 1563 422 1919 422 
Q 2459 422 2753 634 
Q 3047 847 3047 1241 
Q 3047 1584 2836 1778 
Q 2625 1972 2144 2069 
L 1759 2144 
Q 1053 2284 737 2584 
Q 422 2884 422 3419 
Q 422 4038 858 4394 
Q 1294 4750 2059 4750 
Q 2388 4750 2728 4690 
Q 3069 4631 3425 4513 
z
" transform="scale(0.015625)"/>
      </defs>
      <use xlink:href="#DejaVuSans-54"/>
      <use xlink:href="#DejaVuSans-65" transform="translate(44.083984 0)"/>
      <use xlink:href="#DejaVuSans-73" transform="translate(105.607422 0)"/>
      <use xlink:href="#DejaVuSans-74" transform="translate(157.707031 0)"/>
      <use xlink:href="#DejaVuSans-20" transform="translate(196.916016 0)"/>
      <use xlink:href="#DejaVuSans-4d" transform="translate(228.703125 0)"/>
      <use xlink:href="#DejaVuSans-53" transform="translate(314.982422 0)"/>
      <use xlink:href="#DejaVuSans-45" transform="translate(378.458984 0)"/>
     </g>
    </g>
   </g>
   <g id="line2d_84">
    <path d="M 306.553429 14.62 
L 306.902089 17.40284 
L 307.250748 60.255037 
L 307.599408 61.172901 
L 307.948067 60.621328 
L 308.296727 46.765251 
L 308.645386 59.237249 
L 308.994046 83.474534 
L 309.342705 86.282627 
L 309.691365 96.116084 
L 310.040024 87.630257 
L 310.388684 75.157758 
L 310.737343 68.530751 
L 311.086003 101.422186 
L 311.434662 83.744082 
L 311.783322 90.561335 
L 312.131981 60.501286 
L 312.480641 103.048678 
L 313.17796 123.721507 
L 313.526619 124.191415 
L 313.875279 85.842932 
L 314.223938 133.035239 
L 314.572598 95.646544 
L 314.921257 124.815316 
L 315.269917 117.07059 
L 315.618576 116.22571 
L 315.967236 114.205085 
L 316.315895 120.922536 
L 316.664555 132.360446 
L 317.013214 133.698654 
L 317.361874 104.916533 
L 317.710533 134.783049 
L 318.059193 127.211833 
L 318.407852 124.705342 
L 318.756512 125.127966 
L 319.105171 134.906265 
L 319.453831 133.537859 
L 319.80249 131.344259 
L 320.15115 120.804243 
L 320.499809 140.74813 
L 320.848469 144.329175 
L 321.197128 141.383288 
L 321.545788 134.434676 
L 321.894447 134.770375 
L 322.243107 137.474722 
L 322.591766 145.714828 
L 322.940426 141.505932 
L 323.289085 143.113423 
L 323.637745 140.213872 
L 323.986404 138.980386 
L 324.335064 135.151631 
L 324.683723 135.193513 
L 325.032383 135.076522 
L 325.381042 134.167161 
L 325.729702 141.250893 
L 326.427021 138.175279 
L 326.77568 127.348798 
L 327.124339 142.719504 
L 327.472999 141.709568 
L 327.821658 134.845913 
L 328.170318 125.005245 
L 328.518977 138.50794 
L 328.867637 128.172672 
L 329.216296 131.771088 
L 329.564956 137.26833 
L 329.913615 133.918789 
L 330.262275 143.948842 
L 330.610934 140.705755 
L 330.959594 133.81253 
L 331.308253 136.473702 
L 331.656913 143.704174 
L 332.005572 139.605918 
L 332.354232 138.189638 
L 332.702891 140.011085 
L 333.40021 146.553307 
L 333.74887 143.956784 
L 334.097529 140.329731 
L 334.446189 144.544482 
L 334.794848 145.655833 
L 335.143508 149.284857 
L 335.492167 142.83493 
L 335.840827 141.973357 
L 336.189486 146.468699 
L 336.538146 146.984379 
L 336.886805 145.765101 
L 337.932784 152.567841 
L 338.281443 142.44941 
L 338.630103 146.478506 
L 338.978762 152.18191 
L 339.327422 148.753871 
L 339.676081 142.316234 
L 340.024741 145.312245 
L 340.3734 143.770812 
L 340.72206 146.531367 
L 341.070719 145.398021 
L 341.768038 149.658253 
L 342.116698 143.631794 
L 342.465357 147.17918 
L 342.814017 148.387343 
L 343.162676 146.798531 
L 343.511336 143.602175 
L 343.859995 144.448627 
L 344.905974 136.881026 
L 345.254633 147.689465 
L 345.603293 144.640665 
L 346.300612 133.007524 
L 346.649271 148.725365 
L 346.997931 151.538289 
L 347.34659 149.156235 
L 347.69525 141.246541 
L 348.043909 151.81002 
L 348.392569 144.801916 
L 348.741228 152.130884 
L 349.089888 149.668783 
L 349.438547 152.587913 
L 349.787207 158.495284 
L 350.135866 156.166633 
L 350.484526 150.879988 
L 350.833185 153.696648 
L 351.181845 158.307929 
L 351.530504 145.109733 
L 351.879164 153.090169 
L 352.227823 151.394013 
L 352.576483 150.861597 
L 352.925142 150.736189 
L 353.273802 157.89722 
L 353.622461 152.400152 
L 353.971121 141.875916 
L 354.31978 148.180352 
L 354.668439 150.542887 
L 355.017099 154.814704 
L 355.365758 146.787831 
L 356.063077 158.556195 
L 356.411737 155.402503 
L 356.760396 150.180349 
L 357.109056 159.25424 
L 357.457715 156.617821 
L 357.806375 159.382726 
L 358.155034 155.698851 
L 358.852353 163.02 
L 359.201013 156.9631 
L 359.549672 153.741939 
L 359.898332 141.753612 
L 360.246991 148.999861 
L 360.595651 150.845401 
L 360.94431 149.45448 
L 361.29297 149.363902 
L 361.641629 151.197625 
L 361.990289 149.577175 
L 362.338948 150.988047 
L 362.687608 151.725667 
L 363.036267 148.964919 
L 363.384927 150.636996 
L 363.733586 148.628859 
L 364.430905 154.812304 
L 364.779565 143.046506 
L 365.128224 138.871965 
L 365.476884 145.494311 
L 365.825543 149.048015 
L 366.174203 149.762474 
L 366.522862 145.308447 
L 366.871522 146.763262 
L 367.220181 151.223846 
L 367.568841 149.911047 
L 367.9175 152.563221 
L 368.26616 146.26231 
L 368.614819 155.018862 
L 368.963479 157.729037 
L 369.312138 141.124268 
L 369.660798 141.452384 
L 370.009457 151.222121 
L 370.358117 151.939419 
L 370.706776 148.257321 
L 371.055436 148.602754 
L 371.404095 155.868411 
L 371.752755 157.001708 
L 372.101414 147.481095 
L 372.450074 144.049803 
L 372.798733 158.647546 
L 373.147393 158.243148 
L 373.496052 156.058656 
L 373.844712 149.029929 
L 374.193371 152.727862 
L 374.542031 160.540275 
L 374.89069 153.132191 
L 375.23935 157.96234 
L 375.588009 147.258071 
L 376.285328 158.706964 
L 376.633988 148.970967 
L 376.982647 148.238755 
L 377.331307 155.522599 
L 377.679966 155.647061 
L 378.377285 148.862194 
L 378.725945 161.022837 
L 379.074604 152.292718 
L 379.423264 151.347428 
L 379.771923 148.813016 
L 380.120583 152.898156 
L 380.469242 151.54162 
L 380.817902 153.670138 
L 381.166561 157.972538 
L 381.515221 157.259711 
L 381.86388 143.483476 
L 382.21254 154.726304 
L 382.561199 154.502324 
L 382.909858 152.399978 
L 383.258518 152.335215 
L 383.607177 158.062071 
L 383.955837 157.519361 
L 384.304496 145.359858 
L 384.653156 147.421945 
L 385.001815 144.616551 
L 385.699134 144.663409 
L 386.047794 150.463309 
L 386.396453 148.107143 
L 387.093772 140.937582 
L 387.442432 152.035247 
L 387.791091 148.439979 
L 388.139751 148.280342 
L 388.83707 150.53574 
L 389.185729 150.686834 
L 389.534389 145.196098 
L 389.883048 144.570565 
L 390.231708 157.544062 
L 390.580367 155.6529 
L 390.929027 149.574684 
L 391.277686 149.070677 
L 391.626346 152.932004 
L 391.975005 155.093911 
L 392.323665 150.282834 
L 393.020984 148.915917 
L 393.369643 149.155076 
L 393.718303 152.274513 
L 394.066962 146.621802 
L 394.415622 151.067834 
L 394.764281 150.32364 
L 395.4616 142.725004 
L 395.81026 149.058542 
L 396.158919 150.000422 
L 396.507579 143.005034 
L 396.856238 147.826637 
L 397.204898 149.119283 
L 397.553557 148.000926 
L 397.902217 150.491957 
L 398.250876 145.246819 
L 398.599536 150.145722 
L 398.948195 143.085403 
L 399.296855 140.130808 
L 399.994174 146.155567 
L 400.342833 153.639636 
L 400.691493 146.226193 
L 401.040152 144.994893 
L 401.388812 145.781908 
L 402.086131 151.025511 
L 402.43479 151.78251 
L 402.78345 152.963218 
L 403.132109 142.888597 
L 403.829428 152.23311 
L 404.178088 144.310324 
L 404.526747 151.555699 
L 404.875407 151.4125 
L 405.224066 147.08701 
L 405.572726 139.950996 
L 405.921385 148.053585 
L 406.270045 147.682792 
L 406.618704 149.747998 
L 406.967364 144.57979 
L 407.316023 151.296734 
L 407.664683 149.546885 
L 408.362002 143.433536 
L 408.710661 145.158265 
L 409.059321 145.950434 
L 409.40798 144.289309 
L 409.75664 143.855554 
L 410.105299 145.869073 
L 410.802618 141.593257 
L 411.151277 149.362545 
L 411.499937 148.260411 
L 411.848596 147.651685 
L 412.197256 146.585768 
L 412.545915 146.366668 
L 412.894575 150.398828 
L 413.243234 147.30556 
L 413.591894 149.312081 
L 413.940553 149.06191 
L 414.289213 149.098181 
L 414.637872 148.01295 
L 415.335191 142.90809 
L 415.683851 146.483477 
L 416.03251 147.112523 
L 416.729829 154.252226 
L 417.078489 145.14594 
L 417.427148 153.46286 
L 418.124467 154.448415 
L 418.473127 156.538325 
L 418.821786 149.557026 
L 419.170446 149.371616 
L 419.519105 149.873918 
L 419.867765 150.688262 
L 420.216424 144.093117 
L 420.565084 145.439383 
L 420.913743 147.512984 
L 421.262403 154.208576 
L 421.611062 147.992385 
L 421.959722 146.50725 
L 422.308381 150.49572 
L 422.657041 152.329935 
L 423.0057 149.455887 
L 423.35436 148.169317 
L 423.703019 147.877938 
L 424.051679 149.036266 
L 424.400338 149.469765 
L 424.748998 148.306741 
L 425.097657 149.041595 
L 425.446317 146.822418 
L 425.794976 149.531345 
L 426.143636 145.661909 
L 426.492295 153.388521 
L 426.840955 147.704082 
L 427.189614 146.646072 
L 427.886933 152.842942 
L 428.235593 145.061727 
L 428.584252 141.421507 
L 428.932912 145.702758 
L 429.281571 144.698409 
L 429.630231 147.007298 
L 429.97889 150.343192 
L 430.32755 150.764406 
L 431.024869 145.529392 
L 431.373528 145.597188 
L 431.722188 145.083502 
L 432.070847 152.98337 
L 432.419507 148.121844 
L 432.768166 150.095625 
L 433.116826 149.641395 
L 433.465485 147.513829 
L 433.814145 150.942363 
L 434.162804 148.393947 
L 434.511464 149.337489 
L 434.860123 151.098919 
L 435.208783 147.864635 
L 435.557442 151.115352 
L 436.254761 151.942703 
L 436.603421 141.280372 
L 436.95208 147.368865 
L 437.30074 151.201918 
L 437.649399 150.686817 
L 437.998058 145.503975 
L 438.346718 143.072558 
L 439.044037 155.982893 
L 439.392696 153.672689 
L 439.741356 148.713269 
L 440.090015 147.199911 
L 440.438675 143.509988 
L 440.787334 149.62676 
L 441.135994 146.883696 
L 441.484653 150.356085 
L 441.833313 146.764358 
L 442.181972 147.701889 
L 442.530632 151.219551 
L 442.879291 150.828388 
L 443.227951 152.455831 
L 443.57661 145.727015 
L 443.92527 145.304176 
L 444.273929 151.868722 
L 444.622589 144.156552 
L 445.319908 153.419667 
L 445.668567 147.545417 
L 446.017227 148.995437 
L 446.714546 147.167457 
L 447.411865 150.329034 
L 447.760524 147.56544 
L 448.109184 155.474295 
L 448.457843 152.806346 
L 448.806503 157.851041 
L 449.155162 159.01835 
L 449.503822 151.764923 
L 449.852481 153.271415 
L 450.201141 158.436115 
L 450.5498 159.013619 
L 450.89846 160.366017 
L 451.247119 153.768908 
L 451.595779 152.559049 
L 451.944438 155.176957 
L 452.293098 153.286922 
L 452.641757 146.528927 
L 452.990417 143.330562 
L 453.339076 145.768199 
L 453.687736 151.332206 
L 454.036395 154.227049 
L 454.733714 147.706276 
L 455.082374 146.881181 
L 455.431033 150.679613 
L 455.779693 148.8895 
L 456.128352 149.353991 
L 456.477012 146.706778 
L 456.825671 152.05829 
L 457.174331 151.164118 
L 457.52299 147.628415 
L 457.87165 156.813914 
L 458.220309 155.458312 
L 458.568969 151.401691 
L 458.917628 144.075557 
L 459.266288 150.829465 
L 459.614947 154.420533 
L 459.963607 150.025797 
L 460.312266 147.857888 
L 460.660926 149.600714 
L 461.009585 153.58658 
L 461.358245 148.503183 
L 462.055564 150.583408 
L 462.404223 148.04098 
L 462.752883 152.538898 
L 463.101542 150.353384 
L 463.450202 145.132408 
L 463.798861 144.057838 
L 464.147521 151.262498 
L 464.49618 152.96745 
L 464.84484 142.40589 
L 465.193499 143.72494 
L 465.542158 149.255018 
L 465.890818 150.376907 
L 466.239477 146.314209 
L 466.588137 147.845421 
L 466.936796 152.615764 
L 467.285456 148.964279 
L 467.634115 141.692387 
L 467.982775 148.867351 
L 468.331434 150.37801 
L 468.680094 149.781132 
L 469.028753 148.25669 
L 469.377413 147.498497 
L 469.726072 152.053096 
L 470.074732 155.086889 
L 470.423391 148.754277 
L 470.772051 148.618033 
L 471.12071 152.823942 
L 471.46937 154.286951 
L 471.818029 148.845166 
L 472.166689 152.722956 
L 472.515348 151.86634 
L 472.864008 148.616222 
L 473.212667 147.961253 
L 473.561327 148.399778 
L 473.909986 146.585208 
L 474.258646 140.780641 
L 474.607305 147.78716 
L 474.955965 148.592779 
L 475.304624 148.94659 
L 475.653284 145.617094 
L 476.001943 152.030426 
L 476.350603 147.260955 
L 476.699262 145.02659 
L 477.047922 149.368761 
L 477.396581 145.907692 
L 477.745241 151.084163 
L 478.0939 147.634328 
L 478.44256 148.797509 
L 478.791219 151.776384 
L 479.139879 147.303398 
L 479.488538 149.226521 
L 479.837198 148.743896 
L 480.185857 149.128498 
L 480.534517 152.080801 
L 480.534517 152.080801 
" clip-path="url(#p79dfba653d)" style="fill: none; stroke: #1f77b4; stroke-opacity: 0.8; stroke-width: 1.5; stroke-linecap: square"/>
   </g>
   <g id="patch_8">
    <path d="M 297.854375 170.44 
L 297.854375 7.2 
" style="fill: none; stroke: #000000; stroke-width: 0.8; stroke-linejoin: miter; stroke-linecap: square"/>
   </g>
   <g id="patch_9">
    <path d="M 489.233571 170.44 
L 489.233571 7.2 
" style="fill: none; stroke: #000000; stroke-width: 0.8; stroke-linejoin: miter; stroke-linecap: square"/>
   </g>
   <g id="patch_10">
    <path d="M 297.854375 170.44 
L 489.233571 170.44 
" style="fill: none; stroke: #000000; stroke-width: 0.8; stroke-linejoin: miter; stroke-linecap: square"/>
   </g>
   <g id="patch_11">
    <path d="M 297.854375 7.2 
L 489.233571 7.2 
" style="fill: none; stroke: #000000; stroke-width: 0.8; stroke-linejoin: miter; stroke-linecap: square"/>
   </g>
  </g>
  <g id="legend_1">
   <g id="line2d_85">
    <path d="M 212.685134 225.498438 
L 222.685134 225.498438 
L 232.685134 225.498438 
" style="fill: none; stroke: #1f77b4; stroke-opacity: 0.8; stroke-width: 1.5; stroke-linecap: square"/>
   </g>
   <g id="text_25">
    <!-- IBVI MLP -->
    <g transform="translate(240.685134 228.998438) scale(0.1 -0.1)">
     <defs>
      <path id="DejaVuSans-49" d="M 628 4666 
L 1259 4666 
L 1259 0 
L 628 0 
L 628 4666 
z
" transform="scale(0.015625)"/>
      <path id="DejaVuSans-42" d="M 1259 2228 
L 1259 519 
L 2272 519 
Q 2781 519 3026 730 
Q 3272 941 3272 1375 
Q 3272 1813 3026 2020 
Q 2781 2228 2272 2228 
L 1259 2228 
z
M 1259 4147 
L 1259 2741 
L 2194 2741 
Q 2656 2741 2882 2914 
Q 3109 3088 3109 3444 
Q 3109 3797 2882 3972 
Q 2656 4147 2194 4147 
L 1259 4147 
z
M 628 4666 
L 2241 4666 
Q 2963 4666 3353 4366 
Q 3744 4066 3744 3513 
Q 3744 3084 3544 2831 
Q 3344 2578 2956 2516 
Q 3422 2416 3680 2098 
Q 3938 1781 3938 1306 
Q 3938 681 3513 340 
Q 3088 0 2303 0 
L 628 0 
L 628 4666 
z
" transform="scale(0.015625)"/>
      <path id="DejaVuSans-56" d="M 1831 0 
L 50 4666 
L 709 4666 
L 2188 738 
L 3669 4666 
L 4325 4666 
L 2547 0 
L 1831 0 
z
" transform="scale(0.015625)"/>
      <path id="DejaVuSans-50" d="M 1259 4147 
L 1259 2394 
L 2053 2394 
Q 2494 2394 2734 2622 
Q 2975 2850 2975 3272 
Q 2975 3691 2734 3919 
Q 2494 4147 2053 4147 
L 1259 4147 
z
M 628 4666 
L 2053 4666 
Q 2838 4666 3239 4311 
Q 3641 3956 3641 3272 
Q 3641 2581 3239 2228 
Q 2838 1875 2053 1875 
L 1259 1875 
L 1259 0 
L 628 0 
L 628 4666 
z
" transform="scale(0.015625)"/>
     </defs>
     <use xlink:href="#DejaVuSans-49"/>
     <use xlink:href="#DejaVuSans-42" transform="translate(29.492188 0)"/>
     <use xlink:href="#DejaVuSans-56" transform="translate(94.970703 0)"/>
     <use xlink:href="#DejaVuSans-49" transform="translate(163.378906 0)"/>
     <use xlink:href="#DejaVuSans-20" transform="translate(192.871094 0)"/>
     <use xlink:href="#DejaVuSans-4d" transform="translate(224.658203 0)"/>
     <use xlink:href="#DejaVuSans-4c" transform="translate(310.9375 0)"/>
     <use xlink:href="#DejaVuSans-50" transform="translate(366.650391 0)"/>
    </g>
   </g>
  </g>
 </g>
 <defs>
  <clipPath id="p4bb7c8be98">
   <rect x="51.378125" y="7.2" width="191.379196" height="163.24"/>
  </clipPath>
  <clipPath id="p79dfba653d">
   <rect x="297.854375" y="7.2" width="191.379196" height="163.24"/>
  </clipPath>
 </defs>
</svg>
