<svg width="103" height="36" viewBox="0 0 103 36" fill="none" xmlns="http://www.w3.org/2000/svg">
    <path d="M46.4062 10.9648V23.5625H43.5938V8.93359H46.2012L46.4062 10.9648ZM53.0957 14.0996V14.3047C53.0957 15.0729 53.0046 15.7858 52.8223 16.4434C52.6465 17.1009 52.3861 17.6738 52.041 18.1621C51.696 18.6439 51.2663 19.0215 50.752 19.2949C50.2441 19.5618 49.6582 19.6953 48.9941 19.6953C48.3496 19.6953 47.7897 19.5651 47.3145 19.3047C46.8392 19.0443 46.4388 18.6797 46.1133 18.2109C45.7943 17.7357 45.5371 17.1855 45.3418 16.5605C45.1465 15.9355 44.9967 15.265 44.8926 14.5488V14.0117C44.9967 13.2435 45.1465 12.5404 45.3418 11.9023C45.5371 11.2578 45.7943 10.7012 46.1133 10.2324C46.4388 9.75716 46.8359 9.38932 47.3047 9.12891C47.7799 8.86849 48.3366 8.73828 48.9746 8.73828C49.6452 8.73828 50.2344 8.86523 50.7422 9.11914C51.2565 9.37305 51.6862 9.73763 52.0312 10.2129C52.3828 10.6882 52.6465 11.2546 52.8223 11.9121C53.0046 12.5697 53.0957 13.2988 53.0957 14.0996ZM50.2734 14.3047V14.0996C50.2734 13.6504 50.2344 13.237 50.1562 12.8594C50.0846 12.4753 49.9674 12.14 49.8047 11.8535C49.6484 11.5671 49.4401 11.3457 49.1797 11.1895C48.9258 11.0267 48.6165 10.9453 48.252 10.9453C47.8678 10.9453 47.5391 11.0072 47.2656 11.1309C46.9987 11.2546 46.7806 11.4336 46.6113 11.668C46.4421 11.9023 46.3151 12.1823 46.2305 12.5078C46.1458 12.8333 46.0938 13.2012 46.0742 13.6113V14.9688C46.1068 15.4505 46.1979 15.8835 46.3477 16.2676C46.4974 16.6452 46.7285 16.9447 47.041 17.166C47.3535 17.3874 47.7637 17.498 48.2715 17.498C48.6426 17.498 48.9551 17.4167 49.209 17.2539C49.4629 17.0846 49.668 16.8535 49.8242 16.5605C49.987 16.2676 50.1009 15.929 50.166 15.5449C50.2376 15.1608 50.2734 14.7474 50.2734 14.3047ZM57.8613 18.3086L60.6641 8.93359H63.6816L59.4336 21.0918C59.3424 21.3587 59.2188 21.6452 59.0625 21.9512C58.9128 22.2572 58.7077 22.5469 58.4473 22.8203C58.1934 23.1003 57.8711 23.3281 57.4805 23.5039C57.0964 23.6797 56.6243 23.7676 56.0645 23.7676C55.7975 23.7676 55.5794 23.7513 55.4102 23.7188C55.2409 23.6862 55.0391 23.6406 54.8047 23.582V21.5215C54.8763 21.5215 54.9512 21.5215 55.0293 21.5215C55.1074 21.528 55.1823 21.5312 55.2539 21.5312C55.625 21.5312 55.9277 21.4889 56.1621 21.4043C56.3965 21.3197 56.5853 21.1895 56.7285 21.0137C56.8717 20.8444 56.9857 20.623 57.0703 20.3496L57.8613 18.3086ZM56.6895 8.93359L58.9844 16.5898L59.3848 19.5684L57.4707 19.7734L53.6719 8.93359H56.6895ZM67.6172 11.1211V19.5H64.7949V8.93359H67.4414L67.6172 11.1211ZM67.2266 13.8457H66.4453C66.4453 13.11 66.5332 12.4329 66.709 11.8145C66.8913 11.1895 67.1549 10.6491 67.5 10.1934C67.8516 9.73112 68.2845 9.37305 68.7988 9.11914C69.3132 8.86523 69.9089 8.73828 70.5859 8.73828C71.0547 8.73828 71.4844 8.8099 71.875 8.95312C72.2656 9.08984 72.6009 9.30794 72.8809 9.60742C73.1673 9.90039 73.3887 10.2845 73.5449 10.7598C73.7012 11.2285 73.7793 11.7917 73.7793 12.4492V19.5H70.9668V12.7617C70.9668 12.2799 70.9017 11.9089 70.7715 11.6484C70.6413 11.388 70.4557 11.2057 70.2148 11.1016C69.9805 10.9974 69.6973 10.9453 69.3652 10.9453C69.0007 10.9453 68.6816 11.0202 68.4082 11.1699C68.1413 11.3197 67.9199 11.528 67.7441 11.7949C67.5684 12.0553 67.4382 12.3613 67.3535 12.7129C67.2689 13.0645 67.2266 13.4421 67.2266 13.8457ZM73.5156 13.5234L72.5098 13.6504C72.5098 12.9603 72.5944 12.319 72.7637 11.7266C72.9395 11.1341 73.1966 10.6133 73.5352 10.1641C73.8802 9.71484 74.3066 9.36654 74.8145 9.11914C75.3223 8.86523 75.9082 8.73828 76.5723 8.73828C77.0801 8.73828 77.5423 8.81315 77.959 8.96289C78.3757 9.10612 78.7305 9.33724 79.0234 9.65625C79.3229 9.96875 79.5508 10.3789 79.707 10.8867C79.8698 11.3945 79.9512 12.0163 79.9512 12.752V19.5H77.1289V12.752C77.1289 12.2637 77.0638 11.8926 76.9336 11.6387C76.8099 11.3783 76.6276 11.1992 76.3867 11.1016C76.1523 10.9974 75.8724 10.9453 75.5469 10.9453C75.2083 10.9453 74.9121 11.0137 74.6582 11.1504C74.4043 11.2806 74.1927 11.4629 74.0234 11.6973C73.8542 11.9316 73.7272 12.2051 73.6426 12.5176C73.5579 12.8236 73.5156 13.1589 73.5156 13.5234ZM87.832 17.1172V12.4102C87.832 12.0716 87.7767 11.7819 87.666 11.541C87.5553 11.2936 87.3828 11.1016 87.1484 10.9648C86.9206 10.8281 86.6243 10.7598 86.2598 10.7598C85.9473 10.7598 85.6771 10.8151 85.4492 10.9258C85.2214 11.0299 85.0456 11.1829 84.9219 11.3848C84.7982 11.5801 84.7363 11.8112 84.7363 12.0781H81.9238C81.9238 11.6289 82.028 11.2025 82.2363 10.7988C82.4447 10.3952 82.7474 10.0404 83.1445 9.73438C83.5417 9.42188 84.0137 9.17773 84.5605 9.00195C85.1139 8.82617 85.7324 8.73828 86.416 8.73828C87.2363 8.73828 87.9655 8.875 88.6035 9.14844C89.2415 9.42188 89.7428 9.83203 90.1074 10.3789C90.4785 10.9258 90.6641 11.6094 90.6641 12.4297V16.9512C90.6641 17.5306 90.6999 18.0059 90.7715 18.377C90.8431 18.7415 90.9473 19.0605 91.084 19.334V19.5H88.2422C88.1055 19.2135 88.0013 18.8555 87.9297 18.4258C87.8646 17.9896 87.832 17.5534 87.832 17.1172ZM88.2031 13.0645L88.2227 14.6562H86.6504C86.2793 14.6562 85.957 14.6986 85.6836 14.7832C85.4102 14.8678 85.1855 14.9883 85.0098 15.1445C84.834 15.2943 84.7038 15.4701 84.6191 15.6719C84.541 15.8737 84.502 16.0951 84.502 16.3359C84.502 16.5768 84.5573 16.7949 84.668 16.9902C84.7786 17.179 84.9382 17.3288 85.1465 17.4395C85.3548 17.5436 85.599 17.5957 85.8789 17.5957C86.3021 17.5957 86.6699 17.5111 86.9824 17.3418C87.2949 17.1725 87.5358 16.9642 87.7051 16.7168C87.8809 16.4694 87.972 16.235 87.9785 16.0137L88.7207 17.2051C88.6165 17.472 88.4733 17.7487 88.291 18.0352C88.1152 18.3216 87.8906 18.5918 87.6172 18.8457C87.3438 19.0931 87.015 19.2982 86.6309 19.4609C86.2467 19.6172 85.791 19.6953 85.2637 19.6953C84.5931 19.6953 83.9844 19.5618 83.4375 19.2949C82.8971 19.0215 82.4674 18.6471 82.1484 18.1719C81.8359 17.6901 81.6797 17.1432 81.6797 16.5312C81.6797 15.9779 81.7839 15.4863 81.9922 15.0566C82.2005 14.627 82.5065 14.2656 82.9102 13.9727C83.3203 13.6732 83.8314 13.4486 84.4434 13.2988C85.0553 13.1426 85.765 13.0645 86.5723 13.0645H88.2031ZM95.0977 8.93359L96.8457 12.1465L98.6426 8.93359H101.641L98.6523 14.0996L101.777 19.5H98.7695L96.8652 16.1016L94.9609 19.5H91.9531L95.0781 14.0996L92.0898 8.93359H95.0977Z" fill="#2C383E"/>
    <path d="M32.5 0C36.0899 0 39 2.91015 39 6.5V21.5C39 25.0898 36.0899 28 32.5 28H31.3281L31.2256 25.5H32.5L32.7061 25.4951C34.7512 25.3913 36.3913 23.7512 36.4951 21.7061L36.5 21.5V6.5C36.5 4.29086 34.7091 2.5 32.5 2.5H6.5C4.29086 2.5 2.5 4.29086 2.5 6.5V21.5L2.50488 21.7061C2.60865 23.7512 4.2488 25.3913 6.29395 25.4951L6.5 25.5H22.2588L26.5889 28H6.5C2.91015 28 4.0266e-08 25.0899 0 21.5V6.5C2.25497e-07 2.91015 2.91015 8.0532e-09 6.5 0H32.5Z" fill="#2F9872"/>
    <path d="M11.7639 22.94C10.5639 22.94 9.62391 22.5933 8.94391 21.9C8.27724 21.22 7.94391 20.34 7.94391 19.26V17.6C7.94391 17.04 7.87057 16.5867 7.72391 16.24C7.59057 15.88 7.38391 15.62 7.10391 15.46C6.82391 15.3 6.47724 15.22 6.06391 15.22V13.1C6.47724 13.1 6.82391 13.02 7.10391 12.86C7.38391 12.7 7.59057 12.4467 7.72391 12.1C7.87057 11.74 7.94391 11.28 7.94391 10.72V9.06C7.94391 7.98 8.27724 7.1 8.94391 6.42C9.62391 5.72667 10.5639 5.38 11.7639 5.38H12.9439V7.62C12.0506 7.59333 11.3972 7.72 10.9839 8C10.5839 8.26667 10.3839 8.71333 10.3839 9.34V10.9C10.3839 11.8467 10.1572 12.5933 9.70391 13.14C9.25057 13.6733 8.71724 13.9933 8.10391 14.1V14.18C8.73057 14.2867 9.26391 14.6133 9.70391 15.16C10.1572 15.7067 10.3839 16.46 10.3839 17.42V18.96C10.3839 19.6133 10.5839 20.08 10.9839 20.36C11.3972 20.64 12.0506 20.7667 12.9439 20.74V22.94H11.7639Z" fill="#2C383E"/>
    <path d="M27.2439 22.94H26.0639V20.74C26.9706 20.7667 27.6239 20.64 28.0239 20.36C28.4239 20.08 28.6239 19.6133 28.6239 18.96V17.42C28.6239 16.46 28.8439 15.7067 29.2839 15.16C29.7372 14.6133 30.2772 14.2867 30.9039 14.18V14.1C30.2906 13.9933 29.7572 13.6733 29.3039 13.14C28.8506 12.5933 28.6239 11.8467 28.6239 10.9V9.34C28.6239 8.71333 28.4239 8.26667 28.0239 8C27.6239 7.72 26.9706 7.59333 26.0639 7.62V5.38H27.2439C28.4572 5.38 29.3972 5.72667 30.0639 6.42C30.7306 7.1 31.0639 7.98 31.0639 9.06V10.72C31.0639 11.28 31.1306 11.74 31.2639 12.1C31.4106 12.4467 31.6239 12.7 31.9039 12.86C32.1839 13.02 32.5306 13.1 32.9439 13.1V15.22C32.5306 15.22 32.1839 15.3 31.9039 15.46C31.6239 15.62 31.4106 15.88 31.2639 16.24C31.1306 16.5867 31.0639 17.04 31.0639 17.6V19.26C31.0639 20.34 30.7306 21.22 30.0639 21.9C29.3972 22.5933 28.4572 22.94 27.2439 22.94Z" fill="#2C383E"/>
    <path d="M14.5293 19.5C14.4226 19.5 14.3266 19.4627 14.2413 19.388C14.1666 19.3133 14.1293 19.2173 14.1293 19.1V8.7C14.1293 8.58267 14.1666 8.48667 14.2413 8.412C14.3266 8.33733 14.4226 8.3 14.5293 8.3H16.0173C16.1773 8.3 16.2946 8.34267 16.3693 8.428C16.4546 8.51333 16.5133 8.57733 16.5453 8.62L19.4893 14.044L22.4653 8.62C22.4866 8.57733 22.5346 8.51333 22.6093 8.428C22.6946 8.34267 22.8173 8.3 22.9773 8.3H24.4653C24.5826 8.3 24.6786 8.33733 24.7533 8.412C24.828 8.48667 24.8653 8.58267 24.8653 8.7V19.1C24.8653 19.2173 24.828 19.3133 24.7533 19.388C24.6786 19.4627 24.5826 19.5 24.4653 19.5H22.8333C22.7266 19.5 22.636 19.4627 22.5613 19.388C22.4866 19.3133 22.4493 19.2173 22.4493 19.1V12.636L20.4173 16.444C20.364 16.54 20.2946 16.6253 20.2093 16.7C20.124 16.7747 20.012 16.812 19.8733 16.812H19.1213C18.9826 16.812 18.8706 16.7747 18.7853 16.7C18.7 16.6253 18.6306 16.54 18.5773 16.444L16.5453 12.636V19.1C16.5453 19.2173 16.508 19.3133 16.4333 19.388C16.3586 19.4627 16.268 19.5 16.1613 19.5H14.5293Z" fill="#2F9872"/>
    <mask id="mask0_3_238" style="mask-type:alpha" maskUnits="userSpaceOnUse" x="11" y="25" width="26" height="11">
    <rect x="11.5" y="25.5" width="25" height="10" fill="#D9D9D9"/>
    </mask>
    <g mask="url(#mask0_3_238)">
    <path d="M33.3539 21.0919L33.1508 29.8751L33.0395 34.6974L29.1625 31.8253L24.0121 28.0089L21.5912 26.216L23.4604 24.4816L30.7885 30.0001L30.9223 17.5587L33.4916 15.1779L33.3539 21.0919Z" fill="#2F9872"/>
    </g>
    </svg>
