<?xml version="1.0" encoding="UTF-8"?>
<svg xmlns="http://www.w3.org/2000/svg" viewBox="0 0 256 256" width="256" height="256">
  <defs>
    <linearGradient id="bg-gradient" x1="0%" y1="0%" x2="100%" y2="100%">
      <stop offset="0%" style="stop-color:#1f77b4;stop-opacity:1" />
      <stop offset="100%" style="stop-color:#0d4a6f;stop-opacity:1" />
    </linearGradient>
  </defs>

  <!-- Background circle -->
  <circle cx="128" cy="128" r="120" fill="url(#bg-gradient)" />

  <!-- Grid lines -->
  <g stroke="#ffffff" stroke-opacity="0.2" stroke-width="1">
    <line x1="40" y1="128" x2="216" y2="128" />
    <line x1="128" y1="40" x2="128" y2="216" />
    <line x1="40" y1="84" x2="216" y2="84" />
    <line x1="40" y1="172" x2="216" y2="172" />
    <line x1="84" y1="40" x2="84" y2="216" />
    <line x1="172" y1="40" x2="172" y2="216" />
  </g>

  <!-- Data points -->
  <g fill="#ffffff" fill-opacity="0.9">
    <circle cx="52" cy="180" r="6" />
    <circle cx="76" cy="165" r="6" />
    <circle cx="100" cy="140" r="6" />
    <circle cx="124" cy="110" r="6" />
    <circle cx="148" cy="90" r="6" />
    <circle cx="172" cy="78" r="6" />
    <circle cx="196" cy="72" r="6" />
  </g>

  <!-- Fitted curve (exponential decay-like) -->
  <path
    d="M 48,185 Q 90,155 128,105 Q 166,70 210,68"
    fill="none"
    stroke="#d62728"
    stroke-width="4"
    stroke-linecap="round"
  />

  <!-- Confidence band -->
  <path
    d="M 48,195 Q 90,165 128,118 Q 166,85 210,82
       L 210,54 Q 166,55 128,92 Q 90,145 48,175 Z"
    fill="#d62728"
    fill-opacity="0.2"
  />

  <!-- "NL" text for NLSQ -->
  <text
    x="128"
    y="230"
    text-anchor="middle"
    font-family="Arial, sans-serif"
    font-size="28"
    font-weight="bold"
    fill="#ffffff"
  >NLSQ</text>
</svg>
