<?xml version="1.0" encoding="UTF-8"?>
<svg xmlns="http://www.w3.org/2000/svg" viewBox="0 0 208.44 56.25">
  <defs>
    <style>
      .cls-1 {
        fill: #658c58;
      }
    </style>
  </defs>
  <g>
    <path class="cls-1" d="M0,6.72h12.73v8.64H0V6.72ZM0,18.24h12.67v31.61H0v-31.61Z"/>
    <path class="cls-1" d="M16.83,18.24h12.67l-.38,8.45h.13c1.47-5.5,4.93-8.96,11.97-8.96,7.81,0,11.97,4.42,11.97,12.35v19.77h-12.67v-16.58c0-3.46-1.86-4.99-4.99-4.99-3.71,0-6.02,2.24-6.02,6.85v14.72H16.83v-31.61Z"/>
    <path class="cls-1" d="M90.3,35.84h-21.31c.32,4.54,2.18,6.27,5.63,6.27,2.88,0,4.67-1.15,4.86-3.84h10.81c-.13,7.49-5.7,12.09-16.25,12.09-12.22,0-17.79-6.53-17.79-16,0-10.88,6.85-16.64,17.92-16.64,10.05,0,16.13,4.99,16.13,15.17v2.94ZM79.48,29.82c0-2.88-1.79-4.35-4.86-4.35s-4.86,1.41-5.44,5.18h10.3v-.83Z"/>
    <path class="cls-1" d="M93.69,18.24h12.67l-.38,8.83h.13c1.28-5.63,4.29-9.34,10.37-9.34,6.66,0,9.86,4.1,9.86,12.61,0,2.3-.19,5.5-.32,7.29h-10.88c.13-1.47.13-3.2.13-4.16,0-3.65-1.34-5.12-3.71-5.12-3.13,0-5.18,2.62-5.18,8.26v13.25H93.69v-31.61Z"/>
    <path class="cls-1" d="M132.47,38.72v-10.94h-4.35v-9.54h3.46c1.73,0,2.5-.83,2.69-3.13l.45-4.03h10.43v7.17h9.34v9.54h-9.34v9.73c0,2.62,1.22,3.46,4.8,3.46,1.47,0,3.33-.19,4.16-.38v9.09c-.96.26-3.84.7-7.3.7-10.62,0-14.33-4.48-14.33-11.65Z"/>
    <path class="cls-1" d="M157.95,6.72h12.74v8.64h-12.74V6.72ZM157.95,18.24h12.67v31.61h-12.67v-31.61Z"/>
    <path class="cls-1" d="M174.39,41.15c0-4.99,3.39-8.64,11.26-8.64h10.11v-2.3c0-2.94-1.54-4.22-4.86-4.22-2.82,0-4.35,1.28-4.35,3.46,0,.13,0,.64.06,1.28h-11.07c-.13-.64-.19-1.41-.19-2.11,0-6.72,5.31-10.88,16.19-10.88,11.46,0,16.89,5.12,16.89,13.5v18.62h-12.67c.19-1.34.38-4.03.38-6.02h-.06c-.96,3.97-4.1,6.53-9.98,6.53-7.81,0-11.71-3.78-11.71-9.21ZM195.77,38.46v-.83h-6.53c-2.11,0-3.33,1.02-3.33,2.56,0,1.92,1.54,3.01,4.1,3.01,3.58,0,5.76-1.73,5.76-4.74Z"/>
  </g>
</svg>
