<?xml version="1.0" encoding="UTF-8"?>
<svg id="Layer_2" data-name="Layer 2" xmlns="http://www.w3.org/2000/svg" viewBox="0 0 389.37 43.64">
  <defs>
    <style>
      .cls-1 {
        fill: #658c58;
      }
    </style>
  </defs>
  <g id="Layer_1-2" data-name="Layer 1">
    <g>
      <path d="M0,27.33C0,17.34,6.02,11.01,15.49,11.01c8.45,0,13.89,5.12,13.89,13.18h-4.74c-.06-5.25-3.58-8.58-9.09-8.58-6.34,0-10.43,4.54-10.43,11.71s3.97,11.71,10.11,11.71c5.76,0,9.47-3.26,9.54-8.45h4.74c0,7.94-5.63,13.05-14.4,13.05-9.22,0-15.1-6.33-15.1-16.32Z"/>
      <path d="M37.5,11.52h5.12l-.13,9.15h.06c1.47-5.5,4.74-9.66,11.52-9.66s10.88,4.74,10.88,12.35c0,2.18-.19,4.48-.32,5.63h-4.67c.13-.96.26-2.56.26-4.54,0-5.82-2.18-8.83-7.36-8.83-6.46,0-10.24,5.63-10.24,13.5v14.01h-5.12V11.52Z"/>
      <path d="M71.36,27.39c0-9.98,6.21-16.38,16-16.38s16,6.4,16,16.38-6.21,16.25-16,16.25-16-6.33-16-16.25ZM98.24,27.39c0-7.17-4.22-11.78-10.88-11.78s-10.88,4.61-10.88,11.78,4.22,11.65,10.88,11.65,10.88-4.54,10.88-11.65Z"/>
      <path d="M109.31,32.57h4.74c0,4.22,2.56,6.72,9.15,6.72s9.66-1.98,9.66-5.38c0-1.28-.38-2.5-1.98-3.26-1.47-.7-4.8-1.09-8.7-1.47-5.18-.45-8.32-1.09-10.24-2.5-1.73-1.28-2.62-3.58-2.62-5.89,0-5.95,5.44-9.79,13.89-9.79,9.47,0,13.44,4.16,13.44,11.26h-4.74c-.06-4.74-2.88-6.91-8.51-6.91s-8.96,1.98-8.96,5.12c0,1.28.19,2.82,2.05,3.58,1.54.64,4.67,1.02,8.83,1.47,4.93.51,7.36.96,9.54,2.18,2.11,1.22,3.13,3.65,3.13,6.02,0,6.21-5.12,9.92-14.72,9.92-10.62,0-13.95-4.99-13.95-11.07Z"/>
      <path d="M144.38,32.57h4.74c0,4.22,2.56,6.72,9.15,6.72s9.66-1.98,9.66-5.38c0-1.28-.38-2.5-1.98-3.26-1.47-.7-4.8-1.09-8.7-1.47-5.18-.45-8.32-1.09-10.24-2.5-1.73-1.28-2.62-3.58-2.62-5.89,0-5.95,5.44-9.79,13.89-9.79,9.47,0,13.44,4.16,13.44,11.26h-4.74c-.06-4.74-2.88-6.91-8.51-6.91s-8.96,1.98-8.96,5.12c0,1.28.19,2.82,2.05,3.58,1.54.64,4.67,1.02,8.83,1.47,4.93.51,7.36.96,9.54,2.18,2.11,1.22,3.14,3.65,3.14,6.02,0,6.21-5.12,9.92-14.72,9.92-10.62,0-13.95-4.99-13.95-11.07Z"/>
      <path class="cls-1" d="M180.93,0h12.74v8.64h-12.74V0ZM180.93,11.52h12.67v31.61h-12.67V11.52Z"/>
      <path class="cls-1" d="M197.76,11.52h12.67l-.38,8.45h.13c1.47-5.5,4.93-8.96,11.97-8.96,7.81,0,11.97,4.42,11.97,12.35v19.77h-12.67v-16.58c0-3.46-1.86-4.99-4.99-4.99-3.71,0-6.02,2.24-6.02,6.85v14.72h-12.67V11.52Z"/>
      <path class="cls-1" d="M271.23,29.12h-21.31c.32,4.54,2.18,6.27,5.63,6.27,2.88,0,4.67-1.15,4.86-3.84h10.82c-.13,7.49-5.7,12.09-16.25,12.09-12.22,0-17.79-6.53-17.79-16,0-10.88,6.85-16.64,17.92-16.64,10.05,0,16.13,4.99,16.13,15.17v2.94ZM260.41,23.1c0-2.88-1.79-4.35-4.86-4.35s-4.86,1.41-5.44,5.18h10.3v-.83Z"/>
      <path class="cls-1" d="M274.62,11.52h12.67l-.38,8.83h.13c1.28-5.63,4.29-9.34,10.37-9.34,6.66,0,9.86,4.1,9.86,12.61,0,2.3-.19,5.5-.32,7.29h-10.88c.13-1.47.13-3.2.13-4.16,0-3.65-1.34-5.12-3.71-5.12-3.14,0-5.18,2.62-5.18,8.26v13.25h-12.67V11.52Z"/>
      <path class="cls-1" d="M313.4,32v-10.94h-4.35v-9.54h3.46c1.73,0,2.5-.83,2.69-3.13l.45-4.03h10.43v7.17h9.34v9.54h-9.34v9.73c0,2.62,1.21,3.46,4.8,3.46,1.47,0,3.33-.19,4.16-.38v9.09c-.96.26-3.84.7-7.29.7-10.62,0-14.34-4.48-14.34-11.65Z"/>
      <path class="cls-1" d="M338.88,0h12.74v8.64h-12.74V0ZM338.88,11.52h12.67v31.61h-12.67V11.52Z"/>
      <path class="cls-1" d="M355.32,34.43c0-4.99,3.39-8.64,11.26-8.64h10.11v-2.3c0-2.94-1.54-4.22-4.86-4.22-2.82,0-4.35,1.28-4.35,3.46,0,.13,0,.64.06,1.28h-11.07c-.13-.64-.19-1.41-.19-2.11,0-6.72,5.31-10.88,16.19-10.88,11.46,0,16.89,5.12,16.89,13.5v18.62h-12.67c.19-1.34.38-4.03.38-6.02h-.06c-.96,3.97-4.1,6.53-9.98,6.53-7.81,0-11.71-3.78-11.71-9.21ZM376.7,31.74v-.83h-6.53c-2.11,0-3.33,1.02-3.33,2.56,0,1.92,1.54,3.01,4.1,3.01,3.58,0,5.76-1.73,5.76-4.74Z"/>
    </g>
  </g>
</svg>
