<svg xmlns="http://www.w3.org/2000/svg" width="18" height="20" viewBox="0 0 18 20" fill="none">
    <path
        d="M16.7752 4.26172L10.0877 0.399219C9.78769 0.224219 9.4002 0.136719 9.0002 0.136719C8.6002 0.136719 8.2127 0.224219 7.9127 0.399219L1.2252 4.26172C0.625195 4.59922 0.137695 5.44922 0.137695 6.13672V13.8617C0.137695 14.5492 0.625195 15.3867 1.2252 15.7367L7.9252 19.5992C8.22519 19.7742 8.6127 19.8617 9.0127 19.8617C9.4127 19.8617 9.8002 19.7742 10.1002 19.5992L16.8002 15.7367C17.4002 15.3867 17.8877 14.5492 17.8877 13.8617V6.13672C17.8877 5.44922 17.4002 4.59922 16.8002 4.26172H16.7752ZM9.0002 17.3492L2.6377 13.6742V6.32422L9.0002 2.64922L15.3627 6.32422V12.2242L11.5002 9.99922V9.07422C11.5002 8.74922 11.3252 8.46172 11.0502 8.29922L9.4502 7.37422C9.3127 7.29922 9.1502 7.24922 9.0002 7.24922C8.8502 7.24922 8.6877 7.28672 8.5502 7.37422L6.9502 8.29922C6.6752 8.46172 6.5002 8.76172 6.5002 9.07422V10.9242C6.5002 11.2492 6.6752 11.5367 6.9502 11.6992L8.5502 12.6242C8.6877 12.6992 8.8502 12.7492 9.0002 12.7492C9.1502 12.7492 9.3127 12.7117 9.4502 12.6242L10.2502 12.1617L14.1127 14.3867L9.0002 17.3367V17.3492Z"
        fill="white"
    ></path>
</svg>