<?xml version="1.0" standalone="no"?>
<!DOCTYPE svg PUBLIC "-//W3C//DTD SVG 20010904//EN"
 "http://www.w3.org/TR/2001/REC-SVG-20010904/DTD/svg10.dtd">
<svg version="1.0" xmlns="http://www.w3.org/2000/svg"
 width="16.000000pt" height="16.000000pt" viewBox="0 0 16.000000 16.000000"
 preserveAspectRatio="xMidYMid meet">
<metadata>
Created by potrace 1.11, written by Peter Selinger 2001-2013
</metadata>
<g transform="translate(0.000000,16.000000) scale(0.002312,-0.002312)"
fill="#000000" stroke="none">
<path d="M3425 6902 c-16 -10 -50 -30 -75 -44 -25 -14 -85 -49 -135 -78 -49
-29 -110 -64 -135 -78 -25 -13 -70 -39 -100 -57 -119 -71 -800 -463 -875 -505
-22 -12 -80 -46 -130 -75 -74 -43 -876 -506 -980 -565 -27 -15 -194 -112 -445
-257 l-85 -49 0 -1733 c0 -1723 0 -1734 20 -1745 11 -6 23 -15 26 -19 3 -5 8
-7 10 -6 2 2 15 -4 29 -13 14 -9 117 -69 230 -133 113 -65 219 -126 235 -135
17 -10 59 -34 95 -55 36 -21 77 -45 92 -54 16 -9 187 -107 380 -219 194 -112
360 -208 368 -213 8 -5 60 -35 115 -66 55 -31 143 -81 195 -111 93 -54 165
-96 239 -138 20 -11 52 -30 71 -41 19 -11 170 -98 335 -193 165 -95 317 -184
337 -197 21 -12 40 -23 42 -23 3 0 29 -14 58 -31 29 -18 68 -40 85 -50 l33
-18 57 31 c32 17 65 37 74 44 8 8 18 14 22 14 4 0 51 26 104 58 54 32 105 61
113 65 8 4 33 18 55 31 22 14 56 33 75 44 19 11 123 70 230 132 227 132 219
127 378 219 68 39 128 71 132 71 5 0 10 4 12 8 2 4 30 23 63 41 71 40 113 64
158 90 88 51 426 246 457 263 68 39 176 101 230 133 30 18 163 94 295 170 132
76 308 178 390 225 l150 87 0 1733 0 1733 -80 48 c-44 27 -86 48 -92 49 -7 0
-13 5 -13 10 0 6 -4 10 -9 10 -5 0 -67 34 -136 75 -70 41 -128 75 -130 75 -2
0 -95 53 -207 118 -111 65 -223 130 -248 144 -48 27 -60 34 -369 212 -112 65
-218 126 -235 136 -160 91 -474 272 -486 280 -8 5 -42 24 -75 43 -33 19 -76
43 -95 55 -180 104 -472 271 -502 287 -21 11 -38 23 -38 27 0 5 -4 8 -8 8 -5
0 -68 34 -140 75 -72 41 -133 75 -134 75 -2 0 -16 -8 -33 -18z"/>
</g>
</svg>
