<svg width="200" height="200" xmlns="http://www.w3.org/2000/svg"><path style="fill:#b9b9b9;fill-opacity:1" d="M45.4 127.1zm69.1 0zM78.3 16.7z" transform="translate(34.2 18.3) scale(.57902)"/><path style="fill:#a3a3a3;fill-opacity:1" d="m83.7 30.7-9-.2h8.9a54.3 54.3 0 0 1 9.1.5l-9-.3Z" transform="translate(34.2 18.3) scale(.57902)"/><path style="fill:#8c8c8c;fill-opacity:1" d="M77.7 279.1zm-48.1-138V85.5a45798 45798 0 0 1 0 55.6zm168-.1V85.7a45398.3 45398.3 0 0 1 0 55.3zM41.9 16.7h.6c0 .2-.1.2-.4.2-.4 0-.5 0-.2-.2zm143 0h.6c.1.2 0 .2-.4.2s-.5 0-.2-.2z" transform="translate(34.2 18.3) scale(.57902)"/><path style="fill:#767676;fill-opacity:1" d="M29.5 252.6c0-.4 0-.4.2-.2v.6c-.2.1-.2 0-.2-.4zm168-.6c0-.4 0-.5.2-.2v.6c-.2.1-.2 0-.2-.4zm0-222.1c0-.4 0-.5.2-.2v.6c-.2.1-.2 0-.2-.4zm-168-.3c0-.4 0-.5.2-.2v.6c-.2.1-.2 0-.2-.4z" transform="translate(34.2 18.3) scale(.57902)"/><path style="fill:#606060;fill-opacity:1" d="M74.2 101.8z" transform="translate(34.2 18.3) scale(.57902)"/><path style="fill:#494949;fill-opacity:1" d="M78.3 265.4zm-62.6-12.6c0-.4.1-.6.2-.4v.8c-.1.2-.2 0-.2-.4zm195.6-.6c0-.7 0-1 .1-.6v1.1l-.1-.5zm0-222.4c0-.7 0-1 .1-.6v1.1l-.1-.5zm-195.6-.5c0-.4.1-.5.2-.2v.6c-.1 0-.2-.1-.2-.4z" transform="translate(34.2 18.3) scale(.57902)"/><path style="fill:#333;fill-opacity:1" d="M38 278.8c-9.2-1.1-15.8-5.3-19-12-1.7-3.3-2.6-7-3-12-.4-5.6-.4-222 0-227.5.4-4.9 1.2-8.3 2.7-11.5C22.3 8.2 28.9 4.2 39.3 3.2c4.7-.4 144-.4 148.6 0 10.2 1 16.8 5 20.4 12.3 1.9 3.7 2.5 6.8 3 13 .1 3.4.2 44 .1 116.6 0 122.4 0 113-2 118.8a21.4 21.4 0 0 1-15.7 14.1l-3.1.9H37.9zm151-14c2.4-.7 5-2.4 6.2-4a19 19 0 0 0 1.7-3.5l.7-2.1V142.4c.1-78.8 0-113.5-.2-115-.9-6-4.5-9.6-10.3-10.5-1.2-.2-29.2-.2-75-.2-71 .1-73 .1-74.5.7-4.5 1.8-7 4.9-7.8 9.8-.5 2.9-.5 225 0 227.8 1 6.1 4.7 9.6 11.1 10.3 1.4.1 34.8.2 74.3.2 67.9 0 72-.1 73.8-.6zm-78-39L87.6 196l-.6-.8 23.6-30.3a376.3 376.3 0 0 1 24-29.8c.1.3 10.7 13.9 23.4 30.3l23.2 29.8-1.8 2.3c-7.2 9.3-45 57-45.2 57.1-.1 0-10.6-13-23.2-28.9zM44.3 119l16.6-48 13.8-40.2 8.9-.1h8.8l.3.8c.8 1.8 32.7 94.9 32.7 95.1 0 .2-3 .3-7.4.3h-7.4l-2.7-8.7-4-12.6-1.2-4-19.1.1-19.1.1-3.9 12.5-3.9 12.5h-7.5l-7.6.2zm54.5-28c-.2-1.1-15.1-48.6-15.3-48.7-.1 0-15 47.2-15.3 48.6l-.1.7h15.4c15.2 0 15.4 0 15.3-.6z" transform="translate(34.2 18.3) scale(.57902)"/><path style="fill:#fff;fill-rule:evenodd;stroke:#000;stroke-width:.00514511;stroke-miterlimit:7.9;paint-order:markers stroke fill" d="M58.3 171.8c-3.6-.2-5.8-1.9-6.6-5-.2-.8-.2-5.4-.2-66.8 0-62 0-66 .2-66.7.6-2 1.7-3.6 3.5-4.4a5 5 0 0 1 2.1-.6c.9-.1 14.7-.2 43.3-.2 40.4 0 42 0 42.8.3 2.5.7 4.1 2.3 4.9 4.8l.3 1V166l-.2.7a8.1 8.1 0 0 1-2 3.3c-.7.7-2.3 1.6-3.2 1.7-.9.2-82.6.3-84.9.1zm55.6-8.4a2148 2148 0 0 0 25.3-32c0-.2-27-34.8-27.1-34.8-.3-.1-2.3 2.3-24.3 30.6-3 3.8-3.3 4.2-3.1 4.4L92 141a510.5 510.5 0 0 0 19.9 24.7l2-2.3zM67 92c.2-.1.4-.6 2.5-7.3l2.2-7.2h22.1v.3L96 85l2.2 6.9h1c2.5.2 7.4.1 7.7-.1l-6-17.5a16793 16793 0 0 0-13-38.1c.1-.2-1.4-.3-5.7-.3a40 40 0 0 0-4.2.1l.5.1h-1.1l-.3 1.2a33823.8 33823.8 0 0 1-18.8 54.6h8.5z"/><path style="fill:#fff;fill-rule:evenodd;stroke:#000;stroke-width:.0102902;stroke-miterlimit:7.9;paint-order:markers stroke fill" d="M56.6 171.5a6.6 6.6 0 0 1-3.7-2.4c-1.5-2-1.4 2.5-1.3-69.6V33l.7-1.3a7.2 7.2 0 0 1 3-3c.8-.4 3.7-.4 44.7-.4h43.8l1 .5c1.3.8 2.4 2 3.1 3.5l.6 1.2v66.1l.1 66.1-.6 1.7a6.4 6.4 0 0 1-3.6 3.8l-1.1.5h-42.7a693 693 0 0 1-44-.3zm57.8-8.6 18.4-23.2c6-7.6 6.4-8.2 6.1-8.7-.6-1-26.7-34.5-26.8-34.5-.4 0-3.9 4.3-18 22.6-5.2 6.6-9.5 12.1-9.5 12.3 0 .3 7.3 9.6 19.3 24.5a1906.8 1906.8 0 0 1 8 9.8c.2 0 1.3-1.3 2.5-2.8zM67.1 91.7l2.4-7.2 2.1-6.8 11-.2h11L98 91.8c0 .2 8.7 0 8.8-.1A1374.6 1374.6 0 0 0 88 36.3a37 37 0 0 0-10.5 0 6526 6526 0 0 0-19.2 55.6h4.3c3.2 0 4.4 0 4.5-.2z"/><path style="fill:#fff;fill-rule:evenodd;stroke:#000;stroke-width:.0102902;stroke-miterlimit:7.9;paint-order:markers stroke fill" d="M74 71c0-.4 5.7-18.9 7.6-24.8l1-2.9 1.9 5.9L88.8 63l2.5 8-2.1.1a192.3 192.3 0 0 1-15.3-.1z"/></svg>