<svg width="200" height="200" xmlns="http://www.w3.org/2000/svg"><g transform="translate(100 100) scale(.24024)"><circle r="333" style="fill:#fcfcfc;stroke:none"/><circle r="165" style="fill:none;stroke:#111;stroke-width:31.6624"/><circle r="26" style="fill:#a518c9"/><path d="M250 0H51m126 177L36 36M0 250V51m-177 126L-36 36M-250 0h199m-126-177L-36-36M0-250v199m177-126L36-36" style="stroke:#111;stroke-width:31.6624"/><path d="m264-53 69 53-69 53zm-40 203 11 85-85-11zM53 264 0 333l-53-69Zm-203-40-85 11 11-85zM-264 53l-69-53 69-53zm40-203-11-85 85 11zm171-114 53-69 53 69zm203 40 85-11-11 85z" style="fill:#111"/></g></svg>