<svg width="200" height="200" viewBox="0 0 44.444 44.444" xmlns="http://www.w3.org/2000/svg"><defs><linearGradient id="a" y1="40" x1="43" y2="4" x2="13" gradientUnits="userSpaceOnUse"><stop stop-color="#f27935"/><stop offset="1" stop-color="#f2784b"/></linearGradient><linearGradient id="b" y1="27.13" x1="24.13" y2="41" x2="38" gradientUnits="userSpaceOnUse"><stop stop-color="#292c2f"/><stop offset="1" stop-opacity="0"/></linearGradient></defs><g stroke-linejoin="round" stroke-width="6"><path fill="url(#a)" d="M11 4C9.338 4 8 5.338 8 7v22.08a8 8 0 0 0-4 6.916 8 8 0 0 0 8 8 8 8 0 0 0 6.92-4H41c1.662 0 3-1.338 3-3v-30c0-1.662-1.338-3-3-3z" style="fill:url(#a)" transform="matrix(.88889 0 0 .8888 .889 .893)"/><path opacity=".2" fill="url(#b)" d="M26 21.75 12 20l6 6-6 2 12 12h17c1.662 0 2-1.25 2-1.25zM14.828 33.172l-5.656 5.656 4.889 4.891A7.998 7.998 0 0 0 18.92 40h2.738z" style="fill:url(#b)" transform="matrix(.88889 0 0 .8888 .889 .893)"/><path fill="#b86333" d="M4.465 32.435a7.111 7.11 0 0 0-.02.455 7.111 7.11 0 0 0 7.11 7.11 7.111 7.11 0 0 0 6.152-3.555h19.626A2.66 2.66 0 0 0 40 33.778v-.888a2.66 2.66 0 0 1-2.667 2.666H17.707a7.111 7.11 0 0 1-6.151 3.555 7.111 7.11 0 0 1-7.09-6.676"/><path fill="#fff" d="M11.556 15.114v3.555c7.855 0 14.222 6.366 14.222 14.22h3.555c0-9.82-7.959-17.775-17.777-17.775m0 7.11v3.555a7.111 7.111 0 0 1 7.11 7.11h3.556c0-5.89-4.776-10.665-10.666-10.665m0 7.11a3.556 3.556 0 1 0 0 7.111 3.556 3.556 0 0 0 0-7.11"/></g></svg>