<svg width="200" height="200" viewBox="0 0 52.917 52.917" xmlns="http://www.w3.org/2000/svg"><defs><linearGradient id="a" x1="25" x2="25" y1="3" y2="42.605" gradientTransform="scale(.26458)" gradientUnits="userSpaceOnUse"><stop stop-color="#f39c1f" offset="0"/><stop stop-color="#f67400" offset="1"/></linearGradient><linearGradient id="b" x1="4.841" x2="9.417" y1="5.997" y2="10.573" gradientUnits="userSpaceOnUse"><stop offset="0"/><stop stop-color="#05221c" stop-opacity="0" offset="1"/></linearGradient><linearGradient id="c" x1="19.17" x2="19.17" y1="43" y2="1.831" gradientTransform="translate(.003)" gradientUnits="userSpaceOnUse"><stop stop-color="#16a085" offset="0"/><stop stop-color="#1cdc9a" offset="1"/></linearGradient><linearGradient id="d" x1="19.17" x2="40.893" y1="43" y2="-13.595" gradientUnits="userSpaceOnUse"><stop stop-color="#1abc9c" offset="0"/><stop stop-color="#eff0f1" offset="1"/></linearGradient><radialGradient id="e" cx="19.473" cy="10.657" r=".981" gradientTransform="matrix(.72785 0 0 .72858 -9.276 -5.02)" gradientUnits="userSpaceOnUse"><stop stop-color="#16a085" offset="0"/><stop stop-color="#16a085" stop-opacity="0" offset="1"/></radialGradient></defs><g stroke-width=".265" transform="matrix(4 0 0 4 1.058 1.058)"><rect x="1.058" y="1.058" width="10.583" height="10.583" rx="1.587" ry="1.587" fill="#d35400" style="paint-order:stroke fill markers"/><rect x="1.058" y="1.058" width="10.583" height="10.319" rx="1.587" ry="1.587" fill="url(#a)" style="fill:url(#a);paint-order:stroke fill markers"/><path transform="scale(.26458)" d="M4 37v1c0 3.324 2.676 6 6 6h4.672l1-1H10c-3.324 0-6-2.676-6-6Z" fill="#11806b" style="paint-order:fill markers stroke"/><path d="m5.867 2.524-3.44 7.252-1.063.949a1.58 1.58 0 0 0 1.282.652h7.408c.88 0 1.588-.708 1.588-1.587V8.299Z" fill="url(#b)" opacity=".1" style="fill:url(#b);paint-order:fill markers stroke"/><path transform="scale(.26458)" d="M21.29 22.203a22.458 22.458 0 0 1 7.747 9.287l3.342-.894a22.464 22.464 0 0 0-11.09-8.393Zm-.173-8.721-1.006 3.752a22.448 22.448 0 0 1 13.778 5.35 22.46 22.46 0 0 0-12.772-9.102z" fill="#fff" style="paint-order:fill markers stroke"/><path d="m8.15 8.91-.207.12a5.94 5.94 0 0 0-2.31-3.155c1.421.544 2.3 2.448 2.517 3.035z" fill="#eff0f1" style="paint-order:fill markers stroke"/><path transform="scale(.26458)" d="M18.322 8.541a1.645 1.645 0 0 0-1.69 1.219l-.312 1.166a1.64 1.64 0 0 0 .297 1.44l-.006.003c.297.39.42.904.285 1.416v.006l-.062.23-.018.065-1.123 4.191-.033.123-.26.97c-.901 2.029-1.985 2.838-3.898 2.63a4.5 4.5 0 0 0-4.332 5.717 4.088 4.088 0 0 1-.951 3.617l-2.217 2.217V37a5.94 5.94 0 0 0 .313 1.908 5.967 5.967 0 0 0 .307.74c.017.036.032.073.05.108.117.226.245.444.389.652l.011.016a5.988 5.988 0 0 0 .545.67c.155.165.316.323.488.47l.04.034c.193.162.396.31.609.447l.08.049c.184.114.375.218.572.312.043.021.085.043.13.063a5.95 5.95 0 0 0 2.466.531h5.672l.855-.855c4.29-4.29 14.982-6.379 22.73-9.52a2.735 2.735 0 0 0 1.938-3.357c-.086-.321-.196-.507-.334-.606l.076-.36-2.642.71h-.006L15.307 35.17l.336-1.252 1.017-3.797 3.39-12.641 1.61-6.008.517-1.932-1.932-.518-.02-.003-1.572-.422-.072-.02-.002.008a1.657 1.657 0 0 0-.256-.043z" fill="url(#c)" style="fill:url(#c);paint-order:fill markers stroke"/><circle cx="3.043" cy="7.011" r=".926" fill="#fff" style="paint-order:fill markers stroke"/><circle cx="3.307" cy="6.747" fill="#2c3e50" style="paint-order:fill markers stroke" r=".397"/><path transform="scale(.26458)" d="M21.207 9.28 12.34 36.911h.002a.998.998 0 0 0 1.223 1.22v.005l27.63-8.87-.258-.964-25.632 6.867 6.869-25.63Z" fill="url(#d)" style="fill:url(#d);paint-order:fill markers stroke"/><path d="m4.05 9.305 4.588-4.588" fill="#fff" opacity=".878" style="paint-order:fill markers stroke"/><path d="M5.867 2.524 4.709 8.646l6.122-1.158L4.05 9.305Z" fill="#d35400" style="paint-order:fill markers stroke"/><path transform="scale(.26458)" d="m31.95 30.002-3.327.629c.143.284.285.569.416.86l3.34-.895c-.14-.2-.284-.398-.43-.594z" fill="#bdc3c7" style="paint-order:fill markers stroke"/><path transform="scale(.26458)" d="m20.345 16.363-.234.871a22.448 22.448 0 0 1 13.778 5.35C30.51 17.927 22.7 16.58 20.345 16.363z" fill="#eff0f1" style="paint-order:fill markers stroke"/><path transform="scale(.26458)" d="m21.117 13.482-1.006 3.752c.201.008.402.013.602.026l.7-3.698-.296-.08z" fill="#bdc3c7" style="paint-order:fill markers stroke"/><path d="M4.782 2.386a.279.265 0 0 0-.28.264.279.265 0 0 0 .209.256.279.265 0 0 1-.04-.134.279.265 0 0 1 .28-.264.279.265 0 0 1 .071.01.279.265 0 0 0-.24-.132z" fill="url(#e)" style="fill:url(#e);paint-order:fill markers stroke"/></g></svg>