<?xml version="1.0" encoding="UTF-8" standalone="no"?>
<svg
   width="200"
   height="200"
   xml:space="preserve"
   version="1.1"
   id="svg17"
   sodipodi:docname="alpine.svg"
   inkscape:version="1.4.2 (ebf0e940d0, 2025-05-08)"
   xmlns:inkscape="http://www.inkscape.org/namespaces/inkscape"
   xmlns:sodipodi="http://sodipodi.sourceforge.net/DTD/sodipodi-0.dtd"
   xmlns="http://www.w3.org/2000/svg"
   xmlns:svg="http://www.w3.org/2000/svg"><defs
     id="defs17" /><sodipodi:namedview
     id="namedview17"
     pagecolor="#ffffff"
     bordercolor="#666666"
     borderopacity="1.0"
     inkscape:showpageshadow="2"
     inkscape:pageopacity="0.0"
     inkscape:pagecheckerboard="0"
     inkscape:deskcolor="#d1d1d1"
     inkscape:zoom="5.2585688"
     inkscape:cx="113.14866"
     inkscape:cy="104.97153"
     inkscape:window-width="1916"
     inkscape:window-height="1032"
     inkscape:window-x="0"
     inkscape:window-y="22"
     inkscape:window-maximized="1"
     inkscape:current-layer="svg17" /><g
     id="g17"
     transform="matrix(0.86021505,0,0,0.86021505,19.913979,30.505377)"><g
       style="fill:#0d597f;fill-opacity:1"
       id="g10"><path
         d="M 0,0 V 15.7 L -11.3,4.4 A 32.4,32.4 0 0 1 -4.8,0.9 17,17 0 0 1 0,0 M 57.8,1.3 58.1,1.1 59,0.6 a 10.5,10.5 0 0 1 5.8,-0.5 c 0.8,0.2 1.7,0.4 2.6,0.8 A 23.2,23.2 0 0 1 74,4.3 L 65.4,12.7 37,41.2 24.5,28.8 7.7,46 -34.5,4.4 a 32.5,32.5 0 0 1 6.6,-3.5 16.7,16.7 0 0 1 4.9,-0.9 10.4,10.4 0 0 1 3.5,0.7 5.8,5.8 0 0 1 1.3,0.7 l 19,19 L 7.6,27 26.5,8.1 33,1.3 l 0.3,-0.2 1,-0.5 a 10.5,10.5 0 0 1 5.8,-0.5 l 2.6,0.8 a 23.2,23.2 0 0 1 6.5,3.4 L 34.2,19.2 37,22 50.1,8.9 57.8,1.3 M 57.6,80.3 94.8,15.8 57.6,-48.6 H -17 l -37,64.4 37.2,64.5 z"
         style="fill:#0d597f;fill-opacity:1;fill-rule:nonzero;stroke:none"
         transform="matrix(1.25,0,0,-1.25,67.6,100.6)"
         id="path10" /></g><g
       style="fill:#0d597f;fill-opacity:1"
       id="g11"><path
         d="m 0,0 -10,9.9 0.8,0.7 10,-9.9 z"
         style="fill:#0d597f;fill-opacity:1;fill-rule:nonzero;stroke:none"
         transform="matrix(1.25,0,0,-1.25,110.6,77)"
         id="path11" /></g></g><path
     style="fill:#ffffff;fill-rule:evenodd;stroke:#000000;stroke-width:0.00786019;stroke-miterlimit:7.9;paint-order:markers stroke fill"
     d="m 143.05415,116.76264 c -0.60034,-0.15202 -1.45609,-0.45973 -1.90166,-0.68382 -0.53982,-0.27148 -4.54152,-4.12765 -11.99359,-11.55741 -6.15091,-6.1325 -11.22345,-11.187891 -11.2723,-11.234206 -0.0489,-0.04632 -0.60128,0.4229 -1.22762,1.0427 l -1.13879,1.126907 -5.08311,-5.083115 -5.08312,-5.083115 4.08752,-4.101879 c 2.24813,-2.256033 5.07721,-5.03234 6.28685,-6.16957 l 2.19933,-2.067691 19.7179,19.76925 19.7179,19.769249 -1.34019,0.86696 c -1.66241,1.07541 -3.54198,1.93926 -6.2084,2.85338 -2.42164,0.8302 -4.8726,1.03045 -6.76072,0.55236 z"
     id="path1" /><path
     style="fill:#ffffff;fill-rule:evenodd;stroke:#000000;stroke-width:0.00786019;stroke-miterlimit:7.9;paint-order:markers stroke fill"
     d="m 116.55138,116.77611 c -2.09643,-0.47757 -2.60648,-0.88103 -7.35048,-5.81436 -2.46414,-2.56248 -8.63758,-8.80832 -13.718747,-13.879633 l -9.238485,-9.22057 -1.665687,1.612796 c -0.916128,0.887038 -7.228037,7.145557 -14.026465,13.907817 -6.798428,6.76227 -12.621296,12.4252 -12.939708,12.58429 -2.566307,1.28226 -6.655034,1.15107 -10.288018,-0.33008 -1.822251,-0.74292 -4.848671,-2.36895 -5.614832,-3.01672 L 41.210046,112.19783 60.208607,93.466496 C 70.657815,83.164263 80.824163,73.171515 82.800489,71.260389 l 3.593324,-3.474776 8.908525,9.14917 c 4.899692,5.032043 11.347402,11.555846 14.328252,14.497342 2.98085,2.941494 8.96433,8.873695 13.29663,13.182665 l 7.8769,7.83449 -1.2211,0.79239 c -1.7675,1.14696 -3.96616,2.17066 -6.35557,2.95916 -2.46055,0.81198 -4.76524,1.01057 -6.67607,0.57528 z"
     id="path2" /><path
     style="fill:#ffffff;fill-rule:evenodd;stroke:#000000;stroke-width:0.00786019;stroke-miterlimit:7.9;paint-order:markers stroke fill"
     d="m 76.066324,116.76587 c -0.104591,-0.0335 -0.831975,-0.20551 -1.616409,-0.38215 -1.976598,-0.4451 -8.17713,-3.523 -8.17713,-4.05907 0,-0.071 2.652813,-2.7809 5.89514,-6.02196 l 5.89514,-5.89284 v 8.22352 8.22352 l -0.903287,-0.015 c -0.496808,-0.008 -0.988862,-0.0425 -1.093454,-0.076 z"
     id="path3" /></svg>
