<?xml version="1.0" encoding="UTF-8" standalone="no"?>
<svg
   width="200"
   height="200"
   xml:space="preserve"
   version="1.1"
   id="svg17"
   sodipodi:docname="alpine_linux.svg"
   inkscape:version="1.4.2 (ebf0e940d0, 2025-05-08)"
   xmlns:inkscape="http://www.inkscape.org/namespaces/inkscape"
   xmlns:sodipodi="http://sodipodi.sourceforge.net/DTD/sodipodi-0.dtd"
   xmlns="http://www.w3.org/2000/svg"
   xmlns:svg="http://www.w3.org/2000/svg"><defs
     id="defs17" /><sodipodi:namedview
     id="namedview17"
     pagecolor="#ffffff"
     bordercolor="#666666"
     borderopacity="1.0"
     inkscape:showpageshadow="2"
     inkscape:pageopacity="0.0"
     inkscape:pagecheckerboard="0"
     inkscape:deskcolor="#d1d1d1"
     inkscape:zoom="2.6292844"
     inkscape:cx="143.38502"
     inkscape:cy="126.2701"
     inkscape:window-width="1916"
     inkscape:window-height="1032"
     inkscape:window-x="0"
     inkscape:window-y="22"
     inkscape:window-maximized="1"
     inkscape:current-layer="svg17" /><g
     id="g17"
     transform="matrix(0.86021505,0,0,0.86021505,19.913979,30.505377)"><g
       style="fill:#0d597f;fill-opacity:1"
       id="g10"><path
         d="M 0,0 V 15.7 L -11.3,4.4 A 32.4,32.4 0 0 1 -4.8,0.9 17,17 0 0 1 0,0 M 57.8,1.3 58.1,1.1 59,0.6 a 10.5,10.5 0 0 1 5.8,-0.5 c 0.8,0.2 1.7,0.4 2.6,0.8 A 23.2,23.2 0 0 1 74,4.3 L 65.4,12.7 37,41.2 24.5,28.8 7.7,46 -34.5,4.4 a 32.5,32.5 0 0 1 6.6,-3.5 16.7,16.7 0 0 1 4.9,-0.9 10.4,10.4 0 0 1 3.5,0.7 5.8,5.8 0 0 1 1.3,0.7 l 19,19 L 7.6,27 26.5,8.1 33,1.3 l 0.3,-0.2 1,-0.5 a 10.5,10.5 0 0 1 5.8,-0.5 l 2.6,0.8 a 23.2,23.2 0 0 1 6.5,3.4 L 34.2,19.2 37,22 50.1,8.9 57.8,1.3 M 57.6,80.3 94.8,15.8 57.6,-48.6 H -17 l -37,64.4 37.2,64.5 z"
         style="fill:#0d597f;fill-opacity:1;fill-rule:nonzero;stroke:none"
         transform="matrix(1.25,0,0,-1.25,67.6,100.6)"
         id="path10" /></g><g
       style="fill:#0d597f;fill-opacity:1"
       id="g11"><path
         d="m 0,0 -10,9.9 0.8,0.7 10,-9.9 z"
         style="fill:#0d597f;fill-opacity:1;fill-rule:nonzero;stroke:none"
         transform="matrix(1.25,0,0,-1.25,110.6,77)"
         id="path11" /></g></g></svg>
