<svg xml:space="preserve" width="200" height="200" xmlns:xlink="http://www.w3.org/1999/xlink" xmlns="http://www.w3.org/2000/svg"><defs><linearGradient id="c"><stop offset="0" style="stop-color:#000;stop-opacity:1"/><stop offset=".429" style="stop-color:#3d1d4a;stop-opacity:.63636363"/><stop offset="1" style="stop-color:#8e44ad;stop-opacity:.27922079"/></linearGradient><linearGradient id="b"><stop offset="0" style="stop-color:#3daee9;stop-opacity:1"/><stop offset="1" style="stop-color:#16a085;stop-opacity:1"/></linearGradient><linearGradient xlink:href="#a" id="f" x1="34" x2="48.765" y1="19.008" y2="33.773" gradientTransform="translate(17.033 34.165) scale(2.91967)" gradientUnits="userSpaceOnUse"/><linearGradient id="j" x1="-24.896" x2="-14.45" y1="-171.37" y2="-171.37" gradientTransform="translate(14.215 92.255) scale(.37955)" gradientUnits="userSpaceOnUse"><stop offset="0" stop-color="#eff0f1"/><stop offset="1" stop-color="#bdc3c7" style="stop-color:#fff;stop-opacity:1"/></linearGradient><linearGradient id="g" x1="4" x2="4" y1="44" y2="4" gradientTransform="translate(17.033 34.165) scale(2.91967)" gradientUnits="userSpaceOnUse"><stop offset="0" stop-color="#dfe646" style="stop-color:#fdbc4b;stop-opacity:1"/><stop offset="1" stop-color="#f5f9ab" style="stop-color:#fde44b;stop-opacity:1"/></linearGradient><linearGradient xlink:href="#a" id="h" x1="6.739" x2="10.48" y1="27.437" y2="31.492" gradientUnits="userSpaceOnUse" gradientTransform="translate(-10.738 -16.897) scale(4.45262)"/><linearGradient id="i" x1="-20.34" x2="-19.166" y1="-165.86" y2="-191.26" gradientTransform="translate(14.215 92.255) scale(.37955)" gradientUnits="userSpaceOnUse"><stop offset="0" stop-color="#2c3e50"/><stop offset="1" stop-color="#232629" style="stop-color:#194d6f;stop-opacity:1"/></linearGradient><radialGradient xlink:href="#b" id="d" cx="15.747" cy="10.476" r="22.448" fx="15.747" fy="10.476" gradientTransform="matrix(11.20903 0 0 7.31704 -118.424 -23.973)" gradientUnits="userSpaceOnUse"/><radialGradient xlink:href="#c" id="e" cx="-1.804" cy="-16.624" r="20.127" fx="-1.804" fy="-16.624" gradientTransform="matrix(17.55669 0 0 11.41194 15.987 170.678)" gradientUnits="userSpaceOnUse"/></defs><linearGradient id="a" x1="34" x2="44" y1="19.008" y2="29.008" gradientUnits="userSpaceOnUse"><stop offset="0" stop-color="#292c2f"/><stop offset="1" stop-opacity="0"/></linearGradient><g transform="matrix(.8 0 0 .8 19.96 18.182)"><path d="M148.127 39.317c-12.365.294-39.112 4.457-60.564 9.208l-.24.053c-4.026.89-8.038 1.848-12.032 2.872-.52.134-1.037.285-1.558.423-3.527.953-7.062 1.995-10.495 3.264a66.678 66.678 0 0 0-5.058 2.084 52.97 52.97 0 0 0-4.827 2.538c-1.478.89-2.965 1.812-4.452 2.77a138.088 138.088 0 0 0-8.558 5.975A96.908 96.908 0 0 0 28.677 78.78a65.31 65.31 0 0 0-3.206 3.637l-.054.05-.008.008c-.357.437-.682.877-1.016 1.314a53.675 53.675 0 0 0-1.799 2.48c-.133.196-.298.392-.427.592-6.812 10.464-11.354 22.748-13.612 28.421-2.253 5.677-2.217 4.72-3.548 4.974-1.327.253-4.008 1.723-4.693 5.704-.682 3.985.654 10.44 5.343 14.524 4.702 4.079 12.739 5.753 21.849 10.067 9.016 4.275 19.128 11.132 46.218 15.14.285.044.503.097.788.142 2.796.4 5.824.757 8.972 1.086 2.8.312 5.722.579 8.714.837 26.684 2.307 59.799 2.694 78.856.949 23.563-2.164 25.389-7.516 22.695-14.56-2.694-7.044-9.907-15.79-17.116-24.525l-1.171-3.954-2.169-7.28a44.31 44.31 0 0 1 3.34.24c4.827.557 9.123 1.964 12.156 2.618 3.04.65 4.808.561 6.3-.049 1.496-.605 2.698-1.723 3.633-6.296s1.594-12.6 1.22-21.421c-.374-8.821-1.772-18.434-3.08-23.942-1.305-5.504-2.53-6.915-3.92-7.525a2.965 2.965 0 0 0-1.183-.258c-1.412-.023-3.803.788-9.787 3.624-3.919 1.857-16.635 4.52-24.882 6.363.13-9.03 2.632-16.51 2.734-21.515.103-5.388 2.65-9.155-6.705-10.704-1.171-.187-2.872-.258-4.992-.205z" style="fill:#194d6f;fill-opacity:1;stroke-width:4.45262"/><path d="M173.293 118.391s2.254.107 3.34.232c4.827.556 9.128 1.963 12.156 2.618 3.04.65 4.808.565 6.296-.045 1.496-.605 2.702-1.723 3.637-6.296s1.59-12.6 1.216-21.417a151.18 151.18 0 0 0-1.737-16.804c-31.738-4.622-79.22 42.327-24.908 41.712z" style="opacity:1;fill:#d68b0a;fill-opacity:1;stroke-width:10.8411"/><path d="M148.03 34.77c-12.366.3-39.113 4.458-60.565 9.209l-.24.053a376.527 376.527 0 0 0-12.032 2.872c-.52.134-1.037.285-1.558.423-3.527.953-7.062 1.995-10.495 3.264a68.17 68.17 0 0 0-5.058 2.084 52.97 52.97 0 0 0-4.827 2.538c-1.478.89-2.965 1.812-4.452 2.77a138.088 138.088 0 0 0-8.558 5.975 96.524 96.524 0 0 0-11.666 10.276 65.31 65.31 0 0 0-3.206 3.638l-.054.05-.008.008c-.357.436-.682.877-1.016 1.314a53.794 53.794 0 0 0-1.803 2.48c-.133.2-.294.392-.423.592-6.812 10.464-11.354 22.748-13.612 28.421-2.253 5.677-2.217 4.72-3.548 4.974-1.327.253-4.008 1.723-4.693 5.703-.682 3.985.654 10.442 5.343 14.525 4.702 4.078 12.739 5.753 21.849 10.067 9.016 4.275 19.128 11.132 46.218 15.14.285.044.503.097.788.142 2.796.4 5.824.757 8.972 1.086 2.8.312 5.722.579 8.714.837 26.684 2.311 59.799 2.694 78.856.949 23.563-2.164 25.389-7.516 22.695-14.56-8.166-13.715-16.052-20.963-20.455-35.76 1.135.045 2.253.12 3.339.245 4.827.557 9.123 1.96 12.156 2.614 3.04.65 4.808.561 6.3-.049 1.496-.606 2.698-1.723 3.633-6.296.936-4.573 1.594-12.6 1.22-21.417-.374-8.825-1.772-18.434-3.08-23.946-1.305-5.504-2.53-6.915-3.919-7.525a2.965 2.965 0 0 0-1.184-.258c-1.412-.023-3.803.792-9.787 3.628-3.919 1.857-11.381 3.295-19.627 5.139.129-9.03 2.631-16.51 2.729-21.515.102-5.388-2.6-7.935-11.955-9.484-1.171-.187-2.872-.259-4.992-.205z" style="fill:url(#d);fill-opacity:1;stroke-width:4.45262"/><path d="m63.75 157.721-.356 1.576-.98 4.373c3.375.717 7.214 1.411 11.31 2.021.285.045.499.103.784.147 2.796.4 5.828.757 8.976 1.087 2.57.285 5.254.525 7.993.765l.623-4.479z" style="fill:#d68b0a;stroke-width:9.50826"/><path d="M148.795 34.77c-1.247.393-2.124.655-3.34 1.038A194.232 194.232 0 0 1 12.648 139.924c4.221 1.799 9.235 3.473 14.756 6.087 9.017 4.274 19.129 11.131 46.219 15.139.285.044.503.093.788.138 2.796.4 5.824.757 8.972 1.086a456.674 456.674 0 0 0 13.01 1.184c25.861 2 56.508 2.253 74.555.602 23.568-2.164 25.393-7.516 22.7-14.56-8.167-13.715-16.052-20.959-20.456-35.755 1.135.044 2.253.116 3.34.24 1.09.125 2.137.303 3.165.495 1.247.236 2.454.498 3.585.774 2.057.504 3.891 1.024 5.41 1.35.757.16 1.433.271 2.048.347a12.82 12.82 0 0 0 1.683.093 7.71 7.71 0 0 0 1.38-.138c.423-.084.81-.205 1.185-.356 1.496-.605 2.698-1.723 3.633-6.296.78-3.82 1.358-10.063 1.314-17.151a118.738 118.738 0 0 0-.094-4.27v-.01c-.093-2.199-.25-4.452-.454-6.678v-.01a159.582 159.582 0 0 0-.74-6.513v-.01a144.81 144.81 0 0 0-.903-5.895v-.008a86.256 86.256 0 0 0-.98-4.818v-.01a34.74 34.74 0 0 0-.97-3.396v-.01a12.895 12.895 0 0 0-.962-2.181 5.17 5.17 0 0 0-.98-1.265 3.607 3.607 0 0 0-1.015-.659 2.965 2.965 0 0 0-1.18-.262 5.343 5.343 0 0 0-1.278.155 16.003 16.003 0 0 0-1.897.584c-1.522.556-3.62 1.47-6.612 2.89a27.816 27.816 0 0 1-3.695 1.362c-1.35.414-2.85.81-4.498 1.211-3.384.82-7.31 1.643-11.434 2.565.13-9.03 2.632-16.51 2.73-21.515.102-5.388-2.6-7.935-11.956-9.484a26.894 26.894 0 0 0-4.23-.205z" style="opacity:.204082;fill:#8e44ad;fill-opacity:1;stroke-width:12.5332"/><path d="M92.946 48.765c-26.288-.837-56.61 14.988-70.458 32.959l-1.79 2.76c3.588 1.024 11.31 2.244 14.043 2.102 1.786-.09 4.805-2.404 4.805-2.404h9.809l1.87 2.925 2.92 2.912v-5.833l2.922-2.92 2.912-2.926h2.925v-2.912l2.921-2.921 5.833-2.921 2.925-2.926 3.754-1.963 2.08 1.963 5.846-2.912-2.08-3.303-2.093.07-.828-1.655-1.594-1.318 7.427-.018 2.08 3.304 8.767 2.92-2.921-5.832v-5.847zm1.643 114.638c.41-2.066.4-4.132.436-6.225l5.833-2.917 2.921-2.92 2.926-11.68 2.92-2.92v-5.834l-2.088-3.308-6.679.383-5.833-2.912H92.1l-2.921-5.846-4.991-4.89-3.767 1.969-5.833-5.833H68.74l-8.758-2.926-2.92 5.847-4.988-3.317-3.771-2.912v-2.53l-2.075-1.977-3.384-1.687 2.547-5.103-2.08-3.304-6.687 6.225h-2.912l-1.906-1.906v.018c-.312 1.701-2.69.846-2.85 2.56-.022.214 2.075 3.215 2.075 3.215s3.767 1.34 5.593 1.95l5.846 2.921 2.92 2.921 2.913 2.917h5.846v5.842l-2.92 2.912-2.926 5.846v2.92l2.925 2.913 2.921 2.925 2.912 5.842 2.921 2.912 5.846 2.926v11.398c2.45.468 5.014.917 7.801 1.336.281.036.5.089.784.134a358.837 358.837 0 0 0 16.853 1.843l.833.08c.81.071 1.67.125 2.489.192.142.013.071.004 0 0s-.147-.014 0 0zm40.675-95.785-2.28 1.42-2.088 3.086 2.088 3.304h4.942l-.213-.477-.374-4.03zM96.33 162.414a246.729 246.729 0 0 0 55.76-44.713l-5.29-.178-13.723 2.101-2.181-2.373-6.1-3.183-2.659-3.994-.832-2.53V95.865l2.912-5.846 5.846-5.833v-2.92l5.833-2.926 3.175-1.051c.48.792.935 1.603 1.38 2.418.036.058.107.098.151.147l-1.531-2.565a50.83 50.83 0 0 1 5.73-2.52c.944-.36 1.95-.664 2.93-.993 1.144-.388 2.257-.802 3.428-1.158.882-.263 1.773-.485 2.663-.73 1.287-.356 2.57-.726 3.86-1.05.891-.224 1.768-.41 2.659-.62 1.344-.32 2.671-.645 3.985-.935 8.246-1.848 15.709-3.286 19.627-5.143.73-.347 1.251-.574 1.88-.859a372.905 372.905 0 0 0 1.963-5.054c1.879-.726 3.072-1.028 3.865-1.02a2.961 2.961 0 0 1 1.18.263c1.393.606 2.618 2.017 3.922 7.525 1.31 5.504 2.707 15.117 3.081 23.938a114.268 114.268 0 0 1-.498 16.394c-.071.668-.134 1.35-.218 1.96l-.05.369a51.24 51.24 0 0 1-.454 2.698 21.493 21.493 0 0 1-.748 2.827 9.328 9.328 0 0 1-.72 1.559 5.232 5.232 0 0 1-.602.86 3.691 3.691 0 0 1-.623.52 4.693 4.693 0 0 1-.94.53c-1.492.61-3.26.704-6.296.053-3.037-.654-7.333-2.061-12.156-2.618-1.09-.124-3.339-.245-3.339-.245a62.08 62.08 0 0 0 1.803 5.219v.009a62.798 62.798 0 0 0 2.097 4.67v.01c1.488 2.97 3.144 5.686 4.916 8.37v.01c3.54 5.374 7.552 10.615 11.635 17.472.169.445.325.872.45 1.295v.01c1.028 3.41.659 6.376-3.26 8.704-.98.584-2.177 1.136-3.633 1.639a35.194 35.194 0 0 1-2.387.712 60.867 60.867 0 0 1-6.015 1.243 119.464 119.464 0 0 1-7.855.957c-18.104 1.656-50.452 1.256-76.362-.757z" style="opacity:.432653;fill:url(#e);fill-opacity:1;stroke-width:4.45262"/><path fill="url(#f)" fill-rule="evenodd" d="m141.373 82.73-19.231 27.348 38.217 38.221c3.42-7.538 12.823-26.181 12.837-34.463 0-7.231-29.045-24.009-31.668-30.754a61.57 61.57 0 0 0-.155-.356z" opacity=".2" style="fill:url(#f);stroke-width:4.45262"/><path fill="url(#g)" d="M87.465 43.979c-4.337.962-8.536 1.937-12.272 2.92-.52.134-1.042.295-1.558.433-7.058 1.9-14.128 4.15-20.38 7.885a159.52 159.52 0 0 0-4.448 2.76l-.004.005a144.052 144.052 0 0 0-8.558 5.971c-5.628 4.266-10.851 8.981-14.926 13.973a51.915 51.915 0 0 0-2.823 3.793c3.59 1.029 7.44 1.701 10.175 1.559 1.785-.09 4.8-2.4 4.8-2.4H49.15v2.92l2.92 2.922v-5.833l2.922-2.926 2.916-2.92h2.921v-2.922l2.921-2.916 5.837-2.92 2.921-2.922 5.838-2.92v2.92l5.842-2.92h-2.921v-2.917l-2.921-2.921h11.679l-2.921 2.92 8.763 2.917-2.921-5.833v-5.842zM191.66 57.208c-1.412-.023-3.803.792-9.787 3.628-3.919 1.857-11.381 3.295-19.627 5.139-1.314.294-2.64.614-3.986.935-.89.21-1.767.4-2.662.623-1.292.325-2.57.695-3.856 1.051-.89.245-1.781.468-2.663.73-1.17.356-2.284.766-3.428 1.158-.98.325-1.986.628-2.93.988-1.96.726-5.73 2.525-5.73 2.525l-3.171 1.055-5.842 2.921v2.921l-5.837 5.833-2.921 5.842v11.68l2.92 5.841 5.838 2.916 2.921 2.921 13.772-2.293 16.297.49c2.262-.125 4.506-.223 6.723-.285 1.87-.044 3.714-.062 5.504.014 1.135.049 2.253.12 3.339.244 4.827.557 9.119 1.96 12.156 2.614 3.036.65 4.808.557 6.3-.053 1.496-.606 2.703-1.723 3.638-6.296s1.59-12.601 1.215-21.417c-.374-8.826-1.772-18.434-3.08-23.947-1.305-5.503-2.525-6.91-3.92-7.516a2.965 2.965 0 0 0-1.183-.262zM130.9 65.73v6.39h4.941l-.912-1.884.33-2.618zm-81.569.191h.179l-.361.357zm-11.86 26.636-2.921 2.92h-2.917l-1.901-1.896v.013l-.78 5.86 5.598 1.861 5.842 2.921 2.92 2.921 2.917 2.921h5.842v5.837l-2.921 2.921-2.921 5.838v2.92l2.92 2.922 2.922 2.916 2.916 5.842 2.921 2.92 5.842 2.917v12.615l-.338 1.602a188.97 188.97 0 0 0 10.218 1.826c.281.036.5.089.784.134 5.303.757 11.372 1.38 17.686 1.923l.846-6.42v-2.921l5.837-2.917 2.921-2.92 2.921-11.68 2.917-2.921v-5.833l-5.838-2.92h-2.92l-5.838-2.917h-2.921l-2.92-5.842-2.917-2.921h-5.842l-5.838-5.833h-5.841l-8.759-2.925-2.92 5.841-5.834-2.92H46.23v-5.833l-3.384-1.697-2.453-1.229 2.92-5.842z" style="fill:url(#g);stroke-width:4.45262"/><path fill="url(#h)" d="m15.893 114.7 19.837 19.836 10.686-15.864-17.463-17.464z" opacity=".397" style="fill:url(#h);stroke-width:4.45262"/><circle cx="22.648" cy="108.186" r="9.404" fill="url(#i)" style="fill:#194d6f;fill-opacity:1;stroke-width:1.68999;image-rendering:optimizeSpeed"/><ellipse cx="22.39" cy="108.306" fill="url(#j)" rx="8.825" ry="6.43" style="fill:#eff0f1;fill-opacity:1;stroke-width:1.68999;image-rendering:optimizeSpeed"/><circle cx="20.27" cy="108.306" r="3.308" fill="#232629" style="fill:#000;fill-opacity:1;stroke-width:1.68999;image-rendering:optimizeSpeed"/><path d="M191.66 57.208c-1.41-.023-3.802.792-9.786 3.628a19.57 19.57 0 0 1-1.634.677l-.05.018a38.101 38.101 0 0 1-2.012.668c-4.128 1.26-9.805 2.404-15.932 3.776-1.313.294-2.635.619-3.98.94-.89.209-1.777.396-2.672.618-1.291.325-2.564.695-3.851 1.051-.89.245-1.781.468-2.663.73-1.17.356-2.28.77-3.428 1.158-.98.33-1.986.632-2.93.993-1.96.721-5.73 2.52-5.73 2.52l-3.175 1.06-5.833 2.912v2.925l-5.847 5.833-2.92 5.846v11.68l2.92 5.833 5.847 2.925 2.912 2.92 13.776-2.297 16.297.49a249.659 249.659 0 0 1 6.723-.28c1.87-.045 3.714-.067 5.503.009 1.136.049 2.254.12 3.34.244 1.09.125 2.137.303 3.166.495l.12.026c1.207.232 2.373.481 3.464.748 2.057.504 3.892 1.025 5.41 1.35 3.037.65 4.804.556 6.296-.054.935-.378 1.754-.962 2.467-2.449v-.013c.432-.9.815-2.12 1.166-3.834.205-1.006.397-2.24.566-3.549.089-.712.165-1.522.245-2.315a88.531 88.531 0 0 0 .445-7.235 118.867 118.867 0 0 0-.036-8.296v-.035a137.586 137.586 0 0 0-.454-6.68v-.008a158.454 158.454 0 0 0-.739-6.51v-.009a142.172 142.172 0 0 0-.904-5.9v-.008a86.238 86.238 0 0 0-.98-4.818v-.01a34.73 34.73 0 0 0-.97-3.396v-.01a12.895 12.895 0 0 0-.962-2.181 5.17 5.17 0 0 0-.98-1.265 3.607 3.607 0 0 0-1.015-.659 2.957 2.957 0 0 0-1.18-.262zm-60.02 8.847-.744 1.13v4.939h4.95l-.916-1.888.334-2.618-3.63-1.563zm-53.78 46.463a194.232 194.232 0 0 1-30.531 16.185l1.816 1.817 2.921 2.912 2.912 5.846 2.926 2.912 5.842 2.926v12.61l-.339 1.602c3.13.65 6.483 1.265 10.219 1.826.28.036.499.08.784.125 1.233.178 2.627.325 3.936.49 1.634.2 3.197.405 4.924.592.04 0 .072.013.112.013 2.818.298 5.735.579 8.713.837l.846-6.416v-2.925l5.833-2.912 2.926-2.921 2.92-11.68 2.913-2.925v-5.833l-5.833-2.92h-2.926l-5.833-2.917h-2.925l-2.92-5.842-2.913-2.921h-5.846z" style="opacity:.395918;fill:#f39c1f;fill-opacity:1;stroke-width:12.5332"/><path d="M193.25 57.737a246.729 246.729 0 0 1-37.509 56.215l5.228.16a249.659 249.659 0 0 1 6.723-.28c1.87-.045 3.714-.067 5.504.009 1.135.049 2.253.12 3.339.244 1.09.125 2.137.303 3.166.495l.12.026c1.207.232 2.373.481 3.464.748 2.057.504 3.892 1.025 5.41 1.35 3.037.65 4.804.556 6.296-.054.935-.378 1.754-.962 2.467-2.449v-.013c.432-.9.815-2.12 1.166-3.834.205-1.006.397-2.24.566-3.549.089-.712.165-1.522.245-2.315a88.598 88.598 0 0 0 .445-7.235 118.649 118.649 0 0 0-.036-8.296v-.035c-.093-2.2-.249-4.453-.454-6.68v-.008a159.404 159.404 0 0 0-.739-6.51v-.009a142.35 142.35 0 0 0-.904-5.9v-.008a86.278 86.278 0 0 0-.98-4.818v-.01a34.73 34.73 0 0 0-.97-3.396v-.01a12.895 12.895 0 0 0-.962-2.181 5.17 5.17 0 0 0-.98-1.265c-.19-.178-.4-.267-.605-.391z" style="opacity:.559184;fill:#f39c1f;fill-opacity:1;stroke-width:9.50826"/><path d="M148.03 34.77c-12.366.3-39.113 4.462-60.565 9.213l-.24.05c-4.026.89-8.038 1.847-12.032 2.871-.52.134-1.033.29-1.558.428A122.67 122.67 0 0 0 63.14 50.59a68.17 68.17 0 0 0-5.058 2.088 54.026 54.026 0 0 0-4.827 2.53c-1.478.89-2.965 1.816-4.452 2.773a136.764 136.764 0 0 0-8.558 5.976 96.559 96.559 0 0 0-11.666 10.28 67.101 67.101 0 0 0-3.206 3.634l-.054.054-.008.009c-.357.436-.682.877-1.016 1.313a56.217 56.217 0 0 0-1.803 2.476c-.133.2-.294.392-.423.592-6.812 10.464-13.612 28.421-13.612 28.421s8.754-16.127 13.706-23.875c.133-.2.302-.392.436-.588a53.65 53.65 0 0 1 1.79-2.489c.334-.436.663-.877 1.02-1.313l.008-.01.05-.044a65.482 65.482 0 0 1 3.21-3.642 96.488 96.488 0 0 1 11.666-10.272 138.058 138.058 0 0 1 8.553-5.971 176.502 176.502 0 0 1 4.453-2.774 50.833 50.833 0 0 1 4.826-2.538 67.546 67.546 0 0 1 5.063-2.084c3.429-1.269 6.968-2.315 10.495-3.268.52-.138 1.037-.285 1.558-.419a371.501 371.501 0 0 1 12.027-2.867l.245-.062c21.452-4.751 48.195-8.906 60.56-9.2 2.12-.053 3.82.014 4.991.2 6.163 1.02 9.974 2.494 11.862 4.903.09-5.36-2.623-7.908-11.955-9.453-1.171-.187-2.872-.254-4.992-.2zm43.63 22.442c-1.41-.027-3.802.788-9.786 3.624-3.616 1.715-12.143 3.487-19.632 5.139 10.864.516 19.169-1.211 29.512-4.217.41 0 .815.09 1.193.25 1.39.61 2.61 2.03 3.914 7.533 1.287 5.42 2.65 14.81 3.05 23.515-.009-1.363-.009-2.708-.067-4.123-.374-8.826-1.772-18.43-3.08-23.942-1.305-5.504-2.534-6.91-3.92-7.525a2.965 2.965 0 0 0-1.183-.258z" style="fill:#fff;fill-opacity:.366973;stroke-width:4.45262"/></g></svg>