<svg id="Layer_1" data-name="Layer 1" version="1.1" width="200" height="200" xmlns:xlink="http://www.w3.org/1999/xlink" xmlns="http://www.w3.org/2000/svg"><defs id="defs12"><radialGradient id="radial-gradient" cx="120.71" cy="250.58" fx="44.16" fy="370.53" r="158.95" gradientUnits="userSpaceOnUse"><stop offset="0" stop-color="#734a33" id="stop1"/><stop offset=".16" stop-color="#825338" id="stop2"/><stop offset=".39" stop-color="#905b3d" id="stop3"/><stop offset=".59" stop-color="#955e3f" id="stop4"/></radialGradient><radialGradient id="radial-gradient-2" cx="417.21" cy="323.7" fx="417.21" fy="323.7" r="209.4" xlink:href="#radial-gradient" gradientTransform="matrix(.353 0 0 .353 15.12 42.85)"/><radialGradient id="radial-gradient-3" cx="182.45" cy="180.7" fx="182.45" fy="180.7" r="30.56" xlink:href="#radial-gradient" gradientTransform="matrix(.353 0 0 .353 15.12 42.85)"/><radialGradient id="radial-gradient-4" cx="181.01" cy="200.25" r="30.56" gradientUnits="userSpaceOnUse" gradientTransform="matrix(.353 0 0 .353 15.12 42.85)"><stop offset="0" stop-color="#734a33" id="stop5"/><stop offset=".02" stop-color="#744b33" id="stop6"/><stop offset=".63" stop-color="#8c593c" id="stop7"/><stop offset="1" stop-color="#955e3f" id="stop8"/></radialGradient><radialGradient id="radial-gradient-5" cx="326.69" cy="187.37" fx="326.69" fy="187.37" r="30.56" gradientTransform="matrix(-.353 0 0 .353 245.77 42.85)" xlink:href="#radial-gradient"/><radialGradient id="radial-gradient-6" cx="327.76" cy="203.05" r="30.56" gradientTransform="matrix(-.353 0 0 .353 245.77 42.85)" gradientUnits="userSpaceOnUse"><stop offset="0" stop-color="#734a33" id="stop9"/><stop offset=".26" stop-color="#805238" id="stop10"/><stop offset=".67" stop-color="#905b3d" id="stop11"/><stop offset="1" stop-color="#955e3f" id="stop12"/></radialGradient><radialGradient xlink:href="#radial-gradient" id="radialGradient33" gradientUnits="userSpaceOnUse" cx="120.71" cy="250.58" fx="44.16" fy="370.53" r="158.95" gradientTransform="matrix(.353 0 0 .353 15.12 42.85)"/><style id="style1">.cls-1{fill:#a86d4f}.cls-5{fill:#9b6249}.cls-6{fill:#af7358;opacity:.65}.cls-7{fill:#7a5447}.cls-15{fill:#000409}.cls-16{fill:#f9f9f9}</style></defs><g id="g33" transform="translate(-3.38 -31.11)"><path class="cls-1" d="M101.78 66.23c-7.56.07-20.57.2-30 9.21-7.91 7.58-9.03 17.37-9.4 20.6-1.16 10.23 3.06 12.2 5.62 30.05.24 1.61.77 8.2 1.84 21.36 1.14 14.02 1.43 19 5.51 23.8 3.51 4.14 7.84 5.8 11.92 7.37 1.38.53 18.28 6.73 34.75-1.47 3.37-1.68 6.58-3.27 9.3-6.7 4.9-6.22 3.33-12.33 4.7-23.02 1.16-8.97 2.86-9.35 5.66-20.76a141.2 141.2 0 0 0 4-32.78 34.14 34.14 0 0 0-7.95-15.24c-11.54-12.64-29.49-12.48-35.95-12.42Z" id="path12" style="stroke-width:.353004"/><path d="M105.51 89.93c-5.09-.12-8.7 8.75-9.2 10.02-2.87 7.06-.4 9.89-2.15 19.53-1.08 5.96-2.01 11.07-5.8 15.56-6.29 7.47-13.99 5.54-17.08 12.51-1.35 3.04-1.01 5.96-.5 10.49.38 3.27 1.06 8.57 4.57 13.21 3.2 4.2 7.48 5.65 11.92 7.37 1.38.53 18.28 6.73 34.75-1.47 5.18-2.58 7.8-4.73 9.3-6.7a20.33 20.33 0 0 0 3.17-6.47c.78-2.7.55-4.04.85-8.75.49-7.86 1.32-7.48.84-8.93-2.12-6.31-14.45-2.78-20.35-10.34-2.93-3.75-2.83-8.42-2.61-17.75.23-10.18 2.71-13.44.38-19.64-.23-.63-3.31-8.54-8.09-8.64z" id="path13" style="stroke-width:.353004;fill:#f4f2f1"/><path d="M92.1 66.72c-4.65-.28-12.59-.1-20.42 4.04a34.96 34.96 0 0 0-7.56 5.5c-13.34 12.1-22.48 25.54-26.2 31.22-6.2 9.45-9.35 14.3-11.18 20.04-2.63 8.2-5.48 17.12-1.08 24.6 2.86 4.89 7.35 6.7 9.83 14.25.9 2.73.62 3.47 1.83 6.1 1.9 4.12 4.7 7.01 8.21 10.6 3.82 3.88 4.57 3.84 5.84 6.1 2.08 3.68 1.36 6 2.92 6.7.61.27 2.9.87 10.47-7.1a88.54 88.54 0 0 0 12.04-15.96 20.05 20.05 0 0 1-4.04-5.95c-1-2.28-1.3-4.24-1.78-7.41-.4-2.65-.53-4.61-.61-5.92-.27-4-.7-7.98-1.01-11.97-1.2-15.38-1.29-16.63-1.87-19.45a137.5 137.5 0 0 0-2.05-8.42c-1.65-5.95-2.41-7.06-2.89-10.62a34.09 34.09 0 0 1 3.46-19.8 28.38 28.38 0 0 1 7.94-9.74s4-3.08 11.02-5.4a22.6 22.6 0 0 1 2.79-.73c.66-.12 1.06-.14 2.2-.31l2.14-.37z" id="path14" style="fill:url(#radialGradient33);stroke-width:.353004"/><path class="cls-1" d="M88.32 67.07a43.12 43.12 0 0 0-6.58 1.15 47.68 47.68 0 0 0-11.86 4.91c-.96.53-1.65.95-2.28 1.37a36.84 36.84 0 0 0-4.76 3.89c-12.42 11.54-20.91 24.38-24.38 29.8-5.78 9.03-8.7 13.66-10.41 19.14-2.45 7.84-5.1 16.35-1 23.51 1.38 2.42 3.17 4.05 4.9 6.07a20.51 20.51 0 0 1 4.24 7.53c.83 2.6.58 3.3 1.71 5.83 1.76 3.93 4.37 6.7 7.64 10.1 3.55 3.7 4.24 3.67 5.43 5.83 1.94 3.53 1.27 5.73 2.72 6.39 2.34 1.06 8.58-5.51 9.75-6.78a81.46 81.46 0 0 0 10.64-14.56 29.46 29.46 0 0 1-3.18-6.37 36.21 36.21 0 0 1-1.66-7.06 65.2 65.2 0 0 1-.57-5.65c-.25-3.82-.65-7.62-.94-11.44-1.1-14.68-1.2-15.89-1.73-18.58a142.5 142.5 0 0 0-1.91-8.04c-1.54-5.67-2.25-6.73-2.7-10.13a33.31 33.31 0 0 1 3.22-18.92 26.8 26.8 0 0 1 7.4-9.3c5.46-4.21 7.73-6.35 10.01-7 .13-.04.95-.28 1.97-.55l1.9-.51c.67-.19 1.5-.4 2.43-.63z" id="path15" style="stroke-width:.353004"/><path d="M112.14 66.7c5.57.6 10.18 1.1 15.15 1.62 3.08.33 5.95.63 8.92 2.44 2.1 1.28 2.56 2.27 4.5 4.17 4.83 4.73 7.77 4.24 12.1 7.83 2.24 1.86 1.54 2.05 7.02 10.18 6.04 8.95 7.09 9 10.14 14.54 2.53 4.59 1.94 4.76 5.04 10.53 3.94 7.31 5.03 7.28 6.5 10.81.2.5 4.4 11-.5 20.26-3.76 7.09-9.24 6.68-12.1 14.64-.64 1.77-1.2 4.11-3.03 7.53a40.81 40.81 0 0 1-4.53 6.7c-2.07 2.5-3.79 4-6.92 6.71-5.17 4.48-7.8 6.71-9.94 6.71-3.41 0-5.92-2.9-8-5.3a25.98 25.98 0 0 1-6.04-14.54 19.2 19.2 0 0 0 2.97-4.73 22.68 22.68 0 0 0 1.62-6.7c.08-.62.13-1.16.17-1.65.15-1.93.15-3.35.15-3.85 0 0 0-5.06 1.7-13.1.11-.53.25-.99.25-.99.19-.61.36-.95.53-1.41a15.25 15.25 0 0 0 .54-1.8 26.83 26.83 0 0 1 1.06-2.96c.99-2.55 1.62-5.24 2.51-8.99l.6-2.64s.68-3.21 1.56-8.35c.47-3.74.8-6.83 1.03-9.1.24-2.4.33-3.53.37-4.94a41.76 41.76 0 0 0-.16-6.4 25.42 25.42 0 0 0-3.62-9.88 32.27 32.27 0 0 0-8-9.07 28.3 28.3 0 0 0-2.27-1.71c-3.27-2.23-6.35-3.34-8.56-4.14a46.53 46.53 0 0 0-5.21-1.55 42.07 42.07 0 0 0-5.55-.88z" id="path16" style="fill:url(#radial-gradient-2);stroke-width:.353004"/><path class="cls-1" d="M116.46 67.38c2.56.4 4.74.7 6.46.88 2.76.3 3.46.3 5.24.63 2.7.5 4.3.8 6.13 1.88 1.38.8 2.4 1.76 3.82 3.07 1.22 1.14 1.84 1.87 2.37 2.42 4.2 4.33 8.71 3.8 12.11 7.89.2.25.85 1.03 1.6 2.08 1.08 1.53 1.63 2.58 2.49 4 .7 1.15 1.63 2.66 2.95 4.67 5.62 8.56 6.59 8.6 9.43 13.89 2.34 4.37 1.8 4.55 4.68 10.05 3.66 6.99 4.67 6.96 6.04 10.33.19.48 4.08 10.5-.47 19.35-3.48 6.77-8.58 6.38-11.24 13.98-.6 1.69-1.12 3.93-2.83 7.2a39.3 39.3 0 0 1-4.21 6.4c-1.92 2.4-3.53 3.82-6.43 6.42-4.8 4.27-7.25 6.4-9.24 6.4-3.17 0-5.5-2.76-7.4-5.05-4.09-4.82-5.29-10.28-5.64-13.89a18.34 18.34 0 0 0 2.76-4.52 22.1 22.1 0 0 0 1.5-6.4c.27-2.12.23-3.25.3-5.25a63.39 63.39 0 0 1 1.66-12.43c.4-1.63.24-.59 2.14-6.91a127.93 127.93 0 0 0 2.88-11.11s.64-3.06 1.46-7.97c.43-3.57.74-6.53.96-8.69.22-2.29.3-3.37.35-4.71a40.54 40.54 0 0 0-.15-6.12 24.67 24.67 0 0 0-3.36-9.42 30.57 30.57 0 0 0-7.42-8.7c-.66-.53-.91-.7-1.34-1.01l-.77-.62c-1.51-1.27-3.5-3.9-6.4-5.4-.97-.52-2.4-1.07-2.53-1.13-.9-.36-1.58-.58-1.98-.71a56.89 56.89 0 0 0-5.92-1.5z" id="path17" style="stroke-width:.353004"/><path class="cls-5" d="M32.65 157.86c.23.26.58.68.97 1.21 3.41 4.62 3.28 8.54 4.91 12.48.82 1.98 2.4 4.71 5.74 7.49 10.35-18.73 11.62-33.12 10.74-43-.8-8.92-3.77-18.9-.53-33.24a56.43 56.43 0 0 1 5.48-14.77 55.1 55.1 0 0 1 15.43-17.65 45.27 45.27 0 0 0-7.41 4.13c-2.97 2.04-4.95 3.91-7.77 6.64-.44.43-4.07 3.93-7.37 7.7-8.4 9.6-17.22 23.86-18.57 26.05a33.27 33.27 0 0 0-1.12 10.38c.54 10.43 5.9 14.97 4.59 22.87-.41 2.26-1.49 5.74-5.09 9.71z" id="path18" style="stroke-width:.353004"/><path class="cls-6" d="M68.19 146.23c-.33-4.42-.42-4.92-.7-8.63-.59-7.6-.49-8.57-1-12.2a66.26 66.26 0 0 0-1.07-5.78 3.68 3.68 0 0 0-.92.32c-5.75 2.94 3.1 18.58-2.42 35.33-3.63 11.08-12.44 19.25-13.77 20.46a51.07 51.07 0 0 1-4.04 3.3c3.53 3.83 5.11 5.56 5.19 5.62l.04.03.2.15a6.35 6.35 0 0 1 1.27 1.37c.44.63.65 1.17 1.33 3.42.54 1.76.56 2.58 1.25 2.93.79.41 1.84-.1 2.82-.58a9.15 9.15 0 0 0 2.47-1.75c3.75-3.8 2.8-2.32 5.34-5.2a83.86 83.86 0 0 0 8.33-11.14c.68-1.09 1.22-2 1.58-2.63a31.12 31.12 0 0 1-2.51-4.67 35.73 35.73 0 0 1-2.69-11.06l-.33-4.44c-.21-2.9-.34-4.42-.37-4.85z" id="path19" style="stroke-width:.353004"/><path class="cls-7" d="M33.06 158.28c2.59-2.4 5.6-6.06 6.17-10.86.61-5.23-2.08-8.4-3.87-14.47-1.25-4.28-2.2-10.48-.7-18.77a55.33 55.33 0 0 0-4.98 8.9 58.6 58.6 0 0 0-3.31 9.9c-.84 3.32-1.27 5.02-1.38 7.57-.1 2.41-.23 5.46 1.3 8.75.73 1.6 1.6 2.76 3.1 4.74a45.27 45.27 0 0 0 3.67 4.24z" id="path20" style="stroke-width:.353004"/><path class="cls-5" d="M138.1 73.84a46.02 46.02 0 0 0 7.64 15.22c2.08 2.72 2.56 3.08 3.65 4.76 4.61 7.1 2.94 15.5 1.68 24.47-1.46 10.42-2.82 20.15-2.28 27.96.48 7.08 2.87 17.46 12.26 29.85a23.98 23.98 0 0 0 4.45-6.88c1.48-3.53 1.5-6.12 4-9.79a26.66 26.66 0 0 1 2.06-2.6c2.51-2.86 4.06-3.63 5.6-5.25 2.25-2.34 3.04-4.95 3.66-7.02 2.23-7.42-.42-13.94-1.4-16.22-1.15-2.72-1.38-2.04-4.39-7.14-.32-.55-.62-1.06-.9-1.57-3.89-6.9-3.59-8.82-7.47-14.73-3.01-4.59-3.33-3.64-5.95-7.96-1.69-2.78-3.46-6.3-6.52-10.71a15.5 15.5 0 0 0-3.6-3.85c-.94-.7-1.17-.68-3.88-2.14-2.83-1.52-4.24-2.3-5.67-3.45a19.06 19.06 0 0 1-2.93-2.95z" id="path21" style="stroke-width:.353004"/><path class="cls-7" d="M170.64 112.49a46.08 46.08 0 0 0-3.44 11.26c-2.47 14.61 2.89 26.57 5.62 31.72a18.97 18.97 0 0 0 6.21-6.43c2.52-4.33 2.52-8.47 2.53-10.67a24.2 24.2 0 0 0-2.71-11.16c-.95-1.82-1.54-2.37-2.72-4.17-1-1.52-1.74-2.96-3.21-5.84a124.2 124.2 0 0 1-2.28-4.71z" id="path22" style="stroke-width:.353004"/><path class="cls-6" d="M142.84 126.62c-.06 1.97-.1 5.3.09 9.38.6 12.96 1.53 32.8 12.77 38.57a14.86 14.86 0 0 0 5.34 1.53c-.83 1-2 2.34-3.5 3.86-2.93 2.98-2.68 2.14-6.7 5.87-1.62 1.49-3 2.86-5.15 3.02a6.1 6.1 0 0 1-1.18-.03c-3.37-.42-5.94-3.99-6.7-5.1a24.9 24.9 0 0 1-5.49-13.74 18.57 18.57 0 0 0 1.64-2.26c3.4-5.5 2.97-11.41 2.9-13.09-.19-4.58.76-12.65 5.98-28.01z" id="path23" style="stroke-width:.353004"/><path d="M104.13 161.98a5.69 5.69 0 0 0-2.93.51c-1.49.79-2.12 2.2-2.52 3.04-.64 1.35-2.6 5.54-4.46 7.35-3.1 2.98-8.4 2.19-10.47 1.88a17.97 17.97 0 0 1-8.5-3.77 16.54 16.54 0 0 0 4.3 3.85c4.7 2.88 11.73 3.83 16.5.78s4.43-8.21 7.31-8.37c3.02-.15 3.18 5.54 8.6 7.92 5.43 2.37 11.93-.31 13.85-1.1a23.46 23.46 0 0 0 4.57-2.48c-7.87 3.88-12.14 3.11-14.56 1.8-4.76-2.57-9.59-11.23-11.7-11.41z" id="path24" style="stroke-width:.353004;fill:#bfbebe;opacity:.7"/><path d="M103.61 160a5.7 5.7 0 0 0-2.93.5c-1.48.79-2.11 2.22-2.5 3.04-.74 1.56-2.58 5.44-4.47 7.35-3.1 3.12-8.14 2.8-10.24 2.67a17.92 17.92 0 0 1-8.34-2.72 19.32 19.32 0 0 0 8.05 4.1c1.51.35 7.49 1.76 12.35-1.3 5.05-3.18 4.69-8.52 7.6-8.74 3.19-.25 3.36 6.15 9.34 8.74 5.98 2.58 13.84-.37 15.48-1a26.78 26.78 0 0 0 2.5-1.08c-7.96 2.67-12.46 1.58-15.15-.15-5.01-3.23-7.3-11.01-11.69-11.42z" id="path25" style="stroke-width:.353004;fill:#dbd8d7"/><path d="M118.93 147.55c-1.26-4.91-10.09-6.84-15.16-7-5.75-.19-14.74 1.66-16.08 6.38-1.3 4.59 4.72 11.8 15.92 15.53 10.7-3.18 16.52-10.22 15.32-14.91z" id="path26" style="stroke-width:.353004;fill:#955e3f"/><path class="cls-1" d="M108.21 147.42c0-1.08-2.59-2.12-4.76-2.2-2.29-.07-5.02.91-5.06 2.01-.04 1.1 2.66 2.34 5.05 2.34 2.2 0 4.77-1.06 4.77-2.15z" id="path27" style="stroke-width:.353004"/><path d="M91 104.33c.88 4.8-4.11 9.77-8.95 11.44-3.84 1.32-10.02 1.4-12.75-2.48-3.23-4.58-.3-12.82 5.51-15.58 6.36-3.02 15.15 1.01 16.18 6.62z" id="path28" style="fill:url(#radial-gradient-3);stroke-width:.353004"/><path d="M91 106.65c.88 4.81-4.11 9.78-8.95 11.44-3.84 1.32-10.02 1.41-12.75-2.47-3.23-4.59-.3-12.82 5.51-15.59 6.36-3.01 15.15 1.02 16.18 6.62z" id="path29" style="fill:url(#radial-gradient-4);stroke-width:.353004"/><path d="M118.98 106.68c-.89 4.81 4.11 9.77 8.95 11.44 3.84 1.32 10.02 1.41 12.74-2.47 3.24-4.59.3-12.82-5.5-15.59-6.36-3.01-15.15 1.03-16.19 6.62z" id="path30" style="fill:url(#radial-gradient-5);stroke-width:.353004"/><path d="M118.36 108.53c-.9 4.8 4.1 9.77 8.94 11.44 3.84 1.32 10.02 1.4 12.74-2.47 3.24-4.58.3-12.83-5.5-15.6-6.36-3-15.15 1.02-16.18 6.63z" id="path31" style="fill:url(#radial-gradient-6);stroke-width:.353004"/><path class="cls-15" d="M121.78 109.46a7.79 7.79 0 0 1 6.48-7.62 8.28 8.28 0 0 1 8.75 4.12c-.05.59-.39 4.02-3.24 5.87-3.24 2.1-8.5 1.35-12-2.37z" id="path32" style="stroke-width:.353004"/><ellipse class="cls-16" cx="126.44" cy="108.05" rx="2.96" ry="2.79" id="ellipse32" style="stroke-width:.353004"/><path class="cls-15" d="M86.7 109.21a7.78 7.78 0 0 0-6.49-7.63 8.28 8.28 0 0 0-8.75 4.12c.05.6.39 4.03 3.24 5.88 3.24 2.09 8.49 1.34 12-2.37z" id="path33" style="stroke-width:.353004"/><ellipse class="cls-16" cx="82.03" cy="107.8" rx="2.96" ry="2.79" id="ellipse33" style="stroke-width:.353004"/></g></svg>