<svg width="200" height="200" xmlns:xlink="http://www.w3.org/1999/xlink" xmlns="http://www.w3.org/2000/svg"><defs><linearGradient xlink:href="#a" id="b" x1="4" y1="32" x2="60" y2="32" gradientUnits="userSpaceOnUse" gradientTransform="translate(-214.28 -14.28) scale(3.5715)"/><linearGradient id="a" x1="7.94" x2="7.94" y1="15.08" y2="1.85" gradientTransform="translate(0 .03) scale(3.77945)" gradientUnits="userSpaceOnUse"><stop stop-color="#54c0cd" offset="0"/><stop stop-color="#40dd9d" offset="1"/></linearGradient></defs><g transform="matrix(.8 0 0 .8 20 20)"><circle style="fill:url(#b);fill-opacity:1;stroke:#000;stroke-width:0;stroke-linecap:square;stroke-linejoin:round;stroke-miterlimit:4;stroke-dasharray:none;paint-order:stroke markers fill" cx="-100" cy="100" r="100" transform="rotate(-90)"/><path style="fill:#000;fill-opacity:1;stroke:#000;stroke-width:.264583px;stroke-linecap:butt;stroke-linejoin:miter;stroke-opacity:1" d="m516.16 333.26-4.24 10h-22.66l-4.23-10" transform="translate(-337.37 -130.7) scale(.87372)"/><g style="fill:#fff;fill-opacity:1;stroke-width:1.32292;stroke-miterlimit:4;stroke-dasharray:none"><path style="fill:#fff;fill-opacity:1;stroke:#000;stroke-width:1.32292;stroke-linecap:butt;stroke-linejoin:miter;stroke-miterlimit:4;stroke-dasharray:none;stroke-opacity:1" d="M128.74 197.67v22.41L105 215.07v-17.4m0 3.16v14.24l-22.16-4.49v-9.75" transform="translate(-23.69 -29.95) scale(.87372)"/></g><g style="fill:#fff;fill-opacity:1;stroke-width:1.32292;stroke-miterlimit:4;stroke-dasharray:none"><path style="fill:#fff;fill-opacity:1;stroke:#000;stroke-width:1.32292;stroke-linecap:butt;stroke-linejoin:miter;stroke-miterlimit:4;stroke-dasharray:none;stroke-opacity:1" d="M128.74 197.67v22.41L105 215.07v-17.4m0 3.16v14.24l-22.16-4.49v-9.75" transform="matrix(-.87372 0 0 .87372 223.69 -29.95)"/></g><path style="fill:#fff;fill-opacity:1;stroke:#000;stroke-width:2.64583;stroke-linecap:butt;stroke-linejoin:miter;stroke-miterlimit:4;stroke-dasharray:none;stroke-opacity:1" d="M513.31 318.18h46.03s.08-5.12 0-5.74c-.5-3.84-1.2-4.16-2.4-6.2-1.2-2.05-31.5-32.09-33.32-35.02-1.75-2.84-11.63-52.6-11.63-52.6h-22.8s-9.88 49.76-11.63 52.6c-1.81 2.93-32.12 32.97-33.31 35.02-1.2 2.04-1.9 2.36-2.4 6.2-.09.62 0 5.74 0 5.74h46.02" transform="translate(-337.37 -130.7) scale(.87372)"/><path style="fill:#fff;fill-opacity:1;stroke:#000;stroke-width:1.32292;stroke-linecap:butt;stroke-linejoin:miter;stroke-miterlimit:4;stroke-dasharray:none;stroke-opacity:1" d="M500.6 333.4h-2.79v1.2h-7.4l-2.64-21.6v-95.83c.05-7.71 7.72-34.72 12.82-34.87 5.1.15 12.77 27.16 12.83 34.87V313l-2.65 21.61h-7.4v-1.2h-2.78" transform="translate(-337.37 -130.7) scale(.87372)"/><path style="fill:none;stroke:#000;stroke-width:1.32292;stroke-linecap:butt;stroke-linejoin:miter;stroke-miterlimit:4;stroke-dasharray:none;stroke-opacity:1" d="M487.77 217.17h25.65m-25.65 23.96h25.65m-25.65 23.95h25.65m-25.65 23.96h25.65M487.77 313h25.65" transform="translate(-337.37 -130.7) scale(.87372)"/><path style="fill:#fff;fill-opacity:1;stroke:#000;stroke-width:1.32292;stroke-linecap:butt;stroke-linejoin:miter;stroke-miterlimit:4;stroke-dasharray:none;stroke-opacity:1" d="M487.77 313v32.8h6.62v-11.2h-3.97zm25.65 0v32.8h-6.63v-11.2h3.98z" transform="translate(-337.37 -130.7) scale(.87372)"/><g transform="translate(-22.35 -29.95) scale(.87372)"><circle style="fill:#000;fill-opacity:1;stroke:#000;stroke-width:.0264583;stroke-linecap:square;stroke-linejoin:bevel;stroke-miterlimit:4;stroke-dasharray:none;paint-order:stroke markers fill" cx="129.86" cy="222.75" r=".4"/><circle style="fill:#000;fill-opacity:1;stroke:#000;stroke-width:.0264583;stroke-linecap:square;stroke-linejoin:bevel;stroke-miterlimit:4;stroke-dasharray:none;paint-order:stroke markers fill" cx="129.86" cy="224.89" r=".4"/><circle style="fill:#000;fill-opacity:1;stroke:#000;stroke-width:.0264583;stroke-linecap:square;stroke-linejoin:bevel;stroke-miterlimit:4;stroke-dasharray:none;paint-order:stroke markers fill" cx="129.86" cy="227.03" r=".4"/></g><g transform="translate(-4.57 -29.95) scale(.87372)"><circle style="fill:#000;fill-opacity:1;stroke:#000;stroke-width:.0264583;stroke-linecap:square;stroke-linejoin:bevel;stroke-miterlimit:4;stroke-dasharray:none;paint-order:stroke markers fill" cx="129.86" cy="222.75" r=".4"/><circle style="fill:#000;fill-opacity:1;stroke:#000;stroke-width:.0264583;stroke-linecap:square;stroke-linejoin:bevel;stroke-miterlimit:4;stroke-dasharray:none;paint-order:stroke markers fill" cx="129.86" cy="224.89" r=".4"/><circle style="fill:#000;fill-opacity:1;stroke:#000;stroke-width:.0264583;stroke-linecap:square;stroke-linejoin:bevel;stroke-miterlimit:4;stroke-dasharray:none;paint-order:stroke markers fill" cx="129.86" cy="227.03" r=".4"/></g></g></svg>