<svg width="200" height="200" xmlns="http://www.w3.org/2000/svg"><g transform="translate(20 20) scale(.25333)"><circle style="font-variation-settings:normal;display:inline;vector-effect:none;fill:#e2d4b0;fill-opacity:1;fill-rule:evenodd;stroke-width:1.97368;stroke-linecap:butt;stroke-linejoin:miter;stroke-miterlimit:4;stroke-dasharray:none;stroke-dashoffset:0;stroke-opacity:1;-inkscape-stroke:none;stop-color:#000" cx="315.8" cy="315.8" r="315.8"/><path style="display:inline;fill:#a37d5e" d="M291.4 481.7A655 655 0 0 1 141 457.9c-8.1-2.3-8.8-2.5-8.6-3.3.2-.5 6.3-33.5 13.7-73.3l16.8-90a764 764 0 0 0 11.5-68.2c0-1 .3-1.4.6-1.2.3.3.9-.8 1.9-3.5a80.3 80.3 0 0 1 39.2-44.1c2.6-1.3 4.5-2.5 4.4-2.8-.3-.6 6.9-2 14.7-2.8 25.7-3 58.3-2.4 87 1.3a169.2 169.2 0 0 0 13 1.4 474.2 474.2 0 0 1 140.6 46.5c7.1 3.3 13.6 6.5 13.4 6.7a63.8 63.8 0 0 0-19.3 0 135.3 135.3 0 0 0-38.3 12c-11.5 5.9-15.4 12-17.5 27.3-.8 5.8-1 19.3-.2 27.7 1.7 20.5 7.2 53 12.4 73.2 5.4 21.2 10.8 36.2 16 44.2 1 1.6 1.3 2.5 1 2.6-.8.3-12 1.7-18 2.4-9.7 1-40.2.5-50.6-.8l-2-.2-.2 2.4v2.7l6.6.8a364 364 0 0 0 53.2-.5c-.2.1-.3 12.1-.3 26.7 0 24.8 0 26.4-.7 26.6a624 624 0 0 1-81.4 9.6c-9.2.6-48.2.8-58.5.4zm9.3-214.5c4.5-2.1 6.9-6.1 5.8-9.7-.3-1-1.3-2.5-2.5-3.7l-2-2 3.7.2 3.7.3.3-2.8c.2-1.5.2-3 0-3.3-.3-.9-9.6-1.3-16.4-.7-7.3.5-17.9 2.4-18.9 3.3-.3.3.8 5.4 1.4 6 0 .2 1.7 0 3.6-.5 4.5-1.1 4.7-1 3.4.5-3.8 4.4-1 10.8 5.7 13 3.8 1.2 8.9 1 12.2-.6zm237 71c0-.4.1-.5.3-.2v.8c-.2.2-.3 0-.3-.5zm.5-6.6c0-.7 0-1 .2-.5v1.2c-.1.3-.2 0-.2-.7zm0-16.9c0-.7 0-.9.2-.5v1.3c-.1.3-.2 0-.2-.8zm-.5-6.3c0-.5.1-.6.3-.3v.8c-.2.2-.3 0-.3-.5zm-23.6-65.8c-.6-.6-.6-.7.1-.1l.7.7c0 .4-.3.1-.8-.6zm-5.1-5c-.5-.7-.5-.7.2-.2.4.3.7.7.7.8 0 .3-.4 0-.9-.6zM150.8 182c0-.5 0-.6.2-.3.1.3.1.7 0 .8-.1.2-.2 0-.2-.5zm0-9.3c0-.5 0-.6.2-.2.1.3.1.6 0 .8-.1.1-.2-.2-.2-.6z"/><path style="display:inline;fill:#72563c" d="M395 419.5c-4.7-.1-17-.9-20.2-1.3-2-.2-2.2-.3-2.2-1.4 0-.6.1-1.7.3-2.4l.2-1.2 2.6.3c12 1.5 43.1 1.6 54.2.2a157 157 0 0 0 13.8-2c0-.2-1-2.3-2.4-4.8-8.6-15.4-16.7-44.5-22.8-81.4-5.4-33.3-6.3-52.1-3.3-66.8 1.9-9.3 5.1-14.8 11-18.8 9-6 29-12.9 44.8-15.3 6-.9 13.2-.8 17.1.2 8.1 2 21.8 12.3 29.2 21.7 10 12.8 17.4 34.3 20.2 58.6 1 8.6 1 27.3 0 36.4-1.9 17.6-6.1 36.6-9.2 41.4-7 11-32.2 22.3-68.3 30.3a227 227 0 0 1-65 6.3zm122-40.4c.1 0 0-17.7-.3-39.2l-.5-45V289l8-1.4c4.2-.8 8-1.5 8.3-1.7.3-.1.1-1.4-.8-4.2l-1.4-4.1-10 .7c-6.3.6-20.1 2.5-39 5.3l-30.4 4.6-1 .3.7 4c.4 2.1.8 4 1 4.3 0 .1 12-1.1 26.5-2.9a886 886 0 0 1 26.5-2.9c.2.2 3.6 83.6 3.6 87.5v1.4l4.3-.3a35 35 0 0 0 4.5-.5zM291.7 268.3h.8c.2.2 0 .3-.5.3s-.6-.1-.3-.3zm3.8 0h.8c.1.2-.1.3-.5.3-.5 0-.6-.1-.3-.3zm11-16.4h1c.3.1 0 .2-.6.2-.5 0-.8 0-.5-.2zm3-3.7c0-.5.1-.6.3-.3v.8c-.2.2-.3 0-.3-.5zm-22-2.2h.8c.1.2-.1.3-.5.3-.5 0-.6-.1-.3-.3zm3.8-.4h1c.3.1 0 .2-.5.2-.6 0-.8 0-.5-.2zm16 0c.3-.1.7-.1.8 0 .1.2-.1.3-.6.3-.4 0-.5-.2-.2-.3zm-134.7-25.4a54.7 54.7 0 0 1-21-32.8c-1-5.2-.9-14.8.3-20.4 1-4.9 2.1-6.6 5-7.7l2-.7 30 6.4 30.9 6.6c.3.2-1.4 1.3-4 2.7a79.6 79.6 0 0 0-39.4 44.8c-.5 1.5-1 2.8-1.2 2.8zM388.4 183a523.7 523.7 0 0 0-53-11.9l21.6-11c20.1-10 22-10.8 23.5-10.6 1 .1 2.2.5 2.8 1a33 33 0 0 1 6 12.6 33 33 0 0 1 1.2 11.3c0 8.3-.2 9.1-2 8.6z"/><path style="display:inline;fill:#010100" d="M508.2 378.5c0-3.9-3.4-87.3-3.6-87.5-.1-.1-12 1.2-26.5 3-14.5 1.7-26.5 3-26.6 2.8l-1-4.4-.7-4 1.1-.2 30.4-4.6c18.9-2.8 32.7-4.7 39-5.3l10-.7 1.4 4c1 3 1.1 4.2.8 4.3-.3.2-4 1-8.4 1.7l-7.9 1.4v6l.5 44.9c.3 21.5.4 39.1.3 39.2l-4.5.5-4.3.3zM291 268.2c-8.5-1.5-12.4-9-7.4-14 1.3-1.4 1.2-1.4-3.6-.3-2 .5-3.8.8-4 .7a21 21 0 0 1-1-3l-.7-2.7 3.6-.9c9-2 21.2-3 28.8-2.3l3.3.3-.2 2.1c-.5 4.3-.1 4-4.5 3.8l-4-.2 1.6 1.1a8.8 8.8 0 0 1 3.7 6.6c0 5.8-7.8 10.2-15.6 8.8z"/></g></svg>