<svg height="200" width="200" viewBox="0 0 2.563 2.563" xmlns="http://www.w3.org/2000/svg"><g transform="matrix(.8 0 0 .8 .256 .256)"><rect fill="#f88a14" rx=".273" ry=".273" height="2.563" width="2.563" style="stroke-width:.390625"/><path d="M.772.597c1.133 0 1.133 1.137 1.133 1.137M.77 1.123c.613-.004.613.61.613.61" fill="none" stroke="#fff" stroke-linecap="round" stroke-width=".305"/><path d="M1.035 1.721a.436.436 0 0 1-.096.256c-.07.09-.223.219-.27.22a2.95 2.95 0 0 0 .1-.22.256.256 0 0 1-.258-.256c0-.14.116-.255.258-.255.142 0 .266.114.266.255z" fill="#fff" style="stroke-width:.390625"/></g></svg>