<svg width="200" height="200" xmlns="http://www.w3.org/2000/svg"><!--! Font Awesome Free 6.2.0 by @fontawesome - https://fontawesome.com License - https://fontawesome.com/license/free (Icons: CC BY 4.0, Fonts: SIL OFL 1.1, Code: MIT License) Copyright 2022 Fonticons, Inc.--><path style="fill:#6800a5;fill-opacity:1;stroke-width:.312481" d="M100 30c-44.2 0-80 29.1-80 65 0 14 5.5 27.1 15 37.7a45.5 45.5 0 0 1-6.8 19.7 60.2 60.2 0 0 1-6.7 9A5 5 0 0 0 25 170c9 0 18-2.8 25.5-6a92.6 92.6 0 0 0 17-9.6A96 96 0 0 0 100 160c44.2 0 80-29.1 80-65s-35.8-65-80-65zM48.8 64.7a2 2 0 0 1 .7.1l27.2 9c.8.4 1.4 1.2 1.4 2 .8 31.7 25.7 55.6 42.3 57.3a2 2 0 0 1 1.8 2v.1a2 2 0 0 1-2.1 2.1c-36.6-1.6-70.7-44-73.3-70.3-.2-1.2.8-2.2 2-2.3zm96.5 0c1.1 0 2 1 2 2.3-1.8 17.4-17.5 42-38.5 57-3-1.8-6-4.4-8.9-7.3a65.5 65.5 0 0 0 16-40.8 2 2 0 0 1 1.4-2l27.2-9a2.2 2.2 0 0 1 .8-.2zM85 129.1c2.3 1.5 4.6 3 7 4.2a56 56 0 0 1-18.1 4c-1.2 0-2.2-.9-2.2-2v-.1c0-1 .8-2 1.8-2a30 30 0 0 0 11.5-4.1z"/><path style="fill:#fff;fill-rule:evenodd;stroke:#000;stroke-width:.00714598;stroke-miterlimit:7.9;paint-order:markers stroke fill" d="M116.4 136.91c-9.46-1.14-19.34-5.04-28.83-11.37-18.78-12.51-34.93-34-39.66-52.76a52.65 52.65 0 0 1-1.06-6.16c0-.62.73-1.46 1.48-1.7.57-.2 1.42.06 14.3 4.32a708.1 708.1 0 0 1 14.18 4.78c.85.44 1.12 1.13 1.25 3.15a65.43 65.43 0 0 0 6.21 24.49c6.6 13.84 17.88 25.24 29.58 29.88a30.3 30.3 0 0 0 6.08 1.6c.81.1 1.11.23 1.57.68.47.48.56.7.56 1.38 0 .7-.09.9-.59 1.4-.57.56-.63.58-1.86.57-.7-.01-2.14-.13-3.2-.26zm-43.27.17c-1.04-.43-1.61-1.72-1.16-2.6.45-.86.84-1.05 2.89-1.44 2.67-.5 5.8-1.56 8.22-2.78l1.98-1 2.13 1.35c1.17.75 2.69 1.67 3.37 2.04l1.26.68-3.17 1.05a56.72 56.72 0 0 1-9.94 2.36c-2.26.31-5.2.49-5.58.34z"/><path style="fill:#fff;fill-rule:evenodd;stroke:#000;stroke-width:.00714598;stroke-miterlimit:7.9;paint-order:markers stroke fill" d="M107.5 123.02a45.7 45.7 0 0 1-5.77-4.73l-1.7-1.62.88-1.02c2.78-3.25 6-8.17 8.17-12.5 3.91-7.83 6.05-15.78 6.81-25.32.22-2.69.27-2.94.65-3.31.3-.3 4.15-1.64 14.65-5.12l14.24-4.7.58.27c1.25.6 1.4 2.01.6 5.83-2.82 13.46-12.36 29.46-25.26 42.33a103.26 103.26 0 0 1-11.85 10.23l-.72.51z"/></svg>