<svg class="converse-svg-logo" width="200" height="200" xmlns="http://www.w3.org/2000/svg"><circle style="font-variation-settings:normal;opacity:1;vector-effect:none;fill:#fff;fill-opacity:1;fill-rule:evenodd;stroke-width:1.3866;stroke-linecap:butt;stroke-linejoin:miter;stroke-miterlimit:4;stroke-dasharray:none;stroke-dashoffset:0;stroke-opacity:1;-inkscape-stroke:none;stop-color:#000;stop-opacity:1" cx="100" cy="100" r="75"/><path class="cls-3" d="M118.95 65.39c0 8.58-13.39 8.58-13.28 0-.1-8.59 13.28-8.59 13.28 0z"/><path class="cls-4" d="M100 20a80 80 0 1 0 80 80 80 80 0 0 0-80-80ZM81.4 140.58c-.1-8.12 12.58-8.12 12.58 0 0 8.13-12.68 8.13-12.58 0zm36.24-45.77a36.31 36.31 0 0 1-6.13 2.62 5.82 5.82 0 0 0-2.87 2.12l-14.27 19.77a.62.62 0 0 1-1.13-.37v-16.32a1.18 1.18 0 0 0-1.4-1.15c-7.03 1.36-13.77 3.5-19.47 9.09-17.69 17.32-13.41 48.18 7.33 60.7A73.97 73.97 0 0 1 38 140.61C16.23 101.2 33.71 39.65 81.07 29.8c21.37-4.45 53.9 2.35 56.4 28.64 1.4 14.66-7.08 29.36-19.83 36.36z"/></svg>