<svg version="1.0" width="200" height="200" viewBox="0 0 167.32 155.38" xml:space="preserve" xmlns:xlink="http://www.w3.org/1999/xlink" xmlns="http://www.w3.org/2000/svg"><defs><linearGradient id="a"><stop style="stop-color:#b0b2af;stop-opacity:1" offset="0"/><stop style="stop-color:#d4d6d3;stop-opacity:1" offset="1"/></linearGradient><linearGradient id="b"><stop style="stop-color:#625e5c;stop-opacity:1" offset="0"/><stop style="stop-color:#a6a8a5;stop-opacity:1" offset="1"/></linearGradient><linearGradient id="c"><stop style="stop-color:#e1a56e;stop-opacity:1" offset="0"/><stop style="stop-color:#a66a33;stop-opacity:1" offset="1"/></linearGradient><linearGradient id="d"><stop style="stop-color:#ec7b74;stop-opacity:1" offset="0"/><stop style="stop-color:#d63a45;stop-opacity:1" offset="1"/></linearGradient><linearGradient x1="2.78" y1="5.57" x2="2.78" y2="2.94" id="f" xlink:href="#a" gradientUnits="userSpaceOnUse" gradientTransform="translate(-.43 -.43) scale(116.25157)"/><linearGradient x1="2.78" y1="5.57" x2="2.78" y2="4.61" id="g" xlink:href="#b" gradientUnits="userSpaceOnUse" gradientTransform="translate(-.43 -.43) scale(116.25157)"/><linearGradient x1="4.82" y1="5.48" x2="3.68" y2="5.48" id="j" xlink:href="#c" gradientUnits="userSpaceOnUse" gradientTransform="translate(-.43 -.43) scale(116.25157)"/><linearGradient x1="5.34" y1="6.86" x2="3.44" y2="6.86" id="k" xlink:href="#c" gradientUnits="userSpaceOnUse" gradientTransform="translate(-.43 -.43) scale(116.25157)"/><linearGradient x1=".45" y1="6.78" x2="2.16" y2="6.78" id="l" xlink:href="#c" gradientUnits="userSpaceOnUse" gradientTransform="translate(-.43 -.43) scale(116.25157)"/><linearGradient x1=".87" y1="5.54" x2="2.03" y2="5.54" id="m" xlink:href="#c" gradientUnits="userSpaceOnUse" gradientTransform="translate(-.43 -.43) scale(116.25157)"/><linearGradient x1=".56" y1="7.43" x2=".56" y2="6.24" id="p" xlink:href="#b" gradientUnits="userSpaceOnUse" gradientTransform="translate(-.43 -.43) scale(116.25157)"/><linearGradient x1=".91" y1="6.11" x2=".91" y2="5.01" id="q" xlink:href="#b" gradientUnits="userSpaceOnUse" gradientTransform="translate(-.43 -.43) scale(116.25157)"/><linearGradient x1="5.31" y1="7.5" x2="5.31" y2="6.32" id="r" xlink:href="#b" gradientUnits="userSpaceOnUse" gradientTransform="translate(-.43 -.43) scale(116.25157)"/><linearGradient x1="4.74" y1="6.06" x2="4.74" y2="5.01" id="s" xlink:href="#b" gradientUnits="userSpaceOnUse" gradientTransform="translate(-.43 -.43) scale(116.25157)"/><radialGradient cx="2.78" cy="3.89" r="1.28" fx="2.78" fy="3.89" id="e" xlink:href="#c" gradientUnits="userSpaceOnUse" gradientTransform="matrix(65.02907 -16.25233 40.2103 160.8901 -14.38 -129)"/><radialGradient cx="3.15" cy="6.14" r="1.18" fx="3.15" fy="6.14" id="h" xlink:href="#c" gradientUnits="userSpaceOnUse" gradientTransform="matrix(116.25157 0 0 82.514 -.43 214.3)"/><radialGradient cx="3.77" cy="5.77" r=".35" fx="3.77" fy="5.77" id="i" xlink:href="#d" gradientUnits="userSpaceOnUse" gradientTransform="matrix(79.19387 -30.31207 49.8035 130.11752 -153.8 27.55)"/><radialGradient cx="3.39" cy="1.25" r=".47" fx="3.39" fy="1.25" id="n" xlink:href="#c" gradientUnits="userSpaceOnUse" gradientTransform="matrix(56.43119 16.90276 -89.1847 297.75011 296 -276.05)"/><radialGradient cx="1.51" cy="1.59" r=".77" fx="1.51" fy="1.59" id="o" xlink:href="#c" gradientUnits="userSpaceOnUse" gradientTransform="matrix(116.25156 128.93341 -23.78506 21.44557 44.3 -10.68)"/></defs><g transform="translate(32.702 10.762) scale(.15224)"><path d="m104.13 717.03 92.56-23.92-6.17 24.02zM54.9 679.3c1.53 10.2 13.98 37.3 23.28 37.69l-60.42-.08C7.54 725.65 1.42 741.7.7 749.69c-1.54 16.96-1.36 25.36 9.48 32.9-12.69 12.06-11.34 61.7 16.77 89.82l221.65-41.74c47 21.92 118.26 25.81 161.64 8.68l231.52 39.88c10.97-10.66 40.15-45.52 20.56-88.33 10.12-14.47 11.15-48.38-8.32-68.98l-165.3-.94-8.26-29.9 86.33 21c11.02-8.7 49.59-51.74 18.71-86.36 19.5-19.7 22.22-24.75 2.53-55.42l-107.28-1.98c6.95-22.57 4.56-48-11.95-74.16-35.35-55.34-70.52-112.75-72.5-186.74l18.9.04-16.96-19.93 34.48.06-29.66-15.18 27.48-19.7-41.46-.21c26.81-71.48 30.54-142 39.04-218.57 6.77-60.97-37.8-29.47-63.41 14.08-25.63 43.55-71.52 97.01-75.51 177.78l-42.34-39.94 7.2 49.2c-37.11-47.19-82.26-81.96-154.43-122.49-59.11-33.19-14.06 70.87 4.45 99.08 13.15 20.06 42.78 57.6 69.53 87.08l-12.62 23.39 9.38-1.14-4.12 12.37 19.61 3.58c0 40.72 12.55 74.03 8.96 115.4-4.38 50.31-35.81 85.56-29.45 128.3l-98.42-.55c-19.63 21.12-19.5 56.22-1.79 60.12-12.14 8.78-13 20.78-10.24 39.11z" style="fill:#858683;fill-opacity:1;stroke:none;stroke-width:.00762"/><path d="M387.62 314.84c-8.28-83.3-191.27-78.83-191.27 38.62 0 37.6 11.6 66.64 8.28 104.83-5.52 63.56-62.16 96.14-4.6 164.6 29.07 34.57 118.73 22.33 156.33 20.23 72.1-4.02 148.58-71.97 101.15-146.2-32.64-51.09-68.05-113.8-69.89-182.08z" style="fill:none;stroke:#1f1a17;stroke-width:4.10019"/><path d="M337.96 428.87c9.68 7.73 56.22 17.19 56.33-.93.11-17.84-.5-32.99-2.76-43.02-2.25-10.02-6.84-29.03-16.1-37.21-5.8-5.14-21.04-8.1-29.64-5.51-8.61 2.58-22.52 42.38-22.54 55.4-.02 17.01 5.04 23.53 14.71 31.27zm-89.54 33.99c23.43-11.43 42.61-24.1 38.11-58.78-1.75-13.51-18.97-36.37-29.85-43.62-27.48-18.32-45.92 13.5-43.62 39.95 1.7 19.66 11.92 73.87 35.36 62.45zm12.3 183.07c8.5 2.5 13.35 9.22 25.75 12.82 31.48 9.14 61.12 5.46 85.13-2.72" style="fill:none;stroke:#1f1a17;stroke-width:4.10019"/><path d="M370.2 641.58c-.16 17.75 6.48 32.07 14.66 47.52 13.87 26.17 61.4 27.3 65.29-6.44 2.7-23.5-3.48-44.81-22.48-64.44m21.38 38C460.5 676.13 511.8 758.06 433.6 816c-51.03 37.8-205.79 24.3-224.37-37.7-20.68-68.98 2.55-85.77 25.82-136.41m24.61-376.17c-34.31-53.2-91.41-101.9-161.24-142.6-47.57-27.74 8.1 74.81 23 98.38 14.88 23.57 57.64 71.59 81.35 96.63m107-60c-2.43-84.42-1.63-79.04 18.38-118.84 20.02-39.8 38.26-71.42 57.83-100.3 15.26-22.53 37.54-49.72 30.8 6.69-8.94 74.93-20.65 170.7-54.73 228.15" style="fill:none;stroke:#1f1a17;stroke-width:4.10019"/><path transform="translate(-.43 -.43) scale(116.25157)" class="fil1 str1" style="fill:none;stroke:#1f1a17;stroke-width:.03527" d="M3.17 2.26h.21l-.1.1.18.02-.2.05.09.05-.1.01m-.69-.27-.01-.2-.07.1-.14-.15.01.17-.13-.01.11.13m-.73.33-.08.11.12-.02-.09.11h.18"/><path d="M269.96 646.55c-.04-30.82 4.47-61.4-7.97-86.27-12.46-24.93-26.25-46.5-43.8-69.92m193.38 137.5c-13.16-23.51-21.53-56.3-21.53-86.57 0-23.47 8.5-64.7 19.19-88.66" style="fill:none;stroke:#1f1a17;stroke-width:4.10019"/><path d="M270.67 602.8c1.1-35.67-60.75-40.64-60.75-87.85 0-56.39 107.57-66.17 155-66.17 35.23 0 64.94-1.6 64.94 39.82 0 19.67-29.55 48.51-38.34 75.47m70.7 16.98 120.19 1.29c17.1 26.37 4.38 30.53-12.56 47.47 35.24 23.61 14.83 53.06-7.66 73.83L461.1 678.52m15 55.78 172.8-.59c19.47 17.85 1.97 45.82-15.9 51.67 4.66 2.36 23.69 8.6 26.91 22.01 3.23 13.42 6.97 39.16-18.08 63.5l-242.05-40.05M179.73 590.69 73.8 590c-17.95 17.96-4.98 42.12 11.2 45.44-11.09 7.46-18 23.35-15.48 38.95 1.42 8.72 14.1 35.46 22.63 35.46L216 679.29m-14.56 45.81-177.15-.02c-5.9 6.7-10.94 14.94-11.64 22.67-1.5 16.44 13.34 25.46 23.84 32.76-24.55 8.3-29.63 55.8-2.4 83.03l216.95-44.89" style="fill:none;stroke:#1f1a17;stroke-width:4.10019"/><path d="M131.8 590.38c-3.11 17.32-18.39 20.05-31.59 22.61 21.85 8.2 5.72 16.77.33 20.86 18.1 0 26.57 5.84 9.93 17.57 13.16.26 32.62 2.8 35.55 45.15m-58.78 28.52c0 19.15-21.6 21.97-34.9 26.14 12.6 5.56 22.08 13.12 3.67 22.04-1.81.88 33.85 3.65 9.7 21.74 17.89.97 42.78 26.97 34.28 54.9M585 733.92c0 16.88 20.61 19.54 33.2 24.47-24.38 9.88-.55 21.84 2.64 24.59-14.4 0-34.48 1.26-12.42 15.55-30.2 11.94-34.57 27.96-35.84 60.9m-60.93-168.35c-2.4-26.92 9.85-47.92 33.56-48.74-17.86-20.74 1.76-16.03 11.86-16.03-3.65-3.7-25.6-18.45 2.42-20.72-13.21-3.3-31.11-10.74-31.48-23.84" style="fill:none;stroke:#1f1a17;stroke-width:.885837"/><path d="M323.25 397.6c.02-13.02 13.93-52.82 22.54-55.4 8.6-2.59 23.83.37 29.65 5.5 9.25 8.2 13.84 27.2 16.1 37.22 2.24 10.03 2.86 25.18 2.75 43.02-.11 18.12-46.65 8.66-56.33.93-9.67-7.74-14.73-14.26-14.7-31.27zm41.67 51.18c16.94 0 32.6-.37 44.3 3.85 12.63 4.56 20.64 14.47 20.64 35.97 0 19.67-29.55 48.51-38.34 75.47 2.96 23.17 10.15 46.1 20.05 63.79 5.6-2.87 11-6.1 16.1-9.64 14.5-10.07 26.63-22.74 34.55-37.17 13.35-24.34 14.72-53.71-4.71-84.14-32.64-51.08-68.05-113.79-69.89-182.07a52.66 52.66 0 0 0-9.83-26.04 62.19 62.19 0 0 0-15.74-14.97c-14.12-9.52-32.7-14.84-52.28-15.7a131.71 131.71 0 0 0-38.78 4.07c-3.84 1-7.62 2.17-11.33 3.52-24.96 9.11-46.59 26.4-56.89 52.4-.72 1.84-1.4 3.7-2 5.62a97.54 97.54 0 0 0-4.42 29.72c0 37.6 11.6 66.64 8.28 104.83-4.58 52.72-44.34 84.14-24.9 132.4 4 9.9 10.5 20.53 20.3 32.2 7.93 9.43 20.37 15.38 35.02 19 8.02 1.98 16.7 3.26 25.67 4.04 3.05.26 6.14.47 9.24.62-.02-14.84 1.02-29.63.7-43.75-.02-1.23-.06-2.45-.1-3.67-3.09-32.4-60.64-38.63-60.64-84.18 0-9.45 3.02-17.59 8.27-24.59 26.08-34.8 107.25-41.58 146.73-41.58zm-108.24-88.32c10.88 7.25 28.1 30.1 29.85 43.62 4.5 34.68-14.68 47.35-38.11 58.78-23.44 11.42-33.66-42.8-35.36-62.45-2.3-26.46 16.14-58.27 43.62-39.95z" style="fill:url(#e);fill-opacity:1;stroke:#1f1a17;stroke-width:.885837"/><path d="M323.25 397.6c.02-13.02 13.93-52.82 22.54-55.4 8.6-2.59 23.83.37 29.65 5.5 9.25 8.2 13.84 27.2 16.1 37.22 2.24 10.03 2.86 25.18 2.75 43.02-.11 18.12-46.65 8.66-56.33.93-9.67-7.74-14.73-14.26-14.7-31.27zm41.67 51.18c16.94 0 32.6-.37 44.3 3.85 12.63 4.56 20.64 14.47 20.64 35.97 0 19.67-29.55 48.51-38.34 75.47 2.96 23.17 10.15 46.1 20.05 63.79 5.6-2.87 11-6.1 16.1-9.64 14.5-10.07 26.63-22.74 34.55-37.17 13.35-24.34 14.72-53.71-4.71-84.14-47.12-95.03-232.99-27.04-268.32 13.15-1.82 12.77-23.4 40.49-9.46 80.63 3.51 10.1 10.5 20.53 20.3 32.2 7.93 9.43 20.37 15.38 35.02 19 8.02 1.98 16.7 3.26 25.67 4.04 3.05.26 6.14.47 9.24.62-.02-14.84 1.02-29.63.7-43.75-.02-1.23-.06-2.45-.1-3.67-3.09-32.4-60.64-38.63-60.64-84.18 0-9.45 3.02-17.59 8.27-24.59 26.08-34.8 107.25-41.58 146.73-41.58zm-108.24-88.32c10.88 7.25 28.1 30.1 29.85 43.62 4.5 34.68-14.68 47.35-38.11 58.78-23.44 11.42-33.66-42.8-35.36-62.45-2.3-26.46 16.14-58.27 43.62-39.95z" style="fill:url(#f);fill-opacity:1;stroke:#1f1a17;stroke-width:.885837"/><circle cx="2.26" cy="3.62" r=".13" transform="translate(-.43 -.43) scale(116.25157)" style="fill:#000;stroke:#1f1a17;stroke-width:.03527"/><path d="M286.53 404.08c-1.75-13.51-18.97-36.37-29.85-43.62-27.48-18.32-45.92 13.5-43.62 39.95 1.7 19.66 11.92 73.87 35.36 62.45 23.43-11.43 42.61-24.1 38.11-58.78zm-24.34 1.38a14.7 14.7 0 1 1 0 29.39 14.7 14.7 0 0 1 0-29.4z" style="fill:#fff;fill-opacity:1;stroke:#1f1a17;stroke-width:.885837"/><circle cx="2.96" cy="3.5" r=".13" transform="translate(-.43 -.43) scale(116.25157)" style="fill:#000;stroke:#1f1a17;stroke-width:.03527"/><path d="M345.79 342.2c-8.61 2.58-22.52 42.38-22.54 55.4-.02 17.01 5.04 23.53 14.71 31.27 9.68 7.73 56.22 17.19 56.33-.93.11-17.84-.5-32.99-2.76-43.02-2.25-10.02-6.84-29.03-16.1-37.21-5.8-5.14-21.04-8.1-29.64-5.51zm-1.86 49.94a14.7 14.7 0 1 1 0 29.4 14.7 14.7 0 0 1 0-29.4z" style="fill:#fff;fill-opacity:1;stroke:#1f1a17;stroke-width:.885837"/><path d="M364.92 448.78c-39.48 0-120.65 6.78-146.73 41.58 17.55 23.42 31.34 45 43.8 69.92 5.93 11.85 8 25 8.56 38.85.12 1.19.16 2.41.12 3.67.3 14.12-.73 28.9-.7 43.75 32.25 1.6 66.56-2.32 86.39-3.43 4.6-.26 9.23-.77 13.84-1.54a142.86 142.86 0 0 0 41.37-13.72c-9.9-17.69-17.09-40.62-20.05-63.79a180.47 180.47 0 0 1-1.48-22.78c0-23.47 8.5-64.7 19.19-88.66-11.7-4.22-27.37-3.85-44.31-3.85z" style="fill:url(#g);fill-opacity:1;stroke:#1f1a17;stroke-width:.885837"/><path d="M262 560.28c-12.47-24.93-26.26-46.5-43.81-69.92a40.05 40.05 0 0 0-8.27 24.59c0 45.55 57.55 51.77 60.63 84.18-.55-13.85-2.63-27-8.56-38.85zm147.23-107.65c-10.7 23.97-19.2 65.2-19.2 88.66 0 7.5.52 15.15 1.5 22.78 8.78-26.96 38.33-55.8 38.33-75.47 0-21.5-8-31.4-20.63-35.97z" style="fill:#5b5857;fill-opacity:1;stroke:#1f1a17;stroke-width:.885837"/><path d="M356.36 643.12c-19.83 1.1-54.14 5.04-86.4 3.43-3.1-.15-6.19-.36-9.24-.62 8.5 2.5 13.35 9.22 25.75 12.82 31.48 9.14 61.12 5.46 85.13-2.72a68.4 68.4 0 0 1-1.4-14.45 127.9 127.9 0 0 1-13.84 1.54z" style="fill:#a66a33;fill-opacity:1;stroke:#1f1a17;stroke-width:.885837"/><path d="M371.6 656.03c-24.01 8.18-53.65 11.86-85.13 2.72-12.4-3.6-17.25-10.31-25.75-12.82a168.46 168.46 0 0 1-25.67-4.04c-6.7 14.6-13.4 26.38-19.06 37.41-7.65 14.94-13.37 28.5-14.55 45.8-.97 14.24 1.14 31.02 7.79 53.2 5.16 17.2 20.8 30.68 41.81 40.35 41.83 19.27 104.9 23.49 148.74 12.19 13.48-3.48 25.15-8.42 33.82-14.84 33.83-25.07 43.42-54.63 42.5-81.7-.74-21.24-7.94-40.95-15-55.78-4.75-9.98-9.44-17.75-12.05-22.3a79.91 79.91 0 0 1 1.1 26.44c-3.89 33.73-51.42 32.61-65.29 6.44-5.85-11.04-10.9-21.51-13.26-33.07z" style="fill:url(#h);fill-opacity:1;stroke:#1f1a17;stroke-width:.885837"/><path d="M371.6 656.03c2.35 11.56 7.41 22.03 13.26 33.07 13.87 26.17 61.4 27.3 65.29-6.44a79.91 79.91 0 0 0-1.1-26.43c-2.93-13.38-9.76-26.01-21.38-38a142.86 142.86 0 0 1-57.47 23.36c-.05 5.05.46 9.83 1.4 14.44z" style="fill:url(#i);fill-opacity:1;stroke:#1f1a17;stroke-width:.885837"/><path d="M427.67 618.22c11.62 12 18.45 24.63 21.38 38 2.61 4.55 7.3 12.32 12.05 22.3l50.55 12.56c-2.4-26.92 9.85-47.92 33.56-48.74-17.86-20.74 1.76-16.03 11.86-16.03-3.65-3.7-25.6-18.45 2.42-20.72-13.21-3.3-31.11-10.74-31.48-23.84l-65.8-.7c-7.91 14.43-20.04 27.1-34.54 37.17z" style="fill:url(#j);fill-opacity:1;stroke:#1f1a17;stroke-width:.885837"/><path d="m585 733.92-108.9.37c.92 27.08-8.67 56.64-42.5 81.7-8.67 6.43-20.34 11.37-33.82 14.85l172.8 28.6c1.27-32.95 5.64-48.97 35.84-60.91-22.06-14.29-1.98-15.55 12.42-15.55-3.19-2.75-27.02-14.7-2.64-24.59-12.59-4.93-33.2-7.59-33.2-24.47Z" style="fill:url(#k);fill-opacity:1;stroke:#1f1a17;stroke-width:.885837"/><path d="M251.04 818.65c-21-9.67-36.65-23.15-41.81-40.36-6.65-22.17-8.76-38.95-7.79-53.2H87.24c0 19.15-21.6 21.97-34.9 26.14 12.6 5.56 22.08 13.12 3.67 22.04-1.81.88 33.85 3.65 9.7 21.74 17.89.97 42.78 26.97 34.28 54.9z" style="fill:url(#l);fill-opacity:1;stroke:#1f1a17;stroke-width:.885837"/><path d="m146.02 696.57 69.97-17.27c5.65-11.03 12.35-22.82 19.06-37.41-14.65-3.62-27.09-9.57-35.02-19-9.8-11.67-16.3-22.3-20.3-32.2l-47.94-.31c-3.1 17.32-18.38 20.05-31.58 22.61 21.85 8.2 5.72 16.77.33 20.86 18.1 0 26.57 5.84 9.93 17.57 13.16.26 32.62 2.8 35.55 45.15z" style="fill:url(#m);fill-opacity:1;stroke:#1f1a17;stroke-width:.885837"/><path d="M309.77 258.13c19.59.86 38.16 6.18 52.28 15.7 2.14-3.6 4.2-7.37 6.17-11.27 29.37-58.14 40.18-146.66 48.56-216.88 6.74-56.41-15.54-29.22-30.8-6.7-19.57 28.9-37.81 60.51-57.83 100.31-20 39.8-20.8 34.42-18.38 118.84z" style="fill:url(#n);fill-opacity:1;stroke:#1f1a17;stroke-width:.885837"/><path d="M259.66 265.72c-34.31-53.2-91.41-101.9-161.24-142.6-47.57-27.74 8.1 74.81 23 98.38 11.81 18.7 41.18 52.81 64.65 78.6 6.1 6.72 11.8 12.86 16.7 18.03 10.3-26.02 31.93-43.3 56.9-52.4z" style="fill:url(#o);fill-opacity:1;stroke:#1f1a17;stroke-width:.885837"/><path d="M65.71 795c24.15-18.08-11.51-20.85-9.7-21.73 18.41-8.92 8.93-16.48-3.67-22.04 13.3-4.17 34.9-6.99 34.9-26.14H24.29c-5.9 6.69-10.94 14.93-11.64 22.66-1.5 16.44 13.34 25.46 23.84 32.76-24.55 8.3-29.63 55.8-2.4 83.03l65.9-13.63c8.5-27.93-16.4-53.93-34.28-54.9z" style="fill:url(#p);fill-opacity:1;stroke:#1f1a17;stroke-width:.885837"/><path d="m92.14 709.86 53.88-13.3c-2.93-42.35-22.4-44.88-35.55-45.14 16.64-11.73 8.18-17.57-9.93-17.57 5.4-4.1 21.52-12.66-.33-20.86 13.2-2.56 28.48-5.29 31.58-22.61l-58-.37c-17.95 17.96-4.98 42.12 11.2 45.44-11.09 7.46-18 23.35-15.48 38.95 1.42 8.72 14.1 35.46 22.63 35.46z" style="fill:url(#q);fill-opacity:1;stroke:#1f1a17;stroke-width:.885837"/><path d="M608.42 798.53c-30.2 11.94-34.57 27.96-35.84 60.9l69.25 11.46c25.05-24.34 21.3-50.08 18.08-63.5-3.22-13.41-22.25-19.65-26.91-22 17.87-5.86 35.37-33.83 15.9-51.68l-63.9.21c0 16.88 20.61 19.54 33.2 24.47-24.38 9.88-.55 21.84 2.64 24.59-14.4 0-34.48 1.26-12.42 15.55z" style="fill:url(#r);fill-opacity:1;stroke:#1f1a17;stroke-width:.885837"/><path d="m511.65 691.08 50.54 12.56c22.49-20.77 42.9-50.22 7.66-73.83 16.94-16.94 29.66-21.1 12.56-47.47l-54.4-.59c.37 13.1 18.27 20.53 31.48 23.84-28.02 2.27-6.07 17.02-2.42 20.72-10.1 0-29.72-4.7-11.86 16.03-23.7.82-35.96 21.82-33.56 48.74z" style="fill:url(#s);fill-opacity:1;stroke:#1f1a17;stroke-width:.885837"/><path d="M270.98 262.2c8.5-2.21 17.24-3.54 25.93-4l-.6-23.84-7.97 11.64-17.04-17.68 1.23 19.57-14.99-1.23zm-68.21 55.93c-4.9-5.17-10.6-11.31-16.7-18.02l-10.16 13.2 14.37-2.44-10.09 12.84 20.58.03c.6-1.91 1.28-3.78 2-5.61zm165.45-55.57c-1.97 3.9-4.03 7.66-6.17 11.27a62.19 62.19 0 0 1 15.74 14.97l10.92-.55-10.1-6.12 22.63-5.8-20.18-1.84L393 262.26l-24.77.3z" style="fill:#a66a33;fill-opacity:1;stroke:#1f1a17;stroke-width:.885837"/></g></svg>