<svg version="1.2" width="200" height="200" xml:space="preserve" xmlns="http://www.w3.org/2000/svg"><path fill="#0b3583" d="M99.553 90.841h.02v33.862l32.702 4.368v.003l4.243.568v-.003l43.122 5.762V42.428l-43.12 5.762v-.013l-4.243.568v.013l-32.702 4.368v33.855h-.02v3.86zm32.725-37.755v33.658l-29.336.21V56.582Zm41.848-4.986v38.343l-37.605.27v-34.13Zm-37.605 77.147V91.11l37.602.27v38.353Zm-33.582-34.382 29.336.21v33.668l-29.336-3.496z"/><path fill="#4d87c7" d="M100.087 86.981h-.02V53.123l-32.702-4.368v-.01l-4.243-.568v.013L20 42.428v92.973l43.122-5.762v.003l4.243-.568v-.003l32.702-4.368V90.84h.02zm-3.386-30.4v30.373l-29.336-.21V53.086Zm-33.582-4v34.133l-37.602-.271V48.1ZM25.517 129.73V91.376l37.602-.27v34.141Zm71.184-8.482-29.336 3.496V91.075l29.336-.21z"/><g fill="#4d87c7"><path d="m67.148 128.97 90.644 20.868-5.324 3.676-89.46-23.832"/><path d="m50.58 149.838 81.415-20.868 4.496.712-78.572 23.712"/></g><g fill="#4d87c7"><path d="m157.959 34.882-5.264-1.67-89.54 15.038 4.273.525z"/><path d="m132.158 48.721 4.326-.574L57.942 33.16l-7.295 1.721z"/></g><path fill="#0b3583" d="M20.344 42.231v92.926L112.809 180V20Zm79.8 49.857L58.021 88.23l-.007-44.907 42.128-7.546Zm-49.4-47.464v42.942l-25.7-2.353V49.23Zm-25.7 48.717 25.7 3.927v42.925l-25.7-10.892Zm32.981 49.94-.003-44.897 42.121 6.434v56.31z"/><path fill="#4d87c7" d="M112.792 20v160L180 135.157V42.23Zm9.206 15.774 30.62 7.547-.003 44.91-30.617 3.857zm54.586 13.455v35.984l-18.682 2.353V44.624Zm0 80.076-18.682 10.891V97.271l18.682-3.927zm-54.586 31.823v-56.31l30.617-6.434-.003 44.897z"/></svg>