<svg width="200" height="200" xmlns="http://www.w3.org/2000/svg"><path fill="currentcolor" d="M105.187 59.623s-13.139-.874-35.514 6.127C46.872 72.885 33.94 82.998 33.94 82.998s33.985-18.976 72.345-20.054zm49.008 20.632 1.708-.112s-9.786-11.874-28.518-17.658c10.53 4.28 19.695 9.952 26.81 17.769zm2.796 4.933c.262-.455 1.11 1.447 1.754 2.246.027.16.072.257-.3.18-.032-.164-.086-.212-.086-.212s-.901-.536-1.178-.916c-.276-.38-.325-1.046-.19-1.298zm22.988 56.522s2.078-23.852-35.397-29.35a121.85 121.85 0 0 0-16.831-1.25c-30.036.398-31.13-34.64-8.498-36.41 9.38-.774 20.58 4.286 31.53 9.385-.042 1.36.015 2.568.908 3.685.893 1.116 4.324 2.334 5.42 2.963 1.097.63 4.609 2.862 6.76 5.664.468-.873 4.365-3.41 4.365-3.41s-.933.02-3.106-.792c-2.172-.812-4.75-3.268-4.811-3.41-.06-.142-.101-.366.406-.467.386-.325-.487-1.38-.873-1.766-.386-.385-2.964-4.77-3.025-4.871-.06-.102-.081-.203-.264-.325-.568-.183-3.065.264-3.065.264s-3.84-1.886-5.164-5.953c.02.712-.659 1.49 0 3.126-2.002-.847-3.722-2.291-5.079-5.861-.807 2.03 0 3.321 0 3.321s-4.715-1.317-5.469-5.665c-.828 1.952 0 3.126 0 3.126s-7.687-4.011-20.459-4.07c-8.55-.784-10.331-15.826-9.539-18.358 0 0-12.334-6.5-36.612-9.372-24.28-2.872-44.191-.433-44.191-.433s43-2.064 77.449 11.883c1.171 5.238 4.694 13.961 6.591 18.154-5.429 3.754-11.551 7.284-12.505 19.803-.953 12.518 9.81 23.53 23.157 23.87 12.674.675 21.43.77 32.044 6.273 10.13 5.602 18.437 22.67 19.26 38.021.887-11.39-3.387-35.883-23.332-43.32 27.877 4.88 30.33 25.546 30.33 25.546zm-75.448-83.957-1.004-3.235s-16.55-2.94-38.804-1.358C42.469 54.742 20 62.532 20 62.532s45.974-11.568 84.53-4.779" style="stroke-width:1.28664"/></svg>