<?xml version="1.0" encoding="UTF-8" standalone="no"?>
<svg
   width="200"
   height="200"
   version="1.1"
   id="svg3"
   sodipodi:docname="kiss_linux.svg"
   inkscape:version="1.4.2 (ebf0e940d0, 2025-05-08)"
   xmlns:inkscape="http://www.inkscape.org/namespaces/inkscape"
   xmlns:sodipodi="http://sodipodi.sourceforge.net/DTD/sodipodi-0.dtd"
   xmlns="http://www.w3.org/2000/svg"
   xmlns:svg="http://www.w3.org/2000/svg">
  <defs
     id="defs3" />
  <sodipodi:namedview
     id="namedview3"
     pagecolor="#ffffff"
     bordercolor="#666666"
     borderopacity="1.0"
     inkscape:showpageshadow="2"
     inkscape:pageopacity="0.0"
     inkscape:pagecheckerboard="0"
     inkscape:deskcolor="#d1d1d1"
     inkscape:zoom="2.7155556"
     inkscape:cx="139.01391"
     inkscape:cy="132.56955"
     inkscape:window-width="1916"
     inkscape:window-height="1032"
     inkscape:window-x="0"
     inkscape:window-y="22"
     inkscape:window-maximized="1"
     inkscape:current-layer="svg3" />
  <g
     id="g3"
     transform="matrix(0.8,0,0,0.8,20,18.388732)">
    <path
       style="fill:#ffffff;stroke-width:0.938967"
       d="m 75.117371,139.10329 v -5.63381 h 49.765259 v 12.20658 H 75.117371 Z M 49.765258,101.5446 v -5.633802 h 13.14554 V 82.765258 H 37.558685 v 13.14554 H 25.352113 V 82.765258 H 37.558685 V 58.352113 h 25.352113 v 24.413145 h 75.117372 v 13.14554 h 12.20657 V 108.11737 H 49.765258 Z"
       id="path1" />
    <path
       style="fill:#fe0000;stroke-width:0.938967"
       d="m 62.910798,152.24883 v -6.57277 H 37.558685 V 133.46948 H 25.352113 V 120.32394 H 12.206573 V 82.765258 h 13.14554 V 70.558685 H 37.558685 V 82.765258 H 62.910798 V 58.352113 h -13.14554 v -13.14554 h 37.558686 v 13.14554 h 25.352116 v -13.14554 h 37.55868 v 13.14554 h 12.20657 v 12.206572 h 13.14554 v 12.206573 h 12.20658 v 37.558682 h -12.20658 v 13.14554 h -13.14554 v 12.20658 h -24.41314 v 12.20657 H 62.910798 Z m 61.971832,-13.14554 v -5.63381 H 75.117371 v 12.20658 H 124.88263 Z M 150.23474,101.5446 V 95.910798 H 138.02817 V 82.765258 H 62.910798 v 13.14554 H 49.765258 V 108.11737 H 150.23474 Z M 37.558685,89.338028 v -6.57277 H 25.352113 v 13.14554 h 12.206572 z"
       id="path2" />
    <path
       style="fill:#000000;stroke-width:0.938967"
       d="m 62.910798,164.4554 v -6.57277 H 37.558685 V 145.67606 H 25.352113 V 133.46948 H 12.206573 V 120.32394 H 0 V 82.765258 H 12.206573 V 70.558685 h 13.14554 V 58.352113 H 37.558685 V 45.206573 H 49.765258 V 33 H 87.323944 V 45.206573 H 112.67606 V 33 h 37.55868 v 12.206573 h 12.20657 v 13.14554 h 13.14554 v 12.206572 h 12.20658 V 82.765258 H 200 v 37.558682 h -12.20657 v 13.14554 h -12.20658 v 12.20658 h -13.14554 v 12.20657 h -24.41314 v 13.14554 H 62.910798 Z m 75.117372,-12.20657 v -6.57277 h 24.41314 v -12.20658 h 13.14554 v -13.14554 h 12.20658 V 82.765258 H 175.58685 V 70.558685 H 162.44131 V 58.352113 h -12.20657 v -13.14554 h -37.55868 v 13.14554 H 87.323944 V 45.206573 H 49.765258 v 13.14554 H 37.558685 V 70.558685 H 25.352113 v 12.206573 h -13.14554 v 37.558682 h 13.14554 v 13.14554 h 12.206572 v 12.20658 h 25.352113 v 12.20657 h 75.117372 z"
       id="path3" />
  </g>
</svg>
