<?xml version="1.0" encoding="UTF-8" standalone="no"?>
<svg
   height="200"
   width="200"
   viewBox="0 0 408.2 408.2"
   version="1.1"
   id="svg31"
   sodipodi:docname="libervia.svg"
   inkscape:version="1.4.2 (ebf0e940d0, 2025-05-08)"
   xmlns:inkscape="http://www.inkscape.org/namespaces/inkscape"
   xmlns:sodipodi="http://sodipodi.sourceforge.net/DTD/sodipodi-0.dtd"
   xmlns="http://www.w3.org/2000/svg"
   xmlns:svg="http://www.w3.org/2000/svg">
  <defs
     id="defs31" />
  <sodipodi:namedview
     id="namedview31"
     pagecolor="#ffffff"
     bordercolor="#666666"
     borderopacity="1.0"
     inkscape:showpageshadow="2"
     inkscape:pageopacity="0.0"
     inkscape:pagecheckerboard="0"
     inkscape:deskcolor="#d1d1d1"
     inkscape:zoom="4.09"
     inkscape:cx="99.877751"
     inkscape:cy="100"
     inkscape:window-width="1916"
     inkscape:window-height="1032"
     inkscape:window-x="0"
     inkscape:window-y="22"
     inkscape:window-maximized="1"
     inkscape:current-layer="svg31" />
  <g
     id="g32"
     transform="matrix(0.81914895,0,0,0.81914895,37.74127,38.661203)">
    <g
       fill-rule="evenodd"
       id="g2">
      <path
         d="m 77.2,283.3 c 10.2,4.8 20.7,9.2 31.4,12.9 a 525,525 0 0 0 44.3,13 c 13.1,3.3 26.3,6.5 39.5,9.5 A 118,118 0 0 1 83,336.7 c -6.3,-2 -12.5,-4.7 -17.6,-9 a 26.8,26.8 0 0 1 -6.2,-7.7 21,21 0 0 1 -2.5,-9.5 25,25 0 0 1 3.8,-12.3 37.4,37.4 0 0 1 16.7,-15"
         fill="#c11616"
         id="path1" />
      <path
         d="m 203,107.4 v 5.4 z m 0,0 c -19.6,0.5 -57.1,11.4 -78.4,24.2 -21.3,12.8 -35.5,21.8 -47.4,39.7 -24,1.3 -53.8,-0.3 -71.2,26.3 -14.7,34.5 59,45 82.8,73.9 -11.5,14.5 -37.2,21 -32.5,44.5 20.2,36 100,36.3 134.4,3.5 l 11,0.6 h 1.5 l 5,-0.2 v 0.2 -0.2 l 7,-0.4 c 34.5,32.8 114.2,32.6 134.4,-3.5 4.7,-23.5 -21,-30 -32.4,-44.5 23.7,-29 97.4,-39.4 82.7,-74 -17.4,-26.5 -47.2,-25 -71.1,-26.2 -12,-18 -26.3,-27 -47.5,-39.7 a 203.9,203.9 0 0 0 -77,-24.1 v -0.1 z"
         fill="#e52e2e"
         id="path2" />
    </g>
    <path
       d="m 328.6,283 a 316.5,316.5 0 0 1 -31.3,13 525,525 0 0 1 -44.3,13 c -13.2,3.3 -26.3,6.5 -39.6,9.5 a 118,118 0 0 0 109.5,18 c 6.2,-2 12.5,-4.7 17.5,-9 2.5,-2.2 4.7,-4.7 6.2,-7.7 1.5,-3 2.5,-6.2 2.5,-9.5 A 26,26 0 0 0 345.4,298 37.4,37.4 0 0 0 328.6,283 m -251.4,0.3 c 10.2,4.8 20.7,9.2 31.4,12.9 a 525,525 0 0 0 44.3,13 c 13.1,3.3 26.3,6.5 39.5,9.5 A 118,118 0 0 1 83,336.7 c -6.3,-2 -12.5,-4.7 -17.6,-9 a 26.8,26.8 0 0 1 -6.2,-7.7 21,21 0 0 1 -2.5,-9.5 25,25 0 0 1 3.8,-12.3 37.4,37.4 0 0 1 16.7,-15"
       fill-rule="evenodd"
       fill="#c11616"
       id="path3" />
    <path
       d="m 79.4,175.4 a 143,143 0 0 1 3.3,63.9 67.1,67.1 0 0 1 -67.9,-16 c -2.8,-2.8 -5.4,-5.9 -7.3,-9.5 -1.9,-3.6 -2.7,-7.6 -2.2,-11.6 0.6,-4.8 3.5,-9.2 7.1,-12.4 3.7,-3.3 8.1,-5.5 12.7,-7.4 17,-7 36,-9.5 54.3,-7 m 256.7,-2.7 c -2.2,0 -7,0.6 -9.2,0.7 -2.2,11.2 -3.8,22 -4.8,33.5 -0.9,10.6 1,21.6 1.1,32.3 a 68.5,68.5 0 0 0 68.3,-16 c 2.9,-2.8 5.5,-5.9 7.3,-9.5 1.8,-3.6 2.8,-7.6 2.3,-11.6 -0.7,-4.8 -3.6,-9.2 -7.2,-12.4 a 46,46 0 0 0 -12.6,-7.4 c -14.2,-6 -29.7,-9.3 -45.2,-9.6 z"
       fill-rule="evenodd"
       fill="#da1616"
       id="path4" />
    <g
       opacity="0.5"
       fill-rule="evenodd"
       id="g7">
      <path
         d="M 195.6,152.1 H 188 v 0.3 a 146.4,146.4 0 0 0 -73.5,24.5 c -7.4,5 -14.3,10.6 -20,17.3 -5.7,6.7 -10.3,14.8 -12.5,23.3 a 37.8,37.8 0 0 0 0.8,22.3 c 1.9,4.9 5,9.3 8.8,12.9 a 48,48 0 0 0 13,8.7 c 9.5,4.4 20,6.1 30.4,7.6 22.5,3 45.2,5 67.9,5.6 v -2.6 2.5 c 22.7,-0.6 45.3,-2.5 67.8,-5.6 10.4,-1.5 21,-3.2 30.5,-7.6 a 48,48 0 0 0 13,-8.7 35,35 0 0 0 8.7,-13 c 2.7,-7 2.7,-14.9 0.8,-22.2 -2.1,-8.6 -6.6,-16.5 -12.3,-23.3 -5.7,-6.8 -12.7,-12.4 -20,-17.3 a 146.4,146.4 0 0 0 -74.9,-24.6 v -0.1 h -21 z"
         fill="#d41c1c"
         id="path5" />
      <path
         d="m 82.7,239.2 -42.6,1.1 28.2,14.4 19.9,16.4 -11,12 a 331.5,331.5 0 0 0 46.3,21.2 c 15.3,5.6 31,10 47,12.3 22,2.2 44.2,2.9 64.7,0 16,-2.3 31.7,-6.7 47,-12.3 16,-5.9 31.4,-13 46.3,-21.2 l -11,-12 19.9,-16.4 28.2,-14.4 -42.3,-1 a 128.5,128.5 0 0 1 -46.7,25 c -21.1,6 -43.4,6.7 -65.3,8 -5.8,0.6 -11.5,0.2 -16.9,0 -22,-1.3 -44.2,-2 -65.3,-8 -17,-5 -32.8,-13.6 -46.4,-25 z"
         fill="#b00202"
         id="path6" />
      <path
         d="m 82.7,239.2 -42.6,1.1 28.2,14.4 19.9,16.4 -11,12 a 331.5,331.5 0 0 0 46.3,21.2 c 15.3,5.6 31,10 47,12.3 22,2.2 44.2,2.9 64.7,0 16,-2.3 31.7,-6.7 47,-12.3 16,-5.9 31.4,-13 46.3,-21.2 l -11,-12 19.9,-16.4 28.2,-14.4 -42.3,-1 a 128.5,128.5 0 0 1 -46.7,25 c -21.1,6 -43.4,6.7 -65.3,8 -5.8,0.6 -11.5,0.2 -16.9,0 -22,-1.3 -44.2,-2 -65.3,-8 -17,-5 -32.8,-13.6 -46.4,-25 z"
         fill="#b00202"
         id="path7" />
    </g>
    <g
       fill-rule="evenodd"
       fill="#930000"
       id="g11">
      <path
         d="m 177.6,213.5 c 6.4,-5.5 -8.2,-32.8 -27.6,-32.7 -15.7,0.7 -34.6,28.8 -24.8,33.2 9.9,4.4 18.8,-17 29.2,-14.5 7,3.5 18.4,18 23.2,14 z m 50.8,0 c -6.5,-5.5 8.2,-32.8 27.5,-32.7 15.8,0.7 34.7,28.8 24.8,33.2 -9.8,4.4 -18.7,-17 -29.1,-14.5 -7,3.5 -18.4,18 -23.2,14 z"
         id="path8" />
      <path
         d="m 177.6,213.5 c 6.4,-5.5 -8.2,-32.8 -27.6,-32.7 -15.7,0.7 -34.6,28.8 -24.8,33.2 9.9,4.4 18.8,-17 29.2,-14.5 7,3.5 18.4,18 23.2,14 z m 50.8,0 c -6.5,-5.5 8.2,-32.8 27.5,-32.7 15.8,0.7 34.7,28.8 24.8,33.2 -9.8,4.4 -18.7,-17 -29.1,-14.5 -7,3.5 -18.4,18 -23.2,14 z"
         id="path9" />
      <path
         d="m 177.6,213.5 c 6.4,-5.5 -8.2,-32.8 -27.6,-32.7 -15.7,0.7 -34.6,28.8 -24.8,33.2 9.9,4.4 18.8,-17 29.2,-14.5 7,3.5 18.4,18 23.2,14 z m 50.8,0 c -6.5,-5.5 8.2,-32.8 27.5,-32.7 15.8,0.7 34.7,28.8 24.8,33.2 -9.8,4.4 -18.7,-17 -29.1,-14.5 -7,3.5 -18.4,18 -23.2,14 z"
         id="path10" />
      <path
         d="m 177.6,213.5 c 6.4,-5.5 -8.2,-32.8 -27.6,-32.7 -15.7,0.7 -34.6,28.8 -24.8,33.2 9.9,4.4 18.8,-17 29.2,-14.5 7,3.5 18.4,18 23.2,14 z m 50.8,0 c -6.5,-5.5 8.2,-32.8 27.5,-32.7 15.8,0.7 34.7,28.8 24.8,33.2 -9.8,4.4 -18.7,-17 -29.1,-14.5 -7,3.5 -18.4,18 -23.2,14 z"
         id="path11" />
    </g>
    <path
       d="m 182.8,113.2 a 38.3,38.3 0 0 0 7.7,-50.6 29,29 0 0 1 20,25.3 13.7,13.7 0 0 0 -3.2,-19.6 31.4,31.4 0 0 1 17.8,28.4 c 0,5.8 -1.7,11.6 -4.9,16.5 h -37.4"
       fill-rule="evenodd"
       fill="#e52e2e"
       id="path12" />
    <path
       d="m 183.4,114 c 4.5,-5 8,-11 10,-17.4 1.2,-4 2,-8.3 1.7,-12.5 -0.3,-4.2 -1.6,-8.2 -3,-12.2 l -3.3,-9 a 31,31 0 0 1 21.3,16 L 210,68 a 36.3,36.3 0 0 1 14.7,23.6 c 0.6,3.8 0.6,7.7 0.4,11.5 -0.3,3.7 -0.8,7.2 -1.4,10.8"
       stroke="#930000"
       stroke-width="7"
       fill="none"
       id="path13" />
    <path
       d="m 213.6,78.7 a 15.7,15.7 0 0 1 -5,12.1 17.3,17.3 0 0 0 -1.6,-10.4 l 6.6,-1.7"
       fill-rule="evenodd"
       fill="#930000"
       id="path14" />
    <g
       fill-rule="evenodd"
       id="g26">
      <path
         d="m 216.7,110.9 c -0.5,0.6 -1.1,1 -1.8,1.3 l -2.2,0.8 c -1.2,0.4 -2.4,1.1 -3.7,1.3 a 5.4,5.4 0 0 1 -5.9,-4 c -0.2,-1.3 0,-2.7 0.6,-3.8 0.6,-1.2 1.7,-2 3,-2.4 a 11,11 0 0 1 5.5,-0.4 c 0.9,0.1 1.7,0.4 2.4,0.8 0.8,0.4 1.4,1 2,1.6 a 4.2,4.2 0 0 1 0.1,4.8 m -67.2,24.8 -1.2,1.5 a 2.3,2.3 0 0 1 -2.4,-0.8 2.3,2.3 0 0 1 0.3,-3.1 c 0.3,-0.6 1,-1 1.6,-1 a 2.1,2.1 0 0 1 2,1 2.1,2.1 0 0 1 -0.3,2.4 m 51.2,-37.7 2,1.3 a 2.5,2.5 0 0 0 3,1.1 3,3 0 0 0 1.1,-0.7 c 0.6,-0.6 0.9,-1.4 0.9,-2.3 A 5,5 0 0 0 207.2,95 l -1.4,-2 a 6,6 0 0 0 -3,-2 c -1,-0.2 -2,0 -2.7,0.4 a 4,4 0 0 0 -1.7,2.1 c -0.3,1 -0.2,2 0.2,2.7 0.5,0.9 1.2,1.5 2,1.9 m 3.9,27.7 1.8,0.9 c 0.5,0.5 1.2,0.8 1.9,0.8 a 2.7,2.7 0 0 0 2.7,-2 2.7,2.7 0 0 0 -1.5,-3 3,3 0 0 0 -4.3,-0.8 3,3 0 0 0 -0.6,4.1 m -21.4,3.8 2.5,1 c 0.7,0.7 1.6,1.1 2.5,1 a 3.1,3.1 0 0 0 3,-3.3 c 0,-0.5 -0.2,-1 -0.5,-1.5 a 4,4 0 0 0 -4.8,-1.8 4,4 0 0 0 -2.2,1.8 4,4 0 0 0 -0.5,2.8 m 58.2,5.4 -1,1.8 c -0.6,0.3 -1.4,0.2 -2.1,0 a 3.2,3.2 0 0 1 -1,-5.1 2.7,2.7 0 0 1 4,-0.8 2.7,2.7 0 0 1 1,2.8 3,3 0 0 1 -0.9,1.3 m 16.3,8.5 -0.6,1.4 c -0.4,0.3 -1,0.6 -1.4,0.5 a 1.5,1.5 0 0 1 -1.3,-1.2 1.5,1.5 0 0 1 0.7,-1.6 c 0,-0.4 0.3,-0.8 0.6,-1 0.3,-0.2 0.8,-0.4 1.2,-0.2 0.5,0.1 0.8,0.4 1,0.8 0,0.5 0,1 -0.2,1.3"
         fill="#d61616"
         id="path15" />
      <path
         d="m 371.4,206 a 6,6 0 0 1 -2.1,1.4 c -0.5,0.7 -1.3,1.2 -2.2,1.4 -1,0.2 -2.2,-0.1 -3,-0.8 a 4.5,4.5 0 0 1 -1.5,-2.9 c -0.1,-1 0.1,-2.2 0.6,-3.2 a 7.4,7.4 0 0 1 4,-3.4 3,3 0 0 1 1.9,-0.3 4,4 0 0 1 2.3,1 c 0.6,0.6 1,1.3 1.2,2.1 0.3,0.9 0.2,1.7 0,2.5 -0.2,0.9 -0.7,1.6 -1.2,2.2 m -16.5,27.2 a 6.3,6.3 0 0 0 3.2,3.6 7,7 0 0 0 5.6,-0.2 8,8 0 0 0 4,-4.4 8,8 0 0 0 0,-5.9 7.4,7.4 0 0 0 -8,-2.7 c -2,0.6 -3.6,2 -4.5,3.7 -1,1.8 -1,4 -0.3,5.9 m -3.4,-48.2 -1,0.9 a 4,4 0 0 1 -7,-1.4 4,4 0 0 1 0.7,-3.5 4,4 0 0 1 3.2,-1.5 c 1,-0.4 2,-0.4 3,0 a 4,4 0 0 1 1.8,2.5 c 0.2,1 0,2.1 -0.7,3 m -7.5,22.6 2.9,2.8 a 5.3,5.3 0 0 0 5.5,-3.4 c 0.4,-1 0.5,-2 0.3,-3 a 5,5 0 0 0 -5.1,-1.4 5,5 0 0 0 -3.6,5 m 37.4,-14.3 4.4,1.7 a 4.7,4.7 0 0 0 7,0.3 4.7,4.7 0 0 0 0.7,-5.5 4.7,4.7 0 0 0 -2.2,-2 5.7,5.7 0 0 0 -5.2,-3.4 5.7,5.7 0 0 0 -5.7,6 c 0,1 0.4,2 1,2.9 m 1.6,30.2 2,3 c 0.6,0.6 1.6,1 2.5,1 a 3.2,3.2 0 0 0 2.8,-2.4 3.2,3.2 0 0 0 -1.2,-3.4 3.2,3.2 0 0 0 -4,-1.5 3.2,3.2 0 0 0 -2,3.3"
         fill="#c11616"
         id="path16" />
      <path
         d="m 255.6,329.7 -1.6,3 a 5.1,5.1 0 0 1 -5.5,-1.5 5,5 0 0 1 0.7,-7.3 4.5,4.5 0 0 1 6.5,-1.6 4.5,4.5 0 0 1 1.7,5.2 c -0.4,0.9 -1,1.7 -1.8,2.2 m 48.6,-6.7 -2.5,3 a 5.3,5.3 0 0 1 -5.8,2 c -1.7,-0.4 -3,-1.8 -3.6,-3.5 a 5.3,5.3 0 0 1 1,-4.9 5.7,5.7 0 0 1 2.5,-3.2 6,6 0 0 1 4,-0.8 c 1.5,0.3 3,1.3 3.8,2.7 0.8,1.4 1,3.1 0.6,4.7 m 17.9,-3.8 3.3,-2.7 a 4,4 0 0 1 3.3,0.2 4,4 0 0 1 2,2.8 4,4 0 0 1 -0.9,3.4 4.4,4.4 0 0 1 -4.1,3.4 4.4,4.4 0 0 1 -4,-2.4 4.4,4.4 0 0 1 0.4,-4.7 M 332.2,295.4 328,293 a 5.4,5.4 0 0 0 -6.5,2.2 c -0.6,1 -1,2 -1,3.1 -0.3,2.2 0.5,4.5 1.9,6.3 1,1.3 2.4,2.5 4,3 1.6,0.5 3.4,0.4 4.9,-0.2 1.5,-0.6 2.8,-1.9 3.4,-3.4 a 6.6,6.6 0 0 0 -2.5,-8.6 m -53.9,37 -2.4,-1.1 a 3.7,3.7 0 0 0 -4.1,2.5 c -0.3,1 -0.2,2 0.2,2.8 a 3.8,3.8 0 0 0 4,1.3 c 1,-0.3 2,-1 2.5,-2.2 0.4,-1 0.4,-2.3 -0.2,-3.3 M 80.3,289 77.9,288 a 3.7,3.7 0 0 0 -4,2.5 3,3 0 0 0 0.2,2.8 3.8,3.8 0 0 0 3.9,1.3 c 1.1,-0.3 2,-1.1 2.5,-2.2 0.5,-1 0.4,-2.3 -0.2,-3.3 m 61.7,40.9 -1.9,2.9 a 5.2,5.2 0 0 1 -5.7,-1.5 5.2,5.2 0 0 1 0.5,-7.3 4.7,4.7 0 0 1 6.8,-1.5 4.7,4.7 0 0 1 1.7,5 c -0.2,1 -0.7,1.8 -1.4,2.4 m -45.7,4.8 4.4,3 a 5.1,5.1 0 0 0 4.5,2.8 5.1,5.1 0 0 0 5,-3.7 5.1,5.1 0 0 0 -2.3,-5.8 6.2,6.2 0 0 0 -2.6,-3.6 6.2,6.2 0 0 0 -4.2,-1 6.2,6.2 0 0 0 -4.4,3 c -1,1.6 -1,3.6 -0.4,5.3 m 64.1,-14.3 -1.4,0.7 c -0.4,0.3 -0.9,0.6 -1.4,0.7 -0.5,0.1 -1.1,0 -1.6,-0.3 -0.5,-0.3 -0.8,-0.8 -1,-1.3 0,-0.5 0,-1.1 0.4,-1.6 a 2,2 0 0 1 1.4,-0.9 2.3,2.3 0 0 1 3.3,-0.6 c 0.3,0.2 0.6,0.6 0.7,1 0.1,0.4 0.2,0.8 0.1,1.2 0,0.4 -0.2,0.8 -0.5,1.1 m -91.9,-4.6 -4.5,3.6 c -1.4,0.6 -3,0.5 -4.4,-0.2 a 5.4,5.4 0 0 1 -2.8,-3.8 c -0.3,-1.6 0.2,-3.3 1.3,-4.5 a 6,6 0 0 1 5.6,-4.7 6,6 0 0 1 5.4,3.3 6,6 0 0 1 -0.6,6.3 m 29.1,-9.1 2.4,-1.8 a 3.3,3.3 0 0 1 4.2,-1.6 c 0.5,0.2 1,0.6 1.4,1 0.8,1 1.2,2.1 1.2,3.3 0,1.2 -0.3,2.4 -0.9,3.4 -0.6,1 -1.2,2 -2,3 a 9,9 0 0 1 -3.7,2.8 c -1.4,0.4 -2.9,0.3 -4.2,-0.4 a 5.3,5.3 0 0 1 -2.5,-3.2 c -0.4,-1.4 -0.1,-3 0.6,-4.2 0.8,-1.2 2.1,-2 3.5,-2.3"
         fill="#b31616"
         id="path17" />
      <path
         d="m 48.5,213 2.2,1.4 2,1.4 c 0.6,0.2 1.2,0.2 1.8,0.2 0.6,-0.1 1.1,-0.4 1.6,-0.7 0.9,-0.7 1.5,-1.9 1.6,-3 0.1,-1.2 -0.2,-2.4 -0.8,-3.4 -0.6,-1 -1.4,-1.8 -2.3,-2.5 a 6,6 0 0 0 -3.8,-1.2 4.2,4.2 0 0 0 -3.7,3.1 4.5,4.5 0 0 0 1.4,4.7 m -5.2,19 c -0.6,0.5 -1.4,0.8 -2.2,1 l -2.2,0.7 c -1.5,0.5 -2.9,1.4 -4.5,1.7 -1.3,0.2 -2.6,-0.1 -3.7,-0.8 a 5.4,5.4 0 0 1 -1.8,-6.9 c 0.6,-1.2 1.6,-2 2.8,-2.5 a 9,9 0 0 1 6.8,-2.8 c 1.2,0 2.3,0.4 3.3,1 a 5.6,5.6 0 0 1 3.2,5.6 4.6,4.6 0 0 1 -1.7,3 m 11.4,-50.2 1,1 a 4,4 0 0 0 7,-1.4 4,4 0 0 0 -0.7,-3.5 4,4 0 0 0 -3.2,-1.5 c -1,-0.4 -2,-0.4 -3,0.1 a 3.6,3.6 0 0 0 -1.2,5.3 m 19.9,53.2 -1.8,0.7 c -0.4,0.5 -1,0.7 -1.7,0.7 a 2.3,2.3 0 0 1 -2,-1.7 2.3,2.3 0 0 1 0.9,-2.4 2.7,2.7 0 0 1 2.7,-1.1 c 0.8,0.1 1.5,0.7 2,1.4 0.3,0.8 0.3,1.7 0,2.4 m -2.6,-33.2 -1.9,2 c -0.8,0.2 -1.8,0.1 -2.6,-0.2 a 4,4 0 0 1 -2,-2.4 c -0.3,-1 0,-2.2 0.6,-3 a 3.5,3.5 0 0 1 3.5,-1.5 c 1,0.2 2,1 2.5,2 0.5,0.9 0.5,2 0,3 M 24.6,193.3 20,195 a 4.7,4.7 0 0 1 -7,0.3 4.7,4.7 0 0 1 -0.6,-5.5 c 0.5,-0.9 1.3,-1.6 2.2,-2 a 5.7,5.7 0 0 1 5.1,-3.4 5.7,5.7 0 0 1 5.7,6 c 0,1 -0.3,2 -1,2.9 m -8.4,22.3 -1.9,3 c -0.6,0.7 -1.6,1 -2.6,1 a 3.2,3.2 0 0 1 -2.7,-2.3 3.2,3.2 0 0 1 1.2,-3.4 3.2,3.2 0 0 1 4,-1.5 3.2,3.2 0 0 1 2,3.2 m 9.9,-10.2 3.8,1.7 a 3.3,3.3 0 0 0 3.8,1.7 c 0.9,-0.3 1.6,-0.9 2,-1.6 0.5,-0.7 0.7,-1.6 0.7,-2.5 0,-1.7 -0.8,-3.4 -1.8,-4.8 a 7.6,7.6 0 0 0 -1.9,-2.1 c -0.7,-0.6 -1.6,-1 -2.5,-1.3 a 5,5 0 0 0 -5.6,2.8 5,5 0 0 0 1.5,6"
         fill="#c11616"
         id="path18" />
      <path
         d="m 166,124.4 -2,1 c -0.4,0.5 -1.1,0.8 -1.9,0.8 a 2.9,2.9 0 0 1 -3,-2.2 2.9,2.9 0 0 1 1.8,-3.3 3.2,3.2 0 0 1 4.6,-0.9 3.2,3.2 0 0 1 0.5,4.6 m 68,-1.1 -2.4,1 a 3,3 0 0 1 -2.4,0.9 3.2,3.2 0 0 1 -2.9,-2.3 3.2,3.2 0 0 1 1.4,-3.5 3.7,3.7 0 0 1 3.7,-1.5 c 1.2,0.2 2.2,1 2.7,2 0.5,1 0.5,2.3 0,3.4 m -29.1,14.8 -1.2,1.8 a 3,3 0 0 1 -2.7,0.8 3,3 0 0 1 -2,-1.8 3,3 0 0 1 0.3,-2.7 3,3 0 0 1 1.8,-1.5 3,3 0 0 1 3.8,3.5"
         fill="#d61616"
         id="path19" />
      <path
         d="m 334,220.4 1.6,2 a 3.5,3.5 0 0 0 3.2,-2.5 c 0.2,-0.8 0.1,-1.6 -0.2,-2.3 a 2.7,2.7 0 0 0 -2.7,-1 c -0.8,0.1 -1.5,0.6 -1.9,1.4 -0.3,0.7 -0.3,1.6 0,2.4"
         fill="#c11616"
         id="path20" />
      <path
         d="m 216.7,110.9 c -0.5,0.6 -1.1,1 -1.8,1.3 l -2.2,0.8 c -1.2,0.4 -2.4,1.1 -3.7,1.3 a 5.4,5.4 0 0 1 -5.9,-4 c -0.2,-1.3 0,-2.7 0.6,-3.8 0.6,-1.2 1.7,-2 3,-2.4 a 11,11 0 0 1 5.5,-0.4 c 0.9,0.1 1.7,0.4 2.4,0.8 0.8,0.4 1.4,1 2,1.6 a 4.2,4.2 0 0 1 0.1,4.8 m -67.2,24.8 -1.2,1.5 a 2.3,2.3 0 0 1 -2.4,-0.8 2.3,2.3 0 0 1 0.3,-3.1 c 0.3,-0.6 1,-1 1.6,-1 a 2.1,2.1 0 0 1 2,1 2.1,2.1 0 0 1 -0.3,2.4 m 51.2,-37.7 2,1.3 a 2.5,2.5 0 0 0 3,1.1 3,3 0 0 0 1.1,-0.7 c 0.6,-0.6 0.9,-1.4 0.9,-2.3 A 5,5 0 0 0 207.2,95 l -1.4,-2 a 6,6 0 0 0 -3,-2 c -1,-0.2 -2,0 -2.7,0.4 a 4,4 0 0 0 -1.7,2.1 c -0.3,1 -0.2,2 0.2,2.7 0.5,0.9 1.2,1.5 2,1.9 m 3.9,27.7 1.8,0.9 c 0.5,0.5 1.2,0.8 1.9,0.8 a 2.7,2.7 0 0 0 2.7,-2 2.7,2.7 0 0 0 -1.5,-3 3,3 0 0 0 -4.3,-0.8 3,3 0 0 0 -0.6,4.1 m -21.4,3.8 2.5,1 c 0.7,0.7 1.6,1.1 2.5,1 a 3.1,3.1 0 0 0 3,-3.3 c 0,-0.5 -0.2,-1 -0.5,-1.5 a 4,4 0 0 0 -4.8,-1.8 4,4 0 0 0 -2.2,1.8 4,4 0 0 0 -0.5,2.8 m 58.2,5.4 -1,1.8 c -0.6,0.3 -1.4,0.2 -2.1,0 a 3.2,3.2 0 0 1 -1,-5.1 2.7,2.7 0 0 1 4,-0.8 2.7,2.7 0 0 1 1,2.8 3,3 0 0 1 -0.9,1.3 m 16.3,8.5 -0.6,1.4 c -0.4,0.3 -1,0.6 -1.4,0.5 a 1.5,1.5 0 0 1 -1.3,-1.2 1.5,1.5 0 0 1 0.7,-1.6 c 0,-0.4 0.3,-0.8 0.6,-1 0.3,-0.2 0.8,-0.4 1.2,-0.2 0.5,0.1 0.8,0.4 1,0.8 0,0.5 0,1 -0.2,1.3"
         fill="#d61616"
         id="path21" />
      <path
         d="m 371.4,206 a 6,6 0 0 1 -2.1,1.4 c -0.5,0.7 -1.3,1.2 -2.2,1.4 -1,0.2 -2.2,-0.1 -3,-0.8 a 4.5,4.5 0 0 1 -1.5,-2.9 c -0.1,-1 0.1,-2.2 0.6,-3.2 a 7.4,7.4 0 0 1 4,-3.4 3,3 0 0 1 1.9,-0.3 4,4 0 0 1 2.3,1 c 0.6,0.6 1,1.3 1.2,2.1 0.3,0.9 0.2,1.7 0,2.5 -0.2,0.9 -0.7,1.6 -1.2,2.2 m -16.5,27.2 a 6.3,6.3 0 0 0 3.2,3.6 7,7 0 0 0 5.6,-0.2 8,8 0 0 0 4,-4.4 8,8 0 0 0 0,-5.9 7.4,7.4 0 0 0 -8,-2.7 c -2,0.6 -3.6,2 -4.5,3.7 -1,1.8 -1,4 -0.3,5.9 m -3.4,-48.2 -1,0.9 a 4,4 0 0 1 -7,-1.4 4,4 0 0 1 0.7,-3.5 4,4 0 0 1 3.2,-1.5 c 1,-0.4 2,-0.4 3,0 a 4,4 0 0 1 1.8,2.5 c 0.2,1 0,2.1 -0.7,3 m -7.5,22.6 2.9,2.8 a 5.3,5.3 0 0 0 5.5,-3.4 c 0.4,-1 0.5,-2 0.3,-3 a 5,5 0 0 0 -5.1,-1.4 5,5 0 0 0 -3.6,5 m 37.4,-14.3 4.4,1.7 a 4.7,4.7 0 0 0 7,0.3 4.7,4.7 0 0 0 0.7,-5.5 4.7,4.7 0 0 0 -2.2,-2 5.7,5.7 0 0 0 -5.2,-3.4 5.7,5.7 0 0 0 -5.7,6 c 0,1 0.4,2 1,2.9 m 1.6,30.2 2,3 c 0.6,0.6 1.6,1 2.5,1 a 3.2,3.2 0 0 0 2.8,-2.4 3.2,3.2 0 0 0 -1.2,-3.4 3.2,3.2 0 0 0 -4,-1.5 3.2,3.2 0 0 0 -2,3.3"
         fill="#c11616"
         id="path22" />
      <path
         d="m 255.6,329.7 -1.6,3 a 5.1,5.1 0 0 1 -5.5,-1.5 5,5 0 0 1 0.7,-7.3 4.5,4.5 0 0 1 6.5,-1.6 4.5,4.5 0 0 1 1.7,5.2 c -0.4,0.9 -1,1.7 -1.8,2.2 m 48.6,-6.7 -2.5,3 a 5.3,5.3 0 0 1 -5.8,2 c -1.7,-0.4 -3,-1.8 -3.6,-3.5 a 5.3,5.3 0 0 1 1,-4.9 5.7,5.7 0 0 1 2.5,-3.2 6,6 0 0 1 4,-0.8 c 1.5,0.3 3,1.3 3.8,2.7 0.8,1.4 1,3.1 0.6,4.7 m 17.9,-3.8 3.3,-2.7 a 4,4 0 0 1 3.3,0.2 4,4 0 0 1 2,2.8 4,4 0 0 1 -0.9,3.4 4.4,4.4 0 0 1 -4.1,3.4 4.4,4.4 0 0 1 -4,-2.4 4.4,4.4 0 0 1 0.4,-4.7 M 332.2,295.4 328,293 a 5.4,5.4 0 0 0 -6.5,2.2 c -0.6,1 -1,2 -1,3.1 -0.3,2.2 0.5,4.5 1.9,6.3 1,1.3 2.4,2.5 4,3 1.6,0.5 3.4,0.4 4.9,-0.2 1.5,-0.6 2.8,-1.9 3.4,-3.4 a 6.6,6.6 0 0 0 -2.5,-8.6 m -53.9,37 -2.4,-1.1 a 3.7,3.7 0 0 0 -4.1,2.5 c -0.3,1 -0.2,2 0.2,2.8 a 3.8,3.8 0 0 0 4,1.3 c 1,-0.3 2,-1 2.5,-2.2 0.4,-1 0.4,-2.3 -0.2,-3.3 M 80.3,289 77.9,288 a 3.7,3.7 0 0 0 -4,2.5 3,3 0 0 0 0.2,2.8 3.8,3.8 0 0 0 3.9,1.3 c 1.1,-0.3 2,-1.1 2.5,-2.2 0.5,-1 0.4,-2.3 -0.2,-3.3 m 61.7,40.9 -1.9,2.9 a 5.2,5.2 0 0 1 -5.7,-1.5 5.2,5.2 0 0 1 0.5,-7.3 4.7,4.7 0 0 1 6.8,-1.5 4.7,4.7 0 0 1 1.7,5 c -0.2,1 -0.7,1.8 -1.4,2.4 m -45.7,4.8 4.4,3 a 5.1,5.1 0 0 0 4.5,2.8 5.1,5.1 0 0 0 5,-3.7 5.1,5.1 0 0 0 -2.3,-5.8 6.2,6.2 0 0 0 -2.6,-3.6 6.2,6.2 0 0 0 -4.2,-1 6.2,6.2 0 0 0 -4.4,3 c -1,1.6 -1,3.6 -0.4,5.3 m 64.1,-14.3 -1.4,0.7 c -0.4,0.3 -0.9,0.6 -1.4,0.7 -0.5,0.1 -1.1,0 -1.6,-0.3 -0.5,-0.3 -0.8,-0.8 -1,-1.3 0,-0.5 0,-1.1 0.4,-1.6 a 2,2 0 0 1 1.4,-0.9 2.3,2.3 0 0 1 3.3,-0.6 c 0.3,0.2 0.6,0.6 0.7,1 0.1,0.4 0.2,0.8 0.1,1.2 0,0.4 -0.2,0.8 -0.5,1.1 m -91.9,-4.6 -4.5,3.6 c -1.4,0.6 -3,0.5 -4.4,-0.2 a 5.4,5.4 0 0 1 -2.8,-3.8 c -0.3,-1.6 0.2,-3.3 1.3,-4.5 a 6,6 0 0 1 5.6,-4.7 6,6 0 0 1 5.4,3.3 6,6 0 0 1 -0.6,6.3 m 29.1,-9.1 2.4,-1.8 a 3.3,3.3 0 0 1 4.2,-1.6 c 0.5,0.2 1,0.6 1.4,1 0.8,1 1.2,2.1 1.2,3.3 0,1.2 -0.3,2.4 -0.9,3.4 -0.6,1 -1.2,2 -2,3 a 9,9 0 0 1 -3.7,2.8 c -1.4,0.4 -2.9,0.3 -4.2,-0.4 a 5.3,5.3 0 0 1 -2.5,-3.2 c -0.4,-1.4 -0.1,-3 0.6,-4.2 0.8,-1.2 2.1,-2 3.5,-2.3"
         fill="#b31616"
         id="path23" />
      <path
         d="m 48.5,213 2.2,1.4 2,1.4 c 0.6,0.2 1.2,0.2 1.8,0.2 0.6,-0.1 1.1,-0.4 1.6,-0.7 0.9,-0.7 1.5,-1.9 1.6,-3 0.1,-1.2 -0.2,-2.4 -0.8,-3.4 -0.6,-1 -1.4,-1.8 -2.3,-2.5 a 6,6 0 0 0 -3.8,-1.2 4.2,4.2 0 0 0 -3.7,3.1 4.5,4.5 0 0 0 1.4,4.7 m -5.2,19 c -0.6,0.5 -1.4,0.8 -2.2,1 l -2.2,0.7 c -1.5,0.5 -2.9,1.4 -4.5,1.7 -1.3,0.2 -2.6,-0.1 -3.7,-0.8 a 5.4,5.4 0 0 1 -1.8,-6.9 c 0.6,-1.2 1.6,-2 2.8,-2.5 a 9,9 0 0 1 6.8,-2.8 c 1.2,0 2.3,0.4 3.3,1 a 5.6,5.6 0 0 1 3.2,5.6 4.6,4.6 0 0 1 -1.7,3 m 11.4,-50.2 1,1 a 4,4 0 0 0 7,-1.4 4,4 0 0 0 -0.7,-3.5 4,4 0 0 0 -3.2,-1.5 c -1,-0.4 -2,-0.4 -3,0.1 a 3.6,3.6 0 0 0 -1.2,5.3 m 19.9,53.2 -1.8,0.7 c -0.4,0.5 -1,0.7 -1.7,0.7 a 2.3,2.3 0 0 1 -2,-1.7 2.3,2.3 0 0 1 0.9,-2.4 2.7,2.7 0 0 1 2.7,-1.1 c 0.8,0.1 1.5,0.7 2,1.4 0.3,0.8 0.3,1.7 0,2.4 m -2.6,-33.2 -1.9,2 c -0.8,0.2 -1.8,0.1 -2.6,-0.2 a 4,4 0 0 1 -2,-2.4 c -0.3,-1 0,-2.2 0.6,-3 a 3.5,3.5 0 0 1 3.5,-1.5 c 1,0.2 2,1 2.5,2 0.5,0.9 0.5,2 0,3 M 24.6,193.3 20,195 a 4.7,4.7 0 0 1 -7,0.3 4.7,4.7 0 0 1 -0.6,-5.5 c 0.5,-0.9 1.3,-1.6 2.2,-2 a 5.7,5.7 0 0 1 5.1,-3.4 5.7,5.7 0 0 1 5.7,6 c 0,1 -0.3,2 -1,2.9 m -8.4,22.3 -1.9,3 c -0.6,0.7 -1.6,1 -2.6,1 a 3.2,3.2 0 0 1 -2.7,-2.3 3.2,3.2 0 0 1 1.2,-3.4 3.2,3.2 0 0 1 4,-1.5 3.2,3.2 0 0 1 2,3.2 m 9.9,-10.2 3.8,1.7 a 3.3,3.3 0 0 0 3.8,1.7 c 0.9,-0.3 1.6,-0.9 2,-1.6 0.5,-0.7 0.7,-1.6 0.7,-2.5 0,-1.7 -0.8,-3.4 -1.8,-4.8 a 7.6,7.6 0 0 0 -1.9,-2.1 c -0.7,-0.6 -1.6,-1 -2.5,-1.3 a 5,5 0 0 0 -5.6,2.8 5,5 0 0 0 1.5,6"
         fill="#c11616"
         id="path24" />
      <path
         d="m 166,124.4 -2,1 c -0.4,0.5 -1.1,0.8 -1.9,0.8 a 2.9,2.9 0 0 1 -3,-2.2 2.9,2.9 0 0 1 1.8,-3.3 3.2,3.2 0 0 1 4.6,-0.9 3.2,3.2 0 0 1 0.5,4.6 m 68,-1.1 -2.4,1 a 3,3 0 0 1 -2.4,0.9 3.2,3.2 0 0 1 -2.9,-2.3 3.2,3.2 0 0 1 1.4,-3.5 3.7,3.7 0 0 1 3.7,-1.5 c 1.2,0.2 2.2,1 2.7,2 0.5,1 0.5,2.3 0,3.4 m -29.1,14.8 -1.2,1.8 a 3,3 0 0 1 -2.7,0.8 3,3 0 0 1 -2,-1.8 3,3 0 0 1 0.3,-2.7 3,3 0 0 1 1.8,-1.5 3,3 0 0 1 3.8,3.5"
         fill="#d61616"
         id="path25" />
      <path
         d="m 334,220.4 1.6,2 a 3.5,3.5 0 0 0 3.2,-2.5 c 0.2,-0.8 0.1,-1.6 -0.2,-2.3 a 2.7,2.7 0 0 0 -2.7,-1 c -0.8,0.1 -1.5,0.6 -1.9,1.4 -0.3,0.7 -0.3,1.6 0,2.4"
         fill="#c11616"
         id="path26" />
    </g>
    <g
       transform="translate(-184.4,-389.4)"
       fill="#f05959"
       id="g28">
      <path
         opacity="0.6"
         d="m 412,512 -4.1,11.6 a 171.5,171.5 0 0 1 41.9,17.8 l 5.1,-11.1 a 263.3,263.3 0 0 0 -43,-18.4"
         fill-rule="evenodd"
         id="path27" />
      <a
         transform="matrix(3.6223,0.67417,-0.02922,3.6732,47.9,-1146.1)"
         id="a28">
        <path
           opacity="0.5"
           d="m 117.2,435.4 -1.4,3.2 4.2,1.7 0.9,-3.3 -3.7,-1.6"
           fill-rule="evenodd"
           id="path28" />
      </a>
    </g>
    <path
       d="m 82.7,239.2 -42.6,1.1 28.2,14.4 19.9,16.4 -11,12 a 331.5,331.5 0 0 0 46.3,21.2 c 15.3,5.6 31,10 47,12.3 22,2.2 44.2,2.9 64.7,0 16,-2.3 31.7,-6.7 47,-12.3 16,-5.9 31.4,-13 46.3,-21.2 l -11,-12 19.9,-16.4 28.2,-14.4 -42.3,-1 a 128.5,128.5 0 0 1 -46.7,25 c -21.1,6 -43.4,6.7 -65.3,8 -5.8,0.6 -11.5,0.2 -16.9,0 -22,-1.3 -44.2,-2 -65.3,-8 -17,-5 -32.8,-13.6 -46.4,-25 z"
       fill-rule="evenodd"
       fill="#b00202"
       id="path29" />
    <g
       fill-rule="evenodd"
       fill="#930000"
       id="g31">
      <path
         style="color:#000000;text-indent:0;text-transform:none"
         d="m 373.7,498.3 c -20,0.6 -45.9,9.7 -67.2,22.6 -20,12.1 -34.2,21.3 -46,38.4 -11,0.5 -23.7,0.5 -36,3.6 a 54.5,54.5 0 0 0 -34,23.5 l -0.2,0.3 -0.1,0.3 c -4,9.4 -1.8,18.2 3.8,25 a 80.1,80.1 0 0 0 23.8,17.4 c 18,9.8 39.4,19.2 50.6,31 -5.2,5.4 -13.3,10.4 -20.4,16.4 -4,3.4 -7.5,7.2 -9.5,12 a 21,21 0 0 0 0.4,16.5 43.9,43.9 0 0 0 24,22.5 97,97 0 0 0 37.4,7.3 c 26.6,0.2 55,-8 72.8,-24.2 9.9,1 19.5,0.5 28.6,0 17.8,16.2 46.2,24.4 72.8,24.2 13.6,-0.2 26.7,-2.5 37.5,-7.3 10.8,-4.8 19.7,-12.2 24,-22.5 2.5,-6.1 2.4,-11.8 0.4,-16.6 -2,-4.7 -5.6,-8.5 -9.6,-11.9 -7,-6 -15.1,-11 -20.4,-16.4 11.3,-11.8 32.6,-21.2 50.6,-31 a 80.1,80.1 0 0 0 24,-17.4 23.5,23.5 0 0 0 3.8,-25 l -0.1,-0.3 -0.2,-0.3 a 54.5,54.5 0 0 0 -34.1,-23.5 c -12.3,-3 -24.9,-3 -36,-3.7 -11.7,-17 -26,-26.2 -45.9,-38.3 -21.4,-13 -43,-21.7 -63,-22.3 l -1.3,6.3 c 24.3,0.4 37.9,12 60.8,21.9 20.6,12.4 33.8,20.8 45,37.7 l 0.9,1.4 h 1.6 c 11.8,0.7 24.6,0.7 36.3,3.6 a 47,47 0 0 1 29.8,20.3 c 3,7.3 1.6,12.4 -2.8,17.8 a 76.5,76.5 0 0 1 -21.9,15.8 c -18.7,10.2 -42.6,19.6 -55,35 l -1.7,2 1.7,2.2 c 6.2,8 16.5,13.4 23.7,19.4 3.6,3 6.3,6.2 7.6,9.4 1.4,3.2 1.6,6.5 -0.4,11.2 a 37,37 0 0 1 -20.4,19 c -9.7,4.3 -22,6.5 -34.8,6.6 -25.7,0.2 -53.8,-8.2 -69.5,-23.3 l -1,-1 c -11.3,0.6 -22.4,0.6 -33.1,0 l -1,1 c -16,15.1 -44,23.5 -69.7,23.3 a 89.5,89.5 0 0 1 -34.9,-6.6 37,37 0 0 1 -20.4,-19 c -2,-4.7 -1.7,-8 -0.4,-11.2 1.3,-3.2 4,-6.3 7.7,-9.4 7.2,-6 17.4,-11.4 23.7,-19.4 l 1.7,-2.2 -1.7,-2 c -12.5,-15.4 -36.4,-24.8 -55,-35 a 76.5,76.5 0 0 1 -22,-15.8 c -4.4,-5.4 -5.7,-10.5 -2.7,-17.8 a 47,47 0 0 1 29.8,-20.3 c 11.6,-2.9 24.4,-2.9 36.2,-3.5 l 1.7,-0.1 1,-1.4 c 11,-16.9 24.3,-25.3 44.8,-37.7 23,-9.8 36.1,-20.7 60.6,-21.1 0,0 0.4,-3 3.2,-7.4 z"
         transform="translate(-184.4,-389.4)"
         id="path30" />
      <path
         style="color:#000000;text-indent:0;text-transform:none"
         d="m 373.7,498.3 c -20,0.6 -45.9,9.7 -67.2,22.6 -20,12.1 -34.2,21.3 -46,38.4 -11,0.5 -23.7,0.5 -36,3.6 a 54.5,54.5 0 0 0 -34,23.5 l -0.2,0.3 -0.1,0.3 c -4,9.4 -1.8,18.2 3.8,25 a 80.1,80.1 0 0 0 23.8,17.4 c 18,9.8 39.4,19.2 50.6,31 -5.2,5.4 -13.3,10.4 -20.4,16.4 -4,3.4 -7.5,7.2 -9.5,12 a 21,21 0 0 0 0.4,16.5 43.9,43.9 0 0 0 24,22.5 97,97 0 0 0 37.4,7.3 c 26.6,0.2 55,-8 72.8,-24.2 9.9,1 19.5,0.5 28.6,0 17.8,16.2 46.2,24.4 72.8,24.2 13.6,-0.2 26.7,-2.5 37.5,-7.3 10.8,-4.8 19.7,-12.2 24,-22.5 2.5,-6.1 2.4,-11.8 0.4,-16.6 -2,-4.7 -5.6,-8.5 -9.6,-11.9 -7,-6 -15.1,-11 -20.4,-16.4 11.3,-11.8 32.6,-21.2 50.6,-31 a 80.1,80.1 0 0 0 24,-17.4 23.5,23.5 0 0 0 3.8,-25 l -0.1,-0.3 -0.2,-0.3 a 54.5,54.5 0 0 0 -34.1,-23.5 c -12.3,-3 -24.9,-3 -36,-3.7 -11.7,-17 -26,-26.2 -45.9,-38.3 -21.4,-13 -43,-21.7 -63,-22.3 l -1.3,6.3 c 24.3,0.4 37.9,12 60.8,21.9 20.6,12.4 33.8,20.8 45,37.7 l 0.9,1.4 h 1.6 c 11.8,0.7 24.6,0.7 36.3,3.6 a 47,47 0 0 1 29.8,20.3 c 3,7.3 1.6,12.4 -2.8,17.8 a 76.5,76.5 0 0 1 -21.9,15.8 c -18.7,10.2 -42.6,19.6 -55,35 l -1.7,2 1.7,2.2 c 6.2,8 16.5,13.4 23.7,19.4 3.6,3 6.3,6.2 7.6,9.4 1.4,3.2 1.6,6.5 -0.4,11.2 a 37,37 0 0 1 -20.4,19 c -9.7,4.3 -22,6.5 -34.8,6.6 -25.7,0.2 -53.8,-8.2 -69.5,-23.3 l -1,-1 c -11.3,0.6 -22.4,0.6 -33.1,0 l -1,1 c -16,15.1 -44,23.5 -69.7,23.3 a 89.5,89.5 0 0 1 -34.9,-6.6 37,37 0 0 1 -20.4,-19 c -2,-4.7 -1.7,-8 -0.4,-11.2 1.3,-3.2 4,-6.3 7.7,-9.4 7.2,-6 17.4,-11.4 23.7,-19.4 l 1.7,-2.2 -1.7,-2 c -12.5,-15.4 -36.4,-24.8 -55,-35 a 76.5,76.5 0 0 1 -22,-15.8 c -4.4,-5.4 -5.7,-10.5 -2.7,-17.8 a 47,47 0 0 1 29.8,-20.3 c 11.6,-2.9 24.4,-2.9 36.2,-3.5 l 1.7,-0.1 1,-1.4 c 11,-16.9 24.3,-25.3 44.8,-37.7 23,-9.8 36.1,-20.7 60.6,-21.1 0,0 0.4,-3 3.2,-7.4 z"
         transform="translate(-184.4,-389.4)"
         id="path31" />
    </g>
  </g>
</svg>
