<svg height="200" width="200" viewBox="0 0 50 50" xmlns:xlink="http://www.w3.org/1999/xlink" xmlns="http://www.w3.org/2000/svg"><defs><radialGradient xlink:href="#a" id="m" gradientUnits="userSpaceOnUse" gradientTransform="matrix(-2.77439 0 0 1.9697 112.762 -872.885)" cx="605.714" cy="486.648" fx="605.714" fy="486.648" r="117.143"/><radialGradient xlink:href="#a" id="l" gradientUnits="userSpaceOnUse" gradientTransform="matrix(2.77439 0 0 1.9697 -1891.633 -872.885)" cx="605.714" cy="486.648" fx="605.714" fy="486.648" r="117.143"/><radialGradient xlink:href="#b" id="W" gradientUnits="userSpaceOnUse" gradientTransform="scale(1.03682 .96449)" cx="18.634" cy="17.486" fx="18.934" fy="17.81" r="40.693"/><radialGradient xlink:href="#b" id="V" gradientUnits="userSpaceOnUse" gradientTransform="scale(1.03682 .96449)" cx="18.634" cy="17.486" fx="18.934" fy="17.81" r="40.693"/><radialGradient xlink:href="#b" id="U" gradientUnits="userSpaceOnUse" gradientTransform="scale(1.03682 .96449)" cx="18.634" cy="17.486" fx="18.934" fy="17.81" r="40.693"/><radialGradient xlink:href="#b" id="T" gradientUnits="userSpaceOnUse" gradientTransform="scale(1.03682 .96449)" cx="18.634" cy="17.486" fx="18.934" fy="17.81" r="40.693"/><radialGradient xlink:href="#b" id="S" gradientUnits="userSpaceOnUse" gradientTransform="scale(1.03682 .96449)" cx="18.634" cy="17.486" fx="18.934" fy="17.81" r="40.693"/><radialGradient xlink:href="#b" id="R" gradientUnits="userSpaceOnUse" gradientTransform="scale(1.03682 .96449)" cx="18.634" cy="17.486" fx="18.934" fy="17.81" r="40.693"/><radialGradient xlink:href="#b" id="Q" gradientUnits="userSpaceOnUse" gradientTransform="scale(1.03682 .96449)" cx="18.634" cy="17.486" fx="18.934" fy="17.81" r="40.693"/><radialGradient xlink:href="#b" id="P" gradientUnits="userSpaceOnUse" gradientTransform="scale(1.03682 .96449)" cx="18.634" cy="17.486" fx="18.934" fy="17.81" r="40.693"/><radialGradient xlink:href="#b" id="O" gradientUnits="userSpaceOnUse" gradientTransform="scale(1.03682 .96449)" cx="18.634" cy="17.486" fx="18.934" fy="17.81" r="40.693"/><radialGradient xlink:href="#b" id="N" gradientUnits="userSpaceOnUse" gradientTransform="scale(1.03682 .96449)" cx="18.634" cy="17.486" fx="18.934" fy="17.81" r="40.693"/><radialGradient xlink:href="#b" id="M" gradientUnits="userSpaceOnUse" gradientTransform="scale(1.03682 .96449)" cx="18.634" cy="17.486" fx="18.934" fy="17.81" r="40.693"/><radialGradient xlink:href="#b" id="L" gradientUnits="userSpaceOnUse" gradientTransform="scale(1.03682 .96449)" cx="18.634" cy="17.486" fx="18.934" fy="17.81" r="40.693"/><radialGradient xlink:href="#b" id="K" gradientUnits="userSpaceOnUse" gradientTransform="scale(1.03682 .96449)" cx="18.634" cy="17.486" fx="18.934" fy="17.81" r="40.693"/><radialGradient xlink:href="#b" id="J" gradientUnits="userSpaceOnUse" gradientTransform="scale(1.03682 .96449)" cx="18.634" cy="17.486" fx="18.934" fy="17.81" r="40.693"/><radialGradient xlink:href="#b" id="I" gradientUnits="userSpaceOnUse" gradientTransform="scale(1.03682 .96449)" cx="18.634" cy="17.486" fx="18.934" fy="17.81" r="40.693"/><radialGradient xlink:href="#b" id="H" gradientUnits="userSpaceOnUse" gradientTransform="scale(1.03682 .96449)" cx="18.634" cy="17.486" fx="18.934" fy="17.81" r="40.693"/><radialGradient xlink:href="#b" id="G" gradientUnits="userSpaceOnUse" gradientTransform="scale(1.03682 .96449)" cx="18.634" cy="17.486" fx="18.934" fy="17.81" r="40.693"/><radialGradient xlink:href="#b" id="F" gradientUnits="userSpaceOnUse" gradientTransform="scale(1.03682 .96449)" cx="18.634" cy="17.486" fx="18.934" fy="17.81" r="40.693"/><radialGradient xlink:href="#b" id="E" gradientUnits="userSpaceOnUse" gradientTransform="scale(1.03682 .96449)" cx="18.634" cy="17.486" fx="18.934" fy="17.81" r="40.693"/><radialGradient xlink:href="#b" id="D" gradientUnits="userSpaceOnUse" gradientTransform="scale(1.03682 .96449)" cx="18.634" cy="17.486" fx="18.934" fy="17.81" r="40.693"/><radialGradient xlink:href="#b" id="C" gradientUnits="userSpaceOnUse" gradientTransform="scale(1.03682 .96449)" cx="18.634" cy="17.486" fx="18.934" fy="17.81" r="40.693"/><radialGradient xlink:href="#b" id="B" gradientUnits="userSpaceOnUse" gradientTransform="scale(1.03682 .96449)" cx="18.634" cy="17.486" fx="18.934" fy="17.81" r="40.693"/><radialGradient xlink:href="#b" id="A" gradientUnits="userSpaceOnUse" gradientTransform="scale(1.03682 .96449)" cx="18.634" cy="17.486" fx="18.934" fy="17.81" r="40.693"/><radialGradient xlink:href="#b" id="z" gradientUnits="userSpaceOnUse" gradientTransform="scale(1.03682 .96449)" cx="18.634" cy="17.486" fx="18.934" fy="17.81" r="40.693"/><radialGradient xlink:href="#b" id="y" gradientUnits="userSpaceOnUse" gradientTransform="scale(1.03682 .96449)" cx="18.634" cy="17.486" fx="18.934" fy="17.81" r="40.693"/><radialGradient xlink:href="#b" id="x" gradientUnits="userSpaceOnUse" gradientTransform="scale(1.03682 .96449)" cx="18.634" cy="17.486" fx="18.934" fy="17.81" r="40.693"/><radialGradient xlink:href="#b" id="w" gradientUnits="userSpaceOnUse" gradientTransform="scale(1.03682 .96449)" cx="18.634" cy="17.486" fx="18.934" fy="17.81" r="40.693"/><radialGradient xlink:href="#b" id="v" gradientUnits="userSpaceOnUse" gradientTransform="scale(1.03682 .96449)" cx="18.634" cy="17.486" fx="18.934" fy="17.81" r="40.693"/><radialGradient xlink:href="#b" id="u" gradientUnits="userSpaceOnUse" gradientTransform="scale(1.03682 .96449)" cx="18.634" cy="17.486" fx="18.934" fy="17.81" r="40.693"/><radialGradient xlink:href="#b" id="t" gradientUnits="userSpaceOnUse" gradientTransform="scale(1.03682 .96449)" cx="18.634" cy="17.486" fx="18.934" fy="17.81" r="40.693"/><radialGradient gradientUnits="userSpaceOnUse" r="40.693" fy="17.81" fx="18.934" cy="17.486" cx="18.634" gradientTransform="scale(1.03682 .96449)" id="X" xlink:href="#b"/><radialGradient gradientUnits="userSpaceOnUse" r="32.665" fy="10.476" fx="11.827" cy="10.476" cx="11.827" gradientTransform="scale(1.17954 .8478)" id="s" xlink:href="#c"/><radialGradient gradientUnits="userSpaceOnUse" r="43.527" fy="12.142" fx="15.601" cy="12.142" cx="15.601" gradientTransform="scale(.99999 1.00001)" id="Y" xlink:href="#d"/><radialGradient gradientUnits="userSpaceOnUse" r="12.289" fy="63.965" fx="15.116" cy="63.965" cx="15.116" gradientTransform="scale(1.64399 .60828)" id="q" xlink:href="#e"/><radialGradient gradientUnits="userSpaceOnUse" r="29.993" fy="15.716" fx="18.248" cy="15.716" cx="18.248" gradientTransform="scale(.99999 1.00001)" id="r" xlink:href="#f"/><linearGradient id="a"><stop style="stop-color:black;stop-opacity:1" offset="0"/><stop style="stop-color:black;stop-opacity:0" offset="1"/></linearGradient><linearGradient id="g"><stop style="stop-color:black;stop-opacity:0" offset="0"/><stop offset=".5" style="stop-color:black;stop-opacity:1"/><stop style="stop-color:black;stop-opacity:0" offset="1"/></linearGradient><linearGradient xlink:href="#g" id="k" gradientUnits="userSpaceOnUse" gradientTransform="matrix(2.77439 0 0 1.9697 -1892.179 -872.885)" x1="302.857" y1="366.648" x2="302.857" y2="609.505"/><linearGradient id="j"><stop offset="0" style="stop-color:#fff;stop-opacity:1"/><stop offset="1" style="stop-color:#fff;stop-opacity:0"/></linearGradient><linearGradient id="i"><stop offset="0" style="stop-color:#787878;stop-opacity:1"/><stop offset="1" style="stop-color:#d0d0d0;stop-opacity:1"/></linearGradient><linearGradient id="h"><stop offset="0" style="stop-color:#919191;stop-opacity:1"/><stop style="stop-color:#e9e9e9;stop-opacity:1" offset=".202"/><stop offset=".236" style="stop-color:#f3f3f3;stop-opacity:1"/><stop offset=".299" style="stop-color:#e6e6e6;stop-opacity:1"/><stop offset="1" style="stop-color:#f8f8f8;stop-opacity:1"/></linearGradient><linearGradient gradientUnits="userSpaceOnUse" y2="17.641" x2="17.809" y1="46.606" x1="17.828" gradientTransform="matrix(1.37692 0 0 .82497 .026 -2.761)" id="n" xlink:href="#h"/><linearGradient gradientUnits="userSpaceOnUse" y2="25.54" x2="12.728" y1="38.134" x1="12.745" gradientTransform="matrix(1.11954 0 0 .89322 1.593 -1.152)" id="o" xlink:href="#i"/><linearGradient gradientUnits="userSpaceOnUse" y2="73.136" x2="40.419" y1="13.835" x1="4.681" gradientTransform="matrix(1.31051 0 0 .76306 1.593 -1.152)" id="p" xlink:href="#j"/><linearGradient id="f"><stop offset="0" style="stop-color:#d3e9ff;stop-opacity:1"/><stop offset=".155" style="stop-color:#d3e9ff;stop-opacity:1"/><stop offset=".75" style="stop-color:#4074ae;stop-opacity:1"/><stop offset="1" style="stop-color:#36486c;stop-opacity:1"/></linearGradient><linearGradient id="e"><stop offset="0" style="stop-color:#000;stop-opacity:1"/><stop offset="1" style="stop-color:#000;stop-opacity:0"/></linearGradient><linearGradient id="d"><stop offset="0" style="stop-color:#fff;stop-opacity:1"/><stop offset="1" style="stop-color:#fff;stop-opacity:.16494845"/></linearGradient><linearGradient id="c"><stop offset="0" style="stop-color:#fff;stop-opacity:1"/><stop offset="1" style="stop-color:#fff;stop-opacity:0"/></linearGradient><linearGradient id="b"><stop offset="0" style="stop-color:#fff;stop-opacity:1"/><stop offset=".379" style="stop-color:#fefefe;stop-opacity:1"/><stop offset="1" style="stop-color:#1d1d1d;stop-opacity:1"/></linearGradient></defs><g transform="translate(4.233 3.274) scale(.82967)"><path style="color:#000;display:inline;overflow:visible;visibility:visible;opacity:.402062;fill:url(#k);fill-opacity:1;fill-rule:nonzero;stroke:none;stroke-width:1;stroke-linecap:round;stroke-linejoin:miter;stroke-miterlimit:4;stroke-dasharray:none;stroke-dashoffset:0;stroke-opacity:1;marker:none;marker-start:none;marker-mid:none;marker-end:none" d="M-1559.252-150.697h1339.633V327.66h-1339.633z" transform="matrix(.02374 0 0 .02087 46.15 33.252)"/><path style="color:#000;display:inline;overflow:visible;visibility:visible;opacity:.402062;fill:url(#l);fill-opacity:1;fill-rule:nonzero;stroke:none;stroke-width:1;stroke-linecap:round;stroke-linejoin:miter;stroke-miterlimit:4;stroke-dasharray:none;stroke-dashoffset:0;stroke-opacity:1;marker:none;marker-start:none;marker-mid:none;marker-end:none" d="M-219.619-150.68v478.33c142.874.9 345.4-107.17 345.4-239.196S-33.655-150.68-219.619-150.68z" transform="matrix(.02374 0 0 .02087 46.15 33.252)"/><path d="M-1559.252-150.68v478.33c-142.875.9-345.4-107.17-345.4-239.196s159.436-239.134 345.4-239.134z" style="color:#000;display:inline;overflow:visible;visibility:visible;opacity:.402062;fill:url(#m);fill-opacity:1;fill-rule:nonzero;stroke:none;stroke-width:1;stroke-linecap:round;stroke-linejoin:miter;stroke-miterlimit:4;stroke-dasharray:none;stroke-dashoffset:0;stroke-opacity:1;marker:none;marker-start:none;marker-mid:none;marker-end:none" transform="matrix(.02374 0 0 .02087 46.15 33.252)"/><path d="M8.1 11.523 3.848 31.01c-.681 3.12.807 5.113 2.96 5.113H44.06c2.154 0 3.656-2.335 2.907-5.06L41.583 11.47c-.148-.54-.837-.97-1.4-.969L9.5 10.554c-.827.001-1.239.233-1.4.969z" style="fill:url(#n);fill-opacity:1;fill-rule:evenodd;stroke:#828282;stroke-width:1;stroke-linecap:butt;stroke-linejoin:miter;stroke-miterlimit:4;stroke-opacity:1"/><path d="M38.323 13.705h-8.319l.776 4.572h8.385z" style="fill:#000;fill-opacity:.175439;fill-rule:evenodd;stroke:none;stroke-width:1px;stroke-linecap:butt;stroke-linejoin:miter;stroke-opacity:1"/><path d="M40.183 21.33h-15m15.5 2h-15.5" style="fill:none;fill-opacity:.75;fill-rule:evenodd;stroke:#000;stroke-width:1px;stroke-linecap:round;stroke-linejoin:miter;stroke-opacity:.0994152"/><path d="M41.308 25.33H25.183" style="fill:none;fill-opacity:.75;fill-rule:evenodd;stroke:#000;stroke-width:1px;stroke-linecap:round;stroke-linejoin:miter;stroke-opacity:.122807"/><path style="fill:none;fill-opacity:.75;fill-rule:evenodd;stroke:#000;stroke-width:.991281px;stroke-linecap:round;stroke-linejoin:miter;stroke-opacity:.152047" d="M41.879 27.33H25.174"/><path d="M42.504 29.33h-17.33" style="fill:none;fill-opacity:.75;fill-rule:evenodd;stroke:#000;stroke-width:.991575px;stroke-linecap:round;stroke-linejoin:miter;stroke-opacity:.152047"/><path style="fill:none;fill-opacity:.75;fill-rule:evenodd;stroke:#000;stroke-width:.991903px;stroke-linecap:round;stroke-linejoin:miter;stroke-opacity:.152047" d="M43.253 31.33H25.175"/><path d="M42.321 33.33H25.17" style="fill:none;fill-opacity:.75;fill-rule:evenodd;stroke:#000;stroke-width:.986486px;stroke-linecap:round;stroke-linejoin:miter;stroke-opacity:.116959"/><text xml:space="preserve" style="font-style:normal;font-variant:normal;font-weight:400;font-stretch:normal;line-height:0%;font-family:'Times New Roman';writing-mode:lr-tb;text-anchor:start;fill:#000;fill-opacity:1;stroke:none;stroke-width:1px;stroke-linecap:butt;stroke-linejoin:miter;stroke-opacity:1" x="11.74" y="19.332" transform="matrix(1 0 -.1692 1 1.968 -1.152)"><tspan x="11.74" y="19.332" style="font-size:6.58774px;line-height:1">N</tspan></text><text xml:space="preserve" style="font-style:normal;font-variant:normal;font-weight:400;font-stretch:normal;line-height:0%;font-family:'Times New Roman';writing-mode:lr-tb;text-anchor:start;fill:#000;fill-opacity:1;stroke:none;stroke-width:1px;stroke-linecap:butt;stroke-linejoin:miter;stroke-opacity:1" x="15.445" y="19.332" transform="matrix(1 0 -.11463 1 1.968 -1.152)"><tspan x="15.445" y="19.332" style="font-size:6.58774px;line-height:1">E</tspan></text><text xml:space="preserve" style="font-style:normal;font-variant:normal;font-weight:400;font-stretch:normal;line-height:0%;font-family:'Times New Roman';writing-mode:lr-tb;text-anchor:start;fill:#000;fill-opacity:1;stroke:none;stroke-width:1px;stroke-linecap:butt;stroke-linejoin:miter;stroke-opacity:1" x="16.638" y="19.332" transform="matrix(1 0 .05603 1 1.968 -1.152)"><tspan x="16.638" y="19.332" style="font-size:6.58774px;line-height:1">W</tspan></text><text xml:space="preserve" style="font-style:normal;font-variant:normal;font-weight:400;font-stretch:normal;line-height:0%;font-family:'Times New Roman';writing-mode:lr-tb;text-anchor:start;fill:#000;fill-opacity:1;stroke:none;stroke-width:1px;stroke-linecap:butt;stroke-linejoin:miter;stroke-opacity:1" x="21.811" y="19.329" transform="matrix(1 0 .10962 1 1.968 -1.152)"><tspan x="21.811" y="19.329" style="font-size:6.58774px;line-height:1">S</tspan></text><path d="M22.593 21.348v12H9.656c-1.132 0-2.063-1.187-1.5-2.875l1.937-9.125z" style="fill:url(#o);fill-opacity:1;fill-rule:evenodd;stroke:#9e9e9e;stroke-width:1px;stroke-linecap:butt;stroke-linejoin:miter;stroke-opacity:1"/><path d="M21.656 31.41h-12.5" style="fill:none;fill-opacity:.75;fill-rule:evenodd;stroke:#fff;stroke-width:1px;stroke-linecap:round;stroke-linejoin:round;stroke-opacity:.309941"/><path style="fill:none;fill-opacity:.75;fill-rule:evenodd;stroke:#fff;stroke-width:2.44954px;stroke-linecap:round;stroke-linejoin:round;stroke-opacity:.309941" d="M21.656 31.41h-12.5"/><path style="fill:none;fill-opacity:1;fill-rule:evenodd;stroke:url(#p);stroke-width:.981884px;stroke-linecap:butt;stroke-linejoin:miter;stroke-opacity:1" d="m8.902 12.263-3.98 18.765c-.442 2.081-.32 4.087 1.977 4.087h36.693c2.234 0 2.956-1.847 2.178-4.662l-5.022-18.177c-.137-.497-.458-.83-.977-.83l-29.83.05c-.637 0-.926.233-1.04.767z"/><circle style="color:#000;display:inline;overflow:visible;visibility:visible;fill:#fff;fill-opacity:.637427;fill-rule:nonzero;stroke:none;stroke-width:1;stroke-linecap:round;stroke-linejoin:round;stroke-miterlimit:4;stroke-dashoffset:0;stroke-opacity:1;marker:none;marker-start:none;marker-mid:none;marker-end:none" cx="6.562" cy="31.536" r=".969"/><g transform="translate(3.5 17.161) scale(.53195)"><ellipse transform="matrix(1 0 0 1.24324 0 -10.272)" style="fill:url(#q);fill-opacity:1;stroke:none;stroke-opacity:1" cx="24.85" cy="38.909" rx="20.203" ry="7.475"/><path d="M43.96 23.485c0 10.71-8.682 19.392-19.39 19.392-10.71 0-19.391-8.682-19.391-19.392 0-10.709 8.681-19.39 19.39-19.39 10.709 0 19.39 8.681 19.39 19.39z" style="fill:url(#r);fill-opacity:1;fill-rule:nonzero;stroke:#39396c;stroke-width:1.87988;stroke-miterlimit:4;stroke-opacity:1"/><ellipse transform="matrix(.83594 0 0 1 9.887 0)" style="opacity:.421594;fill:url(#s);fill-opacity:1;stroke:none;stroke-opacity:1" cx="17.779" cy="15.271" rx="12.93" ry="9.293"/><g style="fill:#000;fill-opacity:.71345;fill-rule:nonzero;stroke:none;stroke-miterlimit:4"><path d="M43.415 20.582c0 .258 0 0 0 0l-.535.606c-.328-.386-.696-.711-1.07-1.051l-.822.12-.75-.847v1.05l.643.486.428.484.571-.646.43.808v.808l-.644.727-1.179.809-.892.89-.571-.648.285-.727-.57-.647-.965-2.06-.82-.93-.216.242.323 1.173.606.687c.346 1 .689 1.955 1.144 2.91.705 0 1.37-.075 2.07-.163v.566l-.857 2.102-.786.888-.642 1.376v2.262l.215.89-.357.403-.787.486-.821.686.68.768-.93.81.179.523-1.393 1.578h-.928l-.786.485h-.5v-.647l-.213-1.295c-.277-.811-.564-1.617-.857-2.423 0-.595.035-1.184.071-1.779l.358-.807-.501-.971.036-1.334-.679-.767.34-1.111-.553-.627h-.965l-.321-.364-.964.607-.393-.446-.893.768-1.82-2.06-.714-1.699.642-.969-.357-.404.785-1.86a67.248 67.248 0 0 1 2-2.343l1.214-.324 1.357-.16.928.242 1.321 1.332.465-.524.641-.081 1.215.404h.929l.642-.566.286-.404-.644-.404-1.071-.08c-.298-.413-.574-.847-.927-1.213l-.358.161-.143 1.052-.643-.728-.141-.81-.714-.563h-.287l.715.807-.286.728-.571.16.357-.726-.644-.323-.57-.646-1.072.241-.142.323-.643.405-.357.889-.892.444-.394-.444h-.427v-1.455l.928-.486h.714l-.144-.565-.57-.566.963-.202.536-.606.428-.728h.786l-.215-.565.501-.323v.647l1.07.241 1.071-.888.072-.405.928-.646c-.336.042-.672.072-1 .162v-.728l.357-.809h-.357l-.784.727-.215.405.215.566-.358.97-.57-.324-.5-.565-.786.565-.286-1.293 1.356-.889v-.485l.858-.566 1.356-.323.93.323 1.712.324-.427.484h-.929l.929.97.713-.808.217-.355s2.738 2.454 4.303 5.138c1.565 2.685 2.3 5.85 2.3 6.493zM25.732 9.306l-.072.485.5.323.856-.565-.427-.485-.572.323-.285-.08m.785-3.314-1.857-.728-2.141.242-2.643.728-.5.485 1.643 1.131v.647l-.643.646.857 1.699.57-.324.716-1.132a24.577 24.577 0 0 0 3.14-1.212l.858-2.182m1.929 6.79-.286-.729-.5.163.143.888.643-.322"/><path d="m28.73 12.62-.142.97.785-.162.571-.565-.5-.485c-.167-.447-.36-.865-.57-1.293h-.428v.484l.285.323v.728M18.163 27.977l-.572-1.132-1.071-.242-.572-1.535-1.428.161-1.213-.888-1.286 1.131v.178c-.39-.112-.867-.127-1.214-.34l-.286-.808v-.89l-.856.081.214-1.697h-.5l-.5.647-.5.242-.714-.403-.072-.89.143-.97 1.072-.807h.857l.142-.486 1.071.242.786.97.143-1.617 1.357-1.13.5-1.213 1-.404.57-.808 1.285-.244.644-.969h-1.929l1.214-.566h.857l1.214-.405.143-.483-.429-.405-.5-.162.143-.484-.357-.728-.857.323.143-.646-1-.566-.785 1.373.071.485-.785.324-.5 1.05-.214-.969-1.357-.566-.215-.727 1.786-1.052.786-.727.071-.889-.428-.242-.572-.081-.356.889s-.598.117-.751.155c-1.961 1.807-5.923 5.708-6.844 13.071.037.171.668 1.161.668 1.161l1.5.889 1.499.404.643.81.999.726.571-.08.429.193v.13l-.571 1.535-.43.647.144.324-.357 1.211 1.285 2.345 1.285 1.132.572.807-.072 1.698.43.97-.43 1.859s-.033-.012.021.174c.056.186 2.288 1.426 2.43 1.32.142-.107.263-.201.263-.201l-.143-.403.571-.566.215-.566.928-.325.714-1.778-.214-.484.499-.727 1.072-.243.571-1.294-.143-1.615.857-1.213.143-1.212a273.49 273.49 0 0 1-3.499-1.779M16.591 9.63l.714.484h.572V9.55l-.714-.324-.572.404"/><path d="m14.735 8.983-.358.889h.715l.357-.808c.308-.218.615-.437.928-.647l.715.243 1.428.97.714-.647-.786-.323-.357-.728-1.357-.162-.071-.404-.643.162-.286.566-.357-.728-.142.324.071.808-.571.485m2.57-2.021.357-.323.715-.162c.489-.238.98-.398 1.5-.566l-.286-.485-.922.133-.435.434-.718.104-.639.3-.31.15-.19.254.928.16m1.215 7.679.428-.646-.643-.484.214 1.13"/></g><g transform="translate(-.081 .03) scale(.98237)" style="display:inline;overflow:visible;visibility:visible;fill:url(#t);fill-opacity:1;fill-rule:nonzero;stroke:none;stroke-width:1.01795;stroke-linecap:butt;stroke-linejoin:miter;stroke-miterlimit:4;stroke-dashoffset:0;stroke-opacity:1;marker:none;marker-start:none;marker-mid:none;marker-end:none"><g style="display:inline;overflow:visible;visibility:visible;fill:url(#u);stroke-dashoffset:0;marker:none;marker-start:none;marker-mid:none;marker-end:none"><g style="display:inline;overflow:visible;visibility:visible;fill:url(#v);stroke-dashoffset:0;marker:none;marker-start:none;marker-mid:none;marker-end:none"><path style="display:inline;overflow:visible;visibility:visible;fill:url(#w);stroke-dashoffset:0;marker:none;marker-start:none;marker-mid:none;marker-end:none" d="M44.071 20.714c0 .263 0 0 0 0l-.545.618c-.334-.394-.709-.725-1.09-1.07l-.835.122-.764-.863v1.068l.654.496.436.493.582-.658.436.823v.822l-.655.74-1.2.823-.907.907-.582-.66.29-.74-.58-.659-.982-2.098-.836-.945-.219.246.328 1.194.618.699c.352 1.017.7 1.99 1.164 2.963.718 0 1.394-.076 2.107-.166v.576l-.872 2.14-.8.903-.654 1.4v2.304l.219.906-.364.41-.8.494-.836.7.691.78-.945.825.181.533-1.418 1.606h-.944l-.8.494h-.51v-.659l-.216-1.318c-.281-.826-.574-1.647-.872-2.467 0-.605.036-1.205.072-1.81l.364-.823-.51-.988.038-1.357-.692-.782.346-1.13-.563-.639h-.982l-.327-.37-.982.618-.399-.454-.91.782c-.616-.7-1.235-1.399-1.853-2.098l-.726-1.729.654-.986-.363-.411.799-1.894c.656-.816 1.341-1.6 2.035-2.385l1.236-.33 1.381-.163.945.247 1.345 1.356.473-.534.653-.082 1.236.41h.946l.654-.575.29-.411-.654-.411-1.091-.082c-.303-.42-.584-.862-.944-1.235l-.364.164-.145 1.07-.655-.74-.144-.824-.727-.574h-.292l.728.822-.291.74-.581.164.363-.74-.655-.328-.58-.658-1.092.246-.145.328-.654.412-.363.906-.909.452-.4-.452h-.435v-1.482l.945-.494h.726l-.146-.575-.58-.576.98-.206.545-.617.436-.74h.8l-.218-.576.51-.33v.66l1.09.245 1.09-.904.072-.412.945-.658c-.342.043-.684.074-1.018.165v-.741l.363-.823h-.363l-.798.74-.22.412.22.576-.365.987-.58-.33-.509-.575-.8.575-.291-1.315 1.38-.905v-.494l.873-.576 1.381-.33.946.33 1.744.33-.436.492h-.945l.945.988.727-.823.22-.362s2.788 2.498 4.38 5.231c1.593 2.733 2.341 5.955 2.341 6.61z"/></g></g><g style="display:inline;overflow:visible;visibility:visible;fill:url(#x);stroke-dashoffset:0;marker:none;marker-start:none;marker-mid:none;marker-end:none"><g style="display:inline;overflow:visible;visibility:visible;fill:url(#y);stroke-dashoffset:0;marker:none;marker-start:none;marker-mid:none;marker-end:none"><path style="display:inline;overflow:visible;visibility:visible;fill:url(#z);stroke-dashoffset:0;marker:none;marker-start:none;marker-mid:none;marker-end:none" d="m26.07 9.236-.073.493.51.33.871-.576-.436-.494-.582.33-.29-.083"/></g></g><g style="display:inline;overflow:visible;visibility:visible;fill:url(#A);stroke-dashoffset:0;marker:none;marker-start:none;marker-mid:none;marker-end:none"><g style="display:inline;overflow:visible;visibility:visible;fill:url(#B);stroke-dashoffset:0;marker:none;marker-start:none;marker-mid:none;marker-end:none"><path style="display:inline;overflow:visible;visibility:visible;fill:url(#C);stroke-dashoffset:0;marker:none;marker-start:none;marker-mid:none;marker-end:none" d="m26.87 5.863-1.89-.74-2.18.246-2.69.74-.51.494 1.672 1.152v.658l-.654.658.873 1.73.58-.33.729-1.152c1.123-.347 2.13-.74 3.197-1.235l.873-2.22"/></g></g><g style="display:inline;overflow:visible;visibility:visible;fill:url(#D);stroke-dashoffset:0;marker:none;marker-start:none;marker-mid:none;marker-end:none"><g style="display:inline;overflow:visible;visibility:visible;fill:url(#E);stroke-dashoffset:0;marker:none;marker-start:none;marker-mid:none;marker-end:none"><path style="display:inline;overflow:visible;visibility:visible;fill:url(#F);stroke-dashoffset:0;marker:none;marker-start:none;marker-mid:none;marker-end:none" d="m28.833 12.775-.291-.741-.51.165.147.904.654-.328"/></g></g><g style="display:inline;overflow:visible;visibility:visible;fill:url(#G);stroke-dashoffset:0;marker:none;marker-start:none;marker-mid:none;marker-end:none"><g style="display:inline;overflow:visible;visibility:visible;fill:url(#H);stroke-dashoffset:0;marker:none;marker-start:none;marker-mid:none;marker-end:none"><path style="display:inline;overflow:visible;visibility:visible;fill:url(#I);stroke-dashoffset:0;marker:none;marker-start:none;marker-mid:none;marker-end:none" d="m29.123 12.609-.145.988.8-.165.58-.575-.508-.494a14.69 14.69 0 0 0-.582-1.316h-.435v.493l.29.329v.74"/></g></g><g style="display:inline;overflow:visible;visibility:visible;fill:url(#J);stroke-dashoffset:0;marker:none;marker-start:none;marker-mid:none;marker-end:none"><g style="display:inline;overflow:visible;visibility:visible;fill:url(#K);stroke-dashoffset:0;marker:none;marker-start:none;marker-mid:none;marker-end:none"><path style="display:inline;overflow:visible;visibility:visible;fill:url(#L);stroke-dashoffset:0;marker:none;marker-start:none;marker-mid:none;marker-end:none" d="m18.365 28.242-.582-1.152-1.09-.247-.582-1.562-1.453.164-1.236-.904-1.309 1.151v.182c-.396-.115-.882-.13-1.235-.347l-.291-.822v-.906l-.872.082.218-1.727h-.51l-.508.658-.509.246-.727-.41-.073-.905.146-.988 1.09-.822h.873l.145-.494 1.09.246.8.988.145-1.646 1.382-1.152.508-1.234 1.018-.411.581-.822 1.309-.248.654-.987h-1.963l1.236-.576h.872l1.236-.412.146-.492-.437-.412-.509-.165.146-.494-.363-.74-.873.328.145-.657-1.017-.577-.8 1.398.073.494-.8.33-.509 1.07-.218-.987-1.38-.577-.22-.74 1.818-1.07.8-.74.073-.905-.436-.247-.582-.083-.363.906s-.608.119-.764.157c-1.996 1.84-6.03 5.81-6.966 13.306.037.174.679 1.182.679 1.182l1.526.904 1.527.412.654.824 1.017.74.582-.082.436.196v.133l-.581 1.563-.437.658.146.33-.363 1.233 1.308 2.386 1.308 1.153.582.822-.073 1.728.437.987-.437 1.892s-.034-.011.022.178c.056.19 2.329 1.451 2.473 1.344l.267-.205-.145-.41.581-.577.219-.576.945-.33.727-1.81-.218-.493.508-.74 1.09-.248.582-1.316-.145-1.645.872-1.234.145-1.235c-1.193-.591-2.377-1.2-3.561-1.81"/></g></g><g style="display:inline;overflow:visible;visibility:visible;fill:url(#M);stroke-dashoffset:0;marker:none;marker-start:none;marker-mid:none;marker-end:none"><g style="display:inline;overflow:visible;visibility:visible;fill:url(#N);stroke-dashoffset:0;marker:none;marker-start:none;marker-mid:none;marker-end:none"><path style="display:inline;overflow:visible;visibility:visible;fill:url(#O);stroke-dashoffset:0;marker:none;marker-start:none;marker-mid:none;marker-end:none" d="m16.766 9.565.726.494h.582v-.576l-.726-.33-.582.412"/></g></g><g style="display:inline;overflow:visible;visibility:visible;fill:url(#P);stroke-dashoffset:0;marker:none;marker-start:none;marker-mid:none;marker-end:none"><g style="display:inline;overflow:visible;visibility:visible;fill:url(#Q);stroke-dashoffset:0;marker:none;marker-start:none;marker-mid:none;marker-end:none"><path style="display:inline;overflow:visible;visibility:visible;fill:url(#R);stroke-dashoffset:0;marker:none;marker-start:none;marker-mid:none;marker-end:none" d="m14.876 8.907-.364.905h.727l.364-.823c.314-.222.626-.445.945-.658l.727.247c.484.33.969.658 1.454.987l.727-.658-.8-.329-.364-.74-1.38-.165-.074-.412-.654.165-.29.576-.364-.74-.145.328.073.823-.582.494"/></g></g><g style="display:inline;overflow:visible;visibility:visible;fill:url(#S);stroke-dashoffset:0;marker:none;marker-start:none;marker-mid:none;marker-end:none"><g style="display:inline;overflow:visible;visibility:visible;fill:url(#T);stroke-dashoffset:0;marker:none;marker-start:none;marker-mid:none;marker-end:none"><path style="display:inline;overflow:visible;visibility:visible;fill:url(#U);stroke-dashoffset:0;marker:none;marker-start:none;marker-mid:none;marker-end:none" d="m17.492 6.85.364-.329.727-.165c.498-.242.998-.405 1.527-.576l-.29-.494-.939.135-.443.442-.731.106-.65.305-.316.153-.193.259.944.164"/></g></g><g style="display:inline;overflow:visible;visibility:visible;fill:url(#V);stroke-dashoffset:0;marker:none;marker-start:none;marker-mid:none;marker-end:none"><g style="display:inline;overflow:visible;visibility:visible;fill:url(#W);stroke-dashoffset:0;marker:none;marker-start:none;marker-mid:none;marker-end:none"><path style="display:inline;overflow:visible;visibility:visible;fill:url(#X);stroke-dashoffset:0;marker:none;marker-start:none;marker-mid:none;marker-end:none" d="m18.729 14.666.436-.658-.655-.493.218 1.151"/></g></g></g><path d="M42.975 23.486c0 10.165-8.241 18.406-18.406 18.406S6.163 33.652 6.163 23.486C6.163 13.32 14.404 5.08 24.57 5.08s18.406 8.24 18.406 18.406z" style="fill:none;fill-opacity:1;fill-rule:nonzero;stroke:url(#Y);stroke-width:1.87988;stroke-miterlimit:4;stroke-opacity:1"/></g></g></svg>