<svg width="200" height="200" viewBox="0 0 150 150" xmlns="http://www.w3.org/2000/svg"><path fill="#ff8200" d="M42.497 21.837c6.94-10.636 24.084-8.025 30.248 2.072 3.251 4.892 3.411 10.955 4.093 16.597 8.792.261 18.324-1.448 26.316 3.175 7.065 3.773 13.145 11.099 12.488 19.503-.564 6.4-5.684 11.2-11.301 13.634 4.952 5.86 7.882 15.115 2.442 21.658-6.82 9.373-21.22 8.127-29.22 1.02-6.502-5.154-8.152-13.71-9.516-21.415-11.925 1.044-26.375-1.205-32.278-13.07-5.196-8.75 1.347-19.511 10.5-21.894-5.363-5.398-8.993-14.552-3.772-21.28m2.965 11.166c5.827 9.449 18.408 8.404 28.008 7.722-1.97-10.038-8.842-20.269-19.756-21.414-7.006-.708-12.084 7.831-8.252 13.692m-5.18 29.423c6.4 8.253 17.912 7.065 27.158 6.459-1.979-10.013-8.867-20.455-19.89-21.372-7.604-.666-12.278 9.288-7.267 14.905m25.271-12.54c3.697 5.6 4.859 12.228 5.322 18.813l9.314-.387c-3.453-5.6-5.196-11.941-6.122-18.4-2.83 0-5.676 0-8.506-.025m11.621-.177c3.15 11.015 12.64 21.356 24.489 22.417 7.983 1.086 13.827-9.01 8.345-15.158-7.908-9.667-21.777-7.604-32.842-7.259m-5.945 28.16c2.046 8.631 8.37 15.595 15.873 19.991 5.356 2.973 13.592 4.093 17.541-1.667 3.68-5.137.126-12.244-4.918-14.956-8.547-5.22-18.989-3.587-28.496-3.368z"/><path d="M93.47 109.735h4.69v4.21h-4.69zm23.721.009a219.29 219.29 0 0 1 4.708.008c-.017 4.463 0 8.926 0 13.39 1.987-2.342 3.958-4.716 5.953-7.057h5.33c-2.045 2.307-4.134 4.58-6.189 6.888 2.224 3.747 4.421 7.503 6.62 11.267-1.853.009-3.706.034-5.559-.034-1.372-2.686-2.863-5.305-4.286-7.957l-1.878 2.038-.008 5.962-4.69-.009zm-30.113 0 4.699-.009c.017 8.168.008 16.337.008 24.505l-4.707.009c-.017-8.169 0-16.337 0-24.505zm17.33 8.96c1.929-3.142 6.46-3.706 9.39-1.735 1.953 1.423 2.105 4.025 2.164 6.231-.017 3.68.025 7.369-.034 11.057-1.566-.017-3.124-.017-4.682-.017-.025-3.671.025-7.351-.017-11.031 0-1.17-.311-2.594-1.507-3.09a4.05 4.05 0 0 0-4.564 1.043c-.775.986-.716 2.316-.75 3.504.017 3.2.017 6.383.017 9.574-1.583.017-3.166.017-4.75-.034.085-6.037.01-12.075.034-18.121h4.716l-.017 2.61zM93.47 116.1h4.69v18.14l-4.69.008z" fill="#0064b5"/><g style="fill:#000"><path d="M137.5 26.28h9.62l.01 9.96 5.34.01v6.37l-5.34.01c.12 7.4-.25 14.81.17 22.2.25 2.59 3.41 1.83 5.18 1.98l-.01 6.57c-3.92.57-8.4 1.44-11.89-.98-2.73-1.83-3.03-5.4-3.08-8.39-.02-7.13.01-14.25 0-21.38l-4.72-.01v-6.37l4.71-.01zM55.16 40.05c4.71-6.67 15.96-7.03 20.32.17 4.24-5.91 13.3-7.02 18.98-2.62 3.05 2.53 3.63 6.68 3.66 10.4.02 8.19 0 16.38 0 24.57l-9.62-.01c-.11-8.49.2-17.01-.14-25.49-.4-4.26-6.16-5.01-9.04-2.77-2.11 1.48-2.59 4.22-2.61 6.63-.07 7.21.01 14.42-.02 21.63l-9.63.01c-.11-8.53.21-17.07-.15-25.59-.22-3.27-4.14-4.51-6.87-3.66-3.17.62-4.78 3.98-4.71 6.98-.13 7.42-.01 14.84-.05 22.26h-9.63l.01-37.09h9.53z" style="fill:#000" transform="translate(-5.957 98.729) scale(.48948)"/><path d="M105 39.95c6.94-7.72 21.21-6.33 26.49 2.63 2.76 4.28 2.98 9.52 3.08 14.45-8.32.01-16.64-.01-24.96.01.36 2.67.3 5.85 2.62 7.71 3.78 3.49 10.46 2.11 12.58-2.61 3.11-.03 6.22-.02 9.34-.01-3.11 10.25-16.13 14.85-25.38 10.09-5.25-2.62-8.05-8.45-8.54-14.09-.59-6.31.38-13.3 4.77-18.18m4.73 10.7c4.97.01 9.93.03 14.9-.01-.04-4.58-3.81-9.07-8.67-8.26-4.17.34-5.65 4.77-6.23 8.27zm53.99-14.79c6.04-1.2 13.13-1.66 18.45 1.96 5.33 4.06 3.42 11.45 3.77 17.21.54 5.78-1.7 12.57 2.62 17.33-3.67.37-7.37.17-11.05.2-.36-1.2-.69-2.4-1-3.61-3.27 3.27-7.86 5.83-12.63 4.95-4.08-.43-8.18-3.12-9.21-7.25-1.21-4.56-.2-10.32 4.09-12.94 4.74-3.01 10.67-2.56 15.82-4.36 2.45-1.05 2.64-4.96.09-6.01-3.92-1.62-10.2-.87-10.6 4.37-3.07.02-6.13.02-9.2 0 .32-5.25 3.45-10.6 8.85-11.85m.11 25.05c-1.15 5.3 5.97 6.77 9.37 4.24 3.35-2.15 3.29-6.54 3.46-10.05-4.13 1.89-11.19.55-12.83 5.81z" style="fill:#000" transform="translate(-5.957 98.729) scale(.48948)"/></g></svg>