<svg viewBox="0 0 250 250" width="200" height="200" xmlns="http://www.w3.org/2000/svg"><defs><linearGradient id="a" x1="40" x2="200" y1="40" y2="200" gradientUnits="userSpaceOnUse" gradientTransform="translate(29.663 29.663) scale(.80436)"><stop stop-color="#345cca" offset="0" style="stop-color:#5452c9;stop-opacity:1"/><stop stop-color="#5d47c6" offset="1" style="stop-color:#413fb5;stop-opacity:1"/></linearGradient><linearGradient id="b" x1="125" x2="174.95" y1="65" y2="210.1" gradientUnits="userSpaceOnUse" gradientTransform="translate(5 5)"><stop stop-color="#344394" offset="0"/><stop stop-color="#7c45df" offset="1" style="stop-color:#5553be;stop-opacity:1"/></linearGradient><filter id="c" x="-.143" y="-.244" width="1.285" height="1.489"><feGaussianBlur stdDeviation="10.69"/></filter></defs><circle cx="125" cy="125" fill="url(#a)" stroke="url(#b)" stroke-width="2.691" r="98.655" style="fill:url(#a);stroke:url(#a)"/><path transform="translate(15.135 14.408) scale(.82213)" d="M112.92 82.04a37.14 37.14 0 0 0-36.84 41.85l-.88-.03a31.57 31.57 0 1 0 0 63.14h122.44a26 26 0 0 0 0-52h-.14c.03-.64.07-1.29.07-1.94a37.14 37.14 0 0 0-53.13-33.52 37.1 37.1 0 0 0-31.52-17.5Z" fill="#332949" opacity=".46" filter="url(#c)"/><path d="M108.484 83.161a29.605 29.605 0 0 0-29.372 33.364l-.7-.018a25.166 25.166 0 1 0 0 50.332h97.615a20.726 20.726 0 0 0 0-41.453h-.108a29.605 29.605 0 0 0-42.314-28.278 29.578 29.578 0 0 0-25.139-13.947Z" fill="#fff" style="stroke-width:.896861"/></svg>