<?xml version="1.0" encoding="UTF-8" standalone="no"?>
<svg
   id="svg2"
   viewBox="0 0 200 199.99999"
   version="1.1"
   sodipodi:docname="mx_linux.svg"
   width="200"
   height="200"
   inkscape:version="1.4.2 (ebf0e940d0, 2025-05-08)"
   xmlns:inkscape="http://www.inkscape.org/namespaces/inkscape"
   xmlns:sodipodi="http://sodipodi.sourceforge.net/DTD/sodipodi-0.dtd"
   xmlns="http://www.w3.org/2000/svg"
   xmlns:svg="http://www.w3.org/2000/svg">
  <sodipodi:namedview
     id="namedview1"
     pagecolor="#ffffff"
     bordercolor="#666666"
     borderopacity="1.0"
     inkscape:showpageshadow="2"
     inkscape:pageopacity="0.0"
     inkscape:pagecheckerboard="0"
     inkscape:deskcolor="#d1d1d1"
     inkscape:zoom="1.5154602"
     inkscape:cx="199.60933"
     inkscape:cy="203.23859"
     inkscape:window-width="1916"
     inkscape:window-height="1032"
     inkscape:window-x="0"
     inkscape:window-y="22"
     inkscape:window-maximized="1"
     inkscape:current-layer="svg2" />
  <defs
     id="defs1">
    <style
       id="style1"> .cls-1 { fill: #fff; } </style>
  </defs>
  <rect
     id="rect4234-3"
     x="20"
     y="20"
     width="160"
     height="160"
     rx="7.9083662"
     ry="8.805645"
     style="stroke-width:0.601698" />
  <path
     id="path1"
     style="fill:#ffffff;fill-opacity:1;stroke:none;stroke-width:0.570219;stroke-linecap:round;stroke-dasharray:none"
     d="m 100.06527,47.013632 c -34.5197,1.63e-4 -62.717234,27.467105 -62.717399,62.557028 0.0557,10.48014 2.607636,20.80922 7.684591,29.9777 l -11.235094,13.43801 132.405262,-0.0315 -11.29723,-13.70048 c 4.92852,-9.06369 7.53681,-19.20644 7.59215,-29.52331 -1.6e-4,-34.519717 -27.91258,-62.717255 -62.43228,-62.717418 z m 2.60719,4.982733 c 15.92896,0.05057 30.96945,7.346422 40.86977,19.82513 L 110.86935,110.98395 84.104705,79.091786 79.368102,84.670355 106.17396,116.61263 100.43279,123.49536 79.551866,98.807776 55.529648,127.12688 C 52.06514,120.02453 50.315433,112.28079 50.290281,104.37855 50.290443,75.448735 73.742647,51.996529 102.67246,51.996365 Z m 47.31146,30.140303 c 3.3041,6.951322 5.03577,14.545349 5.07183,22.241882 -0.0689,9.25635 -2.50026,18.48062 -7.21572,26.44612 l -10.05456,-12.11937 -10.17039,12.23186 -9.19923,-10.96224 z m -36.26347,43.466942 9.20703,10.97115 -5.66655,6.81589 -9.25269,-10.93996 z" />
</svg>
