<svg width="200" height="200" xmlns="http://www.w3.org/2000/svg"><ellipse style="fill:#4600ff;fill-opacity:1;stroke-width:5.43943;stroke-dasharray:none" cx="-113.7" cy="243.5" transform="matrix(.2232 0 0 .22318 125.4 45.7)" rx="448" ry="448.1"/><path style="fill:#fdfdfd;stroke-width:.941703" d="M142.8 546.3c-1.6 1-4.9 2.3-7.2 2.7-2.3.5-21 1-41.6 1-40 .1-44.8-.5-52-6.2a20.6 20.6 0 0 1-6.3-8.5c-2.2-4.8-2.5-8.9-3.2-37.5-.4-17.7-.8-37.3-.7-43.5 0-6.3-.4-11.7-.8-12.1-.5-.5-3.4-1.3-6.6-2a33.7 33.7 0 0 1-26.7-26 5837 5837 0 0 1-2.5-214.4c.8-5.2 3.4-11 7.3-16.3 2.8-3.8 12-9.7 17.3-11a2094 2094 0 0 1 118.4-.9c25.8.7 29.7 1.6 38 9a30.7 30.7 0 0 1 11.2 18.7c1.4 6.4 3.5 203.1 2.3 212.5A33.9 33.9 0 0 1 161 441c-3.3.4-6.2 1-6.5 1.2-.3.3-.3 19.5 0 42.7.6 35.9.4 43-1.4 47.6-2.2 6-5.8 10.9-10.2 13.8z" transform="matrix(.15647 .15835 -.15916 .15727 125.4 45.7)"/><path style="fill:#fdd310" d="M484.2 369.5c-2.6 1.5-7 3.2-9.7 3.8-6 1.4-56.4 1.8-141.8 1.1-71.7-.5-72.4-.6-82.2-8.7a37.6 37.6 0 0 1-12.5-18.5c-.9-3-1.6-33-1.9-75.6-.5-81.4-.8-78.5 10.3-89.6 7.7-7.6 11.7-9.3 25-10.4 5-.4 51.6-.5 103.7-.3 100.8.5 99.5.4 109.7 7.3a44 44 0 0 1 7.9 7.6c7.8 10 7.9 10.6 8.7 86.3.7 67 .6 69.9-2 77.5a33 33 0 0 1-15.2 19.5zm-540.2 0c-2.6 1.5-7 3.2-9.6 3.8-6 1.4-56.5 1.8-141.9 1.1-71.6-.5-72.3-.6-82.2-8.7a38 38 0 0 1-12.4-18.5c-.9-3-1.6-33-2-75.6-.5-81.4-.8-78.5 10.3-89.6 7.7-7.6 11.8-9.3 25.1-10.4 5-.4 51.6-.5 103.6-.3 100.9.5 99.6.4 109.7 7.3a44 44 0 0 1 8 7.6c7.8 10 7.8 10.6 8.6 86.3.7 67 .7 69.9-2 77.5A33 33 0 0 1-56 369.5z" transform="matrix(.15647 .15835 -.15916 .15727 124.4 44.7)"/><path style="fill:#fdfdfd" d="M243.5 94.7a241.3 241.3 0 0 1-84.4 41 252.9 252.9 0 0 1-134.8-2.2 225 225 0 0 1-93.2-52 185.3 185.3 0 0 1-54.3-89.2c-4.4-17.3-3.8-25.8 2-31.6 5.1-5 9.9-5.8 37.5-5.5 14.5.2 44.7.2 67 .2A14037 14037 0 0 1 296-42.3c10.5 2 16 10.2 14.9 22.3-1.8 21.4-12 47.7-28.3 73a269 269 0 0 1-39.1 41.7zM130.9-76.5c-4.6 1.7-71.3 1.2-75.7-.6-8.5-3.4-9.1-6.1-9.7-42.7-.4-26.5-.1-31.2 2-37a33.1 33.1 0 0 1 15-18.9 48.4 48.4 0 0 1 28.7-7.4c17.1 0 27.4 4.3 37.6 15.8 8.1 9.3 9.2 13.6 10.1 39.5 1.5 45.1 1.1 47.8-8 51.3z" transform="matrix(.15647 .15835 -.15916 .15727 125.4 45.7)"/></svg>