<?xml version="1.0" encoding="UTF-8" standalone="no"?>
<!-- Created with Inkscape (http://www.inkscape.org/) -->

<svg
   width="200"
   height="200"
   viewBox="0 0 52.916666 52.916666"
   version="1.1"
   id="svg1"
   inkscape:version="1.4.2 (ebf0e940d0, 2025-05-08)"
   sodipodi:docname="nitrux_linux.svg"
   xmlns:inkscape="http://www.inkscape.org/namespaces/inkscape"
   xmlns:sodipodi="http://sodipodi.sourceforge.net/DTD/sodipodi-0.dtd"
   xmlns="http://www.w3.org/2000/svg"
   xmlns:svg="http://www.w3.org/2000/svg">
  <sodipodi:namedview
     id="namedview1"
     pagecolor="#ffffff"
     bordercolor="#666666"
     borderopacity="1.0"
     inkscape:showpageshadow="2"
     inkscape:pageopacity="0.0"
     inkscape:pagecheckerboard="0"
     inkscape:deskcolor="#d1d1d1"
     inkscape:document-units="mm"
     inkscape:zoom="2.061125"
     inkscape:cx="21.347565"
     inkscape:cy="122.7485"
     inkscape:window-width="1916"
     inkscape:window-height="1032"
     inkscape:window-x="0"
     inkscape:window-y="22"
     inkscape:window-maximized="1"
     inkscape:current-layer="layer1" />
  <defs
     id="defs1" />
  <g
     inkscape:label="Layer 1"
     inkscape:groupmode="layer"
     id="layer1"
     transform="matrix(4.1482611,0,0,4.1482611,-254.5123,-342.31718)">
    <path
       style="display:inline;fill:#231f20;fill-opacity:1;stroke:none;stroke-width:0.121832;stroke-linecap:round;stroke-linejoin:round;stroke-miterlimit:4;stroke-dasharray:none;stroke-dashoffset:0;stroke-opacity:1"
       d="m 62.310699,86.401362 v 0.304575 0.791897 3.837653 h 0.182744 v -3.106673 c 0,-0.182198 0.17956,-0.243085 0.303387,-0.07924 l 2.376884,3.185909 h 0.121828 v -0.974644 -0.723962 l 1.279219,1.698606 h 0.85281 l -1.926677,-2.558432 c -0.08236,-0.109344 0.01297,-0.238945 0.01557,-0.242471 l 1.606518,-2.133223 h -0.121831 l -1.644708,2.184027 -0.426405,0.566194 -0.272927,0.362396 z m 0.548234,0 1.857915,2.467058 0.426406,-0.566196 -1.431505,-1.900862 z m 5.543282,0 a 2.4975188,2.4975195 0 0 0 -0.910039,0.174297 l -0.264245,0.342053 a 2.1320282,2.3756893 0 0 1 1.174284,-0.39452 2.1320282,2.3756893 0 0 1 1.222824,0.431046 c -0.155448,0.21181 -0.248184,0.472773 -0.248184,0.7568 v 0.121832 c 0,0.66439 0.501487,1.207396 1.148107,1.272666 a 2.1320282,2.3756893 0 0 1 -0.805577,1.660655 C 69.58106,90.575476 69.498687,90.34125 69.498687,90.086606 v -0.06096 h -0.121832 v 0.06096 c 0,0.283442 0.09236,0.543916 0.24723,0.75549 a 2.1320282,2.3756893 0 0 1 -1.22187,0.43247 2.1320282,2.3756893 0 0 1 -0.265673,-0.02084 l 0.103746,0.136825 a 2.4975188,2.4975195 0 0 0 0.161927,0.0058 2.4975188,2.4975195 0 0 0 1.352386,-0.400826 c 0.23092,0.229014 0.549046,0.37025 0.901474,0.37025 h 1.218303 c 0.708689,0 1.279218,-0.57053 1.279218,-1.279216 v -0.121841 c 0,-0.708687 -0.570529,-1.279216 -1.279218,-1.279216 h -0.98535 a 2.4975188,2.4975195 0 0 0 -1.031395,-1.812433 c 0.207452,-0.197665 0.487945,-0.319444 0.798442,-0.319444 h 1.218303 c 0.641195,0 1.157387,0.516193 1.157387,1.157388 v 0.06092 h 0.121831 v -0.06092 c 0,-0.708688 -0.570529,-1.27922 -1.279218,-1.27922 h -1.218303 c -0.351637,0 -0.669015,0.140717 -0.899807,0.368821 a 2.4975188,2.4975195 0 0 0 -1.354053,-0.399327 z m 1.315982,0.631874 a 2.1320282,2.3756893 0 0 1 0.805815,1.652563 c -0.180617,1.77e-4 -0.614574,5.61e-4 -0.648293,0.0017 -0.23139,-0.211344 -0.377032,-0.514833 -0.377032,-0.854357 v -0.121829 c 0,-0.253897 0.08192,-0.487391 0.21951,-0.677801 z m -3.245639,0.861977 -0.446036,0.57727 0.248185,0.327053 a 2.1320282,2.3756893 0 0 1 0.197851,-0.904323 z m 6.182178,1.215212 c 0.231386,0.211344 0.377029,0.514828 0.377029,0.854352 v 0.121829 c 0,0.641199 -0.516192,1.157387 -1.157387,1.157387 h -1.218303 c -0.31013,0 -0.590348,-0.121482 -0.797728,-0.318733 a 2.4975188,2.4975195 0 0 0 1.030681,-1.813178 h 0.98535 c 0.02014,0 0.739767,-5.62e-4 0.780358,-0.0017 z m -7.653062,0.207604 c 0.03264,0.0017 0.06885,0.02016 0.105056,0.06817 l 0.06698,0.08898 V 90.19926 L 64.718035,89.594866 64.8752,89.386192 c 0,0 0.05464,-0.07266 0.12647,-0.06816 z"
       id="path1110"
       inkscape:connector-curvature="0" />
    <path
       inkscape:connector-curvature="0"
       id="path1089"
       d="m 68.402214,90.452154 -1.340133,-1.766539 1.035558,-1.34013 0.304575,0.426408 z"
       style="display:inline;fill:#229df0;fill-opacity:1;fill-rule:evenodd;stroke:none;stroke-width:0.0609151px;stroke-linecap:butt;stroke-linejoin:miter;stroke-opacity:1" />
  </g>
</svg>
