<svg viewBox="-1152 -997.661 200 200" width="200" height="200" xmlns:xlink="http://www.w3.org/1999/xlink" xmlns="http://www.w3.org/2000/svg"><defs><linearGradient gradientUnits="userSpaceOnUse" id="a" x1="-320" x2="128" y1="-554.256" y2="221.702"><stop offset="0%" stop-color="#3e5993"/><stop offset="25%" stop-color="#4564a5"/><stop offset="100%" stop-color="#4d6fb7"/></linearGradient><linearGradient gradientUnits="userSpaceOnUse" id="b" x1="-320" x2="128" y1="-554.256" y2="221.702"><stop offset="0%" stop-color="#6d9bbc"/><stop offset="25%" stop-color="#72a9cf"/><stop offset="100%" stop-color="#77b6e1"/></linearGradient><linearGradient xlink:href="#a" id="c" gradientUnits="userSpaceOnUse" x1="-320" y1="-554.256" x2="128" y2="221.702"/><linearGradient xlink:href="#b" id="d" gradientUnits="userSpaceOnUse" x1="-320" y1="-554.256" x2="128" y2="221.702"/><linearGradient xlink:href="#a" id="e" gradientUnits="userSpaceOnUse" x1="-320" y1="-554.256" x2="128" y2="221.702"/><linearGradient xlink:href="#b" id="f" gradientUnits="userSpaceOnUse" x1="-320" y1="-554.256" x2="128" y2="221.702"/><linearGradient xlink:href="#a" id="g" gradientUnits="userSpaceOnUse" x1="-320" y1="-554.256" x2="128" y2="221.702"/><linearGradient xlink:href="#b" id="h" gradientUnits="userSpaceOnUse" x1="-320" y1="-554.256" x2="128" y2="221.702"/></defs><path fill="url(#a)" transform="translate(-1074.222 -859.171) scale(.06944)" style="fill:url(#c)" d="m-304-304.841 128-221.702 560 969.948H128L0 221.703l-128 221.702h-128l-64-110.851L-128 0z"/><path fill="url(#b)" transform="rotate(60 229.16 -1398.29) scale(.06944)" style="fill:url(#d)" d="m-304-304.841 128-221.702 560 969.948H128L0 221.703l-128 221.702h-128l-64-110.851L-128 0z"/><path fill="url(#a)" transform="rotate(120 -266.85 -778.127) scale(.06944)" style="fill:url(#e)" d="m-304-304.841 128-221.702 560 969.948H128L0 221.703l-128 221.702h-128l-64-110.851L-128 0z"/><path fill="url(#b)" transform="rotate(180 -514.889 -468.075) scale(.06944)" style="fill:url(#f)" d="m-304-304.841 128-221.702 560 969.948H128L0 221.703l-128 221.702h-128l-64-110.851L-128 0z"/><path fill="url(#a)" transform="rotate(-120 -762.861 -157.964) scale(.06944)" style="fill:url(#g)" d="m-304-304.841 128-221.702 560 969.948H128L0 221.703l-128 221.702h-128l-64-110.851L-128 0z"/><path fill="url(#b)" transform="rotate(-60 -1258.873 462.199) scale(.06944)" style="fill:url(#h)" d="m-304-304.841 128-221.702 560 969.948H128L0 221.703l-128 221.702h-128l-64-110.851L-128 0z"/></svg>