<?xml version="1.0" encoding="UTF-8" standalone="no"?>
<svg
   width="200"
   height="200"
   fill="none"
   version="1.1"
   id="svg2"
   sodipodi:docname="open_suse.svg"
   inkscape:version="1.4.2 (ebf0e940d0, 2025-05-08)"
   xmlns:inkscape="http://www.inkscape.org/namespaces/inkscape"
   xmlns:sodipodi="http://sodipodi.sourceforge.net/DTD/sodipodi-0.dtd"
   xmlns="http://www.w3.org/2000/svg"
   xmlns:svg="http://www.w3.org/2000/svg">
  <defs
     id="defs2" />
  <sodipodi:namedview
     id="namedview2"
     pagecolor="#ffffff"
     bordercolor="#666666"
     borderopacity="1.0"
     inkscape:showpageshadow="2"
     inkscape:pageopacity="0.0"
     inkscape:pagecheckerboard="0"
     inkscape:deskcolor="#d1d1d1"
     inkscape:zoom="0.98"
     inkscape:cx="255.10204"
     inkscape:cy="256.12245"
     inkscape:window-width="1916"
     inkscape:window-height="1032"
     inkscape:window-x="0"
     inkscape:window-y="22"
     inkscape:window-maximized="1"
     inkscape:current-layer="svg2" />
  <g
     id="g2"
     transform="translate(20,20)">
    <circle
       cx="80"
       cy="80"
       r="80"
       fill="#ffffff"
       id="circle1"
       style="stroke-width:0.312509" />
    <path
       fill-rule="evenodd"
       clip-rule="evenodd"
       d="m 88.095005,60.014375 c 2.875311,-2.691556 6.635938,-4.090936 10.602502,-3.948747 l 0.0047,0.0013 c 8.171563,0.287187 14.567813,7.142192 14.292193,15.29906 -0.12563,3.932815 -1.78625,7.581253 -4.67219,10.285628 -2.89188,2.69125 -6.67156,4.090939 -10.635941,3.97125 -8.157184,-0.299064 -14.555625,-7.163749 -14.28031,-15.32281 0.119997,-3.948443 1.814999,-7.594378 4.689061,-10.285631 z m 6.459686,7.845315 c 0,2.404378 2.93281,4.366251 6.563749,4.366251 3.62907,0 6.57001,-1.961873 6.57251,-4.366251 0,-2.426868 -2.94126,-4.377808 -6.57251,-4.377808 -3.630939,0 -6.563749,1.95094 -6.563749,4.377808 z"
       fill="#73ba25"
       id="path1"
       style="stroke-width:0.312509" />
    <path
       fill-rule="evenodd"
       clip-rule="evenodd"
       d="m 134.51875,90.535938 c -0.25906,0.176881 -0.55249,0.376878 -0.87437,0.58938 l 0.0134,-0.0012 h 0.001 l -0.009,0.0066 C 128.76853,94.541031 117.38071,102.4976 102.76259,101.19822 89.620406,100.0379 72.465091,92.514157 51.775405,78.901655 c 0.922499,2.154375 5.236558,12.332502 5.942183,14.054998 l 0.28875,0.333752 c 2.995005,1.555002 31.735318,16.173125 46.003442,15.885005 11.48875,-0.23938 23.78531,-5.83625 28.70438,-8.79189 l 1.55031,-0.28718 c 0.44437,0.34813 0.3725,1.005 0.25031,1.62563 -0.30188,1.41032 -0.99219,3.98219 -1.46031,5.20344 l -0.39438,0.99406 c -0.56406,1.50594 -1.10344,2.90532 -2.14562,3.76781 -2.90031,2.63032 -7.52469,4.72376 -14.77125,7.86969 -11.20156,4.89219 -29.375316,8.00217 -46.243127,7.89564 -6.047814,-0.13377 -11.884378,-0.80375 -17.011882,-1.40189 l -0.03749,-0.004 C 38.725002,124.49938 28.325313,123.32719 24.360939,132.59407 11.390625,118.87782 3.4374998,100.36782 3.4374998,80.000003 c 0,-17.283125 5.7265635,-33.228437 15.3859392,-46.042502 12.451563,3.057811 21.49875,5.991876 23.82875,6.773439 0.02872,-1.147188 0.220316,-11.410314 0.220316,-11.410314 l 0.148745,-0.35875 0.395317,-0.10875 c 2.324059,0.335001 51.921563,7.679376 72.838753,19.844065 2.13312,1.246248 3.37469,2.556874 4.63969,3.892186 0.26625,0.280936 0.53343,0.563125 0.81031,0.845941 5.77437,5.96875 13.41625,30.78906 14.23218,35.90875 l -0.32218,0.50125 c -0.19875,0.07813 -0.57937,0.337811 -1.09657,0.69062 z M 83.644378,55.503442 c -4.142499,3.851563 -6.515935,9.102809 -6.725625,14.760626 h 0.01217 c -0.395315,11.674685 8.782499,21.508121 20.461879,21.937811 5.697808,0.191253 11.093438,-1.806251 15.238748,-5.693752 4.13313,-3.839684 6.505,-9.090933 6.72563,-14.748747 0.39531,-11.663752 -8.79219,-21.520313 -20.485944,-21.937504 -5.672812,-0.179687 -11.081559,1.816874 -15.226874,5.681566 z"
       fill="#73ba25"
       id="path2"
       style="stroke-width:0.312509" />
  </g>
</svg>
