<svg width="200" height="200" xmlns="http://www.w3.org/2000/svg"><path d="M20 100v79.84l79.92-.07 79.92-.08.08-79.77.08-79.76H20V100m.15.16c0 43.9.04 61.83.08 39.81.05-22.01.05-57.94 0-79.84-.04-21.9-.08-3.89-.08 40.03m8.27-72.88c-.5.17-.42 144.76.08 144.77 5.14.07 143.22-.05 143.3-.12.2-.2.13-144.36-.08-144.56-.2-.2-142.7-.29-143.3-.1m32.28.99c-24.6.2-31.37.39-30.92.85.5.5 91.87.8 128 .43 11.17-.11 13.18-.24 12.32-.75-.85-.5-71.62-.85-109.4-.53m29.32 2.81c-1.37.11 4.03.2 12 .2 9.58 0 12.97-.07 9.99-.21-5.5-.27-18.56-.26-22 .01m-11.35 25.3c-1.06.13-1.61.44-2.45 1.36l-1.09 1.18.24 33.57c.13 18.46.33 36 .43 39l.2 5.43 1.37.73c1.82.96 5.4 1.02 7.17.12l1.18-.61.23-14.75c.13-8.56.36-14.9.53-15.11.2-.25 2.62-.41 7.54-.51 4.05-.08 8.06-.32 9.1-.54 4.8-1.02 7.93-1.97 9.3-2.82a8.72 8.72 0 0 1 1.78-.93c.74 0 5.24-4.19 6.88-6.41 2.72-3.68 3.6-5.6 4.42-9.5.52-2.47.59-3.71.45-7.63-.19-5.12-.46-6.3-2.24-9.84-1.9-3.78-3.75-5.82-7.75-8.55-2.17-1.48-7.69-3.6-9.38-3.6a3.6 3.6 0 0 1-1.43-.31c-.64-.35-24.14-.6-26.48-.29m8.24 8.54c-.31.25-.44 3.84-.56 16.7-.1 9-.07 16.71.05 17.13l.22.76 6.54-.08c6.97-.08 9.01-.37 12.01-1.7 3.2-1.42 6.66-4.86 7.66-7.6 1.74-4.82 2.17-7.6 1.68-10.9-.67-4.57-1.6-7-3.56-9.3a12.75 12.75 0 0 0-5.95-4.08c-2-.76-2.66-.84-7.8-.96l-7.75-.2c-1.17-.06-2.32.05-2.54.23m-4.99 70.65c-.11.18.15.32.6.32.44 0 .8-.14.8-.32 0-.17-.27-.3-.6-.3-.34 0-.7.13-.8.3m8.97 34.86c4.76.05 12.55.05 17.3 0 4.77-.05.87-.09-8.65-.09s-13.41.04-8.65.09" fill="#eeecec" fill-rule="evenodd" style="stroke-width:.311888"/><path d="M28.42 27.66c-.5.16-.42 144.76.08 144.77 5.14.07 143.22-.05 143.3-.12.2-.2.13-144.36-.08-144.56-.2-.2-142.7-.29-143.3-.1m32.28.99c-24.6.2-31.37.39-30.92.85.5.49 91.87.8 128 .43 11.17-.12 13.18-.24 12.32-.76-.85-.5-71.62-.84-109.4-.52m29.32 2.81c-1.37.1 4.03.2 12 .2 9.58 0 12.97-.07 9.99-.21-5.5-.27-18.56-.26-22 .01m-11.35 25.3c-1.06.13-1.61.44-2.45 1.36l-1.09 1.18.24 33.56c.13 18.47.33 36.02.43 39l.2 5.44 1.37.72c1.82.97 5.4 1.03 7.17.12l1.18-.6.23-14.75c.13-8.56.36-14.9.53-15.12.2-.24 2.62-.4 7.54-.5 4.05-.08 8.06-.32 9.1-.55 4.8-1 7.93-1.96 9.3-2.81a8.72 8.72 0 0 1 1.78-.93c.74 0 5.24-4.2 6.88-6.41 2.72-3.68 3.6-5.6 4.42-9.5.52-2.48.59-3.72.45-7.63-.19-5.12-.46-6.3-2.24-9.84-1.9-3.78-3.75-5.82-7.75-8.55-2.17-1.48-7.69-3.6-9.38-3.6a3.6 3.6 0 0 1-1.43-.32c-.64-.34-24.14-.59-26.48-.28m8.24 8.54c-.31.25-.43 3.84-.56 16.7-.1 9-.07 16.71.05 17.13l.22.76 6.54-.08c6.97-.08 9.01-.37 12.01-1.7 3.2-1.42 6.66-4.86 7.66-7.6 1.74-4.82 2.17-7.6 1.68-10.9-.67-4.57-1.6-7-3.56-9.3a12.75 12.75 0 0 0-5.95-4.09c-2-.75-2.66-.83-7.8-.95-3.09-.07-6.57-.16-7.75-.21-1.17-.05-2.31.06-2.54.24m-4.99 70.65c-.1.18.15.32.6.32.44 0 .8-.15.8-.32s-.27-.3-.6-.3c-.33 0-.7.13-.8.3m8.97 34.86c4.76.05 12.55.05 17.3 0 4.77-.05.87-.1-8.65-.1s-13.41.05-8.65.1" fill="#5f1818" fill-rule="evenodd" style="stroke-width:.311888"/></svg>