<?xml version="1.0" encoding="UTF-8" standalone="no"?>
<svg
   width="200"
   height="200"
   version="1.1"
   id="svg3"
   sodipodi:docname="parabola_gnu_linux_libre.svg"
   inkscape:version="1.4.2 (ebf0e940d0, 2025-05-08)"
   xmlns:inkscape="http://www.inkscape.org/namespaces/inkscape"
   xmlns:sodipodi="http://sodipodi.sourceforge.net/DTD/sodipodi-0.dtd"
   xmlns="http://www.w3.org/2000/svg"
   xmlns:svg="http://www.w3.org/2000/svg">
  <defs
     id="defs3" />
  <sodipodi:namedview
     id="namedview3"
     pagecolor="#ffffff"
     bordercolor="#666666"
     borderopacity="1.0"
     inkscape:showpageshadow="2"
     inkscape:pageopacity="0.0"
     inkscape:pagecheckerboard="0"
     inkscape:deskcolor="#d1d1d1"
     inkscape:zoom="2.6990741"
     inkscape:cx="50.758147"
     inkscape:cy="91.512864"
     inkscape:window-width="1916"
     inkscape:window-height="1032"
     inkscape:window-x="0"
     inkscape:window-y="22"
     inkscape:window-maximized="1"
     inkscape:current-layer="svg3" />
  <path
     style="fill:#787dab;stroke-width:0.900088"
     d="m 147.90257,32.493367 c -4.14041,0.360035 -8.46083,1.080106 -13.05128,2.070203 l -28.98285,29.70292 c 3.33033,0.450044 6.30062,1.080106 9.18091,1.980195 z m 20.43201,1.710168 -40.05394,41.044035 c 11.25111,14.581432 7.20071,43.92432 -16.47162,92.25906 17.55173,-19.17188 94.14926,-114.311228 59.13581,-132.312996 a 23.4023,23.4023 0 0 0 -2.70026,-0.990098 z m -53.37524,5.760566 A 414.94079,414.94079 0 0 0 98.12768,45.814677 L 78.955796,65.526614 A 135.01327,135.01327 0 0 1 91.467025,63.996463 L 114.86933,39.964101 Z M 86.156504,50.495137 C 51.233071,64.896552 20.000001,82.448277 20.000001,82.448277 a 360.2154,360.2154 0 0 1 49.95491,-15.301504 z"
     id="path1" />
</svg>
