<svg height="200" width="200" xmlns:xlink="http://www.w3.org/1999/xlink" xmlns="http://www.w3.org/2000/svg"><defs><linearGradient id="d" y2="12.89" gradientUnits="userSpaceOnUse" x2="16.55" gradientTransform="matrix(1.5025 0 0 1 -6.6 -2.14)" y1="10.03" x1="13.06"><stop stop-color="#3b1941"/><stop stop-color="#a949b9" offset="1"/></linearGradient><linearGradient id="s" y2="23.68" xlink:href="#a" gradientUnits="userSpaceOnUse" x2="9.64" y1="24.94" x1="10.5"/><linearGradient id="e" y2="13.89" gradientUnits="userSpaceOnUse" x2="16.14" gradientTransform="matrix(1.2363 0 0 .5496 -5.48 3.77)" y1="10.6" x1="12.41"><stop stop-color="#3b1941"/><stop stop-color="#a646b7" offset="1"/></linearGradient><linearGradient id="u" y2="43.35" gradientUnits="userSpaceOnUse" x2="0" y1="40.42"><stop stop-color="#6b3678"/><stop stop-color="#6b3678" stop-opacity="0" offset="1"/></linearGradient><linearGradient id="j" y2="18.72" gradientUnits="userSpaceOnUse" x2="10.63" y1="24.34" x1="11.56"><stop stop-color="#9a5ba8"/><stop stop-color="#744380" offset="1"/></linearGradient><linearGradient id="t" y2="44.32" gradientUnits="userSpaceOnUse" x2="0" y1="39.1"><stop stop-color="#7a1d90"/><stop stop-color="#6b3678" stop-opacity="0" offset="1"/></linearGradient><linearGradient id="m" y2="18.25" gradientUnits="userSpaceOnUse" x2="26.01" y1="23.38" x1="24.92"><stop stop-color="#9a5ba8"/><stop stop-color="#6b3e75" offset="1"/></linearGradient><linearGradient id="b" y2="33.68" gradientUnits="userSpaceOnUse" x2="41.88" y1="1.8" x1="26.12"><stop stop-color="#729fcf"/><stop stop-color="#25486d" offset="1"/></linearGradient><linearGradient id="l" y2="23.68" xlink:href="#a" gradientUnits="userSpaceOnUse" x2="9.75" y1="25.21" x1="10.49"/><linearGradient id="a"><stop/><stop stop-color="#fff" offset="1"/></linearGradient><linearGradient id="h" y2="47.02" gradientUnits="userSpaceOnUse" x2="0" gradientTransform="matrix(1 0 0 .9882 1.56 -2.4)" y1="40.67"><stop stop-color="#fff" stop-opacity=".95"/><stop stop-color="#eee" stop-opacity="0" offset="1"/></linearGradient><linearGradient id="c" y2="22.78" gradientUnits="userSpaceOnUse" x2="0" y1="4.89"><stop stop-color="#fff"/><stop stop-color="#d3e1f1" offset="1"/></linearGradient><linearGradient id="f" y2="49.07" gradientUnits="userSpaceOnUse" x2="0" gradientTransform="matrix(1 0 0 .9882 1.45 -2.49)" y1="41.61"><stop stop-color="#3b1941"/><stop stop-color="#3b1941" stop-opacity="0" offset="1"/></linearGradient><linearGradient id="r" y2="30.19" gradientUnits="userSpaceOnUse" x2="18.14" y1="29.5" x1="17.97" gradientTransform="matrix(1.0946 .9356 -.6068 1.521 16.75 -33.1)"><stop stop-color="#6e3100"/><stop stop-color="#6e3100" stop-opacity="0" offset="1"/></linearGradient><linearGradient id="g" y2="47.76" gradientUnits="userSpaceOnUse" x2="0" gradientTransform="matrix(1 0 0 .9882 1.45 -2.49)" y1="43.45"><stop stop-color="#7e408d"/><stop stop-color="#82508e" stop-opacity="0" offset="1"/></linearGradient><linearGradient id="q" y2="30.43" gradientUnits="userSpaceOnUse" x2="18.03" y1="29.34" x1="18.34" gradientTransform="matrix(-1.0946 .9356 .6068 1.521 23.29 -33.12)"><stop stop-color="#522400"/><stop stop-color="#6e3100" stop-opacity="0" offset="1"/></linearGradient><linearGradient id="p" y2="29.85" gradientUnits="userSpaceOnUse" x2="19.99" gradientTransform="matrix(1.0769 0 0 1.1429 -.9 -4.68)" y1="29.91" x1="18.5"><stop stop-color="#fdb751"/><stop stop-color="#ce5c00" offset="1"/></linearGradient><filter id="n" x="-.04" y="-.07" width="1.09" height="1.14"><feGaussianBlur stdDeviation=".27"/></filter><filter id="o" height="1.57" width="1.19" y="-.28" x="-.1"><feGaussianBlur stdDeviation=".31"/></filter><radialGradient id="i" gradientUnits="userSpaceOnUse" cy="25.8" cx="14.93" gradientTransform="matrix(1.3365 0 0 1.3895 -.76 -10.71)" r="16.39"><stop stop-color="#fff"/><stop stop-color="#eee" stop-opacity="0" offset="1"/></radialGradient><path id="k" d="M11.41 24.31a1.24 1.3 0 1 1-2.48 0 1.24 1.3 0 1 1 2.48 0z"/></defs><g transform="translate(16.52 18.26) scale(3.47826)"><path d="M20.53 1.5c-3.34 0-6.03 3.11-6.03 6.97v12.06c0 3.86 2.7 6.97 6.03 6.97h14s-.12 3.18-1.6 5.03c5.19 0 6.42-5.04 6.42-5.04l2.15.01c4.01 0 5-3.12 5-6.97V8.47c0-3.86-2.7-6.97-6.03-6.97H20.53Z" stroke="url(#b)" fill="#efefef" style="stroke:url(#b)"/><path d="M20.53 2.5c-2.71 0-5.03 2.58-5.03 5.97v12.06c0 3.4 2.32 5.97 5.03 5.97h14a1 1 0 0 1 1 1s-.16 2.71-.78 3.84c2.1 0 3.78-4.65 3.78-4.65a1 1 0 0 1 .6-.19h2.37c1.75 0 2.56-.57 3.16-1.56.59-1 .84-2.57.84-4.4V8.46c0-3.4-2.32-5.97-5.03-5.97H20.53Z" stroke="#fff" fill="url(#c)" style="fill:url(#c)"/><rect rx=".81" ry=".93" height="1.86" width="7" y="26.41" x="15.64" fill="#eee"/><path d="M10.97 7.68c2.86-1.8 7.71 1.42 8.23 3.07h-3.94c-.07-2.34-4.3-3.07-4.3-3.07Z" fill="url(#d)" style="fill:url(#d)"/><path d="M8.92 9.93c1.62-1.86 6.61-.42 6.61.93l-3.79.55c1.22-1.61-2.82-1.48-2.82-1.48Z" fill="url(#e)" style="fill:url(#e)"/><path d="M16.45 10.48c-6.63 0-12.52 5.45-11.94 12.23 1.27 14.84-2.57 12.83-3.01 19.6 0 2.07.99 3.05 3.1 3.05 1.18 0 26.2.14 28.9.14 2.11 0 1.95-2.04 1.95-2.04 0-2.63-6.4-4.84-8.19-6.77-1.83-1.98.19-9.04.19-9.04.64-1.5 1-3.18 1-4.94 0-6.82-5.38-12.23-12-12.23z" stroke="url(#f)" fill="url(#g)" style="fill:url(#g);stroke:url(#r)"/><path opacity=".55" d="M16.25 11.5c-6.01 0-11.22 5.11-10.75 11.33.56 7.44.32 10-1.48 14.71-2.88 4.75-.9 7 1.45 7l25.88-.04c1.16 0 3.15.5 3.15-.95 0-.22-.2-.63-.75-1.14a14.41 14.41 0 0 0-2.28-1.6c-.9-.55-1.88-1.1-2.75-1.64a7.7 7.7 0 0 1-2.19-1.76 4.9 4.9 0 0 1-.94-2.78c-.06-1.03.08-2.13.2-3.18a27.97 27.97 0 0 1 .8-4.1A11.38 11.38 0 0 0 16.25 11.5z" stroke="url(#h)" fill="url(#i)" style="fill:url(#i);stroke:url(#p)"/><path d="M11.06 17a3.8 3.8 0 0 0-3.1 1.75A5.87 5.87 0 0 0 7 22.03c0 2.7 1.99 5.03 4.56 5.03a4.5 4.5 0 0 0 3-1.31 4.72 4.72 0 0 0 1.56-3.44c0-1.28-.67-2.47-1.56-3.47-.9-1-2.08-1.84-3.5-1.84z" fill="url(#j)" style="fill:url(#j)"/><path d="M15.1 22.32c0 2.2-2.11 3.71-3.53 3.71-1.95 0-3.53-1.8-3.53-4 0-1.92 1.08-4 3.03-4 1.95 0 4.02 2.55 4.02 4.3z" fill="#fff"/><use transform="matrix(1.2378 0 0 1.5448 -1.03 -15.39)" fill="#6b1a80" xlink:href="#k"/><use transform="matrix(.4029 0 0 .7724 7.5 3.25)" fill="url(#l)" xlink:href="#k" style="fill:url(#l)"/><path d="M25.72 17a3.7 3.7 0 0 0-2.65 1.16c-1.57 1.71-1.36 4.45.28 6.25.7.76 1.6 1.35 2.62 1.56a3.2 3.2 0 0 0 3.03-.94 4.61 4.61 0 0 0 1-3.47 5.26 5.26 0 0 0-1.18-3.28 3.96 3.96 0 0 0-3.1-1.28Z" fill="url(#m)" style="fill:url(#m)"/><path d="M28.07 18.98a3.02 3.02 0 0 0-4.26-.13c-1.14 1.25-1 3.43.3 4.86 1.13 1.25 3 1.9 4.14.65 1.14-1.25.85-4.24-.18-5.38z" fill="#fff"/><use transform="matrix(1.2086 0 0 1.5988 13.24 -16.77)" fill="#6b1a80" xlink:href="#k"/><g fill="#5c3566"><path d="M19.06 25.22c-.46 0-.79.28-.97.5-.18.21-.27.43-.4.66-.26.44-.53.9-.88 1.25a3 3 0 0 1-1.72.83c-1.32-.3-2.52-.89-3.65-1.07a.78.78 0 0 0-.16.92c1.17 2.17 2.43 3.34 4.88 4.67 1.2.66 3.4 1.3 4.5 1.76 1.37-.9 4.88-4.4 5.09-6.62a.78.78 0 0 0-.29-.85c-.98.55-2.1.9-3.21 1.16-.46-.02-.74-.44-1.03-.77-.3-.34-.54-.83-.78-1.28a4.15 4.15 0 0 0-.4-.66c-.19-.22-.52-.5-.98-.5z" transform="matrix(.9903 0 0 1.0468 .68 -1.63)" filter="url(#n)"/><path d="M15.81 26.63c-.68 0-1.19.62-1.19 1.3 0 .7.52 1.32 1.2 1.32h5.37c.67 0 1.18-.63 1.18-1.31 0-.69-.5-1.32-1.18-1.32z" transform="translate(1.05 -.6)" filter="url(#o)"/></g><rect rx=".81" ry=".93" height="1.86" width="7" y="26.17" x="16.02" fill="#fff"/><path d="M12.02 27.28c6.31 3.67 6.52-2.25 7.6-2.25 1.07 0 1.27 5.92 6.4 2.2-.29 3.08-3.95 5.83-5 6.83-2.03-1.09-6.98-2.3-9-6.78z" fill="url(#p)" style="fill:url(#p)"/><path opacity=".61" d="M21.2 29.3a1.06.39 71.32 1 0 .63-.54 1.06.39 71.32 1 0-.63.53z" fill="url(#q)" style="fill:url(#q);stroke-width:1.49419"/><path opacity=".61" d="M18.83 29.31a.39 1.06 18.68 1 1-.63-.53.39 1.06 18.68 1 1 .63.53z" fill="url(#r)" style="fill:url(#r);stroke-width:1.49419"/><use transform="matrix(.4029 0 0 .7724 21.44 3.25)" fill="url(#s)" xlink:href="#k" style="fill:url(#s)"/><path opacity=".61" d="M3.38 44.94c-1.63-.38-2.25-3.88.8-9.19 1.22 5 6.82 8.63 6.82 8.63Z" fill="url(#t)" style="fill:url(#t)"/><path opacity=".61" d="M33.65 44.94c1.62-.38 3.12-2.38-4.88-6.38.36 4.14-2.75 5.82-2.75 5.82z" fill="url(#u)" style="fill:url(#u)"/></g></svg>