<svg width="200" height="200" xmlns="http://www.w3.org/2000/svg"><ellipse style="font-variation-settings:normal;opacity:1;vector-effect:none;fill:#fff;fill-opacity:1;fill-rule:evenodd;stroke-width:.918884;stroke-linecap:butt;stroke-linejoin:miter;stroke-miterlimit:4;stroke-dasharray:none;stroke-dashoffset:0;stroke-opacity:1;-inkscape-stroke:none;stop-color:#000;stop-opacity:1" cx="75.13" cy="99.845" rx="51.413" ry="51.345"/><ellipse style="font-variation-settings:normal;vector-effect:none;fill:#fff;fill-opacity:1;fill-rule:evenodd;stroke-width:.918884;stroke-linecap:butt;stroke-linejoin:miter;stroke-miterlimit:4;stroke-dasharray:none;stroke-dashoffset:0;stroke-opacity:1;-inkscape-stroke:none;stop-color:#000" cx="125.351" cy="99.845" rx="51.413" ry="51.345"/><path style="fill:#333;fill-opacity:1;stroke-width:.549487" d="M62.6 166.3a70.7 70.7 0 0 1-61.5-54.4A74 74 0 0 1 1 87.3a68.2 68.2 0 0 1 63.3-53.7c9-.7 20.9 1.3 30.2 5 4.4 1.8 5 2 6.6 1.3a70.3 70.3 0 0 1 54.3-1.9 73 73 0 0 1 33.2 25.7 78 78 0 0 1 9.9 21 47 47 0 0 1 1.5 16c0 9.7-.1 10.7-1.5 15.8a67.4 67.4 0 0 1-34.3 42.2 69.2 69.2 0 0 1-58.1 2.7l-5-1.9-2.4 1a73.6 73.6 0 0 1-36 5.7zm15.5-3.6c6.5-1.1 17.8-5 17.8-6l-3.7-2.6a69.2 69.2 0 0 1-28-38.8 45 45 0 0 1-1.5-15.8c0-9.7.1-10.9 1.5-16a67.4 67.4 0 0 1 28.7-39l3.6-2.4-2-.8a64.4 64.4 0 0 0-43.9-1.7A69.2 69.2 0 0 0 17.8 63 72.6 72.6 0 0 0 7.6 84a79.3 79.3 0 0 0-1 28A63.5 63.5 0 0 0 57 162.7c5.4 1 15.2 1 21 0zm-52.8-44.3c1-1 1.1-2.2 1.1-18.3 0-16.4 0-17.3-1-18.4l-1.2-1.3 9.6.3c8.8.1 9.9.2 12.2 1.4 3.7 1.8 5.5 4.4 5.8 8 .4 4.6-1.6 7.8-6.3 10.2-2.8 1.4-8.6 2.2-9.2 1.2-.2-.4 0-.6.8-.6 1.7 0 5.2-2 6.6-3.6 2.8-3.7 2.4-8.5-.9-11a13.7 13.7 0 0 0-9.3-1.7l-1.4.4.1 15.9.2 15.8 1.3 1.4 1.4 1.5H24.3Zm120.2 43.3a64 64 0 0 0 30.6-18 61.5 61.5 0 0 0 18.5-41.5 63 63 0 0 0-52.5-65c-6.3-1-18.3-.4-24 1a53.8 53.8 0 0 0-13.4 5 85.3 85.3 0 0 1 21 19.7 63.7 63.7 0 0 1-7.9 84.4 82.8 82.8 0 0 1-9.2 7.5c-5.2 3.4-5.3 3.2 3 6a50 50 0 0 0 20.3 2.5c6.6-.2 9.3-.5 13.6-1.6zm30.2-42.1c-3.2-.8-8-5.9-14.3-15.1l-3.4-5 2.8-.8a12 12 0 0 0 5-2.8c1.9-1.8 2.1-2.3 2.1-4.8 0-4.8-3.8-7.8-9.2-7l-2.4.4v16.3c0 13.9.2 16.5.9 17.6l.8 1.2h-9.4l.8-1.7c.8-1.3.9-4.4.9-17.8 0-16-.2-18-1.9-19.2a47.8 47.8 0 0 1 9-.2c9.3.1 9.7.2 12.1 1.6 6.4 3.7 6.5 11.8.2 15.9a12 12 0 0 1-3.3 1.6c-1.6 0-1.2 1.3 1 4.2a82.7 82.7 0 0 0 14.6 15.3 16.5 16.5 0 0 1-6.2.3zm-71 32.2A70.5 70.5 0 0 0 126 127a61.7 61.7 0 0 0 3-47.8 65.9 65.9 0 0 0-27.8-34.4 63.2 63.2 0 0 0-15.3 99.9A45.4 45.4 0 0 0 99.7 155a53.8 53.8 0 0 0 5-3.2zm-21.5-33.7c1-1.4 1.1-2 1.1-17.9 0-13.6 0-16.7-.8-18l-.8-1.6h9c12.4 0 16.8 1.2 21.8 6.1a16.6 16.6 0 0 1 5.2 13 18 18 0 0 1-5.2 13.5c-4.6 5-9.8 6.3-23.6 6.4h-7.8zm21.2-4.5a16.5 16.5 0 0 0 7.4-8.6c.4-1.4.6-4 .4-6.2-.6-8.7-5.8-13.7-14.8-14.3a28 28 0 0 0-5.6.1l-1.4.3v30.4l6-.2c4.6-.2 6.3-.5 8-1.5z" transform="translate(19.984 20.06) scale(.7995)"/></svg>