<svg width="200" height="200" viewBox="0 0 100 100" xmlns="http://www.w3.org/2000/svg"><defs><linearGradient x1="44.5" y1="92" x2="44.5" y2="-3" id="a" gradientUnits="userSpaceOnUse"><stop stop-color="#FFD53F" offset="0%"/><stop stop-color="#EED64E" offset="6%"/><stop stop-color="#A6DB8C" offset="32%"/><stop stop-color="#6DDEBE" offset="55%"/><stop stop-color="#44E1E1" offset="75%"/><stop stop-color="#2BE2F7" offset="91%"/><stop stop-color="#22E3FF" offset="100%"/></linearGradient><linearGradient x1="48.2" y1="16.9" x2="51.7" y2="94.3" id="b" gradientTransform="scale(1.0064 .99365)" gradientUnits="userSpaceOnUse"><stop stop-color="#566690" offset="6%"/><stop stop-color="#00293E" offset="54%"/><stop stop-color="#001723" offset="70%"/><stop stop-color="#000609" offset="89%"/><stop offset="100%"/></linearGradient></defs><g transform="translate(13.305 12.474) scale(.82462)" fill="none"><circle stroke="#fff" stroke-width="3" fill="url(#a)" cx="44.5" cy="44.5" r="46" style="fill:url(#a)"/><path d="M74.6 41.8c-15-26.1-27-28.3-35.7-24.2-4.3 2-2.5 3.8-8.6 2.5-5.4-1.2-7.9-1.5-12.6.6-4.8 2.2-6.7 5-6.7 6.3 0 1.3 1.3-1.9 4.7-2.2 3.5-.3 8.3 0 12 2.8 3.9 2.8 4.2 3.8 4.2 5 0 1.3-5-.5-9.8.7-4.3 1-7.6 2.5-8 3.7-.3 1.3 8.7.4 12.4.3 1.8.1 3.2-.4 4.4 2 1.3 2.4 1.6 4.3 3.2 5 1.6.5 2-1.3 3.8 2.4 2 3.8 2.5 6 .3 11.6-2.2 5.7-3.4 9.5-2.5 8.5.7-.7 2.5-.9 3.3-2-.2 2 0 5.7 2.7 9.9 4.8 7.2 11.7 6.6 21.5 9 15.3 3.9 22.9 4 26 9.3.7 1 1.1 1.9.4-.6-3-11.4-5.7-34.7-15-50.6z" fill="url(#b)" style="fill:url(#b)"/><circle fill="#fff" cx="41" cy="23" r="2"/></g></svg>