<?xml version="1.0" encoding="UTF-8" standalone="no"?>
<svg
   viewBox="0 0 200 200"
   version="1.1"
   id="svg1"
   sodipodi:docname="rivista.svg"
   inkscape:version="1.4.2 (ebf0e940d0, 2025-05-08)"
   xmlns:inkscape="http://www.inkscape.org/namespaces/inkscape"
   xmlns:sodipodi="http://sodipodi.sourceforge.net/DTD/sodipodi-0.dtd"
   xmlns:xlink="http://www.w3.org/1999/xlink"
   xmlns="http://www.w3.org/2000/svg"
   xmlns:svg="http://www.w3.org/2000/svg">
  <defs
     id="defs1">
    <linearGradient
       id="linearGradient10-1">
      <stop
         style="stop-color:#67e6ff;stop-opacity:1;"
         offset="0"
         id="stop15" />
      <stop
         style="stop-color:#ffffff;stop-opacity:1;"
         offset="1"
         id="stop16" />
    </linearGradient>
    <linearGradient
       id="swatch6"
       inkscape:swatch="solid">
      <stop
         style="stop-color:#ffffff;stop-opacity:1;"
         offset="0"
         id="stop6" />
    </linearGradient>
    <linearGradient
       inkscape:collect="always"
       xlink:href="#linearGradient10-1"
       id="linearGradient12"
       x1="100.00002"
       y1="196.88293"
       x2="100.00002"
       y2="3.1170096"
       gradientUnits="userSpaceOnUse" />
  </defs>
  <sodipodi:namedview
     id="namedview1"
     pagecolor="#ffffff"
     bordercolor="#666666"
     borderopacity="1.0"
     inkscape:showpageshadow="2"
     inkscape:pageopacity="0.0"
     inkscape:pagecheckerboard="0"
     inkscape:deskcolor="#d1d1d1"
     inkscape:zoom="4.09"
     inkscape:cx="79.584352"
     inkscape:cy="90.220049"
     inkscape:window-width="1916"
     inkscape:window-height="1032"
     inkscape:window-x="0"
     inkscape:window-y="22"
     inkscape:window-maximized="1"
     inkscape:current-layer="svg1" />
  <style
     type="text/css"
     id="style1">#rivista{fill: #700000;}</style>
  <circle
     style="font-variation-settings:normal;display:inline;opacity:1;fill:url(#linearGradient12);fill-rule:evenodd;stroke:#000000;stroke-width:13;stroke-linecap:butt;stroke-linejoin:miter;stroke-miterlimit:4;stroke-dasharray:none;stroke-dashoffset:0;stroke-opacity:1;stop-color:#000000;stop-opacity:1;fill-opacity:1"
     id="path2"
     cx="100"
     cy="100"
     r="89.382942" />
  <path
     style="display:none;fill:#000000;stroke-width:0.66895"
     d="M 57.473077,99.999999 V 40.420851 l 30.60449,0.258831 c 32.581743,0.275554 33.441363,0.355781 40.518103,3.78157 7.39694,3.580799 11.86104,10.19015 13.23487,19.594919 2.35015,16.088442 -7.05471,29.017242 -26.94089,37.035439 -2.91615,1.17581 -5.30411,2.39911 -5.30657,2.71847 -0.003,0.31936 7.91382,11.40746 17.59178,24.64022 9.67795,13.23276 18.74169,25.65016 20.14165,27.59421 l 2.54538,3.53464 -10.23831,-0.0316 -10.23831,-0.0316 -18.89786,-26.70619 -18.897854,-26.70619 v -5.02464 c 0,-4.944957 0.0292,-5.030557 1.83961,-5.397947 22.013364,-4.46715 32.287754,-12.75395 32.273144,-26.029907 -0.008,-7.102161 -2.92442,-10.036768 -8.69263,-12.707071 -2.80754,-1.299704 -4.39565,-1.407762 -23.580514,-1.604371 l -20.57023,-0.210806 v 51.225142 53.22513 h -7.69293 -7.69293 z"
     id="path1"
     sodipodi:nodetypes="ccsssscsscccccsccsscccccc" />
  <path
     style="display:inline;fill:#000000;stroke-width:0.437505"
     d="m 53.175411,155.45737 c -1.443313,-0.56425 -2.589156,-1.71358 -2.903918,-2.91277 -0.198689,-0.75695 -0.02202,-1.29488 2.655326,-8.08607 2.433985,-6.17385 4.09112,-10.58935 5.803474,-15.46351 6.755015,-19.228 11.626903,-39.28781 14.129405,-58.177381 0.661623,-4.99405 1.327923,-11.397054 1.234698,-11.865142 -0.130812,-0.656822 -6.027768,0.0067 -9.261997,1.042292 -3.540637,1.13361 -6.413309,3.061994 -7.89432,5.299348 -0.282722,0.427115 -0.92929,1.813132 -1.436818,3.080036 -1.06571,2.660276 -1.619027,3.515661 -3.306878,5.11217 -3.422814,3.237595 -8.760307,5.941398 -11.728696,5.941398 -1.818715,0 -3.88568,-1.768222 -4.541277,-3.884914 -0.209213,-0.675459 2.453666,-6.965561 3.926612,-9.27524 1.889502,-2.962857 4.866784,-6.236993 7.754793,-8.527976 8.393424,-6.658311 20.967172,-11.514193 33.562138,-12.961428 3.15373,-0.362383 7.327952,-0.484688 16.558462,-0.485162 15.833935,-8.31e-4 21.991405,0.401518 28.922745,1.889823 13.10894,2.814765 20.38449,8.583662 21.71068,17.214708 0.30399,1.978394 0.18232,5.269495 -0.28723,7.770092 -1.43637,7.649231 -5.37096,14.460122 -12.21284,21.140754 -6.01656,5.87476 -13.47209,10.578632 -20.66726,13.039462 -1.08,0.36938 -1.78449,0.68352 -1.78502,0.79598 -4.4e-4,0.10217 0.19996,0.38568 0.44543,0.63 1.44565,1.43893 3.90146,6.27135 8.79909,17.31444 3.90831,8.8124 4.22891,9.46309 5.92057,12.01636 1.52328,2.29913 3.22218,4.123 4.47164,4.80061 l 0.87263,0.47325 2.10003,-0.005 c 4.09541,-0.0104 5.64284,-0.80965 8.64135,-4.46291 1.70265,-2.07446 5.08122,-5.44053 6.53171,-6.50757 3.0924,-2.2749 6.32387,-3.52451 8.63465,-3.33902 2.22116,0.17829 4.26263,2.00029 4.26263,3.80436 0,1.75407 -3.06212,5.95517 -7.50881,10.30178 -7.01494,6.85705 -15.19457,11.63762 -23.24339,13.58457 -2.88293,0.69736 -4.48311,0.89165 -7.39826,0.89828 -2.36424,0.005 -2.78457,-0.0296 -3.78005,-0.3146 -1.55043,-0.44389 -3.71475,-1.52476 -5.11936,-2.55665 -2.46869,-1.81362 -5.26957,-5.03873 -7.28587,-8.38944 -0.56721,-0.94258 -2.83544,-5.69552 -5.86299,-12.28551 -4.950285,-10.77519 -5.578085,-12.07026 -6.963045,-14.36402 -2.47335,-4.09635 -4.49055,-5.80734 -7.137,-6.05361 -2.440669,-0.22712 -4.519438,-2.0581 -4.519438,-3.98071 0,-2.40479 3.790048,-6.03096 9.003848,-8.614552 2.90076,-1.4374 4.55385,-1.88557 6.955005,-1.88557 3.56368,0 8.10792,-0.76989 11.54874,-1.95659 1.83872,-0.63416 5.26891,-2.3824 6.72008,-3.42498 5.64899,-4.058457 9.27816,-10.196698 10.14272,-17.15503 0.41258,-3.320626 -0.0725,-5.843828 -1.54736,-8.048953 -2.60962,-3.901686 -8.41684,-6.290902 -17.84596,-7.342206 -3.73149,-0.416046 -6.56015,-0.567842 -12.309655,-0.660584 -4.25904,-0.0687 -5.2204,-0.04965 -5.40693,0.107162 -0.17276,0.145234 -0.30101,0.858495 -0.53778,2.990751 -2.72907,24.577927 -9.978599,51.813672 -21.446132,80.570982 -2.298376,5.76367 -2.407561,5.96736 -4.09141,7.63234 -3.990904,3.94624 -10.453782,6.6409 -13.278762,5.53652 z"
     id="path9" />
</svg>
