<svg width="200" height="200" viewBox="0 0 256 256" xmlns="http://www.w3.org/2000/svg"><defs><linearGradient x1="30.06" y1="30.06" x2="225.94" y2="225.94" id="a" gradientUnits="userSpaceOnUse"><stop offset="0" stop-color="#E3702D"/><stop offset=".107" stop-color="#EA7D31"/><stop offset=".35" stop-color="#F69537"/><stop offset=".5" stop-color="#FB9E3A"/><stop offset=".702" stop-color="#EA7C31"/><stop offset=".887" stop-color="#DE642B"/><stop offset="1" stop-color="#D95B29"/></linearGradient></defs><g transform="matrix(.8 0 0 .8 25.6 25.6)"><rect width="256" height="256" rx="55" ry="55" fill="#cc5d15"/><rect width="246" height="246" rx="50" ry="50" x="5" y="5" fill="#f49c52"/><rect width="236" height="236" rx="47" ry="47" x="10" y="10" fill="url(#a)" style="fill:url(#a)"/><circle cx="68" cy="189" r="24" fill="#fff"/><path d="M160 213h-34a82 82 0 0 0-82-82V97a116 116 0 0 1 116 116z" fill="#fff"/><path d="M184 213A140 140 0 0 0 44 73V38a175 175 0 0 1 175 175z" fill="#fff"/></g></svg>