<svg width="200" height="200" xmlns="http://www.w3.org/2000/svg"><path d="M0 0h200v199.995H0V0" style="fill:#ed1c24;fill-opacity:1;fill-rule:evenodd;stroke:none;stroke-width:.207773" transform="matrix(.8 0 0 .80002 20 20)"/><path d="M99.997 61.744c4.287 0 7.785 3.493 7.785 7.781 0 4.285-3.498 7.781-7.785 7.781-4.283 0-7.784-3.496-7.784-7.78 0-4.29 3.5-7.782 7.784-7.782zm0 3.798a3.987 3.987 0 0 1 3.98 3.983 3.987 3.987 0 0 1-3.98 3.983 3.988 3.988 0 0 1-3.98-3.983 3.988 3.988 0 0 1 3.98-3.983" style="fill:#fff;fill-opacity:1;fill-rule:evenodd;stroke:none;stroke-width:.207773" transform="matrix(.8 0 0 .80002 20 20)"/><path d="M99.997 122.69c4.287 0 7.785 3.493 7.785 7.782 0 4.286-3.498 7.78-7.785 7.78-4.283 0-7.784-3.494-7.784-7.78 0-4.289 3.5-7.782 7.784-7.782zm0 3.796a3.988 3.988 0 0 1 3.98 3.986 3.986 3.986 0 0 1-3.98 3.98 3.987 3.987 0 0 1-3.98-3.98 3.99 3.99 0 0 1 3.98-3.986" style="fill:#fff200;fill-opacity:1;fill-rule:evenodd;stroke:none;stroke-width:.207773" transform="matrix(.8 0 0 .80002 20 20)"/><path d="M32.96 132.362h13.784v-3.781H32.96v3.781" style="fill:#fff;fill-opacity:1;fill-rule:evenodd;stroke:none;stroke-width:.207773" transform="matrix(.8 0 0 .80002 20 20)"/><path d="M27.627 138.253c4.285 0 7.78-3.495 7.78-7.781 0-4.289-3.495-7.782-7.78-7.782-4.287 0-7.782 3.493-7.782 7.782 0 4.286 3.495 7.78 7.782 7.78zm0-3.8a3.987 3.987 0 0 0 3.98-3.981 3.99 3.99 0 0 0-3.98-3.986 3.994 3.994 0 0 0-3.984 3.986 3.991 3.991 0 0 0 3.984 3.98" style="fill:#fff;fill-opacity:1;fill-rule:evenodd;stroke:none;stroke-width:.207773" transform="matrix(.8 0 0 .80002 20 20)"/><path d="M167.035 71.414h-13.78v-3.78h13.78v3.78" style="fill:#fff200;fill-opacity:1;fill-rule:evenodd;stroke:none;stroke-width:.207773" transform="matrix(.8 0 0 .80002 20 20)"/><path d="M172.368 77.306c-4.282 0-7.779-3.496-7.779-7.78 0-4.29 3.497-7.782 7.78-7.782 4.286 0 7.78 3.493 7.78 7.781 0 4.285-3.494 7.781-7.78 7.781zm0-3.798a3.99 3.99 0 0 1-3.98-3.983 3.99 3.99 0 0 1 3.98-3.983 3.99 3.99 0 0 1 3.983 3.983 3.99 3.99 0 0 1-3.983 3.983m-20.146 8.845V68.576H156v13.777h-3.778" style="fill:#fff200;fill-opacity:1;fill-rule:evenodd;stroke:none;stroke-width:.207773" transform="matrix(.8 0 0 .80002 20 20)"/><path d="M146.326 87.687c0-4.284 3.495-7.781 7.785-7.781 4.284 0 7.78 3.497 7.78 7.78 0 4.287-3.496 7.782-7.78 7.782-4.29 0-7.785-3.495-7.785-7.781zm3.802 0a3.989 3.989 0 0 1 3.983-3.981 3.988 3.988 0 0 1 3.979 3.98c0 2.19-1.789 3.986-3.979 3.986a3.995 3.995 0 0 1-3.983-3.985" style="fill:#fff200;fill-opacity:1;fill-rule:evenodd;stroke:none;stroke-width:.207773" transform="matrix(.8 0 0 .80002 20 20)"/><path d="M43.99 117.637v13.784h3.783v-13.784H43.99" style="fill:#fff;fill-opacity:1;fill-rule:evenodd;stroke:none;stroke-width:.207773" transform="matrix(.8 0 0 .80002 20 20)"/><path d="M38.1 112.304c0 4.288 3.494 7.783 7.783 7.783 4.284 0 7.782-3.495 7.782-7.783 0-4.287-3.498-7.781-7.782-7.781-4.289 0-7.783 3.494-7.783 7.78zm3.797 0a3.99 3.99 0 0 0 3.986 3.985 3.988 3.988 0 0 0 3.979-3.985 3.985 3.985 0 0 0-3.979-3.979 3.988 3.988 0 0 0-3.986 3.979" style="fill:#fff;fill-opacity:1;fill-rule:evenodd;stroke:none;stroke-width:.207773" transform="matrix(.8 0 0 .80002 20 20)"/><path d="M57.21 129.88h9.45v8.886l10.845 10.846h44.987l10.844-10.846v-16.59l-10.844-10.847H68.119L43.996 87.21V51.84L68.12 27.724h63.76L156 51.84v17.737h-9.449v-13.82L127.965 37.17H72.032L53.448 55.756v27.536l18.584 18.586h54.375l16.382 16.383v24.42l-16.382 16.38H73.59l-16.38-16.38v-12.802" style="fill:#fff200;fill-opacity:1;fill-rule:evenodd;stroke:none;stroke-width:.207773" transform="matrix(.8 0 0 .80002 20 20)"/><path d="M77.505 50.385 66.661 61.231V77.82l10.844 10.847h54.374L156 112.788v35.365l-24.12 24.12H68.12l-24.123-24.12V129.88h9.452v14.36l18.584 18.587h55.933l18.585-18.587v-27.537l-18.585-18.585H73.59L57.21 81.734v-24.42l16.38-16.383h52.816l16.382 16.383v12.263h-9.453v-8.346l-10.844-10.846H77.505" style="fill:#fff;fill-opacity:1;fill-rule:evenodd;stroke:none;stroke-width:.207773" transform="matrix(.8 0 0 .80002 20 20)"/><path d="M146.55 67.635H156v3.779h-9.45v-3.78" style="fill:#fff200;fill-opacity:1;fill-rule:evenodd;stroke:none;stroke-width:.207773" transform="matrix(.8 0 0 .80002 20 20)"/><path d="M105.33 67.635h37.46v3.779h-37.46v-3.78" style="fill:#fff;fill-opacity:1;fill-rule:evenodd;stroke:none;stroke-width:.207773" transform="matrix(.8 0 0 .80002 20 20)"/><path d="M57.21 128.58h37.02v3.782H57.21v-3.781" style="fill:#fff200;fill-opacity:1;fill-rule:evenodd;stroke:none;stroke-width:.207773" transform="matrix(.8 0 0 .80002 20 20)"/><path d="M43.996 128.58h9.452v3.782h-9.452v-3.781" style="fill:#fff;fill-opacity:1;fill-rule:evenodd;stroke:none;stroke-width:.207773" transform="matrix(.8 0 0 .80002 20 20)"/></svg>