<svg id="Capa_1" data-name="Capa 1" version="1.1" width="200" height="200" xmlns="http://www.w3.org/2000/svg"><defs id="defs1"><style id="style1">.cls-1{fill:#fff;stroke-width:0}</style></defs><g id="g1" transform="matrix(.806 0 0 .806 19.398 19.397)"><g id="g23" transform="translate(19.35 30.57) scale(.79815)"><path class="cls-1" d="M32.33 158.15c0 2.23-.65 4.18-1.86 5.76a6.22 6.22 0 0 1-5.2 2.69H6.9v8.07H1.05v-24.96h24.13c2.14 0 3.9.92 5.2 2.69a9.29 9.29 0 0 1 1.85 5.75zm-5.85 0c0-1.76-.46-2.6-1.3-2.6H6.81v5.2h18.37c.84 0 1.3-.84 1.3-2.6z" id="path16"/><path class="cls-1" d="M64.07 174.6h-7.98l-12.44-13.93h15.03c1.03 0 1.58-.83 1.58-2.6 0-1.76-.55-2.6-1.58-2.6h-18v19.12h-5.85v-24.96h24.23c2.22 0 3.99.83 5.29 2.6a9.23 9.23 0 0 1 1.76 5.75c0 2.23-.56 4.18-1.76 5.76a6.19 6.19 0 0 1-5.3 2.6h-2.22l7.33 8.16z" id="path17"/><path class="cls-1" d="M74.28 174.6h-5.85v-24.96h5.85z" id="path18"/><path class="cls-1" d="M105.74 149.72 93.02 174.7H88.1l-12.7-24.98h6.5l8.81 17.08 8.63-17.08h6.5z" id="path19"/><path class="cls-1" d="M138.13 174.6h-5.85v-7.9h-15.31v-5.84h15.31v-3.53c0-1.3-.46-1.85-1.3-1.85h-16.52c-.83 0-1.2.65-1.2 1.85v17.26h-5.85v-17.26c0-2.13.65-3.9 1.95-5.38a6.41 6.41 0 0 1 5.1-2.23h16.52c2.14 0 3.8.74 5.1 2.23a8 8 0 0 1 1.96 5.38v17.26z" id="path20"/><path class="cls-1" d="M168.01 174.62h-19.3a8.14 8.14 0 0 1-5.76-2.22 7.43 7.43 0 0 1-2.4-5.66v-9.2c0-2.22.83-4.17 2.4-5.65a8.14 8.14 0 0 1 5.76-2.23H168v5.85h-19.3c-1.58 0-2.32.65-2.32 2.04v9.1c0 1.39.74 2.03 2.32 2.03H168v5.85z" id="path21"/><path class="cls-1" d="M200.96 157.44a7.8 7.8 0 0 1-1.86 5.29 6.47 6.47 0 0 1-5.1 2.32h-5.3v9.56h-5.84v-9.56h-5.38c-2.04 0-3.8-.74-5.1-2.32a7.77 7.77 0 0 1-1.96-5.29v-7.7h5.85v7.7c0 1.2.37 1.86 1.2 1.86H194c.83 0 1.2-.65 1.2-1.86v-7.7h5.85v7.7z" id="path22"/></g><g id="g24" transform="translate(4.23 5.57) scale(.94778)"><path class="cls-1" d="M26.14 114.17c0 1.8-.55 3.28-1.56 4.53a5.44 5.44 0 0 1-4.3 1.95H2.07v-4.92H20.2c.7 0 1.02-.55 1.02-1.56 0-1.02-.32-1.57-1.02-1.57H7a5.31 5.31 0 0 1-4.3-1.95 6.54 6.54 0 0 1-1.65-4.46 7.1 7.1 0 0 1 1.64-4.6A5.58 5.58 0 0 1 7 99.62h18.13v4.92H7c-.7 0-1.01.55-1.01 1.57 0 1.01.3 1.56 1.01 1.56h13.2c1.73 0 3.21.62 4.3 1.95a6.54 6.54 0 0 1 1.57 4.54z" id="path6"/><path class="cls-1" d="M33.1 120.65h-4.93V99.63h4.93z" id="path7"/><path class="cls-1" d="M62.4 120.65h-4.92v-12.82l-8.75 12.43-8.76-12.43v12.82h-4.92V99.63h5.16l8.52 12.11 8.52-12.11h5.08v21.02z" id="path8"/><path class="cls-1" d="M90.77 106.82c0 1.87-.54 3.52-1.56 4.84a5.24 5.24 0 0 1-4.38 2.27H69.36v6.8h-4.92V99.71h20.32c1.8 0 3.28.78 4.37 2.26a7.82 7.82 0 0 1 1.57 4.85zm-4.92 0c0-1.49-.4-2.19-1.1-2.19H69.29v4.38h15.48c.7 0 1.09-.7 1.09-2.2z" id="path9"/><path class="cls-1" d="M113.83 120.65H92.81V99.63h4.92v16.1h16.1z" id="path10"/><path class="cls-1" d="M120.79 120.65h-4.93V99.63h4.93z" id="path11"/><path class="cls-1" d="M145.25 104.55h-17.5v3.13h16.4v4.92h-16.4v8.05h-4.93V99.63h22.43z" id="path12"/><path class="cls-1" d="M151.5 120.65h-4.92V99.63h4.92z" id="path13"/><path class="cls-1" d="M175.96 104.55h-17.5v3.13h16.4v4.92h-16.4v3.13h17.5v4.92h-22.35V99.63h22.43v4.92z" id="path14"/><path class="cls-1" d="M201.05 114a6.3 6.3 0 0 1-1.95 4.78 6.85 6.85 0 0 1-4.85 1.87h-16.18v-13.2H183v8.36h11.33c1.25 0 1.88-.55 1.88-1.72v-7.66c0-1.17-.63-1.72-1.88-1.72h-16.26v-4.93h16.18c1.88 0 3.52.63 4.85 1.88a6.2 6.2 0 0 1 1.95 4.77v7.74z" id="path15"/></g><g id="g5" transform="matrix(4.96279 0 0 4.96278 -23.67 30)"><path class="cls-1" d="M12.36 8.06h-1.88L4.92 4.09 10.48 0h1.88L6.8 4.09Z" id="path1"/><path class="cls-1" d="M22.77 5.57c0 .68-.2 1.26-.61 1.74-.44.5-.99.75-1.66.75h-6.96V6.18h6.96c.26 0 .39-.2.39-.6 0-.4-.13-.6-.39-.6h-5.06c-.67 0-1.22-.25-1.66-.75a2.48 2.48 0 0 1-.63-1.72c0-.68.21-1.26.64-1.76a2.1 2.1 0 0 1 1.65-.74h6.96v1.88h-6.98c-.26 0-.39.2-.39.61s.13.6.39.6h5.07c.67 0 1.23.25 1.67.75.41.48.61 1.06.61 1.73z" id="path2"/><path class="cls-1" d="M25.81 8.06h-2.26V6.19h2.26z" id="path3"/><path class="cls-1" d="M36.69 2.73c0 .72-.2 1.34-.6 1.85-.43.57-.99.86-1.69.86h-5.93v2.62h-1.88V0h7.81c.7 0 1.26.29 1.69.86.4.52.6 1.14.6 1.87zm-1.88 0c0-.56-.14-.85-.41-.85h-5.93v1.68h5.93c.27 0 .41-.28.41-.83z" id="path4"/><path class="cls-1" d="m44.92 4.09-5.56 3.97h-1.88l5.56-3.97L37.48 0h1.88z" id="path5"/></g></g></svg>