<?xml version="1.0" encoding="UTF-8" standalone="no"?>
<svg
   id="Layer_2"
   data-name="Layer 2"
   viewBox="0 0 200 200"
   version="1.1"
   sodipodi:docname="siskin.svg"
   width="200"
   height="200"
   inkscape:version="1.4.2 (ebf0e940d0, 2025-05-08)"
   xmlns:inkscape="http://www.inkscape.org/namespaces/inkscape"
   xmlns:sodipodi="http://sodipodi.sourceforge.net/DTD/sodipodi-0.dtd"
   xmlns:xlink="http://www.w3.org/1999/xlink"
   xmlns="http://www.w3.org/2000/svg"
   xmlns:svg="http://www.w3.org/2000/svg">
  <sodipodi:namedview
     id="namedview19"
     pagecolor="#ffffff"
     bordercolor="#666666"
     borderopacity="1.0"
     inkscape:showpageshadow="2"
     inkscape:pageopacity="0.0"
     inkscape:pagecheckerboard="0"
     inkscape:deskcolor="#d1d1d1"
     inkscape:zoom="1.7226855"
     inkscape:cx="242.06391"
     inkscape:cy="190.98088"
     inkscape:window-width="1916"
     inkscape:window-height="1032"
     inkscape:window-x="0"
     inkscape:window-y="22"
     inkscape:window-maximized="1"
     inkscape:current-layer="Layer_2" />
  <defs
     id="defs3">
    <style
       id="style1">
      .cls-1 {
        fill: #e5cf62;
      }

      .cls-2 {
        fill: #392e1f;
      }

      .cls-3 {
        fill: #feffff;
      }

      .cls-4 {
        fill: #c4b62f;
      }

      .cls-5 {
        fill: #baab9a;
      }

      .cls-6 {
        clip-path: url(#clippath-1);
      }

      .cls-7 {
        stroke: url(#linear-gradient-2);
      }

      .cls-7, .cls-8, .cls-9, .cls-10 {
        fill: none;
      }

      .cls-7, .cls-8, .cls-10 {
        stroke-miterlimit: 10;
        stroke-width: 4px;
      }

      .cls-11 {
        fill: #c1b66e;
      }

      .cls-12 {
        fill: #2e2130;
      }

      .cls-13 {
        fill: #cab01c;
      }

      .cls-8 {
        stroke: url(#linear-gradient-3);
      }

      .cls-14 {
        fill: #212121;
      }

      .cls-15 {
        clip-path: url(#clippath);
      }

      .cls-16 {
        fill: #000805;
      }

      .cls-10 {
        stroke: url(#linear-gradient);
      }

      .cls-17 {
        fill: #a19a42;
      }

      .cls-18 {
        fill: #e8d96d;
      }
    </style>
    <clipPath
       id="clippath">
      <path
         class="cls-9"
         d="m 155.97,474.84 c 7.81,-22.57 14.87,-41.17 20.32,-55 7.75,-19.68 11.14,-26.91 14.04,-32.69 5.91,-11.79 5.69,-9.39 18.17,-32.42 0,0 6.98,-12.89 12.99,-21.62 3.1,-4.5 6.45,-8.9 6.45,-8.9 0,0 1.62,-2.13 3.39,-4.34 19.7,-24.71 37.39,-42.47 37.39,-42.47 16.07,-16.13 29.3,-26.98 33.86,-30.66 1.39,-1.13 2.09,-1.69 3.04,-2.43 10.94,-8.46 23.07,-17.66 41.13,-23.66 16.54,-5.49 32.93,-11.11 47.57,-2.97 15.11,8.4 23.96,26.19 22.79,45.59 2.7,2.4 8.44,8.2 11.15,17.59 1.82,6.32 1.55,11.79 1.11,15.11 -5.31,-2.37 -9.53,-4.76 -12.64,-6.69 -3.8,-2.36 -4.42,-2.86 -6.57,-3.96 -7.69,-3.97 -15.14,-4.23 -17.15,-4.25 -4,-0.05 -12.02,0.48 -20.11,5.4 -1.81,1.1 -5.49,3.55 -9.89,8.76 -7.98,9.47 -6.36,13.87 -12.6,24.54 -8.59,14.68 -22.3,24.5 -30.92,30.71 -0.42,0.3 -0.95,0.68 -1.6,1.13 -6.32,4.37 -21.12,13.79 -47.95,21.66 -28.58,8.38 -56.07,10.71 -69.13,11.48 20.68,-10.52 48.58,-28.44 72.96,-58.1 7.25,-8.82 28.21,-35.77 35.57,-69.33 2.12,-9.69 2.61,-17.76 1.49,-26.01 -2.16,-15.83 -9.62,-27.43 -15.61,-35.43 C 259.77,148.56 215.94,121.56 215.94,121.56 182.53,101.47 174.61,104.96 129.49,81.85 99.8,66.64 77.03,51.7 62.83,41.79 c 3.77,5.61 10.25,14.8 19.32,25.27 8.86,10.23 29.39,32.29 98.99,76.27 9.78,6.18 24.06,15.02 41.73,25.3 -4.86,-1.48 -11.52,-3.61 -19.32,-6.44 -37.63,-13.67 -64.07,-30 -72.96,-35.68 -16.44,-10.5 -36.81,-25.42 -57.85,-46.08 8.9,21.52 24.08,48.86 51.16,70.98 16.71,13.65 41.42,24.83 60.29,34.01 11.17,5.43 20.63,9.61 27.28,12.44 -5.29,0.29 -10.84,0.29 -16.62,-0.08 -38.61,-2.48 -68.4,-20.46 -86.56,-34.48 5.64,10.12 18.27,29.63 41.99,45.34 23.61,15.63 46.4,19.67 57.9,20.93 -6.41,1.48 -14.13,2.62 -22.87,2.6 -23.51,-0.03 -41.67,-8.36 -51.64,-14 8.02,9.49 21.04,22.6 40.13,33.69 14.6,8.48 28.24,13.17 38.65,15.86 -4.31,1.64 -9.74,3.15 -16.1,3.72 -18.09,1.61 -32.18,-5.49 -38.4,-9.17 6.82,8.07 17.07,18.41 31.46,27.75 10.85,7.04 21.12,11.61 29.48,14.62 -3.65,1.16 -8.12,2.17 -13.25,2.48 -14.71,0.89 -26.17,-4.48 -31.83,-7.68 5.49,8.3 17.27,23.2 37.16,29.98 3.91,1.33 7.68,2.2 11.2,2.73"
         id="path1" />
    </clipPath>
    <clipPath
       id="clippath-1">
      <path
         class="cls-9"
         d="m 357.86,36.48 c -3.83,12.38 -7.82,30.95 -5.23,52.83 1.84,15.53 6.17,25.77 8.37,32.3 6.36,18.9 9.05,48.9 -9.42,96.51 -13.39,7.26 -26.79,14.51 -40.18,21.77 -0.76,-6.82 -2.35,-16.97 -6.11,-28.83 -3.27,-10.29 -5.94,-14.51 -7.76,-20.37 -2.96,-9.53 -4.54,-24.24 3.06,-45.93 1.02,8.26 3.21,14.35 4.97,18.31 2.64,5.95 6.03,9.15 8.63,16.74 1.41,4.12 2.03,7.66 2.33,9.92 1.58,-1.71 3.98,-4.69 5.61,-8.9 5.91,-15.24 -5.9,-28.41 -8.98,-46.27 -1.6,-9.27 -1.41,-22.94 7.51,-41.1 -1.47,14.83 1.32,25.22 4.26,32.08 3.33,7.76 7.48,12.45 10.98,23.41 2.38,7.44 3.23,13.91 3.56,18.27 2,-2.59 4.64,-6.62 6.38,-11.99 2.75,-8.52 1.31,-14.53 -2.48,-34 -4.61,-23.65 -5.96,-32.74 -4.4,-44.61 0.21,-1.59 0.46,-4.02 1.27,-7.18 3.85,-15.02 11.71,-26.05 17.65,-32.95 z"
         id="path2" />
    </clipPath>
    <linearGradient
       id="linear-gradient"
       x1="268.88"
       y1="386.34"
       x2="283.69"
       y2="386.34"
       gradientUnits="userSpaceOnUse">
      <stop
         offset="0"
         stop-color="#000"
         id="stop2" />
      <stop
         offset="1"
         stop-color="#000"
         id="stop3" />
    </linearGradient>
    <linearGradient
       id="linear-gradient-2"
       x1="287.89999"
       y1="375.66"
       x2="304.37"
       y2="375.66"
       xlink:href="#linear-gradient" />
    <linearGradient
       id="linear-gradient-3"
       x1="268.98001"
       y1="393.87"
       x2="313.01999"
       y2="393.87"
       xlink:href="#linear-gradient" />
    <linearGradient
       inkscape:collect="always"
       xlink:href="#linear-gradient"
       id="linearGradient19"
       gradientUnits="userSpaceOnUse"
       x1="268.88"
       y1="386.34"
       x2="283.69"
       y2="386.34" />
  </defs>
  <g
     id="Layer_1-2"
     data-name="Layer 1"
     transform="matrix(0.39679587,0,0,0.39679587,2.1759302,5.5248873)">
    <g
       id="g19">
      <g
         class="cls-15"
         clip-path="url(#clippath)"
         id="g6">
        <g
           id="g5">
          <ellipse
             class="cls-11"
             cx="227.21001"
             cy="287.64001"
             rx="167.39999"
             ry="77.790001"
             transform="rotate(-12.33,227.10695,287.57102)"
             id="ellipse3" />
          <path
             class="cls-1"
             d="m 354.43,167.55 c 6.99,35.51 -67.81,92.56 -136.54,95.53 -17.09,0.74 -17.95,-2.55 -61.92,-8.64 C 61.69,241.38 33.55,251.71 27.35,239.02 17.97,219.83 83.8,147.06 174.29,127.29 c 76.91,-16.81 172.92,3.53 180.15,40.26 z"
             id="path3" />
          <path
             class="cls-12"
             d="m 337.67,94.75 c 1.22,12.05 -13.76,14.9 -65.79,63.92 -40.48,38.14 -42.7,47.05 -61.28,52.98 -22.89,7.3 -36.62,-0.78 -91.72,-15.39 C 33.59,173.65 15.05,179.37 10.59,166.22 0.98,137.94 73.66,72.89 157.53,54.49 242.1,35.94 334.72,65.56 337.68,94.75 Z"
             id="path4" />
          <path
             class="cls-4"
             d="m 327.83,45.82 c 0.9,16.43 -34.14,17.8 -65.3,61.01 -27.45,38.08 -15.85,58.66 -37.44,73.44 C 210.3,190.4 193.24,188.69 79.65,152.19 11.15,130.18 3.22,126.27 0.75,117.29 -8.33,84.38 66.87,23 147.68,5.56 234.86,-13.25 326.4,19.55 327.83,45.82 Z"
             id="path5" />
        </g>
      </g>
      <g
         class="cls-6"
         clip-path="url(#clippath-1)"
         id="g9">
        <g
           id="g8">
          <ellipse
             class="cls-1"
             cx="290.17001"
             cy="178.71001"
             rx="167.39999"
             ry="77.790001"
             transform="rotate(-12.33,290.05596,178.65559)"
             id="ellipse6" />
          <path
             class="cls-11"
             d="m 483.71,246.33 c 6.16,46.65 -77.97,96.66 -146.94,111.73 -90.32,19.74 -170.98,1.71 -180.15,-40.26 -6.6,-30.21 59.19,-64.87 146.94,-111.73 32.11,-17.15 48.95,-23.4 69.92,-23.91 48.33,-1.18 105.51,28.42 110.23,64.17 z"
             id="path6" />
          <path
             class="cls-12"
             d="m 413.75,76.82 c 0.88,8.85 -6.55,14.86 -38.83,41.98 -95.16,79.97 -93.16,80.38 -101.76,84 C 202.7,232.48 93.84,194.39 86.66,148.29 79.91,104.92 162.73,51.76 233.6,36.56 316.45,18.79 410.77,46.94 413.75,76.82 Z"
             id="path7" />
          <path
             class="cls-4"
             d="m 400,50.06 c -0.01,5.23 -5.62,6.9 -22.68,29.86 -9.98,13.43 -15.61,23.03 -18.34,27.27 -12.89,20.03 -54.43,65.83 -96.38,82.17 C 190.08,217.61 78.61,172.57 72.91,121.53 67.68,74.59 152.08,24.11 219.85,9.8 309.61,-9.16 400.05,29.03 400,50.06 Z"
             id="path8" />
        </g>
      </g>
      <path
         class="cls-17"
         d="m 311.4,239.89 c 0,1.34 -0.06,3.35 -0.27,5.78 -0.61,6.93 -2.12,12.06 -3,15 -5.05,16.86 -7.57,25.29 -9.24,29.4 -8.68,21.31 -26.85,39.38 -39.61,51.89 -12.6,12.35 -30.87,28.2 -55.49,43.57 l -4.44,0.41 c -11.98,16.33 -23.96,32.65 -35.94,48.97 -2.88,1.6 -5.76,3.2 -8.64,4.8 18.15,-21.67 29.13,-40.12 35.86,-53.17 4.42,-8.57 11.41,-23.36 24,-42.96 4.75,-7.39 8.79,-13.14 11,-16.26 10.43,-14.78 17.15,-24.27 27.06,-34.49 4.43,-4.56 12.89,-12.78 18.34,-17.89 0.6,-0.56 1.8,-1.68 3.76,-3.53 7.29,-6.85 8.62,-8.17 11.03,-10.39 4.23,-3.9 7.45,-6.58 11.37,-9.85 3.91,-3.25 8.67,-7.09 14.21,-11.28 z"
         id="path9" />
      <path
         class="cls-13"
         d="m 203.79,385.53 c 7.63,-4.77 17.18,-11.19 27.69,-19.44 19.05,-14.95 31.58,-28.32 34.68,-31.66 9.56,-10.33 21.21,-24.49 32.51,-42.78 -0.36,1.86 -3.26,18.24 8.62,31.6 11.6,13.03 27.67,12.39 29.67,12.27 -9.99,8.22 -22.35,16.91 -37.24,24.73 -37.49,19.69 -73.05,24.38 -95.93,25.29 z"
         id="path10" />
      <path
         class="cls-18"
         d="m 402.98,282.1 c 2.27,-1.04 6,-3.11 9.44,-6.97 2.93,-3.28 4.51,-6.58 5.36,-8.78 0.33,-7.5 0.2,-27.92 -13.42,-40.77 -19.36,-18.27 -60.49,-16.06 -92.97,14.31 -4.47,17.97 -8.94,35.94 -13.4,53.92 -0.36,2.45 -2.1,16.03 7.25,27.94 11.64,14.84 30.11,13.87 31.71,13.76 11.2,-10.91 17.72,-21.2 21.66,-28.85 4.02,-7.79 4.71,-11.59 8.74,-15.84 8.97,-9.45 23.88,-9.96 35.62,-8.72 z"
         id="path11" />
      <g
         id="g13">
        <path
           class="cls-14"
           d="m 417.86,264.27 c -5.99,1.04 -11.99,2.08 -17.98,3.12 -8.69,0 -25.87,-0.87 -28.93,-8.82 -1.6,-4.15 0.11,-11.62 -1.98,-16.77 -0.18,-0.44 -1.07,-2.55 -0.4,-4.78 0.16,-0.54 0.49,-1.57 1.4,-1.97 1,-0.44 2.22,0.1 2.9,0.69 1.22,1.05 0.81,2.26 1.56,2.86 1.68,1.34 8.04,-1.25 8.71,-5 0.72,-4.07 -5.47,-8.43 -10.07,-10.04 -1.26,-0.44 -3.77,-0.7 -8.74,-1.22 -6.26,-0.65 -9.4,-1.07 -10.73,-0.93 -0.16,0.02 -0.3,0.03 -0.44,0.05 -1.49,0.2 -2.56,0.42 -2.88,0.48 -2.63,0.52 -4.95,0.15 -4.95,0.15 -0.38,-0.04 -0.84,-0.12 -1.35,-0.3 -1.16,-0.42 -1.91,-1.15 -2.29,-1.59 1.54,-0.63 3.82,-1.52 6.62,-2.44 11.95,-3.91 25.14,-8.22 39.06,-3.42 9.13,3.15 16,9.33 19.68,13.85 1.79,2.19 3.18,4.43 3.37,4.73 3.59,5.81 4.92,10.95 5.74,14.12 1.79,7 1.93,13.06 1.71,17.22 z"
           id="path12" />
        <path
           class="cls-14"
           d="m 372.89,286.46 c 1.28,-3.15 3.24,-7 6.31,-10.92 6.75,-8.6 15.04,-12.64 19.56,-14.43 l 5.1,7.48 c 2.04,5.7 1.91,11.31 -0.89,13.51 -3.01,2.38 -10.22,0.91 -12.52,0.46 -0.52,-0.1 -1.88,-0.41 -3.72,-0.39 -1.62,0.02 -2.99,0.28 -4.51,0.68 -3.78,1.01 -7.23,2.56 -9.33,3.6 z"
           id="path13" />
      </g>
      <g
         id="g14">
        <circle
           class="cls-16"
           cx="385.54001"
           cy="247.87"
           r="7.9499998"
           id="circle13" />
        <circle
           class="cls-3"
           cx="387.04999"
           cy="245.08"
           r="2.79"
           id="circle14" />
      </g>
      <path
         class="cls-5"
         d="m 426.99,293.81 c 0.88,-2.4 2.22,-7.14 1.25,-12.95 -1.64,-9.81 -8.66,-15.31 -10.38,-16.59 -1.51,3.49 -3.02,6.97 -4.54,10.46 -3.89,2.17 -7.77,4.35 -11.66,6.52 8.44,4.19 16.88,8.37 25.33,12.56 z"
         id="path14" />
      <g
         id="g16">
        <path
           class="cls-5"
           d="m 417.86,264.27 c 3.09,4.69 6.52,10.91 9.19,18.6 1.51,4.35 2.51,8.41 3.19,12.04 -1.07,-0.34 -2.38,-0.8 -3.86,-1.43 0,0 -1.62,-0.69 -3.2,-1.52 -3.71,-1.94 -7.24,-4.8 -9.36,-6.21 -2.26,-1.5 -5.74,-3.24 -10.95,-4.02 -0.48,-1.16 -0.93,-2.54 -1.22,-4.12 -0.64,-3.57 -0.19,-6.73 0.45,-9.09 0.27,-1 0.58,-1.85 0.85,-2.53 1.77,-0.38 3.66,-0.72 5.66,-1 3.33,-0.46 6.43,-0.67 9.25,-0.73 z"
           id="path15" />
        <path
           class="cls-2"
           d="m 402.95,266 c -0.18,0.49 -0.36,0.98 -0.53,1.47 3.49,2.64 7.32,5.87 11.23,9.79 4.24,4.25 7.69,8.41 10.46,12.15 1.18,1.21 2.36,2.42 3.54,3.63 -3.27,-4.91 -7.48,-10.45 -12.84,-16.11 -4.09,-4.32 -8.13,-7.93 -11.86,-10.94 z"
           id="path16" />
      </g>
      <g
         id="g18">
        <path
           class="cls-10"
           d="m 270.73,372.87 11.11,26.94"
           id="path17"
           style="stroke:url(#linearGradient19)" />
        <path
           class="cls-7"
           d="m 289.62,364.79 c 4.34,7.25 8.69,14.5 13.03,21.75"
           id="path18"
           style="stroke:url(#linear-gradient-2)" />
        <line
           class="cls-8"
           x1="269.92999"
           y1="405.26999"
           x2="312.07001"
           y2="382.47"
           id="line18"
           style="stroke:url(#linear-gradient-3)" />
      </g>
    </g>
  </g>
</svg>
