<svg width="200" height="200" xmlns="http://www.w3.org/2000/svg"><defs><filter style="color-interpolation-filters:sRGB" id="a" x="-.09" y="-.1" width="1.24" height="1.26"><feGaussianBlur result="result0" in="SourceGraphic" stdDeviation=".5"/><feColorMatrix values="1 0 0 -1 0 1 0 1 -1 0 1 0 0 -1 0 -0.8 -1 0 4.4 -2.9" in="result0" result="fbSourceGraphicAlpha"/><feGaussianBlur stdDeviation=".7" in="fbSourceGraphicAlpha" result="result0"/><feSpecularLighting in="result0" result="result1" lighting-color="#fff" surfaceScale="-2" specularConstant="1.5" specularExponent="10"><feDistantLight elevation="50" azimuth="235"/></feSpecularLighting><feComposite result="result4" operator="in" in="SourceGraphic" in2="result1"/><feComposite operator="arithmetic" k2="1" k3="1" in2="result4" result="fbSourceGraphic"/><feColorMatrix result="fbSourceGraphicAlpha" in="fbSourceGraphic" values="0 0 0 -1 0 0 0 0 -1 0 0 0 0 -1 0 0 0 0 1 0"/><feFlood flood-opacity=".5" flood-color="#000" result="flood"/><feComposite in2="fbSourceGraphic" in="flood" operator="in" result="composite1"/><feGaussianBlur in="composite1" stdDeviation="3" result="blur"/><feOffset dx="6" dy="6" result="offset"/><feComposite in2="offset" in="fbSourceGraphic" result="fbSourceGraphic"/><feColorMatrix result="fbSourceGraphicAlpha" in="fbSourceGraphic" values="0 0 0 -1 0 0 0 0 -1 0 0 0 0 -1 0 0 0 0 1 0"/><feColorMatrix values="1 0 0 0 0 0 1 0 0 0 0 0 1 0 0 0 0 0 1 0" in="fbSourceGraphic" result="fbSourceGraphic"/><feColorMatrix result="fbSourceGraphicAlpha" in="fbSourceGraphic" values="0 0 0 -1 0 0 0 0 -1 0 0 0 0 -1 0 0 0 0 1 0"/><feColorMatrix values="1 0 0 0 -0 0 1 0 0 -0 0 0 1 0 -0 0 0 0 1 0" in="fbSourceGraphic" result="fbSourceGraphic"/><feColorMatrix result="fbSourceGraphicAlpha" in="fbSourceGraphic" values="0 0 0 -1 0 0 0 0 -1 0 0 0 0 -1 0 0 0 0 1 0"/><feColorMatrix type="hueRotate" values="0" in="fbSourceGraphic"/><feColorMatrix type="saturate" values="1"/><feColorMatrix values="2 -1 0 0 0 0 2 -1 0 0 -1 0 2 0 0 0 0 0 1 0"/></filter></defs><g transform="matrix(.8 0 0 .8 20 20)"><rect style="fill:#000;fill-opacity:.640055;fill-rule:evenodd;stroke:none;stroke-width:1.59997;stroke-miterlimit:7.9;stroke-dasharray:none;stroke-opacity:1;paint-order:stroke fill markers" width="200" height="200" ry="6.34"/><path style="display:inline;fill:#fff;fill-opacity:.640055;stroke:none;stroke-width:.999636;stroke-dasharray:none;stroke-opacity:1;paint-order:stroke fill markers;filter:url(#a)" d="M33.72 114.9c-5.6-1.31-8.96-3.31-12.92-7.7-4.65-5.15-6.22-10.03-6.15-19.2.07-10.4 1.8-17.77 7.04-30 6.2-14.45 11.91-23.32 20.16-31.28 9.12-8.81 15.85-11.96 26.65-12.5 8.56-.41 55.13 5.01 56.73 6.61.86.86-5.43 18.23-7.6 21.03-.8 1.03-2.68 1.2-7.84.69-5.87-.58-6.79-.45-6.79.95 0 2.98-5.24 19.89-8.6 27.73-5 11.67-12.67 22.9-20.95 30.62-12.82 11.97-25.98 16.3-39.73 13.06zm21.07-24.04c12.59-6.1 28.03-42.17 22.1-51.65-2.93-4.71-9.17-5.4-15.46-1.72-10.63 6.23-23.21 32.73-21.74 45.8.64 5.65 1.64 7.48 4.78 8.76 3.31 1.34 5.64 1.07 10.32-1.19z" transform="translate(15.75 21.41) scale(1.15442)"/></g></svg>