<?xml version="1.0" encoding="UTF-8" standalone="no"?>
<svg
   version="1.0"
   width="200"
   height="200"
   viewBox="0 0 150 150"
   preserveAspectRatio="xMidYMid"
   id="svg16"
   sodipodi:docname="slackware_linux.svg"
   inkscape:version="1.4.2 (ebf0e940d0, 2025-05-08)"
   xmlns:inkscape="http://www.inkscape.org/namespaces/inkscape"
   xmlns:sodipodi="http://sodipodi.sourceforge.net/DTD/sodipodi-0.dtd"
   xmlns:xlink="http://www.w3.org/1999/xlink"
   xmlns="http://www.w3.org/2000/svg"
   xmlns:svg="http://www.w3.org/2000/svg">
  <defs
     id="defs16">
    <linearGradient
       id="linearGradient3"
       inkscape:collect="always">
      <stop
         style="stop-color:#5540bf;stop-opacity:1;"
         offset="0"
         id="stop3" />
      <stop
         style="stop-color:#715dd7;stop-opacity:1;"
         offset="1"
         id="stop4" />
    </linearGradient>
    <filter
       inkscape:collect="always"
       style="color-interpolation-filters:sRGB"
       id="filter15"
       x="-0.044409971"
       y="-0.1681989"
       width="1.0888199"
       height="1.3363978">
      <feGaussianBlur
         inkscape:collect="always"
         stdDeviation="695.29299"
         id="feGaussianBlur15" />
    </filter>
    <linearGradient
       inkscape:collect="always"
       xlink:href="#linearGradient3"
       id="linearGradient4"
       x1="10899.049"
       y1="961.47327"
       x2="39241.332"
       y2="34738.496"
       gradientUnits="userSpaceOnUse" />
    <filter
       inkscape:collect="always"
       style="color-interpolation-filters:sRGB"
       id="filter5"
       x="-0.047288892"
       y="-0.048732825"
       width="1.0945778"
       height="1.0974657">
      <feGaussianBlur
         inkscape:collect="always"
         stdDeviation="8.6635825"
         id="feGaussianBlur5" />
    </filter>
    <filter
       inkscape:collect="always"
       style="color-interpolation-filters:sRGB"
       id="filter15-9"
       x="-0.063258313"
       y="-0.05784731"
       width="1.1265166"
       height="1.1156946">
      <feGaussianBlur
         inkscape:collect="always"
         stdDeviation="695.29299"
         id="feGaussianBlur15-3" />
    </filter>
    <filter
       inkscape:collect="always"
       style="color-interpolation-filters:sRGB"
       id="filter1"
       x="-0.0057928888"
       y="-0.005969771"
       width="1.0115858"
       height="1.0119395">
      <feGaussianBlur
         inkscape:collect="always"
         stdDeviation="106.42688"
         id="feGaussianBlur1" />
    </filter>
  </defs>
  <sodipodi:namedview
     id="namedview16"
     pagecolor="#ffffff"
     bordercolor="#666666"
     borderopacity="1.0"
     inkscape:showpageshadow="2"
     inkscape:pageopacity="0.0"
     inkscape:pagecheckerboard="0"
     inkscape:deskcolor="#d1d1d1"
     inkscape:document-units="pt"
     inkscape:zoom="1"
     inkscape:cx="384.5"
     inkscape:cy="274"
     inkscape:window-width="1916"
     inkscape:window-height="1032"
     inkscape:window-x="0"
     inkscape:window-y="22"
     inkscape:window-maximized="1"
     inkscape:current-layer="svg16" />
  <metadata
     id="metadata1">
Created by potrace 1.11, written by Peter Selinger 2001-2013
</metadata>
  <g
     id="g1"
     inkscape:label="logo"
     transform="translate(-4.7074187,-15.083243)">
    <ellipse
       style="font-variation-settings:normal;display:inline;vector-effect:none;fill:#000000;fill-rule:evenodd;stroke-width:0.75;stroke-linecap:butt;stroke-linejoin:miter;stroke-miterlimit:4;stroke-dasharray:none;stroke-dashoffset:0;stroke-opacity:1;-inkscape-stroke:none;filter:url(#filter5);stop-color:#000000"
       id="ellipse2-0"
       cx="260.34656"
       cy="265.83258"
       rx="219.84654"
       ry="213.33258"
       inkscape:label="ellipse-black"
       transform="matrix(0.249336,0,0,0.249336,14.793649,23.801605)" />
    <ellipse
       style="font-variation-settings:normal;display:inline;opacity:1;vector-effect:none;fill:url(#linearGradient4);fill-rule:evenodd;stroke-width:75.2106;stroke-linecap:butt;stroke-linejoin:miter;stroke-miterlimit:4;stroke-dasharray:none;stroke-dashoffset:0;stroke-opacity:1;-inkscape-stroke:none;filter:url(#filter1);stop-color:#000000;stop-opacity:1"
       id="ellipse2"
       cx="25070.197"
       cy="17849.98"
       rx="22046.385"
       ry="21393.158"
       transform="matrix(0.00248638,0,0,0.00248638,14.793649,41.753797)"
       inkscape:label="ellipse-blue" />
    <g
       id="g7"
       inkscape:label="esse"
       transform="matrix(0.249336,0,0,0.249336,14.793649,23.801605)">
      <path
         d="m 20904.863,-2002.4768 c -4648.693,-519.8446 -7814.617,-2403.058 -8976.785,-5345.578 -410.773,-1020.0735 -520.977,-1853.7875 -460.866,-3276.0092 90.169,-2236.314 791.484,-3707.569 2384.459,-5070.944 2314.331,-1961.675 5630.533,-2785.583 11331.199,-2785.583 5169.673,0 7003.096,-765.055 7393.829,-3099.452 591.109,-3452.563 -2965.541,-5325.11 -8335.596,-4873.924 -3546.627,294.252 -6602.345,1687.048 -7974.902,3638.918 -160.313,235.4 -460.874,745.439 -671.266,1147.582 -721.342,1402.602 -1212.271,1804.747 -2224.159,1804.747 -811.514,-9.811 -1382.59,-304.059 -1733.246,-912.18 l -250.467,-441.381 v -3727.19 -4081.14 l 260.485,-549.282 c 310.58,-637.547 751.406,-1010.265 1402.625,-1167.195 661.23,-166.756 1502.809,68.658 2685.022,745.438 l 941.766,539.46 1562.921,-343.296 c 3436.426,-745.431 5189.711,-971.035 7674.357,-971.035 2083.898,-9.808 2925.474,88.282 4638.671,529.657 2123.98,549.273 3726.977,1451.635 5129.604,2903.286 1512.824,1559.534 2174.064,3423.139 2073.879,5816.381 -130.245,3011.181 -1312.46,4992.473 -3777.066,6316.612 -1813.392,971.037 -4328.102,1461.45 -8265.459,1628.196 -3857.223,156.932 -5279.884,284.444 -6642.427,588.506 -961.803,225.591 -1482.772,460.991 -2033.799,951.414 -1232.315,1088.73 -1112.093,3246.5796 260.472,4590.33 1212.273,1177.0079 2855.347,1358.9175 5239.806,1358.9175 2705.059,-9.8088 4518.455,-500.2286 6442.056,-1765.5119 350.659,-235.4015 1362.547,-1147.5833 2254.215,-2020.5295 1673.129,-1667.4301 2144.007,-2000.9121 2845.324,-2000.9121 460.861,0 1112.078,304.058 1382.586,637.543 490.919,608.122 571.067,1167.202 571.067,4070.4868 0,3070.0301 -80.148,3888.5759 -711.336,4575.1645 -731.365,784.6715 -1602.996,774.8647 -3306.178,-58.8505 l -1112.086,-549.2697 -1192.232,313.8684 c -2825.279,725.8219 -3847.194,882.7557 -6001.221,931.7987 -1102.065,19.616 -2364.423,0 -2805.252,-49.043 z"
         id="path13"
         style="display:inline;mix-blend-mode:normal;fill:#ffffff;fill-opacity:1;stroke-width:9.91294;filter:url(#filter15-9)"
         inkscape:label="glow"
         sodipodi:nodetypes="ccccsccccccccccccccccccccccccccscscccccc"
         transform="matrix(0.00806838,0,0,-0.00822492,53.06935,95.969948)" />
      <path
         d="m 222.67738,112.20937 c -36.96239,4.22199 -62.13511,19.51679 -71.37567,43.41491 -3.2661,8.28469 -4.14236,15.05582 -3.6644,26.6066 0.71694,18.16257 6.2932,30.1116 18.95917,41.18445 18.40157,15.93203 44.76914,22.62352 90.09592,22.62352 41.10478,0 55.68258,6.21351 58.78936,25.17266 4.69999,28.04053 -23.57943,46.1234 -66.27748,42.45902 -28.19974,-2.3898 -52.49614,-13.70161 -63.40955,-29.554 -1.27466,-1.91185 -3.66448,-6.05422 -5.33732,-9.32027 -5.73549,-11.39146 -9.63894,-14.65753 -17.68461,-14.65753 -6.45245,0.0797 -10.99313,2.46948 -13.78127,7.40842 l -1.9915,3.58472 v 30.27094 30.27091 l 2.07116,4.46107 c 2.46947,5.17792 5.97453,8.20502 11.15245,9.47955 5.25756,1.35433 11.94906,-0.55761 21.34899,-6.0542 l 7.4881,-4.38128 12.427,2.78811 c 27.32351,6.05414 41.26411,7.88641 61.01989,7.88641 16.56936,0.0797 23.26084,-0.717 36.88271,-4.30168 16.88805,-4.46102 29.6337,-11.78968 40.78619,-23.57949 12.02867,-12.66598 17.28629,-27.80153 16.48969,-47.23861 -1.03559,-24.45574 -10.43554,-40.54713 -30.03196,-51.30132 -14.41855,-7.88642 -34.41334,-11.86938 -65.7198,-13.22364 -30.66932,-1.27456 -41.98111,-2.31016 -52.81486,-4.77962 -7.64743,-1.83219 -11.78972,-3.74403 -16.17102,-7.72705 -9.79832,-8.84232 -8.8424,-26.36761 2.07105,-37.28108 9.63895,-9.55925 22.70324,-13.94057 41.66241,-13.94057 21.5083,0.0797 35.92687,4.06268 51.22166,14.33887 2.78815,1.91185 10.83382,9.32027 17.9236,16.41004 13.30327,13.54228 17.0473,16.25073 22.62356,16.25073 3.66437,0 8.8423,-2.46948 10.99314,-5.17793 3.90337,-4.93895 4.54062,-9.4796 4.54062,-33.05907 0,-24.93371 -0.63725,-28.67774 -5.65591,-34.25397 -5.81521,-6.37283 -12.74565,-6.29318 -26.2879,0.47796 l -8.84234,4.46098 -9.47959,-2.54913 c -22.46421,-5.89487 -30.58958,-7.16943 -47.71656,-7.56774 -8.76266,-0.15932 -18.79984,0 -22.30493,0.39831 z"
         id="path4"
         style="display:inline;stroke-width:0.00800001;stroke-dasharray:none"
         inkscape:label="outline" />
    </g>
    <g
       id="g17"
       transform="matrix(0.0020494,0,0,-0.0020494,25.748607,46.522291)"
       style="display:inline;stroke-width:0.973303;stroke-dasharray:none"
       inkscape:label="line">
      <path
         d="m 6338.8655,-31411.712 v -4430.652 l 37202.9195,7.495 11.482,344.818 11.538,872.59 h 349.026 -36294.7362 v 3546.962 5149.146 h -915.8242 -364.4051 z"
         id="path14"
         style="display:inline;fill:#ffffff;fill-opacity:1;stroke-width:3.75169;stroke-dasharray:none;filter:url(#filter15)"
         inkscape:label="glow"
         sodipodi:nodetypes="cccccccccccc"
         transform="matrix(0.98162162,0,0,1.0006667,367.48024,-74.003217)" />
      <path
         d="m 6710.5762,-31005.216 v -4530.487 l 35856.7778,7.664 11.348,352.588 11.403,348.756 h 344.958 -35504.1643 v 4170.38 4170.205 h -360.1653 -360.1572 z"
         id="path10"
         style="display:inline;stroke-width:0.973303;stroke-dasharray:none"
         inkscape:label="outline" />
    </g>
  </g>
</svg>
