<?xml version="1.0" encoding="UTF-8" standalone="no"?>
<svg
   viewBox="0 0 200 200"
   version="1.1"
   id="svg1"
   sodipodi:docname="slitaz_icon.svg"
   width="200"
   height="200"
   inkscape:version="1.4.2 (ebf0e940d0, 2025-05-08)"
   xmlns:inkscape="http://www.inkscape.org/namespaces/inkscape"
   xmlns:sodipodi="http://sodipodi.sourceforge.net/DTD/sodipodi-0.dtd"
   xmlns:xlink="http://www.w3.org/1999/xlink"
   xmlns="http://www.w3.org/2000/svg"
   xmlns:svg="http://www.w3.org/2000/svg">
  <defs
     id="defs1">
    <linearGradient
       id="linearGradient1"
       inkscape:collect="always">
      <stop
         style="stop-color:#fd9400;stop-opacity:1;"
         offset="0"
         id="stop1" />
      <stop
         style="stop-color:#653200;stop-opacity:1;"
         offset="1"
         id="stop2" />
    </linearGradient>
    <linearGradient
       inkscape:collect="always"
       xlink:href="#linearGradient1"
       id="linearGradient2"
       x1="100"
       y1="20"
       x2="100"
       y2="180"
       gradientUnits="userSpaceOnUse" />
  </defs>
  <sodipodi:namedview
     id="namedview1"
     pagecolor="#ffffff"
     bordercolor="#666666"
     borderopacity="1.0"
     inkscape:showpageshadow="2"
     inkscape:pageopacity="0.0"
     inkscape:pagecheckerboard="0"
     inkscape:deskcolor="#d1d1d1"
     inkscape:zoom="2.7328125"
     inkscape:cx="55.803316"
     inkscape:cy="45.008576"
     inkscape:window-width="1916"
     inkscape:window-height="1032"
     inkscape:window-x="0"
     inkscape:window-y="22"
     inkscape:window-maximized="1"
     inkscape:current-layer="svg1" />
  <path
     d="m 52.756933,171.44302 c -8.494019,-10.2328 -17.767483,-34.17593 -17.867419,-46.1675 -0.02,-3.15777 3.557495,-6.0957 17.067981,-14.01013 3.677407,-2.15848 6.435464,-4.3969 6.115697,-4.93652 -0.319775,-0.55961 -0.899366,-0.79943 -1.299085,-0.53962 -0.399719,0.25982 -5.476146,1.03926 -11.312036,1.75876 -5.815905,0.6995 -11.252075,1.79873 -12.071505,2.45826 -2.118499,1.69881 -5.536099,20.38565 -6.335537,34.57566 l -0.679518,12.19142 -1.73878,-4.15708 c -2.118506,-5.15636 -4.636732,-20.18578 -4.636732,-27.78043 0,-7.59466 1.918651,-21.98453 3.077832,-23.18368 0.999294,-1.11922 26.781141,-5.755945 32.377199,-5.815905 4.017174,-0.06 3.797327,-2.138491 -0.399719,-3.557498 -7.274869,-2.47825 -27.18086,-11.691765 -27.18086,-12.591132 0,-1.798733 9.713168,-24.382831 12.990856,-30.17875 3.517527,-6.155665 14.669667,-19.985926 15.469113,-19.146518 0.259816,0.279803 -0.839414,3.057847 -2.458274,6.155666 -3.217736,6.155665 -10.952292,28.579875 -11.811682,34.375794 -0.639551,4.197044 -0.399719,4.376918 12.850952,9.573259 4.996483,1.95862 9.893031,3.897256 10.832365,4.296975 3.877278,1.638845 1.299092,-1.938636 -6.135673,-8.533991 -4.316965,-3.837298 -8.134276,-7.894441 -8.454051,-8.993668 -1.438988,-4.85658 16.548351,-30.178749 28.579881,-40.371572 8.234203,-6.895145 8.773818,-6.655315 2.558193,1.07924 -9.793103,12.191416 -14.989442,21.384942 -17.807459,31.577765 l -1.279093,4.556791 4.876556,5.316256 c 5.436178,5.955807 14.449828,13.710347 15.9088,13.710347 0.539615,0 1.538916,-2.518227 2.25841,-5.576074 10.233735,-15.866707 26.798845,-14.418394 30.218715,3.177762 -0.67952,4.816608 -0.67952,4.836594 1.63885,3.497537 6.75524,-3.87727 23.98311,-16.908094 25.9817,-19.566222 1.23913,-1.698803 0.02,-13.090782 -2.19845,-20.785364 -1.09923,-3.797326 -3.79733,-10.192822 -5.99578,-14.22998 -2.19845,-4.037157 -3.79732,-7.554681 -3.55749,-7.834484 0.97931,-1.039268 10.15285,10.312739 14.6097,18.087265 5.91585,10.292752 10.59255,25.382127 8.59396,27.980297 -0.73948,0.959325 -5.99578,5.096411 -11.73175,9.213512 -5.73596,4.117101 -9.89303,7.654611 -9.31344,7.854469 0.59958,0.19986 7.19494,-1.858691 14.64969,-4.576776 10.83237,-3.9772 13.75031,-5.456159 14.42984,-7.354822 1.1392,-3.197748 -0.63955,-28.979593 -2.53821,-36.774105 -0.83941,-3.497537 -1.31908,-6.555384 -1.07925,-6.795215 0.65955,-0.739479 3.97721,4.656721 7.47475,12.091486 3.77734,8.074314 7.09499,22.783956 7.35482,32.57706 l 0.19985,7.254892 -11.91161,4.676706 c -5.63518,2.248716 -11.32632,4.354574 -17.06798,6.315553 -2.85798,0.899366 -5.19635,2.018583 -5.19635,2.478253 0,0.459679 7.01507,1.958628 15.58903,3.317664 8.59395,1.379037 16.38846,2.917947 17.34779,3.437577 2.09851,1.13921 1.89866,2.75806 -2.39832,20.98523 -2.77804,11.61183 -7.19492,22.5841 -12.3513,30.77833 -2.6981,4.27699 -2.9779,2.85799 -0.89936,-4.51682 1.71878,-6.05574 4.47685,-26.58128 4.47685,-33.17664 0,-2.57819 -0.45968,-4.9765 -1.01929,-5.35623 -0.5596,-0.37974 -5.13639,-1.33905 -10.15285,-2.15848 -15.82885,-2.57818 -17.08797,-1.8387 -7.49472,4.41689 7.45475,4.85658 12.71105,9.71316 12.71105,11.71175 0,3.03786 -8.87376,20.38565 -14.9095,29.17946 -6.19563,8.99367 -14.54976,18.32709 -20.18579,22.5841 l -2.99789,2.25841 1.99859,-2.73808 c 9.37341,-12.95087 12.19142,-17.58762 15.90881,-25.9817 5.23631,-11.83167 7.63462,-20.98523 5.99577,-23.18368 -2.79803,-3.65742 -18.86671,-15.58902 -20.98523,-15.58902 -0.71949,-0.02 -0.91935,2.49824 -0.61955,7.67459 0.59957,10.0929 -0.9993,18.68685 -5.13639,27.9803 -13.51049,30.57847 -41.570722,30.17875 -47.16678,-0.49965 -1.538916,-8.43405 -0.839414,-16.72822 2.238426,-26.58128 1.319069,-4.23701 2.198451,-7.91443 1.958619,-8.19424 -0.57959,-0.59957 -4.85658,1.7188 -14.050109,7.71458 -11.73173,7.63462 -11.871642,7.85447 -11.851658,16.58832 0.02,10.91232 2.338354,20.98522 7.35483,32.17734 2.438282,5.3962 4.256997,9.83307 4.03715,9.83307 -0.199856,0 -2.638138,-2.71809 -5.396203,-6.05573 z M 179.88741,86.442868 c -21.13548,-108.57833 1.89866,9.71317 0,0 z"
     id="path1"
     sodipodi:nodetypes="ccccscccccscccscccccccccccccsccccccscccsccccccccccscccccssccscccccccccccccccsccc"
     style="stroke-width:1.99859;fill:url(#linearGradient2);fill-opacity:1" />
</svg>
