<svg height="200" width="200" xml:space="preserve" xmlns="http://www.w3.org/2000/svg"><path style="fill:#f8b80c;fill-opacity:1;fill-rule:nonzero;stroke:none;stroke-width:.131313" d="M126.7 1.6S93.1 23.3 91.2 46.1a53 53 0 0 1 55.3 59.5c-4 32.4-32.5 55.7-68 56A59.9 59.9 0 0 1 16 99C17.2 44.7 76.3 9.5 126.7 1.6" transform="translate(18.6 18.4)"/><path style="fill:#f1501d;fill-opacity:1;fill-rule:nonzero;stroke:none;stroke-width:.131313" d="M97.3 70.7s-19 12-20 24.7a29.3 29.3 0 0 1 30.9 33c-2.3 17.8-18.3 30.6-38 30.8a33.2 33.2 0 0 1-34.9-34.6c.8-30 33.7-49.5 62-54" transform="translate(18.6 18.4)"/></svg>