<svg width="200" height="200" xmlns:xlink="http://www.w3.org/1999/xlink" xmlns="http://www.w3.org/2000/svg"><defs><linearGradient id="m"><stop offset="0"/><stop offset="1" stop-opacity=".25"/></linearGradient><linearGradient id="n"><stop offset="0" stop-color="#110800"/><stop offset=".59" stop-color="#a65a00" stop-opacity=".8"/><stop offset="1" stop-color="#ff921e" stop-opacity="0"/></linearGradient><linearGradient id="o"><stop offset="0" stop-color="#7c7c7c"/><stop offset="1" stop-color="#7c7c7c" stop-opacity=".33"/></linearGradient><linearGradient id="f"><stop offset="0" stop-color="#7c7c7c"/><stop offset="1" stop-color="#7c7c7c" stop-opacity=".33"/></linearGradient><linearGradient id="a"><stop offset="0" stop-color="#b98309"/><stop offset="1" stop-color="#382605"/></linearGradient><linearGradient id="b"><stop offset="0" stop-color="#ebc40c"/><stop offset="1" stop-color="#ebc40c" stop-opacity="0"/></linearGradient><linearGradient id="c"><stop offset="0"/><stop offset="1" stop-opacity="0"/></linearGradient><linearGradient id="d"><stop offset="0" stop-color="#3e2a06"/><stop offset="1" stop-color="#ad780a"/></linearGradient><linearGradient id="e"><stop offset="0" stop-color="#f3cd0c"/><stop offset="1" stop-color="#f3cd0c" stop-opacity="0"/></linearGradient><linearGradient id="p"><stop offset="0" stop-color="#fefefc"/><stop offset=".75" stop-color="#fefefc"/><stop offset="1" stop-color="#d4d4d4"/></linearGradient><linearGradient id="g"><stop offset="0" stop-color="#757574" stop-opacity="0"/><stop offset=".25" stop-color="#757574"/><stop offset=".5" stop-color="#757574"/><stop offset="1" stop-color="#757574" stop-opacity="0"/></linearGradient><linearGradient id="i"><stop offset="0" stop-color="#949494" stop-opacity=".39"/><stop offset=".5" stop-color="#949494"/><stop offset="1" stop-color="#949494" stop-opacity=".39"/></linearGradient><linearGradient id="q"><stop offset="0" stop-color="#c8c8c8"/><stop offset="1" stop-color="#797978"/></linearGradient><linearGradient id="j"><stop offset="0" stop-color="#747474"/><stop offset=".13" stop-color="#8c8c8c"/><stop offset=".25" stop-color="#a4a4a4"/><stop offset=".5" stop-color="#d4d4d4"/><stop offset=".62" stop-color="#d4d4d4"/><stop offset="1" stop-color="#7c7c7c"/></linearGradient><linearGradient id="h"><stop offset="0" stop-color="#646464" stop-opacity="0"/><stop offset=".31" stop-color="#646464" stop-opacity=".58"/><stop offset=".47" stop-color="#646464"/><stop offset=".73" stop-color="#646464" stop-opacity=".26"/><stop offset="1" stop-color="#646464" stop-opacity="0"/></linearGradient><linearGradient id="r"><stop offset="0" stop-color="#020204"/><stop offset=".73" stop-color="#020204"/><stop offset="1" stop-color="#5c5c5c"/></linearGradient><linearGradient id="s"><stop offset="0" stop-color="#d2940a"/><stop offset=".75" stop-color="#d89c08"/><stop offset=".87" stop-color="#b67e07"/><stop offset="1" stop-color="#946106"/></linearGradient><linearGradient id="k"><stop offset="0" stop-color="#ad780a"/><stop offset=".12" stop-color="#d89e08"/><stop offset=".25" stop-color="#edb80b"/><stop offset=".39" stop-color="#ebc80d"/><stop offset=".53" stop-color="#f5d838"/><stop offset=".77" stop-color="#f6d811"/><stop offset="1" stop-color="#f5cd31"/></linearGradient><linearGradient id="t"><stop offset="0" stop-color="#3a2903"/><stop offset=".55" stop-color="#735208"/><stop offset="1" stop-color="#ac8c04"/></linearGradient><linearGradient id="l"><stop offset="0" stop-color="#f5ce2d"/><stop offset="1" stop-color="#d79b08"/></linearGradient><linearGradient id="V" href="#a" xlink:href="#a" gradientUnits="userSpaceOnUse" x1="23.18" y1="193.01" x2="64.31" y2="262.02"/><linearGradient id="Z" href="#b" xlink:href="#b" gradientUnits="userSpaceOnUse" x1="64.47" y1="210.83" x2="77.41" y2="235.21"/><linearGradient id="ab" href="#c" xlink:href="#c" gradientUnits="userSpaceOnUse" x1="146.93" y1="211.96" x2="150.2" y2="235.73"/><linearGradient id="ad" href="#d" xlink:href="#d" gradientUnits="userSpaceOnUse" x1="151.5" y1="253.02" x2="192.94" y2="185.84"/><linearGradient id="ah" href="#e" xlink:href="#e" gradientUnits="userSpaceOnUse" x1="162.81" y1="180.67" x2="161.59" y2="191.64"/><linearGradient id="ar" href="#f" xlink:href="#f" gradientUnits="userSpaceOnUse" x1="165.69" y1="173.58" x2="168.27" y2="173.47"/><linearGradient id="at" href="#g" xlink:href="#g" gradientUnits="userSpaceOnUse" x1="84.29" y1="46.64" x2="89.32" y2="55.63"/><linearGradient id="ay" href="#h" xlink:href="#h" gradientUnits="userSpaceOnUse" x1="83.59" y1="32.51" x2="94.48" y2="43.63"/><linearGradient id="aB" href="#i" xlink:href="#i" gradientUnits="userSpaceOnUse" x1="117.87" y1="47.25" x2="123.66" y2="54.11"/><linearGradient id="aE" href="#j" xlink:href="#j" gradientUnits="userSpaceOnUse" x1="112.9" y1="36.23" x2="131.32" y2="47.01"/><linearGradient id="aG" href="#h" xlink:href="#h" gradientUnits="userSpaceOnUse" x1="119.16" y1="31.56" x2="131.42" y2="43.14"/><linearGradient id="aP" href="#k" xlink:href="#k" gradientUnits="userSpaceOnUse" x1="78.09" y1="69.26" x2="126.77" y2="68.88"/><linearGradient id="aW" href="#l" xlink:href="#l" gradientUnits="userSpaceOnUse" x1="126.74" y1="67.49" x2="126.74" y2="71.09"/><filter id="H" x="-.05" y="-.05" width="1.1" height="1.09"><feGaussianBlur stdDeviation="0.64 0.55"/></filter><filter id="K" x="-.05" y="-.07" width="1.1" height="1.15"><feGaussianBlur stdDeviation=".98"/></filter><filter id="M" x="-.09" y="-.08" width="1.17" height="1.16"><feGaussianBlur stdDeviation=".68"/></filter><filter id="N" x="-.82" width="2.64" y="-.06" height="1.12"><feGaussianBlur stdDeviation="1.25"/></filter><filter id="O" x="-.49" width="1.98" y="-.59" height="2.19"><feGaussianBlur stdDeviation="1.78 2.19"/></filter><filter id="P" x="-.29" width="1.59" y="-.31" height="1.62"><feGaussianBlur stdDeviation="1.73"/></filter><filter id="Q" x="-.18" width="1.36" y="-.16" height="1.32"><feGaussianBlur stdDeviation=".78"/></filter><filter id="R" x="-.1" width="1.2" y="-.04" height="1.09"><feGaussianBlur stdDeviation=".98"/></filter><filter id="T" x="-.12" width="1.24" y="-.04" height="1.08"><feGaussianBlur stdDeviation="1.19 1.17"/></filter><filter id="W" x="-.11" width="1.21" y="-.11" height="1.22"><feGaussianBlur stdDeviation="3.38"/></filter><filter id="Y" x="-.08" y="-.07" width="1.15" height="1.14"><feGaussianBlur stdDeviation="2.1 2.06"/></filter><filter id="aa" x="-.03" y="-.02" width="1.07" height="1.04"><feGaussianBlur stdDeviation=".32"/></filter><filter id="ac" x="-.08" y="-.07" width="1.15" height="1.14"><feGaussianBlur stdDeviation="1.95 1.9"/></filter><filter id="ae" x="-.15" width="1.29" y="-.14" height="1.29"><feGaussianBlur stdDeviation="4.12"/></filter><filter id="ag" x="-.12" width="1.23" y="-.12" height="1.25"><feGaussianBlur stdDeviation="3.12 3.37"/></filter><filter id="ai" x="-.02" width="1.04" y="-.13" height="1.26"><feGaussianBlur stdDeviation=".41"/></filter><filter id="ak" x="-.2" width="1.4" y="-.23" height="1.47"><feGaussianBlur stdDeviation="2.45"/></filter><filter id="am" x="-.09" width="1.18" y="-.11" height="1.21"><feGaussianBlur stdDeviation="1.12 0.81"/></filter><filter id="ap" x="-.07" width="1.14" y="-.15" height="1.3"><feGaussianBlur stdDeviation=".88"/></filter><filter id="au" x="-.23" width="1.47" y="-.15" height="1.29"><feGaussianBlur stdDeviation=".44"/></filter><filter id="az" x="-.02" y="-.03" width="1.05" height="1.05"><feGaussianBlur stdDeviation=".12"/></filter><filter id="aC" x="-.18" width="1.36" y="-.18" height="1.36"><feGaussianBlur stdDeviation=".45"/></filter><filter id="aH" x="-.02" y="-.03" width="1.05" height="1.05"><feGaussianBlur stdDeviation=".13"/></filter><filter id="aI" x="-.08" width="1.15" y="-.13" height="1.26"><feGaussianBlur stdDeviation="1.75"/></filter><filter id="aJ" x="-.04" y="-.07" width="1.07" height="1.15"><feGaussianBlur stdDeviation="0.8 0.74"/></filter><filter id="aM" x="-.15" width="1.31" y="-.21" height="1.42"><feGaussianBlur stdDeviation=".77"/></filter><filter id="aO" x="-.03" y="-.08" width="1.07" height="1.16"><feGaussianBlur stdDeviation=".65"/></filter><filter id="aQ" x="-.16" width="1.32" y="-.13" height="1.26"><feGaussianBlur stdDeviation=".73"/></filter><filter id="aT" x="-.12" width="1.24" y="-.11" height="1.22"><feGaussianBlur stdDeviation=".1"/></filter><filter id="aV" x="-.05" y="-.09" width="1.1" height="1.19"><feGaussianBlur stdDeviation=".1"/></filter><filter id="aX" x="-.11" width="1.22" y="-.09" height="1.18"><feGaussianBlur stdDeviation=".23"/></filter><radialGradient id="G" href="#m" xlink:href="#m" gradientUnits="userSpaceOnUse" cx="0" cy="0" r="1" gradientTransform="matrix(19 0 0 18 61.18 121.19)"/><radialGradient id="J" href="#m" xlink:href="#m" gradientUnits="userSpaceOnUse" cx="0" cy="0" r="1" gradientTransform="matrix(23.6 0 0 18 125.74 131.6)"/><radialGradient id="L" href="#m" xlink:href="#m" gradientUnits="userSpaceOnUse" cx="0" cy="0" r="1" gradientTransform="matrix(9.35 0 0 10 94.21 127.47)"/><radialGradient id="aj" href="#n" xlink:href="#n" gradientUnits="userSpaceOnUse" cx="0" cy="0" r="1" gradientTransform="matrix(18.9901 5.08838 -5.34203 19.9367 169.71 194.53)"/><radialGradient id="al" href="#n" xlink:href="#n" gradientUnits="userSpaceOnUse" cx="0" cy="0" r="1" gradientTransform="matrix(19.7224 -.83351 .62745 14.84675 169.71 189.89)"/><radialGradient id="ao" href="#o" xlink:href="#o" gradientUnits="userSpaceOnUse" cx="0" cy="0" r="1" gradientTransform="matrix(6.37357 2.7713 -1.27998 2.94376 184.65 176.62)"/><radialGradient id="as" href="#p" xlink:href="#p" gradientUnits="userSpaceOnUse" cx="0" cy="0" r="1" gradientTransform="matrix(10.23944 -.10723 .1642 15.67914 86.49 51.41)"/><radialGradient id="aw" href="#q" xlink:href="#q" gradientUnits="userSpaceOnUse" cx="0" cy="0" r="1" gradientTransform="matrix(6.16696 -1.0154 .93742 5.69334 84.89 43.74)"/><radialGradient id="aA" href="#p" xlink:href="#p" gradientUnits="userSpaceOnUse" cx="0" cy="0" r="1" gradientTransform="matrix(13.63327 -.42844 .49252 15.67226 118.06 51.41)"/><radialGradient id="aK" href="#r" xlink:href="#r" gradientUnits="userSpaceOnUse" cx="0" cy="0" r="1" gradientTransform="matrix(9.25515 -6.72426 6.10121 8.3976 97.64 60.12)"/><radialGradient id="aL" href="#s" xlink:href="#s" gradientUnits="userSpaceOnUse" cx="0" cy="0" r="1" gradientTransform="matrix(25.10142 -10.34606 7.26701 17.6311 109.77 70.61)"/><radialGradient id="aS" href="#t" xlink:href="#t" gradientUnits="userSpaceOnUse" cx="0" cy="0" r="1" gradientTransform="matrix(1.32 0 0 1.42 92.11 59.88)"/><radialGradient id="aU" href="#t" xlink:href="#t" gradientUnits="userSpaceOnUse" cx="0" cy="0" r="1" gradientTransform="matrix(2.78 0 0 1.62 104.65 59.7)"/><clipPath id="I"><use href="#u" xlink:href="#u"/></clipPath><clipPath id="S"><use href="#v" xlink:href="#v"/></clipPath><clipPath id="U"><use href="#w" xlink:href="#w"/></clipPath><clipPath id="X"><use href="#x" xlink:href="#x"/></clipPath><clipPath id="af"><use href="#y" xlink:href="#y"/></clipPath><clipPath id="aq"><use href="#z" xlink:href="#z"/></clipPath><clipPath id="ax"><use href="#A" xlink:href="#A"/></clipPath><clipPath id="av"><use href="#B" xlink:href="#B"/></clipPath><clipPath id="aF"><use href="#C" xlink:href="#C"/></clipPath><clipPath id="aD"><use href="#D" xlink:href="#D"/></clipPath><clipPath id="aN"><use href="#E" xlink:href="#E"/></clipPath><clipPath id="aR"><use href="#F" xlink:href="#F"/></clipPath><clipPath id="aY"><use href="#E" xlink:href="#E"/><use href="#F" xlink:href="#F"/></clipPath></defs><g transform="matrix(.76389 0 0 .76172 17.5 2.5)"><path id="u" fill="#020204" d="M106.95 0c-6 0-12.02 1.18-17.46 4.12a32.13 32.13 0 0 0-13.43 13.97c-2.92 5.88-4.06 12.16-4.24 19.08a386.8 386.8 0 0 0 1.29 39.41c.26 3.8.74 6.02.25 9.93-1.62 8.3-8.88 13.88-12.76 21.17-4.27 8.04-6.07 17.13-9.29 25.65-2.95 7.79-7.09 15.1-9.88 22.95-3.91 10.97-5.08 23.03-2.5 34.39a59.53 59.53 0 0 0 11.62 23.73c-.8 1.44-1.58 2.91-2.4 4.34-2.57 4.43-5.71 8.64-7.17 13.55a16.29 16.29 0 0 0-.55 7.59 10.92 10.92 0 0 0 3.75 6.53 11.47 11.47 0 0 0 4.53 2.1c1.63.37 3.32.46 5 .43 6.37-.14 12.55-2.07 18.71-3.69a223 223 0 0 1 11.03-2.58c13.14-2.69 27.8-1.61 39.99.15 4.13.63 8.23 1.44 12.29 2.43 6.36 1.54 12.69 3.5 19.23 3.69 1.72.05 3.46-.03 5.14-.4a11.48 11.48 0 0 0 4.65-2.13 10.91 10.91 0 0 0 3.76-6.54c.47-2.52.18-5.15-.56-7.61-1.48-4.92-4.65-9.11-7.27-13.52-1.04-1.75-2-3.53-3.03-5.28 7.9-8.87 14.26-19.13 17.94-30.4 4.01-12.3 4.75-25.55 3.06-38.38-1.69-12.83-5.76-25.27-11.11-37.05-6.72-14.76-12.37-20.1-16.47-33.07-4.42-14.02-.77-30.61-4.06-43.32a44.44 44.44 0 0 0-5.45-12.23 41.9 41.9 0 0 0-10.65-11.47A40.98 40.98 0 0 0 106.95 0Z"/><path fill="#fdfdfb" d="M83.13 74a10.34 10.34 0 0 0-1.84 3.89c-.35 1.4-.48 2.85-.54 4.3-.11 2.89.07 5.83-.7 8.62-.82 2.98-2.65 5.57-4.44 8.08-3.11 4.36-6.25 8.84-7.78 13.97a24.81 24.81 0 0 0-.91 9.62 102.58 102.58 0 0 0-8.98 16.18 88.5 88.5 0 0 0-7.28 27.01c-1.12 11.41.34 23.15 4.85 33.69a55.06 55.06 0 0 0 14.38 20.04 49.15 49.15 0 0 0 10.5 6.97c13.11 6.45 29.31 6.46 42.2-.41 6.74-3.59 12.43-8.84 17.91-14.15 3.3-3.2 6.59-6.48 9.11-10.32 4.85-7.41 6.54-16.41 7.59-25.2 1.83-15.36 1.89-31.6-4.85-45.53a50.17 50.17 0 0 0-9.12-13.05 71.23 71.23 0 0 0-5.76-19.42c-2.05-4.45-4.54-8.68-6.44-13.18-.78-1.85-1.46-3.75-2.32-5.56a16.66 16.66 0 0 0-3.39-4.94 13.83 13.83 0 0 0-5.28-3.07 22.65 22.65 0 0 0-6.06-1.04c-4.11-.21-8.22.33-12.33.16-3.27-.13-6.53-.7-9.8-.51-1.63.1-3.26.39-4.78 1.01A9.56 9.56 0 0 0 83.13 74z"/><path opacity=".25" fill="url(#G)" filter="url(#H)" clip-path="url(#I)" d="M68.67 115.18c.87 1.31-.55 5.84 19.86 2.94 0 0-3.59.39-7.12 1.21-5.49 1.84-10.27 3.89-13.97 6.61-3.65 2.7-6.33 6.21-9.68 9.22 0 0 5.43-9.92 6.78-12.91 1.36-2.99-.22-2.85.85-7.25a34.53 34.53 0 0 1 3.69-8.63s-2.14 6.22-.41 8.81z" style="fill:url(#G)"/><path opacity=".42" fill="url(#J)" filter="url(#K)" clip-path="url(#I)" d="M134.28 113.99c-4.16 2.9-6.6 2.56-11.64 3.12-5.05.57-18.7.36-18.7.36s1.97-.03 6.36.78c4.38.82 13.31 1.6 18.34 3.51 5.04 1.92 6.87 2.47 9.93 4.4 4.35 2.75 7.55 7.06 11.71 10.08 0 0 .2-4-1.48-6.99s-6.2-7.7-7.53-12.1c-1.32-4.4-1.96-13.04-1.96-13.04s-.88 6.99-5.03 9.88z" style="fill:url(#J)"/><path opacity=".2" fill="url(#L)" filter="url(#M)" clip-path="url(#I)" d="M95.17 107.81c-.16 1.25-.36 2.5-.6 3.74a11.1 11.1 0 0 1-.48 1.8 4.07 4.07 0 0 1-1.02 1.55c-.41.37-.9.62-1.4.85a21.43 21.43 0 0 1-6.12 1.74c.84.06 1.68.14 2.53.23.53.06 1.06.12 1.57.25.52.14 1.03.34 1.46.65.47.35.84.82 1.12 1.34.55 1.02.73 2.2.83 3.37.13 1.48.14 2.98.03 4.46.1-.99.31-1.98.62-2.92a12.83 12.83 0 0 1 2.69-4.65 8.86 8.86 0 0 1 7.84-2.93 9.71 9.71 0 0 1-6.2-1.93 8.04 8.04 0 0 1-2.22-2.5 7 7 0 0 1-.65-5.05z" style="fill:url(#L)"/><path opacity=".11" filter="url(#N)" clip-path="url(#I)" d="M89.85 137.14a75.37 75.37 0 0 0-2.17 12.31c-.55 5.87-.42 11.78-.74 17.67-.26 4.99-.85 10.04.02 14.97a25.27 25.27 0 0 0 2.2 6.78c.16-.82.29-1.64.36-2.47.37-4-.3-8.01-.53-12.01-.4-7.02.57-14.04.97-21.06.3-5.39.27-10.8-.11-16.19z"/><path opacity=".75" fill="#7c7c7c" filter="url(#O)" clip-path="url(#I)" d="M160.08 131.23c1.03-.16 7.34 5.21 6.48 7.21-.86 1.99-2.49.79-3.65.8-1.16.02-4.33 1.46-4.86.55-.54-.91 1.4-3.03 2.41-4.81.82-1.43-1.4-3.59-.38-3.75z"/><path fill="#7c7c7c" filter="url(#P)" clip-path="url(#I)" d="M121.52 11.12c-2.21 1.56-1.25 3.51-.3 5.46.95 1.96-2.09 7.59-2.12 7.83-.03.24 5.98-2.85 7.62-4.87 1.94-2.37 6.83 3.22 6.56 2.37.01-1.52-9.55-12.34-11.76-10.79z"/><path fill="#838384" filter="url(#Q)" clip-path="url(#I)" d="M138.27 76.63c-1.86 1.7.88 4.25 2.17 7.24.81 1.86 3.04 4.49 5.2 4.07 1.63-.32 2.63-2.66 2.48-4.3-.3-3.18-2.98-3.93-4.93-5.02-1.54-.86-3.61-3.18-4.92-1.99z"/></g><g transform="matrix(.76389 0 0 .76172 17.5 2.5)"><path id="v" fill="#020204" d="M63.98 100.91c-6.1 6.92-12.37 13.63-15.81 21.12-1.71 3.8-2.51 7.93-3.68 11.93a89.96 89.96 0 0 1-5.14 13.22c-1.87 3.95-3.93 7.81-5.98 11.66-1.5 2.81-3.02 5.67-3.54 8.81-.41 2.48-.18 5.04.46 7.47a33.91 33.91 0 0 0 2.79 6.98 68.65 68.65 0 0 0 20.89 24.07 74.26 74.26 0 0 0 12.58 7.35c2.4 1.09 4.92 2.07 7.56 2.11a9.11 9.11 0 0 0 3.86-.72 6.87 6.87 0 0 0 3-2.49 7.16 7.16 0 0 0 1-4.66 11.22 11.22 0 0 0-1.65-4.53c-2.06-3.38-5.31-5.83-8.44-8.25a283.36 283.36 0 0 1-19.55-16.58c-1.76-1.65-3.53-3.34-4.76-5.42a20.32 20.32 0 0 1-2.29-6.63 36.77 36.77 0 0 1 1.25-19.07c.85-2.38 1.96-4.65 3.04-6.93 1.86-3.95 3.62-7.98 6.07-11.6 3.05-4.51 7.13-8.33 9.61-13.17 2.1-4.09 2.95-8.68 3.76-13.2.64-3.54 1.85-7 2.47-10.54-1.21 2.3-5.11 6.07-7.5 9.07z"/><path opacity=".95" fill="#7c7c7c" filter="url(#R)" clip-path="url(#S)" d="M56.96 126.1c-2 1.84-3.73 3.97-5.13 6.31-2.3 3.84-3.65 8.16-5.33 12.31-1.24 3.09-2.69 6.2-2.86 9.53-.09 1.71.16 3.42.22 5.13s-.1 3.49-.94 4.98a6.05 6.05 0 0 1-3.22 2.71 9.55 9.55 0 0 1 4.6 3.33c.96 1.3 1.58 2.81 2.41 4.18a10.98 10.98 0 0 0 2.54 2.97 7.13 7.13 0 0 0 3.54 1.56 6.23 6.23 0 0 0 4.97-1.58 116.56 116.56 0 0 1 4.44-46.37c.29-.94.59-1.89.67-2.87a4.13 4.13 0 0 0-.72-2.81 2.99 2.99 0 0 0-2.77-1.17 3.06 3.06 0 0 0-2.42 1.79z"/></g><g transform="matrix(.76389 0 0 .76172 17.5 2.5)"><path id="w" fill="#020204" d="M162.76 127.12c5.24 4.22 8.57 10.59 9.6 17.24.8 5.18.28 10.51-.89 15.62-1.17 5.12-2.97 10.06-4.77 15a29.5 29.5 0 0 0-1.71 6.02 9.94 9.94 0 0 0 .89 6.11 9.29 9.29 0 0 0 5.59 4.24c2.27.68 4.72.66 7.02.09 2.3-.57 6.17-1.31 8.04-2.77 4.75-3.69 5.88-10.1 7.01-15.72 1.17-5.87.6-12.02-.43-17.95a121.25 121.25 0 0 0-6.79-23.62 82.27 82.27 0 0 0-8.44-15.96c-3.32-4.89-8.02-8.7-11.5-13.48-1.21-1.66-2.66-3.38-3.84-5.06-2.56-3.62-1.98-2.94-3.57-5.29-1.15-1.7-2.97-2.28-4.88-3.02a9.7 9.7 0 0 0-6.04-.41 9.53 9.53 0 0 0-5.86 5.24 13.77 13.77 0 0 0-.89 7.95c.57 3.44 2.14 6.64 3.92 9.64 2 3.39 4.32 6.66 7.35 9.18 3.16 2.63 6.98 4.37 10.19 6.95z"/><path fill="#838384" filter="url(#T)" clip-path="url(#U)" d="M150.42 118.99c.42.4.86.81 1.31 1.19 3.22 2.63 4.93 5.58 8.2 8.16 5.34 4.22 10.75 11.5 11.8 18.15.82 5.19-.26 8.01-1.58 14.12-1.32 6.12-5.06 14.78-7.09 20.68-.8 2.35 1.64 1.38 1.32 3.86a14.54 14.54 0 0 0-.03 3.67c.02-.23.03-.48.06-.71.39-3.38 1.42-6.63 2.55-9.82 2.17-6.13 4.66-12.15 6.38-18.45 1.72-6.29 1.53-10.82.63-16.23a27.35 27.35 0 0 0-10.69-17.24c-3.97-2.93-8.64-4.81-12.86-7.38z"/></g><g transform="matrix(.76389 0 0 .76172 17.5 2.5)"><path id="x" fill="url(#V)" d="M34.98 175.33a7.84 7.84 0 0 1 4.39-.41c1.47.27 2.86.91 4.09 1.74 2.47 1.68 4.3 4.12 6.05 6.54 4.03 5.54 7.9 11.2 11.42 17.08 2.85 4.78 5.46 9.71 8.76 14.18 2.15 2.93 4.57 5.64 6.73 8.55 2.16 2.92 4.07 6.08 5.03 9.58 1.25 4.55.76 9.56-1.4 13.75a18.12 18.12 0 0 1-6.7 7.19A17.2 17.2 0 0 1 64.2 256c-5.27 0-10.42-2.83-15.32-4.78-9.98-3.98-20.82-5.22-31.11-8.32-3.16-.95-6.27-2.08-9.45-2.95-1.42-.39-2.85-.73-4.19-1.34a7.18 7.18 0 0 1-3.33-2.77 6.48 6.48 0 0 1-.8-3.26c0-1.14.28-2.26.67-3.32.77-2.13 2.02-4.06 2.86-6.17 1.37-3.44 1.62-7.23 1.43-10.93-.18-3.69-.78-7.36-1.03-11.05-.12-1.65-.16-3.32.16-4.95a8.1 8.1 0 0 1 2.2-4.35 8.16 8.16 0 0 1 4.05-2c1.49-.31 3.03-.32 4.55-.29 1.52.03 3.05.12 4.57-.01 1.52-.12 3.05-.46 4.37-1.22a10.31 10.31 0 0 0 3.14-2.96c.85-1.17 1.54-2.45 2.25-3.72.7-1.26 1.43-2.52 2.36-3.64a8.86 8.86 0 0 1 3.4-2.64z" style="fill:url(#V)"/><path fill="#d99a03" filter="url(#W)" clip-path="url(#X)" d="M37.16 177.7a6.76 6.76 0 0 1 3.98-.26c1.32.3 2.55.94 3.61 1.77 2.14 1.65 3.62 3.97 5.05 6.26a411.13 411.13 0 0 1 9.92 16.86c2.4 4.31 4.68 8.7 7.62 12.65 1.95 2.62 4.18 5.03 6.17 7.62 1.99 2.59 3.76 5.41 4.64 8.56 1.14 4.05.68 8.54-1.28 12.26a16.38 16.38 0 0 1-6.2 6.48 15.93 15.93 0 0 1-8.69 2.14c-4.82-.22-9.23-2.63-13.77-4.26-8.71-3.16-18.14-3.59-27.08-6.05-3.2-.87-6.32-2.03-9.53-2.84-1.43-.36-2.88-.66-4.23-1.23a6.89 6.89 0 0 1-3.36-2.72 6.05 6.05 0 0 1-.73-3.15c.04-1.09.31-2.17.7-3.19.78-2.04 2-3.88 2.78-5.92 1.19-3.08 1.34-6.47 1.12-9.76-.22-3.29-.8-6.56-1-9.85a17.1 17.1 0 0 1 .2-4.41 7.6 7.6 0 0 1 1.98-3.89 7.73 7.73 0 0 1 4.29-1.99c1.58-.24 3.19-.13 4.78.01 1.6.14 3.2.32 4.8.23 1.6-.1 3.22-.49 4.54-1.39 1.2-.81 2.1-2 2.79-3.27s1.18-2.64 1.71-3.98a18.73 18.73 0 0 1 1.91-3.89 7.6 7.6 0 0 1 3.28-2.79z"/><path fill="#f5bd0c" filter="url(#Y)" clip-path="url(#X)" d="M35.99 174.57a6.26 6.26 0 0 1 3.98-.45c1.33.27 2.57.92 3.62 1.77 2.09 1.7 3.43 4.13 4.67 6.51 2.84 5.46 5.5 11.04 8.9 16.19 2.48 3.73 5.33 7.2 7.83 10.92 3.39 5.03 6.15 10.57 7.29 16.5.76 4 .74 8.31-1.18 11.9a13.22 13.22 0 0 1-5.75 5.52 14.81 14.81 0 0 1-7.92 1.47c-4.27-.37-8.14-2.47-12.16-3.94-7.13-2.59-14.84-3.22-22.18-5.18-3.09-.82-6.13-1.89-9.26-2.54-1.39-.29-2.8-.5-4.12-1a6.1 6.1 0 0 1-3.25-2.55 5.15 5.15 0 0 1-.56-2.84c.07-.97.36-1.92.74-2.83.77-1.8 1.9-3.46 2.49-5.32.88-2.75.52-5.72-.14-8.53-.65-2.8-1.6-5.55-1.89-8.41a11.4 11.4 0 0 1 .17-3.82 6.69 6.69 0 0 1 1.81-3.34 7.6 7.6 0 0 1 4.56-1.89c1.67-.16 3.35.06 5.01.3 1.66.24 3.34.5 5.01.42a8.13 8.13 0 0 0 4.7-1.54 8.08 8.08 0 0 0 2.59-4.09c.47-1.57.62-3.2.81-4.82.19-1.62.43-3.26 1.06-4.77a6.99 6.99 0 0 1 3.17-3.64z"/><path fill="url(#Z)" filter="url(#aa)" clip-path="url(#X)" d="M51.2 188.21c2.25 4.06 3.62 8.72 5.85 12.82 2.05 3.77 4.38 7.65 6.46 11.12.93 1.55 3.09 3.93 5.27 7.62 1.98 3.34 3.98 8.01 5.1 9.58-.64-1.84-1.96-6.77-3.54-10.28-1.47-3.28-3.19-5.15-4.24-6.92-2.08-3.47-4.33-6.6-6.47-9.91-2.95-4.57-5.2-9.68-8.43-14.03z" style="fill:url(#Z)"/></g><g transform="matrix(.76389 0 0 .76172 17.5 2.5)"><path opacity=".2" fill="url(#ab)" filter="url(#ac)" clip-path="url(#I)" d="M198.7 215.61a14.25 14.25 0 0 1-1.81 3.8c-1.75 2.59-4.3 4.55-6.84 6.35-4.33 3.07-8.85 5.89-12.89 9.38a64.8 64.8 0 0 0-7.45 7.73c-1.95 2.36-3.79 4.84-6.02 6.94a21 21 0 0 1-7.74 4.77 18.77 18.77 0 0 1-10.47.22c-2.34-.6-4.63-1.64-6.08-3.53-1.45-1.89-1.92-4.44-2.09-6.94-.3-4.42.23-8.93.71-13.42.4-3.73.77-7.46.92-11.18a113.3 113.3 0 0 0-1.09-20.05c-.16-1.11-.32-2.22-.23-3.35a5.37 5.37 0 0 1 1.27-3.2 5.35 5.35 0 0 1 2.79-1.52c1.02-.24 2.06-.25 3.09-.28 2.43-.06 4.86-.21 7.25.01 1.51.13 2.99.41 4.49.55 2.51.24 5.12.12 7.64-.62 2.71-.8 5.29-2.29 8.05-2.7 1.13-.17 2.26-.15 3.36.01 1.12.15 2.24.46 3.1 1.15a5.6 5.6 0 0 1 1.51 1.99c.56 1.14.9 2.39 1.1 3.68.17 1.14.24 2.31.53 3.41a10.02 10.02 0 0 0 2.89 4.6 28.47 28.47 0 0 0 4.39 3.22c1.53.97 3.07 1.93 4.7 2.73.77.38 1.56.72 2.29 1.15.74.44 1.42.97 1.91 1.67.66.95.92 2.2.72 3.43z" style="fill:url(#ab)"/><path id="y" fill="url(#ad)" d="M213.47 222.92c-2.26 2.68-5.4 4.45-8.53 6.05-5.33 2.71-10.86 5.1-15.87 8.37a65.12 65.12 0 0 0-9.36 7.53c-2.48 2.37-4.83 4.9-7.61 6.91a21.82 21.82 0 0 1-9.48 4.01c-.95.14-1.9.21-2.86.21-3.24 0-6.48-.78-9.46-2.08-2.7-1.17-5.3-2.86-6.86-5.36-1.56-2.52-1.92-5.59-1.92-8.56-.01-5.23.96-10.41 1.87-15.57.76-4.29 1.48-8.58 1.95-12.91.85-7.86.84-15.81.28-23.71-.1-1.32-.21-2.65-.01-3.96.2-1.31.74-2.62 1.74-3.48a5.6 5.6 0 0 1 3.4-1.22c1.22-.07 2.44.12 3.65.3 2.85.42 5.73.74 8.52 1.48 1.76.46 3.48 1.08 5.23 1.56 2.94.79 6.01 1.17 9.02.82 3.25-.38 6.41-1.6 9.68-1.52a14 14 0 0 1 3.95.69c1.3.41 2.59 1 3.55 1.98a7.72 7.72 0 0 1 1.62 2.64c.57 1.44.88 2.98 1.01 4.52.11 1.37.09 2.76.35 4.11a13.6 13.6 0 0 0 3.04 5.97 37.97 37.97 0 0 0 4.91 4.66 68.56 68.56 0 0 0 5.32 4.16c.87.6 1.77 1.16 2.6 1.81a8.26 8.26 0 0 1 2.11 2.34 5.45 5.45 0 0 1 .46 4.21 12.13 12.13 0 0 1-2.3 4.04z" style="fill:url(#ad)"/><path fill="#cd8907" filter="url(#ae)" clip-path="url(#af)" d="M213.21 216.12a13 13 0 0 1-2.22 3.67c-2.07 2.42-4.93 4.01-7.78 5.44-4.88 2.44-9.92 4.58-14.5 7.52a59.36 59.36 0 0 0-8.55 6.78c-2.26 2.13-4.41 4.41-6.95 6.21a20.1 20.1 0 0 1-8.65 3.6c-3.8.56-7.72-.16-11.25-1.67-2.46-1.06-4.84-2.56-6.27-4.83-1.42-2.26-1.75-5.02-1.75-7.69-.02-4.71.87-9.37 1.71-14 .7-3.85 1.36-7.71 1.78-11.6.76-7.08.73-14.22.25-21.32-.08-1.19-.17-2.39.01-3.57a5.12 5.12 0 0 1 1.57-3.13 5.1 5.1 0 0 1 3.11-1.1c1.11-.06 2.22.12 3.33.28 2.61.38 5.23.67 7.78 1.33 1.61.42 3.18.98 4.78 1.4 2.68.72 5.49 1.06 8.24.74 2.97-.34 5.85-1.44 8.83-1.37 1.23.03 2.44.26 3.61.62 1.19.37 2.37.9 3.25 1.78a7.5 7.5 0 0 1 1.48 2.38c.53 1.29.89 2.67.91 4.07.03 1.46-.28 2.92-.09 4.37a8.25 8.25 0 0 0 1.3 3.28c.63 1 1.4 1.91 2.17 2.81 1.48 1.75 2.96 3.53 4.82 4.87 2.11 1.53 4.62 2.43 6.8 3.85.65.43 1.28.91 1.74 1.54a4.1 4.1 0 0 1 .54 3.74z"/><path fill="#f5c021" filter="url(#ag)" clip-path="url(#af)" d="M212.91 214.61c-.6 1.35-1.37 2.6-2.28 3.71a18.87 18.87 0 0 1-8 5.49c-4.97 1.88-10.39 2.13-15.26 4.27-2.97 1.3-5.65 3.26-8.36 5.12a41.7 41.7 0 0 1-6.82 3.98 35.01 35.01 0 0 1-8.5 2.32 26.7 26.7 0 0 1-5.57.41 12 12 0 0 1-5.37-1.49 7.54 7.54 0 0 1-3.03-3.1c-.73-1.49-.86-3.24-.85-4.94.05-4.5 1.02-8.96.99-13.47-.03-3.93-.81-7.8-1.03-11.72-.43-7.54 1.19-15.2-.24-22.59-.22-1.19-.53-2.37-.52-3.58.01-.6.1-1.21.31-1.77.22-.55.56-1.06 1.01-1.42.39-.29.84-.47 1.31-.56.46-.08.94-.06 1.41.01.93.15 1.82.51 2.73.78 2.6.78 5.35.76 8 1.35 1.66.36 3.26.97 4.91 1.41a22.2 22.2 0 0 0 8.46.75c3.04-.36 6.01-1.46 9.07-1.38 1.26.03 2.5.26 3.71.62s2.42.87 3.34 1.8a7.94 7.94 0 0 1 1.51 2.4c.57 1.29.96 2.69.95 4.11-.01.74-.12 1.47-.19 2.21-.06.74-.08 1.49.09 2.2.18.72.55 1.37.97 1.96.42.59.9 1.12 1.34 1.7 1.22 1.61 2.1 3.49 3.05 5.3.95 1.81 2.02 3.6 3.53 4.91 2.05 1.77 4.7 2.48 6.99 3.89.67.41 1.31.89 1.78 1.55a4.13 4.13 0 0 1 .56 3.77z"/><path fill="url(#ah)" filter="url(#ai)" clip-path="url(#af)" d="M148.08 181.58c2.82-.76 5.22 1.38 7.27 2.99 1.32 1.13 3.24.85 4.86.9 2.69-.09 5.36.45 8.05.12 5.3-.45 10.49-1.75 15.81-1.97 2.54-.16 5.4-.31 7.59 1.17.89.62 2.2 3.23 3.07 2.25-.36-2.74-2.39-5.39-5.11-6.12-2.14-.34-4.3.25-6.46.06-6.39-.15-12.75-1.34-19.16-1-4.46.04-8.91-.17-13.37-.34-1.75-.36-2.37 1.19-3.32 1.79.25.19.34.25.77.15z" style="fill:url(#ah)"/></g><g transform="matrix(.76389 0 0 .76172 17.5 2.5)"><path opacity=".35" fill="url(#aj)" filter="url(#ak)" clip-path="url(#af)" d="M185.49 187.61a4.54 4.54 0 0 0-2.35-2.07 7.92 7.92 0 0 0-3.13-.54c-2.13.02-4.25.57-6.38.39-1.79-.16-3.49-.83-5.24-1.26a11.1 11.1 0 0 0-5.52-.12 8.12 8.12 0 0 0-4.67 3.49 10.87 10.87 0 0 0-1.52 4.98c-.14 1.75.01 3.5.19 5.25.12 1.26.27 2.52.57 3.75.31 1.23.78 2.43 1.52 3.46a9.33 9.33 0 0 0 4.37 3.17c2.8 1.03 5.98.98 8.73-.15a24.07 24.07 0 0 0 11.52-10.6 22.3 22.3 0 0 0 2.06-5.31c.18-.74.32-1.49.32-2.25a4.6 4.6 0 0 0-.47-2.19z" style="fill:url(#aj)"/><path opacity=".35" fill="url(#al)" filter="url(#am)" clip-path="url(#af)" d="M185.49 184.89a4.4 4.4 0 0 0-2.35-1.5 10.8 10.8 0 0 0-3.13-.39c-2.13.02-4.25.42-6.38.28-1.79-.11-3.49-.6-5.24-.9a15.08 15.08 0 0 0-5.52-.09 8.31 8.31 0 0 0-4.67 2.52 6.43 6.43 0 0 0-1.52 3.6c-.14 1.26.01 2.53.19 3.79.12.91.27 1.83.57 2.72.31.89.78 1.76 1.52 2.5a9.83 9.83 0 0 0 4.37 2.29c2.8.75 5.98.71 8.73-.11 4.88-1.53 9.01-4.28 11.52-7.66a13.92 13.92 0 0 0 2.06-3.84c.18-.54.32-1.08.32-1.62a2.58 2.58 0 0 0-.47-1.59z" style="fill:url(#al)"/><path id="z" fill="#020204" d="M189.55 178.72a6.35 6.35 0 0 0-1.72-2.47 9.24 9.24 0 0 0-2.57-1.6c-1.86-.79-3.89-1.09-5.89-1.46-1.87-.35-3.74-.78-5.62-1.1-1.96-.33-3.98-.55-5.92-.11a10.1 10.1 0 0 0-4.54 2.43 12.97 12.97 0 0 0-3 4.21 18.24 18.24 0 0 0-1.43 8.97c.18 2.27.76 4.61 2.25 6.32a9.8 9.8 0 0 0 4.68 2.78c3.04.9 6.35.85 9.36-.13a24.7 24.7 0 0 0 12.35-9.29 13.75 13.75 0 0 0 2.2-4.66c.29-1.28.3-2.66-.15-3.89z"/><defs><path id="an" d="M168.89 171.07a10.75 10.75 0 0 0-8.67 5.2 10.74 10.74 0 0 0-1.43 6.17 9.7 9.7 0 0 1 1.19-4.28 8.78 8.78 0 0 1 5.98-4.37c1.54-.28 3.13-.11 4.68.08 1.5.19 3 .39 4.47.7 2.28.5 4.53 1.26 6.44 2.59.44.31.86.66 1.21 1.08.35.41.62.89.73 1.42.15.78-.07 1.6-.46 2.29a8.6 8.6 0 0 1-1.48 1.86c-.46.46-.94.89-1.43 1.32 2.21-.43 4.44-1.03 6.28-2.31a6.44 6.44 0 0 0 1.94-2.02 3.9 3.9 0 0 0 .43-2.75 4.16 4.16 0 0 0-.92-1.67 8.2 8.2 0 0 0-1.45-1.24 17.27 17.27 0 0 0-7.81-2.99c-1.8-.33-3.61-.61-5.42-.83a23.6 23.6 0 0 0-4.28-.25z"/></defs><use href="#an" xlink:href="#an" fill="url(#ao)" filter="url(#ap)" clip-path="url(#aq)" style="fill:url(#ao)"/><use href="#an" xlink:href="#an" fill="url(#ar)" filter="url(#ap)" clip-path="url(#aq)" style="fill:url(#ar)"/></g><g transform="matrix(.76389 0 0 .76172 17.5 2.5)"><path id="A" fill="url(#as)" d="M84.45 38.28c-1.53.08-3 .79-4.12 1.84A9.36 9.36 0 0 0 77.92 44c-.97 2.92-.75 6.08-.53 9.15.2 2.77.41 5.6 1.45 8.18.52 1.3 1.25 2.51 2.22 3.51a7.13 7.13 0 0 0 7.41 1.96 8.55 8.55 0 0 0 3.32-2.02 11.14 11.14 0 0 0 2.8-4.9c.53-1.83.68-3.75.65-5.66a23.89 23.89 0 0 0-1.09-7.03 15.97 15.97 0 0 0-3.6-6.11c-.8-.83-1.72-1.55-2.75-2.06a6.87 6.87 0 0 0-3.35-.74z" style="fill:url(#as)"/><path id="B" fill="#020204" d="M80.75 50.99c-.32 1.94-.33 3.97.33 5.81a9.76 9.76 0 0 0 2.05 3.28 6.81 6.81 0 0 0 1.99 1.55c.77.37 1.65.52 2.48.32a3.64 3.64 0 0 0 1.91-1.29c.49-.61.82-1.34 1.05-2.09.69-2.21.58-4.62-.11-6.83a8.85 8.85 0 0 0-2.6-4.24 5.15 5.15 0 0 0-2.12-1.11 3.68 3.68 0 0 0-2.36.19 4.07 4.07 0 0 0-1.85 1.86 8.65 8.65 0 0 0-.77 2.55z"/><path fill="url(#at)" filter="url(#au)" clip-path="url(#av)" d="M84.84 49.59c.21.55.91.75 1.3 1.19.37.42.76.87.97 1.4.39 1.01-.39 2.51.43 3.23.25.22.77.23 1.02 0 .99-.9.77-2.71.38-3.99a4.86 4.86 0 0 0-2.31-2.8c-.5-.26-1.25-.47-1.68-.11-.27.24-.24.74-.11 1.08z" style="fill:url(#at)"/><path fill="url(#aw)" clip-path="url(#ax)" d="M81.14 44.46c2.32-1.38 5.13-1.7 7.82-1.45 2.68.26 5.27 1.04 7.87 1.75 1.91.52 3.84 1 5.63 1.84a9.83 9.83 0 0 1 4.43 3.8c.16.27.29.56.46.83.17.27.37.52.62.71.25.19.57.32.88.3a.98.98 0 0 0 .45-.13c.14-.08.26-.2.33-.34.08-.16.11-.35.1-.53a2.56 2.56 0 0 0-.1-.54c-.65-2.37-2.19-4.38-3.35-6.55-.7-1.3-1.28-2.66-1.98-3.96-2.43-4.45-6.42-7.94-10.95-10.21a37.46 37.46 0 0 0-14.65-3.65c-5.86-.35-11.73.35-17.51 1.37-2.51.44-5.06.96-7.27 2.21A9.74 9.74 0 0 0 51 32.33a7.24 7.24 0 0 0-1.55 3.44 7.45 7.45 0 0 0 .44 3.62c.42 1.15 1.08 2.2 1.86 3.15 1.54 1.91 3.53 3.39 5.36 5.03 1.83 1.63 3.52 3.44 5.57 4.79a11.7 11.7 0 0 0 3.31 1.57c1.18.33 2.44.42 3.64.17a8.37 8.37 0 0 0 3.41-1.64c1.01-.77 1.88-1.7 2.71-2.66 1.66-1.93 3.21-4.04 5.39-5.34z" style="fill:url(#aw)"/><path fill="url(#ay)" filter="url(#az)" d="M90.77 36.57a20.44 20.44 0 0 1 4.85 7.16c-.48-2.91-1.23-5.26-3.13-7.16a14.63 14.63 0 0 0-3.98-2.72 10.61 10.61 0 0 0-3.61-.97c-.83-.02-1.03 0-1.2.01-.18.01-.31.01.23.08.54.06 1.75.39 3.05.97 1.3.58 2.62 1.54 3.79 2.63z" style="fill:url(#ay)"/></g><g transform="matrix(.76389 0 0 .76172 17.5 2.5)"><path id="C" fill="url(#aA)" d="M111.61 38.28a14.1 14.1 0 0 0-5.38 6.68c-1.24 3.45-.77 7.31.43 10.77 1.22 3.55 3.27 6.93 6.36 9.06a11.55 11.55 0 0 0 5.19 2.02c1.87.22 3.8-.09 5.47-.95a10.6 10.6 0 0 0 4.53-4.98 18.31 18.31 0 0 0 1.5-6.66c.16-2.9-.12-5.86-1.08-8.61a14.47 14.47 0 0 0-5.58-7.47 10.87 10.87 0 0 0-4.4-1.67 9.4 9.4 0 0 0-7.04 1.81z" style="fill:url(#aA)"/><path id="D" fill="#020204" d="M117.14 45.52c-.9.06-1.78.37-2.55.85a6.61 6.61 0 0 0-1.92 1.88 9.62 9.62 0 0 0-1.55 5.12c-.05 1.35.1 2.72.55 4a7.49 7.49 0 0 0 2.25 3.33 6.5 6.5 0 0 0 3.81 1.49 6.46 6.46 0 0 0 6.09-3.61c.52-.97.84-2.05.98-3.15a9.72 9.72 0 0 0-.93-5.69 7.93 7.93 0 0 0-4.24-3.84 6.07 6.07 0 0 0-2.49-.38z"/><path fill="url(#aB)" filter="url(#aC)" clip-path="url(#aD)" d="M122.71 53.36c1-1-.71-3.65-2.05-4.74-.97-.78-3.78-1.61-3.66-.75.12.85 1.39 1.95 2.23 2.79 1.05 1.03 3 3.18 3.48 2.7z" style="fill:url(#aB)"/><path fill="url(#aE)" clip-path="url(#aF)" d="M102.56 47.01a20.48 20.48 0 0 1 7-3.8 19.29 19.29 0 0 1 15.84 1.97c1.6 1.01 3.03 2.27 4.52 3.45a17.21 17.21 0 0 0 4.85 2.9c.97.34 2 .54 3.02.43a5.55 5.55 0 0 0 2.57-.96 6.71 6.71 0 0 0 1.88-2.02 8.76 8.76 0 0 0 1.1-5.34c-.33-3.69-2.41-6.94-4.15-10.21-.55-1.02-1.07-2.06-1.73-3.01-2.01-2.93-5.23-4.86-8.6-5.99-3.37-1.13-6.93-1.54-10.46-1.98-1.58-.2-3.17-.41-4.74-.22-1.81.22-3.51.95-5.28 1.4-.84.22-1.69.37-2.52.61-.83.24-1.65.57-2.33 1.11a5.67 5.67 0 0 0-1.87 3.21 10.17 10.17 0 0 0-.01 3.77c.39 2.5 1.33 4.93 1.24 7.46-.06 1.73-.61 3.44-.54 5.17.02.51.12 1.55.21 2.05z" style="fill:url(#aE)"/><path fill="url(#aG)" filter="url(#aH)" d="M119.93 31.18a8.72 8.72 0 0 0-1.07 1.7 15.2 15.2 0 0 1 5.19 2.21 20.9 20.9 0 0 1 7.01 8.29 8.7 8.7 0 0 0 1.02-1.37c-1.64-3.44-4-6.55-7.16-8.65-1.52-1-3.21-1.77-4.99-2.18z" style="fill:url(#aG)"/></g><path fill-opacity=".26" filter="url(#aI)" clip-path="url(#I)" d="M81.12 89.33c1.47 4.26 4.42 7.89 7.92 10.72a16.8 16.8 0 0 0 3.76 2.43c1.36.62 2.87.97 4.36.84 1.46-.12 2.85-.7 4.13-1.42 1.28-.72 2.46-1.59 3.7-2.37 2.12-1.35 4.39-2.44 6.6-3.64a37.91 37.91 0 0 0 7.46-5.14c1.03-.93 1.98-1.95 3.11-2.75a6.06 6.06 0 0 1 3.87-1.29c1.04.07 2.01.51 3.03.73.51.11 1.03.16 1.55.08a2.37 2.37 0 0 0 1.37-.67 2.4 2.4 0 0 0 .61-1.76 4.18 4.18 0 0 0-.54-1.81c-.59-1.13-1.49-2.1-1.89-3.31-.36-1.08-.29-2.24-.26-3.37a6.82 6.82 0 0 0-.51-3.33 4.34 4.34 0 0 0-1.83-1.77 6.49 6.49 0 0 0-2.48-.7c-1.72-.16-3.44.18-5.17.27-2.28.13-4.58-.15-6.87-.02-2.85.18-5.65 1-8.51 1.01-3.26.01-6.52-1.06-9.74-.55-1.39.22-2.71.72-4.03 1.16-1.33.45-2.7.84-4.1.82-1.59-.03-3.13-.58-4.72-.69-.79-.06-1.6 0-2.35.28-.74.28-1.41.79-1.78 1.5-.21.4-.31.86-.33 1.31-.02.46.04.91.15 1.36.22.88.63 1.71.96 2.55 1.2 3.07 1.46 6.42 2.53 9.53z" transform="matrix(.76389 0 0 .76172 17.5 2.5)"/><path opacity=".3" filter="url(#aJ)" clip-path="url(#I)" d="M77.03 77.2a33.3 33.3 0 0 1 7.56 6.39c1.99 2.29 3.68 4.89 6.29 6.58a13.85 13.85 0 0 0 6.28 2.08 22.3 22.3 0 0 0 7.83-.84 28.6 28.6 0 0 0 6.7-2.71c3.97-2.25 7.28-5.55 11.65-7.03.95-.33 1.94-.56 2.86-.96a4.37 4.37 0 0 0 2.23-1.83c.42-.82.4-1.75.54-2.64.15-.96.48-1.88.66-2.83.18-.95.2-1.96-.24-2.83a3.9 3.9 0 0 0-1.81-1.66 6.66 6.66 0 0 0-2.51-.56c-1.72-.08-3.43.33-5.16.47-2.28.19-4.58-.08-6.87-.01-2.85.08-5.66.67-8.51.8-3.25.14-6.49-.34-9.74-.44a21.12 21.12 0 0 0-4.21.2c-1.39.22-2.75.65-3.92 1.37-1.14.69-2.07 1.64-3.11 2.45a9.2 9.2 0 0 1-1.68 1.07c-.61.28-1.28.48-1.96.51-.35.01-.71-.01-1.05.04-.59.08-1.13.39-1.47.83a1.93 1.93 0 0 0-.36 1.55z" transform="matrix(.76389 0 0 .76172 17.5 2.5)"/><path fill="url(#aK)" d="M91.66 58.53c1.53-1.71 2.57-3.8 4.03-5.56a9.73 9.73 0 0 1 2.57-2.26 5.69 5.69 0 0 1 3.29-.79 5.8 5.8 0 0 1 3.39 1.61 10.3 10.3 0 0 1 2.17 3.12c.53 1.11.95 2.28 1.71 3.24.81 1.02 1.94 1.71 2.97 2.52.51.4 1.01.83 1.41 1.34.41.51.72 1.1.86 1.74a3.7 3.7 0 0 1-.16 1.95 4.41 4.41 0 0 1-1.09 1.64 6.33 6.33 0 0 1-3.56 1.6c-2.62.37-5.27-.41-7.92-.34-2.67.08-5.29 1.02-7.97.93a7.14 7.14 0 0 1-3.79-1.14 5.02 5.02 0 0 1-1.38-1.45 4.1 4.1 0 0 1-.58-1.9c-.02-.64.13-1.28.39-1.86.25-.59.61-1.12 1.01-1.62.81-.99 1.8-1.81 2.65-2.77z" style="fill:url(#aK)" transform="matrix(.76389 0 0 .76172 17.5 2.5)"/><g transform="matrix(.76389 0 0 .76172 17.5 2.5)"><path id="E" fill="url(#aL)" d="M77.14 75.05c.06.26.15.5.28.73.23.38.57.69.93.95.36.27.75.49 1.13.72a20.59 20.59 0 0 1 5.11 4.92c1.95 2.52 3.68 5.31 6.29 7.14a13.21 13.21 0 0 0 6.28 2.26c2.63.26 5.29-.16 7.83-.91a27.28 27.28 0 0 0 6.7-2.95c3.97-2.44 7.28-6.02 11.65-7.63.95-.35 1.94-.6 2.86-1.03a4.54 4.54 0 0 0 2.23-2c.42-.88.4-1.9.54-2.87.15-1.03.48-2.03.66-3.06.18-1.03.2-2.13-.24-3.08a3.97 3.97 0 0 0-1.81-1.79 6.04 6.04 0 0 0-2.51-.62c-1.72-.08-3.43.36-5.16.52-2.28.21-4.58-.09-6.87-.02-2.85.09-5.66.73-8.51.87-3.25.15-6.49-.35-9.74-.48a19.85 19.85 0 0 0-4.22.2 9.64 9.64 0 0 0-3.91 1.51c-1.13.78-2.03 1.84-3.07 2.74-.52.45-1.08.86-1.7 1.16-.61.3-1.29.49-1.98.47-.35-.01-.72-.06-1.05.04-.21.07-.4.2-.56.35a8.36 8.36 0 0 0-1.16 1.86z" style="fill:url(#aL)"/><path fill="#d9b30d" filter="url(#aM)" clip-path="url(#aN)" d="M89.9 78.56a5.73 5.73 0 0 0 3.75 6.76c1.7.57 3.62.29 5.21-.54a5.59 5.59 0 0 0 2.3-2.06c.27-.44.46-.94.53-1.46.06-.51.02-1.05-.16-1.54-.2-.53-.56-1-.99-1.37a4.48 4.48 0 0 0-1.5-.82 15.27 15.27 0 0 0-3.91-.68c-2.02-.04-4.9.34-5.23 1.71z"/></g><g transform="matrix(.76389 0 0 .76172 17.5 2.5)"><path fill="#604405" filter="url(#aO)" clip-path="url(#aN)" d="M84.31 67.86a47.33 47.33 0 0 0-3.36 2.2c-.57.41-1.15.84-1.45 1.47-.21.44-.26.94-.27 1.43 0 .5.03.99-.04 1.48-.04.33-.13.66-.14.99a1.18 1.18 0 0 0 .28.94c.15.16.35.26.56.32.21.06.42.09.64.14 1.01.24 1.89.86 2.66 1.56.77.69 1.47 1.48 2.28 2.13 2.18 1.78 5.07 2.52 7.89 2.56 2.82.05 5.61-.54 8.36-1.16 2.16-.49 4.32-.99 6.39-1.76a28.15 28.15 0 0 0 8.72-5.19c1.17-1.01 2.26-2.12 3.57-2.94 1.15-.73 2.44-1.21 3.62-1.9.11-.06.21-.13.3-.2.1-.08.18-.18.24-.28a.88.88 0 0 0 .03-.62c-.06-.2-.18-.38-.31-.55a4.62 4.62 0 0 0-.49-.5c-1.23-1.05-2.89-1.43-4.51-1.56-1.61-.12-3.24-.03-4.83-.3-1.5-.25-2.92-.81-4.37-1.27a30.73 30.73 0 0 0-15.83-.86 32.69 32.69 0 0 0-9.94 3.87z"/><path id="F" fill="url(#aP)" d="M83.94 63.95a20.75 20.75 0 0 0-4.43 4.04 9.64 9.64 0 0 0-1.74 2.94c-.29.86-.39 1.76-.57 2.65-.07.33-.15.66-.14 1 0 .16.02.33.07.5.05.16.14.31.25.43.2.2.47.31.74.37.28.05.56.06.84.09a7.8 7.8 0 0 1 3.44 1.47c1.04.71 2 1.55 3.07 2.22a16 16 0 0 0 7.95 2.26c2.78.11 5.56-.31 8.3-.86a37.1 37.1 0 0 0 6.39-1.76c3.16-1.25 6.01-3.16 8.72-5.19a35.97 35.97 0 0 0 3.57-2.94c.37-.37.74-.74 1.14-1.08.4-.33.85-.62 1.35-.78a5.12 5.12 0 0 1 2.37-.04c.59.1 1.18.23 1.78.21.3-.02.6-.07.88-.18.28-.11.54-.28.73-.52.25-.3.38-.7.38-1.09 0-.4-.12-.79-.32-1.13a3.84 3.84 0 0 0-1.81-1.46c-.99-.44-2.06-.65-3.11-.91a44.27 44.27 0 0 1-9.34-3.41c-1.48-.73-2.92-1.54-4.37-2.32-1.5-.8-3.02-1.57-4.64-2.07-3.64-1.1-7.6-.74-11.19.51a23.88 23.88 0 0 0-10.31 7.05z" style="fill:url(#aP)"/><path fill="#f6da4a" filter="url(#aQ)" clip-path="url(#aR)" d="M109.45 64.75c-.2-.24-.48-.42-.78-.51-.3-.09-.62-.09-.93-.04-.62.11-1.18.44-1.7.8a19.28 19.28 0 0 0-3.91 3.64 14.04 14.04 0 0 0-3.16 6.27c-.07.39-.11.8-.07 1.19.05.4.2.79.49 1.07.24.25.58.4.92.45.35.05.71 0 1.04-.11a5.38 5.38 0 0 0 1.74-1.15c2.87-2.58 5.47-5.66 6.51-9.38.1-.37.19-.75.19-1.14 0-.39-.1-.78-.34-1.09z"/><path opacity=".8" fill="url(#aS)" filter="url(#aT)" d="M92.72 59.06c-.77-.25-2.03 1.1-1.62 1.79.11.19.46.43.7.3.35-.19.64-.89 1.02-1.16.25-.18.2-.84-.1-.93z" style="fill:url(#aS)"/><path opacity=".8" fill="url(#aU)" filter="url(#aV)" d="M102.56 59.42c.2.64 1.23.53 1.83.84.52.27.94.86 1.53.88.56.01 1.44-.2 1.51-.76.09-.73-.98-1.2-1.67-1.47-.89-.34-2.03-.52-2.86-.06-.19.11-.4.36-.34.57z" style="fill:url(#aU)"/></g><path fill="url(#aW)" filter="url(#aX)" clip-path="url(#aY)" d="M129.27 69.15a2.42 3.1 16.94 0 1-2.81 3.04 2.42 3.1 16.94 0 1-2.12-3.04 2.42 3.1 16.94 0 1 2.81-3.05 2.42 3.1 16.94 0 1 2.12 3.05z" style="fill:url(#aW)" transform="matrix(.76389 0 0 .76172 17.5 2.5)"/></svg>