<svg height="200" width="200" xmlns="http://www.w3.org/2000/svg"><g style="stroke-width:4.039"><g style="fill:#f15a24"><path d="M133.88 93.01s-13.1-4.49-33.61-4.44C79.76 88.52 66.66 93 66.66 93c-5.19 87.22 28.52 87.32 33.6 86.85 5.1.47 38.8.37 33.62-86.85m-2.73-68.98s-6.3-3.57-31.02-3.84c-24.68.27-31.02 3.84-31.02 3.84-13.56 6.39-16.34 19.72-16.53 28.52.19 8.8 2.92 22.08 16.53 28.52 0 0 6.34 3.56 31.02 3.8 24.72-.24 31.02-3.8 31.02-3.8 13.66-6.44 16.39-19.73 16.57-28.52-.18-8.8-2.91-22.13-16.57-28.52"/><path d="M53.56 42s-3.06 7.26-.75 18.83c0 0-6.3-.5-6.38-1.52 0 0-3.99-6.25 0-15.65 0 0 .46-.79 7.13-1.67m27.22 58.47a12.32 12.32 0 0 0 6.67 4.5 100.81 100.81 0 0 1-12 10.64c-13.89 10.56-27.64 15.98-30.55 12.04-2.96-3.84 5.92-15.6 19.9-26.16a97.98 97.98 0 0 1 13.52-8.8 12.04 12.04 0 0 0 2.46 7.83"/></g><g style="fill:#db481b"><path d="M133.88 93.01s-13.1-4.49-33.61-4.49v91.44c5.1.37 38.8.27 33.66-86.9m-2.64-69.22s-6.3-3.56-31.02-3.84v64.72c24.72-.23 31.02-3.8 31.02-3.8 13.66-6.47 16.39-19.8 16.57-28.6-.18-8.8-2.91-22.09-16.57-28.52"/><path d="M146.75 42s3.06 7.26.79 18.83c0 0 6.3-.5 6.34-1.52 0 0 4.03-6.25 0-15.65 0 0-.46-.79-7.13-1.67m-28.93 58.47a12.04 12.04 0 0 1-6.67 4.5c3.24 3.42 7.36 7.08 12.04 10.64 13.89 10.56 27.59 15.98 30.55 12.04 2.97-3.84-5.97-15.6-19.9-26.16a102.73 102.73 0 0 0-13.52-8.8 12.04 12.04 0 0 1-2.5 7.83"/></g><g style="fill:#333"><path d="M134.25 43.84a20.93 20.93 0 0 1 2 8.7c-.15 5.56-2.18 13.9-12.55 17.92 0 0-4.82 2.23-23.62 2.41-18.75-.18-23.56-2.45-23.56-2.45a18.66 18.66 0 0 1-12.55-17.87c.05-2.55.51-5.7 2.04-8.75z"/><path d="M134.25 61.07a20.93 20.93 0 0 0 2.04-8.7c-.14-5.56-2.18-13.9-12.55-17.92 0 0-4.81-2.27-23.61-2.41-18.75.14-23.56 2.4-23.56 2.4a18.66 18.66 0 0 0-12.6 17.88c.1 2.5.56 5.64 2.04 8.7zm-40.74 48.42a6.64 6.64 0 1 1-13.29 0 6.62 6.62 0 0 1 13.24 0"/></g><g style="fill:#1a1a1a"><path d="M76.52 38.06s4.81-2.18 23.61-2.32c18.75.14 23.57 2.32 23.57 2.32a17.92 17.92 0 0 1 12.5 15.88l.04-1.53a18.52 18.52 0 0 0-12.54-17.92s-4.82-2.22-23.62-2.36c-18.75.14-23.56 2.36-23.56 2.36a18.66 18.66 0 0 0-12.5 19.45c.46-5.28 3.05-12.32 12.5-15.88"/><path d="M123.7 34.5s-4.77-2.23-23.57-2.42v40.6c18.75-.09 23.61-2.35 23.61-2.35a18.66 18.66 0 0 0 12.5-17.92 18.52 18.52 0 0 0-12.5-17.92M86.2 104.26a6.62 6.62 0 0 1 6.3 8.66 6.62 6.62 0 1 0-11.95-5.51 6.8 6.8 0 0 1 5.7-3.24"/></g><path d="M147.8 71.9a12.8 12.8 0 1 1-25.6 0 12.8 12.8 0 0 1 25.6 0m81.2 0a12.8 12.8 0 1 1-25.6 0 12.8 12.8 0 0 1 25.6 0m-69.4 15.3c2 8 8.3 14 16 14 7.5 0 13.9-6 15.8-14z" style="fill:#f2f2f2" transform="translate(18.97 18.98) scale(.46297)"/><g style="fill:#fff"><path d="m85 107.04.55.92a2.22 2.22 0 0 0 0 3.57l-.56.93-.1-.1a3.24 3.24 0 0 1-1.2-1.71v-.19c.47-.46.47-1.06 0-1.48v-.14a3.2 3.2 0 0 1 1.2-1.75h.05l.05-.05m5 2.82a3.24 3.24 0 0 1-.65 1.8l-.04.05c-.14.19-.28.28-.51.24-.47-.14-.97.23-1.11.74 0 .09-.1.14-.19.14a3.24 3.24 0 0 1-2.13-.24l.46-.92c.33.1.6.18.93.18 1.11 0 2-.78 2.18-1.85 0-.1 0-.14.14-.14h.92m0-.37h-1.06a2.18 2.18 0 0 0-3.1-1.76l-.47-.92.1-.1a3.24 3.24 0 0 1 2.08-.18l.14.14c.14.55.7.92 1.25.74h.18a3.24 3.24 0 0 1 .88 1.94v.14"/><path d="M89.44 112.96c0 .47-.33.8-.74.8a.76.76 0 0 1-.75-.75.74.74 0 1 1 1.49 0m-6.49-4.07c.47 0 .8.32.8.74a.74.74 0 1 1-.8-.74m5-2.64a.74.74 0 1 1 1.49 0c0 .46-.37.79-.8.74a.73.73 0 0 1-.73-.74"/></g></g></svg>