<svg width="200" height="200" xmlns="http://www.w3.org/2000/svg"><defs><filter id="a" width="1.09" height="1.22" x="-.04" y="-.11"><feOffset result="offOut" in="SourceAlpha"/><feGaussianBlur result="blurOut" in="offOut" stdDeviation="50"/><feBlend in="SourceGraphic" in2="blurOut"/></filter></defs><g fill="#33691e"><path filter="url(#a)" d="M200 750v350l350-350h2200V0H0v750z" transform="translate(25.13 124.6) scale(.04278)"/><path d="M31.55 131.02h104.81v4.27H31.56zm0 7.48h104.81v4.28H31.56zm0 7.49h104.81v4.28H31.56z" fill="#558b2f"/></g><g fill="#689f38"><path filter="url(#a)" d="m2250 750 300 350V750h200V0H0v750z" transform="translate(57.22 92.51) scale(.04278)"/><path d="M63.64 98.93h104.8v4.28H63.65zm0 7.49h104.8v4.28H63.65zm0 7.48h104.8v4.28H63.65z" fill="#7cb342"/></g><g fill="#8bc34a"><path filter="url(#a)" d="M200 750v350l350-350h2200V0H0v750z" transform="translate(25.13 60.43) scale(.04278)"/><path d="M31.55 66.84h104.81v4.28H31.56zm0 7.49h104.81v4.28H31.56zm0 7.49h104.81v4.28H31.56z" fill="#9ccc65"/></g><g fill="#aed581"><path filter="url(#a)" d="m2250 750 300 350V750h200V0H0v750z" transform="translate(57.22 28.34) scale(.04278)"/><path d="M63.64 34.76h104.8v4.28H63.65zm0 7.49h104.8v4.27H63.65zm0 7.48h104.8v4.28H63.65z" fill="#c5e1a5"/></g></svg>