<svg width="200" height="200" style="clip-rule:evenodd;fill-rule:evenodd;image-rendering:optimizeQuality;shape-rendering:geometricPrecision;text-rendering:geometricPrecision" viewBox="0 0 800 800" xmlns="http://www.w3.org/2000/svg"><g fill="#ff9400"><path style="opacity:1" d="M457 147c108-9 204 23 287 96 56 54 93 119 109 197l1 13c-23 2-46 6-68 9-17-86-61-153-133-201-61-37-127-51-198-42l-2-1a1178 1178 0 0 0-8-68z" transform="translate(-72.34 -49.443) scale(.88953)"/><path style="opacity:1" d="M484 269a239 239 0 0 1 250 199l-4 3-66 10a166 166 0 0 0-189-140l-3-1-10-68c7-2 14-3 22-3z" transform="translate(-72.34 -49.443) scale(.88953)"/><path style="opacity:1" d="m579 402 5 3-7 20a305304 305304 0 0 0-116 440l-15-21a27793 27793 0 0 0-238-383 2179 2179 0 0 0 98-14l124 216c5-15 8-29 10-43a3579 3579 0 0 0 45-201 1773 1773 0 0 1 82-13z" transform="translate(-72.34 -49.443) scale(.88953)"/></g></svg>