<?xml version="1.0" encoding="UTF-8" standalone="no"?>
<svg
   width="200"
   height="200"
   preserveAspectRatio="xMidYMid"
   version="1.1"
   id="svg3"
   sodipodi:docname="void_linux.svg"
   inkscape:version="1.4.2 (ebf0e940d0, 2025-05-08)"
   xmlns:inkscape="http://www.inkscape.org/namespaces/inkscape"
   xmlns:sodipodi="http://sodipodi.sourceforge.net/DTD/sodipodi-0.dtd"
   xmlns="http://www.w3.org/2000/svg"
   xmlns:svg="http://www.w3.org/2000/svg">
  <defs
     id="defs3" />
  <sodipodi:namedview
     id="namedview3"
     pagecolor="#ffffff"
     bordercolor="#666666"
     borderopacity="1.0"
     inkscape:showpageshadow="2"
     inkscape:pageopacity="0.0"
     inkscape:pagecheckerboard="0"
     inkscape:deskcolor="#d1d1d1"
     inkscape:zoom="1.9383886"
     inkscape:cx="108.8533"
     inkscape:cy="179.53056"
     inkscape:window-width="1916"
     inkscape:window-height="1032"
     inkscape:window-x="0"
     inkscape:window-y="22"
     inkscape:window-maximized="1"
     inkscape:current-layer="svg3" />
  <g
     id="g3"
     transform="matrix(0.62671367,0,0,0.62671367,19.811986,34.038386)">
    <path
       d="M 128,0 C 106,0 84.5,7 66.7,19.9 l 23.9,23.9 a 72,72 0 0 1 98.8,98.9 l 24,24 A 105.2,105.2 0 0 0 128,0 Z"
       fill="#abc2ab"
       id="path1" />
    <path
       d="m 189.4,190.6 -24,-24 A 72,72 0 0 1 66.6,67.8 l -24,-24 A 105.2,105.2 0 0 0 128,210.5 c 22,0 43.5,-7 61.4,-20 z"
       fill="#478061"
       id="path2" />
    <circle
       fill="#abc2ab"
       cx="128"
       cy="105.2"
       r="33.5"
       id="circle2" />
    <path
       d="m 30.6,124.8 a 5.6,5.6 0 0 1 -3.1,1.2 h -4.1 c -0.6,0 -1,0 -1.4,-0.3 L 21.2,124.8 0.5,86.2 0.3,85.9 v -0.4 c 0,-0.4 0.2,-0.7 0.5,-1 0.3,-0.2 0.8,-0.4 1.5,-0.4 h 25.3 c 1.3,0 2.2,0.4 2.6,1.2 L 43,110 79,85.3 a 6.5,6.5 0 0 1 3.7,-1.2 h 4 c 0.5,0 0.8,0.2 0.8,0.7 0,0.4 -0.3,0.8 -1,1.3 l -55.8,38.7 z m 55.8,1.2 c -2.2,0 -4,-0.3 -5.7,-1 a 11.9,11.9 0 0 1 -6.6,-7 15,15 0 0 1 -0.9,-5.2 c 0,-2.5 0.4,-4.8 1.2,-7.2 A 29.4,29.4 0 0 1 83,93 36.4,36.4 0 0 1 97,85.3 c 2.6,-0.8 5.3,-1.2 8,-1.2 h 30.2 c 2.1,0 4,0.3 5.7,1 a 11.1,11.1 0 0 1 6.7,6.9 c 0.6,1.6 0.8,3.3 0.8,5.2 a 21,21 0 0 1 -1.2,7.2 28,28 0 0 1 -3.5,6.7 35.6,35.6 0 0 1 -19.3,13.8 c -2.6,0.8 -5.3,1.1 -8,1.1 z m 37,-25.1 c 1.3,-2.9 2,-5 2,-6.5 0,-1.1 -0.4,-2 -1.3,-2.4 -0.8,-0.5 -2,-0.7 -3.7,-0.7 h -8.3 c -1.2,0 -2.3,0.2 -3.4,0.5 -1,0.3 -1.9,0.8 -2.7,1.5 a 20,20 0 0 0 -2.6,3 l -2.4,4.6 -2.9,6.7 a 21.8,21.8 0 0 0 -2.3,7.9 c 0,1.2 0.3,2 1,2.5 0.7,0.5 1.7,0.8 3,0.8 h 8.4 a 9.5,9.5 0 0 0 6.6,-2.5 c 1,-0.8 2,-2 2.8,-3.4 1,-1.5 1.9,-3.2 2.8,-5.3 z m 20.7,25.1 c -0.7,0 -1,-0.2 -1,-0.7 l 0.1,-1 17.3,-38.6 c 0.5,-1 1.2,-1.6 2.3,-1.6 H 184 c 0.7,0 1.1,0.3 1.1,0.8 0,0.3 0,0.5 -0.2,0.8 l -17.2,38.7 c -0.5,1 -1.3,1.6 -2.4,1.6 z m 30.2,0 c -0.7,0 -1,-0.2 -1,-0.7 l 0.1,-1 17.3,-38.6 c 0.5,-1 1.3,-1.6 2.3,-1.6 h 49.5 c 2.1,0 4,0.3 5.6,1 a 11.2,11.2 0 0 1 6.7,6.9 c 0.5,1.6 0.8,3.3 0.8,5.2 0,2.5 -0.4,5 -1.3,7.4 a 32.5,32.5 0 0 1 -8.9,12.7 35.4,35.4 0 0 1 -13.9,7.6 28,28 0 0 1 -7.7,1.1 z m 53.5,-25.1 c 1.3,-3 2,-5.1 2,-6.5 0,-1.1 -0.4,-2 -1.2,-2.4 A 7,7 0 0 0 225,91.3 h -12.5 l -12.1,27.5 h 12.4 c 1.2,0 2.3,-0.2 3.4,-0.6 1,-0.4 2,-1 3,-1.9 1,-0.9 2,-2 2.9,-3.4 l 2.8,-5.3 3,-6.7 z"
       id="path3" />
  </g>
</svg>
