<?xml version="1.0" encoding="UTF-8" standalone="no"?>
<!-- Created with Inkscape (http://www.inkscape.org/) -->

<svg
   version="1.1"
   id="svg2"
   width="728.63568"
   height="733.92181"
   viewBox="0 0 728.63568 733.92181"
   sodipodi:docname="PRoleTRact_logo.svg"
   inkscape:version="1.2.2 (b0a8486541, 2022-12-01)"
   xmlns:inkscape="http://www.inkscape.org/namespaces/inkscape"
   xmlns:sodipodi="http://sodipodi.sourceforge.net/DTD/sodipodi-0.dtd"
   xmlns="http://www.w3.org/2000/svg"
   xmlns:svg="http://www.w3.org/2000/svg">
  <defs
     id="defs6" />
  <sodipodi:namedview
     id="namedview4"
     pagecolor="#ffffff"
     bordercolor="#000000"
     borderopacity="0.25"
     inkscape:showpageshadow="2"
     inkscape:pageopacity="0.0"
     inkscape:pagecheckerboard="0"
     inkscape:deskcolor="#d1d1d1"
     showgrid="false"
     inkscape:zoom="0.67451376"
     inkscape:cx="358.77696"
     inkscape:cy="347.65784"
     inkscape:window-width="1854"
     inkscape:window-height="1131"
     inkscape:window-x="0"
     inkscape:window-y="0"
     inkscape:window-maximized="1"
     inkscape:current-layer="g8" />
  <g
     inkscape:groupmode="layer"
     inkscape:label="Image"
     id="g8"
     transform="translate(-157.66493,-131.53249)">
    <path
       style="fill:#241c1c"
       d="m 331.16493,863.93925 c -19.7087,-4.88355 -30.1644,-20.01849 -29.3076,-42.42357 2.0653,-54.00922 81.3076,-51.73588 81.3076,2.33259 0,28.94222 -23.5909,47.13036 -52,40.09098 z m 17.75,-2.0066 c 1.5125,-0.18391 2.8625,-0.44194 3,-0.5734 0.1375,-0.13146 1.5938,-0.39392 3.2361,-0.58323 1.6424,-0.18932 3.1433,-0.81581 3.3354,-1.39221 0.1922,-0.5764 0.7609,-0.79364 1.2639,-0.48275 0.5031,0.31088 0.9146,0.0621 0.9146,-0.55279 0,-0.61492 0.45,-0.83992 1,-0.5 0.55,0.33992 1,0.0665 1,-0.60765 0,-0.67413 0.288,-0.93773 0.6399,-0.58579 1.9721,1.97211 14.8225,-12.68625 15.6103,-17.80656 0.1692,-1.1 0.6891,-2.6117 1.1554,-3.35934 1.336,-2.14246 1.7494,-18.24896 0.5069,-19.74616 -0.5966,-0.71879 -0.8136,-1.74551 -0.4822,-2.2816 0.3313,-0.53609 0.1377,-1.26189 -0.4303,-1.6129 -0.5679,-0.35101 -0.7929,-1.02601 -0.5,-1.5 0.293,-0.47399 0.068,-1.14899 -0.5,-1.5 -0.5679,-0.35101 -0.7737,-1.0571 -0.4573,-1.5691 0.3165,-0.51199 0.072,-0.9309 -0.5427,-0.9309 -0.6149,0 -0.8399,-0.45 -0.5,-1 0.34,-0.55 0.1415,-1 -0.4409,-1 -0.5825,0 -0.9466,-0.41253 -0.8091,-0.91673 0.7706,-2.82563 -14.0614,-15.93585 -16.3962,-14.49286 -0.4696,0.29019 -0.8538,-0.0239 -0.8538,-0.69806 0,-0.67413 -0.2961,-0.92959 -0.658,-0.56769 -0.3619,0.36189 -1.1923,0.21455 -1.8453,-0.32743 -1.0867,-0.90191 -9.9221,-2.37925 -13.4967,-2.25674 -3.3056,0.11329 -12.0924,1.55772 -14,2.30142 -0.275,0.10721 -0.8375,0.14164 -1.25,0.0765 -0.4125,-0.0651 -0.75,0.35814 -0.75,0.9406 0,0.58246 -0.4137,0.80332 -0.9193,0.49081 -0.5057,-0.31252 -1.5771,0.0895 -2.381,0.89336 -0.8039,0.80386 -1.7295,1.19359 -2.0571,0.86606 -0.3275,-0.32753 -0.8782,0.14132 -1.2238,1.04188 -0.3456,0.90056 -0.9791,1.42061 -1.4078,1.15567 -1.0831,-0.66941 -9.011,8.10293 -9.011,9.97087 0,0.83729 -0.4765,1.52234 -1.059,1.52234 -0.5824,0 -0.7809,0.45 -0.441,1 0.34,0.55 0.1415,1 -0.4409,1 -0.5825,0 -1.0591,0.87344 -1.0591,1.94098 0,1.06754 -0.4806,2.23806 -1.0681,2.60115 -0.5875,0.3631 -0.8435,1.24566 -0.5689,1.96125 0.2746,0.7156 0.214,1.58631 -0.1346,1.9349 -0.967,0.96705 -1.1062,17.51916 -0.1523,18.10874 0.4601,0.28437 0.5831,1.17762 0.2733,1.98501 -0.3099,0.80738 -0.017,1.46797 0.6506,1.46797 0.6683,0 0.9553,0.67431 0.6384,1.5 -0.3166,0.825 -0.1397,1.5 0.393,1.5 0.5328,0 0.8795,0.3375 0.7705,0.75 -0.3716,1.40674 1.3301,5.25 2.3245,5.25 0.5454,0 0.7582,0.37782 0.4728,0.8396 -0.492,0.79605 7.549,9.1604 8.8063,9.1604 0.327,0 1.5109,0.91641 2.631,2.03647 1.1201,1.12007 2.4701,1.76851 3,1.44099 0.5299,-0.32752 0.9635,-0.0708 0.9635,0.57051 0,0.6413 0.675,0.90699 1.5,0.5904 0.825,-0.31658 1.5,-0.15385 1.5,0.36163 0,0.51548 0.6295,0.69568 1.3989,0.40044 0.7694,-0.29523 1.7004,-0.0488 2.0691,0.5477 0.3686,0.59647 1.0476,0.85127 1.5088,0.56623 0.4612,-0.28504 1.8926,-0.077 3.1809,0.46226 1.2883,0.53927 3.9173,0.74687 5.8423,0.46132 1.925,-0.28556 4.7375,-0.66966 6.25,-0.85357 z m -14.8713,-14.06244 c -2.9732,-1.35517 -11.3787,-9.92235 -11.3787,-11.59763 0,-0.43676 -0.5071,-2.06091 -1.1269,-3.60921 -0.9685,-2.4191 -1.5273,-12.8256 -0.809,-15.0651 0.1323,-0.4125 0.2913,-1.25069 0.3534,-1.86264 0.2858,-2.81852 6.8143,-11.51237 10.4536,-13.92071 17.251,-11.41622 36.2576,5.50115 32.8258,29.21754 -1.7749,12.26547 -19.1629,21.92221 -30.3182,16.83775 z m 14.4035,-2.07499 c 19.2515,-8.04185 18.1996,-38.59055 -1.5322,-44.49234 -11.8133,-3.5334 -24.3661,8.64124 -24.2061,23.47689 0.1627,15.07502 13.6317,26.07263 25.7383,21.01545 z m 112.2178,17.73877 c -41.9974,-10.97744 -39.2674,-73.31749 3.5212,-80.4078 26.5717,-4.40306 45.925,14.18288 43.7052,41.97208 -0.4194,5.25 -0.4194,5.25 -27.9479,5.25 -27.5285,0 -27.5285,0 -26.9116,3.08416 2.5416,12.70825 22.3849,18.08599 39.0076,10.57147 8.0059,-3.61921 8.1545,-3.56275 10.004,3.79989 2.3451,9.33588 2.355,9.30882 -4.6285,12.55291 -10.8229,5.02765 -24.9861,6.25216 -36.75,3.17729 z m 21.5,-1.61817 c 1.65,-0.1461 3.45,-0.38685 4,-0.53501 0.55,-0.14816 1.3219,-0.2213 1.7153,-0.16252 0.3935,0.0588 1.9685,-0.41061 3.5,-1.04306 1.5316,-0.63246 3.1222,-1.07726 3.5347,-0.98844 0.4125,0.0888 0.75,-0.28852 0.75,-0.83852 0,-0.55 0.3375,-0.9044 0.75,-0.78755 3.4996,0.99131 6.2913,-5.83284 3.1743,-7.75925 -0.4603,-0.28449 -0.5967,-1.14333 -0.303,-1.90853 0.8749,-2.27996 -3.1662,-3.85684 -5.0518,-1.97126 -0.8632,0.8632 -1.5695,1.33227 -1.5695,1.04238 0,-0.28989 -1.9125,0.18636 -4.25,1.05833 -16.822,6.27525 -38.2866,-2.79951 -38.2567,-16.17412 0.01,-3 0.01,-3 26.7303,-3.26628 24.1721,-0.24086 26.8113,-0.43181 27.6431,-2 0.759,-1.43095 0.7966,-13.52042 0.047,-15.23372 -0.1202,-0.275 -0.3232,-0.95 -0.451,-1.5 -0.1278,-0.55 -0.3177,-1.225 -0.422,-1.5 -0.1043,-0.275 -0.3793,-1.51839 -0.611,-2.7631 -0.9756,-5.23899 -11.2711,-17.07117 -13.6011,-15.63114 -0.4559,0.28175 -0.8289,-0.0393 -0.8289,-0.71341 0,-0.67413 -0.2842,-0.94152 -0.6315,-0.5942 -0.3473,0.34732 -1.5848,0.10646 -2.75,-0.53524 -1.1652,-0.6417 -2.7935,-1.35907 -3.6185,-1.59416 -2.934,-0.83605 -20.0407,-0.91189 -20.548,-0.0911 -0.2838,0.45924 -1.1766,0.5815 -1.984,0.27168 -0.8171,-0.31356 -1.468,0.001 -1.468,0.71034 0,0.70051 -0.2918,0.9819 -0.6483,0.62531 -2.0617,-2.06173 -17.3517,10.11431 -17.3517,13.8179 0,0.82342 -0.4196,1.49712 -0.9326,1.49712 -0.8964,0 -2.7763,4.39915 -1.9641,4.59631 0.2182,0.053 -0.2012,0.81682 -0.9321,1.69745 -2.4671,2.9727 -3.3803,23.08596 -1.1558,25.45624 0.1291,0.1375 0.3471,0.7 0.4846,1.25 0.1375,0.55 0.3596,1.3375 0.4935,1.75 0.1338,0.4125 0.1901,1.0875 0.125,1.5 -0.065,0.4125 0.3581,0.75 0.9406,0.75 0.5824,0 0.8183,0.38935 0.5242,0.86522 -1.4018,2.26814 10.9843,16.23387 12.7933,14.42487 0.3429,-0.34288 0.6234,-0.15302 0.6234,0.42192 0,0.88218 4.7722,3.45023 7.25,3.90142 0.4125,0.0751 1.0875,0.24611 1.5,0.37999 0.4125,0.13388 1.1349,0.17434 1.6053,0.0899 0.4704,-0.0844 1.4632,0.35103 2.2062,0.96767 0.743,0.61665 1.8171,0.83308 2.3868,0.48097 0.5697,-0.35212 1.827,-0.15376 2.7938,0.4408 1.0158,0.62464 3.6577,0.82336 6.2579,0.47071 2.475,-0.33566 5.85,-0.72983 7.5,-0.87593 z m -31.5,-46.60739 c 0,-4.63113 4.7406,-10.99294 12.5,-16.77487 5.0043,-3.72894 22.6945,2.01839 24.2248,7.87035 0.2797,1.0694 0.9326,1.94436 1.4509,1.94436 0.5183,0 0.6835,0.41891 0.367,0.9309 -0.3164,0.512 -0.193,1.16718 0.2743,1.45597 0.4673,0.28879 0.6485,1.89489 0.4028,3.5691 -0.5891,4.0141 -39.2198,5.0032 -39.2198,1.00419 z m 37,-0.89506 c 0,-13.4119 -20.5551,-19.054 -30.2776,-8.31079 -7.3414,8.1121 -5.7764,9.24569 12.7642,9.24569 10.196,0 17.5134,-0.39062 17.5134,-0.9349 z m 11,29.4349 c 0,-0.275 -0.225,-0.5 -0.5,-0.5 -0.275,0 -0.5,0.225 -0.5,0.5 0,0.275 0.225,0.5 0.5,0.5 0.275,0 0.5,-0.225 0.5,-0.5 z m 203.5,20.52402 c -35.8528,-9.21726 -20.9761,-49.02402 18.3214,-49.02402 10.4012,0 10.4012,0 9.7012,-3.73159 -2.263,-12.06273 -14.1573,-15.0241 -29.1606,-7.26022 -8.9565,4.63478 -8.6362,4.78213 -10.8166,-4.97654 -1.9231,-8.60753 -2.0373,-8.40099 6.9546,-12.58732 14.1886,-6.60573 35.0875,-5.35444 44.8405,2.68475 15.2221,12.5474 14.5792,73.87092 -0.7745,73.87092 -10.566,0 -10.566,0 -10.566,-3.60359 0,-3.60359 0,-3.60359 -3.4859,-0.54293 -5.7812,5.07596 -16.6462,7.32181 -25.0141,5.17054 z m 13.7521,-2.6267 c 3.9894,-0.52004 10.2482,-3.9466 12.5473,-6.86942 3.1846,-4.04859 5.1465,-2.45169 5.187,4.2221 0.014,2.39181 11.5575,3.45933 14.8485,1.37322 2.1729,-1.37739 1.219,-54.27338 -1.0713,-59.40462 -1.6794,-3.76279 -8.5835,-11.28798 -10.0136,-10.91448 -0.4125,0.10773 -0.75,-0.28068 -0.75,-0.86314 0,-0.58246 -0.45,-0.7809 -1,-0.44098 -0.55,0.33992 -1,0.14148 -1,-0.44098 0,-0.58246 -0.3375,-1.00573 -0.75,-0.9406 -0.4125,0.0651 -1.0875,0.009 -1.5,-0.125 -0.4125,-0.13388 -1.0875,-0.33853 -1.5,-0.45479 -0.4125,-0.11625 -1.425,-0.47177 -2.25,-0.79005 -5.1871,-2.00117 -22.6207,-1.13814 -25.514,1.26303 -0.6435,0.53407 -1.4661,0.67494 -1.828,0.31305 -0.3619,-0.3619 -0.658,-0.13299 -0.658,0.50867 0,0.64167 -0.3375,1.05967 -0.75,0.9289 -3.7806,-1.19855 -9.4725,5.48684 -7.4344,8.73207 0.6574,1.04679 0.7786,1.64098 1.0321,5.05949 0.1446,1.95001 0.5187,1.87517 7.4023,-1.48127 17.4158,-8.49185 31.7175,-2.80844 31.7445,12.6151 0.01,3.18761 0.01,3.18761 -11.2445,3.65471 -12.8196,0.53227 -13.693,0.61019 -15.75,1.4052 -0.825,0.31886 -1.8375,0.67485 -2.25,0.7911 -0.4125,0.11626 -0.8625,0.30106 -1,0.41068 -0.1375,0.10962 -1.3454,0.4007 -2.6842,0.64684 -4.4799,0.82362 -11.8318,7.68857 -12.4247,11.60168 -0.1085,0.71619 -0.4985,1.78342 -0.8666,2.37161 -1.0062,1.60779 -0.5739,11.43056 0.5031,11.43056 0.515,0 0.6774,0.675 0.3608,1.5 -0.3166,0.825 -0.1132,1.5 0.452,1.5 0.5652,0 0.7971,0.37299 0.5154,0.82887 -0.7242,1.1718 5.2437,8.17113 6.967,8.17113 0.785,0 1.4272,0.47656 1.4272,1.05902 0,0.58246 0.45,0.7809 1,0.44098 0.55,-0.33992 1,-0.11492 1,0.5 0,0.61492 0.4189,0.85914 0.9309,0.54271 0.512,-0.31644 1.2249,-0.0997 1.5842,0.48166 0.3593,0.58134 1.4029,0.82395 2.3191,0.53914 0.9162,-0.28482 2.3408,-0.0736 3.1658,0.46927 0.825,0.54292 2.625,0.70276 4,0.3552 1.375,-0.34756 3.7384,-0.79336 5.2521,-0.99066 z m -7.5021,-11.47742 c -0.9625,-0.5606 -1.764,-0.65942 -1.7812,-0.21959 -0.087,2.21579 -4.9593,-7.60112 -4.9636,-9.99997 -0.01,-4.31057 4.0702,-10.72901 7.2538,-11.41657 7.7944,-1.68336 20.5663,-2.13203 22.4056,-0.7871 2.7449,2.00715 0.1916,17.50333 -2.8841,17.50333 -0.4942,0 -0.5748,0.5625 -0.1792,1.25 0.3957,0.6875 0.3856,0.9509 -0.022,0.58533 -0.4079,-0.36557 -2.3428,0.42193 -4.2998,1.75 -3.834,2.60183 -12.1294,3.31473 -15.5291,1.33457 z m 15.0745,-3.6348 c 8.1279,-6.05801 8.964,-16.6541 1.3486,-17.09003 -12.7253,-0.72843 -20.3731,3.19133 -20.3731,10.44188 0,8.36372 11.385,12.34222 19.0245,6.64815 z m 19.1755,-53.72608 c 0,-0.24254 -0.5195,-0.76207 -1.1545,-1.15451 -0.7153,-0.44208 -0.883,-0.27432 -0.441,0.44098 0.7125,1.15275 1.5955,1.54767 1.5955,0.71353 z m 47.8478,70.58982 c -37.1772,-9.70119 -39.3528,-64.08554 -3.1301,-78.24056 11.2116,-4.38121 34.2663,-2.35288 40.1517,3.53251 2.0818,2.08183 -2.3434,17.98943 -4.7796,17.18134 -0.8744,-0.29004 -4.0648,-1.43398 -7.0898,-2.54209 -17.4483,-6.39166 -31.956,3.10576 -31.956,20.91996 0,18.10264 16.0164,27.8512 33.6519,20.48259 5.9022,-2.46606 6.8009,-2.04025 9.6734,4.58332 3.7769,8.70876 3.5994,9.42796 -2.9295,11.87073 -12.0742,4.51756 -22.2015,5.18449 -33.592,2.2122 z m 21.3189,-1.41313 c 1.4667,-0.12964 2.9732,-0.5422 3.3478,-0.91681 0.3746,-0.3746 1.3121,-0.43896 2.0833,-0.14301 0.7712,0.29595 1.4022,0.0541 1.4022,-0.53752 0,-0.59158 0.675,-0.81658 1.5,-0.5 0.825,0.31659 1.5,0.0509 1.5,-0.5904 0,-0.6413 0.45,-0.88789 1,-0.54797 0.55,0.33992 1,0.11492 1,-0.5 0,-0.61492 0.3986,-0.87172 0.8857,-0.57067 0.4871,0.30105 1.0997,-0.57239 1.3613,-1.94098 0.2616,-1.36859 0.062,-2.48835 -0.4447,-2.48835 -0.5061,0 -0.6422,-0.45 -0.3023,-1 0.34,-0.55 0.1415,-1 -0.4409,-1 -0.5825,0 -1.0058,-0.3375 -0.9406,-0.75 0.627,-3.97132 -3.9861,-5.28456 -8.6009,-2.44845 -5.3225,3.2711 -19.7684,1.08894 -25.8215,-3.90054 -22.3343,-18.40985 3.9513,-57.43194 28.8077,-42.76627 2.8614,1.68825 3.3627,1.7311 4.4815,0.38307 0.6928,-0.8348 0.9244,-1.51781 0.5147,-1.51781 -0.4097,0 -0.1847,-0.675 0.5,-1.5 0.6847,-0.825 0.8748,-1.5 0.4225,-1.5 -0.4524,0 -0.2825,-0.54 0.3775,-1.2 2.3522,-2.35214 -0.2419,-8.881 -2.8806,-7.25017 -0.5056,0.31251 -0.9194,0.0166 -0.9194,-0.65748 0,-0.67413 -0.2961,-0.92959 -0.658,-0.56769 -0.3619,0.36189 -1.2727,0.14777 -2.0241,-0.47584 -0.7514,-0.6236 -1.6514,-0.8486 -2,-0.5 -0.3486,0.34861 -1.1829,0.17811 -1.8541,-0.37887 -1.5066,-1.25041 -17.7748,-1.29164 -20.4638,-0.0519 -0.275,0.12679 -1.5693,0.42794 -2.8762,0.66921 -3.374,0.62287 -9.1238,3.47556 -9.1238,4.52664 0,0.48733 -0.5625,0.8883 -1.25,0.89103 -0.6875,0.003 -2.3962,1.01523 -3.7972,2.25 -1.401,1.23477 -1.851,1.84196 -1,1.34931 0.851,-0.49265 -0.1058,0.63235 -2.1262,2.5 -3.4396,3.17944 -7.6677,9.89572 -6.2298,9.89572 0.3565,0 0.088,0.675 -0.5968,1.5 -0.6847,0.825 -0.9097,1.5 -0.5,1.5 0.4097,0 0.1273,0.74377 -0.6275,1.65282 -0.9641,1.16098 -1.3369,4.35989 -1.2528,10.75 0.152,11.56179 0.2794,12.59718 1.5495,12.59718 0.5746,0 0.7858,0.675 0.4692,1.5 -0.3166,0.825 -0.065,1.5 0.5597,1.5 0.6244,0 0.8532,0.28205 0.5085,0.62678 -3.6301,3.63009 18.4767,22.77505 23.8969,20.69516 0.7681,-0.29476 1.3965,-0.007 1.3965,0.63846 0,0.71531 0.7739,0.92874 1.9799,0.546 1.0889,-0.3456 2.7764,-0.14407 3.75,0.44785 0.9736,0.59192 3.7951,0.83793 6.2701,0.54669 2.475,-0.29123 5.7,-0.63559 7.1667,-0.76523 z m 15.8333,-5.23571 c 0,-0.275 -0.225,-0.5 -0.5,-0.5 -0.275,0 -0.5,0.225 -0.5,0.5 0,0.275 0.225,0.5 0.5,0.5 0.275,0 0.5,-0.225 0.5,-0.5 z m 32.5,7.56493 c -13.9495,-3.39599 -16.5,-9.77161 -16.5,-41.24643 0,-21.8185 0,-21.8185 -4.3575,-21.8185 -4.3576,0 -4.3576,0 -5,-6.14669 -1.1733,-11.22531 -1.3226,-10.85331 4.3575,-10.85331 5,0 5,0 5,-9.5 0,-9.5 0,-9.5 10.5,-9.5 10.5,0 10.5,0 10.5,9.46379 0,9.46379 0,9.46379 9.75,9.75 15.6937,0.46069 15.9216,16.78621 0.2343,16.78621 -10.0965,0 -10.0965,0 -9.7904,21.09015 0.3849,26.51796 0.9062,27.23845 16.9052,23.36385 3.2961,-0.79827 5.3354,13.90117 2.2525,16.23675 -3.6388,2.75669 -16.8703,4.07376 -23.8516,2.37418 z m 12.0501,-2.14596 c 0.3675,-0.59456 1.6772,-0.82776 2.9106,-0.51821 1.2333,0.30955 2.5717,0.23352 2.9742,-0.16897 0.4025,-0.40248 1.1443,-0.78804 1.6485,-0.85679 0.5041,-0.0688 1.2541,-0.18259 1.6666,-0.25297 0.4125,-0.0704 0.8337,-2.82734 0.9359,-6.12656 0.2044,-6.59686 0.9102,-6.3054 -10.8664,-4.48712 -7.1968,1.11117 -8.8195,-4.13338 -8.8195,-28.50562 0,-21.92768 0,-21.92768 9.25,-22.2152 9.25,-0.28753 9.25,-0.28753 9.549,-6.00619 0.3458,-6.61362 -1.0437,-7.57157 -9.2065,-6.34748 -8.9228,1.33807 -9.592,0.65519 -9.5956,-9.79227 0,-9.7087 -0.3834,-9.92744 -15.2469,-8.77704 -1.527,0.11819 -1.75,1.28229 -1.75,9.13545 0,9 0,9 -2.75,9.01365 -5.7533,0.0286 -7.4649,1.02403 -6.658,3.8724 0.4072,1.43767 0.7063,3.73754 0.6646,5.11081 -0.092,3.01694 1.2093,3.96759 5.4569,3.98783 3.2135,0.0153 3.2135,0.0153 3.6378,22.26531 0.3704,19.42545 0.869,28.25 1.5963,28.25 0.113,0 0.3649,0.84642 0.5597,1.88093 0.4439,2.35748 6.5158,8.72287 7.6512,8.02114 0.4628,-0.28606 0.8415,-0.0577 0.8415,0.50753 0,0.5652 0.675,0.76861 1.5,0.45203 0.825,-0.31659 1.5,-0.0471 1.5,0.59877 0,0.65924 0.7677,0.93551 1.75,0.62982 0.9625,-0.29951 2.425,-0.11173 3.25,0.4173 2.0294,1.30131 6.7252,1.24624 7.5501,-0.0886 z m -714.5501,-52.98495 c 0,-54.13364 0,-54.13364 25.25,-53.69945 43.2249,0.74329 53.7656,8.09258 52.5688,36.65249 -1.0178,24.28733 -13.8158,34.11294 -44.4327,34.11294 -11.3409,0 -11.3409,0 -11.6135,18.25 -0.2726,18.25 -0.2726,18.25 -11.0226,18.53383 -10.75,0.28383 -10.75,0.28383 -10.75,-53.84981 z m 17.5149,51.04193 c 0.3481,-0.56322 0.7828,-8.48637 0.966,-17.607 0.4113,-20.47157 -2.9722,-18.3117 30.2691,-19.32291 1.2375,-0.0376 2.25,-0.54373 2.25,-1.12463 0,-0.60111 0.8618,-0.78268 2,-0.42141 1.1,0.34913 2,0.25021 2,-0.21981 0,-0.47002 0.972,-0.9278 2.1601,-1.01729 1.188,-0.0895 2.5311,-0.74775 2.9846,-1.46281 0.4536,-0.71505 0.8316,-0.95222 0.84,-0.52704 0.01,0.42518 1.1782,0.0111 2.5994,-0.92009 3.2683,-2.14144 9.5609,-10.30945 8.8404,-11.47515 -0.2984,-0.4828 -0.018,-0.87781 0.6235,-0.87781 0.6413,0 0.9125,-0.66059 0.6027,-1.46797 -0.3098,-0.80739 -0.1526,-1.7218 0.3493,-2.03203 0.502,-0.31023 0.6767,-1.17912 0.3882,-1.93087 -0.2885,-0.75176 -0.1298,-1.6108 0.3527,-1.90898 1.0662,-0.65894 0.9263,-14.77161 -0.1639,-16.53558 -0.4275,-0.6917 -0.525,-1.50985 -0.2168,-1.81812 1.5664,-1.56636 -6.5933,-14.89843 -8.4253,-13.76617 -0.5142,0.31777 -0.9349,0.11275 -0.9349,-0.45558 0,-1.29767 -5.5251,-4.22627 -6.3732,-3.37815 -0.3447,0.34473 -0.6268,0.0752 -0.6268,-0.5989 0,-0.67413 -0.4189,-0.96679 -0.9309,-0.65036 -0.512,0.31644 -1.1958,0.14663 -1.5197,-0.37735 -0.3238,-0.52397 -1.3674,-0.97716 -2.3191,-1.00709 -0.9516,-0.0299 -3.3053,-0.33445 -5.2303,-0.67671 -11.9839,-2.13071 -44.7386,-1.57465 -45.252,0.76823 -0.3752,1.71218 -0.2055,86.0171 0.2014,100.08563 0.058,2.00551 13.3648,2.66873 14.5655,0.72595 z m 11.4851,-50.75419 c -9.953,-0.32581 -15.3038,-20.68381 -9.4868,-36.09429 0.4486,-1.18846 17.1013,-1.14592 28.2069,0.0721 1.7837,0.19563 9.7201,7.11477 10.1312,8.83264 4.5148,18.8673 -5.1397,27.96578 -28.8513,27.18959 z m 18.7308,-4.70918 c 10.9943,-4.45502 11.6257,-22.72358 0.9529,-27.5692 -16.9408,-7.69138 -26.6837,-2.50725 -26.6837,14.19823 0,16.66202 7.7151,20.67115 25.7308,13.37097 z m 41.5078,18.73742 c 0.2614,-39.75 0.2614,-39.75 10.2614,-39.75 10,0 10,0 10.5,4.31776 0.5,4.31776 0.5,4.31776 3.9728,0.7226 4.9992,-5.17549 15.4244,-7.88055 22.7772,-5.91007 5.0894,1.36388 3.1337,21.70085 -2,20.79843 -19.0038,-3.34057 -23.8294,3.99952 -24.5361,37.32128 -0.4718,22.25 -0.4718,22.25 -10.8543,22.25 -10.3825,0 -10.3825,0 -10.121,-39.75 z m 18.2053,35 c 0.3316,-1.5125 0.5681,-9.95 0.5257,-18.75 -0.097,-20.20082 0.087,-21.96012 2.9138,-27.77719 3.912,-8.0506 11.7696,-12.29675 21.1293,-11.41812 4.9873,0.46818 4.9873,0.46818 4.9873,-7.58492 0,-4.42921 -0.2841,-7.76894 -0.6314,-7.42162 -0.3474,0.34732 -1.494,0.1699 -2.5481,-0.39425 -2.4094,-1.28945 -12.1558,0.5743 -14.3198,2.73829 -0.8254,0.82537 -1.5007,1.16508 -1.5007,0.75492 0,-0.41015 -1.1111,0.29812 -2.4691,1.57394 -1.3581,1.27582 -2.2296,2.70744 -1.9367,3.18137 0.2929,0.47394 -0.1709,1.13167 -1.0308,1.46163 -0.8598,0.32996 -1.5634,1.22678 -1.5634,1.99294 0,0.76615 -0.675,1.39301 -1.5,1.39301 -1.1485,0 -1.5,-1.26801 -1.5,-5.4121 0,-6.23758 -3.8636,-7.84677 -14.25,-5.93513 -3.0991,0.57041 -4.5624,72.44924 -1.5,73.68495 4.8449,1.95495 14.6016,0.61433 15.1939,-2.08772 z m 2.5561,-62.75 c 0,-0.275 -0.225,-0.5 -0.5,-0.5 -0.275,0 -0.5,0.225 -0.5,0.5 0,0.275 0.225,0.5 0.5,0.5 0.275,0 0.5,-0.225 0.5,-0.5 z m 130,10.5 c 0,-57 0,-57 10.5,-57 10.5,0 10.5,0 10.5,57 0,57 0,57 -10.5,57 -10.5,0 -10.5,0 -10.5,-57 z m 18.119,5.80202 c 0.065,-27.11611 0.1339,-50.20202 0.1522,-51.30202 0.1634,-9.82257 0.4443,-9.5 -8.2712,-9.5 -8,0 -8,0 -8,54.85921 0,54.8592 0,54.8592 8,55.05202 8,0.19281 8,0.19281 8.119,-49.10921 z m -15.119,-59.30202 c 0,-0.275 0.225,-0.5 0.5,-0.5 0.275,0 0.5,0.225 0.5,0.5 0,0.275 -0.225,0.5 -0.5,0.5 -0.275,0 -0.5,-0.225 -0.5,-0.5 z m 133,66.53275 c 0,-44.03275 0,-44.03275 -15.5,-44.03275 -15.5,0 -15.5,0 -15.5,-10.01097 0,-10.01097 0,-10.01097 41.75,-9.75 41.75,0.26097 41.75,0.26097 41.75,9.76097 0,9.5 0,9.5 -14.7395,9.77667 -14.7395,0.27668 -14.7395,0.27668 -15,44 -0.2605,43.72333 -0.2605,43.72333 -11.5105,44.00608 -11.25,0.28275 -11.25,0.28275 -11.25,-43.75 z m 19.393,40.38546 c 0.3339,-0.86998 0.607,-20.62184 0.607,-43.89301 0,-37.65981 0.1739,-42.37795 1.5818,-42.91821 0.87,-0.33385 7.3593,-0.60699 14.4206,-0.60699 14.526,0 14.4685,0.0432 13.7969,-10.36182 -0.4795,-7.42893 -78.384,-7.31648 -78.1492,0.11281 0.3655,11.56467 -1.544,10.24901 14.8747,10.24901 18.3579,0 16.6313,-4.84213 16.1901,45.40313 -0.1937,22.05328 -0.1563,40.88437 0.083,41.84687 0.6146,2.47109 15.6528,2.62352 16.595,0.16821 z m 42.8483,-50.16821 c 0.2734,-56.79137 3.4937,-60.27522 49.2118,-53.23896 31.328,4.82154 39.1686,49.28006 11.0552,62.68641 -3.2587,1.55399 -3.2587,1.55399 10.1165,21.90099 16.2511,24.72193 16.1807,22.52331 0.71,22.18144 -12.6651,-0.27988 -12.6651,-0.27988 -24.8182,-19.27988 -18.2038,-28.45955 -23.5166,-28.47082 -23.5166,-0.0499 0,19.5499 0,19.5499 -11.5087,19.5499 -11.5086,0 -11.5086,0 -11.25,-53.75 z m 20.7587,32.11404 c 0,-25.50446 8.8441,-28.65967 22.0431,-7.86404 4.0144,6.325 7.672,11.5 8.128,11.5 0.4559,0 0.8289,0.41775 0.8289,0.92833 0,1.58946 7.1818,13.07167 8.1759,13.07167 0.5182,0 0.6983,0.39467 0.4001,0.87703 -0.2981,0.48237 3.9504,0.95444 9.441,1.04904 5.4907,0.0946 9.983,-0.12635 9.983,-0.49101 0,-1.32975 -9.233,-15.43506 -10.1035,-15.43506 -0.493,0 -0.784,-0.36261 -0.6465,-0.8058 0.3163,-1.01946 -4.4927,-8.17819 -5.5,-8.18737 -0.4125,-0.004 -0.7509,-0.56933 -0.752,-1.25683 -10e-4,-0.6875 -2.0261,-4.32933 -4.5,-8.09295 -5.4253,-8.25375 -5.487,-6.99393 0.502,-10.25357 2.75,-1.49673 5,-3.12638 5,-3.62143 0,-0.49504 0.4,-0.65291 0.8888,-0.35081 0.9462,0.58479 5.8355,-5.26433 6.3217,-7.56272 0.1593,-0.75269 0.6769,-1.65091 1.1504,-1.99605 0.4735,-0.34514 0.9637,-1.92014 1.0893,-3.5 0.1257,-1.57986 0.5683,-3.64526 0.9836,-4.58978 0.9107,-2.07121 -0.2565,-16.3702 -1.4311,-17.53269 -0.139,-0.1375 -0.3652,-0.7 -0.5027,-1.25 -0.1375,-0.55 -0.3595,-1.3375 -0.4934,-1.75 -0.1339,-0.4125 -0.1897,-1.08861 -0.1242,-1.50246 0.2307,-1.45573 -9.7363,-10.95582 -10.8028,-10.29671 -0.5938,0.36696 -1.0796,0.16409 -1.0796,-0.45083 0,-0.61492 -0.45,-0.83992 -1,-0.5 -0.55,0.33992 -1,0.11492 -1,-0.5 0,-0.61492 -0.4189,-0.85914 -0.9309,-0.54271 -0.512,0.31644 -1.2325,0.0873 -1.6011,-0.50915 -0.3687,-0.59647 -1.2853,-0.84846 -2.0371,-0.55999 -0.7517,0.28848 -1.6285,0.10104 -1.9484,-0.41652 -0.3199,-0.51756 -1.5718,-0.98004 -2.782,-1.02774 -34.3483,-1.35356 -44.4324,-1.07708 -45.0516,1.2352 -0.8149,3.04297 -0.8369,98.1673 -0.023,100.28774 4.8761,12.70695 17.3743,-0.31528 17.3743,-18.10279 z m 0.2262,-51.55193 c 0.2912,-18.41172 9.4703,-23.44919 27.4483,-15.06362 19.4004,9.04901 9.0681,31.76904 -14.6251,32.15976 -13.0971,0.21598 -13.0971,0.21598 -12.8232,-17.09614 z m 26.5681,12.81138 c 9.8729,-5.15667 9.8039,-21.17878 -0.1106,-25.68011 -15.9663,-7.24894 -24.6837,-2.59245 -24.6837,13.18507 0,15.33711 9.8495,20.30074 24.7943,12.49504 z M 484.66493,688.099 c 0,-17.09497 -0.9511,-19.25293 -9.9132,-22.49101 -8.3774,-3.02679 -50.0905,-14.5893 -50.6422,-14.03757 -1.5476,1.54752 -4.4256,17.51986 -5.0328,27.92987 -1.5911,27.28163 -23.4195,26.99894 -23.4077,-0.30315 0.023,-53.77718 29.0861,-92.44734 109.9959,-146.35664 63.7278,-42.4611 85.2143,-63.94451 95.0056,-94.99223 2.6038,-8.25646 4.145,-31.5 2.0887,-31.5 -1.8651,0 -31.2856,6.64964 -46.0717,10.41317 -17.266,4.39472 -17.0226,4.12062 -17.0226,19.16806 0,11.35966 4.89499,61.43329 -3.55442,68.65703 -11.29271,9.6546 -48.776,34.50484 -50.0325,34.50484 -0.7519,0 -3.0857,-6.58391 -3.0868,-27.96248 0,-35.38109 1.42182,-89.20681 -5.82628,-91.603 -5.8304,-1.92751 -36.7546,-9.86229 -45.5,-11.67476 -4.125,-0.8549 -8.3467,-1.81691 -9.3816,-2.13779 -3.3212,-1.02974 -1.8311,24.3712 2.1014,35.82279 8.8026,25.63344 31.5017,49.59322 72.7542,76.795 11.6913,7.70916 11.6943,7.42235 -0.1654,15.52038 -11.7467,8.02085 -10.2069,8.27509 -27.2084,-4.49245 -106.8799,-80.2629 -98.1209,-162.25227 25.8864,-242.3118 39.5763,-25.55056 65.7209,-46.43376 81.0411,-64.73202 3.9687,-4.74023 3.9687,-4.74023 -9.961,-0.45306 -7.6614,2.35795 -15.8499,4.61156 -18.1966,5.00804 -7.4881,1.26511 -9.4199,4.27327 -10.2404,15.94641 -0.8139,11.57766 -0.2671,10.73995 -13.7581,21.08102 -14.9404,11.45212 -35.2042,23.45062 -39.6048,23.45062 -7.6159,0 -51.2445,-40.93795 -66.9795,-62.84885 -26.8795,-37.42957 -32.592,-97.18292 -8.8652,-92.73175 7.2669,1.36329 8.9378,4.94738 9.7282,20.86735 0.6607,13.30905 2.9533,25.30114 5.8836,30.77652 1.4183,2.65019 33.5464,13.04384 52.1566,16.87304 35.9132,7.38942 69.8626,3.42753 117.3095,-13.69003 7.3289,-2.64407 11.5,-16.71799 11.5,-38.80286 0,-12.36243 6.6166,-18.33017 16.0095,-14.43951 6.2223,2.57737 7.4211,5.87662 7.4323,20.45365 0.043,55.94932 -32.7292,97.40484 -125.4418,158.68019 -31.353,20.72178 -49.5951,36.58261 -63.1921,54.94325 -8.0042,10.80836 -10.269,14.82711 -8.6395,15.33056 52.872,16.33538 86.6227,17.10823 146.5802,3.35647 16.4922,-3.78263 15.9467,-2.84342 8.3491,-14.37605 -11.252,-17.07973 -31.637,-36.28214 -56.5977,-53.31408 -14.3978,-9.82442 -14.2651,-8.90763 -2.5,-17.27201 12.4041,-8.81859 23.9577,-3.01933 54.0469,27.12864 78.8036,78.95748 59.9623,143.43825 -66.5507,227.75742 -30.0769,20.04584 -42.9516,29.88456 -55.4413,42.36747 -9.7978,9.79249 -25.3971,29.0443 -24.3029,29.99338 0.4114,0.35684 8.623,2.73573 18.248,5.28641 51.7356,13.71023 66.2979,13.3015 126.8105,-3.55927 13.2806,-3.70042 -12.4078,-33.41244 -54.5605,-63.10612 -9.3284,-6.57128 -1.0686,-20.67382 12.1087,-20.67382 6.6125,0 47.9149,37.56383 62.1366,56.51217 28.6838,38.21686 38.3494,96.48783 16.0047,96.48783 -8.6236,0 -10.7252,-3.28282 -11.593,-18.1089 -0.8089,-13.82043 -4.3347,-31.01814 -6.2266,-30.37133 -0.6492,0.22194 -12.4304,3.58682 -26.1804,7.47751 -36.8984,10.44075 -34,8.01464 -34,28.45938 0,14.04334 0,14.04334 -26.75,14.30967 -26.75,0.26634 -26.75,0.26634 -26.75,-13.0156 z m 50.8258,10.37812 c 1.0097,-0.64015 1.2608,-3.7952 1.0533,-13.23469 -0.2887,-13.13249 0.8255,-17.5953 4.9429,-19.79887 5.386,-2.88253 58.5364,-17.13409 59.3044,-15.90169 2.0123,3.22901 5.1535,20.31907 5.6336,30.65037 1.1877,25.55355 19.24,25.1921 19.24,-0.38524 0,-44.18472 -24.8113,-84.40272 -76.2759,-123.63988 -5.6232,-4.28721 -10.8069,-7.80032 -11.5192,-7.80689 -1.0857,-0.01 -14.9234,8.66876 -17.5165,10.98607 -0.4465,0.39893 3.7682,3.9952 9.3658,7.9917 25.722,18.36443 60.9458,53.49224 60.9458,60.77969 0,2.27472 -43.1058,13.60092 -62,16.2907 -7.6324,1.08655 -39.998,0.9456 -39.9993,-0.1742 -4e-4,-0.33774 -2.1142,-0.90377 -4.6975,-1.25784 -11.5198,-1.57897 -51.3032,-12.51429 -51.3032,-14.1018 0,-10.9799 38.4606,-45.80921 85,-76.97473 119.1053,-79.75981 138.3501,-140.96527 68.105,-216.59832 -28.9103,-31.12769 -45.519,-40.61809 -56.9662,-32.55102 -9.7295,6.85655 -9.609,6.14583 -1.88,11.09138 27.478,17.58238 52.2207,41.27695 64.9048,62.15538 5.1997,8.55882 5.8637,8.09765 -19.6636,13.6564 -53.3058,11.60772 -73.8844,11.45627 -124.75,-0.9181 -20.2881,-4.93563 -19.9671,-4.71647 -16.3017,-11.12711 12.8964,-22.55531 33.9335,-41.83536 76.6166,-70.21757 86.9244,-57.80058 120.0978,-100.55562 119.9085,-154.54259 -0.094,-26.88454 -18.9968,-26.39727 -20.2879,0.52299 -0.6494,13.54169 -3.2873,27.19416 -6.0769,31.45164 -2.2279,3.40027 -40.7979,15.20597 -62.6086,19.16355 -12.8451,2.33077 -39.7976,2.32734 -53.457,-0.007 -24.4908,-4.18504 -60.2571,-15.67465 -62.3872,-20.04136 -3.4599,-7.09272 -5.3132,-16.45542 -5.8572,-29.59002 -0.6529,-15.76376 -1.5942,-18.40906 -7.142,-20.07125 -23.7356,-7.11136 -15.5254,55.48125 12.1039,92.27766 15.5516,20.71137 56.4457,58.80402 63.1152,58.79147 4.2475,-0.008 31.2785,-16.76584 43.2158,-26.79164 7.4964,-6.29604 8.2309,-7.96753 8.3509,-19.0059 0.1131,-10.39979 1.7285,-11.79747 19.3518,-16.74376 6.7132,-1.88417 15.4564,-4.41965 19.4293,-5.6344 24.7297,-7.5613 -22.902,35.57947 -79.7235,72.20678 -110.3914,71.15869 -127.7564,148.46439 -49.1268,218.7041 8.9582,8.00237 35.92222,28.65362 38.69012,29.71574 1.6351,0.62747 19.88668,-11.42182 18.79088,-12.41342 -0.4698,-0.42513 -5.5792,-3.92259 -11.3542,-7.77215 -50.7207,-33.80991 -72.4252,-62.73999 -73.7413,-98.2903 -0.6826,-18.43696 -0.7548,-18.42847 46.1026,-5.41176 22.8016,6.33418 19.33578,55.4002 19.96648,94.32759 0.5,30.85814 0.5,30.85814 14.6035,20 22.4938,-17.31773 35.2189,-27.79947 34.731,-28.60814 -0.2489,-0.4125 0.024,-0.75 0.6065,-0.75 0.6816,0 2.73122,-56.47475 2.73122,-63.59636 0,-16.36321 -0.6076,-15.83541 25.6998,-22.32395 44.3455,-10.93754 42.2707,-11.10393 42.2676,3.38969 -0.01,40.21367 -24.2508,69.09175 -99.5524,118.59062 -55.5661,36.52594 -77.9936,57.89689 -94.7142,90.25226 -13.9302,26.95576 -18.6589,64.8277 -8.7562,70.12748 8.8217,4.72118 13.5537,-0.42304 14.4507,-15.70931 1.8089,-30.8256 2.7688,-31.82109 24.8769,-25.8004 45.5118,12.39438 44.7278,11.81614 44.7278,32.98989 0,11.22191 35.9741,19.82645 48.8258,11.67851 z M 475.63813,251.6464 c -15.0759,-11.95616 -34.7419,-32.86275 -32.7687,-34.83592 0.2129,-0.21289 4.6415,0.87998 9.8413,2.42858 5.1998,1.54861 12.8292,3.61935 16.9542,4.60164 15.2572,3.63319 16.4681,5.23812 16.4866,21.85131 0.016,14.51877 0.1735,14.42975 -10.5134,5.95439 z m 8.8738,-7.23206 c -0.4702,-13.73709 -1.3384,-14.92465 -13.1926,-18.04508 -4.4849,-1.18057 -12.0975,-3.19993 -16.9169,-4.48745 -11.121,-2.97106 -3.7779,6.52051 20.7625,26.83701 10.1606,8.41176 9.7882,8.5833 9.347,-4.30448 z m 17.153,392.34199 c -16.7221,-7.23189 -20.1539,-31.5608 -6.1436,-43.55311 19.3753,-16.5845 47.9512,3.80957 39.6157,28.27292 -4.5664,13.40174 -20.7416,20.7858 -33.4721,15.28019 z m 18.7822,-1.96111 c 15.1668,-6.33557 18.9352,-26.75425 7.1262,-38.61385 -17.7539,-17.83015 -45.8662,1.1949 -37.3658,25.28745 4.211,11.93526 18.4976,18.23129 30.2396,13.3264 z m -16.7822,-244.98353 c -17.6597,-5.48347 -23.8571,-28.6755 -11.5527,-43.23303 12.2409,-14.48242 36.019,-10.82166 43.8984,6.75839 9.244,20.62475 -10.7564,43.17825 -32.3457,36.47464 z m 18.6906,-3.30558 c 9.8203,-5.00992 15.5307,-16.45147 13.4304,-26.90955 -5.9519,-29.63691 -48.2352,-24.91821 -48.099,5.36773 0.08,17.70697 19.0636,29.50292 34.6686,21.54182 z m -16.3642,-188.21772 c -15.7246,-3.05081 -25.4735,-19.6025 -20.8709,-35.43475 4.5922,-15.79688 24.1302,-24.08092 38.8632,-16.47793 27.7754,14.33352 12.6879,57.86508 -17.9923,51.91268 z m 15.6612,-4.10335 c 19.201,-8.27704 20.1771,-36.29071 1.6071,-46.12251 -5.7514,-3.04505 -17.4274,-3.05957 -23.0947,-0.0287 -29.1107,15.56837 -8.794,59.2048 21.4876,46.15122 z"
       id="path165"
       sodipodi:nodetypes="ssssssssssssssssssssssssssssssssssssssssssssssssssssssssssssssssssssssssssssssssssssssssssssssssssscssssscsssssssssssssssssssssssssssssssssssssssssssssssssssssssssssscssssssssssssssssscssssssssssssssssssssssscssssssssssssssssssssssssssssssssssssssscssssssssssssssssssssssssssssssssssssssssssssssssssssssssssssssssssscsssssssssssssssssssssssssssssssscsssssssssssssssssssssssssssssssssssssssscsssssssssssssssssssssssssscsssscsssssssssssssssssssssssssssssssssssssssssssssssssssssssssssssssssssscsssssssssssssssssssssscsssssssssssssssssssssssssssssssssssssssssssssssssssssssssssssssssssssssssscsssssssssssssssssssssscsssssssssssssssssssssssssssssssscssssssssss" />
    <path
       style="fill:#241c1c;stroke-width:1.61351"
       d=""
       id="path180"
       transform="translate(157.66493,131.53249)" />
    <path
       style="fill:#241c1c;stroke-width:1.05372"
       d="m 347.53166,567.51856 c -7.33017,-2.10274 -14.4773,-5.8265 -16.07477,-8.37516 -0.77579,-1.23775 -1.62804,-5.57345 -1.89388,-9.6349 -0.92951,-14.20095 -3.59652,-16.1507 -33.6301,-24.58566 -21.82193,-6.12872 -26.80886,-6.97245 -30.39454,-5.14242 -3.60215,1.83845 -4.87741,6.4083 -6.24098,22.36432 -1.57069,18.37969 -4.65241,24.43146 -11.24566,22.08382 -4.86461,-1.73212 -7.00241,-5.80812 -7.54139,-14.37864 -0.93976,-14.94349 4.95362,-38.52778 14.03067,-56.14836 16.0529,-31.16225 37.17456,-52.56028 91.44214,-88.93801 47.32745,-31.72549 69.98886,-49.23169 84.02208,-67.85518 11.93215,-15.83516 16.95013,-29.08204 18.25387,-48.18808 0.92448,-13.5481 0.003,-15.32593 -7.85588,-15.15164 -6.04922,0.13416 -45.76964,9.47252 -53.57499,12.5956 -6.95444,2.78262 -7.48771,4.92723 -7.48771,30.11272 l -2.78818,50.2495 -5.03848,4.81147 c -5.58733,5.33559 -35.41466,27.62826 -39.07532,29.54011 -4.21868,2.2033 -1.83427,-29.12063 -2.69035,-61.02657 -0.80809,-30.11694 -1.48385,-35.89396 -5.32757,-45.54451 -1.92597,-4.8356 -2.89152,-5.84689 -8.24033,-8.63065 -8.98492,-4.67614 -36.8322,-12.05877 -45.85251,-12.15602 -6.77741,-0.073 -7.43424,0.11905 -8.7361,2.5553 -3.10969,5.81934 0.72041,31.24479 6.56911,43.60791 10.14888,21.45298 27.6941,39.62683 60.62873,62.80106 8.38819,5.9023 15.08618,10.33135 15.08618,11.00709 0,0.67573 -3.43245,3.56392 -7.62766,6.41819 -9.15229,6.22689 -6.7495,7.92142 -27.70091,-8.28164 -46.28042,-35.7916 -67.24441,-68.40207 -67.24441,-104.60182 0,-29.25948 13.45432,-56.20232 42.59422,-85.29674 16.1635,-16.13826 31.14062,-27.84293 62.39774,-48.76402 42.49039,-28.43976 78.35596,-58.68264 78.35596,-66.071978 0,-3.607044 -1.61298,-3.436974 -20.95068,2.209007 -23.78807,6.945341 -25.36939,8.207621 -25.39763,20.273501 -0.0197,8.40895 -1.63312,11.49438 -9.38351,17.94432 -12.16859,10.1268 -37.27853,25.43457 -41.73762,25.4445 -7.08623,0.0158 -52.85048,-43.86927 -65.37146,-62.687137 -13.76941,-20.694157 -22.61447,-47.039082 -22.61447,-67.357037 0,-9.730467 2.02221,-16.7684828 5.32606,-18.5366521 3.12754,-1.6738072 8.22306,-1.1722801 10.42103,1.025691 2.40878,2.4087864 2.87474,4.7895535 4.26144,21.7732161 0.57291,7.016785 2.00904,15.889834 3.19141,19.717886 2.13701,6.918832 2.18862,6.978625 8.70536,10.085524 17.85254,8.511305 52.86319,16.689621 75.57452,17.653833 24.9374,1.05872 45.30418,-2.302619 78.20823,-12.907509 17.78687,-5.732662 19.39141,-6.732092 21.33945,-13.29185 0.89793,-3.023665 2.12736,-9.780355 2.73207,-15.014867 2.14453,-18.563479 2.97786,-22.781259 5.21673,-26.4038416 4.15373,-6.72087909 9.91631,-5.6337936 13.3661,2.5214547 1.81562,4.2920979 1.95892,22.6893779 0.25014,32.1127289 -8.15687,44.982473 -42.89071,83.82848 -122.16644,136.62981 -28.37287,18.89766 -54.57825,41.41098 -64.99798,55.84043 -6.37123,8.82302 -10.09605,15.66469 -9.4479,17.35374 1.02197,2.66321 31.31461,10.32162 54.67631,13.82294 12.61626,1.89085 37.96408,2.11246 50.53496,0.4418 16.60946,-2.20737 49.69326,-8.91434 57.48396,-11.65354 4.74633,-1.6688 4.45388,-4.33057 -1.44843,-13.18306 -12.79811,-19.19504 -33.08538,-38.65914 -57.82352,-55.47732 -5.21594,-3.54604 -9.7206,-6.65006 -10.01038,-6.89781 -1.06756,-0.91275 8.02408,-7.66817 11.68236,-8.68043 10.95411,-3.03103 31.99545,11.99474 56.14216,40.09149 16.69509,19.42616 26.96347,36.33633 32.28015,53.15959 3.57034,11.29744 4.11075,29.98503 1.20457,41.65469 -8.3351,33.46932 -39.72843,68.87029 -95.48002,107.6689 -42.67464,29.6981 -59.00286,42.40547 -76.69625,59.68855 -12.59183,12.29982 -18.69948,20.18098 -18.69948,24.12932 0,2.64994 3.26094,3.97974 22.63656,9.23114 25.60104,6.93867 37.55751,8.94258 53.21967,8.91962 16.92617,-0.0249 23.69074,-0.90848 45.30732,-5.91855 23.7718,-5.50957 36.28579,-9.81626 36.68672,-12.62574 0.89717,-6.28698 -33.93058,-40.97687 -61.17289,-60.93077 -3.91098,-2.86464 -7.11087,-5.7903 -7.11087,-6.50148 0,-0.71118 3.4091,-3.43048 7.57578,-6.04289 9.15271,-5.73853 7.53621,-6.28875 26.67024,9.07807 16.25446,13.05419 34.29433,31.5138 43.55839,44.57184 8.38188,11.8146 17.27916,29.80645 20.67375,41.80595 3.38282,11.9579 5.16,29.10158 3.77426,36.4086 -2.12266,11.19273 -7.01244,15.58957 -12.06184,10.8459 -3.13,-2.94048 -4.57652,-7.94623 -5.85273,-20.25364 -1.20141,-11.58603 -3.90929,-25.22373 -5.28069,-26.59513 -0.56453,-0.56453 -5.14725,0.0182 -11.28974,1.43555 -13.86015,3.1982 -44.33482,11.90934 -48.27353,13.79893 -4.39774,2.1098 -5.66553,6.68174 -5.73601,20.68523 -0.0561,11.13469 -0.19642,11.89283 -2.43035,13.12469 -3.40266,1.87633 -22.34846,2.16717 -28.38426,0.43572 z M 328.23492,113.01473 c 0,-17.276583 0.54588,-16.749365 -24.3367,-23.504782 -10.33929,-2.807031 -19.00941,-4.89299 -19.26694,-4.635465 -2.99185,2.991859 36.98205,42.300427 42.0175,41.318147 1.3089,-0.25533 1.58614,-2.55873 1.58614,-13.1779 z"
       id="path182"
       transform="translate(157.66493,131.53249)"
       sodipodi:nodetypes="ssssssssssssssscssssssssssssssssssssssssssssssssssssssssssssssssssssssssssssssssssssssssss" />
    <path
       style="fill:#ffffff;stroke-width:1.05372"
       d="m 345.92277,566.48207 c -6.25605,-2.03082 -13.75032,-6.61617 -14.45808,-8.84614 -0.32896,-1.03645 -1.01879,-5.23482 -1.53297,-9.32972 -0.51417,-4.0949 -1.46096,-8.4283 -2.10398,-9.62978 -2.78219,-5.19858 -12.66966,-9.32485 -38.58059,-16.10062 -18.49887,-4.8375 -22.46128,-5.11305 -25.49426,-1.77288 -2.67512,2.94605 -3.18199,5.07791 -5.09444,21.42694 -2.20051,18.81158 -4.4423,23.10671 -10.89325,20.87076 -4.4037,-1.52635 -6.45895,-6.95098 -6.46084,-17.05276 -0.004,-20.20841 8.99867,-46.73044 22.84359,-67.29921 15.72593,-23.36329 33.28867,-38.80185 82.52714,-72.54561 47.58222,-32.60872 68.03755,-49.1714 81.16315,-65.71778 13.89229,-17.51287 19.57567,-32.00672 20.71143,-52.81871 0.56857,-10.41853 0.47039,-11.18362 -1.68276,-13.11262 -2.13317,-1.91111 -2.8667,-1.9645 -10.93426,-0.79596 -11.54278,1.6719 -44.86433,9.9931 -49.91506,12.465 -6.29509,3.08091 -9.18057,33.67683 -9.19794,58.14917 l -0.0155,21.83764 -8.69322,7.4455 c -4.78127,4.09502 -15.00784,12.26331 -22.72569,18.15175 -10.68756,8.1542 -14.24453,10.36316 -14.92206,9.26687 -1.44924,-2.34491 0.53687,-37.90615 -0.14761,-60.72116 -0.98546,-32.8473 -3.10235,-45.77536 -8.4659,-51.70202 -4.32818,-4.78258 -34.39509,-14.10387 -49.65435,-15.39374 -10.67674,-0.90253 -11.93051,0.27089 -11.9117,11.14829 0.008,4.40167 0.89906,12.27062 1.98099,17.48655 6.18175,29.80184 22.30048,49.14849 70.12787,84.17153 l 6.17097,5.0472 -3.00658,2.51257 c -1.65362,1.38191 -5.02311,3.73694 -7.48777,5.23337 -4.47186,2.71511 0.67934,5.97296 -2.96624,4.03119 -6.80413,-3.62414 -31.57622,-24.01193 -43.33455,-35.66499 -18.64048,-18.47359 -30.51344,-36.51409 -36.40795,-55.32049 -2.19195,-6.99341 -2.47178,-9.90388 -2.43146,-25.28937 0.0438,-16.71589 0.17569,-17.77251 3.41977,-27.39682 6.66501,-19.77332 17.87127,-36.46225 38.16599,-56.83874 15.1116,-15.17248 29.66204,-26.68861 59.52615,-47.11273 51.4073,-35.15754 80.60986,-59.969601 80.60986,-68.490445 0,-2.003194 -0.55759,-2.476211 -2.91892,-2.476211 -3.39362,0 -14.64118,2.963554 -28.26207,7.446603 -12.82045,4.219603 -14.71605,6.277862 -15.68083,17.026433 -0.51185,5.70244 -1.42076,9.17372 -3.03492,11.59096 -4.75215,7.11638 -38.66885,29.83414 -46.2129,30.95388 -5.04811,0.74927 -14.13754,-6.49328 -37.77628,-30.10056 C 268.61027,99.090253 262.62769,91.592171 254.5831,75.868105 244.19739,55.568084 239.81063,38.661677 240.40712,21.234535 c 0.47587,-13.9030661 1.95233,-17.0284863 8.03253,-17.0035048 7.1007,0.029174 8.1889,2.0362886 9.76336,18.0079928 1.5496,15.719408 3.72155,26.965094 5.8292,30.181783 2.15667,3.291482 11.73022,7.637813 26.96524,12.242041 39.45371,11.92344 74.76616,13.30617 110.20867,4.315439 16.73542,-4.245287 36.51398,-10.808287 40.26959,-13.362411 4.60262,-3.130162 5.81525,-6.907467 8.49348,-26.456951 2.42598,-17.708323 4.83786,-24.5386212 9.03709,-25.5925606 7.3285,-1.8393357 10.80478,10.4863596 8.83362,31.3210226 -3.14927,33.286956 -25.42249,67.255034 -66.37118,101.220214 -15.27806,12.6725 -28.85197,22.73143 -53.05751,39.31822 -40.22512,27.56418 -63.56805,48.81229 -74.78852,68.07693 -1.54864,2.65888 -2.81571,5.6103 -2.81571,6.55871 0,2.35601 4.04203,4.25643 15.82383,7.43984 39.01619,10.54206 72.23511,12.19093 109.04243,5.41248 17.06161,-3.14206 37.10448,-7.74508 39.77807,-9.13535 3.34908,-1.74154 2.12838,-6.2737 -4.2104,-15.63211 -11.34797,-16.75385 -35.012,-39.11807 -56.86995,-53.74618 -4.76168,-3.18669 -8.67363,-6.14664 -8.69322,-6.57766 -0.0554,-1.21908 8.49221,-7.1037 11.3661,-7.825 9.94285,-2.4955 31.76839,13.54888 54.71276,40.22039 17.56857,20.42246 28.70168,39.29311 32.92583,55.80936 2.61881,10.23948 2.84279,28.43435 0.47393,38.49891 -3.86451,16.41907 -17.42062,38.49378 -34.98807,56.97442 -17.55341,18.46585 -35.30697,32.8444 -75.32127,61.00243 -28.61703,20.13779 -47.17204,34.96062 -61.84481,49.40528 -13.22016,13.01463 -17.98033,19.25032 -17.98033,23.55373 0,3.74665 1.98556,4.6857 20.91361,9.8908 25.5236,7.01885 37.11822,8.86435 55.6915,8.86435 18.9606,0 28.3948,-1.32811 52.55483,-7.39846 20.66917,-5.19326 28.26354,-8.17741 28.70484,-11.27933 0.53172,-3.73748 -5.39628,-11.31244 -20.84186,-26.63232 -12.79232,-12.68823 -19.36828,-18.432 -40.00249,-34.94028 -3.14471,-2.5159 -5.75267,-5.03093 -5.79548,-5.58896 -0.12522,-1.63197 11.1186,-8.99578 13.73567,-8.99578 5.02415,0 34.03588,24.52699 49.51808,41.86339 16.27867,18.22824 28.54654,40.03043 33.75715,59.99248 3.67137,14.06514 4.12714,33.76752 0.90755,39.23186 -6.52137,11.06815 -11.84307,5.21268 -14.74274,-16.22147 -0.94083,-6.95458 -2.43274,-15.84537 -3.31535,-19.75732 -1.49017,-6.60494 -1.80553,-7.11254 -4.418,-7.11128 -3.77249,0.002 -21.31744,4.29664 -41.27419,10.10344 -21.65059,6.29966 -21.07521,5.68661 -22.25041,23.70784 -0.50243,7.70463 -1.41537,14.51035 -2.02877,15.12383 -1.74418,1.74443 -24.95862,1.87296 -30.21305,0.16728 z M 328.53621,114.3752 c 0.35695,-13.67794 -0.61394,-16.742942 -6.20759,-19.596609 -3.30315,-1.685139 -34.31499,-10.457416 -37.03294,-10.475453 -4.34001,-0.0288 8.00355,15.531902 22.98222,28.972162 11.65183,10.4551 15.44334,13.19566 17.84958,12.90194 1.94246,-0.23712 2.13103,-1.16106 2.40873,-11.80204 z"
       id="path184"
       transform="translate(157.66493,131.53249)"
       sodipodi:nodetypes="sssssssscsssssssscsssssscsscsssssssssssssssssssssssssssssssssssssssssssssssssssssssssscssssssssss" />
    <path
       style="fill:#ffffff;stroke-width:1.05372"
       d="m 345.0945,254.59725 c -9.49159,-4.48716 -14.2442,-11.83383 -14.20212,-21.9539 0.0873,-20.99388 24.59355,-31.62419 39.61852,-17.18568 10.40495,9.99882 9.66246,25.8786 -1.66329,35.57302 -7.49506,6.4155 -15.26042,7.58148 -23.75311,3.56656 z"
       id="path186"
       transform="translate(157.66493,131.53249)"
       sodipodi:nodetypes="sssss" />
    <path
       style="fill:#ffffff;stroke-width:1.05372"
       d="m 344.56764,62.665895 c -9.34081,-4.207378 -15.18127,-13.313267 -15.24002,-23.760752 -0.0333,-5.915615 0.42855,-7.688029 3.15006,-12.089966 8.57749,-13.873771 27.43036,-16.221171 38.5021,-4.793957 14.96147,15.441829 5.34958,40.467208 -16.08199,41.870855 -4.58963,0.300593 -7.78176,-0.07831 -10.33015,-1.22618 z"
       id="path188"
       transform="translate(157.66493,131.53249)"
       sodipodi:nodetypes="ssssss" />
    <path
       style="fill:#ffffff;stroke-width:1.05372"
       d="m 348.91241,503.72307 c -17.44904,-4.34168 -22.95821,-27.7638 -9.34232,-39.71871 11.0369,-9.69052 26.62975,-6.44716 33.71152,7.0121 3.85986,7.33584 3.85986,13.52818 0,21.14185 -4.60658,9.08661 -14.83004,13.9383 -24.3692,11.56476 z"
       id="path190"
       transform="translate(157.66493,131.53249)"
       sodipodi:nodetypes="sssss" />
    <path
       style="fill:#ffffff;stroke-width:1.05372"
       d="m 380.08616,728.51746 c -0.4101,-0.4101 -0.74564,-18.70052 -0.74564,-40.64536 0,-32.45818 -0.28476,-40.58126 -1.52681,-43.55392 l -1.52682,-3.65419 -12.43502,-0.0161 c -6.83926,-0.009 -13.00755,-0.38001 -13.7073,-0.82475 -0.69976,-0.44473 -1.41102,-2.8945 -1.58059,-5.44392 l -0.30831,-4.63531 4.74176,-1.5882 c 6.89653,-2.30991 60.54315,-2.34591 67.43832,-0.0453 4.54614,1.51687 4.74175,1.75282 4.74175,5.71958 0,5.78275 -2.46442,6.79905 -16.53396,6.81845 -7.84529,0.0108 -11.52142,0.41541 -12.10886,1.33269 -0.46393,0.72443 -1.08463,20.52127 -1.37934,43.99296 l -0.53582,42.67581 -6.89386,0.30659 c -3.79162,0.16862 -7.2294,-0.029 -7.6395,-0.43905 z"
       id="path192"
       transform="translate(157.66493,131.53249)"
       sodipodi:nodetypes="sssccsscsssssscsss" />
    <path
       style="fill:#ffffff;stroke-width:1.05372"
       d="m 4.4783256,728.47892 c -2.0975687,-0.84638 -1.8942214,-96.00564 0.2115805,-99.01209 1.2870491,-1.83752 3.022592,-2.27936 10.9778219,-2.79476 12.649854,-0.81955 35.880341,0.87946 39.771526,2.90877 1.673326,0.87266 3.63513,1.58958 4.359565,1.59315 0.724435,0.004 2.183184,0.87252 3.241666,1.931 1.058481,1.05848 2.681057,2.21483 3.605723,2.56966 0.924667,0.35482 2.913955,2.74865 4.42064,5.31962 6.058408,10.33789 4.427755,30.62919 -3.175237,39.51157 -3.649662,4.26381 -13.494569,10.21367 -15.178235,9.17311 -0.514412,-0.31792 -1.233132,-0.0961 -1.597155,0.49287 -0.364023,0.589 -3.834561,1.09526 -7.712307,1.12502 -3.877746,0.0298 -10.318612,0.41699 -14.313035,0.8605 -10.49123,1.16489 -11.177577,2.27246 -11.177577,18.03744 0,6.81793 -0.296359,13.87803 -0.658577,15.68912 -0.637709,3.18854 -0.829696,3.29025 -6.058911,3.20969 -2.9701836,-0.0457 -5.9930534,-0.32235 -6.7174884,-0.61467 z M 49.248588,675.29077 c 7.27466,-3.60924 9.759938,-7.91524 9.759938,-16.9101 0,-6.93622 -0.176772,-7.45024 -3.951464,-11.49015 -4.849256,-5.18998 -8.566829,-6.16769 -23.579759,-6.20139 -8.868708,-0.0199 -11.481532,0.31589 -12.558903,1.61404 -1.934851,2.33135 -2.572547,17.11633 -1.017784,23.59731 0.842609,3.51239 2.556955,6.75188 4.872268,9.20683 l 3.572232,3.78767 8.944169,-0.55801 c 6.433911,-0.40139 10.35171,-1.25634 13.959303,-3.0462 z"
       id="path194"
       transform="translate(157.66493,131.53249)"
       sodipodi:nodetypes="sssscssssssssssssssssssscss" />
    <path
       style="fill:#ffffff;stroke-width:1.05372"
       d="m 442.88956,729.96708 c -0.46886,-0.72444 -0.98523,-21.9438 -1.14749,-47.15414 l -0.29501,-45.83698 2.40246,-4.74176 2.40246,-4.74175 20.02075,-0.29327 c 11.01141,-0.1613 20.9691,0.15202 22.12819,0.69628 1.1591,0.54426 4.394,1.86167 7.18868,2.92758 7.05667,2.69148 12.81626,8.24971 14.56505,14.05585 0.7855,2.60797 1.40015,9.00934 1.36588,14.22527 -0.081,12.32656 -2.48425,16.97962 -12.15942,23.54251 -3.70991,2.51652 -6.86492,5.12448 -7.01114,5.79548 -0.14622,0.671 2.11636,5.0134 5.02795,9.64978 2.91159,4.63639 6.11337,9.77975 7.11505,11.4297 1.00169,1.64995 3.2705,4.96918 5.04179,7.37607 1.7713,2.40688 4.2994,6.15431 5.61799,8.32762 l 2.39746,3.95146 -8.2523,-0.0335 c -9.56822,-0.0389 -10.54516,-0.57915 -15.36395,-8.49702 -5.29026,-8.69254 -16.10045,-24.37296 -18.64111,-27.03933 -6.43364,-6.75197 -11.74825,-7.02639 -14.37395,-0.7422 -0.83981,2.00994 -1.93726,8.75006 -2.43878,14.97806 -0.90177,11.1983 -2.80216,17.90452 -6.1093,21.55887 -1.96472,2.17098 -8.2014,2.54292 -9.48126,0.56543 z m 42.45381,-56.68781 c 8.54796,-4.138 13.36051,-12.35561 11.52315,-19.67622 -1.8011,-7.17615 -13.81517,-14.00802 -24.61594,-13.99799 -4.7373,0.004 -6.07289,0.465 -8.55994,2.95204 -6.25152,6.25152 -7.53325,30.44851 -1.74667,32.97414 3.69801,1.61405 18.32027,0.20679 23.3994,-2.25197 z"
       id="path196"
       transform="translate(157.66493,131.53249)"
       sodipodi:nodetypes="sscccssssssssssscsssssssssscsss" />
    <path
       style="fill:#ffffff;stroke-width:1.05372"
       d="m 706.52172,730.61289 c -1.15909,-0.27818 -2.81871,-0.78672 -3.68803,-1.1301 -0.86932,-0.34337 -2.2538,-0.75964 -3.07663,-0.92504 -0.82282,-0.1654 -3.06573,-1.87194 -4.98425,-3.79231 -4.49294,-4.49729 -5.60203,-10.22699 -5.75189,-29.71507 -0.0629,-8.17945 -0.41853,-17.71679 -0.79029,-21.19408 -0.66935,-6.26082 -0.71182,-6.32747 -4.36397,-6.8492 -3.42922,-0.48989 -3.72982,-0.84001 -4.2836,-4.98917 -0.69902,-5.2374 0.31565,-6.60179 4.90964,-6.60179 h 3.36571 l 0.37901,-8.34599 c 0.20846,-4.59029 0.66854,-8.63551 1.0224,-8.98937 0.35387,-0.35387 2.96003,-0.90519 5.79148,-1.22517 7.54223,-0.85234 8.96478,0.62026 9.63396,9.97289 0.29856,4.17279 1.07099,7.9306 1.71651,8.35069 0.64552,0.4201 4.49291,0.76381 8.54974,0.76381 h 7.37607 l 0.33179,4.63732 c 0.40198,5.61847 -0.55615,6.38901 -7.97129,6.41064 -4.17851,0.0122 -6.0668,0.55089 -7.71765,2.20174 -2.08901,2.08901 -2.1705,3.10409 -1.84401,22.9685 0.29793,18.12735 0.59207,21.16472 2.30195,23.77113 1.92374,2.9324 2.096,2.97562 9.22008,2.31351 l 7.25971,-0.67472 v 5.20497 c 0,5.44287 -0.87267,6.34857 -6.8492,7.10836 -1.1591,0.14736 -3.52997,0.48533 -5.26862,0.75107 -1.73864,0.26573 -4.10952,0.25555 -5.26862,-0.0226 z"
       id="path198"
       transform="translate(157.66493,131.53249)"
       sodipodi:nodetypes="ssssssssscsssssscsssssscsssss" />
    <path
       style="fill:#ffffff;stroke-width:1.05372"
       d="m 92.282368,726.8059 c -1.686804,-8.23787 -0.902896,-60.90943 1.020571,-68.57313 0.640077,-2.55027 1.169475,-2.81512 5.597888,-2.80051 6.448543,0.0213 7.767943,1.02543 8.496243,6.46625 0.81474,6.08654 3.16504,6.43329 6.26155,0.9238 3.34188,-5.94608 10.46701,-9.03285 19.78557,-8.57156 1.79306,0.0888 2.34974,0.91803 2.71468,4.04404 0.2525,2.16282 0.16665,5.3635 -0.19078,7.11264 -0.62572,3.06213 -0.87112,3.1859 -6.60776,3.33252 -10.25825,0.26219 -18.10426,6.31601 -20.8099,16.05649 -0.58237,2.09659 -1.06151,12.19473 -1.06474,22.44031 -0.007,21.79361 -0.0671,21.94003 -9.017717,21.94003 -5.06493,0 -5.754238,-0.2642 -6.185605,-2.37088 z"
       id="path200"
       transform="translate(157.66493,131.53249)"
       sodipodi:nodetypes="sssssssssssss" />
    <path
       style="fill:#241c1c;stroke-width:1.05372"
       d=""
       id="path202"
       transform="translate(157.66493,131.53249)" />
    <path
       style="fill:#ffffff;stroke-width:1.05372"
       d="m 179.13302,730.57153 c -1.44887,-0.2444 -3.34557,-0.72944 -4.21489,-1.07786 -0.86932,-0.34842 -2.43564,-0.80022 -3.4807,-1.004 -6.27371,-1.22333 -16.55641,-10.08867 -19.68846,-16.97463 -1.24916,-2.74632 -2.7608,-5.8958 -3.35922,-6.99884 -0.59841,-1.10304 -1.06804,-6.84661 -1.04362,-12.76349 0.0413,-10.01396 0.27426,-11.18699 3.36821,-16.9615 6.8504,-12.78548 16.73375,-19.13458 31.34487,-20.13605 15.96216,-1.09407 29.42877,5.70643 36.29999,18.33112 3.71074,6.81786 4.52801,10.73821 4.38094,21.0149 -0.0966,6.74778 -0.68069,9.75141 -2.76643,14.22527 -5.45798,11.7072 -15.93437,19.80102 -27.66914,21.37652 -2.89774,0.38904 -6.45406,0.86611 -7.90293,1.06014 -1.44887,0.19403 -3.81975,0.15282 -5.26862,-0.0916 z m 15.93203,-15.69571 c 9.49544,-4.78877 13.18188,-11.99031 12.19057,-23.81459 -1.89324,-22.58257 -22.8035,-32.61679 -37.27566,-17.88749 -5.19348,5.28576 -7.6556,11.09905 -7.68337,18.14117 -0.0346,8.76232 2.39501,15.63416 7.17922,20.30582 7.54105,7.36363 15.44816,8.36946 25.58924,3.25509 z"
       id="path204"
       transform="translate(157.66493,131.53249)"
       sodipodi:nodetypes="sssssssssssssssssssss" />
    <path
       style="fill:#ffffff;stroke-width:1.05372"
       d="m 244.75161,726.32539 c -1.7205,-2.62582 -1.86781,-6.68974 -1.86202,-51.36903 0.005,-35.86357 0.34137,-49.27341 1.29107,-51.41538 1.17705,-2.65472 1.77133,-2.89774 7.08628,-2.89774 5.28947,0 5.85909,0.22953 6.45422,2.60072 0.35901,1.43039 0.2495,25.06683 -0.24335,52.52542 -0.98236,54.73071 -0.80091,53.4074 -7.32317,53.4074 -2.67936,0 -3.98682,-0.69 -5.40303,-2.85139 z"
       id="path206"
       transform="translate(157.66493,131.53249)"
       sodipodi:nodetypes="scssssss" />
    <path
       style="fill:#ffffff;stroke-width:1.05372"
       d="m 312.78169,730.75874 c -0.32559,-0.32558 -1.96065,-0.80094 -3.63347,-1.05634 -5.79877,-0.88536 -10.4395,-2.3491 -14.89213,-4.69718 -5.27589,-2.78222 -13.96559,-12.0592 -13.96559,-14.90943 0,-1.09641 -0.40939,-1.99348 -0.90974,-1.99348 -0.50036,0 -1.50715,-2.81514 -2.23732,-6.25586 -2.85895,-13.47199 1.68468,-29.2554 10.85532,-37.7086 4.80129,-4.42568 11.24593,-8.37238 11.2749,-6.90477 0.009,0.44955 0.43708,0.15248 0.95158,-0.66015 1.4416,-2.27695 20.089,-1.95795 27.39963,0.46873 11.44952,3.80052 18.0327,13.80986 18.84015,28.64534 0.46908,8.61851 0.45518,8.67587 -2.36194,9.74694 -1.56219,0.59394 -12.61444,1.12454 -24.62997,1.18244 -11.9879,0.0578 -22.98161,0.44416 -24.43048,0.85863 -2.20978,0.63214 -2.61658,1.3609 -2.52429,4.52204 0.37511,12.84834 21.67375,20.61083 39.90515,14.54381 7.86852,-2.61848 8.74214,-2.30939 9.67222,3.42205 0.582,3.58644 0.39293,3.88791 -3.77043,6.0119 -2.41074,1.22987 -6.85272,2.65557 -9.87107,3.16822 -9.92884,1.68638 -15.07167,2.21657 -15.67252,1.61571 z m 16.77629,-45.90647 c 4.01557,-1.39984 4.33719,-3.48407 1.42001,-9.20221 -2.38025,-4.66568 -8.23786,-8.24083 -15.87498,-9.68918 -6.97761,-1.32328 -10.64111,0.13855 -16.60007,6.62385 -6.95766,7.57222 -7.39875,12.84712 -1.14985,13.75087 5.7966,0.83833 28.55146,-0.20974 32.20489,-1.48333 z"
       id="path208"
       transform="translate(157.66493,131.53249)"
       sodipodi:nodetypes="ssssssssssssssssssssssssss" />
    <path
       style="fill:#ffffff;stroke-width:1.05372"
       d="m 546.88259,730.04658 c -6.42578,-1.14668 -12.66528,-5.71186 -15.60989,-11.42113 -1.96447,-3.80886 -2.36482,-5.99996 -2.06001,-11.27424 0.76121,-13.17141 9.69162,-18.93879 31.71337,-20.4809 6.85459,-0.48 12.90033,-1.14308 13.43498,-1.47351 1.67201,-1.03336 1.06348,-7.75729 -1.0828,-11.96435 -2.97882,-5.83896 -7.87621,-7.875 -17.34103,-7.20937 -5.00248,0.35182 -9.39052,1.43482 -13.26952,3.27504 l -5.79548,2.74941 -0.92284,-4.82927 c -0.79287,-4.14907 -0.63061,-5.12153 1.15199,-6.90412 1.14116,-1.14116 2.74188,-2.20802 3.55715,-2.37079 0.81528,-0.16277 2.90485,-0.95587 4.64349,-1.76243 2.08941,-0.96928 7.09097,-1.47074 14.75213,-1.47906 13.82886,-0.015 19.08973,1.97389 25.31444,9.57032 4.91625,5.99964 5.6888,11.31221 5.73593,39.44421 0.0399,23.78164 -0.38838,25.26039 -7.31515,25.26039 -5.55942,0 -7.39963,-0.87744 -7.41864,-3.53734 -0.0248,-3.46403 -1.74951,-5.62328 -3.48712,-4.36558 -11.06326,8.00769 -17.71378,10.25157 -26.001,8.77272 z m 19.50807,-12.09903 c 5.97237,-2.45427 8.32057,-6.83919 8.37588,-15.64072 l 0.0397,-6.32234 -9.21863,-0.30444 c -15.10838,-0.49893 -20.10944,2.00474 -21.53351,10.78031 -0.5865,3.61415 3.08624,13.82063 4.64756,12.9155 0.44837,-0.25993 1.76357,-0.067 2.92266,0.42875 2.9059,1.24284 9.12662,0.4605 14.76632,-1.85706 z"
       id="path210"
       transform="translate(157.66493,131.53249)"
       sodipodi:nodetypes="sssssssscssssssssssssscssssss" />
    <path
       style="fill:#ffffff;stroke-width:1.05372"
       d="m 640.92625,730.20964 c -1.30463,-0.5312 -3.08279,-0.69308 -3.95146,-0.35974 -0.86868,0.33334 -1.57941,0.14045 -1.57941,-0.42866 0,-0.56911 -1.17011,-1.03475 -2.60023,-1.03475 -5.52548,0 -22.67976,-14.30193 -22.69563,-18.92188 -0.004,-1.03904 -0.71484,-3.24735 -1.58059,-4.90735 -2.1499,-4.12225 -2.01502,-16.1018 0.26992,-23.97287 1.90637,-6.56698 9.17629,-16.57417 14.14991,-19.47762 8.20686,-4.79093 12.29404,-6.08226 20.69803,-6.53948 10.54518,-0.57372 21.859,1.96204 22.86262,5.12418 0.54102,1.70461 -1.36073,10.47679 -2.2713,10.47679 -0.18587,0 -3.44588,-1.02027 -7.24446,-2.26725 -6.26446,-2.05648 -7.46118,-2.14313 -12.87277,-0.93207 -5.03384,1.12653 -6.89316,2.26307 -11.89729,7.27244 -11.99221,12.00478 -12.73473,28.12291 -1.74024,37.7762 6.81492,5.98357 19.86257,8.33262 27.81865,5.00836 4.89791,-2.04648 6.14745,-1.52754 8.21041,3.40983 1.59661,3.82122 1.57367,4.07286 -0.52648,5.77345 -3.57395,2.89402 -20.95124,5.66916 -25.04968,4.00042 z"
       id="path212"
       transform="translate(157.66493,131.53249)"
       sodipodi:nodetypes="sssscssssssssssssss" />
  </g>
</svg>
