<svg width="362" height="101" viewBox="0 0 362 101" fill="none" xmlns="http://www.w3.org/2000/svg">
<path d="M121.892 66.396L111.903 31.4869H119.966L125.744 55.7426H126.034L132.409 31.4869H139.312L145.67 55.7938H145.977L151.756 31.4869H159.818L149.83 66.396H142.636L135.989 43.5722H135.716L129.085 66.396H121.892ZM172.751 66.9074C170.058 66.9074 167.74 66.3619 165.797 65.271C163.865 64.1688 162.376 62.6119 161.331 60.6006C160.286 58.5778 159.763 56.1858 159.763 53.4244C159.763 50.7313 160.286 48.3676 161.331 46.3335C162.376 44.2994 163.848 42.7142 165.746 41.5778C167.655 40.4415 169.893 39.8733 172.462 39.8733C174.189 39.8733 175.797 40.1517 177.286 40.7085C178.786 41.254 180.092 42.0778 181.206 43.1801C182.331 44.2824 183.206 45.6688 183.831 47.3392C184.456 48.9983 184.768 50.9415 184.768 53.1688V55.1631H162.661V50.6631H177.933C177.933 49.6176 177.706 48.6915 177.251 47.8847C176.797 47.0778 176.166 46.4472 175.359 45.9926C174.564 45.5267 173.638 45.2938 172.581 45.2938C171.479 45.2938 170.501 45.5494 169.649 46.0608C168.808 46.5608 168.149 47.2369 167.672 48.0892C167.195 48.9301 166.95 49.8676 166.939 50.9017V55.1801C166.939 56.4756 167.178 57.5949 167.655 58.5381C168.143 59.4813 168.831 60.2085 169.717 60.7199C170.604 61.2313 171.655 61.4869 172.871 61.4869C173.678 61.4869 174.416 61.3733 175.087 61.146C175.757 60.9188 176.331 60.5778 176.808 60.1233C177.286 59.6688 177.649 59.1119 177.899 58.4528L184.615 58.896C184.274 60.5097 183.575 61.9188 182.518 63.1233C181.473 64.3165 180.121 65.2483 178.462 65.9188C176.814 66.5778 174.911 66.9074 172.751 66.9074ZM189.643 66.396V31.4869H196.905V44.6119H197.126C197.445 43.9074 197.905 43.1915 198.507 42.4642C199.121 41.7256 199.916 41.1119 200.893 40.6233C201.882 40.1233 203.109 39.8733 204.575 39.8733C206.484 39.8733 208.246 40.3733 209.859 41.3733C211.473 42.3619 212.763 43.8563 213.729 45.8563C214.695 47.8449 215.178 50.3392 215.178 53.3392C215.178 56.2597 214.706 58.7256 213.763 60.7369C212.831 62.7369 211.558 64.254 209.945 65.2881C208.342 66.3108 206.547 66.8222 204.558 66.8222C203.149 66.8222 201.95 66.5892 200.962 66.1233C199.984 65.6574 199.183 65.0722 198.558 64.3676C197.933 63.6517 197.456 62.9301 197.126 62.2028H196.803V66.396H189.643ZM196.751 53.3051C196.751 54.8619 196.967 56.2199 197.399 57.379C197.831 58.5381 198.456 59.4415 199.274 60.0892C200.092 60.7256 201.087 61.0438 202.257 61.0438C203.439 61.0438 204.439 60.7199 205.257 60.0722C206.075 59.4131 206.695 58.504 207.115 57.3449C207.547 56.1744 207.763 54.8278 207.763 53.3051C207.763 51.7938 207.553 50.4642 207.132 49.3165C206.712 48.1688 206.092 47.271 205.274 46.6233C204.456 45.9756 203.45 45.6517 202.257 45.6517C201.075 45.6517 200.075 45.9642 199.257 46.5892C198.45 47.2142 197.831 48.1006 197.399 49.2483C196.967 50.396 196.751 51.7483 196.751 53.3051ZM233.335 54.2597H239.608L242.761 58.3165L245.864 61.9301L251.71 69.2597H244.824L240.801 64.3165L238.739 61.3847L233.335 54.2597ZM252.239 48.9415C252.239 52.7483 251.517 55.9869 250.074 58.6574C248.642 61.3278 246.688 63.3676 244.21 64.7767C241.744 66.1744 238.972 66.8733 235.892 66.8733C232.79 66.8733 230.006 66.1688 227.54 64.7597C225.074 63.3506 223.125 61.3108 221.693 58.6403C220.261 55.9699 219.545 52.7369 219.545 48.9415C219.545 45.1347 220.261 41.896 221.693 39.2256C223.125 36.5551 225.074 34.521 227.54 33.1233C230.006 31.7142 232.79 31.0097 235.892 31.0097C238.972 31.0097 241.744 31.7142 244.21 33.1233C246.688 34.521 248.642 36.5551 250.074 39.2256C251.517 41.896 252.239 45.1347 252.239 48.9415ZM244.756 48.9415C244.756 46.4756 244.386 44.396 243.648 42.7028C242.92 41.0097 241.892 39.7256 240.562 38.8506C239.233 37.9756 237.676 37.5381 235.892 37.5381C234.108 37.5381 232.551 37.9756 231.222 38.8506C229.892 39.7256 228.858 41.0097 228.119 42.7028C227.392 44.396 227.028 46.4756 227.028 48.9415C227.028 51.4074 227.392 53.4869 228.119 55.1801C228.858 56.8733 229.892 58.1574 231.222 59.0324C232.551 59.9074 234.108 60.3449 235.892 60.3449C237.676 60.3449 239.233 59.9074 240.562 59.0324C241.892 58.1574 242.92 56.8733 243.648 55.1801C244.386 53.4869 244.756 51.4074 244.756 48.9415ZM274.359 55.2483V40.2142H281.621V66.396H274.649V61.6403H274.376C273.786 63.1744 272.803 64.4074 271.428 65.3392C270.064 66.271 268.399 66.7369 266.433 66.7369C264.683 66.7369 263.143 66.3392 261.814 65.5438C260.484 64.7483 259.445 63.6176 258.695 62.1517C257.956 60.6858 257.581 58.9301 257.57 56.8847V40.2142H264.831V55.5892C264.842 57.1347 265.257 58.3563 266.075 59.254C266.893 60.1517 267.99 60.6006 269.365 60.6006C270.24 60.6006 271.058 60.4017 271.82 60.004C272.581 59.5949 273.195 58.9926 273.661 58.1972C274.138 57.4017 274.371 56.4188 274.359 55.2483ZM299.361 66.9074C296.668 66.9074 294.349 66.3619 292.406 65.271C290.474 64.1688 288.986 62.6119 287.94 60.6006C286.895 58.5778 286.372 56.1858 286.372 53.4244C286.372 50.7313 286.895 48.3676 287.94 46.3335C288.986 44.2994 290.457 42.7142 292.355 41.5778C294.264 40.4415 296.503 39.8733 299.071 39.8733C300.798 39.8733 302.406 40.1517 303.895 40.7085C305.395 41.254 306.702 42.0778 307.815 43.1801C308.94 44.2824 309.815 45.6688 310.44 47.3392C311.065 48.9983 311.378 50.9415 311.378 53.1688V55.1631H289.27V50.6631H304.543C304.543 49.6176 304.315 48.6915 303.861 47.8847C303.406 47.0778 302.776 46.4472 301.969 45.9926C301.173 45.5267 300.247 45.2938 299.19 45.2938C298.088 45.2938 297.111 45.5494 296.259 46.0608C295.418 46.5608 294.759 47.2369 294.281 48.0892C293.804 48.9301 293.56 49.8676 293.548 50.9017V55.1801C293.548 56.4756 293.787 57.5949 294.264 58.5381C294.753 59.4813 295.44 60.2085 296.327 60.7199C297.213 61.2313 298.264 61.4869 299.48 61.4869C300.287 61.4869 301.026 61.3733 301.696 61.146C302.366 60.9188 302.94 60.5778 303.418 60.1233C303.895 59.6688 304.259 59.1119 304.509 58.4528L311.224 58.896C310.884 60.5097 310.185 61.9188 309.128 63.1233C308.082 64.3165 306.73 65.2483 305.071 65.9188C303.423 66.5778 301.52 66.9074 299.361 66.9074ZM337.901 47.6801L331.253 48.0892C331.139 47.521 330.895 47.0097 330.52 46.5551C330.145 46.0892 329.651 45.7199 329.037 45.4472C328.435 45.1631 327.713 45.021 326.872 45.021C325.747 45.021 324.798 45.2597 324.026 45.7369C323.253 46.2028 322.866 46.8278 322.866 47.6119C322.866 48.2369 323.116 48.7653 323.616 49.1972C324.116 49.629 324.974 49.9756 326.19 50.2369L330.929 51.1915C333.474 51.7142 335.372 52.5551 336.622 53.7142C337.872 54.8733 338.497 56.396 338.497 58.2824C338.497 59.9983 337.991 61.504 336.98 62.7994C335.98 64.0949 334.605 65.1063 332.855 65.8335C331.116 66.5494 329.111 66.9074 326.838 66.9074C323.372 66.9074 320.611 66.1858 318.554 64.7426C316.509 63.2881 315.31 61.3108 314.957 58.8108L322.099 58.4358C322.315 59.4926 322.838 60.2994 323.668 60.8563C324.497 61.4017 325.56 61.6744 326.855 61.6744C328.128 61.6744 329.151 61.4301 329.923 60.9415C330.707 60.4415 331.105 59.7994 331.116 59.0153C331.105 58.3563 330.827 57.8165 330.281 57.396C329.736 56.9642 328.895 56.6347 327.759 56.4074L323.224 55.504C320.668 54.9926 318.764 54.1063 317.514 52.8449C316.276 51.5835 315.656 49.9756 315.656 48.021C315.656 46.3392 316.111 44.8903 317.02 43.6744C317.94 42.4585 319.23 41.521 320.889 40.8619C322.56 40.2028 324.514 39.8733 326.753 39.8733C330.06 39.8733 332.662 40.5722 334.56 41.9699C336.469 43.3676 337.582 45.271 337.901 47.6801ZM356.996 40.2142V45.6688H341.229V40.2142H356.996ZM344.808 33.9415H352.07V58.3506C352.07 59.021 352.172 59.5438 352.376 59.9188C352.581 60.2824 352.865 60.5381 353.229 60.6858C353.604 60.8335 354.036 60.9074 354.524 60.9074C354.865 60.9074 355.206 60.879 355.547 60.8222C355.888 60.754 356.149 60.7028 356.331 60.6688L357.473 66.0722C357.109 66.1858 356.598 66.3165 355.939 66.4642C355.28 66.6233 354.479 66.7199 353.536 66.754C351.786 66.8222 350.251 66.5892 348.933 66.0551C347.626 65.521 346.609 64.6915 345.882 63.5665C345.155 62.4415 344.797 61.021 344.808 59.3051V33.9415Z" fill="#6287F6"/>
<rect x="4" y="15.396" width="97" height="67" rx="16" stroke="#2F4170" stroke-width="8"/>
<rect x="4" y="15.396" width="97" height="67" rx="16" stroke="#2F4170" stroke-width="8"/>
<path d="M82.1808 83.5296L90.9116 92.062C90.9116 92.062 92.1022 89.8793 93.888 88.8872C95.6739 87.895 98.6503 87.895 98.6503 87.895L87.9352 77.3783L82.1808 83.5296Z" fill="url(#paint0_linear_3_37)"/>
<path d="M4.71464 2.45614L11.5749 31.832C11.6808 32.2854 11.9416 32.6877 12.3123 32.9695L69.8409 76.6912C70.6527 77.3082 71.7988 77.2157 72.5011 76.4764L73.7437 75.1683C74.4709 74.4028 74.4779 73.2039 73.7595 72.4301L28.8035 24.0011L76.6662 69.5478C77.4257 70.2706 78.6144 70.2841 79.3902 69.5789L81.032 68.0864C81.7956 67.3922 81.9056 66.2309 81.286 65.4057L37.3904 6.94209C37.0995 6.5546 36.6778 6.28591 36.2036 6.18595L7.07485 0.0443386C5.64259 -0.257645 4.38176 1.03074 4.71464 2.45614Z" fill="url(#paint1_linear_3_37)"/>
<path d="M105.198 94.2447C105.198 97.642 102.444 100.396 99.0472 100.396C95.6499 100.396 92.8959 97.642 92.8959 94.2447C92.8959 90.8475 95.6499 88.0935 99.0472 88.0935C102.444 88.0935 105.198 90.8475 105.198 94.2447Z" fill="url(#paint2_linear_3_37)"/>
<path d="M71.2878 87.154C70.5093 86.3705 70.5134 85.1041 71.297 84.3256L89.2525 66.4854C90.0361 65.7069 91.3024 65.711 92.0809 66.4945L94.2862 68.7141C95.0647 69.4976 95.0607 70.764 94.2771 71.5425L76.3216 89.3827C75.538 90.1612 74.2717 90.1571 73.4931 89.3736L71.2878 87.154Z" fill="url(#paint3_linear_3_37)"/>
<circle cx="65.513" cy="29.9091" r="3.51304" fill="#6287F6"/>
<circle cx="76.0522" cy="29.9091" r="3.51304" fill="#6287F6"/>
<circle cx="86.5913" cy="29.9091" r="3.51304" fill="#6287F6"/>
<defs>
<linearGradient id="paint0_linear_3_37" x1="54.9296" y1="0" x2="54.9296" y2="100.396" gradientUnits="userSpaceOnUse">
<stop stop-color="#8FE9E9"/>
<stop offset="1" stop-color="#6287F6"/>
</linearGradient>
<linearGradient id="paint1_linear_3_37" x1="54.9296" y1="0" x2="54.9296" y2="100.396" gradientUnits="userSpaceOnUse">
<stop stop-color="#8FE9E9"/>
<stop offset="1" stop-color="#6287F6"/>
</linearGradient>
<linearGradient id="paint2_linear_3_37" x1="54.9296" y1="0" x2="54.9296" y2="100.396" gradientUnits="userSpaceOnUse">
<stop stop-color="#8FE9E9"/>
<stop offset="1" stop-color="#6287F6"/>
</linearGradient>
<linearGradient id="paint3_linear_3_37" x1="54.9296" y1="0" x2="54.9296" y2="100.396" gradientUnits="userSpaceOnUse">
<stop stop-color="#8FE9E9"/>
<stop offset="1" stop-color="#6287F6"/>
</linearGradient>
</defs>
</svg>
