<?xml version="1.0" standalone="no"?>
<!DOCTYPE svg PUBLIC "-//W3C//DTD SVG 20010904//EN"
 "http://www.w3.org/TR/2001/REC-SVG-20010904/DTD/svg10.dtd">
<svg version="1.0" xmlns="http://www.w3.org/2000/svg"
 width="1024.000000pt" height="1024.000000pt" viewBox="0 0 1024.000000 1024.000000"
 preserveAspectRatio="xMidYMid meet">
<metadata>
Created by potrace 1.16, written by Peter Selinger 2001-2019
</metadata>
<g transform="translate(0.000000,1024.000000) scale(0.100000,-0.100000)"
fill="#007ec6" stroke="none">
<path d="M0 8323 c0 -1205 4 -1912 10 -1903 5 8 11 14 12 12 2 -2 16 0 31 4
17 4 24 10 18 14 -7 4 1 7 16 8 45 1 57 6 81 30 13 13 27 20 32 17 6 -4 10 -1
10 5 0 6 5 8 10 5 9 -5 14 7 11 27 0 4 13 5 30 3 25 -3 29 -1 24 14 -5 17 28
41 59 41 7 0 21 8 32 18 11 11 28 18 37 16 14 -2 16 1 7 11 -13 15 -3 24 23
19 11 -1 17 2 14 9 -2 7 3 19 11 27 14 13 15 12 10 -2 -5 -11 -2 -15 10 -14 9
2 18 8 20 14 2 6 11 9 20 6 9 -3 6 2 -8 11 -16 10 -18 14 -6 11 14 -5 17 -2
12 9 -3 9 -2 14 3 11 5 -3 12 1 15 10 3 9 12 14 19 12 6 -3 20 4 30 14 11 12
13 18 5 18 -7 1 -3 6 10 13 12 7 20 16 17 20 -3 4 -2 5 1 2 11 -7 44 15 44 30
0 17 55 57 64 47 4 -4 6 -2 4 3 -3 12 53 77 60 70 8 -8 32 16 26 26 -3 5 2 9
10 9 9 0 16 5 16 10 0 6 6 10 13 9 25 -3 38 1 32 11 -3 5 5 15 19 21 14 7 23
16 20 20 -3 5 1 10 8 10 7 1 18 2 23 4 6 1 15 3 20 4 6 1 3 5 -5 11 -12 7 -11
10 5 16 10 4 27 16 37 26 10 10 25 18 33 18 8 0 15 7 15 16 0 8 4 13 9 10 5
-3 16 5 25 18 8 14 26 26 38 28 13 2 22 8 21 13 0 6 5 16 13 23 12 11 14 10
14 -3 0 -13 5 -11 23 7 21 22 77 49 104 51 7 0 10 4 8 8 -6 9 19 30 42 34 10
2 19 4 21 5 1 2 7 4 12 5 6 1 13 4 18 5 4 1 11 2 15 1 5 -1 6 3 2 9 -3 5 5 14
19 19 13 6 27 20 31 32 4 12 10 18 14 12 10 -14 71 0 71 17 0 5 7 7 15 4 9 -4
15 0 15 7 0 11 3 11 10 -1 7 -12 10 -12 10 -1 0 7 6 11 14 8 9 -4 17 1 21 12
3 10 11 18 18 19 65 6 79 10 85 19 4 7 20 10 34 9 15 -2 25 0 23 5 -3 4 8 10
25 14 17 4 28 11 24 16 -3 5 -1 9 5 9 5 0 11 -6 14 -12 3 -8 9 -3 15 12 8 20
11 21 11 6 1 -15 4 -16 16 -6 9 7 18 10 22 7 3 -4 11 -3 17 2 17 12 48 22 42
12 -3 -4 6 -6 19 -3 15 2 22 9 18 16 -4 6 0 5 9 -2 10 -8 19 -9 22 -3 3 5 22
8 41 7 19 -2 32 1 29 5 -6 10 -4 10 151 14 61 2 111 4 113 5 1 1 5 3 10 4 4 1
13 5 21 10 10 7 13 5 9 -5 -4 -10 2 -14 22 -13 14 0 32 4 38 8 7 4 12 1 12 -8
0 -19 21 -21 38 -4 7 7 12 8 12 2 0 -6 6 -11 13 -11 6 0 23 -3 37 -7 19 -6 21
-5 10 3 -20 14 -6 14 41 0 21 -7 36 -16 33 -20 -3 -5 2 -9 10 -9 8 0 20 8 25
18 8 12 10 13 11 3 0 -8 3 -12 6 -8 7 7 34 -15 29 -23 -2 -3 5 -7 16 -7 12 -1
17 3 13 9 -4 7 -2 8 5 4 9 -6 9 -11 0 -23 -11 -12 -9 -13 13 -8 16 4 37 -1 61
-14 25 -14 37 -17 37 -8 0 9 3 8 9 -2 6 -9 11 -10 15 -2 10 16 55 -20 48 -39
-3 -9 1 -8 10 4 13 17 15 17 21 2 4 -9 15 -16 26 -16 11 0 22 -4 26 -9 3 -6
14 -8 25 -6 11 2 20 -1 20 -6 0 -6 5 -7 10 -4 6 3 10 1 10 -4 0 -6 11 -11 25
-11 15 0 25 -6 25 -15 0 -9 6 -12 15 -9 11 5 13 2 8 -12 -5 -13 -3 -15 7 -9 8
5 17 2 24 -6 6 -8 26 -21 44 -28 24 -10 31 -18 27 -30 -3 -8 -3 -12 1 -8 4 4
16 -1 27 -10 15 -13 19 -14 13 -3 -4 8 -1 7 7 -3 8 -10 19 -16 23 -15 5 2 23
-12 41 -30 18 -19 37 -31 43 -27 6 3 9 3 8 -2 -5 -17 24 -54 38 -49 8 3 12 1
9 -4 -3 -5 5 -19 19 -31 14 -12 23 -27 19 -32 -3 -6 -1 -7 4 -4 6 4 13 0 17
-8 3 -8 13 -15 21 -15 9 0 14 -3 12 -7 -2 -5 12 -24 31 -43 24 -25 33 -29 28
-15 -7 19 -6 18 13 -2 23 -24 28 -38 9 -27 -6 4 -3 -5 8 -19 10 -15 25 -27 32
-27 7 0 10 -6 7 -12 -4 -7 1 -4 10 7 17 20 17 20 10 -3 -5 -18 1 -30 27 -54
18 -17 26 -28 18 -23 -18 10 17 -34 43 -53 9 -7 15 -17 12 -22 -3 -4 2 -11 11
-14 8 -3 12 -10 9 -16 -3 -5 3 -10 15 -10 12 0 19 -4 16 -8 -3 -5 3 -18 14
-29 10 -12 16 -23 13 -26 -9 -10 21 -67 38 -72 16 -5 33 -39 30 -59 -1 -5 6
-6 15 -2 15 6 15 4 -1 -20 -9 -15 -12 -23 -6 -20 6 4 11 0 11 -9 0 -10 5 -13
12 -9 7 4 8 3 4 -5 -4 -6 -2 -18 4 -26 6 -8 9 -18 6 -24 -4 -5 1 -11 10 -13
10 -2 18 -15 20 -33 6 -59 15 -95 24 -95 5 0 6 -12 4 -27 -4 -19 0 -31 12 -40
10 -7 13 -13 7 -13 -6 0 -13 -9 -16 -20 -3 -11 -2 -18 3 -15 12 7 17 -23 15
-92 -1 -40 2 -63 9 -63 7 0 7 -3 -1 -8 -12 -8 -12 -36 0 -48 11 -11 8 -26 -3
-19 -5 3 -3 -10 5 -29 9 -22 11 -37 5 -41 -6 -3 -10 -13 -10 -21 0 -8 3 -13 8
-11 8 6 12 -28 12 -110 1 -29 6 -55 11 -59 8 -4 7 -9 -2 -14 -10 -7 -10 -11 0
-24 8 -9 9 -16 4 -16 -5 0 -10 -7 -10 -15 0 -8 7 -15 16 -15 10 0 12 -3 5 -8
-15 -10 -25 -42 -13 -42 6 0 7 -5 4 -11 -4 -6 -9 -60 -11 -121 -2 -72 -8 -114
-15 -119 -8 -4 -12 -28 -11 -58 0 -28 -3 -49 -8 -46 -4 3 -6 -4 -3 -15 3 -12
0 -20 -8 -20 -7 0 -9 -3 -6 -6 3 -4 2 -15 -4 -25 -7 -13 -6 -19 1 -19 6 0 4
-7 -4 -16 -9 -8 -16 -21 -17 -27 -2 -40 -32 -97 -51 -97 -6 0 -7 -7 -4 -16 3
-8 2 -12 -4 -9 -6 3 -10 -1 -10 -9 0 -9 -5 -16 -10 -16 -6 0 -9 -3 -9 -7 1 -5
1 -17 0 -28 -1 -17 -3 -18 -11 -5 -8 12 -10 10 -10 -8 0 -15 -4 -21 -11 -16
-7 4 -10 1 -7 -7 5 -14 -1 -24 -39 -65 -12 -13 -27 -39 -34 -58 -8 -22 -20
-36 -33 -38 -10 -2 -21 -10 -23 -18 -4 -12 -3 -12 5 -1 6 8 12 9 16 3 3 -6 -2
-13 -12 -16 -9 -3 -35 -42 -57 -88 -113 -236 -375 -535 -580 -663 -47 -29 -27
-12 50 44 166 121 367 351 478 547 219 387 262 893 113 1347 -68 208 -212 449
-356 597 l-82 85 79 -90 c194 -222 306 -431 378 -709 30 -117 31 -136 8 -136
-15 0 -16 2 -3 10 11 7 11 10 2 10 -7 0 -10 5 -7 10 9 15 -4 12 -20 -4 -8 -7
-11 -17 -7 -22 4 -5 -1 -2 -10 5 -18 13 -25 27 -10 17 4 -2 13 4 20 14 11 18
10 19 -11 11 -12 -4 -28 -6 -35 -3 -7 2 -25 -6 -39 -19 -15 -13 -23 -19 -19
-12 3 6 2 14 -4 18 -6 4 -8 10 -6 14 3 4 -6 8 -19 9 -13 1 -27 -3 -31 -9 -4
-7 1 -9 15 -4 15 4 21 2 21 -8 0 -10 -7 -13 -20 -10 -11 3 -26 0 -34 -6 -10
-8 -17 -6 -31 9 -18 20 -18 21 1 14 15 -5 16 -4 4 5 -23 16 -33 13 -27 -9 4
-15 1 -20 -11 -18 -10 2 -16 -3 -14 -10 2 -10 -2 -10 -18 -2 -11 6 -17 16 -14
22 5 8 1 9 -10 5 -10 -4 -22 -7 -27 -7 -5 0 -9 -5 -9 -11 0 -5 6 -7 13 -3 9 6
9 5 0 -8 -7 -8 -12 -17 -10 -19 1 -2 0 -2 -3 -1 -5 4 -6 8 -9 34 0 7 -15 -3
-32 -22 -22 -25 -25 -27 -10 -6 22 30 19 53 -3 26 -6 -8 -21 -21 -33 -27 -19
-11 -24 -10 -32 5 -5 9 -13 13 -17 9 -4 -4 -17 1 -28 10 -14 12 -13 9 4 -10
14 -16 21 -27 15 -26 -5 2 -20 -2 -32 -9 -19 -11 -22 -10 -17 3 3 8 11 12 17
8 5 -3 7 -2 4 4 -7 11 -36 11 -55 -1 -6 -4 -17 -4 -22 -1 -5 3 -10 1 -10 -5 0
-7 -9 -9 -22 -5 -23 7 -23 7 -3 -8 12 -10 22 -12 26 -5 4 6 8 4 12 -4 6 -17
-22 -20 -40 -5 -9 7 -13 5 -13 -6 0 -9 -4 -19 -10 -22 -6 -4 -7 2 -2 17 5 13
8 30 7 38 -1 8 -3 24 -3 36 -1 11 -8 21 -16 21 -15 0 -16 -14 -2 -36 6 -9 3
-17 -10 -24 -10 -6 -20 -9 -22 -6 -1 2 -7 -3 -13 -11 -9 -13 -10 -13 -6 0 2 8
9 14 14 13 6 -1 10 10 10 25 0 15 7 56 15 92 13 54 16 60 20 35 2 -16 4 52 3
152 0 107 -4 186 -10 192 -7 7 -10 -46 -10 -157 0 -144 -3 -178 -23 -245 -25
-89 -69 -180 -118 -250 -40 -55 -43 -68 -12 -41 l23 19 -19 -22 c-10 -13 -22
-21 -26 -18 -4 2 -24 -14 -46 -36 -115 -120 -319 -219 -495 -242 l-47 -6 82
82 c121 121 178 225 210 380 24 113 19 357 -7 357 -9 0 -5 -51 10 -107 4 -18
1 -23 -13 -23 -14 0 -15 -3 -6 -8 9 -6 10 -15 3 -33 -5 -13 -10 -19 -10 -14
-1 6 -11 62 -22 125 -12 63 -22 127 -23 142 0 14 -4 24 -8 22 -3 -2 -12 13
-19 33 -55 170 -269 473 -334 473 -18 0 -125 -104 -172 -165 -109 -144 -202
-372 -219 -537 -5 -53 -10 -65 -22 -61 -12 5 -14 20 -9 80 7 87 5 89 -101 157
-82 53 -122 71 -232 102 -163 46 -165 43 -164 -181 1 -165 1 -165 58 -330 5
-13 2 -12 -8 5 -8 14 -16 21 -16 15 0 -5 -4 -3 -10 5 -6 9 -5 17 3 23 7 5 0 7
-18 5 -16 -2 -34 -7 -38 -13 -5 -6 -7 -3 -3 7 3 10 0 20 -6 24 -7 5 -8 2 -3
-6 6 -10 4 -12 -9 -7 -10 4 -21 7 -24 7 -4 0 -1 4 6 9 11 7 11 9 -2 14 -9 4
-15 3 -15 -1 4 -25 -4 -40 -26 -50 -18 -9 -26 -8 -31 1 -4 7 -4 9 1 5 9 -9 45
29 44 46 0 6 -3 6 -6 -2 -2 -6 -10 -9 -15 -6 -7 4 -8 2 -4 -4 5 -8 0 -12 -13
-12 -11 0 -24 6 -28 14 -4 7 -19 17 -32 21 -18 5 -22 4 -16 -5 6 -9 4 -11 -5
-5 -10 6 -12 4 -7 -9 4 -11 3 -15 -4 -11 -6 4 -8 13 -5 21 3 7 1 16 -4 19 -6
4 -10 -1 -10 -9 0 -18 -16 -21 -25 -5 -4 6 -19 7 -37 4 -23 -6 -29 -4 -26 6 3
8 12 13 20 11 9 -1 18 5 22 13 3 9 10 14 14 11 5 -3 9 1 9 9 0 8 -4 12 -8 9
-4 -2 -10 2 -13 8 -3 7 -4 4 -3 -7 1 -12 -4 -20 -13 -20 -8 0 -21 -6 -28 -12
-18 -17 -33 -16 -26 0 5 15 -23 44 -33 33 -3 -3 -1 -6 5 -6 7 0 12 -5 12 -11
0 -5 -5 -7 -12 -3 -7 5 -9 2 -6 -7 4 -10 -3 -14 -23 -15 -19 -1 -29 5 -32 18
-4 14 -1 18 9 14 8 -3 14 -1 14 4 0 5 -10 9 -23 8 -14 -1 -23 -9 -23 -19 0
-10 5 -15 10 -12 5 3 6 1 2 -5 -3 -6 -14 -11 -24 -10 -9 0 -27 -3 -40 -6 -13
-3 -20 -1 -17 5 4 5 11 7 16 4 5 -4 9 -1 9 4 0 16 -23 13 -46 -4 -13 -10 -15
-14 -5 -15 8 0 11 -3 8 -7 -4 -3 -17 3 -28 16 -17 19 -23 20 -37 9 -13 -11
-15 -10 -10 8 3 13 0 21 -8 21 -7 0 -11 -4 -8 -8 2 -4 -1 -9 -7 -11 -6 -2 -17
-26 -24 -53 -21 -77 -17 -21 5 79 11 50 25 93 31 97 6 4 9 11 6 16 -8 13 43
146 98 256 96 190 234 358 435 531 l45 38 -50 -38 c-81 -61 -106 -84 -196
-181 -406 -434 -542 -1094 -348 -1683 96 -290 314 -592 562 -779 31 -24 57
-46 57 -48 0 -3 -17 7 -37 23 -170 126 -355 328 -449 489 -21 35 -42 61 -47
58 -6 -3 -7 -1 -3 5 4 6 -7 37 -23 69 -17 32 -31 52 -32 46 -1 -7 -2 -16 -4
-20 -15 -55 -18 -62 -29 -55 -23 14 -56 9 -56 -10 0 -24 -26 -34 -45 -18 -17
14 -39 4 -31 -16 3 -8 0 -11 -9 -8 -8 3 -12 11 -9 18 5 12 -3 15 -48 16 -30 1
-49 -3 -68 -15 -11 -6 -10 -2 3 12 17 19 16 20 -20 18 -21 -1 -44 3 -50 8 -7
5 -26 7 -42 5 -17 -2 -29 -2 -27 1 2 3 -7 17 -21 31 -18 19 -22 20 -17 6 7
-17 5 -17 -25 -2 -17 9 -31 22 -31 28 0 6 9 3 20 -7 11 -10 20 -14 20 -9 0 17
-68 55 -76 42 -4 -6 -3 -8 3 -5 6 4 14 0 17 -8 4 -12 2 -13 -13 -6 -10 6 -22
7 -26 3 -5 -4 -5 2 -2 13 7 20 7 20 -8 1 -13 -17 -15 -18 -15 -3 0 18 -9 21
-34 11 -9 -3 -13 -10 -10 -15 8 -14 -4 -10 -25 8 -11 9 -18 20 -16 23 2 4 -2
7 -9 7 -7 0 -14 -5 -16 -11 -2 -6 -5 -1063 -7 -2349 l-3 -2337 5120 0 5120 0
0 5120 0 5120 -5120 0 -5120 0 0 -1917z m1465 -873 c3 -5 1 -10 -4 -10 -6 0
-11 5 -11 10 0 6 2 10 4 10 3 0 8 -4 11 -10z m883 -997 c195 -209 304 -471
304 -728 -1 -219 -57 -350 -223 -517 -60 -60 -118 -110 -133 -114 -35 -8 -85
26 -191 131 -97 97 -154 199 -186 331 -18 75 -20 110 -17 219 4 119 8 140 45
250 42 123 96 230 165 322 55 76 144 163 164 163 10 0 42 -26 72 -57z m-2201
34 c0 -7 -9 -14 -20 -14 -19 -2 -19 -2 -1 12 11 8 19 15 20 15 0 0 1 -6 1 -13z
m1354 -397 c41 -10 101 -31 134 -45 65 -29 201 -119 208 -139 3 -7 1 -32 -4
-57 -36 -187 29 -441 154 -602 44 -56 130 -139 157 -150 25 -11 -70 3 -158 24
-86 19 -203 69 -264 110 -49 34 -147 126 -190 179 -75 93 -136 229 -158 351
-14 76 -14 303 0 329 13 25 28 25 121 0z m356 -372 c-3 -8 -6 -5 -6 6 -1 11 2
17 5 13 3 -3 4 -12 1 -19z m-1156 -31 c-10 -9 -11 -8 -5 6 3 10 9 15 12 12 3
-3 0 -11 -7 -18z m259 -9 c0 -7 -5 -6 -13 1 -8 6 -18 7 -22 3 -5 -4 -5 -2 -1
5 8 14 36 6 36 -9z m911 -2 c11 7 16 -7 23 -71 6 -48 6 -49 -8 -20 -7 17 -12
38 -10 48 4 26 -14 21 -19 -5 -2 -13 -4 0 -4 27 -1 28 1 42 4 32 2 -9 9 -15
14 -11z m816 -17 c-11 -29 -12 -29 -15 -9 -3 18 10 38 25 40 1 0 -4 -14 -10
-31z m19 -16 c-10 -10 -19 5 -10 18 6 11 8 11 12 0 2 -7 1 -15 -2 -18z m1099
7 c-3 -5 -11 -10 -16 -10 -6 0 -7 5 -4 10 3 6 11 10 16 10 6 0 7 -4 4 -10z
m-2500 -20 c3 -5 2 -10 -4 -10 -5 0 -13 5 -16 10 -3 6 -2 10 4 10 5 0 13 -4
16 -10z m-35 -14 c0 -3 -4 -8 -10 -11 -5 -3 -10 -1 -10 4 0 6 5 11 10 11 6 0
10 -2 10 -4z m2470 0 c0 -3 -4 -8 -10 -11 -5 -3 -10 -1 -10 4 0 6 5 11 10 11
6 0 10 -2 10 -4z m45 -6 c-3 -5 -12 -10 -18 -10 -7 0 -6 4 3 10 19 12 23 12
15 0z m-3128 -22 c-3 -8 -6 -5 -6 6 -1 11 2 17 5 13 3 -3 4 -12 1 -19z m2040
0 c-3 -8 -6 -5 -6 6 -1 11 2 17 5 13 3 -3 4 -12 1 -19z m-817 -23 c1 -11 1
-27 0 -35 -2 -18 -18 26 -19 55 -1 25 17 7 19 -20z m1413 0 c-3 -9 -8 -14 -10
-11 -3 3 -2 9 2 15 9 16 15 13 8 -4z m614 -7 c-3 -8 -6 -5 -6 6 -1 11 2 17 5
13 3 -3 4 -12 1 -19z m-1220 -20 c-3 -7 -5 -2 -5 12 0 14 2 19 5 13 2 -7 2
-19 0 -25z m434 -1 c-10 -9 -11 -8 -5 6 3 10 9 15 12 12 3 -3 0 -11 -7 -18z
m134 3 c3 -6 -1 -7 -9 -4 -18 7 -21 14 -7 14 6 0 13 -4 16 -10z m-165 -64 c0
-2 -8 -10 -17 -17 -16 -13 -17 -12 -4 4 13 16 21 21 21 13z m-1602 -31 c-3 -3
-9 2 -12 12 -6 14 -5 15 5 6 7 -7 10 -15 7 -18z m455 -15 c3 -11 1 -20 -4 -20
-5 0 -9 9 -9 20 0 11 2 20 4 20 2 0 6 -9 9 -20z m-523 -20 c21 0 38 -13 75
-57 88 -108 224 -206 359 -260 34 -13 108 -35 165 -48 57 -13 105 -26 107 -28
6 -6 -70 -33 -141 -51 -364 -91 -712 28 -891 304 -24 38 -44 73 -44 79 0 26
240 75 314 65 16 -2 41 -4 56 -4z m2003 -25 c38 -10 71 -24 74 -32 9 -24 -59
-125 -138 -203 -82 -83 -181 -141 -304 -180 -150 -48 -432 -35 -574 25 -58 24
-56 27 24 40 117 18 311 105 417 185 37 28 95 84 127 123 l60 72 123 -7 c68
-3 154 -14 191 -23z m-1449 -25 c-6 -5 -24 21 -24 34 0 6 6 1 14 -10 8 -10 12
-21 10 -24z m-20 -16 c3 -8 2 -12 -4 -9 -6 3 -10 10 -10 16 0 14 7 11 14 -7z
m1066 -18 c0 -2 -8 -10 -17 -17 -16 -13 -17 -12 -4 4 13 16 21 21 21 13z m-60
-9 c0 -2 -10 -12 -22 -23 l-23 -19 19 23 c18 21 26 27 26 19z m-885 -127 c3
-5 2 -10 -4 -10 -5 0 -13 5 -16 10 -3 6 -2 10 4 10 5 0 13 -4 16 -10z m350
-390 c18 -19 16 -26 -50 -222 -147 -439 -171 -498 -198 -498 -7 0 -4 5 5 10
19 11 32 45 107 269 29 85 50 160 47 168 -4 9 -1 11 5 7 7 -4 10 -1 7 7 -3 8
-11 13 -17 12 -9 -3 -16 37 -13 68 1 3 -9 6 -21 5 -14 -1 -22 -7 -21 -19 1 -9
-2 -14 -7 -11 -8 5 -13 -12 -12 -43 1 -7 -3 -13 -9 -13 -5 0 -6 -5 -2 -11 3
-6 2 -14 -3 -18 -14 -9 -135 -367 -131 -388 2 -9 14 -23 28 -30 14 -7 19 -13
12 -13 -26 0 -52 21 -52 43 0 28 206 644 226 675 19 29 73 30 99 2z m-465 -40
c40 -40 28 -64 -95 -189 -63 -65 -115 -122 -115 -127 0 -5 49 -58 109 -119 60
-60 112 -119 115 -131 8 -25 -26 -64 -56 -64 -14 0 -72 50 -170 147 -114 114
-148 153 -148 173 0 18 16 42 53 78 29 29 56 50 60 47 4 -3 5 -2 2 2 -6 7 99
120 158 170 45 38 60 40 87 13z m791 -87 c60 -58 109 -110 109 -114 0 -4 -6
-9 -12 -12 -7 -2 -4 -3 8 -1 31 5 84 -59 84 -103 0 -22 -288 -313 -310 -313
-30 0 -60 30 -60 59 0 23 23 52 111 142 62 63 103 103 93 89 -11 -14 -58 -65
-106 -115 -67 -68 -88 -96 -88 -117 0 -31 30 -53 59 -43 24 7 291 281 290 297
-1 23 -16 53 -25 51 -5 -2 -9 2 -9 9 0 6 -7 13 -15 15 -11 3 -11 2 -3 -4 19
-14 -1 -36 -25 -29 -15 5 -26 1 -37 -12 -16 -18 -22 -14 -136 102 -65 67 -119
128 -119 137 0 25 39 69 61 69 12 0 65 -43 130 -107z m-443 -71 c6 -18 -15
-14 -22 4 -4 10 -1 14 6 12 6 -2 14 -10 16 -16z m-1628 -52 c0 -5 -2 -10 -4
-10 -3 0 -8 5 -11 10 -3 6 -1 10 4 10 6 0 11 -4 11 -10z m-187 -27 c-3 -7 -6
-13 -8 -13 -2 0 -5 6 -8 13 -3 8 1 14 8 14 7 0 11 -6 8 -14z m917 -630 c0 -7
-61 31 -73 46 -7 8 7 2 31 -14 23 -15 42 -30 42 -32z m1765 17 c-3 -5 -16 -15
-28 -21 -19 -9 -19 -8 3 10 28 23 34 26 25 11z m-1600 -108 c-4 -5 -116 53
-140 72 -11 9 17 -3 62 -27 45 -23 80 -43 78 -45z m1545 73 c0 -2 -10 -9 -22
-15 -22 -11 -22 -10 -4 4 21 17 26 19 26 11z m-70 -40 c0 -6 -76 -45 -87 -45
-4 1 12 12 37 25 50 27 50 27 50 20z m-1274 -112 c-4 -5 -169 56 -180 67 -5 5
35 -8 88 -27 53 -20 94 -38 92 -40z m1144 47 c-8 -5 -19 -10 -25 -10 -5 0 -3
5 5 10 8 5 20 10 25 10 6 0 3 -5 -5 -10z m-80 -30 c-8 -5 -22 -9 -30 -9 -10 0
-8 3 5 9 27 12 43 12 25 0z m-1023 -26 c-3 -3 -12 -4 -19 -1 -8 3 -5 6 6 6 11
1 17 -2 13 -5z m83 -19 c30 -7 44 -13 30 -13 -24 0 -115 25 -95 27 6 0 35 -6
65 -14z m827 9 c-3 -3 -12 -4 -19 -1 -8 3 -5 6 6 6 11 1 17 -2 13 -5z m-57
-14 c-14 -4 -34 -8 -45 -8 -16 0 -15 2 5 8 14 4 34 8 45 8 16 0 15 -2 -5 -8z
m-591 -26 c8 -7 -63 -2 -94 7 -20 5 -9 6 30 2 33 -3 62 -7 64 -9z m508 10 c-3
-3 -12 -4 -19 -1 -8 3 -5 6 6 6 11 1 17 -2 13 -5z m-49 -11 c-10 -2 -26 -2
-35 0 -10 3 -2 5 17 5 19 0 27 -2 18 -5z m-385 -10 c-13 -2 -33 -2 -45 0 -13
2 -3 4 22 4 25 0 35 -2 23 -4z m300 0 c-13 -2 -33 -2 -45 0 -13 2 -3 4 22 4
25 0 35 -2 23 -4z m-150 -10 c-24 -2 -62 -2 -85 0 -24 2 -5 4 42 4 47 0 66 -2
43 -4z M2296 4675 c-3 -8 -4 -15 -2 -15 2 0 9 7 16 15 7 9 8 15 2 15 -5 0 -12
-7 -16 -15z M1793 4540 c-13 -5 -23 -11 -23 -14 0 -7 40 6 46 15 6 10 6 10
-23 -1z M1661 4517 c-13 -21 -12 -21 5 -5 10 10 16 20 13 22 -3 3 -11 -5 -18
-17z M1650 4483 c-26 -5 -40 -19 -40 -41 0 -21 271 -292 299 -299 29 -7 64 28
54 55 -9 24 -184 201 -196 199 -15 -3 -38 45 -31 65 4 12 0 15 -16 11 -11 -3
-20 0 -20 6 0 11 -6 12 -50 4z m37 -25 c-3 -8 -6 -5 -6 6 -1 11 2 17 5 13 3
-3 4 -12 1 -19z M2649 4617 c29 -32 31 -32 31 -10 0 9 -3 13 -7 10 -3 -4 -16
1 -27 10 -15 13 -14 10 3 -10z M2741 4525 c30 -30 55 -55 56 -55 2 0 3 22 3
50 0 35 -4 48 -12 46 -49 -15 -68 -16 -68 -1 0 8 -7 15 -17 15 -10 0 3 -19 38
-55z M1968 6963 c7 -3 16 -2 19 1 4 3 -2 6 -13 5 -11 0 -14 -3 -6 -6z M1415
6760 c-3 -6 1 -7 9 -4 18 7 21 14 7 14 -6 0 -13 -4 -16 -10z M1342 6716 c-46
-33 -53 -43 -14 -20 19 10 38 25 44 32 15 17 8 14 -30 -12z M3320 6631 c19
-17 49 -41 65 -52 25 -18 25 -16 -5 10 -19 17 -48 41 -65 52 -25 18 -25 16 5
-10z M310 6569 c0 -5 5 -7 10 -4 6 3 10 8 10 11 0 2 -4 4 -10 4 -5 0 -10 -5
-10 -11z M3030 6100 c-41 -10 -97 -28 -123 -39 -58 -25 -176 -100 -197 -126
-8 -10 17 3 55 30 114 79 252 134 340 136 16 0 39 4 50 9 38 16 -46 10 -125
-10z M730 5756 c0 -2 7 -6 15 -10 8 -3 15 -1 15 4 0 6 -7 10 -15 10 -8 0 -15
-2 -15 -4z M776 5744 c-3 -8 -2 -12 4 -9 6 3 10 1 10 -5 0 -8 6 -8 20 0 12 6
18 16 13 23 -5 8 -8 8 -11 -1 -2 -7 -8 -12 -13 -12 -6 0 -7 5 -4 10 3 6 2 10
-3 10 -6 0 -13 -7 -16 -16z M845 5750 c-3 -5 -1 -10 4 -10 6 0 11 5 11 10 0 6
-2 10 -4 10 -3 0 -8 -4 -11 -10z M3574 5679 c-10 -16 -14 -39 -7 -39 13 0 30
28 23 39 -6 11 -9 10 -16 0z M1200 5670 c0 -5 5 -10 10 -10 6 0 10 5 10 10 0
6 -4 10 -10 10 -5 0 -10 -4 -10 -10z M3494 5669 c-9 -15 12 -17 30 -4 17 13
17 14 -4 12 -12 -1 -24 -5 -26 -8z M1345 5659 c-4 -6 -4 -13 -1 -16 3 -4 6 -1
6 5 0 6 7 9 15 6 8 -4 15 -1 15 5 0 14 -27 14 -35 0z M3424 5645 c-10 -8 -14
-15 -8 -15 6 0 17 7 24 15 16 19 9 19 -16 0z M349 4589 c14 -5 28 -6 33 -1 4
4 -7 9 -25 9 -30 2 -31 2 -8 -8z M615 4561 c-3 -5 -2 -12 3 -15 5 -3 9 1 9 9
0 17 -3 19 -12 6z"/>
</g>
</svg>
