<svg width="200" height="200" viewBox="0 0 52.92 52.92" xmlns:xlink="http://www.w3.org/1999/xlink" xmlns="http://www.w3.org/2000/svg"><defs><linearGradient id="c"><stop style="stop-color:#00aad4;stop-opacity:1" offset="0"/><stop style="stop-color:#006680;stop-opacity:1" offset="1"/></linearGradient><linearGradient id="b"><stop style="stop-color:#00aad4;stop-opacity:1" offset="0"/><stop style="stop-color:#006680;stop-opacity:1" offset="1"/></linearGradient><linearGradient id="a"><stop style="stop-color:#d5f6ff;stop-opacity:1" offset="0"/><stop style="stop-color:#5df;stop-opacity:1" offset="1"/></linearGradient><linearGradient xlink:href="#a" id="d" x1="6.61" y1="284.3" x2="6.61" y2="296.47" gradientUnits="userSpaceOnUse" gradientTransform="translate(-1.1 -899.71) scale(4.16667)"/><linearGradient xlink:href="#b" id="g" x1="6.61" y1="-2.12" x2="6.61" y2="5.82" gradientUnits="userSpaceOnUse" gradientTransform="translate(-1.1 13.98) scale(4.16667)"/><linearGradient xlink:href="#c" id="e" x1="2.38" y1="289.19" x2="2.38" y2="291.71" gradientUnits="userSpaceOnUse"/><linearGradient gradientTransform="translate(8.47)" xlink:href="#c" id="f" x1="2.38" y1="289.19" x2="2.38" y2="291.71" gradientUnits="userSpaceOnUse"/></defs><g transform="translate(4.374 -232.49) scale(.8347)"><circle style="fill:url(#d);fill-opacity:1;stroke:url(#linearGradient1442);stroke-width:2.20486;stroke-miterlimit:4;stroke-dasharray:none;stroke-opacity:1" cx="26.46" cy="310.23" r="25.36"/><path style="fill:url(#e);fill-opacity:1;stroke:none;stroke-width:.463343;stroke-miterlimit:4;stroke-dasharray:none;stroke-opacity:1" d="m2.38 289.2.31.96H3.7l-.82.59.32.96-.82-.6-.82.6.32-.96-.82-.6h1.01z" transform="translate(-1.1 -899.71) scale(4.16667)"/><path style="fill:url(#f);fill-opacity:1;stroke:none;stroke-width:.463343;stroke-miterlimit:4;stroke-dasharray:none;stroke-opacity:1" d="m10.85 289.2.3.96h1.02l-.82.59.31.96-.81-.6-.82.6.31-.96-.81-.6h1z" transform="translate(-1.1 -899.71) scale(4.16667)"/></g><g style="display:inline"><path style="fill:url(#g);fill-opacity:1;stroke:none;stroke-width:.637908;stroke-miterlimit:4;stroke-dasharray:none;stroke-opacity:1" d="M12.13 5.16c-1.22 0-2.2 1.23-2.2 2.76 0 1.52.98 2.75 2.2 2.75h3.3v22.05h-4.68c-.46 0-.83.43-.83.96v3.59c0 .53.37.96.83.96h31.42c.46 0 .82-.43.82-.96v-3.59c0-.53-.36-.96-.82-.96h-4.69V10.67h3.31c1.22 0 2.2-1.23 2.2-2.75 0-1.53-.98-2.76-2.2-2.76zm8.82 5.51h2.2v5.51h-2.2zm4.4 0h2.21v5.51h-2.2zm4.42 0h2.2v5.51h-2.2zM20.95 21.7h11.02v11.02H20.95Z" transform="translate(4.374 8.347) scale(.8347)"/></g></svg>