<svg width="200" height="200" fill="none" xmlns="http://www.w3.org/2000/svg"><g clip-path="url(#a)" transform="matrix(1.25 0 0 1.25 20 20)"><path fill="url(#b)" style="fill:url(#b)" d="M0 0h128v128H0z"/><path d="M-20 67.92c81.54 10.82 89.06-48.07 97.87-83.38l-79.7-8.06z" fill="url(#c)" style="fill:url(#c)"/><path d="M82.24 56.3c.74-22.96 33.06-37.51 56.25-21.17l37.78 34.15C142.07 112.36 69.26 194 51.66 175.9c-22-22.63-24.62-66.45-1.73-73.54 22.9-7.08 31.68-26.6 32.3-46.07Z" fill="#8f00ff" fill-opacity=".8"/><ellipse cx="50.54" cy="63.37" rx="5.41" ry="5.47" fill="#fff"/><ellipse cx="65.99" cy="63.37" rx="5.41" ry="5.47" fill="#fff"/><ellipse cx="81.43" cy="63.37" rx="5.41" ry="5.47" fill="#fff"/><path fill-rule="evenodd" clip-rule="evenodd" d="M66.1 25.92a43.57 43.57 0 0 0-27.58 10c-7.63 6.41-12.5 15.3-13.37 24.97a35.15 35.15 0 0 0 8.9 26.54c.9 1 1.83 1.96 2.82 2.86a15.67 15.67 0 0 1-4.97 8.04c-.75.61-.59 2.06.37 2.19 4.06.54 10 .19 14.38-3.67a44.23 44.23 0 0 0 41.95-2.4c5.47-3.4 10.02-7.39 13.2-12.56a2.8 2.8 0 0 0-1.22-3.94l-5.71-2.87c-1.5-.75-3.3-.12-4.26 1.24-2.08 2.95-4.97 5.28-8.5 7.48a32 32 0 0 1-20.78 4.47c-7.3-.92-13.73-4.28-18.08-9.19a22.53 22.53 0 0 1-5.8-17.04c.55-6.1 3.65-12.02 8.96-16.48a31.33 31.33 0 0 1 19.81-7.13c7.41-.06 14.4 2.41 19.59 6.74a23.98 23.98 0 0 1 4.97 6.14 3.19 3.19 0 0 0 4.14 1.3l5.7-2.87a2.87 2.87 0 0 0 1.26-3.97c-2.14-3.76-4.93-7.5-8.22-10.25-7.58-6.32-17.43-9.68-27.56-9.6z" fill="#fff"/></g><defs><linearGradient id="b" x1="64" y1="0" x2="64" y2="128" gradientUnits="userSpaceOnUse"><stop stop-color="#6F00C7"/><stop offset="1" stop-color="#8F00FF"/></linearGradient><linearGradient id="c" x1="1.11" y1="-9.31" x2="124.83" y2="44.64" gradientUnits="userSpaceOnUse"><stop stop-color="#8F00FF"/><stop offset="1" stop-color="#8F00FF" stop-opacity="0"/><stop offset="1" stop-color="#8A01F6"/></linearGradient><clipPath id="a"><path fill="#fff" d="M0 0h128v128H0z"/></clipPath></defs></svg>