<svg width="200" height="200" xmlns="http://www.w3.org/2000/svg"><g fill="#d70751"><path d="M112.5 104.5c-2.6 0 .5 1.4 4 2l2.6-2.3c-2.1.5-4.3.5-6.6.3m14.3-3.5c1.6-2.2 2.7-4.6 3.1-7-.3 1.7-1.3 3.2-2.2 4.8-5 3.2-.5-1.8 0-3.7-5.3 6.7-.7 4-1 5.9m5.3-13.7c.4-4.8-1-3.2-1.3-1.4.5.2.9 3.3 1.3 1.4m-29.5-65.2c1.4.2 3 .4 2.8.7 1.6-.3 2-.6-2.8-.7m2.8.7-1 .3 1-.1v-.2"/><path d="M149.4 89.1c.2 4.3-1.2 6.4-2.5 10l-2.3 1.2c-1.9 3.7.2 2.3-1.1 5.2-3 2.6-9 8.2-10.8 8.7-1.4 0 1-1.7 1.2-2.3-3.9 2.7-3.1 4-9.1 5.7l-.2-.4c-14.8 7-35.3-6.8-35-25.6-.2 1.2-.5.9-.8 1.3A23.7 23.7 0 0 1 102 69.6a22.4 22.4 0 0 1 24.9 3.2 22.2 22.2 0 0 0-18.2-8.7c-7.8.1-15.1 5.1-17.6 10.5-4 2.6-4.5 9.8-6.2 11.1-2.4 17.3 4.4 24.8 15.9 33.6 1.8 1.2.5 1.4.7 2.3a31.2 31.2 0 0 1-10.1-7.7c1.5 2.2 3.1 4.4 5.3 6-3.6-1.2-8.4-8.7-9.8-9 6.2 11.1 25.1 19.5 35 15.4-4.6.1-10.4 0-15.6-1.9-2.1-1-5-3.4-4.5-3.8 13.5 5 27.5 3.8 39.2-5.6 3-2.3 6.3-6.3 7.2-6.3-1.4 2.1.2 1-.8 2.9 3-4.8-1.3-2 3-8.3l1.6 2.2c-.6-4 5-8.8 4.4-15 1.3-2 1.4 2 0 6.4 2-4.9.6-5.7 1-9.7.6 1.3 1.3 2.8 1.6 4.2-1.2-4.7 1.3-8 1.9-10.7-.6-.3-2 2-2.2-3.5 0-2.5.7-1.3 1-1.9-.6-.3-1.8-2.1-2.6-5.7.6-.9 1.5 2.2 2.3 2.3-.5-2.9-1.4-5-1.4-7.2-2.2-4.6-.8.6-2.6-2-2.3-7.3 2-1.7 2.3-5 3.5 5.1 5.5 13.1 6.5 16.4-.7-4-1.9-8-3.3-11.7 1.1.5-1.7-8.3 1.4-2.5A52.1 52.1 0 0 0 138 30.7c1.2 1.1 2.8 2.5 2.2 2.8-5-3-4.1-3.3-4.8-4.5-4.1-1.7-4.4.1-7.1 0-7.7-4.1-9.2-3.7-16.3-6.3l.3 1.6c-5.1-1.7-6 .6-11.5 0-.3-.3 1.8-1 3.5-1.2-5 .6-4.7-1-9.5.1 1.2-.8 2.4-1.4 3.7-2-4 .2-9.6 2.3-7.9.4-6.6 2.9-18.2 7-24.8 13.2l-.2-1.4c-3 3.6-13.1 10.8-13.9 15.4l-.8.2c-1.6 2.7-2.6 5.7-3.8 8.4-2 3.5-3 1.3-2.7 1.9-4 8.1-6 15-7.8 20.6 1.3 1.8 0 11 .5 18.4-2 36.5 25.6 71.9 55.8 80 4.4 1.6 11 1.5 16.6 1.7-6.6-1.9-7.5-1-14-3.2-4.5-2.2-5.6-4.7-8.8-7.6l1.3 2.3c-6.5-2.2-3.8-2.8-9-4.4l1.4-1.9c-2.1-.1-5.6-3.5-6.5-5.3h-2.3c-2.7-3.3-4.2-5.8-4.1-7.7l-.7 1.3c-.9-1.4-10.1-12.7-5.3-10-1-.8-2.1-1.4-3.4-3.7l1-1.1c-2.3-3-4.3-6.8-4.1-8 1.2 1.6 2 1.9 3 2.2-6-14.5-6.3-.8-10.7-14.8h1c-.8-1.1-1.2-2.3-1.8-3.4l.4-4c-4.2-5-1.1-20.8-.5-29.4.4-3.5 3.5-7.3 5.8-13.2l-1.4-.2c2.7-4.8 15.6-19.2 21.6-18.4 2.9-3.7-.6 0-1.2-1C77.6 42 79.6 44 84 42.7c4.6-2.7-4 1-1.8-1 8-2 5.7-4.7 16-5.7 1.2.6-2.5 1-3.4 1.8 6.7-3.3 21-2.6 30.4 1.8 10.9 5 23 20 23.6 34.2l.5.1c-.3 5.6.9 12.1-1 18l1.2-2.8"/><path d="m83.6 108.2-.4 1.8c1.8 2.4 3.2 5 5.4 6.8-1.6-3.1-2.8-4.4-5-8.6m4.1-.2c-.9-1-1.4-2.2-2-3.5.5 2.2 1.7 4 2.8 6l-.8-2.5m73-15.8-.5 1c-.7 5-2.2 10-4.6 14.7 2.6-5 4.3-10.3 5-15.7M103 20.8c1.8-.7 4.4-.4 6.3-.8-2.5.2-5 .3-7.4.6l1.1.2M40 54.3c.5 3.8-2.8 5.3.8 2.7 2-4.3-.7-1.2-.7-2.7M35.8 72c.9-2.6 1-4.1 1.3-5.6-2.3 3-1 3.6-1.3 5.6"/></g></svg>