<?xml version="1.0" encoding="UTF-8" standalone="no"?>
<svg
   width="200"
   height="200"
   version="1.1"
   id="svg4"
   sodipodi:docname="deedum.svg"
   inkscape:version="1.4.2 (ebf0e940d0, 2025-05-08)"
   xmlns:inkscape="http://www.inkscape.org/namespaces/inkscape"
   xmlns:sodipodi="http://sodipodi.sourceforge.net/DTD/sodipodi-0.dtd"
   xmlns="http://www.w3.org/2000/svg"
   xmlns:svg="http://www.w3.org/2000/svg">
  <defs
     id="defs4" />
  <sodipodi:namedview
     id="namedview4"
     pagecolor="#ffffff"
     bordercolor="#666666"
     borderopacity="1.0"
     inkscape:showpageshadow="2"
     inkscape:pageopacity="0.0"
     inkscape:pagecheckerboard="0"
     inkscape:deskcolor="#d1d1d1"
     inkscape:zoom="2.89"
     inkscape:cx="100.17301"
     inkscape:cy="100"
     inkscape:window-width="1916"
     inkscape:window-height="1032"
     inkscape:window-x="0"
     inkscape:window-y="22"
     inkscape:window-maximized="1"
     inkscape:current-layer="svg4" />
  <g
     id="g4">
    <rect
       style="display:inline;fill:#ffffff;fill-rule:evenodd;stroke:#000000;stroke-width:0.0405515;stroke-miterlimit:7.9;paint-order:markers stroke fill"
       width="159.95944"
       height="159.95944"
       x="20.020279"
       y="20.020279"
       ry="0"
       rx="0"
       id="rect1" />
    <path
       style="fill:#fecb98"
       d="M73 172zm64.9-8.5v-3.3a233.8 233.8 0 0 1 0 3.3zM56 161.7v-2.5a131.5 131.5 0 0 1 0 2.5zm80-5.2v-.1.3-.2zm-89.6-12.6v-6.3a891.8 891.8 0 0 1 0 6.3zm91.3 6.5v-6h14.1l-7 .1-6.9.1v5.9l-.1 5.8zm15.7-11.7v-3.9a296.7 296.7 0 0 1 0 3.9zm-15.4 4zm-62.6-12.2h2.2-2.2zm5.4 0h1-1zm3-.2v-25 12.5l.1 12.6h9l9.1.1h-9c-7.2 0-9.1 0-9.2-.2zm25.1.2 7-.1v-12.5l.1-12.5v25.1h-14zm-62.5-12.6v-6.2a862.7 862.7 0 0 1 0 6.2zm107 0v-6.2a862.6 862.6 0 0 1 0 6.2zm-107-25.6v-6.2a862.7 862.7 0 0 1 0 6.2Zm37.4 0v-6.2a862.7 862.7 0 0 1 0 6.2Zm32.2 0v-6.2a862.6 862.6 0 0 1 0 6.2Zm37.4 0v-6.2a862.6 862.6 0 0 1 0 6.2Zm-107-22.9v-4.8a497.7 497.7 0 0 1 0 4.8zm37.4 4.8v-4.9H116v9.6-4.8l-.1-4.7H84v4.8l-.1 4.8zm69.6-2.7v-3.9a296.7 296.7 0 0 1 0 3.9zm-8.4-2.2h2.2-2.2zm-29-2.7v-.5 1-.5zm0-7.4-.1-5H95.2L74.3 54h20.9c16.7 0 20.8 0 21 .2v5l-.1 4.8Zm20-11.3V42h-3l-3.1-.1h3c2.4 0 3.1 0 3.2.2v11.6Zm-4-7.8zM67.5 27.9z"
       id="path1" />
    <path
       style="fill:#fecb65"
       d="M136 162.7zm-81.8 0v-5.9h-.8l-.9-.1h.9c.5 0 .8 0 1 .2v5.9l-.1 5.7Zm80-1zm-86.7-5zm9.7 0h2-2zm6.8 0zm13.7 0zm14 0zm13.8 0zm14 0zm14.8-8.1v-7.7h13.9-6.9l-6.9.1v7.7l-.1 7.6zm1.8.9v-3.3a234.1 234.1 0 0 1 0 3.3zm9.6-6.8zm-55-75.2zm54.8 0zM130 53.4v-9.7h4.2v9.8h-2c-1.6.1-2.1 0-2.2-.1zm4.1-4.8v-4.8h-4v9.6h4zm2.4 4.9h.8-.9zm4 0zM130.1 41v-.5 1-.5zm0-7.8v-5.3V33l.1 5.2h4.8l4.7.1h-4.8l-4.9.1Z"
       id="path2" />
    <path
       style="fill:#fe9832"
       d="M58 170.3zm19.7 0zm14 0zm17.5 0zm22.8 0zm7.6-13.8c0-.2 0-.3.1-.1v.3-.2zm-9.5-12.7v-12.7H144h-6.9l-6.9.1V144l-.1 12.6zm12.8 2.5zm8.8-17.7v-1.4a31.6 31.6 0 0 1 0 1.4zM82 99V83.2A5734.2 5734.2 0 0 1 82 99zm69.6-6.4V79.2a4144.4 4144.4 0 0 1 0 13.4zm-71.3 12.5c0-.2 0-.3.1-.1v.3-.2zm69.6 0c0-.2 0-.3.1-.1v.3-.2zM80.4 79.5c0-.2 0-.3.1-.1v.3-.2zm69.6 0c0-.2 0-.3.1-.1v.3-.2zm-10.3-33.6V42a296.7 296.7 0 0 1 0 3.9z"
       id="path3" />
    <path
       style="fill:#fe9800;stroke-width:0.8"
       d="M 20,100 V 20 H 180 V 180 H 20 Z m 111.68,51.6 v -14.4 l 5.6,-0.08 5.52,-0.08 v -32.96 l 0.08,-32.88 h -7.68 v -8.48 h -3.36 v -6 l -0.08,-6.08 H 128 l -3.84,-0.08 V 42.24 H 57.12 v 103.2 h 3.52 v 12.32 h 71.04 z m -69.6,-0.8 v -5.36 h 1.28 v 9.44 h 65.6 V 134.24 H 140 V 73.92 h -4.8 v -1.28 h 6.08 v 19.68 l 0.08,31.44 0.08,11.76 h -11.2 v 20.64 H 62.08 Z m 2.88,-1.36 v -4 h 29.6 l 29.52,-0.08 V 135.2 l 0.08,-10.24 H 135.2 V 75.52 h 3.36 v 57.12 h -5.6 l -5.52,0.08 v 10.4 l -0.08,10.32 H 64.96 Z M 79.52,93.84 V 63.36 H 112.8 V 71.2 H 82.88 v 53.12 h -3.36 z m 4.8,4.64 V 72.64 h 28.48 v 1.28 H 99.2 L 85.68,74 v 25.2 l -0.08,25.12 h -1.28 z m 2.88,1.44 v -24.4 h 25.6 v 48.8 H 87.2 Z m 36.96,-41.04 v -3.84 h 3.2 v 7.68 h -3.2 z m 4.8,-0.8 v -4.64 h -4.8 v -1.28 h 6.08 v 10.56 h -1.28 z"
       id="path4" />
  </g>
</svg>
