<svg width="200" height="200" viewBox="0 0 52.92 52.92" xmlns:xlink="http://www.w3.org/1999/xlink" xmlns="http://www.w3.org/2000/svg"><defs><clipPath clipPathUnits="userSpaceOnUse" id="f"><path style="font-variation-settings:normal;opacity:1;vector-effect:none;fill:green;fill-opacity:1;stroke:#004c00;stroke-width:1;stroke-linecap:butt;stroke-linejoin:miter;stroke-miterlimit:4;stroke-dasharray:none;stroke-dashoffset:0;stroke-opacity:1;-inkscape-stroke:none;stop-color:#000;stop-opacity:1" d="M83.72 46.12c-4.15-5.78-24.6 4.88-18.08 15.73 5.05 8.4 15.89 16.81 22.34 13.27 7.19-3.95 2.46-19.6-4.26-29z"/></clipPath><clipPath clipPathUnits="userSpaceOnUse" id="e"><path style="fill:green;stroke:#004c00;stroke-width:1;stroke-dasharray:none;stroke-opacity:1" d="M18.86 74.55C18.1 79.27 30.4 68 36.17 64.71c0 0 15.46 2.53 19.46-.68 8.4-6.72 14.16-.02 14.16-.02l10-10s-9.75-27.55-33.05-14.74C21.2 53.33 19.91 68 18.86 74.55Z"/></clipPath><clipPath clipPathUnits="userSpaceOnUse" id="g"><path style="font-variation-settings:normal;opacity:1;vector-effect:none;fill:green;fill-opacity:1;stroke:#004c00;stroke-width:1;stroke-linecap:butt;stroke-linejoin:miter;stroke-miterlimit:4;stroke-dasharray:none;stroke-dashoffset:0;stroke-opacity:1;-inkscape-stroke:none;stop-color:#000;stop-opacity:1" d="M39.45 56.25c-10.4 1.5-1.45 15.92-.79 17.8.83 2.37 9 2.2 7-3.07-1.99-5.26-.77-15.52-6.21-14.73zm16.78-3.38c-5.37 1.43-1.01 15.82-.79 17.81.3 2.61 9 2.2 7-3.07-1.99-5.27-.9-16.16-6.21-14.74z"/></clipPath><clipPath clipPathUnits="userSpaceOnUse" id="c"><rect style="font-variation-settings:normal;opacity:1;fill:#9dda75;fill-opacity:1;stroke:#000;stroke-width:2;stroke-linecap:round;stroke-linejoin:round;stroke-miterlimit:4;stroke-dasharray:none;stroke-dashoffset:0;stroke-opacity:1;stop-color:#000;stop-opacity:1" width="24" height="20" x="115" y="70" ry="2"/></clipPath><radialGradient xlink:href="#a" id="b" cx="52.04" cy="47.42" fx="52.04" fy="47.42" r="47.5" gradientUnits="userSpaceOnUse" gradientTransform="matrix(1.59293 .03742 -.03034 1.29157 -29.07 -15.89)"/><linearGradient id="a"><stop style="stop-color:#71c837;stop-opacity:1" offset="0"/><stop style="stop-color:#5ba12c;stop-opacity:1" offset="1"/></linearGradient></defs><g transform="translate(5.3 5.3) scale(.42333)"><rect style="font-variation-settings:normal;opacity:1;fill:url(#b);fill-opacity:1;stroke:#447821;stroke-width:5.26316;stroke-linecap:round;stroke-linejoin:round;stroke-miterlimit:4;stroke-dasharray:none;stroke-dashoffset:0;stroke-opacity:1;stop-color:#000;stop-opacity:1" width="94.74" height="94.74" x="2.63" y="2.63" ry="21.05"/><g transform="rotate(-21.14 126.5 105.33) scale(.74374)"><rect style="font-variation-settings:normal;opacity:1;fill:#9dda75;fill-opacity:1;stroke:#000;stroke-width:2;stroke-linecap:round;stroke-linejoin:round;stroke-miterlimit:4;stroke-dasharray:none;stroke-dashoffset:0;stroke-opacity:1;stop-color:#000;stop-opacity:1" width="24" height="20" x="115" y="70" ry="2"/><path style="font-variation-settings:normal;opacity:1;fill:none;fill-opacity:1;stroke:#000;stroke-width:2;stroke-linecap:round;stroke-linejoin:round;stroke-miterlimit:4;stroke-dasharray:none;stroke-dashoffset:0;stroke-opacity:1;stop-color:#000;stop-opacity:1" d="m115 75 10 7c1 .7 4 .67 5 0l9-6"/><path style="font-variation-settings:normal;opacity:.3;fill:#000;fill-opacity:1;stroke:none;stroke-width:2.68914;stroke-linecap:round;stroke-linejoin:round;stroke-miterlimit:4;stroke-dasharray:none;stroke-dashoffset:0;stroke-opacity:1;stop-color:#000" d="M115.9 69.89s1.03 11.3 1.15 15.74c.04 1.76 1.3 2.3 2.21 2.36 2.87.17 22.28.4 22.28.4l-1.33 3.01-27.48.58z" clip-path="url(#c)"/><path style="font-variation-settings:normal;opacity:.3;fill:#000;fill-opacity:1;stroke:none;stroke-width:2.68914;stroke-linecap:round;stroke-linejoin:round;stroke-miterlimit:4;stroke-dasharray:none;stroke-dashoffset:0;stroke-opacity:1;stop-color:#000;stop-opacity:1" d="m115.34 75.44 10.24 6.95 3.7-.02 9.3-5.47.36 1.3-9.43 5.62c-1.49.9-4.13.21-5.51-.84l-8.73-6.6z"/></g><g transform="translate(4 7.1) scale(.88024)" style="display:inline"><use xlink:href="#d" transform="rotate(57.33 58.08 51.73)"/><path style="fill:green;stroke:#004c00;stroke-width:1;stroke-dasharray:none;stroke-opacity:1" d="M18.86 74.55C18.1 79.27 30.4 68 36.17 64.71c0 0 15.46 2.53 19.46-.68 8.4-6.72 14.16-.02 14.16-.02l10-10s-9.75-27.55-33.05-14.74C21.2 53.33 19.91 68 18.86 74.55Z"/><path style="font-variation-settings:normal;opacity:.3;fill:#000;fill-opacity:1;stroke:none;stroke-width:5.68028;stroke-linecap:round;stroke-linejoin:round;stroke-miterlimit:4;stroke-dasharray:none;stroke-dashoffset:0;stroke-opacity:1;stop-color:#000;stop-opacity:1" d="M67.6 57.87c-13.61-.89-12.16 9.27-36.2 1.28l1.73 3s-4.86 5.6-8.5 7.58c-3.63 1.99-7.8 4.04-7.8 4.04l1.35 6.41L54.16 67.5 67 64.9z" clip-path="url(#e)"/><path style="font-variation-settings:normal;opacity:1;vector-effect:none;fill:none;fill-opacity:1;stroke:#004c00;stroke-width:1;stroke-linecap:round;stroke-linejoin:miter;stroke-miterlimit:4;stroke-dasharray:none;stroke-dashoffset:0;stroke-opacity:1;-inkscape-stroke:none;stop-color:#000;stop-opacity:1" d="M36.17 64.7c-4.82-3.05-4.8-5.8-4.8-5.8"/><path style="fill:none;stroke:#004c00;stroke-width:1;stroke-dasharray:none;stroke-opacity:1" d="M18.86 74.55C18.1 79.27 30.4 68 36.17 64.71c0 0 15.46 2.53 19.46-.68 8.4-6.72 14.16-.02 14.16-.02l10-10s-9.75-27.55-33.05-14.74C21.2 53.33 19.91 68 18.86 74.55Z"/><path style="font-variation-settings:normal;opacity:1;vector-effect:none;fill:green;fill-opacity:1;stroke:#004c00;stroke-width:1;stroke-linecap:butt;stroke-linejoin:miter;stroke-miterlimit:4;stroke-dasharray:none;stroke-dashoffset:0;stroke-opacity:1;-inkscape-stroke:none;stop-color:#000;stop-opacity:1" d="M39.45 56.25c-10.4 1.5-1.45 15.92-.79 17.8.83 2.37 9 2.2 7-3.07-1.99-5.26-.77-15.52-6.21-14.73Zm16.78-3.38c-5.37 1.43-1.01 15.82-.79 17.81.3 2.61 9 2.2 7-3.07-1.99-5.27-.9-16.16-6.21-14.74Z"/><g id="d"><path style="fill:#8a0;stroke:#009100;stroke-width:2;stroke-dasharray:none;stroke-opacity:1" d="M5 70C3.4 53.66 7.73 38.52 20 25c14.54.7 28.4 2.42 35 15-8.15.52-15.2 2.12-18.9 5.62-7.07 1.92-11.7 4.32-14.27 8.93C14.93 55.43 10.27 63.18 5 70Z" transform="translate(4.79 4.01)"/><path style="fill:none;stroke:green;stroke-width:2;stroke-linecap:round;stroke-linejoin:round;stroke-dasharray:none" d="M5 70C3.4 53.66 7.73 38.52 20 25c14.54.7 28.4 2.42 35 15l.56 1.05" transform="translate(4.79 4.01)"/><path style="fill:none;stroke:green;stroke-width:1;stroke-linecap:round;stroke-linejoin:round;stroke-dasharray:none" d="M20 25c-5 20 2.5 30.69 2.5 30.69" transform="translate(4.79 4.01)"/><path style="fill:none;stroke:green;stroke-width:1;stroke-linecap:round;stroke-linejoin:round;stroke-dasharray:none" d="M20 25c0 15 17.41 21.16 17.41 21.16" transform="translate(4.79 4.01)"/></g><path style="font-variation-settings:normal;opacity:1;vector-effect:none;fill:#f2f2f2;fill-opacity:1;stroke:#999;stroke-width:1;stroke-linecap:round;stroke-linejoin:round;stroke-miterlimit:4;stroke-dasharray:none;stroke-dashoffset:0;stroke-opacity:1;-inkscape-stroke:none;stop-color:#000;stop-opacity:1" d="M70.53 48.52c-6.56-6.94-11.72-6.68-11.72-6.68l8.15 8.81zm9.59-2.56c-5.23-7.98-10.36-8.64-10.36-8.64l6.47 10.11z"/><path style="font-variation-settings:normal;opacity:1;vector-effect:none;fill:green;fill-opacity:1;stroke:#004c00;stroke-width:1;stroke-linecap:butt;stroke-linejoin:miter;stroke-miterlimit:4;stroke-dasharray:none;stroke-dashoffset:0;stroke-opacity:1;-inkscape-stroke:none;stop-color:#000;stop-opacity:1" d="M83.72 46.12c-4.15-5.78-24.6 4.88-18.08 15.73 5.05 8.4 15.89 16.81 22.34 13.27 7.19-3.95 2.46-19.6-4.26-29z"/><circle style="font-variation-settings:normal;vector-effect:none;fill:#000;fill-opacity:1;stroke:none;stroke-width:.264583;stroke-linecap:butt;stroke-linejoin:miter;stroke-miterlimit:4;stroke-dasharray:none;stroke-dashoffset:0;stroke-opacity:1;-inkscape-stroke:none;stop-color:#000" cx="72.03" cy="58.32" r="3.34"/><ellipse style="font-variation-settings:normal;vector-effect:none;fill:#fff;fill-opacity:1;stroke:none;stroke-width:.264583;stroke-linecap:butt;stroke-linejoin:miter;stroke-miterlimit:4;stroke-dasharray:none;stroke-dashoffset:0;stroke-opacity:1;-inkscape-stroke:none;stop-color:#000" cx="26.5" cy="88.71" rx=".61" ry=".94" transform="rotate(-35.52)"/><ellipse style="font-variation-settings:normal;vector-effect:none;fill:#fff;fill-opacity:1;stroke:none;stroke-width:.264583;stroke-linecap:butt;stroke-linejoin:miter;stroke-miterlimit:4;stroke-dasharray:none;stroke-dashoffset:0;stroke-opacity:1;-inkscape-stroke:none;stop-color:#000" cx="26.5" cy="88.71" rx=".61" ry=".94" transform="rotate(-35.52)"/><circle style="font-variation-settings:normal;vector-effect:none;fill:#000;fill-opacity:1;stroke:none;stroke-width:.264583;stroke-linecap:butt;stroke-linejoin:miter;stroke-miterlimit:4;stroke-dasharray:none;stroke-dashoffset:0;stroke-opacity:1;-inkscape-stroke:none;stop-color:#000" cx="81.91" cy="52.57" r="3.34"/><ellipse style="font-variation-settings:normal;vector-effect:none;fill:#fff;fill-opacity:1;stroke:none;stroke-width:.264583;stroke-linecap:butt;stroke-linejoin:miter;stroke-miterlimit:4;stroke-dasharray:none;stroke-dashoffset:0;stroke-opacity:1;-inkscape-stroke:none;stop-color:#000" cx="37.89" cy="89.77" rx=".61" ry=".94" transform="rotate(-35.52)"/><path style="font-variation-settings:normal;opacity:.3;fill:#000;fill-opacity:1;stroke:none;stroke-width:5.68028;stroke-linecap:round;stroke-linejoin:round;stroke-miterlimit:4;stroke-dasharray:none;stroke-dashoffset:0;stroke-opacity:1;stop-color:#000;stop-opacity:1" d="M89.26 56.35c2.1 10.29.31 16.86-7.79 14.83-9.1-2.29-18.04-14.6-18.04-14.6l-1.06 5.95 12.18 17.2c1.26 3.26 23.5-5.9 22.56-7.54-.27-.48-4.86-20.78-4.86-20.78Z" clip-path="url(#f)"/><path style="font-variation-settings:normal;opacity:1;vector-effect:none;fill:none;fill-opacity:1;stroke:#004c00;stroke-width:1;stroke-linecap:butt;stroke-linejoin:miter;stroke-miterlimit:4;stroke-dasharray:none;stroke-dashoffset:0;stroke-opacity:1;-inkscape-stroke:none;stop-color:#000;stop-opacity:1" d="M83.72 46.12c-4.15-5.78-24.6 4.88-18.08 15.73 5.05 8.4 15.89 16.81 22.34 13.27 7.19-3.95 2.46-19.6-4.26-29z"/><path style="font-variation-settings:normal;opacity:.3;fill:none;fill-opacity:1;stroke:none;stroke-width:5.68028;stroke-linecap:round;stroke-linejoin:round;stroke-miterlimit:4;stroke-dasharray:none;stroke-dashoffset:0;stroke-opacity:1;stop-color:#000;stop-opacity:1" d="M66.97 56.9c-.32-.14-.63-.32-.96-.43-.34-.12-.7-.13-1.05-.24-.32-.09-.62-.25-.95-.35-.33-.1-.68-.1-1-.22-.22-.08-.39-.23-.59-.34-.18-.1-.39-.17-.57-.29-.12-.07-.2-.2-.32-.26-.18-.09-.38-.1-.56-.17-1.37-.5.29.07-.76-.37-.12-.05-.3 0-.39-.09-.02-.02.02-.06 0-.09-.05-.05-.42.02-.47 0-.04 0-.05-.08-.09-.08-.07 0 .04.36.09.65.1.55.2.91-.24 1.35-.09.09-.13.17-.25.17"/><path style="font-variation-settings:normal;opacity:.3;fill:#000;fill-opacity:1;stroke:none;stroke-width:5.68028;stroke-linecap:round;stroke-linejoin:round;stroke-miterlimit:4;stroke-dasharray:none;stroke-dashoffset:0;stroke-opacity:1;stop-color:#000;stop-opacity:1" d="M55.41 51.43c.65 10.1-.81 17.62 2.95 18.04 3.76.42 5.69-.76 5.69-.76l-.62 5.2-10.08 1.2-3.08-19.4zm-19.79 4.4c1 9.02 3.43 17.57 7.52 17.32 4.1-.25 5.93-1.55 5.93-1.55l-3.51 6-7.02.26-8.8-18.08z" clip-path="url(#g)"/><path style="font-variation-settings:normal;opacity:1;vector-effect:none;fill:none;fill-opacity:1;stroke:#004c00;stroke-width:1;stroke-linecap:butt;stroke-linejoin:miter;stroke-miterlimit:4;stroke-dasharray:none;stroke-dashoffset:0;stroke-opacity:1;-inkscape-stroke:none;stop-color:#000;stop-opacity:1" d="M39.45 56.25c-10.4 1.5-1.45 15.92-.79 17.8.83 2.37 9 2.2 7-3.07-1.99-5.26-.77-15.52-6.21-14.73Zm16.78-3.38c-5.37 1.43-1.01 15.82-.79 17.81.3 2.61 9 2.2 7-3.07-1.99-5.27-.9-16.16-6.21-14.74Z"/></g></g></svg>