<svg width="200" height="200" viewBox="0 0 52.92 52.92" xmlns="http://www.w3.org/2000/svg"><defs><filter id="b" x="-.06" y="-.06" width="1.11" height="1.13" color-interpolation-filters="sRGB"><feGaussianBlur stdDeviation="7.41"/></filter><filter id="a" x="-.04" y="-.04" width="1.07" height="1.07" color-interpolation-filters="sRGB"><feGaussianBlur stdDeviation="1.28"/></filter><linearGradient id="d" x1="479.79" x2="529.53" y1="233.23" y2="276.31" gradientUnits="userSpaceOnUse"><stop offset="0" stop-color="#fff"/><stop offset="1" stop-color="#fff" stop-opacity="0"/></linearGradient><clipPath id="c"><path d="M503.51 222.01a36.29 36.29 0 0 0-35.85 41.94 14 14 0 0 0 6.7 9.4c1.1.9 2.47 1.83 4.06 2.74h-.13s3.33 18.56 9.45 18.41c4.62-.12 8.25-9.45 14.13-9.27 5.87.2 8.25 9.16 14.1 9.22 3.37.03 6.3-5.75 8.16-10.53.58-.12 1.17-.25 1.74-.4 5.56 5.26 18.4 10.6 23.87 12.42a.53.53 0 0 0 .18-.14c1.4-1.82-7.95-16.01-12.98-23.37a36.17 36.17 0 0 0 2.86-14.13 36.29 36.29 0 0 0-36.3-36.3z" fill-rule="evenodd" fill="#009688"/></clipPath></defs><g transform="translate(5.69 5.3)" fill-rule="evenodd"><path d="M41.49 3.07c-2.58 0-7.36 8.69-9.39 12.6-.94.2-1.87.45-2.78.72-3.37-2.18-10.4-6.5-12.02-5.56-1.42.82-1.43 8.86-1.33 12.92A36.2 36.2 0 0 0 3.47 51.3v.13c0 1.92.15 3.81.44 5.66l.17.7a36.27 36.27 0 0 0 13.36 21.98c1.58 4.15 3.77 7.93 6.55 7.86 1.4-.03 2.71-.92 4.03-2.13a36.03 36.03 0 0 0 5.7 1.44 36.53 36.53 0 0 0 6.04.5 36.06 36.06 0 0 0 8.9-1.1 6.26 6.26 0 0 0 3.56 1.24c2.06.02 3.96-2.14 5.55-4.92.38-.21.75-.43 1.11-.66 9.54 3.14 23.48 7.45 26.69 6.93l.43.14a.53.53 0 0 0 .17-.14c.12-.15.16-.38.13-.7.05-.55-.23-1.49-.74-2.66 1.16-2.27 2.99-6.23 2.33-7.38-.6-1.04-4.76-1.14-7-1.12l-.78-1.26c1.13-2.28 3.26-6.91 2.5-8.23-.86-1.47-7.18-1.75-9.1-1.8l-.15-.24c1.95-1 10.34-5.4 10.64-7.15.27-1.57-5.24-6.24-7.98-8.45-.03-.98-.1-1.95-.2-2.9 2.73-3.68 8.97-12.28 8.37-13.73-.79-1.89-11.23-3.22-15.2-3.66a36.41 36.41 0 0 0-1.47-1.86c.36-4.32 1.2-16.09-.55-17.2-1.5-.97-11.73 4.52-15.09 6.36a35.98 35.98 0 0 0-1.65-.54c-1.45-3.36-5.99-13.33-8.74-13.33Z" filter="url(#a)" opacity=".2" transform="scale(.45036)"/><path d="M38.22 39.27s1.86-3.33 1.44-4.07c-.37-.65-3.8-.49-3.8-.49s1.88-3.5 1.42-4.29c-.45-.78-4.36-.82-4.36-.82s4.83-2.42 4.99-3.32c.16-.94-4.27-4.34-4.27-4.34s4.7-6.12 4.35-6.95c-.43-1.05-7.57-1.73-7.57-1.73s.78-7.89-.18-8.5c-.8-.52-7.31 3.15-7.31 3.15s-2.68-6.54-4.17-6.54c-1.5 0-4.66 6.55-4.66 6.55S8.84 4.3 7.87 4.87c-.86.5-.57 6.87-.57 6.87Z" fill="#455a64" style="stroke-width:.450357"/><g fill="#80cbc4"><path d="M31.67 27.4s8.07 11.4 7.22 12.52C38.06 41 22.44 35.5 22.44 35.5z"/><path d="M1.64 23.03a16.35 16.35 0 1 0 32.7 0 16.35 16.35 0 0 0-32.7 0Z"/></g><path transform="scale(.11916)" d="M154.92 58.1c-75.74 0-137.14 61.4-137.14 137.13 0 7.28.57 14.42 1.66 21.39 5.3 25.55 25.28 35.48 25.28 35.48a114.3 114.3 0 0 0 15.4 10.4l-.5-.02s12.59 70.16 35.7 69.58c17.46-.43 31.17-35.72 53.39-35.01 22.2.7 31.2 34.58 53.3 34.82 12.75.13 23.83-21.71 30.83-39.79 2.22-.45 4.42-.95 6.61-1.48 21 19.85 69.54 40.06 90.22 46.9.29-.14.51-.32.67-.52 5.28-6.88-30.06-60.51-49.07-88.33a136.7 136.7 0 0 0 10.8-53.42c0-75.74-61.4-137.14-137.14-137.14z" filter="url(#b)" opacity=".15"/><path d="M17.98 6.93A16.34 16.34 0 0 0 1.84 25.82a6.27 6.27 0 0 0 3.01 4.22c.5.41 1.12.83 1.84 1.24h-.06s1.5 8.36 4.25 8.3c2.08-.06 3.72-4.26 6.36-4.18 2.65.08 3.72 4.12 6.35 4.15 1.52.01 2.84-2.59 3.68-4.74a21 21 0 0 0 .79-.18c2.5 2.37 8.28 4.77 10.75 5.6a.24.24 0 0 0 .08-.07c.63-.82-3.59-7.21-5.85-10.53a16.29 16.29 0 0 0 1.29-6.36c0-9.03-7.32-16.34-16.35-16.34z" fill="#00796b" style="stroke-width:.450357"/><path d="M17.98 6.45A16.34 16.34 0 0 0 1.84 25.34a6.27 6.27 0 0 0 3.01 4.22c.5.41 1.12.83 1.84 1.24h-.06s1.5 8.36 4.25 8.3c2.08-.06 3.72-4.26 6.36-4.18 2.65.08 3.72 4.12 6.35 4.15 1.52.01 2.84-2.59 3.68-4.74l.79-.18c2.5 2.37 8.28 4.77 10.75 5.6a.24.24 0 0 0 .08-.07c.63-.82-3.59-7.21-5.85-10.53a16.29 16.29 0 0 0 1.29-6.36c0-9.03-7.32-16.34-16.35-16.34z" fill="#4db6ac" style="stroke-width:.450357"/><path d="M17.98 6.68a16.34 16.34 0 0 0-16.14 18.9 6.27 6.27 0 0 0 3.01 4.22c.5.41 1.12.83 1.84 1.24h-.06s1.5 8.36 4.25 8.29c2.08-.05 3.72-4.26 6.36-4.17 2.65.08 3.72 4.12 6.35 4.15 1.52.01 2.84-2.59 3.68-4.74l.79-.18c2.5 2.37 8.28 4.77 10.75 5.59a.24.24 0 0 0 .08-.06c.63-.82-3.59-7.21-5.85-10.53a16.29 16.29 0 0 0 1.29-6.36C34.33 14 27 6.68 17.98 6.68z" fill="#009688" style="stroke-width:.450357"/><circle cx="9.72" cy="18.61" r="1.31" fill="#eee" style="stroke-width:.450357"/><path transform="translate(-208.78 -93.3) scale(.45036)" clip-path="url(#c)" fill="url(#d)" opacity=".05" d="M461.55 203.9h101.96v98.66H461.55Z" style="fill:url(#d)"/></g></svg>