<?xml version="1.0" encoding="UTF-8" standalone="no"?>
<svg
   width="200"
   height="200"
   viewBox="0 0 200 200"
   fill="none"
   version="1.1"
   id="svg42"
   sodipodi:docname="ec.svg"
   inkscape:version="1.4.2 (ebf0e940d0, 2025-05-08)"
   xmlns:inkscape="http://www.inkscape.org/namespaces/inkscape"
   xmlns:sodipodi="http://sodipodi.sourceforge.net/DTD/sodipodi-0.dtd"
   xmlns="http://www.w3.org/2000/svg"
   xmlns:svg="http://www.w3.org/2000/svg">
  <defs
     id="defs42" />
  <sodipodi:namedview
     id="namedview42"
     pagecolor="#ffffff"
     bordercolor="#666666"
     borderopacity="1.0"
     inkscape:showpageshadow="2"
     inkscape:pageopacity="0.0"
     inkscape:pagecheckerboard="0"
     inkscape:deskcolor="#d1d1d1"
     inkscape:zoom="3.2864395"
     inkscape:cx="29.058804"
     inkscape:cy="92.805604"
     inkscape:window-width="1916"
     inkscape:window-height="1032"
     inkscape:window-x="0"
     inkscape:window-y="22"
     inkscape:window-maximized="1"
     inkscape:current-layer="svg42" />
  <path
     d="m 125.341,91.613 h -0.074 -76.734806 v 51.3803 h 76.734806 0.074 z"
     fill="#003399"
     id="path1" />
  <path
     d="m 87.632196,99.3764 h 2.6752 l -2.1577,1.6805 0.8402,2.6617 -2.1442,-1.64 -2.1442,1.64 0.8402,-2.6617 -2.1711,-1.6805 h 2.6685 l 0.8066,-2.5945 z"
     fill="#ffed00"
     id="path2" />
  <path
     d="m 87.726396,133.6435 h 2.6752 l -2.1509,1.6199 0.8335,2.561 -2.1442,-1.5796 -2.1443,1.5796 0.847,-2.561 -2.1778,-1.6199 h 2.6685 l 0.8066,-2.4938 z"
     fill="#ffed00"
     id="path3" />
  <path
     d="m 96.202497,131.3783 h 2.681898 l -2.157598,1.6132 0.840198,2.5609 -2.150998,-1.5796 -2.1442,1.5796 0.8469,-2.5609 -2.177801,-1.6132 h 2.668501 l 0.8066,-2.5005 z"
     fill="#ffed00"
     id="path4" />
  <path
     d="m 96.202497,101.6618 h 2.681898 l -2.157598,1.62 0.840198,2.5609 -2.150998,-1.5796 -2.1442,1.5796 0.8469,-2.5609 -2.177801,-1.62 h 2.668501 l 0.8066,-2.4937 z"
     fill="#ffed00"
     id="path5" />
  <path
     d="m 102.5004,107.96 h 2.6685 l -2.1509,1.6132 0.8335,2.561 -2.14421,-1.5796 -2.14419,1.5796 0.84689,-2.561 -2.177795,-1.6132 h 2.668495 l 0.8066,-2.5004 z"
     fill="#ffed00"
     id="path6" />
  <path
     d="m 102.5004,125.1675 h 2.6685 l -2.1509,1.6199 0.8335,2.561 -2.14421,-1.5796 -2.14419,1.5796 0.84689,-2.561 -2.177795,-1.6199 h 2.668495 l 0.8066,-2.4938 z"
     fill="#ffed00"
     id="path7" />
  <path
     d="m 104.8531,116.4293 h 2.6819 l -2.1576,1.6199 0.8402,2.561 -2.1509,-1.5796 -2.1443,1.5796 0.847,-2.561 -2.17781,-1.6199 h 2.66851 l 0.8066,-2.4937 z"
     fill="#ffed00"
     id="path8" />
  <path
     d="m 78.994896,101.6887 h 2.6685 l -2.1509,1.6132 0.8335,2.5609 -2.1442,-1.5796 -2.1442,1.5796 0.8469,-2.5609 -2.1711,-1.6132 h 2.6618 l 0.8066,-2.5005 z"
     fill="#ffed00"
     id="path9" />
  <path
     d="m 72.871395,107.9801 h 2.681901 l -2.157601,1.6132 0.8335,2.561 -2.1442,-1.5796 -2.1442,1.5796 0.8469,-2.561 -2.1778,-1.6132 h 2.6685 l 0.8066,-2.5004 z"
     fill="#ffed00"
     id="path10" />
  <path
     d="m 70.599495,116.4562 h 2.6753 l -2.151,1.6132 0.8335,2.561 -2.1442,-1.5729 -2.1442,1.5729 0.8469,-2.561 -2.1711,-1.6132 h 2.6618 l 0.8066,-2.5004 z"
     fill="#ffed00"
     id="path11" />
  <path
     d="m 72.871395,125.1877 h 2.681901 l -2.157601,1.6199 0.8335,2.5609 -2.1442,-1.5796 -2.1442,1.5796 0.8469,-2.5609 -2.1778,-1.6199 h 2.6685 l 0.8066,-2.4938 z"
     fill="#ffed00"
     id="path12" />
  <path
     d="m 79.082296,131.3985 h 2.6685 l -2.1509,1.6132 0.8335,2.5609 -2.1442,-1.5796 -2.1442,1.5796 0.8469,-2.5609 -2.1711,-1.6132 h 2.6618 l 0.8066,-2.5005 z"
     fill="#ffed00"
     id="path13" />
  <path
     d="m 137.01,55.006723 c 0,0 15.775,25.132277 18.666,29.736677 2.883,4.6043 6.184,8.2542 17.859,10.7277 11.676,2.4736 16.757,3.6432 16.757,3.6432 v 0.8939 c 0,0 -7.421,-1.5795 -16.965,-3.7103 -9.545,-2.1308 -13.45,-2.85 -17.799,-8.9062 C 151.905,82.3504 137.01,59.80599 137.01,59.80599 V 55 Z"
     fill="#6d6e70"
     id="path14" />
  <path
     d="m 137.01,83.7082 c 0,0 14.364,15.0498 18.518,19.3718 4.409,4.5842 10.049,6.278 17.873,7.6761 7.467,1.3309 16.884,2.8702 16.884,2.8702 v 0.8469 c 0,0 -8.845,-1.4519 -16.884,-2.8231 -7.885,-1.351 -13.403,-2.1039 -17.92,-6.2646 C 151.434,101.6617 137.01,88.131 137.01,88.131 v -4.4295 z"
     fill="#6d6e70"
     id="path15" />
  <path
     d="m 137.01,90.4904 c 0,0 13.658,12.6838 18.518,17.0192 4.47,3.986 8.093,5.2295 17.92,6.9704 9.827,1.7409 16.837,2.8231 16.837,2.8231 v 0.894 c 0,0 -8.892,-1.4586 -16.884,-2.7357 -7.992,-1.2704 -13.087,-1.7746 -17.873,-5.6529 -5.519,-4.4767 -18.518,-15.1776 -18.518,-15.1776 v -4.1472 z"
     fill="#6d6e70"
     id="path16" />
  <path
     d="m 137.01,97.7162 c 0,0 15.601,12.3813 18.518,14.5457 2.917,2.1643 6.775,4.6917 17.967,6.3116 11.097,1.6065 16.79,2.3996 16.79,2.3996 v 0.9411 c 0,0 -10.062,-1.4586 -16.79,-2.3056 -6.729,-0.8469 -11.884,-1.2099 -17.92,-5.2294 -5.875,-3.912 -18.565,-12.8451 -18.565,-12.8451 z"
     fill="#6d6e70"
     id="path17" />
  <path
     d="m 137.01,104.6664 c 0,0 15.648,10.4185 18.612,12.0721 2.964,1.6468 6.446,4.3354 17.873,5.794 11.427,1.4586 16.79,2.1174 16.79,2.1174 v 0.8939 c 0,0 -9.45,-1.0351 -16.837,-1.835 -7.381,-0.7998 -12.415,-1.882 -17.92,-4.9001 -5.505,-3.0113 -18.518,-10.6202 -18.518,-10.6202 z"
     fill="#6d6e70"
     id="path18" />
  <path
     d="m 137.01,111.6165 c 0,0 13.833,7.5283 18.518,9.8742 5.222,2.6214 9.739,3.8784 17.92,4.853 8.032,0.9545 16.837,1.8821 16.837,1.8821 v 0.8469 c 0,0 -8.14,-0.8738 -16.837,-1.6939 -8.624,-0.82 -11.696,-1.1964 -17.92,-3.959 -5.566,-2.4736 -18.518,-8.5096 -18.518,-8.5096 v -3.3004 z"
     fill="#6d6e70"
     id="path19" />
  <path
     d="m 137.01,118.6608 c 0,0 10.929,4.6783 18.612,7.7299 7.555,2.9979 13.329,3.2533 17.92,3.7709 2.023,0.2285 16.743,1.7409 16.743,1.7409 v 0.8469 c 0,0 -8.792,-0.7057 -16.79,-1.4115 -7.999,-0.7058 -11.447,-1.0083 -17.92,-3.1525 -6.554,-2.1778 -18.565,-6.3654 -18.565,-6.3654 v -3.1525 z"
     fill="#6d6e70"
     id="path20" />
  <path
     d="m 137.01,125.8463 c 0,0 11.037,3.4214 18.565,5.3975 7.528,1.9762 14.438,2.7828 17.92,3.0113 3.482,0.2353 16.797,1.3175 16.797,1.3175 v 0.7999 c 0,0 -7.575,-0.5176 -16.844,-1.1763 -7.495,-0.531 -13.511,-1.0957 -17.92,-2.0703 -4.88,-1.0755 -18.518,-4.3153 -18.518,-4.3153 z"
     fill="#6d6e70"
     id="path21" />
  <path
     d="m 137.01,132.9108 c 0,0 9.027,1.5594 18.565,3.139 7.152,1.183 16.838,1.9291 17.873,1.9762 1.035,0.047 16.837,1.1292 16.837,1.1292 v 0.847 c 0,0 -10.116,-0.5243 -16.837,-0.894 -7.004,-0.3899 -13.968,-0.8133 -17.92,-1.2234 -8.859,-0.9208 -18.518,-2.1442 -18.518,-2.1442 z"
     fill="#6d6e70"
     id="path22" />
  <path
     d="m 137.01,140.224 c 0,0 14.236,0.5377 18.565,0.6318 4.329,0.0941 34.71,1.3174 34.71,1.3174 V 143 H 137.01 Z"
     fill="#6d6e70"
     id="path23" />
  <path
     d="M 173.441,99.3562 C 160.555,96.5802 157.638,91.8683 155.474,88.9511 153.309,86.0272 137.003,62.19888 137.003,62.19888 v 4.38252 c 0.645,0.8402 14.599,20.1045 18.518,25.1457 4.416,5.6798 11.333,6.9704 17.92,8.3819 6.58,1.4116 16.844,3.381 16.844,3.381 v -0.7528 c 0,0 -13.51,-2.6685 -16.844,-3.381 z"
     fill="#6d6e70"
     id="path24" />
  <path
     d="m 173.441,103.1271 c -10.58,-2.0703 -14.862,-5.4176 -17.967,-9.4641 -3.106,-4.0531 -18.471,-24.776 -18.471,-24.776 v 5.095 c 0.645,0.7595 14.7,17.9132 18.471,22.2285 4.396,5.0346 10.533,6.3587 17.967,7.7232 7.434,1.3645 16.838,3.1525 16.838,3.1525 v -0.7528 c 0,0 -10.735,-2.0098 -16.838,-3.1996 z"
     fill="#6d6e70"
     id="path25" />
  <path
     d="m 173.441,107.0324 c -11.004,-2.1375 -13.262,-3.8919 -17.92,-8.9936 -2.931,-3.2062 -17.886,-20.864 -18.518,-21.6101 v 4.7051 c 0,0 13.974,14.9087 18.471,19.3114 5.895,5.7806 11.427,6.2175 17.967,7.3938 6.54,1.1763 16.838,3.0583 16.838,3.0583 v -0.7998 c 0,0 -12.435,-2.2047 -16.838,-3.0584 z"
     fill="#6d6e70"
     id="path26" />
  <path
     d="m 12.00672,91.9288 c 0,0 36.431374,-3.8851 46.634875,-5.3168 16.132001,-2.2585 29.333301,-4.6649 41.546595,-23.3847 0,0 0.0135,-1.06203 0,-1.53927 C 92.706997,73.0678 82.389296,80.8313 68.179695,83.0831 54.299394,85.2878 12,88.5075 12,88.5075 v 3.4213 z"
     fill="#6d6e70"
     id="path27" />
  <path
     d="m 12,87.2841 c 0,0 33.762894,-4.2279 44.887295,-5.7873 17.597301,-2.4601 29.971901,-4.6716 43.294195,-25.09197 0,0 0.007,-0.880533 0,-1.398101 C 92.021396,67.4216 81.945596,75.4406 66.445495,77.9007 51.301594,80.3071 12,83.8158 12,83.8158 v 3.4751 z"
     fill="#6d6e70"
     id="path28" />
  <path
     d="M 46.468794,140.2575 H 12.020263 v 2.729 h 34.448531 z"
     fill="#6d6e70"
     id="path29" />
  <path
     d="m 100.18149,85.0055 c 0,0 0.0202,-1.6065 0.0134,-1.9493 -1.619895,2.4669 -3.750593,4.7052 -6.210793,6.6746 h 2.4131 c 1.357798,-1.3981 2.628203,-2.9642 3.777593,-4.7253 z"
     fill="#6d6e70"
     id="path30" />
  <path
     d="m 100.18149,77.7461 c 0,0 0.0135,-1.425 0.007,-1.8148 -3.905293,5.9419 -9.719594,10.6874 -16.441194,13.8331 l 3.9658,-0.0134 C 92.297197,87.0825 96.558797,83.2915 100.175,77.7461 Z"
     fill="#6d6e70"
     id="path31" />
  <path
     d="m 100.18149,70.4867 c 0,0 0.0135,-1.2435 0,-1.6737 -6.795593,10.3447 -17.361994,17.4226 -30.281095,19.4727 -3.0583,0.484 -8.0391,1.0217 -13.826401,1.5661 l 15.775701,-0.0537 c 10.411901,-2.319 20.158301,-6.8023 28.318395,-19.3114 z"
     fill="#6d6e70"
     id="path32" />
  <path
     d="m 46.475494,135.6599 c -17.577101,0.0941 -34.455231,0.1681 -34.455231,0.1681 v 2.8432 c 0,0 17.67793,-0.1277 34.455231,-0.2688 z"
     fill="#6d6e70"
     id="path33" />
  <path
     d="m 46.475394,130.78 c -17.456201,0.1949 -34.461966,0.3428 -34.461966,0.3428 v 2.9038 c 0,0 17.859465,-0.2353 34.461966,-0.4974 z"
     fill="#6d6e70"
     id="path34" />
  <path
     d="m 46.468694,125.8866 c -17.328501,0.3025 -34.455266,0.531 -34.455266,0.531 v 2.9643 c 0,0 18.047665,-0.3563 34.455266,-0.7461 z"
     fill="#6d6e70"
     id="path35" />
  <path
     d="m 46.475394,120.9664 c -17.200701,0.4234 -34.461966,0.7394 -34.461966,0.7394 v 3.018 c 0,0 18.256065,-0.4974 34.461966,-1.015 v -2.7491 z"
     fill="#6d6e70"
     id="path36" />
  <path
     d="m 46.482094,116.0327 c -17.073001,0.5445 -34.468666,0.9747 -34.468666,0.9747 v 3.0785 c 0,0 18.477865,-0.6453 34.468666,-1.304 v -2.7425 z"
     fill="#6d6e70"
     id="path37" />
  <path
     d="m 46.475394,111.0789 c -16.938601,0.6856 -34.461966,1.2233 -34.461966,1.2233 v 3.1323 c 0,0 18.706365,-0.8201 34.461966,-1.6334 v -2.729 z"
     fill="#6d6e70"
     id="path38" />
  <path
     d="m 46.482194,106.0914 c -16.810801,0.8334 -34.475358,1.4989 -34.475358,1.4989 v 3.1928 c 0,0 18.955057,-1.015 34.475358,-1.9896 z"
     fill="#6d6e70"
     id="path39" />
  <path
     d="m 46.482194,101.077 c -16.683101,0.9948 -34.475358,1.8081 -34.475358,1.8081 v 3.2466 c 0,0 19.210557,-1.2368 34.475358,-2.3795 z"
     fill="#6d6e70"
     id="path40" />
  <path
     d="m 46.482194,96.0358 c -16.568901,1.1695 -34.475358,2.1509 -34.475358,2.1509 v 3.3071 c 0,0 19.465957,-1.4922 34.475358,-2.8097 v -2.6416 z"
     fill="#6d6e70"
     id="path41" />
  <path
     d="M 46.482094,90.9474 C 30.014093,92.3119 12,93.4748 12,93.4748 v 3.3608 c 0,0 19.728093,-1.788 34.482094,-3.2936 z"
     fill="#6d6e70"
     id="path42" />
</svg>
