<svg width="200" height="200" xmlns="http://www.w3.org/2000/svg"><defs><linearGradient x1="47.39" y1="-8.73" x2="-7" y2="31.55" id="a" gradientTransform="scale(1.0091 .99098)" gradientUnits="userSpaceOnUse"><stop stop-color="#D446FF" offset="0%"/><stop stop-color="#A0D8FF" offset="100%"/></linearGradient><linearGradient x1="12.32" y1="20.27" x2="23.85" y2="14.02" id="b" gradientTransform="scale(1.2048 .83002)" gradientUnits="userSpaceOnUse"><stop stop-color="#FFF" offset="0%"/><stop stop-color="#DADADA" offset="100%"/></linearGradient><linearGradient x1="15.25" y1="29.86" x2="6.75" y2="19.34" id="c" gradientTransform="scale(1.11401 .89766)" gradientUnits="userSpaceOnUse"><stop stop-color="#FFF" offset="0%"/><stop stop-color="#DADADA" offset="100%"/></linearGradient><linearGradient x1="21.87" y1="9.33" x2="9.78" y2="14.64" id="d" gradientTransform="scale(1.35525 .73787)" gradientUnits="userSpaceOnUse"><stop stop-color="#D0D0D0" offset="0%"/><stop stop-color="#FFF" offset="100%"/></linearGradient><linearGradient x1="9.78" y1="23.71" x2="-3.64" y2="40.24" id="e" gradientTransform="scale(1.16405 .85907)" gradientUnits="userSpaceOnUse"><stop stop-color="#FFDC68" offset="0%"/><stop stop-color="#CE4300" offset="100%"/></linearGradient><linearGradient x1="6.09" y1="13.65" x2="3.01" y2="14.59" id="f" gradientTransform="scale(2.15232 .46461)" gradientUnits="userSpaceOnUse"><stop stop-color="#FFDC68" offset="0%"/><stop stop-color="#CE4300" offset="100%"/></linearGradient><linearGradient x1="8.04" y1="22.95" x2="-3.28" y2="40.33" id="g" gradientTransform="scale(1.50045 .66647)" gradientUnits="userSpaceOnUse"><stop stop-color="#FFDC68" offset="0%"/><stop stop-color="#CE4300" offset="100%"/></linearGradient></defs><g transform="translate(21.189 22.576) scale(4.95356)" fill="none" fill-rule="evenodd"><ellipse stroke="#a3a3a3" stroke-width=".5" fill="url(#a)" fill-rule="nonzero" cx="15.91" cy="15.63" rx="15.9" ry="15.61" style="fill:url(#a)"/><path d="M5.56 30.9s4.97-17.4 24.31-15.18c0 0-12.29-7.3-24.23 2.54-3.52 8.17-.08 12.64-.08 12.64Z" fill="url(#b)" style="fill:url(#b)"/><path d="M7.04 28.7s5.18-12.5 19.03-12.72c-10.53 2.56.01 11.65.01 11.65s-8.32 7.54-19.04 1.07z" fill="url(#c)" style="fill:url(#c)"/><path d="M4.15 19.11S14.51 7.72 29.98 15.6c-.28-2.14-2.11-4.55-5.39-5.24-.72-.35-6.04-8.57-17.47-3.84 3.52.28 5.03.77 5.11 1.14-6.08-1.04-7.88 7.61-8.08 11.46Z" fill="url(#d)" style="fill:url(#d)"/><path d="M19 9.45s2.66-.95 3 1.87c-2.61.25-3-1.87-3-1.87z" fill="#202020"/><path d="M5.5 30.95s4.52-14.77 19.67-15.34c0 0-12.3-2.25-20.97 11.5-.05 1.95 1.3 3.84 1.3 3.84z" fill="url(#e)" style="fill:url(#e)"/><path d="M7.13 6.52s3.78.22 5.13 1.14c.56-.11 1.04-.5 1.12-1.02-.48-.2-4.9-.56-6.25-.12Z" fill="url(#f)" style="fill:url(#f)"/><path d="M4.19 19.13s4.73-5.68 14.27-6.35c0 0-13 .58-14.08 4.25-.3.89-.2 2.1-.2 2.1z" fill="url(#g)" style="fill:url(#g)"/></g></svg>