<?xml version="1.0" encoding="UTF-8" standalone="no"?>
<svg
   viewBox="0 0 200 200"
   version="1.1"
   id="svg16"
   sodipodi:docname="g2dn_edit.svg"
   width="200"
   height="200"
   inkscape:version="1.4.2 (ebf0e940d0, 2025-05-08)"
   xmlns:inkscape="http://www.inkscape.org/namespaces/inkscape"
   xmlns:sodipodi="http://sodipodi.sourceforge.net/DTD/sodipodi-0.dtd"
   xmlns="http://www.w3.org/2000/svg"
   xmlns:svg="http://www.w3.org/2000/svg"
   xmlns:bx="https://boxy-svg.com">
  <sodipodi:namedview
     id="namedview16"
     pagecolor="#ffffff"
     bordercolor="#666666"
     borderopacity="1.0"
     inkscape:showpageshadow="2"
     inkscape:pageopacity="0.0"
     inkscape:pagecheckerboard="0"
     inkscape:deskcolor="#d1d1d1"
     inkscape:zoom="3.73"
     inkscape:cx="67.426273"
     inkscape:cy="89.008043"
     inkscape:window-width="1916"
     inkscape:window-height="1032"
     inkscape:window-x="0"
     inkscape:window-y="22"
     inkscape:window-maximized="1"
     inkscape:current-layer="g17" />
  <defs
     id="defs7">
    <path
       id="path-0"
       d="m 72.416,201.15 c 10.731,35.44 22.243,61.046 30.856,86.884 6.974,4.096 17.971,1.976 24.36,-1.218 9.131,-4.362 12.294,-2.317 17.864,-9.744 8.041,-19.547 24.634,-30.895 34.104,-46.284 l 2.842,-2.842 c 0.308,-0.308 1.606,-2.011 2.03,-2.436"
       style="fill:none" />
    <path
       id="path-1"
       d="m 197.058,229.57 c 12.877,0 20.855,1.218 28.826,1.218 17.557,0 34.707,-3.308 51.968,1.624 0.406,8.123 2.225,0.016 4.466,-4.466 15.584,-19.649 30.632,-26.922 46.284,-37.758 11.979,-11.167 25.495,-13.965 35.728,-19.082 5.481,7.173 8.57,15.781 12.586,23.142 10.364,19.002 22.149,37.457 33.292,56.028 7.733,13.437 10.948,21.869 13.398,31.668 7.179,17.293 14.239,34.233 17.864,49.938 -1.21,10.909 -23.483,12.542 -28.014,13.804 -14.046,3.911 -28.676,4.731 -42.224,10.15 l -1.218,0.812 c -2.826,2.826 -6.951,4.109 -9.744,6.902"
       style="fill:none" />
    <filter
       id="drop-shadow-filter-0"
       color-interpolation-filters="sRGB"
       x="-0.042485659"
       y="-0.043067998"
       width="1.1079197"
       height="1.1092045"
       bx:preset="drop-shadow 1 3 3 2 0.4 rgba(0,0,0,1)">
      <title
         id="title1">Drop shadow</title>
      <feGaussianBlur
         in="SourceAlpha"
         stdDeviation="2"
         id="feGaussianBlur1" />
      <feOffset
         dx="3"
         dy="3"
         id="feOffset1" />
      <feComponentTransfer
         result="offsetblur"
         id="feComponentTransfer1">
        <feFuncA
           id="spread-ctrl"
           type="linear"
           slope="0.8" />
      </feComponentTransfer>
      <feFlood
         flood-color="rgba(0,0,0,1)"
         id="feFlood1" />
      <feComposite
         in2="offsetblur"
         operator="in"
         id="feComposite1" />
      <feMerge
         id="feMerge2">
        <feMergeNode
           id="feMergeNode1" />
        <feMergeNode
           in="SourceGraphic"
           id="feMergeNode2" />
      </feMerge>
    </filter>
    <filter
       id="drop-shadow-filter-1"
       color-interpolation-filters="sRGB"
       x="-0.11168711"
       y="-0.11168711"
       width="1.2655203"
       height="1.2655203">
      <title
         id="title2">Drop shadow 2x2</title>
      <feGaussianBlur
         in="SourceAlpha"
         stdDeviation="2"
         result="gaussian-blur-0"
         id="feGaussianBlur2" />
      <feOffset
         dx="2"
         dy="2"
         result="offset-0"
         in="gaussian-blur-0"
         id="feOffset2" />
      <feComponentTransfer
         result="offsetblur"
         in="offset-0"
         id="feComponentTransfer2">
        <feFuncA
           id="feFuncA2"
           type="linear"
           slope="0.8" />
      </feComponentTransfer>
      <feFlood
         flood-color="rgba(0,0,0,1)"
         result="flood-0"
         id="feFlood2" />
      <feComposite
         in2="offsetblur"
         operator="in"
         result="composite-0"
         in="flood-0"
         id="feComposite2" />
      <feMerge
         result="merge-0"
         id="feMerge4">
        <feMergeNode
           in="composite-0"
           id="feMergeNode3" />
        <feMergeNode
           in="SourceGraphic"
           id="feMergeNode4" />
      </feMerge>
    </filter>
    <linearGradient
       gradientUnits="userSpaceOnUse"
       x1="305.59406"
       y1="204.03911"
       x2="232.93788"
       y2="307.80286"
       id="gradient-0"
       gradientTransform="matrix(0.9462,-0.32358,0.28538,0.834498,-258.77316,-48.66655)">
      <stop
         offset="0"
         style="stop-color:#c3ffff;stop-opacity:1;"
         id="stop4" />
      <stop
         offset="0.5"
         style="stop-color:#35b4d0;stop-opacity:1;"
         id="stop1" />
      <stop
         offset="1"
         style="stop-color: rgb(41, 174, 211);"
         id="stop5" />
    </linearGradient>
    <filter
       id="gaussian-blur-filter-0"
       color-interpolation-filters="sRGB"
       x="-0.020742405"
       y="-0.038110966"
       width="1.0414848"
       height="1.0762219">
      <title
         id="title5">Gauss blur r1</title>
      <feGaussianBlur
         stdDeviation="1 1"
         edgeMode="none"
         result="gaussian-blur-0"
         in="SourceGraphic"
         id="feGaussianBlur5" />
    </filter>
    <linearGradient
       gradientUnits="userSpaceOnUse"
       x1="80.088997"
       y1="70.519997"
       x2="80.088997"
       y2="117.974"
       id="gradient-1"
       gradientTransform="matrix(0.973993,-0.226582,0.106116,0.466168,-5.400368,55.107502)">
      <stop
         offset="0"
         style="stop-color: rgb(242, 189, 154);"
         id="stop6" />
      <stop
         offset="1"
         style="stop-color: rgb(253, 116, 53);"
         id="stop7" />
    </linearGradient>
  </defs>
  <g
     id="g17"
     transform="translate(20.548319,24.236917)">
    <path
       style="display:inline;fill:url(#gradient-0);stroke:#9cc3cc;paint-order:stroke;filter:url(#drop-shadow-filter-0)"
       d="M 2.472,41.66 108.221,3.09 130.145,82.666 88.327,129.762 24.179,108.65 Z"
       id="path7"
       transform="matrix(1.4710581,0,0,1.4710581,-20.320543,-24.501922)" />
    <circle
       style="display:inline;fill:url(#gradient-1);stroke:#b24429;paint-order:fill;filter:url(#drop-shadow-filter-1)"
       cx="80.088997"
       cy="94.247002"
       id="ellipse12"
       r="23.726999"
       transform="matrix(1.4710581,0,0,1.4710581,-20.320543,-24.501922)" />
    <g
       transform="matrix(1.4710581,0,0,1.4710581,-220.46537,-27.634863)"
       style="filter:url(#drop-shadow-filter-1)"
       id="g16">
      <path
         style="fill:#fdffff;stroke:#525e5a"
         d="m 165.163,45.824 c 0,0 4.361,0.098 9.816,0.198 5.455,0.1 5.854,1.952 5.854,1.952 l 14.381,34.149 c 0,0 9.844,17.952 -5.95,18.745 -15.794,0.793 -23.307,-2.81 -25.588,-4.099 -2.281,-1.289 -5.951,-8.199 -5.951,-8.199 0,0 14.576,-1.586 17.254,0.794 2.678,2.38 1.291,2.744 5.259,2.546 3.968,-0.198 0.816,-2.916 -0.449,-4.985 -1.265,-2.069 -3.201,-0.404 -4.81,0.459 -1.609,0.863 -10.407,1.437 -14.545,-1.379 -4.138,-2.816 -4.095,-1.559 -7.544,-6.904 -3.449,-5.345 -12.249,-25.736 -11.826,-29.377 0.423,-3.641 3.501,-3.989 6.777,-4.371 3.276,-0.382 14.334,2.621 14.334,2.621 0.064,-2.16 2.988,-2.15 2.988,-2.15 z m 0.311,9.897 c 0,0 -0.91,-2.801 -3.034,-2.391 -2.124,0.41 -1.723,3.052 -1.723,3.052 l 9.646,20.603 c 0,0 2.217,2.919 4.347,1.9 2.13,-1.019 -9.071,-23.164 -9.236,-23.164 z"
         id="path13" />
      <path
         style="fill:#a3cdd3;stroke:#142c33"
         d="m 180.603,56.705 11.842,-0.191 -2.324,-3.652 c 0,0 0.166,-3.736 3.653,-1.08 3.487,2.656 -0.914,8.468 -0.914,8.468 l -4.316,7.638 c 0,0 -1.246,4.981 0.996,6.89 2.242,1.909 25.403,-0.166 25.403,-0.166 l -2.324,-5.24 h -12.121 c 0,0 11.374,-11.031 4.234,-19.167 -7.14,-8.136 -22.581,-3.653 -22.581,-3.653 0,0 -4.732,2.657 -1.548,10.153 z"
         id="path14" />
      <path
         style="stroke:#cdcccc"
         d="m 218.403,66.107 11.248,-0.133 10.762,23.606 -11.401,-0.037 -0.777,-1.082 c 0,0 -1.281,0.052 -2.548,1.081 -1.267,1.029 -7.918,1.267 -10.451,-1.425 -2.533,-2.692 -5.205,-5.415 -6.236,-13.865 -1.031,-8.45 11.097,-3.906 11.097,-3.906 z m 4.131,8.992 c 0,0 -0.803,-1.258 -1.641,-1.258 -0.838,0 -1.223,0.105 -0.908,1.502 0.315,1.397 4.366,8.838 4.366,8.838 0,0 0.664,1.886 1.572,1.362 0.908,-0.524 0.594,-1.677 0.594,-1.677 z"
         id="path15" />
      <path
         style="stroke:#cdcccc"
         d="m 244.025,69.616 -11.088,0.316 8.886,19.611 11.587,-0.113 -6.3,-14.961 1.35,-0.144 6.402,15.148 10.697,-0.099 c 0,0 1.181,-1.575 0.337,-2.644 -0.844,-1.069 -6.805,-13.498 -6.805,-13.498 0,0 -3.6,-4.106 -9,-4.163 -5.4,-0.057 -5.062,2.082 -5.062,2.082 0,0 -1.068,-1.575 -1.004,-1.535 z"
         id="path16" />
    </g>
  </g>
</svg>
