<svg width="200" height="200" xmlns:xlink="http://www.w3.org/1999/xlink" xmlns="http://www.w3.org/2000/svg"><defs><linearGradient id="c" gradientUnits="userSpaceOnUse" x1="15.57" y1="30" x2="15.57" y2="42.29" gradientTransform="translate(-1.41 2.51) scale(2.93129)"><stop offset="0" style="stop-color:#000;stop-opacity:1"/><stop offset="1" style="stop-color:#000;stop-opacity:0"/></linearGradient><linearGradient id="e" gradientUnits="userSpaceOnUse" x1="15.57" y1="30" x2="15.57" y2="42.29" gradientTransform="translate(4.45 2.51) scale(2.93129)"><stop offset="0" style="stop-color:#000;stop-opacity:1"/><stop offset="1" style="stop-color:#000;stop-opacity:0"/></linearGradient><linearGradient id="k" gradientUnits="userSpaceOnUse" x1="16" y1="2" x2="38.47" y2="42.41" gradientTransform="matrix(3.689 0 0 3.69377 -24.67 156.81)"><stop offset="0" style="stop-color:#fff;stop-opacity:1"/><stop offset="1" style="stop-color:#fff;stop-opacity:0"/></linearGradient><linearGradient id="m" gradientUnits="userSpaceOnUse" x1="24.26" y1="2.53" x2="24.83" y2="22.01" gradientTransform="matrix(1.34245 0 -.83737 1.72386 33.16 2.9)"><stop offset="0" style="stop-color:#fff;stop-opacity:1"/><stop offset="1" style="stop-color:#fff;stop-opacity:0"/></linearGradient><linearGradient id="n" gradientUnits="userSpaceOnUse" x1="16" y1="2" x2="32.93" y2="31.59" gradientTransform="matrix(2.91237 0 0 2.92558 -6.03 173.32)"><stop offset="0" style="stop-color:#fff;stop-opacity:1"/><stop offset="1" style="stop-color:#fff;stop-opacity:0"/></linearGradient><linearGradient id="o" gradientUnits="userSpaceOnUse" x1="24" y1="31.79" x2="30" y2="38.5" gradientTransform="matrix(1.993 0 0 2.07934 16.04 163.22)"><stop offset="0" style="stop-color:#729fcf;stop-opacity:1"/><stop offset="1" style="stop-color:#396ea7;stop-opacity:1"/></linearGradient><linearGradient id="p" gradientUnits="userSpaceOnUse" x1="17.73" y1="3.86" x2="27.06" y2="24.43" gradientTransform="matrix(2.91237 0 0 2.92558 -6.03 173.32)"><stop offset="0" style="stop-color:#fff;stop-opacity:1"/><stop offset="1" style="stop-color:#fff;stop-opacity:0"/></linearGradient><radialGradient id="f" gradientUnits="userSpaceOnUse" cx="16.49" cy="23.54" fx="16.49" fy="23.54" r="19" gradientTransform="matrix(5.83052 0 0 5.18612 -57.14 106.89)"><stop offset="0" style="stop-color:#73d216;stop-opacity:1"/><stop offset="1" style="stop-color:#4e9a06;stop-opacity:1"/></radialGradient><radialGradient id="l" gradientUnits="userSpaceOnUse" cx="21.14" cy="22.18" fx="21.14" fy="22.18" r="9" gradientTransform="matrix(2.93128 0 0 2.9323 -6.48 134.1)"><stop offset="0" style="stop-color:#fef291;stop-opacity:1"/><stop offset="1" style="stop-color:#edd400;stop-opacity:1"/></radialGradient><clipPath id="b"><path d="M0 0h192v152H0z"/></clipPath><clipPath id="d"><path d="M0 0h192v152H0z"/></clipPath><mask id="h"><g filter="url(#a)"><path style="fill:#000;fill-opacity:.137778;stroke:none" d="M0 0h128v128H0z"/></g></mask><mask id="j"><g filter="url(#a)"><path style="fill:#000;fill-opacity:.137778;stroke:none" d="M0 0h128v128H0z"/></g></mask><g id="g" clip-path="url(#b)"><path style="fill:url(#c);fill-rule:evenodd;stroke:none" d="M36.7 90.45c3.16.22 9.1 2.56 11.72 0-5.44 3.46-2.56 26.02-5.24 37.48-2.16-12.5-3.75-33.08-6.48-37.48zm0 0"/></g><g id="i" clip-path="url(#d)"><path style="fill:url(#e);fill-rule:evenodd;stroke:none" d="M107.04 90.45c-3.17.22-9.1 2.56-11.72 0 5.44 3.46 2.56 26.02 5.23 37.48 2.17-12.5 3.75-33.08 6.5-37.48zm0 0"/></g><filter id="a" filterUnits="objectBoundingBox" x="0" y="0" width="1" height="1"><feColorMatrix in="SourceGraphic" values="0 0 0 0 1 0 0 0 0 1 0 0 0 0 1 0 0 0 1 0"/></filter></defs><g transform="translate(10.6 14.27) scale(1.3996)"><path style="fill:url(#f);fill-rule:nonzero;stroke:#4c9905;stroke-width:2.93129;stroke-linecap:butt;stroke-linejoin:miter;stroke-miterlimit:4;stroke-opacity:1" d="M63.87 218.6c-28.32 0-54.23 15-54.23 24.7 0 4.52 18.42 1.93 19.06 5.9l4.57 30.94c0 2.96 1.56 5.28 3.58 5.28 18.35 4.74 36.38 4.67 53.95 0 2.01 0 3.66-2.32 3.66-5.28l4.58-30.95c.85-3.34 19.06-1.37 19.06-5.9 0-9.7-25.92-24.69-54.23-24.69zm0 0" transform="translate(0 -172)"/><use xlink:href="#g" transform="translate(-8 -16)" mask="url(#h)"/><use xlink:href="#i" transform="translate(-8 -16)" mask="url(#j)"/><path style="fill:none;stroke:url(#k);stroke-width:2.93129;stroke-linecap:butt;stroke-linejoin:miter;stroke-miterlimit:4" d="M63.87 221.53c-26.79 0-52.5 15.98-50.67 20.94.25.68 17.42.82 18.02 4.65l4.96 30c0 2.86.22 5.94 2.13 5.94 17.81 4.02 34.8 3.88 51.03 0 1.91 0 2.21-2.24 2.21-5.1l4.75-30.64c.8-3.22 17.41-2.52 17.82-5.69.77-5.94-23.46-20.1-50.25-20.1zm0 0" transform="translate(0 -172)"/><path style="fill:#000;fill-opacity:.0593608;fill-rule:nonzero;stroke:#fff;stroke-width:2.93129;stroke-linecap:butt;stroke-linejoin:miter;stroke-miterlimit:4;stroke-opacity:.423529" d="M80 233.26c0 6.47-7.23 11.72-16.13 11.72-8.9 0-16.12-5.25-16.12-11.72 0-6.48 7.21-11.73 16.12-11.73 8.9 0 16.12 5.25 16.12 11.73zm0 0" transform="translate(0 -172)"/><path style="fill:url(#l);fill-rule:nonzero;stroke:#c29e00;stroke-width:2.93129;stroke-linecap:butt;stroke-linejoin:miter;stroke-miterlimit:4;stroke-opacity:1" d="M63.87 177.56a24.93 24.93 0 0 0-13.49 45.9c4.5 5.12 2.5 3.45 3.23 9.73a3.03 3.03 0 0 0 3.02 3.02c5.34 4.1 10.1 3.66 14.48 0a3.03 3.03 0 0 0 3.02-3.02c.87-6.15-.4-5.37 2.82-9.48a24.92 24.92 0 0 0-13.08-46.15zm0 0" transform="translate(0 -172)"/><path style="fill:url(#m);fill-rule:nonzero;stroke:none" d="M59.1 24.62c-2.36 4.85-6.83 8.79-9.97 8.79-3.15 0-3.79-3.94-1.43-8.8 2.36-4.85 6.83-8.79 9.97-8.79 3.15 0 3.78 3.94 1.43 8.8zm0 0"/><path style="fill:none;stroke:url(#n);stroke-width:2.93129;stroke-linecap:butt;stroke-linejoin:miter;stroke-miterlimit:4" d="M63.87 180.5c-12.14 0-21.99 10.21-21.99 22.8 0 8.05 4.4 13.91 11.19 19.2 3.97 4.68 2.5 4.04 2.8 8.95 0 1.52.5 2 1.98 2 4.11 3.72 8.33 3.63 12.28-.13 1.47 0 1.6-.68 1.6-2.2.52-6.36.8-5.6 3.64-9.35 6.27-4.02 10.49-10.26 10.49-18.47 0-12.59-9.85-22.8-21.99-22.8zm0 0" transform="translate(0 -172)"/><path style="fill:url(#o);fill-rule:nonzero;stroke:#3363a3;stroke-width:2.93129;stroke-linecap:butt;stroke-linejoin:miter;stroke-miterlimit:4;stroke-opacity:1" d="M52.17 225.54c.92 1.61.93 3.27 1.44 7.62a3.01 3.01 0 0 0 2.98 3.04c5.3 4.1 10.05 3.67 14.4 0 1.66 0 3.2-1.32 3.2-2.99.57-4.05.8-6.65 1.4-8.07l-4.07 2.37H56.17Zm0 0" transform="translate(0 -172)"/><path style="fill:none;stroke:url(#p);stroke-width:2.93129;stroke-linecap:butt;stroke-linejoin:miter;stroke-miterlimit:4" d="m56.44 230.33.15 2.96h1.47c5.32 4.68 8.6 2.55 11.73-.02h1.14l.37-2.94zm0 0" transform="translate(0 -172)"/></g></svg>