<?xml version="1.0" encoding="UTF-8" standalone="no"?>
<svg
   width="200"
   height="200"
   version="1.1"
   id="svg20"
   sodipodi:docname="gentoo_linux.svg"
   inkscape:version="1.4.2 (ebf0e940d0, 2025-05-08)"
   xmlns:inkscape="http://www.inkscape.org/namespaces/inkscape"
   xmlns:sodipodi="http://sodipodi.sourceforge.net/DTD/sodipodi-0.dtd"
   xmlns:xlink="http://www.w3.org/1999/xlink"
   xmlns="http://www.w3.org/2000/svg"
   xmlns:svg="http://www.w3.org/2000/svg">
  <sodipodi:namedview
     id="namedview20"
     pagecolor="#ffffff"
     bordercolor="#666666"
     borderopacity="1.0"
     inkscape:showpageshadow="2"
     inkscape:pageopacity="0.0"
     inkscape:pagecheckerboard="0"
     inkscape:deskcolor="#d1d1d1"
     inkscape:zoom="3.0203922"
     inkscape:cx="49.662425"
     inkscape:cy="63.567904"
     inkscape:window-width="1916"
     inkscape:window-height="1032"
     inkscape:window-x="0"
     inkscape:window-y="22"
     inkscape:window-maximized="1"
     inkscape:current-layer="svg20" />
  <defs
     id="defs15">
    <linearGradient
       id="b">
      <stop
         offset="0"
         style="stop-color:#fff;stop-opacity:1"
         id="stop1" />
      <stop
         style="stop-color:#fff;stop-opacity:1"
         offset=".34"
         id="stop2" />
      <stop
         style="stop-color:#bebdf3;stop-opacity:1"
         offset=".52"
         id="stop3" />
      <stop
         offset=".75"
         style="stop-color:#867fb7;stop-opacity:1"
         id="stop4" />
      <stop
         style="stop-color:#9f99c7;stop-opacity:1"
         offset=".87"
         id="stop5" />
      <stop
         offset="1"
         style="stop-color:#524c76;stop-opacity:1"
         id="stop6" />
    </linearGradient>
    <linearGradient
       id="a">
      <stop
         offset="0"
         style="stop-color:#fff;stop-opacity:1"
         id="stop7" />
      <stop
         style="stop-color:#fff;stop-opacity:1"
         offset=".34"
         id="stop8" />
      <stop
         style="stop-color:#bebbdb;stop-opacity:1"
         offset=".52"
         id="stop9" />
      <stop
         offset=".75"
         style="stop-color:#928bbe;stop-opacity:1"
         id="stop10" />
      <stop
         style="stop-color:#9f99c7;stop-opacity:1"
         offset=".87"
         id="stop11" />
      <stop
         offset="1"
         style="stop-color:#524c76;stop-opacity:1"
         id="stop12" />
    </linearGradient>
    <linearGradient
       gradientTransform="matrix(1.23712,0,0,1.23712,-161.09,-377.34)"
       gradientUnits="userSpaceOnUse"
       y2="269.70999"
       x2="368.62"
       y1="697.44"
       x1="464.01999"
       id="e"
       xlink:href="#a" />
    <linearGradient
       gradientTransform="matrix(1.23712,0,0,1.23712,-1037.42,-1010.41)"
       gradientUnits="userSpaceOnUse"
       y2="1340.5601"
       x2="1099.6899"
       y1="-313.51999"
       x1="783.85999"
       id="d"
       xlink:href="#b" />
    <radialGradient
       r="218.02"
       fy="590.59003"
       fx="332.72"
       cy="590.59003"
       cx="332.72"
       gradientTransform="matrix(-0.06604,4.19027,-3.57375,-0.05627,2168.15,-1171.42)"
       gradientUnits="userSpaceOnUse"
       id="g"
       xlink:href="#a" />
    <radialGradient
       gradientUnits="userSpaceOnUse"
       gradientTransform="matrix(3.28737,0,0,2.51965,111.69,-642.72)"
       r="31.950001"
       fy="320.09"
       fx="49.529999"
       cy="320.09"
       cx="49.529999"
       id="f"
       xlink:href="#a" />
    <filter
       style="color-interpolation-filters:sRGB"
       id="h"
       x="-0.12897865"
       y="-0.42744812"
       width="1.2579573"
       height="1.8548963">
      <feFlood
         flood-opacity=".59"
         flood-color="#534779"
         result="flood"
         id="feFlood12" />
      <feComposite
         in="flood"
         in2="SourceGraphic"
         operator="in"
         result="composite1"
         flood-opacity=".52"
         id="feComposite12" />
      <feGaussianBlur
         in="composite1"
         stdDeviation="5.91"
         result="blur"
         id="feGaussianBlur12" />
      <feOffset
         result="offset"
         id="feOffset12" />
      <feComposite
         in="SourceGraphic"
         in2="offset"
         result="composite2"
         id="feComposite13" />
    </filter>
    <filter
       style="color-interpolation-filters:sRGB"
       id="c"
       x="-0.15457546"
       y="-0.14766285"
       width="1.3091509"
       height="1.2953257">
      <feFlood
         flood-opacity=".85"
         flood-color="#534779"
         result="flood"
         id="feFlood13" />
      <feComposite
         in="flood"
         in2="SourceGraphic"
         operator="in"
         result="composite1"
         id="feComposite14" />
      <feGaussianBlur
         in="composite1"
         stdDeviation="38.3"
         result="blur"
         id="feGaussianBlur14" />
      <feOffset
         result="offset"
         id="feOffset14" />
      <feComposite
         in="SourceGraphic"
         in2="offset"
         result="composite2"
         id="feComposite15" />
    </filter>
  </defs>
  <g
     transform="matrix(0.22323112,0,0,0.22323112,27.891369,24.821959)"
     style="filter:url(#c)"
     id="g19">
    <g
       style="display:inline"
       id="g15">
      <path
         d="m 25.76,521.91 c 0.07,-26.26 22.39,-62.92 54.1,-96.23 21.2,-22.26 42.74,-41.8 89.67,-81.81 C 137.06,326.06 86.58,304.57 61.24,276.42 51.87,266 34.88,242.42 38.17,210.89 44.9,146.64 124.2,49.14 236.91,28.53 c 37.5,-6.86 80.56,-1.9 116,14.02 111.18,49.99 247.15,174.17 263.88,234.8 5.88,21.34 4.75,55.36 -5.4,74.32 -12.58,23.5 -56.14,71.22 -115.72,120.47 -93.5,77.28 -224.53,160.25 -322.36,174.21 -31.6,4.51 -63.9,-0.2 -86.57,-12.98 -35.46,-20 -47.23,-46.72 -51.37,-54.73 -11,-21.3 -9.64,-48.27 -9.61,-56.73 z M 288.9,226.87 c 1.2,-14.89 59.6,-0.06 55.9,11.73 -3.89,12.44 -57.29,5.35 -55.9,-11.73 z"
         style="opacity:1;fill:url(#d);fill-opacity:1;fill-rule:evenodd;stroke:none;stroke-width:4;stroke-linecap:butt;stroke-linejoin:miter;stroke-miterlimit:4;stroke-opacity:1"
         id="path15" />
    </g>
    <g
       style="display:inline"
       id="g17">
      <path
         d="M 201.13,319.26 C 170.4,345.21 149.97,362.7 124.36,386.11 62.69,442.48 20.78,485.38 42.38,544.04 67.31,611.7 121.94,608.27 186.01,595.69 351.14,563.12 622.6,354.43 608.76,277.35 597.56,214.98 445.91,90.98 356.11,46.85 A 191.63,191.63 0 0 0 263.31,27.46 C 139.83,33.29 43.4,145.7 48.34,206.61 53.13,265.87 202.89,317.5 201.13,319.26 Z M 182.59,112.4 c -37.15,41.34 -13.4,121.31 48.22,164.9 72.1,51.01 188.84,60.25 212.07,20.91 43.34,-73.37 -3.98,-150.96 -74.6,-185.56 -69.8,-34.2 -162.53,-26.02 -185.69,-0.25 z"
         style="opacity:1;fill:url(#e);fill-opacity:1;fill-rule:evenodd;stroke:none;stroke-width:4;stroke-linecap:butt;stroke-linejoin:miter;stroke-miterlimit:4;stroke-dasharray:none;stroke-opacity:1"
         id="path16" />
      <path
         d="m 309.3,275.57 c 52.15,7.25 97.11,-13.64 104.14,-65.14 5.36,-39.24 -54.69,-82.1 -90.79,-91.99 -30.14,-8.26 -95.6,2.36 -100,59.38 -4.6,59.27 56.23,93.52 86.65,97.75 z M 283.75,177 c -34.28,53.1 49.77,69.43 62.64,59.75 C 401.87,194.99 298.86,153.6 283.75,177 Z"
         style="display:inline;opacity:1;fill:url(#f);fill-opacity:1;fill-rule:evenodd;stroke:none;stroke-width:4;stroke-linecap:butt;stroke-linejoin:miter;stroke-miterlimit:4;stroke-dasharray:none;stroke-opacity:1"
         id="path17" />
    </g>
    <g
       style="display:inline"
       id="g18">
      <path
         d="m 253.35,41.57 c -60.63,6.39 -72.24,14.2 -127.17,55.75 -18.41,13.93 -52.3,47.82 -60.98,88.03 -3.3,15.31 0.6,28.53 11.63,37.8 35.31,29.69 94.42,53.78 142.9,77.06 14.2,6.82 4.8,19.18 -18.1,39.01 -57.79,50.03 -135.92,110.94 -141.38,157.34 -2.57,21.87 4.92,51.59 31.46,66.8 31,17.76 95.37,6.16 138.35,-9.84 62.8,-23.39 145.3,-75 210.8,-125.74 C 508.98,375.02 572.31,308 575.44,297.08 579.28,283.65 578.9,271.26 571.48,257 559.82,234.62 544.23,218 527.5,199.38 482.6,152.04 435.09,110.44 378.24,78.57 337.2,55.55 301.08,36.54 253.35,41.57 Z m 89.07,106.13 c 43.8,21.18 88.79,76.8 -0.39,108.82 -24.25,8.71 -101.16,-21.38 -98.8,-62.44 3.43,-60.66 45.7,-72.24 99.2,-46.38 z"
         style="opacity:1;fill:url(#g);fill-opacity:1;fill-rule:evenodd;stroke:none;stroke-width:4;stroke-linecap:butt;stroke-linejoin:miter;stroke-miterlimit:4;stroke-dasharray:none;stroke-opacity:1"
         id="path18" />
    </g>
  </g>
</svg>
