<svg height="200" width="200" xmlns="http://www.w3.org/2000/svg"><linearGradient id="a" gradientUnits="userSpaceOnUse" x1="21.6" x2="106.4" y1="20.6" y2="105.4" gradientTransform="translate(-5 -5) scale(1.63934)"><stop offset="0" stop-color="#fff" stop-opacity=".4"/><stop offset="1" stop-color="#fff" stop-opacity="0"/></linearGradient><path d="M198.4 101.6a98.4 98.4 0 1 1-196.8 0 98.4 98.4 0 0 1 196.8 0zm0 0" fill="gray" style="stroke-width:1.63934"/><path d="M198.4 98.4a98.4 98.4 0 1 1-196.8 0 98.4 98.4 0 0 1 196.8 0zm0 0" fill="#b3b3b3" style="stroke-width:1.63934"/><g fill="#989898"><path d="M116.4 49.2a29.5 29.5 0 1 1-59 0 29.5 29.5 0 0 1 59 0zm-4.9-27.1a2.5 2.5 0 1 1-5 0 2.5 2.5 0 0 1 5 0zm0 0"/><path d="M149.2 65.6a16.4 16.4 0 1 1-32.8 0 16.4 16.4 0 0 1 32.8 0zm0 0"/><path d="M165.6 95a23 23 0 1 1-46 0 23 23 0 0 1 46 0zm22.9 3.4a9.8 9.8 0 1 1-19.7 0 9.8 9.8 0 0 1 19.7 0zm0 0"/><path d="M178.7 131.1a16.4 16.4 0 1 1-32.8 0 16.4 16.4 0 0 1 32.8 0zm-36.1 9.9a9.8 9.8 0 1 1-19.7 0 9.8 9.8 0 0 1 19.7 0zM123 82a13.1 13.1 0 1 1-26.3 0 13.1 13.1 0 0 1 26.3 0zm-52.5 42.6a16.4 16.4 0 1 1-32.8 0 16.4 16.4 0 0 1 32.8 0zm-32.8-3.3a9.8 9.8 0 1 1-19.7 0 9.8 9.8 0 0 1 19.7 0zm32.8-55.7a29.5 29.5 0 1 1-59 0 29.5 29.5 0 0 1 59 0zm0 0"/><path d="M93.4 85.2a13.1 13.1 0 1 1-26.2 0 13.1 13.1 0 0 1 26.2 0zM63.1 29.5a12.3 12.3 0 1 1-24.6 0 12.3 12.3 0 0 1 24.6 0zm89.4 3.3a9.8 9.8 0 1 1-19.7 0 9.8 9.8 0 0 1 19.7 0zm16.4 6.5a1.6 1.6 0 0 1-3.3 0 1.6 1.6 0 0 1 3.3 0zm23.6 36.1a2.3 2.3 0 1 1-4.6 0 2.3 2.3 0 0 1 4.6 0zm-4-4.9a1.6 1.6 0 0 1-3.3 0 1.6 1.6 0 0 1 3.3 0zm-9.8-3.3a1.6 1.6 0 0 1-3.3 0 1.6 1.6 0 0 1 3.3 0zm.8 11.5a2.5 2.5 0 1 1-5 0 2.5 2.5 0 0 1 5 0zM41 136a3.3 3.3 0 1 1-6.6 0 3.3 3.3 0 0 1 6.6 0zm106.5 39.4a3.3 3.3 0 1 1-6.5 0 3.3 3.3 0 0 1 6.5 0zM159 164a3.3 3.3 0 1 1-6.5 0 3.3 3.3 0 0 1 6.5 0zm-55.7-26.3a1.6 1.6 0 0 1-3.3 0 1.6 1.6 0 0 1 3.3 0zm-18.1-22.9a3.3 3.3 0 1 1-6.5 0 3.3 3.3 0 0 1 6.5 0zm-18-9.8a19.7 19.7 0 1 1-39.3 0 19.7 19.7 0 0 1 39.3 0zm0 0"/></g><path d="M50.8 17.2c-6.8 0-12.3 5.5-12.3 12.3l.3 2c.7-6.2 5.8-11 12-11 6 0 11.2 4.4 12.1 10.4l.2-1.4c0-6.8-5.5-12.3-12.3-12.3zm36 2.5c-9.4 0-18.2 4.6-23.7 12.3v.8c0 1-.1 1.9-.3 2.8a29.5 29.5 0 0 1 53.6 13.6 29.5 29.5 0 0 0-29.5-29.5zm22.2 0a2.5 2.5 0 0 0-2.4 2.4c0 .6.2 1.2.6 1.7.5-.5 1.1-.8 1.8-.8s1.3.2 1.8.7c.4-.4.7-1 .7-1.6 0-1.3-1.1-2.4-2.5-2.4zm33.6 3.3a9.8 9.8 0 0 0-9.8 9.8l.3 1.6a9.8 9.8 0 0 1 9.5-8.2c4.7 0 8.6 3.3 9.6 7.8l.3-1.2c0-5.4-4.4-9.8-9.9-9.8zM39 36.3a29.5 29.5 0 0 0-27.5 29.3c0 .5 0 1 .2 1.5a29.5 29.5 0 0 1 28.7-27.7c-.6-1-1-2-1.4-3.1zm128.2 1.4a1.6 1.6 0 0 0 0 3.3 1.6 1.6 0 0 0 0-3.3zM59.6 41.3c-1 1-2 1.8-3.2 2.4l2 1.3a30 30 0 0 1 1.2-3.7zm73.2 7.9a16.4 16.4 0 0 0-16.2 18.4 16.3 16.3 0 0 1 32.4-.8l.2-1.2c0-9-7.4-16.4-16.4-16.4zM177 65.6a1.6 1.6 0 0 0 0 3.3 1.6 1.6 0 0 0 0-3.3zm9.9 3.3a1.6 1.6 0 0 0 0 3.2 1.6 1.6 0 0 0 0-3.2zm-76 .1a22 22 0 0 1-2.1 3.2h1c2.8 0 5.4.8 7.7 2.4a17 17 0 0 1-1-3.7A13 13 0 0 0 111 69zm37.7 4-1 3a23 23 0 0 1 17.7 20.8l.3-1.7a23 23 0 0 0-17-22zm41.6.1a2.3 2.3 0 0 0-1.6 4 2.3 2.3 0 0 1 3.2 0c.4-.5.7-1 .7-1.7 0-1.3-1-2.3-2.3-2.3zM177 76.2a2.5 2.5 0 0 0-2.4 2.5c0 .6.2 1.2.7 1.6.4-.5 1-.8 1.7-.8s1.4.3 1.8.8c.5-.4.7-1 .7-1.6 0-1.4-1-2.5-2.5-2.5zm-106.5.6c-2 2.4-3.2 5.3-3.3 8.4 0 .6.2 1.1.3 1.7a13 13 0 0 1 5-8.8l-2-1.3zm27.4 3-1 .2-.2 2 .2 1.3a14 14 0 0 1 1-3.5zm-5.1 1.4-1.3.4a13 13 0 0 1 1.7 5.2l.2-1.6a13 13 0 0 0-.6-4zm29.6.3.4 2 .2-1.5v-.1l-.6-.4zm1.3.8-.9 1.2a13.8 13.8 0 0 1 0 3.3c.7-1.2 1.5-2.4 2.5-3.4l-1.6-1zm55 6.2a9.8 9.8 0 0 0-9.8 9.9l.3 1.6a9.8 9.8 0 0 1 9.5-8.2 10 10 0 0 1 9.6 7.8l.2-1.2c0-5.5-4.4-9.9-9.8-9.9zm-118 2-1.8 1.7c4.7 3.4 7.7 8.7 8.1 14.5l.2-1.8c0-5.5-2.4-10.7-6.5-14.4zm59.7 2.5-.5.5-.2 1.6c0 .5 0 1 .2 1.6 0-1.2.2-2.5.5-3.7zm-90.1 3.1a19.7 19.7 0 0 0-2.4 8.8c0 .7 0 1.4.2 2 .2-3.6 1.4-7.1 3.5-10.1l-1.3-.7zm-2.4 15.4a9.8 9.8 0 0 0-9.9 9.8l.4 1.7a9.8 9.8 0 0 1 10.7-8.2 20 20 0 0 1-1-3.3H28zm54 0a3.3 3.3 0 0 0-2.8 4.9c.6-1 1.7-1.6 2.9-1.6 1.1 0 2.2.6 2.8 1.6.3-.5.4-1 .4-1.6 0-1.9-1.4-3.3-3.2-3.3zm-15.6 2.3-.8 2.3c2.7 2.7 4.4 6.2 4.8 10l.2-1.5c0-4-1.6-7.8-4.2-10.8zm96 1c-1.6 0-3.1.2-4.6.7-2 1.7-4.2 3-6.7 4-3.2 3-5 7.2-5.1 11.6 0 .6.1 1.1.3 1.7.8-8.3 7.7-14.7 16-14.8 8.3 0 15.2 6 16.3 14.2l.2-1c0-9.1-7.4-16.4-16.4-16.4zM37.8 125.2v.5l.1-.4zm95 6a9.8 9.8 0 0 0-9.8 9.8l.3 1.6a9.8 9.8 0 0 1 9.5-8.2 10 10 0 0 1 9.6 7.8l.2-1.2c0-5.4-4.4-9.9-9.8-9.9zm-95.1 1.6a3.3 3.3 0 0 0-2.8 4.9 3.3 3.3 0 0 1 5.7 0v-.5c-.9-1.3-1.6-2.8-2.1-4.3l-.8-.1zm64 3.3a1.6 1.6 0 0 0 0 3.2 1.6 1.6 0 0 0 0-3.2zm54 24.6a3.3 3.3 0 0 0-2.8 4.9c.6-1 1.7-1.7 2.8-1.7 1.2 0 2.3.7 2.9 1.7.3-.5.4-1 .4-1.7 0-1.8-1.5-3.2-3.3-3.2zM144.3 172a3.3 3.3 0 0 0-2.9 5c.6-1 1.7-1.7 2.9-1.7 1.1 0 2.2.6 2.8 1.7.3-.5.4-1.1.4-1.7 0-1.8-1.4-3.3-3.2-3.3zm0 0" fill="#77767b" style="stroke-width:1.63934"/><path d="m65.8 124.8 4.7-10-2.5 12.4-.1 11 5 2.6 5.8-3.1 6.5-1.6 3.3-3.3-1.6-3.3-1.7-1.6 13.2-13.1h3.2-3.2l-11.5 13 3.3 6.6-5 1.7-8.2 3.2 1.7 1.7H82l3.2 3.3-1.6 1.6 6.6-1.6 6.5-9.9 1.7-4.9h3.2-1.6l-1.6 3.3-1.7 1.6-3.3 6.6-4.9 4.9h-3.3l-1.6 1.6v3.3l1.6 1.7 3.3 1.6h5l16.3-3.3 6.6-1.6 5-3.3h6.5l-41 14.8-1.7 1.6 3.3 1.6 8.2 1.7 1.7 3.3H82l-3.3 1.6v3.3l-3.3 1.6-3.3-1.6h-1.6l-5 1.6-3.2 1.6 3.3 5v3.2l-6.6-1.6h-3.3l-1.6-6.6-3.3-1.6-1.6-3.3h-1.7l-4.9 5-1.6-1.7 1.6-3.3 1.7-1.6 1.6-3.3-5-4.9V159l-4.8-1.6h-8.2l-3.3-1.7 1.6-1.6 6.6 3.3 8.2-1.7-1.7-1.6-8.2-3.3-1.6-3.3-6.5-4.9-5-6.5-1.6-3.3-3.3-5 1.7-1.6 1.6 3.3 6.6 9.8 4.9 3.3 6.5 5h8.2l3.3-3.3V141l-1.6-3.3-3.3-5-1.7-6.5-1.1-7.4-2-13.2 2.7 15.2 3.5 9.6 6.8 10.7 11.3-1.1zm0 0" fill="#fff" fill-opacity=".2" stroke="#b4b4b4" stroke-width=".3"/><path d="M75.4 157.4a16.4 16.4 0 1 1-32.8 0 16.4 16.4 0 0 1 32.8 0zm0 0" fill="#fff" fill-opacity=".1" style="stroke-width:1.63934"/><path d="M62.3 157.4a3.3 3.3 0 1 1-6.6 0 3.3 3.3 0 0 1 6.6 0zm0 0" fill="#f5f5f5" fill-opacity=".3" style="stroke-width:1.63934"/><path d="M198.4 98.4a98.4 98.4 0 1 1-196.8 0 98.4 98.4 0 0 1 196.8 0zm0 0" fill="url(#a)" style="fill:url(#a);stroke-width:1.63934"/></svg>