<svg width="200" height="200" xml:space="preserve" xmlns="http://www.w3.org/2000/svg"><path fill="#5a8039" d="M114.15 61.48c6.72 0 10.22 3.38 10.22 3.38l-1.99 2.94s-3.14-2.74-7.91-2.74c-6.6 0-10.57 4.8-10.57 10.81 0 6.52 4.45 11.01 10.33 11.01 4.85 0 7.95-3.5 7.95-3.5v-4.05h-4.57V75.9h8.15v14.11h-3.46v-1.75c0-.6.04-1.19.04-1.19h-.08s-3.06 3.42-8.62 3.42c-7.56 0-13.8-5.96-13.8-14.55 0-8.11 6.12-14.47 14.31-14.47zm26.35 7.95c6.01 0 10.86 4.41 10.86 10.5 0 6.12-4.85 10.57-10.85 10.57s-10.86-4.45-10.86-10.58c0-6.08 4.85-10.49 10.86-10.49zm0 17.73c3.82 0 6.92-3.02 6.92-7.24 0-4.17-3.1-7.15-6.91-7.15a6.93 6.93 0 0 0-6.92 7.15c0 4.22 3.14 7.24 6.92 7.24zm24.81-17.73c6 0 10.85 4.41 10.85 10.5 0 6.12-4.85 10.57-10.85 10.57s-10.85-4.45-10.85-10.58c0-6.08 4.85-10.49 10.85-10.49zm0 17.73c3.82 0 6.92-3.02 6.92-7.24 0-4.17-3.1-7.15-6.92-7.15a6.93 6.93 0 0 0-6.91 7.15c0 4.22 3.14 7.24 6.91 7.24zm23.22-17.73c4.65 0 6.2 3.18 6.2 3.18h.08s-.08-.6-.08-1.35v-9.3h3.85v28.06h-3.65v-1.9c0-.8.04-1.36.04-1.36h-.08s-1.63 3.74-6.6 3.74c-5.45 0-8.87-4.3-8.87-10.54 0-6.4 3.78-10.53 9.1-10.53zm.51 17.73c2.98 0 5.8-2.1 5.8-7.24 0-3.57-1.86-7.15-5.68-7.15-3.18 0-5.8 2.62-5.8 7.2 0 4.37 2.35 7.19 5.68 7.19z"/><path fill="#544741" d="M100 126.67h3.5v-21.9H100v-3.06h12.76c2.03 0 3.54.2 4.93.83 2.22 1 3.86 3.3 3.86 6.32a6.54 6.54 0 0 1-3.54 6.05v.07c3.02.88 4.65 3.62 4.65 6.8 0 3.7-2.27 6.48-5.17 7.48-1.35.43-2.66.51-4.21.51H100zm13.36-13.15c2.54 0 4.13-1.75 4.13-4.3 0-1.63-.63-3.02-1.83-3.7-.8-.4-1.7-.55-2.9-.55h-5.29v8.55zm.08 13c.8 0 1.75-.09 2.5-.4 1.63-.68 2.66-2.43 2.66-4.53 0-2.9-1.9-4.82-4.85-4.82h-6.28v9.74zm15.99 8.38c1.71 0 3.03-1.19 3.7-2.78l.84-1.99-7.04-17.49h-2.54v-2.98h9.18v2.98h-2.66l4.49 11.97c.28.87.35 1.75.35 1.75h.13s.15-.88.47-1.75l4.45-11.97h-2.58v-2.98h8.9v2.98h-2.5l-7.95 20.31c-1.35 3.42-3.97 5.17-7.08 5.17-2.58 0-4.33-1.27-4.33-1.27l1.31-2.9s1.16.95 2.86.95zm22.6-22.26h-3.37v-2.98h3.45v-5.53h3.78v5.53h4.81v2.98h-4.8v9.42c0 4.1 2.77 4.61 4.28 4.61.56 0 .92-.04.92-.04v3.22s-.56.08-1.4.08c-2.54 0-7.67-.8-7.67-7.51v-9.78zm20.23-3.46c5.72 0 8.7 4.21 8.7 9.43 0 .51-.12 1.46-.12 1.46h-14.7c.23 4.46 3.37 6.84 6.95 6.84 3.5 0 6-2.27 6-2.27l1.6 2.83s-3.03 2.78-7.84 2.78c-6.32 0-10.65-4.57-10.65-10.53 0-6.4 4.33-10.54 10.06-10.54zm4.73 8.43c-.12-3.54-2.27-5.37-4.82-5.37-2.94 0-5.32 2-5.88 5.37zm6.57 5.69h3.38v1.3c0 1.72 2.39 2.51 4.61 2.51 2.27 0 4.06-.91 4.06-2.58 0-2.03-2.23-2.67-5.01-3.66-2.98-1.11-6.28-2.47-6.28-6.12 0-3.98 3.93-5.57 7.43-5.57 2.82 0 6.96 1.12 6.96 4.06v2.42h-3.38v-1.31c0-1.23-1.6-2.07-3.54-2.07-1.9 0-3.58.8-3.58 2.43 0 1.9 2.23 2.7 4.65 3.53 3.1 1.04 6.64 2.35 6.64 6.09 0 3.81-3.5 5.92-8.07 5.92-3.65 0-7.87-1.63-7.87-4.8z"/><g transform="translate(-24.26 37.69) scale(.15528)"><linearGradient id="a" gradientUnits="userSpaceOnUse" x1="415.42" y1="144" x2="415.42" y2="656"><stop offset="0" style="stop-color:#8bc541"/><stop offset=".75" style="stop-color:#5a8039"/></linearGradient><path fill="url(#a)" style="fill:url(#a)" d="M159.43 144h512v512h-512z"/><path opacity=".4" fill="#fff" d="M159.43 144h256v128h-256z"/><path opacity=".3" fill="#fff" d="M415.42 144h256v128h-256zM159.43 272h256v128h-256z"/><path opacity=".2" fill="#fff" d="M415.42 272h256v128h-256zM159.43 400h256v128h-256z"/><path opacity=".1" fill="#fff" d="M415.42 400h256v128h-256zM159.43 528h256v128h-256z"/></g><path fill="#fff" d="M42.33 73.91c12.09 0 18.39 6.07 18.39 6.07l-3.58 5.28s-5.65-4.93-14.24-4.93c-11.88 0-19.03 8.64-19.03 19.41 0 11.7 8.01 19.76 18.6 19.76 8.73 0 14.31-6.27 14.31-6.27v-7.28h-8.23V99.8h14.67v25.34H57V122c0-1.07.07-2.14.07-2.14h-.15S51.42 126 41.4 126c-13.6 0-24.83-10.7-24.83-26.12 0-14.55 11.02-25.97 25.76-25.97z"/></svg>