<svg width="200" height="200" xmlns="http://www.w3.org/2000/svg"><path fill="#e44d26" d="M46.075 219.563 30 39.5h176.2l-16.075 180.063L118.1 239.5" style="stroke-width:.486762" transform="matrix(.8 0 0 .8 5.52 -11.6)"/><path fill="#f16529" d="M118.1 224.423V54.079h72.025l-13.707 153.77" style="stroke-width:.486762" transform="matrix(.8 0 0 .8 5.52 -11.6)"/><path fill="#ebebeb" d="M62.648 76.011H118.1v22.43H86.947l1.994 22.305H118.1v22.43H68.505m.872 10.592h22.43l1.495 18.069 24.798 6.23v23.427L72.866 188.91" style="stroke-width:.486762" transform="matrix(.8 0 0 .8 5.52 -11.6)"/><path fill="#fff" d="M173.552 76.011H118.1v22.43h53.084m-1.993 22.305H118.1v22.43h27.29l-2.492 28.66-24.798 6.231v22.929l45.234-12.087" style="stroke-width:.486762" transform="matrix(.8 0 0 .8 5.52 -11.6)"/></svg>