<svg width="200" height="200" xml:space="preserve" xmlns="http://www.w3.org/2000/svg"><ellipse style="color:#000;clip-rule:nonzero;display:inline;overflow:visible;visibility:visible;isolation:auto;mix-blend-mode:normal;color-interpolation:sRGB;color-interpolation-filters:linearRGB;solid-color:#000;solid-opacity:1;vector-effect:none;fill:#fff;fill-opacity:.883721;fill-rule:evenodd;stroke:none;stroke-width:1.48365;stroke-linecap:butt;stroke-linejoin:miter;stroke-miterlimit:4;stroke-dasharray:none;stroke-dashoffset:0;stroke-opacity:1;marker:none;marker-start:none;marker-mid:none;marker-end:none;color-rendering:auto;image-rendering:auto;shape-rendering:auto;text-rendering:auto;enable-background:accumulate" cx="74" cy="122.7" rx="47.9" ry="82" transform="matrix(.96525 -.26134 .23269 .97255 0 0)"/><path style="color:#000;overflow:visible;fill:#b0381e;fill-opacity:1;fill-rule:evenodd;stroke-width:3.03285;stroke-linecap:round;stroke-linejoin:round;paint-order:markers fill stroke;stop-color:#000" d="M97.5 42.2a107 107 0 0 0-.5 27.1 61 61 0 0 0-20-18.2 99 99 0 0 0 10.5 20.5c-8.2-4.6-16.5-8-25-8.6C68 68 73.8 72.7 80 77.6a60 60 0 0 0-24.5 2.6c9.2 3.5 19.6 6.2 30.1 7-9.4 1.9-18.4 6-26.6 13.2 17.7-.8 32.7-4.2 44.8-10.6l1.4 2.4c-.3 1.5-.9 3-2.2 4.5a26 26 0 0 1 4.8-.4l1.5 2.7c.3 2.2.5 4.5.2 6.5l2.2-2.5a70.6 70.6 0 0 1 6.3 12.4c-.8.2-1.5.3-2.4.2l1.7 2.2c-1 2-2.9 5-4.8 8.2l-3.1.2c.8 1 1.1 1.8 1.4 2.5-1.2 2-2.3 4-3 5.6-1.3 0-2.7 0-5.2.3 1.3 1.2 2.8 2 3.7 3.4l-1.3 3.8c-.2.7-.2 1.6-.1 2.5-1.2.9-2.4 1.8-3.9 3.2 1.6 0 3.7-.2 4.5.1 1 3.5 2.8 7.1 3.6 8.5 3.1 4.8 3 6 8.8 5.2-2.5-3.7-10-13.3-10-17 0-2.8.7-5.5 2.2-8.5l.8-1.6c1.3-.4 3-.4 4.6-.3a7.3 7.3 0 0 1-2.8-2.8l3.8-6c1.8-1 3.5-1 5.2-1-1.2-.8-2.1-1.8-3-2.9.5-1 1-2 1.1-3 .4-1.5.8-2.7.6-3.8a14 14 0 0 0-1.2-3.3c-.2-3.7.5-4.7 1.6-6.2a9.3 9.3 0 0 1-4 1.6c-1.2-2.6-2.6-5.2-4-7.9a8 8 0 0 1 2.2-4l-3.9.8-4-7.4A58 58 0 0 0 132 57.8c-6 2.4-11.6 7-17.1 12.3a81 81 0 0 0 4.4-24 66.4 66.4 0 0 0-13.6 22 61.9 61.9 0 0 0-8.2-25.9z"/></svg>