<svg height="200" width="200" xmlns:xlink="http://www.w3.org/1999/xlink" xmlns="http://www.w3.org/2000/svg"><defs><radialGradient xlink:href="#a" id="g" cx="97.35" cy="925.56" fx="97.35" fy="925.56" r="59.35" gradientTransform="matrix(0 .60524 -1.40606 0 1387.3 13.8)" gradientUnits="userSpaceOnUse"/><radialGradient xlink:href="#a" id="h" gradientUnits="userSpaceOnUse" gradientTransform="matrix(0 .5404 -1.24294 0 1251.25 -7.28)" cx="95.81" cy="937.54" fx="95.81" fy="937.54" r="59.35"/><radialGradient id="b" gradientUnits="userSpaceOnUse" cy="256" cx="256" gradientTransform="matrix(2.2585 .02063 -.02134 2.336 -316.73 -347.29)" r="249.14"><stop stop-color="#30c357" offset="0"/><stop offset=".5" stop-color="#2cb465"/><stop stop-color="#32a482" offset="1"/></radialGradient><radialGradient xlink:href="#a" id="f" cx="88.75" cy="123.03" fx="88.75" fy="123.03" r="78.3" gradientTransform="matrix(.0185 .69918 -.87157 .02307 195.08 22.93)" gradientUnits="userSpaceOnUse"/><linearGradient id="a"><stop offset="0" stop-opacity=".42"/><stop offset="1" stop-opacity="0"/></linearGradient><linearGradient xlink:href="#b" id="e" gradientUnits="userSpaceOnUse" x1="127.99" y1="808.97" x2="127.99" y2="1033.5" gradientTransform="translate(1.66 -518.36) scale(.6485)"/><linearGradient xlink:href="#b" id="d" gradientUnits="userSpaceOnUse" x1="127.99" y1="808.97" x2="127.99" y2="1033.5" gradientTransform="translate(1.66 -518.36) scale(.6485)"/><filter id="c" x="-.04" width="1.08" y="-.04" height="1.08" color-interpolation-filters="sRGB"><feGaussianBlur stdDeviation="3.89"/></filter></defs><g transform="translate(69.22 15.49) scale(.64143)" opacity=".51" fill-opacity=".51" filter="url(#c)"><path d="M48 16.37c-62.7 0-113.5 50.82-113.5 113.5 0 15.92 3.28 31.07 9.2 44.82 2.87 7.87 5.72 15.73 6.71 22.27 1.01 6.64.11 11.94-1.16 15.36-1.26 3.42-2.9 4.95-4.16 8.5-1.27 3.55-2.16 9.1.77 13.32 2.93 4.21 9.68 7.08 22.17 9.28 12.5 2.2 30.73 3.72 46.63 3.72a270.18 270.18 0 0 0 57.68-6.4l1.66-.37.37-.08h-.01c49.97-11.9 87.13-56.81 87.13-110.42 0-62.68-50.81-113.5-113.5-113.5z" fill-opacity="1" paint-order="stroke fill markers"/></g><g fill="#1f6d52"><path d="M171.52 97.51a72.8 72.8 0 1 1-145.6 0 72.8 72.8 0 0 1 145.6 0z" paint-order="stroke fill markers"/><path d="M115.64 168.34c-3.57.8-7.13 1.61-13.27 2.5-6.13.9-14.84 1.89-25.04 1.89s-21.89-.98-29.9-2.39c-8.01-1.4-12.34-3.25-14.22-5.95-1.88-2.7-1.3-6.27-.5-8.54.81-2.28 1.86-3.26 2.67-5.46.82-2.19 1.4-5.59.75-9.85-.65-4.26-2.53-9.39-4.4-14.52"/></g><path d="M157.47 79.05a72.8 72.8 0 1 1-145.61 0 72.8 72.8 0 0 1 145.6 0z" fill="url(#d)" paint-order="stroke fill markers" style="fill:url(#d);stroke-width:.641435" transform="translate(14.05 15.25)"/><path d="M101.58 149.88c-3.56.8-7.12 1.61-13.26 2.5-6.13.9-14.84 1.89-25.04 1.89s-21.9-.98-29.9-2.39c-8.02-1.4-12.35-3.25-14.18-5.28-1.84-2.03-1.17-4.24-.36-6.52.8-2.28 1.77-4.6 2.53-7.47.77-2.87 1.35-6.27.7-10.53-.65-4.26-2.52-9.39-4.4-14.52" fill="url(#e)" style="fill:url(#e);stroke-width:.641435" transform="translate(14.05 15.25)"/><path d="m123.29 104.54-52.71 12.72-12.82-12.85s-8.39 8.5-11.59 12.68l29.52 30.03 9.13 4.73c6.48-.89 12.66-2 18.48-3.38h.02c17.45-4.67 31.21-12.4 40.74-23.17z" fill="url(#f)" style="fill:url(#f);stroke-width:.641435" transform="translate(14.05 15.25)"/><path d="M134.36 74.8 34.41 86.74 53.65 106l94.53 14.1a60.71 60.71 0 0 0 9.54-21.95z" fill="url(#g)" style="fill:url(#g);stroke-width:.641435" transform="translate(14.05 15.25)"/><path d="m123.45 45.8 28.86 28.87-91.44-1.82-15.4-15.4Z" fill="url(#h)" style="fill:url(#h);stroke-width:.641435" transform="translate(14.05 15.25)"/><g transform="translate(-40.33 -424) scale(.6485)" fill="#c1ede5"><rect x="150.87" y="744.15" width="127.26" height="26.48" ry="13.24" rx="13.24"/><rect x="133.62" y="789.12" width="161.61" height="26.48" ry="13.24" rx="13.24"/><rect x="186.23" y="834.92" width="91.83" height="26.48" ry="13.24" rx="13.24"/><rect x="150.8" y="834.92" width="26.48" height="26.48" ry="13.24" rx="13.24"/></g></svg>