<svg width="200" height="200" xmlns:xlink="http://www.w3.org/1999/xlink" xmlns="http://www.w3.org/2000/svg"><defs><linearGradient id="a" x1="-44.39" x2="-14.39" gradientUnits="userSpaceOnUse" gradientTransform="translate(58.79 33.94)"><stop stop-color="#b0b8b8"/><stop offset="1" stop-color="#eff1f1"/></linearGradient><linearGradient id="f" y1="13" y2="32.13" x1="17.43" x2="36.55" gradientUnits="userSpaceOnUse" gradientTransform="translate(-19.45 -19.45) scale(4.97698)"><stop stop-color="#abf9c7"/><stop offset="1" stop-color="#54d883"/></linearGradient><linearGradient id="e" y1="32.72" y2="12.32" x1="33.4" gradientUnits="userSpaceOnUse" x2="17.76" gradientTransform="translate(-19.45 -19.45) scale(4.97698)"><stop stop-color="#197cf1"/><stop offset="1" stop-color="#20bcfa"/></linearGradient><linearGradient xlink:href="#a" id="c" y1="15.78" x1="3.24" y2="37" x2="40" gradientUnits="userSpaceOnUse" gradientTransform="rotate(-165 24 24)"/><linearGradient id="d" y1="23" x1="24" y2="39" x2="40" gradientUnits="userSpaceOnUse"><stop stop-color="#292c2f"/><stop offset="1" stop-opacity="0"/></linearGradient><linearGradient xlink:href="#a" id="b" gradientUnits="userSpaceOnUse" gradientTransform="translate(58.79 33.94)" x1="-44.39" x2="-14.39"/></defs><g transform="matrix(.80389 0 0 .80399 19.613 19.613)"><g color="#000"><g stroke-linejoin="round" stroke-width="3" transform="translate(-19.45 -19.45) scale(4.97698)"><circle fill="url(#a)" cx="29.39" cy="16.97" r="15" transform="rotate(15)" style="fill:url(#b)"/><path fill="url(#c)" d="M21.95 43.88a20 20 0 0 0 4.1.01l.47-3.1a17 17 0 0 0 3.7-.99l1.95 2.45a20 20 0 0 0 3.55-2.06l-1.14-2.91a17 17 0 0 0 2.71-2.7l2.9 1.13a20 20 0 0 0 2.04-3.55l-2.42-1.94a17 17 0 0 0 .61-1.82 17 17 0 0 0 .37-1.88l3.1-.47a20 20 0 0 0 0-4.1l-3.1-.47a17 17 0 0 0-.99-3.7l2.45-1.95a20 20 0 0 0-2.06-3.55l-2.9 1.14a17 17 0 0 0-2.7-2.71l1.12-2.9a20 20 0 0 0-3.55-2.04l-1.94 2.42a17 17 0 0 0-1.82-.61 17 17 0 0 0-1.88-.37l-.47-3.1a20 20 0 0 0-4.1 0l-.47 3.1a17 17 0 0 0-3.7.99l-1.95-2.44a20 20 0 0 0-3.55 2.05l1.14 2.91a17 17 0 0 0-2.71 2.7l-2.9-1.13a20 20 0 0 0-2.04 3.55l2.42 1.94a17 17 0 0 0-.61 1.82 17 17 0 0 0-.37 1.88l-3.1.47a20 20 0 0 0 0 4.1l3.1.47a17 17 0 0 0 .99 3.7l-2.45 1.95a20 20 0 0 0 2.06 3.55l2.9-1.14a17 17 0 0 0 2.7 2.71l-1.12 2.9a20 20 0 0 0 3.55 2.04l1.94-2.42a17 17 0 0 0 1.82.61 17 17 0 0 0 1.88.37zm-1.57-6.36a14 14 0 0 1-9.9-17.14 14 14 0 0 1 17.14-9.9 14 14 0 0 1 9.9 17.14 14 14 0 0 1-17.14 9.9" style="fill:url(#c)"/></g><path opacity=".2" fill-rule="evenodd" d="M33.19 14.8 14.8 33.2l10.74 10.73.5-.04.48-3.1c1.26-.19 2.5-.52 3.69-.98l1.96 2.44a19.98 19.98 0 0 0 3.54-2.06l-1.13-2.9c1-.8 1.9-1.7 2.7-2.7l2.9 1.12c.8-1.1 1.5-2.3 2.05-3.55l-2.42-1.94a17.1 17.1 0 0 0 .98-3.7l3.09-.47.04-.51z" fill="url(#d)" style="fill:url(#d)" transform="translate(-19.45 -19.45) scale(4.97698)"/><path opacity=".2" fill="#172525" d="m189 55.8-10.34 8.3c.48 1.29.93 2.58 1.35 3.9l10.8-8.67a94.16 94.16 0 0 0-1.8-3.52m-177.97.02a107 107 0 0 0-1.78 3.54l10.72 8.6c.4-1.32.85-2.62 1.33-3.9zM.63 97.45c-.14 4.25-.02 8.5.38 12.73l15.44 2.37A84.44 84.44 0 0 0 20 127l1.34-1.08a84.21 84.21 0 0 1-4.9-18.35L1.01 105.2a98.38 98.38 0 0 1-.37-7.76m198.75.1a98.44 98.44 0 0 1-.42 7.66l-15.4 2.37a83.99 83.99 0 0 1-1.84 9.34 84.97 84.97 0 0 1-3.02 9.05l1.34 1.07c.61-1.7 1.18-3.41 1.69-5.15a84.7 84.7 0 0 0 1.84-9.34l15.4-2.36c.4-4.2.54-8.42.41-12.64m-10.41 41.61a99.6 99.6 0 0 1-8.42 14.15l-14.4-5.61a84.65 84.65 0 0 1-13.48 13.41l1.45 3.7a84.85 84.85 0 0 0 12.03-12.13l14.4 5.6a99.3 99.3 0 0 0 10.21-17.68zM11 139.18l-1.8 1.45a99.45 99.45 0 0 0 10.22 17.67l14.49-5.65a84.94 84.94 0 0 0 11.94 12.28l1.47-3.78a84.65 84.65 0 0 1-13.41-13.48l-14.49 5.65c-3.19-4.47-6-9.2-8.41-14.14m119.9 34.48a84.5 84.5 0 0 1-18.36 4.9L110.19 194c-6.78.69-13.61.67-20.4-.04l-2.36-15.39a83.99 83.99 0 0 1-9.34-1.84 84.97 84.97 0 0 1-9.05-3.03l-9.66 12.06a99.24 99.24 0 0 1-16.13-9.2l-1.55 3.97a99 99 0 0 0 17.68 10.2l9.66-12.05a83.86 83.86 0 0 0 9.05 3.02c3.08.8 6.2 1.41 9.34 1.85l2.37 15.39c6.78.71 13.61.72 20.4.04l2.36-15.44a84.93 84.93 0 0 0 18.35-4.9l9.74 12.15a99.45 99.45 0 0 0 17.67-10.23l-1.55-3.95a99.85 99.85 0 0 1-16.12 9.2z"/></g><rect width="129.4" x="35.3" y="35.3" fill="url(#e)" rx="64.7" height="129.4" style="fill:url(#e);stroke-width:4.97698"/><path fill="url(#f)" fill-rule="evenodd" d="M100 35.3c-4.7 0-9.27.52-13.67 1.46l-5.74 11.48-8.67-6.5a64.5 64.5 0 0 0-33.17 37.48l12.73-5.1 9.7 6.48 3.24-9.71 42.05-22.65-2.56-12.81a67.7 67.7 0 0 0-3.9-.13m47.9 21.25-2.62 7.87 3.24 3.24-12.94 19.4 6.47 22.65 21.45 2.69a65.52 65.52 0 0 0 1.2-12.4 64.64 64.64 0 0 0-7.65-30.58l-5.3-1.76 1.93-3.87a65.3 65.3 0 0 0-5.78-7.24M36.58 87.07A65.83 65.83 0 0 0 35.35 98l22.6 8.48-3.24-9.7-6.47-9.71zm21.37 19.4 16.17 38.83v14.03a64.73 64.73 0 0 0 25.88 5.38c.64 0 1.27-.03 1.92-.05l20.73-35.54-51.76-29.11z" style="fill:url(#f);stroke-width:4.97698"/><path opacity=".2" fill="#172525" d="M35.45 97.51c-.03.83-.13 1.65-.13 2.5a64.56 64.56 0 0 0 64.7 64.7 64.56 64.56 0 0 0 64.7-64.7c0-.85-.09-1.67-.12-2.5a64.5 64.5 0 0 1-64.57 62.21 64.52 64.52 0 0 1-64.58-62.2" style="stroke-width:4.97698"/></g></svg>