<svg version="1.0" width="200" height="200" viewBox="0 0 100 100" xmlns:xlink="http://www.w3.org/1999/xlink" xmlns="http://www.w3.org/2000/svg"><defs><linearGradient id="e"><stop style="stop-color:#f60;stop-opacity:1" offset="0"/><stop style="stop-color:#ff1e00;stop-opacity:1" offset="1"/></linearGradient><linearGradient id="g"><stop style="stop-color:#42394b;stop-opacity:1" offset="0"/><stop style="stop-color:#000;stop-opacity:1" offset="1"/></linearGradient><linearGradient id="a"><stop style="stop-color:#b4b4b4;stop-opacity:1" offset="0"/><stop style="stop-color:#e6e6e6;stop-opacity:1" offset="1"/></linearGradient><linearGradient id="b"><stop style="stop-color:#fff;stop-opacity:1" offset="0"/><stop style="stop-color:#fff;stop-opacity:0" offset="1"/></linearGradient><linearGradient id="c"><stop style="stop-color:#919191;stop-opacity:1" offset="0"/><stop style="stop-color:#fdfdfd;stop-opacity:1" offset="1"/></linearGradient><linearGradient id="f"><stop style="stop-color:#fff;stop-opacity:1" offset="0"/><stop style="stop-color:#fff;stop-opacity:0" offset="1"/></linearGradient><linearGradient id="d"><stop style="stop-color:#fff;stop-opacity:1" offset="0"/><stop style="stop-color:#fff;stop-opacity:0" offset="1"/></linearGradient><linearGradient xlink:href="#a" id="l" gradientUnits="userSpaceOnUse" x1="48" y1="90" x2="48" y2="5.99"/><linearGradient xlink:href="#b" id="m" gradientUnits="userSpaceOnUse" x1="36.36" y1="6" x2="36.36" y2="63.89"/><linearGradient xlink:href="#c" id="n" gradientUnits="userSpaceOnUse" gradientTransform="translate(-1.41 -1.41) scale(1.02941)" x1="43.18" y1="13" x2="43.18" y2="83.29"/><linearGradient xlink:href="#d" id="q" gradientUnits="userSpaceOnUse" x1="48" y1="20.22" x2="48" y2="138.66"/><linearGradient xlink:href="#e" id="i" x1="48.73" y1="37.02" x2="48.61" y2="60.53" gradientUnits="userSpaceOnUse"/><linearGradient xlink:href="#e" id="j" gradientUnits="userSpaceOnUse" x1="48.73" y1="37.02" x2="48.61" y2="60.53"/><linearGradient xlink:href="#e" id="k" gradientUnits="userSpaceOnUse" x1="48.73" y1="37.02" x2="48.61" y2="60.53"/><radialGradient xlink:href="#f" id="o" gradientUnits="userSpaceOnUse" gradientTransform="matrix(1.15731 0 0 .9959 -7.55 .2)" cx="48" cy="90.17" fx="48" fy="90.17" r="42"/><radialGradient xlink:href="#g" id="h" gradientUnits="userSpaceOnUse" gradientTransform="matrix(1.383 0 0 1.3124 -15.14 -21.73)" cx="47.1" cy="78.29" fx="47.1" fy="78.29" r="38.96"/><clipPath id="p"><rect width="84" height="84" rx="6" ry="6" x="6" y="6" style="fill:#fff;fill-opacity:1;fill-rule:nonzero;stroke:none"/></clipPath></defs><path style="color:#000;display:inline;overflow:visible;visibility:visible;opacity:.6;fill:#000;fill-opacity:1;fill-rule:nonzero;stroke:none;stroke-width:1;marker:none;enable-background:accumulate" d="M19 16a3 3 0 0 0-3 3v62a3 3 0 0 0 3 3h62a3 3 0 0 0 3-3V19a3 3 0 0 0-3-3zm0 .97h62A2 2 0 0 1 83.03 19v62A2 2 0 0 1 81 83.03H19A2 2 0 0 1 16.97 81V19A2 2 0 0 1 19 16.97z"/><rect style="fill:url(#h);fill-opacity:1;stroke:none" y="10.74" x="11.04" ry="6.17" rx="5.85" height="78.52" width="77.91"/><path style="color:#000;font-style:normal;font-variant:normal;font-weight:400;font-stretch:normal;font-size:medium;line-height:normal;font-family:'Abandoned Bitplane';-inkscape-font-specification:'Abandoned Bitplane';text-indent:0;text-align:start;text-decoration:none;text-decoration-line:none;letter-spacing:normal;word-spacing:normal;text-transform:none;writing-mode:lr-tb;direction:ltr;text-anchor:start;display:inline;overflow:visible;visibility:visible;opacity:.15;fill:#000;fill-opacity:1;stroke:none;stroke-width:4;marker:none;enable-background:accumulate" d="M21 15c-3.29 0-6 2.71-6 6v58c0 3.29 2.71 6 6 6h58c3.29 0 6-2.71 6-6V21c0-3.29-2.71-6-6-6zm0 4h58c1.14 0 2 .86 2 2v58c0 1.14-.86 2-2 2H21c-1.14 0-2-.86-2-2V21c0-1.14.86-2 2-2z"/><path style="color:#000;display:inline;overflow:visible;visibility:visible;opacity:.3;fill:#000;fill-opacity:1;fill-rule:nonzero;stroke:none;stroke-width:1;marker:none;enable-background:accumulate" d="M19 16a3 3 0 0 0-3 3v62a3 3 0 0 0 3 3h62a3 3 0 0 0 3-3V19a3 3 0 0 0-3-3zm0 1.94h62c.62 0 1.06.44 1.06 1.06v62c0 .62-.44 1.06-1.06 1.06H19c-.62 0-1.06-.44-1.06-1.06V19c0-.62.44-1.06 1.06-1.06z"/><g style="fill:url(#i);fill-opacity:1;stroke:#000;stroke-width:1;stroke-miterlimit:4;stroke-dasharray:none;stroke-opacity:1" transform="translate(-11.04 -9) scale(1.21255)"><path d="M26.1 37.4v22.5h22.51v-7.1h-15.2V37.4Z" style="fill:url(#j);fill-opacity:1;stroke:#000;stroke-width:1;stroke-linejoin:round;stroke-miterlimit:4;stroke-dasharray:none;stroke-opacity:1"/><path d="M52.07 37.4v22.5h22.51v-7.3H59v-7.9h15.58v-7.3z" style="fill:url(#k);fill-opacity:1;stroke:#000;stroke-width:1;stroke-linejoin:round;stroke-miterlimit:4;stroke-dasharray:none;stroke-opacity:1"/></g><path style="opacity:.08;fill:#d9c6ed;fill-opacity:1;stroke:none" d="M16.9 22.38c-3.25 0-5.85 2.76-5.85 6.18v49.06c18.82-13.85 45.8-23.79 77.9-21.78V28.56c0-3.42-2.63-6.18-5.87-6.18z"/><g style="display:inline" transform="translate(2 2)"><path d="M12 6a6 6 0 0 0-6 6v72a6 6 0 0 0 6 6h72a6 6 0 0 0 6-6V12a6 6 0 0 0-6-6Zm5 7h62a4 4 0 0 1 4 4v62a4 4 0 0 1-4 4H17a4 4 0 0 1-4-4V17a4 4 0 0 1 4-4z" style="fill:url(#l);fill-opacity:1;fill-rule:nonzero;stroke:none"/><path d="M12 6a6 6 0 0 0-6 6v72c0 .33.04.65.1.97.04.3.1.6.18.87l.03.1a5.69 5.69 0 0 0 .88 1.6 5.79 5.79 0 0 0 2.97 2.12c-.26-.1-.49-.24-.72-.38H9.4l-.1-.06-.34-.25-.31-.25a5.04 5.04 0 0 1-.82-.94l-.06-.12-.19-.32c-.1-.2-.2-.41-.28-.62l-.03-.06c-.03-.1-.03-.2-.06-.28l-.1-.32A5.1 5.1 0 0 1 7 85V13c0-2.78 2.22-5 5-5h72c2.78 0 5 2.22 5 5v72a5.1 5.1 0 0 1-.28 1.66l-.03.06c-.07.17-.14.37-.22.53l-.13.25c-.05.1-.12.19-.18.28a5.1 5.1 0 0 1-.78.9l-.04.04c-.13.12-.28.23-.43.34-.1.08-.2.16-.32.22h-.03c-.23.14-.46.28-.72.38a6.1 6.1 0 0 0 3.84-3.72l.04-.1c.09-.27.14-.58.19-.87.05-.32.09-.64.09-.97V12a6 6 0 0 0-6-6Z" style="opacity:.5;fill:url(#m);fill-opacity:1;fill-rule:nonzero;stroke:none"/><path d="M17 12c-2.75 0-5 2.25-5 5v62c0 2.75 2.25 5 5 5h62c2.75 0 5-2.25 5-5V17c0-2.75-2.25-5-5-5zm0 2h62c1.68 0 3 1.32 3 3v62c0 1.68-1.32 3-3 3H17c-1.68 0-3-1.32-3-3V17c0-1.68 1.32-3 3-3z" style="fill:url(#n);fill-opacity:1;fill-rule:nonzero;stroke:none"/><path d="M12 90a6 6 0 0 1-6-6V12c0-.33.04-.65.1-.97.04-.3.1-.6.18-.87l.03-.1a5.69 5.69 0 0 1 .88-1.6 5.79 5.79 0 0 1 2.97-2.12c-.26.1-.49.24-.72.38H9.4l-.1.06-.34.25-.31.25a5.04 5.04 0 0 0-.82.94l-.06.12-.19.32c-.1.2-.2.41-.28.62l-.03.06c-.03.1-.03.2-.06.29l-.1.3c-.07.35-.12.7-.12 1.07v72c0 2.78 2.22 5 5 5h72c2.78 0 5-2.22 5-5V11a5.1 5.1 0 0 0-.28-1.66l-.03-.06a5.48 5.48 0 0 0-.22-.53l-.13-.25c-.05-.1-.12-.19-.18-.28a5.1 5.1 0 0 0-.78-.9l-.04-.04a4.82 4.82 0 0 0-.43-.34c-.1-.08-.2-.16-.32-.22h-.03a4.84 4.84 0 0 0-.72-.38 6.1 6.1 0 0 1 3.84 3.72l.04.1c.09.27.14.58.19.87.05.32.09.64.09.97v72a6 6 0 0 1-6 6z" style="opacity:.4;fill:url(#o);fill-opacity:1;fill-rule:nonzero;stroke:none"/><rect width="66" height="66" rx="12" ry="12" x="15" y="15" clip-path="url(#p)" style="opacity:.1;fill:url(#q);fill-opacity:1;fill-rule:nonzero;stroke:#fff;stroke-width:.5;stroke-linecap:round;stroke-linejoin:miter;stroke-miterlimit:4;stroke-dasharray:none;stroke-dashoffset:0;stroke-opacity:1;filter:url(#filter3794-2)"/></g></svg>