<svg xml:space="preserve" width="200" height="200" xmlns="http://www.w3.org/2000/svg"><defs><linearGradient gradientTransform="matrix(3.6588 0 0 3.65842 11.9 11.5)" x1="10.2" y1="6.9" x2="39.2" y2="39.9" gradientUnits="userSpaceOnUse" id="a"><stop offset="0" stop-opacity=".3"/><stop offset="1" stop-opacity="0"/></linearGradient></defs><circle r="110" style="display:inline;opacity:1;fill:#9c27b0;fill-opacity:1;stroke:none;stroke-width:5;stroke-miterlimit:4;stroke-dasharray:none;stroke-opacity:1" cx="120" cy="120" transform="matrix(.72727 0 0 .7272 12.7 12.7)"/><path style="display:inline;mix-blend-mode:normal;fill:url(#a);stroke:none;stroke-width:3.65861;stroke-miterlimit:10" d="M89.7 48.1a11 11 0 0 1 10.3-6.4c3 0 5 1.2 7.2 2.6l13.6 8.8c6 3 11 6.2 15.3 10.6l43.6 43.4a80 80 0 0 1-89.4 72.3l-30.7-37c-3.3-3.2-3.3-4.4-4.1-7a12.4 12.4 0 0 1 1.7-8A51 51 0 0 1 49 99.7a51.3 51.3 0 0 1 40-49.4 6 6 0 0 1 .6-2z"/><circle style="display:inline;fill:none;fill-opacity:.392157;stroke:#fff;stroke-width:7.27234;stroke-miterlimit:4;stroke-dasharray:none;stroke-opacity:1" cx="100" cy="99.9" r="47.3"/><path d="M137 100a82.2 82.2 0 0 0-63.6 26.4" style="display:inline;fill:none;fill-rule:evenodd;stroke:#fff;stroke-width:7.35204;stroke-linecap:butt;stroke-linejoin:miter;stroke-miterlimit:4;stroke-dasharray:none;stroke-opacity:1"/><path d="M100 63c1 39.2-21 56.8-26.7 63.5" style="display:inline;fill:none;fill-rule:evenodd;stroke:#fff;stroke-width:7.46389;stroke-linecap:butt;stroke-linejoin:miter;stroke-miterlimit:4;stroke-dasharray:none;stroke-opacity:1"/><circle style="display:inline;fill:#fff;fill-opacity:1;stroke:none;stroke-width:.226897;stroke-linecap:round;stroke-linejoin:round;stroke-miterlimit:10;stroke-dasharray:none;stroke-opacity:.390909" cx="147.1" cy="99.8" r="11.1"/><circle style="display:inline;fill:#fff;fill-opacity:1;stroke:none;stroke-width:.226897;stroke-linecap:round;stroke-linejoin:round;stroke-miterlimit:10;stroke-dasharray:none;stroke-opacity:.390909" cx="99.7" cy="52.7" r="11.1"/><circle style="display:inline;fill:#fff;fill-opacity:1;stroke:none;stroke-width:.226897;stroke-linecap:round;stroke-linejoin:round;stroke-miterlimit:10;stroke-dasharray:none;stroke-opacity:.390909" cx="66.4" cy="133.6" r="11.1"/></svg>