<svg width="200" height="200" viewBox="176 0 200 200" overflow="visible" xml:space="preserve" xmlns="http://www.w3.org/2000/svg"><g fill="#a80030"><path d="M255.7 107.6c-.7 0 .1.4 1 .5l.7-.6a5 5 0 0 1-1.7.1m3.6-.9c.4-.5.7-1.1.8-1.8 0 .5-.3.9-.5 1.3-1.3.8-.2-.5 0-1-1.4 1.7-.2 1-.3 1.5m1.4-3.5c0-1.2-.3-.8-.4-.4.1.1.2 1 .4.4M253 86.5c.5 0 .9.1.8.2.4 0 .5-.2-.7-.2m.7.2h-.2.2"/><path d="M265.1 103.7c0 1-.3 1.6-.6 2.6l-.6.3c-.5.9 0 .5-.3 1.3-.8.7-2.3 2-2.8 2.2-.3 0 .3-.4.4-.6-1 .7-.9 1-2.4 1.5v-.1c-3.8 1.8-9-1.8-9-6.6 0 .3-.1.2-.2.4a6 6 0 0 1 3.4-6 5.7 5.7 0 0 1 6.4.8 5.7 5.7 0 0 0-4.7-2.2c-2 0-3.9 1.3-4.5 2.7-1 .6-1.1 2.5-1.6 2.8-.6 4.4 1.1 6.4 4 8.6.5.3.2.4.3.6a8 8 0 0 1-2.6-2 7 7 0 0 0 1.3 1.6c-.9-.3-2.1-2.3-2.5-2.3 1.6 2.8 6.5 5 9 3.9-1.2 0-2.7 0-4-.5-.5-.3-1.3-.9-1.2-1 3.5 1.3 7 1 10.1-1.4.8-.6 1.6-1.6 1.8-1.6-.3.5.1.3-.2.7.8-1.2-.3-.5.8-2l.4.5c-.1-1 1.3-2.3 1.1-3.9.4-.5.4.5 0 1.7.5-1.3.2-1.5.3-2.5l.4 1c-.3-1.1.3-2 .5-2.7-.2 0-.5.6-.6-.9 0-.6.2-.3.3-.5-.2 0-.5-.5-.7-1.4.2-.2.4.5.6.6l-.4-1.9c-.5-1.2-.2.2-.6-.5-.6-1.9.5-.4.6-1.3.9 1.3 1.4 3.4 1.6 4.2-.2-1-.4-2-.8-3 .3.2-.4-2 .4-.6-.9-3.2-3.7-6.1-6.3-7.5l.6.7c-1.3-.7-1.1-.8-1.3-1.1-1-.5-1.1 0-1.8 0-2-1-2.4-1-4.2-1.6l.1.4c-1.3-.5-1.5.1-3 0 0-.1.5-.3 1-.3-1.3.1-1.2-.3-2.5 0l1-.5c-1 0-2.5.6-2 0-1.7.8-4.7 1.9-6.4 3.5v-.4c-.8 1-3.4 2.8-3.6 4h-.2l-1 2.1c-.5 1-.8.4-.7.5-1 2.1-1.5 3.9-2 5.3.3.5 0 2.8.1 4.7a21 21 0 0 0 14.3 20.5c1.2.4 2.8.4 4.3.5-1.7-.5-2-.3-3.6-.9-1.2-.5-1.4-1.2-2.3-1.9l.4.6c-1.7-.6-1-.7-2.3-1.2l.3-.4c-.5 0-1.4-1-1.6-1.4h-.6c-.7-.8-1.1-1.5-1-2l-.3.4c-.2-.4-2.6-3.3-1.3-2.6-.2-.2-.6-.3-.9-1l.3-.2c-.6-.8-1.1-1.8-1-2 .2.3.5.4.7.5-1.5-3.7-1.6-.2-2.7-3.8h.2l-.4-.9v-1c-1-1.3-.2-5.3 0-7.5 0-1 .8-1.9 1.4-3.4h-.4c.7-1.3 4-5 5.6-4.8.7-1-.2 0-.3-.2 1.6-1.7 2.1-1.2 3.2-1.5 1.2-.7-1 .3-.4-.3 2-.5 1.4-1.2 4-1.4.4.1-.6.2-.8.4 1.7-.8 5.4-.6 7.8.5 2.8 1.3 6 5.1 6 8.7h.2c-.1 1.5.2 3.2-.3 4.7l.3-.7"/><path d="m248.3 108.6-.1.4c.4.6.8 1.3 1.3 1.8l-1.2-2.2m1-.1-.5-.9c.1.6.4 1 .7 1.5l-.2-.6m18.7-4-.1.2a12 12 0 0 1-1.2 3.8c.7-1.3 1.1-2.6 1.3-4m-14.8-18.3c.5-.2 1.2-.1 1.6-.2l-1.8.1h.2m-16.1 8.7c.1 1-.7 1.3.2.7.5-1.2-.2-.3-.2-.7m-1.1 4.5.3-1.4c-.5.7-.2.9-.3 1.4"/></g><path style="stroke-width:2.80572" d="M356.4 175.3c0 12-2.2 28.4-17.3 28.4-2 0-4.7-.4-6.4-.8-.2-4.7-.2-12.8-.2-22.1a72 72 0 0 1 2-20c2.8-9.2 8.9-9.3 10-9.3 10 0 11.9 13.7 11.9 23.8zM319 189.5c0 9.6 0 15-1.6 19.2 5.3 2.1 12 3.3 19.9 3.3 5 0 19.8 0 27.7-16.3 3.7-7.5 5-17.7 5-25.3 0-4.7-.5-15-4.2-21.5a18 18 0 0 0-15.8-9.2c-12.4 0-16 10.4-18 15.7 0-6.6.1-29.8 1.1-41.6a51.4 51.4 0 0 1-19.2 5c5 2.1 5 10.7 5 38.7v32m76.2 21.7c-2.6-.4-4.4-.7-8.2-.7-4.1 0-7 .3-10 .7 1.3-2.5 1.8-3.6 2.2-12.1.6-11.6.7-42.5-.2-49-.7-5-1.8-5.8-3.7-7a47.8 47.8 0 0 0 18.6-4.2 82 82 0 0 0-1.2 17.3c-.2 44.9-.3 49.7 2.5 55m41.6-36.8c-.2 8.2-.4 13.9-2.6 18.5-2.7 5.8-7.2 7.5-10.6 7.5-7.8 0-9.5-6.5-9.5-12.9 0-12.2 11-13.1 15.8-13.1zm-35.7 16c0 8.2 2.5 16.4 9.7 19.9 3.3 1.4 6.5 1.4 7.6 1.4 12 0 16-8.8 18.4-14.3-.1 5.7 0 9.2.4 13.8 2.4-.1 4.7-.4 8.6-.4 2.2 0 4.3.3 6.5.4-1.4-2.2-2.2-3.5-2.6-8.6-.3-5-.3-9.9-.3-16.8l.2-26.5c0-9.9-2.6-19.6-22.1-19.6-12.9 0-20.4 3.9-24.2 5.8 1.6 2.9 2.9 5.3 4 11a28 28 0 0 1 18.5-6.8c10.8 0 10.8 7.1 10.8 17.3-2.5-.2-4.6-.4-8-.4-16.6 0-27.5 6.4-27.5 23.8m110.6 7.9c.1 4.4.1 9.1 2 12.9-3-.3-4.6-.6-10-.6a40 40 0 0 0-7.2.6c.5-1.7.8-2.3 1-4.6.4-3 .7-13 .7-16.5v-14c0-6.1 0-15-.4-18.1-.3-2.2-1-8.2-8.5-8.2-7.4 0-9.9 5.5-10.8 9.9-1 4.5-1 9.5-1 28.7.1 16.7.1 18.2 1.4 22.8a71.8 71.8 0 0 0-16.6 0c1-2 1.4-3.1 1.7-10.4.3-7.2.8-42.3-.4-50.6-.7-5-2-6.3-3.4-7.6a35 35 0 0 0 17.2-3.9v13.8c1.5-4 4.8-13 17.8-13 16.2 0 16.3 11.9 16.5 19.7v39.1" transform="translate(132.7 25.3) scale(.43478)"/><path style="stroke-width:2.80572" fill="#a80030" d="m396.2 120.5-10.7 10.7-10.8-10.7 10.8-10.8 10.7 10.8" transform="translate(132.7 25.3) scale(.43478)"/><path style="stroke-width:2.806;stroke-miterlimit:4;stroke-dasharray:none" d="M162.7 138.7a35 35 0 0 1-17.2 4c1.5 1.2 2.8 2.4 3.4 7.5 1.2 8.3.7 43.4.4 50.6-.3 7.3-.8 8.3-1.7 10.4a71.9 71.9 0 0 1 16.6 0c-1.3-4.6-1.3-6.1-1.4-22.8 0-19.2 0-24.2 1-28.7 1-4.4 3.4-9.9 10.8-9.9 7.6 0 8.2 6 8.5 8.2.4 3.1.4 12 .4 18v14.1c0 3.5-.3 13.6-.7 16.5-.2 2.3-.5 3-1 4.6a71.7 71.7 0 0 1 16.6 0h.5a21 21 0 0 1-1.7-7.5c-.1-3-.2-7.4-.2-15.3 0-19.2 0-24.2 1-28.7 1-4.4 3.4-9.9 10.8-9.9 7.5 0 8.2 6 8.4 8.2.4 3.1.4 12 .4 18v14.1c0 3.5-.2 13.6-.6 16.5-.3 2.3-.5 3-1 4.6a40 40 0 0 1 7.2-.6c5.4 0 7 .3 9.9.6-1.8-3.8-1.8-8.5-2-12.9v-39.1c0-7.8-.2-19.7-16.4-19.7-13 0-16.3 9-17.8 13l-.5-1c-1.1-6.1-4.5-12-16-12-13 0-16.2 9-17.7 13z" transform="translate(132.7 25.3) scale(.43478)"/></svg>