<svg width="200" height="200" xmlns="http://www.w3.org/2000/svg"><path style="display:inline;fill:#2bd2e2;stroke-width:.0740741" d="M0 80V0h160v160H0Z" transform="translate(20 20)"/><path style="display:inline;fill:#fcfdfd;stroke-width:.0740741" d="M117.33 134.74a14.69 14.69 0 0 1-6.59-3.18c-1.93-1.7-3.33-3.86-5.04-7.86-1.4-3.48-2.3-4.89-3.92-6.44-2.22-2.15-4.82-3.26-8.45-3.78l-5.26-.15c-4.51 0-5.26 0-7.18-.37a22.78 22.78 0 0 1-9.04-3.63A34.81 34.81 0 0 1 61.63 98.3L60 102.89c-1.56 4.74-1.7 5.11-2.07 5.55-.37.52-1.26.9-1.93.75a58096.22 58096.22 0 0 0-34.52-11.56c-3.26-1.11-3.48-1.19-3.92-1.93-.52-.81-.52-1.1.22-3.26l6.37-18.96c.81-2.3.81-2.44 1.18-2.81l.6-.52c.37-.22 1.18-.3 1.63-.15a674.15 674.15 0 0 1 15.63 5.19l.74.3.3-.45a11.23 11.23 0 0 1 4.07-3.34c.3-.14.37-.22.59-.81l.74-1.33a11.7 11.7 0 0 1 10.3-6c2.81 0 5.63 1.03 8.37 3.03 1.03.82 2.81 2.67 4.22 4.3 2.07 2.52 3.26 3.7 4.74 4.44 1.11.6 2 .82 3.18.9l.6.07-.3-.74a19.6 19.6 0 0 1-.22-10.15c.74-2.97 2.22-6.15 4.81-10a61.11 61.11 0 0 1 21.78-19.56l7.04-3.55a26.44 26.44 0 0 0 4.74-2.82c1.11-.96 1.7-1.78 4.44-6 1.63-2.52 3.26-4.52 4.3-5.33a3.32 3.32 0 0 1 2.07-.96c2.23-.15 3.49 1.77 2.9 4.07-.3 1.11-1.64 3.48-3.34 6a109.33 109.33 0 0 0-2.96 4.81l.66-.14a3.87 3.87 0 0 1 3.26 1.1c.9.9 1.26 1.93 1.26 3.41l-.07.9c-.08.14 1.78-.82 2.66-1.34 1.7-1.04 2.52-1.7 5.78-4.81l2.9-2.82c1.92-1.7 3.32-2.3 4.5-2.07a2.8 2.8 0 0 1 2.16 1.55c.44.82.37 1.93-.08 2.9-.66 1.18-3.4 4.66-5.48 6.88l-.81.81.44.23c.89.44 1.7 1.4 1.93 2.52.15.51.15 1.77 0 2.44-.52 2.81-2.97 6.89-6 10a48.74 48.74 0 0 1-3.7 3.4l.44.38a6.15 6.15 0 0 1 1.92 2.59c.23.89.3 2.15 0 2.96a9.43 9.43 0 0 1-2.07 3.56c-3.78 4.22-4.81 5.33-5.93 6.15a11.36 11.36 0 0 1-3.85 2.07l-.81.3.15.44c.22.67.22 2 0 2.74-.6 2-2.15 3.7-5.49 6.08a13.8 13.8 0 0 1-5.63 2.51l-.3.08.16.37.22 1.11c.6 3.04-.82 5.56-4.37 8.22-2 1.56-3.19 2.15-4.45 2.52-.74.22-2.22.22-2.96.08-1.48-.45-2.52-1.26-4.07-3.19-1.78-2.22-3.48-3.85-7.56-7.19-4.15-3.33-6.22-5.48-7.85-7.92-.22-.45-.3-.45-.52-.37-.67.07-1.93.15-2.74.07-3.4-.3-6.6-2-9.26-4.96l-1.63-1.93a27.6 27.6 0 0 0-2.89-3.18c-2.3-1.93-4.74-2.82-7.03-2.6a6.78 6.78 0 0 0-4.52 2.23c-.74.74-1.26 1.55-2 2.96-.67 1.56-.9 1.7-2.15 2.37l-1.04.6.3.07c2.07.44 4.59 2 6.52 4.22 1.7 1.85 2.59 3.33 5.1 8.22 2.16 4.08 3.04 5.85 4.3 7.78a30.46 30.46 0 0 0 7.7 8.67 19.08 19.08 0 0 0 9.34 3.85l5.33.15c4.15 0 5.04 0 6.52.22a18.07 18.07 0 0 1 15.11 12.52 33.9 33.9 0 0 0 2.15 4.52c.6.81 1.85 2.07 2.74 2.66 2.08 1.34 4.15 1.85 4.67 1.11.37-.51.22-1.33-.52-2.44l-.89-1.63c-.44-.81-.44-.89-.44-1.4 0-.9.37-1.56 1.18-2a2.28 2.28 0 0 1 2.52.44l1.48 2.3a2.95 2.95 0 0 0 3.56 1.4c.74-.22 1.26-.89 1.48-1.7v-.97l-.22-.74a8.3 8.3 0 0 0-1.7-2l-1.04-1.03c-.67-.82-.52-2.15.3-2.9.44-.36.8-.51 1.47-.51.52 0 .52 0 1.86.6 1.55.8 2.07.95 2.66.8.6-.07 1.04-.36 1.41-.88.44-.6.6-1.11.6-1.78 0-.67-.16-1.11-.67-1.4-.74-.6-1.7-.82-4.45-1.2a32.3 32.3 0 0 1-20.74-10.36 2.15 2.15 0 0 1 .82-3.7 2.67 2.67 0 0 1 1.7.14l1.56 1.33a28.15 28.15 0 0 0 17.48 8.23c3.7.52 5.4 1.18 6.81 2.52a5.93 5.93 0 0 1 1.85 4.44c0 1.11-.07 1.78-.52 2.81a6.89 6.89 0 0 1-4.59 4.08c-.37.07-.44.15-.44.22.22.52.22.96.22 1.78 0 .74 0 1.04-.15 1.63a6.78 6.78 0 0 1-5.26 5.04l-1.63.07-1.26-.07c-.14 0-.14 0-.3.37a4.28 4.28 0 0 1-1.25 1.77 5.1 5.1 0 0 1-2.3 1.34c-.52.07-1.92.14-2.52.07zM48.74 98.37c-2.89-4.3-3.33-4.96-3.48-4.96l-.74.15c-.96.14-2.67.14-3.63-.08a12.6 12.6 0 0 1-2.37-.74 9.9 9.9 0 0 1-3.26-2.6l-.37-.36-4.96 2.15-4.97 2.22 2.45.89a16963.33 16963.33 0 0 0 24.66 8.22zm8.6-1.33 1.4-4.08-.81-1.55-.82-1.63A241.4 241.4 0 0 0 49.78 92l6.15 9.11zm48-2.45c.88-.44 3.03-2.07 3.85-2.89.37-.37.66-.74.81-1.1.22-.45.22-.53.22-1.12 0-1.04-.3-1.63-2-3.4-.96-.9-1.1-1.12-1.18-1.49-.37-1.1.07-2.3 1.1-2.74.75-.3 1.34-.3 2.23.22.52.3.6.37 1.4.45 2.3.22 3.64-.22 6.38-2.22 1.63-1.19 2.74-2.23 3.1-2.97.23-.44.23-.59-.06-.89-.3-.37-.9-.51-4.15-.88l-2.45-.45a2.46 2.46 0 0 1-1.18-1.11c-.6-1.4.44-3.04 1.92-3.04l2.23.23 1.77.22 1.56-.08c2.44-.22 3.78-.52 5.11-1.18 1.19-.6 2.22-1.48 3.78-3.26l2-2.3c1.33-1.4 1.7-1.85 1.92-2.37.3-.59.3-.81-.07-1.18-.37-.45-.89-.6-2.52-.67h-1.33l-3.19.6-3.55.66c-.82 0-1.56-.44-1.93-1.26a2.17 2.17 0 0 1 .96-2.81l4.23-1.04 3.92-.82 4-3.18a24.37 24.37 0 0 0 6.9-9.56c-.16-.07-1.42.97-3.05 2.45l-1.7 1.48a31.4 31.4 0 0 1-7.26 4.37c-.44.15-.67.15-1.33.15-1.04.07-1.34-.08-1.93-.67-.52-.52-.74-.89-.66-1.7 0-.6 0-.74.22-1.26.52-.9 1.33-1.63 4.22-3.63a84.89 84.89 0 0 0 3.04-2.45 123.5 123.5 0 0 0-11.34 5.49l-10.74 5.33c-6.59 3.26-9.7 5.92-12.37 10.37l-2.15 4.22c-.88 1.93-2 3.93-2.37 4.6a21.19 21.19 0 0 1-6.51 7.18 48.3 48.3 0 0 0 6.88 6.74c4.45 3.63 5.78 4.89 7.93 7.56 1.33 1.62 1.56 1.77 2.3 1.77zM27.92 88l4.74-2.07c.07-.08-4.97-8.82-5.11-8.74l-.67 1.92a3065.85 3065.85 0 0 1-3.7 10.96zm16 1.19c.81-.15 2.81-.75 10.22-3.19l.81-.22-.52-.74a9.37 9.37 0 0 0-1.48-1.85c-.15-.15-20.59-7.04-20.74-7.04-.07 0-.15-.08 3.34 5.92 3.63 6.15 3.55 6 4.66 6.6 1.26.66 2.15.74 3.7.52zm41.85-14.67a21.44 21.44 0 0 0 4.52-5.56l2-4c2.22-4.37 3.1-5.92 4.51-7.7 2.9-3.56 6.38-6.07 13.49-9.4a306.3 306.3 0 0 0 13.33-6.9l.81-.74c1.49-1.1 2.45-2.52 2.67-3.48l.08-.37-.23.15-1.4.74c-1.26.74-2.9 1.7-4.52 2.44-.74.37-1.7 1.04-4.23 2.74-5.25 3.7-5.18 3.63-5.62 3.7-1.04.23-2-.36-2.45-1.25a2.27 2.27 0 0 1 .37-2.37l5.04-3.56 4.81-3.33.3-.6.37-.66-.67.37-4.59 2.37-5.33 2.67a57.78 57.78 0 0 0-18.97 16.44c-3.26 4.45-4.96 8-5.63 11.48a21 21 0 0 0 .08 4.74c.15.9.6 2.45.67 2.45zm-27.41.89a2.38 2.38 0 0 1-1.56-1.78c-.07-.74.3-1.63.97-2.07.44-.3 1.1-.45 1.63-.37.74.14 1.26.51 1.63 1.25.15.37.15.52.15.97-.08.89-.45 1.48-1.19 1.85-.37.15-.52.22-.96.22z" transform="translate(20 20)"/></svg>