<?xml version="1.0" encoding="UTF-8" standalone="no"?>
<!-- Created with Inkscape (http://www.inkscape.org/) -->

<svg
   width="200"
   height="200"
   id="svg3027"
   version="1.1"
   inkscape:version="1.4.2 (ebf0e940d0, 2025-05-08)"
   sodipodi:docname="nemomobile.svg"
   xmlns:inkscape="http://www.inkscape.org/namespaces/inkscape"
   xmlns:sodipodi="http://sodipodi.sourceforge.net/DTD/sodipodi-0.dtd"
   xmlns="http://www.w3.org/2000/svg"
   xmlns:svg="http://www.w3.org/2000/svg"
   xmlns:rdf="http://www.w3.org/1999/02/22-rdf-syntax-ns#"
   xmlns:cc="http://creativecommons.org/ns#"
   xmlns:dc="http://purl.org/dc/elements/1.1/">
  <defs
     id="defs3029" />
  <sodipodi:namedview
     id="base"
     pagecolor="#ffffff"
     bordercolor="#666666"
     borderopacity="1.0"
     inkscape:pageopacity="0.0"
     inkscape:pageshadow="2"
     inkscape:zoom="1.98"
     inkscape:cx="135.35354"
     inkscape:cy="55.555556"
     inkscape:document-units="px"
     inkscape:current-layer="layer1"
     showgrid="false"
     inkscape:window-width="1916"
     inkscape:window-height="1032"
     inkscape:window-x="0"
     inkscape:window-y="22"
     inkscape:window-maximized="1"
     inkscape:showpageshadow="2"
     inkscape:pagecheckerboard="0"
     inkscape:deskcolor="#d1d1d1" />
  <metadata
     id="metadata3032">
    <rdf:RDF>
      <cc:Work
         rdf:about="">
        <dc:format>image/svg+xml</dc:format>
        <dc:type
           rdf:resource="http://purl.org/dc/dcmitype/StillImage" />
      </cc:Work>
    </rdf:RDF>
  </metadata>
  <g
     inkscape:label="Layer 1"
     inkscape:groupmode="layer"
     id="layer1"
     transform="translate(-17.285729,-463.25467)">
    <path
       inkscape:connector-curvature="0"
       id="path3826"
       style="font-style:normal;font-variant:normal;font-weight:normal;font-stretch:normal;font-size:56.5692px;line-height:125%;font-family:Cynthe;-inkscape-font-specification:Cynthe;letter-spacing:0px;word-spacing:0px;fill:#373737;fill-opacity:1;stroke:none;stroke-width:0.280701"
       d="m 37.285718,631.875 v -24.24243 c 0,-1.31311 0.454541,-2.44947 1.363631,-3.40909 0.959598,-0.90906 2.121209,-1.3636 3.484849,-1.36364 v -0.0757 h 19.393929 v 0.0757 c 1.313106,4e-5 2.449468,0.45458 3.409092,1.36364 0.959571,0.95962 1.439363,2.09598 1.439388,3.40909 V 631.875 h -4.84848 v -22.04546 c -0.10107,-0.55553 -0.353561,-1.03533 -0.757566,-1.43938 -0.454577,-0.50504 -1.010117,-0.75756 -1.666659,-0.75759 H 44.558443 c -0.707079,3e-5 -1.287884,0.25255 -1.742434,0.75759 -0.404032,0.40405 -0.631312,0.88385 -0.681811,1.43938 V 631.875 h -4.84848"
       inkscape:export-filename="/home/paulo/Desktop/nemo.png"
       inkscape:export-xdpi="180"
       inkscape:export-ydpi="180" />
    <path
       sodipodi:nodetypes="cccccccccccscssccccccccccccccccc"
       inkscape:connector-curvature="0"
       id="path3828"
       style="font-style:normal;font-variant:normal;font-weight:normal;font-stretch:normal;font-size:56.5692px;line-height:125%;font-family:Cynthe;-inkscape-font-specification:Cynthe;letter-spacing:0px;word-spacing:0px;fill:#373737;fill-opacity:1;stroke:none;stroke-width:0.280701"
       d="m 97.9269,614.78041 c 0.656544,3e-5 2.38952,0.003 2.38952,0.003 0.0378,-1.64896 0.0378,-3.3026 -5.7e-4,-4.95391 -0.10106,-0.55554 -0.353556,-1.03534 -0.757574,-1.43939 -0.454564,-0.50503 -1.010138,-0.75756 -1.666674,-0.75759 H 83.346159 c -0.70708,3e-5 -1.287882,0.25256 -1.742425,0.75759 -0.404043,0.40405 -0.631313,0.88385 -0.681819,1.43939 l -0.02831,5.00401 m 0.02831,17.04147 v 0 h -0.07571 c -1.313126,0 -2.449484,-0.45454 -3.409083,-1.36363 -0.909092,-0.9596 -1.363641,-2.12122 -1.363641,-3.48486 v -19.39393 c 0,-1.31312 0.454549,-2.44947 1.363641,-3.4091 0.959599,-0.90905 2.121199,-1.36359 3.484839,-1.36363 v -0.0757 H 100.3159 v 8e-4 c 1.3131,5e-5 2.44947,0.52959 3.40909,1.43865 0.95957,0.95962 1.43936,2.09598 1.43939,3.40909 l 1e-5,7.16696 c -2e-5,1.36365 -0.0998,2.78655 -1.42939,3.75613 -1.42632,0.96171 -2.32818,1.14797 -3.42076,1.1813 l -19.426373,-0.002 0.03414,5.17 c 0.05045,0.55556 0.277777,1.03537 0.68182,1.4394 0.454542,0.45456 1.035346,0.68183 1.742425,0.68181 l 21.785988,-0.0219 0.0109,4.86518 -24.221051,0.006"
       inkscape:export-filename="/home/paulo/Desktop/nemo.png"
       inkscape:export-xdpi="180"
       inkscape:export-ydpi="180" />
    <path
       inkscape:connector-curvature="0"
       id="path3830"
       style="font-style:normal;font-variant:normal;font-weight:normal;font-stretch:normal;font-size:56.5692px;line-height:125%;font-family:Cynthe;-inkscape-font-specification:Cynthe;letter-spacing:0px;word-spacing:0px;fill:#373737;fill-opacity:1;stroke:none;stroke-width:0.280701"
       d="m 114.86145,631.875 v -24.24243 c 0,-1.31311 0.45456,-2.44947 1.36364,-3.40909 0.95959,-0.90906 2.12122,-1.3636 3.48484,-1.36364 v -0.0757 h 33.9394 v 0.0757 c 1.31309,4e-5 2.44945,0.45458 3.40908,1.36364 0.95955,0.95962 1.43935,2.09598 1.4394,3.40909 V 631.875 h -4.84848 v -22.04546 c -0.10107,-0.55553 -0.35358,-1.03533 -0.75759,-1.43938 -0.45457,-0.50504 -1.01012,-0.75756 -1.66666,-0.75759 h -12.1212 V 631.875 h -4.84848 v -24.24243 h -12.12121 c -0.70708,3e-5 -1.28789,0.25255 -1.74243,0.75759 -0.40405,0.40405 -0.63132,0.88385 -0.68183,1.43938 V 631.875 h -4.84848"
       inkscape:export-filename="/home/paulo/Desktop/nemo.png"
       inkscape:export-xdpi="180"
       inkscape:export-ydpi="180" />
    <path
       inkscape:connector-curvature="0"
       id="path3832"
       style="font-style:normal;font-variant:normal;font-weight:normal;font-stretch:normal;font-size:56.5692px;line-height:125%;font-family:Cynthe;-inkscape-font-specification:Cynthe;letter-spacing:0px;word-spacing:0px;fill:#373737;fill-opacity:1;stroke:none;stroke-width:0.280701"
       d="m 190.01296,627.02651 c 0.65652,10e-6 1.21208,-0.22726 1.66665,-0.68182 0.40402,-0.40403 0.65654,-0.88384 0.75757,-1.4394 v -15.07575 c -0.10107,-0.55553 -0.35355,-1.03533 -0.75757,-1.43938 -0.45457,-0.50504 -1.01013,-0.75756 -1.66665,-0.75759 H 175.4675 c -0.70708,3e-5 -1.28788,0.25255 -1.74244,0.75759 -0.40403,0.40405 -0.63131,0.88385 -0.6818,1.43938 v 15.07575 c 0.0505,0.55556 0.27777,1.03537 0.6818,1.4394 0.45456,0.45456 1.03536,0.68183 1.74244,0.68182 h 14.54546 m -16.9697,4.84849 v 0 h -0.0757 c -1.31313,0 -2.4495,-0.45455 -3.4091,-1.36364 -0.90909,-0.9596 -1.36362,-2.12121 -1.36362,-3.48485 v -19.39394 c 0,-1.31311 0.45453,-2.44947 1.36362,-3.40909 0.9596,-0.90906 2.12122,-1.3636 3.48486,-1.36364 v -0.0757 h 19.39394 v 0.0757 c 1.31309,4e-5 2.44945,0.45458 3.40908,1.36364 0.95957,0.95962 1.43936,2.09598 1.4394,3.40909 v 19.39394 c -4e-5,1.36364 -0.47983,2.52525 -1.4394,3.48485 -0.95963,0.90909 -2.09599,1.36364 -3.40908,1.36364 v 0 0 h -19.39397"
       inkscape:export-filename="/home/paulo/Desktop/nemo.png"
       inkscape:export-xdpi="180"
       inkscape:export-ydpi="180" />
    <rect
       style="fill:#2a8fbd;fill-opacity:1;stroke:none;stroke-width:0.280701"
       id="rect2989"
       width="80"
       height="8.96"
       x="77.157707"
       y="554.24738"
       ry="1.7920001"
       inkscape:export-filename="/home/paulo/Desktop/nemo.png"
       inkscape:export-xdpi="180"
       inkscape:export-ydpi="180" />
    <circle
       style="fill:none;stroke:#2a8fbd;stroke-width:8.96;stroke-miterlimit:4;stroke-dasharray:none;stroke-opacity:1"
       id="path3786"
       inkscape:export-filename="/home/paulo/Desktop/nemo.png"
       inkscape:export-xdpi="180"
       inkscape:export-ydpi="180"
       cx="117.47772"
       cy="521.51379"
       r="22.400002" />
    <rect
       style="fill:#2a8fbd;fill-opacity:1;stroke:none;stroke-width:0.280701"
       id="rect2989-7"
       width="80"
       height="8.96"
       x="77.157707"
       y="568.61292"
       ry="1.7920001"
       inkscape:export-filename="/home/paulo/Desktop/nemo.png"
       inkscape:export-xdpi="180"
       inkscape:export-ydpi="180" />
    <rect
       style="fill:#2a8fbd;fill-opacity:1;stroke:none;stroke-width:0.280701"
       id="rect2989-8"
       width="80"
       height="8.96"
       x="77.157707"
       y="582.97766"
       ry="1.7920001"
       inkscape:export-filename="/home/paulo/Desktop/nemo.png"
       inkscape:export-xdpi="180"
       inkscape:export-ydpi="180" />
    <rect
       style="fill:#2a8fbd;fill-opacity:1;stroke:none;stroke-width:0.280701"
       id="rect2989-4"
       width="80"
       height="8.96"
       x="77.157707"
       y="539.89081"
       ry="1.7920001"
       inkscape:export-filename="/home/paulo/Desktop/nemo.png"
       inkscape:export-xdpi="180"
       inkscape:export-ydpi="180" />
  </g>
</svg>
