<?xml version="1.0" encoding="UTF-8" standalone="no"?>
<!-- Created with Inkscape (http://www.inkscape.org/) -->

<svg
   version="1.1"
   id="svg2"
   xml:space="preserve"
   width="200"
   height="200"
   viewBox="0 0 500 500"
   sodipodi:docname="ngi0core.svg"
   inkscape:version="1.4.2 (ebf0e940d0, 2025-05-08)"
   xmlns:inkscape="http://www.inkscape.org/namespaces/inkscape"
   xmlns:sodipodi="http://sodipodi.sourceforge.net/DTD/sodipodi-0.dtd"
   xmlns:xlink="http://www.w3.org/1999/xlink"
   xmlns="http://www.w3.org/2000/svg"
   xmlns:svg="http://www.w3.org/2000/svg"
   xmlns:rdf="http://www.w3.org/1999/02/22-rdf-syntax-ns#"
   xmlns:cc="http://creativecommons.org/ns#"
   xmlns:dc="http://purl.org/dc/elements/1.1/"><sodipodi:namedview
     id="namedview1"
     pagecolor="#ffffff"
     bordercolor="#666666"
     borderopacity="1.0"
     inkscape:showpageshadow="2"
     inkscape:pageopacity="0.0"
     inkscape:pagecheckerboard="0"
     inkscape:deskcolor="#d1d1d1"
     inkscape:zoom="3.0908401"
     inkscape:cx="134.42947"
     inkscape:cy="77.001718"
     inkscape:window-width="1916"
     inkscape:window-height="1032"
     inkscape:window-x="0"
     inkscape:window-y="22"
     inkscape:window-maximized="1"
     inkscape:current-layer="svg2" /><metadata
     id="metadata8"><rdf:RDF><cc:Work
         rdf:about=""><dc:format>image/svg+xml</dc:format><dc:type
           rdf:resource="http://purl.org/dc/dcmitype/StillImage" /></cc:Work></rdf:RDF></metadata><defs
     id="defs6"><linearGradient
       id="linearGradient1220"><stop
         id="stop1216"
         offset="0"
         style="stop-color:#98bf00;stop-opacity:1;" /><stop
         id="stop1218"
         offset="1"
         style="stop-color:#98bf00;stop-opacity:0.51" /></linearGradient><linearGradient
       x1="0"
       y1="0"
       x2="1"
       y2="0"
       gradientUnits="userSpaceOnUse"
       gradientTransform="matrix(-139.45511,-135.52185,-135.52185,139.45511,177.4727,131.75308)"
       spreadMethod="pad"
       id="linearGradient28"><stop
         style="stop-opacity:1;stop-color:#00afbc"
         offset="0"
         id="stop24" /><stop
         style="stop-opacity:1;stop-color:#205374"
         offset="1"
         id="stop26" /></linearGradient><clipPath
       clipPathUnits="userSpaceOnUse"
       id="clipPath38"><path
         d="M 0,127.984 H 415.474 V 0 H 0 Z"
         id="path36" /></clipPath><linearGradient
       xlink:href="#linearGradient1220"
       id="linearGradient947"
       gradientUnits="userSpaceOnUse"
       x1="14.915152"
       y1="14.167241"
       x2="214.11908"
       y2="111.76186"
       gradientTransform="matrix(4.4444443,0,0,-4.4444443,-33.008887,535.8)" /><linearGradient
       inkscape:collect="always"
       xlink:href="#linearGradient1220"
       id="linearGradient1"
       gradientUnits="userSpaceOnUse"
       gradientTransform="matrix(4.4444443,0,0,-4.4444443,-33.008887,535.8)"
       x1="14.915152"
       y1="14.167241"
       x2="214.11908"
       y2="111.76186" /><linearGradient
       inkscape:collect="always"
       xlink:href="#linearGradient1220"
       id="linearGradient2"
       gradientUnits="userSpaceOnUse"
       gradientTransform="matrix(4.4444443,0,0,-4.4444443,-33.008887,535.8)"
       x1="14.915152"
       y1="14.167241"
       x2="214.11908"
       y2="111.76186" /><linearGradient
       inkscape:collect="always"
       xlink:href="#linearGradient1220"
       id="linearGradient3"
       gradientUnits="userSpaceOnUse"
       gradientTransform="matrix(4.4444443,0,0,-4.4444443,-33.008887,535.8)"
       x1="14.915152"
       y1="14.167241"
       x2="214.11908"
       y2="111.76186" /></defs><g
     id="g10"
     transform="matrix(1.3333333,0,0,-1.3333333,1.1498795,335.32339)"><path
   id="path30"
   style="fill:url(#linearGradient1);fill-opacity:1;stroke:none;stroke-width:4.44444"
   d="M 79.115234,30 C 52.097457,30 30,52.101902 30,79.115234 V 423.66211 c 0,27.01778 22.097457,49.11523 49.115234,49.11523 H 812.60352 c 27.01333,0 49.11718,-22.1019 49.11718,-49.11523 v -81.15625 c 0,-8.98667 3.56774,-17.60875 9.92774,-23.96875 l 40.42773,-40.42578 c 11.28889,-11.28445 11.25696,-29.58705 -0.0586,-40.83594 L 871.7207,197.19922 c -6.4,-6.36 -10,-15.01684 -10,-24.03906 V 79.115234 C 861.7207,52.101902 839.61685,30 812.60352,30 Z m 479.462886,74.87891 c 24.82223,0 47.35625,4.18687 67.5918,12.54687 8.77333,3.62667 16.94249,7.96283 24.49805,13.01172 16.01778,10.69778 16.86706,34.2709 1.40039,46.45312 -9.92444,7.81778 -24.07212,7.92617 -34.47656,0.76172 -16.37778,-11.28 -34.9729,-16.91992 -55.77735,-16.91992 -18.08,0 -34.13349,3.78146 -48.16015,11.32813 -14.03556,7.56444 -24.96045,18.21407 -32.78711,31.97851 -7.82667,13.76 -11.73633,29.54517 -11.73633,47.34961 0,17.54222 3.90966,33.19117 11.73633,46.95117 7.82666,13.76 18.6862,24.48885 32.58398,32.17774 13.89333,7.68889 29.7458,11.5332 47.55469,11.5332 10.35111,0 20.13769,-1.21733 29.35547,-3.64844 9.80444,-2.58666 17.28454,-9.97781 20.20898,-19.25781 1.03111,-3.28889 -1.48861,-6.63867 -4.9375,-6.63867 -18.83111,0 -33.95235,-15.87151 -32.71679,-34.96484 1.12888,-17.42223 16.37371,-30.59961 33.83593,-30.59961 h 32.36914 c 0.28889,0 0.56907,0.0341 0.85352,0.043 0.28889,-0.009 0.56907,-0.043 0.85351,-0.043 h 2.24805 c 15.92445,0 28.82813,12.90617 28.82813,28.82617 v 40.20898 c 0,33.05334 -21.24503,62.64302 -52.81836,72.42969 -0.2,0.0622 -0.40547,0.12528 -0.60547,0.1875 -20.24,6.20444 -40.61301,9.31055 -61.11524,9.31055 -29.41333,0 -55.85257,-6.27116 -79.32812,-18.82227 -23.47556,-12.54667 -41.88859,-29.94676 -55.24414,-52.20898 -13.35556,-22.26222 -20.03516,-47.41771 -20.03516,-75.48438 0,-28.05778 6.6796,-53.22074 20.03516,-75.47851 13.35555,-22.26223 31.90123,-39.66677 55.65234,-52.20899 23.73334,-12.54666 50.44837,-18.82226 80.13281,-18.82226 z m -416.47265,4.85547 h 6.52344 c 9.70666,0 18.90216,4.35021 25.04882,11.86132 l 107.26758,131 c 8.00889,9.78667 23.86719,4.12101 23.86719,-8.52343 V 142.11133 c 0,-17.88445 14.49251,-32.37695 32.37695,-32.37695 17.88445,0 32.38282,14.4925 32.38282,32.37695 v 218.56055 c 0,17.87999 -14.49837,32.37695 -32.38282,32.37695 h -6.13672 c -9.69333,0 -18.87623,-4.34119 -25.02734,-11.83008 L 198.3418,250.08594 c -8.01778,-9.76445 -23.85938,-4.09454 -23.85938,8.54101 v 102.04493 c 0,17.87999 -14.49251,32.37695 -32.37695,32.37695 -17.88,0 -32.37695,-14.49696 -32.37695,-32.37695 V 142.11133 c 0,-17.88445 14.49695,-32.37695 32.37695,-32.37695 z m 607.09961,0.002 c 18.10666,0 32.7832,14.67458 32.7832,32.78125 v 217.74609 c 0,18.10667 -14.67654,32.78321 -32.7832,32.78321 -18.10667,0 -32.78125,-14.67654 -32.78125,-32.78321 V 142.51758 c 0,-18.10667 14.67458,-32.78125 32.78125,-32.78125 z"
   transform="matrix(0.22500001,0,0,-0.22500001,7.4269998,120.555)" /><g
   id="g40"
   transform="translate(175.9982,95.8645)" /><g
   id="g44"
   transform="translate(152.1193,64.9934)" /><path
   d="m 243.206,66.196205 v 2.76312 l 14.35552,17.53152 0.4764,-1.55624 h -14.6096 v 3.4936 h 18.32552 v -2.76312 l -14.35552,-17.53152 -0.50816,1.55624 h 15.27656 v -3.4936 z"
   style="font-weight:600;font-size:31.76px;font-family:Montserrat;-inkscape-font-specification:'Montserrat Semi-Bold';fill:#6f9aa8"
   id="path152350" /><path
   d="m 278.52309,79.186045 h 11.05248 v -3.39832 h -11.05248 z m 0.3176,-9.528 h 12.5452 v -3.46184 h -16.674 v 22.232 h 16.22936 v -3.46184 h -12.10056 z"
   style="font-weight:600;font-size:31.76px;font-family:Montserrat;-inkscape-font-specification:'Montserrat Semi-Bold';fill:#6f9aa8"
   id="path152352" /><path
   d="m 304.75683,66.196205 v 22.232 h 9.14688 q 2.95368,0 5.04984,-0.9528 2.12792,-0.9528 3.27128,-2.73136 1.14336,-1.77856 1.14336,-4.22408 0,-2.44552 -1.14336,-4.22408 -1.14336,-1.7468 -3.27128,-2.6996 -2.09616,-0.92104 -5.04984,-0.92104 h -6.86016 l 1.84208,1.87384 v -8.35288 z m 14.54608,0 -5.62152,8.06704 h 4.41464 l 5.65328,-8.06704 z m -10.41728,7.90824 -1.84208,1.96912 h 6.6696 q 2.73136,0 4.09704,1.17512 1.39744,1.17512 1.39744,3.27128 0,2.12792 -1.39744,3.27128 -1.36568,1.14336 -4.09704,1.14336 h -6.6696 l 1.84208,2.03264 z"
   style="font-weight:600;font-size:31.76px;font-family:Montserrat;-inkscape-font-specification:'Montserrat Semi-Bold';fill:#6f9aa8"
   id="path152354" /><path
   d="m 347.15643,65.878605 q -2.60432,0 -4.79576,0.85752 -2.19144,0.85752 -3.8112,2.382 -1.61976,1.55624 -2.50904,3.62064 -0.88928,2.09616 -0.88928,4.57344 0,2.47728 0.88928,4.54168 0.88928,2.09616 2.50904,3.62064 1.61976,1.55624 3.8112,2.41376 2.19144,0.85752 4.764,0.85752 2.60432,0 4.764,-0.85752 2.19144,-0.85752 3.8112,-2.41376 1.61976,-1.52448 2.50904,-3.62064 0.88928,-2.0644 0.88928,-4.54168 0,-2.47728 -0.88928,-4.57344 -0.88928,-2.09616 -2.50904,-3.62064 -1.61976,-1.52448 -3.8112,-2.382 -2.15968,-0.85752 -4.73224,-0.85752 z m -0.0318,3.62064 q 1.68328,0 3.11248,0.57168 1.4292,0.57168 2.47728,1.61976 1.04808,1.07984 1.61976,2.47728 0.60344,1.4292 0.60344,3.14424 0,1.71504 -0.60344,3.11248 -0.57168,1.4292 -1.61976,2.47728 -1.04808,1.07984 -2.47728,1.65152 -1.4292,0.57168 -3.11248,0.57168 -1.68328,0 -3.11248,-0.57168 -1.39744,-0.57168 -2.47728,-1.65152 -1.04808,-1.04808 -1.65152,-2.47728 -0.57168,-1.39744 -0.57168,-3.11248 0,-1.68328 0.57168,-3.11248 0.60344,-1.4292 1.65152,-2.50904 1.04808,-1.04808 2.47728,-1.61976 1.4292,-0.57168 3.11248,-0.57168 z"
   style="font-weight:600;font-size:31.76px;font-family:Montserrat;-inkscape-font-specification:'Montserrat Semi-Bold';fill:#6f9aa8"
   id="path152356" />






<path
   d="m 254.21076,34.810869 q -2.54067,0 -4.732,0.825803 -2.15956,0.857564 -3.77924,2.382123 -1.58792,1.556321 -2.47715,3.65259 -0.88924,2.096269 -0.88924,4.573678 0,2.477409 0.88924,4.573678 0.88923,2.096269 2.50892,3.620828 1.61967,1.556321 3.77923,2.382124 2.15957,0.857565 4.732,0.857565 2.73121,0 4.98606,-0.95285 2.25484,-0.921088 3.811,-2.763263 l -2.6677,-2.509171 q -1.20682,1.302228 -2.69946,1.937461 -1.49265,0.666994 -3.23935,0.666994 -1.74671,0 -3.2076,-0.571709 -1.42912,-0.57171 -2.50891,-1.619844 -1.04802,-1.048135 -1.65143,-2.477409 -0.57165,-1.429275 -0.57165,-3.144404 0,-1.715129 0.57165,-3.144403 0.60341,-1.429275 1.65143,-2.477409 1.07979,-1.048135 2.50891,-1.619844 1.46089,-0.57171 3.2076,-0.57171 1.7467,0 3.23935,0.635233 1.49264,0.666995 2.69946,2.000984 l 2.6677,-2.540932 q -1.55616,-1.810414 -3.811,-2.763264 -2.25484,-0.952849 -5.01782,-0.952849 z"
   style="font-weight:600;font-size:31.76px;font-family:Montserrat;-inkscape-font-specification:'Montserrat Semi-Bold';letter-spacing:7.875px;fill:#6f9aa8;stroke-width:1.68733"
   id="path152323" /><path
   d="m 283.08066,34.810869 q -2.60419,0 -4.79552,0.857564 -2.19132,0.857565 -3.811,2.382124 -1.61967,1.556321 -2.50891,3.620828 -0.88923,2.096269 -0.88923,4.573678 0,2.477409 0.88923,4.541916 0.88924,2.096269 2.50891,3.620829 1.61968,1.556321 3.811,2.413885 2.19133,0.857565 4.76376,0.857565 2.60418,0 4.76375,-0.857565 2.19133,-0.857564 3.811,-2.413885 1.61968,-1.52456 2.50891,-3.620829 0.88923,-2.064507 0.88923,-4.541916 0,-2.477409 -0.88923,-4.573678 -0.88923,-2.096269 -2.50891,-3.620828 -1.61967,-1.524559 -3.811,-2.382124 -2.15957,-0.857564 -4.73199,-0.857564 z m -0.0318,3.620828 q 1.68319,0 3.11232,0.57171 1.42912,0.571709 2.47715,1.619844 1.04802,1.079896 1.61967,2.477409 0.60341,1.429274 0.60341,3.144403 0,1.715129 -0.60341,3.112642 -0.57165,1.429274 -1.61967,2.477409 -1.04803,1.079896 -2.47715,1.651606 -1.42913,0.571709 -3.11232,0.571709 -1.6832,0 -3.11232,-0.571709 -1.39737,-0.57171 -2.47715,-1.651606 -1.04803,-1.048135 -1.65144,-2.477409 -0.57165,-1.397513 -0.57165,-3.112642 0,-1.683367 0.57165,-3.112642 0.60341,-1.429274 1.65144,-2.50917 1.04802,-1.048135 2.47715,-1.619844 1.42912,-0.57171 3.11232,-0.57171 z"
   style="font-weight:600;font-size:31.76px;font-family:Montserrat;-inkscape-font-specification:'Montserrat Semi-Bold';letter-spacing:7.875px;fill:#6f9aa8;stroke-width:1.68733"
   id="path152325" /><path
   d="m 304.75733,35.128485 v 22.233156 h 9.1464 q 2.95353,0 5.04958,-0.952849 2.12781,-0.95285 3.27111,-2.731502 1.1433,-1.778653 1.1433,-4.2243 0,-2.445647 -1.1433,-4.2243 -1.1433,-1.74689 -3.27111,-2.69974 -2.09605,-0.921088 -5.04958,-0.921088 h -6.8598 l 1.84198,1.873938 v -8.353315 z m 14.54532,0 -5.62123,8.06746 h 4.41441 l 5.65299,-8.06746 z m -10.41674,7.908651 -1.84198,1.969223 h 6.66925 q 2.73122,0 4.09683,1.175181 1.39737,1.175181 1.39737,3.27145 0,2.128031 -1.39737,3.27145 -1.36561,1.14342 -4.09683,1.14342 h -6.66925 l 1.84198,2.032745 z"
   style="font-weight:600;font-size:31.76px;font-family:Montserrat;-inkscape-font-specification:'Montserrat Semi-Bold';letter-spacing:7.875px;fill:#6f9aa8;stroke-width:1.68733"
   id="path152327" /><path
   d="m 341.00805,48.119001 h 11.05191 v -3.398497 h -11.05191 z m 0.31759,-9.528496 h 12.54454 v -3.46202 h -16.67313 v 22.233156 h 16.22852 v -3.46202 h -12.09993 z"
   style="font-weight:600;font-size:31.76px;font-family:Montserrat;-inkscape-font-specification:'Montserrat Semi-Bold';letter-spacing:7.875px;fill:#6f9aa8;stroke-width:1.68733"
   id="path152329" />



<text
   style="font-style:normal;font-variant:normal;font-weight:bold;font-stretch:normal;font-size:20.01px;font-family:'Montserrat SemiBold';-inkscape-font-specification:'Montserrat SemiBold, Bold';font-variant-ligatures:normal;font-variant-caps:normal;font-variant-numeric:normal;font-feature-settings:normal;text-align:start;writing-mode:lr-tb;text-anchor:start;fill:#6f9aa8;fill-opacity:1;fill-rule:nonzero;stroke:none;stroke-width:1"
   id="text2843"
   x="240.16206"
   y="-35.894695"
   transform="scale(1,-1)"><tspan
     id="tspan2841"
     x="240.16206"
     y="-35.894695" /></text><path
   id="path152416"
   style="fill:url(#linearGradient2);fill-opacity:1;stroke:none;stroke-width:4.44444"
   d="M 79.115234,30 C 52.097457,30 30,52.101902 30,79.115234 V 423.66211 c 0,27.01778 22.097457,49.11523 49.115234,49.11523 H 812.60352 c 27.01333,0 49.11718,-22.1019 49.11718,-49.11523 v -81.15625 c 0,-8.98667 3.56774,-17.60875 9.92774,-23.96875 l 40.42773,-40.42578 c 11.28889,-11.28445 11.25696,-29.58705 -0.0586,-40.83594 L 871.7207,197.19922 c -6.4,-6.36 -10,-15.01684 -10,-24.03906 V 79.115234 C 861.7207,52.101902 839.61685,30 812.60352,30 Z m 479.462886,74.87891 c 24.82223,0 47.35625,4.18687 67.5918,12.54687 8.77333,3.62667 16.94249,7.96283 24.49805,13.01172 16.01778,10.69778 16.86706,34.2709 1.40039,46.45312 -9.92444,7.81778 -24.07212,7.92617 -34.47656,0.76172 -16.37778,-11.28 -34.9729,-16.91992 -55.77735,-16.91992 -18.08,0 -34.13349,3.78146 -48.16015,11.32813 -14.03556,7.56444 -24.96045,18.21407 -32.78711,31.97851 -7.82667,13.76 -11.73633,29.54517 -11.73633,47.34961 0,17.54222 3.90966,33.19117 11.73633,46.95117 7.82666,13.76 18.6862,24.48885 32.58398,32.17774 13.89333,7.68889 29.7458,11.5332 47.55469,11.5332 10.35111,0 20.13769,-1.21733 29.35547,-3.64844 9.80444,-2.58666 17.28454,-9.97781 20.20898,-19.25781 1.03111,-3.28889 -1.48861,-6.63867 -4.9375,-6.63867 -18.83111,0 -33.95235,-15.87151 -32.71679,-34.96484 1.12888,-17.42223 16.37371,-30.59961 33.83593,-30.59961 h 32.36914 c 0.28889,0 0.56907,0.0341 0.85352,0.043 0.28889,-0.009 0.56907,-0.043 0.85351,-0.043 h 2.24805 c 15.92445,0 28.82813,12.90617 28.82813,28.82617 v 40.20898 c 0,33.05334 -21.24503,62.64302 -52.81836,72.42969 -0.2,0.0622 -0.40547,0.12528 -0.60547,0.1875 -20.24,6.20444 -40.61301,9.31055 -61.11524,9.31055 -29.41333,0 -55.85257,-6.27116 -79.32812,-18.82227 -23.47556,-12.54667 -41.88859,-29.94676 -55.24414,-52.20898 -13.35556,-22.26222 -20.03516,-47.41771 -20.03516,-75.48438 0,-28.05778 6.6796,-53.22074 20.03516,-75.47851 13.35555,-22.26223 31.90123,-39.66677 55.65234,-52.20899 23.73334,-12.54666 50.44837,-18.82226 80.13281,-18.82226 z m -416.47265,4.85547 h 6.52344 c 9.70666,0 18.90216,4.35021 25.04882,11.86132 l 107.26758,131 c 8.00889,9.78667 23.86719,4.12101 23.86719,-8.52343 V 142.11133 c 0,-17.88445 14.49251,-32.37695 32.37695,-32.37695 17.88445,0 32.38282,14.4925 32.38282,32.37695 v 218.56055 c 0,17.87999 -14.49837,32.37695 -32.38282,32.37695 h -6.13672 c -9.69333,0 -18.87623,-4.34119 -25.02734,-11.83008 L 198.3418,250.08594 c -8.01778,-9.76445 -23.85938,-4.09454 -23.85938,8.54101 v 102.04493 c 0,17.87999 -14.49251,32.37695 -32.37695,32.37695 -17.88,0 -32.37695,-14.49696 -32.37695,-32.37695 V 142.11133 c 0,-17.88445 14.49695,-32.37695 32.37695,-32.37695 z m 607.09961,0.002 c 18.10666,0 32.7832,14.67458 32.7832,32.78125 v 217.74609 c 0,18.10667 -14.67654,32.78321 -32.7832,32.78321 -18.10667,0 -32.78125,-14.67654 -32.78125,-32.78321 V 142.51758 c 0,-18.10667 14.67458,-32.78125 32.78125,-32.78125 z"
   transform="matrix(0.22500001,0,0,-0.22500001,7.4269998,120.555)" /><path
   d="m 243.206,66.196205 v 2.76312 l 14.35552,17.53152 0.4764,-1.55624 h -14.6096 v 3.4936 h 18.32552 v -2.76312 l -14.35552,-17.53152 -0.50816,1.55624 h 15.27656 v -3.4936 z"
   style="font-weight:600;font-size:31.76px;font-family:Montserrat;-inkscape-font-specification:'Montserrat Semi-Bold';fill:#6f9aa8"
   id="path152418" /><path
   d="m 278.52309,79.186045 h 11.05248 v -3.39832 h -11.05248 z m 0.3176,-9.528 h 12.5452 v -3.46184 h -16.674 v 22.232 h 16.22936 v -3.46184 h -12.10056 z"
   style="font-weight:600;font-size:31.76px;font-family:Montserrat;-inkscape-font-specification:'Montserrat Semi-Bold';fill:#6f9aa8"
   id="path152420" /><path
   d="m 304.75683,66.196205 v 22.232 h 9.14688 q 2.95368,0 5.04984,-0.9528 2.12792,-0.9528 3.27128,-2.73136 1.14336,-1.77856 1.14336,-4.22408 0,-2.44552 -1.14336,-4.22408 -1.14336,-1.7468 -3.27128,-2.6996 -2.09616,-0.92104 -5.04984,-0.92104 h -6.86016 l 1.84208,1.87384 v -8.35288 z m 14.54608,0 -5.62152,8.06704 h 4.41464 l 5.65328,-8.06704 z m -10.41728,7.90824 -1.84208,1.96912 h 6.6696 q 2.73136,0 4.09704,1.17512 1.39744,1.17512 1.39744,3.27128 0,2.12792 -1.39744,3.27128 -1.36568,1.14336 -4.09704,1.14336 h -6.6696 l 1.84208,2.03264 z"
   style="font-weight:600;font-size:31.76px;font-family:Montserrat;-inkscape-font-specification:'Montserrat Semi-Bold';fill:#6f9aa8"
   id="path152422" /><path
   d="m 347.15643,65.878605 q -2.60432,0 -4.79576,0.85752 -2.19144,0.85752 -3.8112,2.382 -1.61976,1.55624 -2.50904,3.62064 -0.88928,2.09616 -0.88928,4.57344 0,2.47728 0.88928,4.54168 0.88928,2.09616 2.50904,3.62064 1.61976,1.55624 3.8112,2.41376 2.19144,0.85752 4.764,0.85752 2.60432,0 4.764,-0.85752 2.19144,-0.85752 3.8112,-2.41376 1.61976,-1.52448 2.50904,-3.62064 0.88928,-2.0644 0.88928,-4.54168 0,-2.47728 -0.88928,-4.57344 -0.88928,-2.09616 -2.50904,-3.62064 -1.61976,-1.52448 -3.8112,-2.382 -2.15968,-0.85752 -4.73224,-0.85752 z m -0.0318,3.62064 q 1.68328,0 3.11248,0.57168 1.4292,0.57168 2.47728,1.61976 1.04808,1.07984 1.61976,2.47728 0.60344,1.4292 0.60344,3.14424 0,1.71504 -0.60344,3.11248 -0.57168,1.4292 -1.61976,2.47728 -1.04808,1.07984 -2.47728,1.65152 -1.4292,0.57168 -3.11248,0.57168 -1.68328,0 -3.11248,-0.57168 -1.39744,-0.57168 -2.47728,-1.65152 -1.04808,-1.04808 -1.65152,-2.47728 -0.57168,-1.39744 -0.57168,-3.11248 0,-1.68328 0.57168,-3.11248 0.60344,-1.4292 1.65152,-2.50904 1.04808,-1.04808 2.47728,-1.61976 1.4292,-0.57168 3.11248,-0.57168 z"
   style="font-weight:600;font-size:31.76px;font-family:Montserrat;-inkscape-font-specification:'Montserrat Semi-Bold';fill:#6f9aa8"
   id="path152424" /><path
   d="m 254.21076,34.810869 q -2.54067,0 -4.732,0.825803 -2.15956,0.857564 -3.77924,2.382123 -1.58792,1.556321 -2.47715,3.65259 -0.88924,2.096269 -0.88924,4.573678 0,2.477409 0.88924,4.573678 0.88923,2.096269 2.50892,3.620828 1.61967,1.556321 3.77923,2.382124 2.15957,0.857565 4.732,0.857565 2.73121,0 4.98606,-0.95285 2.25484,-0.921088 3.811,-2.763263 l -2.6677,-2.509171 q -1.20682,1.302228 -2.69946,1.937461 -1.49265,0.666994 -3.23935,0.666994 -1.74671,0 -3.2076,-0.571709 -1.42912,-0.57171 -2.50891,-1.619844 -1.04802,-1.048135 -1.65143,-2.477409 -0.57165,-1.429275 -0.57165,-3.144404 0,-1.715129 0.57165,-3.144403 0.60341,-1.429275 1.65143,-2.477409 1.07979,-1.048135 2.50891,-1.619844 1.46089,-0.57171 3.2076,-0.57171 1.7467,0 3.23935,0.635233 1.49264,0.666995 2.69946,2.000984 l 2.6677,-2.540932 q -1.55616,-1.810414 -3.811,-2.763264 -2.25484,-0.952849 -5.01782,-0.952849 z"
   style="font-weight:600;font-size:31.76px;font-family:Montserrat;-inkscape-font-specification:'Montserrat Semi-Bold';letter-spacing:7.875px;fill:#6f9aa8;stroke-width:1.68733"
   id="path152426" /><path
   d="m 283.08066,34.810869 q -2.60419,0 -4.79552,0.857564 -2.19132,0.857565 -3.811,2.382124 -1.61967,1.556321 -2.50891,3.620828 -0.88923,2.096269 -0.88923,4.573678 0,2.477409 0.88923,4.541916 0.88924,2.096269 2.50891,3.620829 1.61968,1.556321 3.811,2.413885 2.19133,0.857565 4.76376,0.857565 2.60418,0 4.76375,-0.857565 2.19133,-0.857564 3.811,-2.413885 1.61968,-1.52456 2.50891,-3.620829 0.88923,-2.064507 0.88923,-4.541916 0,-2.477409 -0.88923,-4.573678 -0.88923,-2.096269 -2.50891,-3.620828 -1.61967,-1.524559 -3.811,-2.382124 -2.15957,-0.857564 -4.73199,-0.857564 z m -0.0318,3.620828 q 1.68319,0 3.11232,0.57171 1.42912,0.571709 2.47715,1.619844 1.04802,1.079896 1.61967,2.477409 0.60341,1.429274 0.60341,3.144403 0,1.715129 -0.60341,3.112642 -0.57165,1.429274 -1.61967,2.477409 -1.04803,1.079896 -2.47715,1.651606 -1.42913,0.571709 -3.11232,0.571709 -1.6832,0 -3.11232,-0.571709 -1.39737,-0.57171 -2.47715,-1.651606 -1.04803,-1.048135 -1.65144,-2.477409 -0.57165,-1.397513 -0.57165,-3.112642 0,-1.683367 0.57165,-3.112642 0.60341,-1.429274 1.65144,-2.50917 1.04802,-1.048135 2.47715,-1.619844 1.42912,-0.57171 3.11232,-0.57171 z"
   style="font-weight:600;font-size:31.76px;font-family:Montserrat;-inkscape-font-specification:'Montserrat Semi-Bold';letter-spacing:7.875px;fill:#6f9aa8;stroke-width:1.68733"
   id="path152428" /><path
   d="m 304.75733,35.128485 v 22.233156 h 9.1464 q 2.95353,0 5.04958,-0.952849 2.12781,-0.95285 3.27111,-2.731502 1.1433,-1.778653 1.1433,-4.2243 0,-2.445647 -1.1433,-4.2243 -1.1433,-1.74689 -3.27111,-2.69974 -2.09605,-0.921088 -5.04958,-0.921088 h -6.8598 l 1.84198,1.873938 v -8.353315 z m 14.54532,0 -5.62123,8.06746 h 4.41441 l 5.65299,-8.06746 z m -10.41674,7.908651 -1.84198,1.969223 h 6.66925 q 2.73122,0 4.09683,1.175181 1.39737,1.175181 1.39737,3.27145 0,2.128031 -1.39737,3.27145 -1.36561,1.14342 -4.09683,1.14342 h -6.66925 l 1.84198,2.032745 z"
   style="font-weight:600;font-size:31.76px;font-family:Montserrat;-inkscape-font-specification:'Montserrat Semi-Bold';letter-spacing:7.875px;fill:#6f9aa8;stroke-width:1.68733"
   id="path152430" /><path
   d="m 341.00805,48.119001 h 11.05191 v -3.398497 h -11.05191 z m 0.31759,-9.528496 h 12.54454 v -3.46202 h -16.67313 v 22.233156 h 16.22852 v -3.46202 h -12.09993 z"
   style="font-weight:600;font-size:31.76px;font-family:Montserrat;-inkscape-font-specification:'Montserrat Semi-Bold';letter-spacing:7.875px;fill:#6f9aa8;stroke-width:1.68733"
   id="path152432" /><path
   id="path152434"
   style="fill:url(#linearGradient3);fill-opacity:1;stroke:none;stroke-width:4.44444"
   d="M 79.115234,30 C 52.097457,30 30,52.101902 30,79.115234 V 423.66211 c 0,27.01778 22.097457,49.11523 49.115234,49.11523 H 812.60352 c 27.01333,0 49.11718,-22.1019 49.11718,-49.11523 v -81.15625 c 0,-8.98667 3.56774,-17.60875 9.92774,-23.96875 l 40.42773,-40.42578 c 11.28889,-11.28445 11.25696,-29.58705 -0.0586,-40.83594 L 871.7207,197.19922 c -6.4,-6.36 -10,-15.01684 -10,-24.03906 V 79.115234 C 861.7207,52.101902 839.61685,30 812.60352,30 Z m 479.462886,74.87891 c 24.82223,0 47.35625,4.18687 67.5918,12.54687 8.77333,3.62667 16.94249,7.96283 24.49805,13.01172 16.01778,10.69778 16.86706,34.2709 1.40039,46.45312 -9.92444,7.81778 -24.07212,7.92617 -34.47656,0.76172 -16.37778,-11.28 -34.9729,-16.91992 -55.77735,-16.91992 -18.08,0 -34.13349,3.78146 -48.16015,11.32813 -14.03556,7.56444 -24.96045,18.21407 -32.78711,31.97851 -7.82667,13.76 -11.73633,29.54517 -11.73633,47.34961 0,17.54222 3.90966,33.19117 11.73633,46.95117 7.82666,13.76 18.6862,24.48885 32.58398,32.17774 13.89333,7.68889 29.7458,11.5332 47.55469,11.5332 10.35111,0 20.13769,-1.21733 29.35547,-3.64844 9.80444,-2.58666 17.28454,-9.97781 20.20898,-19.25781 1.03111,-3.28889 -1.48861,-6.63867 -4.9375,-6.63867 -18.83111,0 -33.95235,-15.87151 -32.71679,-34.96484 1.12888,-17.42223 16.37371,-30.59961 33.83593,-30.59961 h 32.36914 c 0.28889,0 0.56907,0.0341 0.85352,0.043 0.28889,-0.009 0.56907,-0.043 0.85351,-0.043 h 2.24805 c 15.92445,0 28.82813,12.90617 28.82813,28.82617 v 40.20898 c 0,33.05334 -21.24503,62.64302 -52.81836,72.42969 -0.2,0.0622 -0.40547,0.12528 -0.60547,0.1875 -20.24,6.20444 -40.61301,9.31055 -61.11524,9.31055 -29.41333,0 -55.85257,-6.27116 -79.32812,-18.82227 -23.47556,-12.54667 -41.88859,-29.94676 -55.24414,-52.20898 -13.35556,-22.26222 -20.03516,-47.41771 -20.03516,-75.48438 0,-28.05778 6.6796,-53.22074 20.03516,-75.47851 13.35555,-22.26223 31.90123,-39.66677 55.65234,-52.20899 23.73334,-12.54666 50.44837,-18.82226 80.13281,-18.82226 z m -416.47265,4.85547 h 6.52344 c 9.70666,0 18.90216,4.35021 25.04882,11.86132 l 107.26758,131 c 8.00889,9.78667 23.86719,4.12101 23.86719,-8.52343 V 142.11133 c 0,-17.88445 14.49251,-32.37695 32.37695,-32.37695 17.88445,0 32.38282,14.4925 32.38282,32.37695 v 218.56055 c 0,17.87999 -14.49837,32.37695 -32.38282,32.37695 h -6.13672 c -9.69333,0 -18.87623,-4.34119 -25.02734,-11.83008 L 198.3418,250.08594 c -8.01778,-9.76445 -23.85938,-4.09454 -23.85938,8.54101 v 102.04493 c 0,17.87999 -14.49251,32.37695 -32.37695,32.37695 -17.88,0 -32.37695,-14.49696 -32.37695,-32.37695 V 142.11133 c 0,-17.88445 14.49695,-32.37695 32.37695,-32.37695 z m 607.09961,0.002 c 18.10666,0 32.7832,14.67458 32.7832,32.78125 v 217.74609 c 0,18.10667 -14.67654,32.78321 -32.7832,32.78321 -18.10667,0 -32.78125,-14.67654 -32.78125,-32.78321 V 142.51758 c 0,-18.10667 14.67458,-32.78125 32.78125,-32.78125 z"
   transform="matrix(0.22500001,0,0,-0.22500001,7.4269998,120.555)" /><path
   d="m 243.206,66.196205 v 2.76312 l 14.35552,17.53152 0.4764,-1.55624 h -14.6096 v 3.4936 h 18.32552 v -2.76312 l -14.35552,-17.53152 -0.50816,1.55624 h 15.27656 v -3.4936 z"
   style="font-weight:600;font-size:31.76px;font-family:Montserrat;-inkscape-font-specification:'Montserrat Semi-Bold';fill:#6f9aa8"
   id="path152436" /><path
   d="m 278.52309,79.186045 h 11.05248 v -3.39832 h -11.05248 z m 0.3176,-9.528 h 12.5452 v -3.46184 h -16.674 v 22.232 h 16.22936 v -3.46184 h -12.10056 z"
   style="font-weight:600;font-size:31.76px;font-family:Montserrat;-inkscape-font-specification:'Montserrat Semi-Bold';fill:#6f9aa8"
   id="path152438" /><path
   d="m 304.75683,66.196205 v 22.232 h 9.14688 q 2.95368,0 5.04984,-0.9528 2.12792,-0.9528 3.27128,-2.73136 1.14336,-1.77856 1.14336,-4.22408 0,-2.44552 -1.14336,-4.22408 -1.14336,-1.7468 -3.27128,-2.6996 -2.09616,-0.92104 -5.04984,-0.92104 h -6.86016 l 1.84208,1.87384 v -8.35288 z m 14.54608,0 -5.62152,8.06704 h 4.41464 l 5.65328,-8.06704 z m -10.41728,7.90824 -1.84208,1.96912 h 6.6696 q 2.73136,0 4.09704,1.17512 1.39744,1.17512 1.39744,3.27128 0,2.12792 -1.39744,3.27128 -1.36568,1.14336 -4.09704,1.14336 h -6.6696 l 1.84208,2.03264 z"
   style="font-weight:600;font-size:31.76px;font-family:Montserrat;-inkscape-font-specification:'Montserrat Semi-Bold';fill:#6f9aa8"
   id="path152440" /><path
   d="m 347.15643,65.878605 q -2.60432,0 -4.79576,0.85752 -2.19144,0.85752 -3.8112,2.382 -1.61976,1.55624 -2.50904,3.62064 -0.88928,2.09616 -0.88928,4.57344 0,2.47728 0.88928,4.54168 0.88928,2.09616 2.50904,3.62064 1.61976,1.55624 3.8112,2.41376 2.19144,0.85752 4.764,0.85752 2.60432,0 4.764,-0.85752 2.19144,-0.85752 3.8112,-2.41376 1.61976,-1.52448 2.50904,-3.62064 0.88928,-2.0644 0.88928,-4.54168 0,-2.47728 -0.88928,-4.57344 -0.88928,-2.09616 -2.50904,-3.62064 -1.61976,-1.52448 -3.8112,-2.382 -2.15968,-0.85752 -4.73224,-0.85752 z m -0.0318,3.62064 q 1.68328,0 3.11248,0.57168 1.4292,0.57168 2.47728,1.61976 1.04808,1.07984 1.61976,2.47728 0.60344,1.4292 0.60344,3.14424 0,1.71504 -0.60344,3.11248 -0.57168,1.4292 -1.61976,2.47728 -1.04808,1.07984 -2.47728,1.65152 -1.4292,0.57168 -3.11248,0.57168 -1.68328,0 -3.11248,-0.57168 -1.39744,-0.57168 -2.47728,-1.65152 -1.04808,-1.04808 -1.65152,-2.47728 -0.57168,-1.39744 -0.57168,-3.11248 0,-1.68328 0.57168,-3.11248 0.60344,-1.4292 1.65152,-2.50904 1.04808,-1.04808 2.47728,-1.61976 1.4292,-0.57168 3.11248,-0.57168 z"
   style="font-weight:600;font-size:31.76px;font-family:Montserrat;-inkscape-font-specification:'Montserrat Semi-Bold';fill:#6f9aa8"
   id="path152442" /><path
   d="m 254.21076,34.810869 q -2.54067,0 -4.732,0.825803 -2.15956,0.857564 -3.77924,2.382123 -1.58792,1.556321 -2.47715,3.65259 -0.88924,2.096269 -0.88924,4.573678 0,2.477409 0.88924,4.573678 0.88923,2.096269 2.50892,3.620828 1.61967,1.556321 3.77923,2.382124 2.15957,0.857565 4.732,0.857565 2.73121,0 4.98606,-0.95285 2.25484,-0.921088 3.811,-2.763263 l -2.6677,-2.509171 q -1.20682,1.302228 -2.69946,1.937461 -1.49265,0.666994 -3.23935,0.666994 -1.74671,0 -3.2076,-0.571709 -1.42912,-0.57171 -2.50891,-1.619844 -1.04802,-1.048135 -1.65143,-2.477409 -0.57165,-1.429275 -0.57165,-3.144404 0,-1.715129 0.57165,-3.144403 0.60341,-1.429275 1.65143,-2.477409 1.07979,-1.048135 2.50891,-1.619844 1.46089,-0.57171 3.2076,-0.57171 1.7467,0 3.23935,0.635233 1.49264,0.666995 2.69946,2.000984 l 2.6677,-2.540932 q -1.55616,-1.810414 -3.811,-2.763264 -2.25484,-0.952849 -5.01782,-0.952849 z"
   style="font-weight:600;font-size:31.76px;font-family:Montserrat;-inkscape-font-specification:'Montserrat Semi-Bold';letter-spacing:7.875px;fill:#6f9aa8;stroke-width:1.68733"
   id="path152444" /><path
   d="m 283.08066,34.810869 q -2.60419,0 -4.79552,0.857564 -2.19132,0.857565 -3.811,2.382124 -1.61967,1.556321 -2.50891,3.620828 -0.88923,2.096269 -0.88923,4.573678 0,2.477409 0.88923,4.541916 0.88924,2.096269 2.50891,3.620829 1.61968,1.556321 3.811,2.413885 2.19133,0.857565 4.76376,0.857565 2.60418,0 4.76375,-0.857565 2.19133,-0.857564 3.811,-2.413885 1.61968,-1.52456 2.50891,-3.620829 0.88923,-2.064507 0.88923,-4.541916 0,-2.477409 -0.88923,-4.573678 -0.88923,-2.096269 -2.50891,-3.620828 -1.61967,-1.524559 -3.811,-2.382124 -2.15957,-0.857564 -4.73199,-0.857564 z m -0.0318,3.620828 q 1.68319,0 3.11232,0.57171 1.42912,0.571709 2.47715,1.619844 1.04802,1.079896 1.61967,2.477409 0.60341,1.429274 0.60341,3.144403 0,1.715129 -0.60341,3.112642 -0.57165,1.429274 -1.61967,2.477409 -1.04803,1.079896 -2.47715,1.651606 -1.42913,0.571709 -3.11232,0.571709 -1.6832,0 -3.11232,-0.571709 -1.39737,-0.57171 -2.47715,-1.651606 -1.04803,-1.048135 -1.65144,-2.477409 -0.57165,-1.397513 -0.57165,-3.112642 0,-1.683367 0.57165,-3.112642 0.60341,-1.429274 1.65144,-2.50917 1.04802,-1.048135 2.47715,-1.619844 1.42912,-0.57171 3.11232,-0.57171 z"
   style="font-weight:600;font-size:31.76px;font-family:Montserrat;-inkscape-font-specification:'Montserrat Semi-Bold';letter-spacing:7.875px;fill:#6f9aa8;stroke-width:1.68733"
   id="path152446" /><path
   d="m 304.75733,35.128485 v 22.233156 h 9.1464 q 2.95353,0 5.04958,-0.952849 2.12781,-0.95285 3.27111,-2.731502 1.1433,-1.778653 1.1433,-4.2243 0,-2.445647 -1.1433,-4.2243 -1.1433,-1.74689 -3.27111,-2.69974 -2.09605,-0.921088 -5.04958,-0.921088 h -6.8598 l 1.84198,1.873938 v -8.353315 z m 14.54532,0 -5.62123,8.06746 h 4.41441 l 5.65299,-8.06746 z m -10.41674,7.908651 -1.84198,1.969223 h 6.66925 q 2.73122,0 4.09683,1.175181 1.39737,1.175181 1.39737,3.27145 0,2.128031 -1.39737,3.27145 -1.36561,1.14342 -4.09683,1.14342 h -6.66925 l 1.84198,2.032745 z"
   style="font-weight:600;font-size:31.76px;font-family:Montserrat;-inkscape-font-specification:'Montserrat Semi-Bold';letter-spacing:7.875px;fill:#6f9aa8;stroke-width:1.68733"
   id="path152448" /><path
   d="m 341.00805,48.119001 h 11.05191 v -3.398497 h -11.05191 z m 0.31759,-9.528496 h 12.54454 v -3.46202 h -16.67313 v 22.233156 h 16.22852 v -3.46202 h -12.09993 z"
   style="font-weight:600;font-size:31.76px;font-family:Montserrat;-inkscape-font-specification:'Montserrat Semi-Bold';letter-spacing:7.875px;fill:#6f9aa8;stroke-width:1.68733"
   id="path152450" /><path
   id="path152452"
   style="fill:url(#linearGradient947);fill-opacity:1;stroke:none;stroke-width:4.44444"
   d="M 79.115234,30 C 52.097457,30 30,52.101902 30,79.115234 V 423.66211 c 0,27.01778 22.097457,49.11523 49.115234,49.11523 H 812.60352 c 27.01333,0 49.11718,-22.1019 49.11718,-49.11523 v -81.15625 c 0,-8.98667 3.56774,-17.60875 9.92774,-23.96875 l 40.42773,-40.42578 c 11.28889,-11.28445 11.25696,-29.58705 -0.0586,-40.83594 L 871.7207,197.19922 c -6.4,-6.36 -10,-15.01684 -10,-24.03906 V 79.115234 C 861.7207,52.101902 839.61685,30 812.60352,30 Z m 479.462886,74.87891 c 24.82223,0 47.35625,4.18687 67.5918,12.54687 8.77333,3.62667 16.94249,7.96283 24.49805,13.01172 16.01778,10.69778 16.86706,34.2709 1.40039,46.45312 -9.92444,7.81778 -24.07212,7.92617 -34.47656,0.76172 -16.37778,-11.28 -34.9729,-16.91992 -55.77735,-16.91992 -18.08,0 -34.13349,3.78146 -48.16015,11.32813 -14.03556,7.56444 -24.96045,18.21407 -32.78711,31.97851 -7.82667,13.76 -11.73633,29.54517 -11.73633,47.34961 0,17.54222 3.90966,33.19117 11.73633,46.95117 7.82666,13.76 18.6862,24.48885 32.58398,32.17774 13.89333,7.68889 29.7458,11.5332 47.55469,11.5332 10.35111,0 20.13769,-1.21733 29.35547,-3.64844 9.80444,-2.58666 17.28454,-9.97781 20.20898,-19.25781 1.03111,-3.28889 -1.48861,-6.63867 -4.9375,-6.63867 -18.83111,0 -33.95235,-15.87151 -32.71679,-34.96484 1.12888,-17.42223 16.37371,-30.59961 33.83593,-30.59961 h 32.36914 c 0.28889,0 0.56907,0.0341 0.85352,0.043 0.28889,-0.009 0.56907,-0.043 0.85351,-0.043 h 2.24805 c 15.92445,0 28.82813,12.90617 28.82813,28.82617 v 40.20898 c 0,33.05334 -21.24503,62.64302 -52.81836,72.42969 -0.2,0.0622 -0.40547,0.12528 -0.60547,0.1875 -20.24,6.20444 -40.61301,9.31055 -61.11524,9.31055 -29.41333,0 -55.85257,-6.27116 -79.32812,-18.82227 -23.47556,-12.54667 -41.88859,-29.94676 -55.24414,-52.20898 -13.35556,-22.26222 -20.03516,-47.41771 -20.03516,-75.48438 0,-28.05778 6.6796,-53.22074 20.03516,-75.47851 13.35555,-22.26223 31.90123,-39.66677 55.65234,-52.20899 23.73334,-12.54666 50.44837,-18.82226 80.13281,-18.82226 z m -416.47265,4.85547 h 6.52344 c 9.70666,0 18.90216,4.35021 25.04882,11.86132 l 107.26758,131 c 8.00889,9.78667 23.86719,4.12101 23.86719,-8.52343 V 142.11133 c 0,-17.88445 14.49251,-32.37695 32.37695,-32.37695 17.88445,0 32.38282,14.4925 32.38282,32.37695 v 218.56055 c 0,17.87999 -14.49837,32.37695 -32.38282,32.37695 h -6.13672 c -9.69333,0 -18.87623,-4.34119 -25.02734,-11.83008 L 198.3418,250.08594 c -8.01778,-9.76445 -23.85938,-4.09454 -23.85938,8.54101 v 102.04493 c 0,17.87999 -14.49251,32.37695 -32.37695,32.37695 -17.88,0 -32.37695,-14.49696 -32.37695,-32.37695 V 142.11133 c 0,-17.88445 14.49695,-32.37695 32.37695,-32.37695 z m 607.09961,0.002 c 18.10666,0 32.7832,14.67458 32.7832,32.78125 v 217.74609 c 0,18.10667 -14.67654,32.78321 -32.7832,32.78321 -18.10667,0 -32.78125,-14.67654 -32.78125,-32.78321 V 142.51758 c 0,-18.10667 14.67458,-32.78125 32.78125,-32.78125 z"
   transform="matrix(0.22500001,0,0,-0.22500001,7.4269998,120.555)" /><path
   d="m 243.206,66.196205 v 2.76312 l 14.35552,17.53152 0.4764,-1.55624 h -14.6096 v 3.4936 h 18.32552 v -2.76312 l -14.35552,-17.53152 -0.50816,1.55624 h 15.27656 v -3.4936 z"
   style="font-weight:600;font-size:31.76px;font-family:Montserrat;-inkscape-font-specification:'Montserrat Semi-Bold';fill:#6f9aa8"
   id="path152454" /><path
   d="m 278.52309,79.186045 h 11.05248 v -3.39832 h -11.05248 z m 0.3176,-9.528 h 12.5452 v -3.46184 h -16.674 v 22.232 h 16.22936 v -3.46184 h -12.10056 z"
   style="font-weight:600;font-size:31.76px;font-family:Montserrat;-inkscape-font-specification:'Montserrat Semi-Bold';fill:#6f9aa8"
   id="path152456" /><path
   d="m 304.75683,66.196205 v 22.232 h 9.14688 q 2.95368,0 5.04984,-0.9528 2.12792,-0.9528 3.27128,-2.73136 1.14336,-1.77856 1.14336,-4.22408 0,-2.44552 -1.14336,-4.22408 -1.14336,-1.7468 -3.27128,-2.6996 -2.09616,-0.92104 -5.04984,-0.92104 h -6.86016 l 1.84208,1.87384 v -8.35288 z m 14.54608,0 -5.62152,8.06704 h 4.41464 l 5.65328,-8.06704 z m -10.41728,7.90824 -1.84208,1.96912 h 6.6696 q 2.73136,0 4.09704,1.17512 1.39744,1.17512 1.39744,3.27128 0,2.12792 -1.39744,3.27128 -1.36568,1.14336 -4.09704,1.14336 h -6.6696 l 1.84208,2.03264 z"
   style="font-weight:600;font-size:31.76px;font-family:Montserrat;-inkscape-font-specification:'Montserrat Semi-Bold';fill:#6f9aa8"
   id="path152458" /><path
   d="m 347.15643,65.878605 q -2.60432,0 -4.79576,0.85752 -2.19144,0.85752 -3.8112,2.382 -1.61976,1.55624 -2.50904,3.62064 -0.88928,2.09616 -0.88928,4.57344 0,2.47728 0.88928,4.54168 0.88928,2.09616 2.50904,3.62064 1.61976,1.55624 3.8112,2.41376 2.19144,0.85752 4.764,0.85752 2.60432,0 4.764,-0.85752 2.19144,-0.85752 3.8112,-2.41376 1.61976,-1.52448 2.50904,-3.62064 0.88928,-2.0644 0.88928,-4.54168 0,-2.47728 -0.88928,-4.57344 -0.88928,-2.09616 -2.50904,-3.62064 -1.61976,-1.52448 -3.8112,-2.382 -2.15968,-0.85752 -4.73224,-0.85752 z m -0.0318,3.62064 q 1.68328,0 3.11248,0.57168 1.4292,0.57168 2.47728,1.61976 1.04808,1.07984 1.61976,2.47728 0.60344,1.4292 0.60344,3.14424 0,1.71504 -0.60344,3.11248 -0.57168,1.4292 -1.61976,2.47728 -1.04808,1.07984 -2.47728,1.65152 -1.4292,0.57168 -3.11248,0.57168 -1.68328,0 -3.11248,-0.57168 -1.39744,-0.57168 -2.47728,-1.65152 -1.04808,-1.04808 -1.65152,-2.47728 -0.57168,-1.39744 -0.57168,-3.11248 0,-1.68328 0.57168,-3.11248 0.60344,-1.4292 1.65152,-2.50904 1.04808,-1.04808 2.47728,-1.61976 1.4292,-0.57168 3.11248,-0.57168 z"
   style="font-weight:600;font-size:31.76px;font-family:Montserrat;-inkscape-font-specification:'Montserrat Semi-Bold';fill:#6f9aa8"
   id="path152460" /><path
   d="m 254.21076,34.810869 q -2.54067,0 -4.732,0.825803 -2.15956,0.857564 -3.77924,2.382123 -1.58792,1.556321 -2.47715,3.65259 -0.88924,2.096269 -0.88924,4.573678 0,2.477409 0.88924,4.573678 0.88923,2.096269 2.50892,3.620828 1.61967,1.556321 3.77923,2.382124 2.15957,0.857565 4.732,0.857565 2.73121,0 4.98606,-0.95285 2.25484,-0.921088 3.811,-2.763263 l -2.6677,-2.509171 q -1.20682,1.302228 -2.69946,1.937461 -1.49265,0.666994 -3.23935,0.666994 -1.74671,0 -3.2076,-0.571709 -1.42912,-0.57171 -2.50891,-1.619844 -1.04802,-1.048135 -1.65143,-2.477409 -0.57165,-1.429275 -0.57165,-3.144404 0,-1.715129 0.57165,-3.144403 0.60341,-1.429275 1.65143,-2.477409 1.07979,-1.048135 2.50891,-1.619844 1.46089,-0.57171 3.2076,-0.57171 1.7467,0 3.23935,0.635233 1.49264,0.666995 2.69946,2.000984 l 2.6677,-2.540932 q -1.55616,-1.810414 -3.811,-2.763264 -2.25484,-0.952849 -5.01782,-0.952849 z"
   style="font-weight:600;font-size:31.76px;font-family:Montserrat;-inkscape-font-specification:'Montserrat Semi-Bold';letter-spacing:7.875px;fill:#6f9aa8;stroke-width:1.68733"
   id="path152462" /><path
   d="m 283.08066,34.810869 q -2.60419,0 -4.79552,0.857564 -2.19132,0.857565 -3.811,2.382124 -1.61967,1.556321 -2.50891,3.620828 -0.88923,2.096269 -0.88923,4.573678 0,2.477409 0.88923,4.541916 0.88924,2.096269 2.50891,3.620829 1.61968,1.556321 3.811,2.413885 2.19133,0.857565 4.76376,0.857565 2.60418,0 4.76375,-0.857565 2.19133,-0.857564 3.811,-2.413885 1.61968,-1.52456 2.50891,-3.620829 0.88923,-2.064507 0.88923,-4.541916 0,-2.477409 -0.88923,-4.573678 -0.88923,-2.096269 -2.50891,-3.620828 -1.61967,-1.524559 -3.811,-2.382124 -2.15957,-0.857564 -4.73199,-0.857564 z m -0.0318,3.620828 q 1.68319,0 3.11232,0.57171 1.42912,0.571709 2.47715,1.619844 1.04802,1.079896 1.61967,2.477409 0.60341,1.429274 0.60341,3.144403 0,1.715129 -0.60341,3.112642 -0.57165,1.429274 -1.61967,2.477409 -1.04803,1.079896 -2.47715,1.651606 -1.42913,0.571709 -3.11232,0.571709 -1.6832,0 -3.11232,-0.571709 -1.39737,-0.57171 -2.47715,-1.651606 -1.04803,-1.048135 -1.65144,-2.477409 -0.57165,-1.397513 -0.57165,-3.112642 0,-1.683367 0.57165,-3.112642 0.60341,-1.429274 1.65144,-2.50917 1.04802,-1.048135 2.47715,-1.619844 1.42912,-0.57171 3.11232,-0.57171 z"
   style="font-weight:600;font-size:31.76px;font-family:Montserrat;-inkscape-font-specification:'Montserrat Semi-Bold';letter-spacing:7.875px;fill:#6f9aa8;stroke-width:1.68733"
   id="path152464" /><path
   d="m 304.75733,35.128485 v 22.233156 h 9.1464 q 2.95353,0 5.04958,-0.952849 2.12781,-0.95285 3.27111,-2.731502 1.1433,-1.778653 1.1433,-4.2243 0,-2.445647 -1.1433,-4.2243 -1.1433,-1.74689 -3.27111,-2.69974 -2.09605,-0.921088 -5.04958,-0.921088 h -6.8598 l 1.84198,1.873938 v -8.353315 z m 14.54532,0 -5.62123,8.06746 h 4.41441 l 5.65299,-8.06746 z m -10.41674,7.908651 -1.84198,1.969223 h 6.66925 q 2.73122,0 4.09683,1.175181 1.39737,1.175181 1.39737,3.27145 0,2.128031 -1.39737,3.27145 -1.36561,1.14342 -4.09683,1.14342 h -6.66925 l 1.84198,2.032745 z"
   style="font-weight:600;font-size:31.76px;font-family:Montserrat;-inkscape-font-specification:'Montserrat Semi-Bold';letter-spacing:7.875px;fill:#6f9aa8;stroke-width:1.68733"
   id="path152466" /><path
   d="m 341.00805,48.119001 h 11.05191 v -3.398497 h -11.05191 z m 0.31759,-9.528496 h 12.54454 v -3.46202 h -16.67313 v 22.233156 h 16.22852 v -3.46202 h -12.09993 z"
   style="font-weight:600;font-size:31.76px;font-family:Montserrat;-inkscape-font-specification:'Montserrat Semi-Bold';letter-spacing:7.875px;fill:#6f9aa8;stroke-width:1.68733"
   id="path152468" /><path
   id="path7692"
   style="fill:#ffffff;fill-opacity:1;stroke:none;stroke-width:0.999998"
   d="m 133.09391,96.891977 c -6.67899,0 -12.68988,-1.41201 -18.02988,-4.235009 -5.344,-2.822001 -9.51678,-6.73803 -12.52178,-11.74702 -3.004998,-5.008001 -4.507908,-10.669671 -4.507908,-16.982669 0,-6.314996 1.50291,-11.974991 4.507908,-16.983985 3.005,-5.008993 7.14794,-8.924023 12.42993,-11.747023 5.282,-2.824 11.23084,-4.23501 17.84883,-4.23501 4.613,0 9.19693,0.69887 13.75093,2.09488 0.045,0.014 0.0912,0.0282 0.13623,0.0422 7.10399,2.202 11.88413,8.85969 11.88413,16.296682 v 9.046985 c 0,3.581995 -2.90333,6.485889 -6.48633,6.485889 h -0.50581 c -0.064,0 -0.12704,-0.0077 -0.19204,-0.0097 -0.064,0.002 -0.12704,0.0097 -0.19204,0.0097 h -7.28306 c -3.92899,0 -7.35908,-2.964914 -7.61308,-6.884912 -0.278,-4.295996 3.12428,-7.86709 7.36128,-7.86709 0.776,0 1.34293,-0.753702 1.11093,-1.493702 -0.65799,-2.087998 -2.34102,-3.751012 -4.54702,-4.333012 -2.07399,-0.54699 -4.27598,-0.82089 -6.60498,-0.82089 -4.00699,0 -7.57381,0.86497 -10.6998,2.594967 -3.127,1.729999 -5.5704,4.143993 -7.3314,7.23999 -1.761,3.095997 -2.64067,6.617017 -2.64067,10.564014 0,4.005995 0.87967,7.557665 2.64067,10.653656 1.761,3.096999 4.2191,5.493169 7.3771,7.19517 3.156,1.698 6.76804,2.54883 10.83604,2.54883 4.68099,0 8.8649,-1.26899 12.5499,-3.806991 2.341,-1.61199 5.52423,-1.587609 7.75723,0.17139 3.47999,2.741001 3.2889,8.044951 -0.31509,10.45196 -1.7,1.135991 -3.53807,2.11163 -5.51206,2.92763 -4.553,1.881 -9.62316,2.82305 -15.20816,2.82305 z m -93.70635,-1.09248 c -4.02299,0 -7.28481,-3.26081 -7.28481,-7.28482 V 39.338561 c 0,-4.02299 3.26182,-7.28482 7.28481,-7.28482 4.024,0 7.28482,3.26183 7.28482,7.28482 v 22.960105 c 0,2.842996 3.56436,4.118722 5.36836,1.921728 L 76.26955,34.715511 c 1.384,-1.685 3.45015,-2.66177 5.63115,-2.66177 h 1.38076 c 4.024002,0 7.286132,3.26183 7.286132,7.28482 v 49.176116 c 0,4.02401 -3.26213,7.28482 -7.286132,7.28482 -4.02399,0 -7.28481,-3.26081 -7.28481,-7.28482 V 65.573471 c 0,-2.844997 -3.56812,-4.119773 -5.37012,-1.917775 l -24.1352,29.475002 c -1.383,1.689999 -3.452,2.668799 -5.63599,2.668799 z m 136.59742,-4.4e-4 c -4.074,0 -7.37579,-3.301779 -7.37579,-7.375779 V 39.430401 c 0,-4.074 3.30179,-7.37622 7.37579,-7.37622 4.074,0 7.37622,3.30222 7.37622,7.37622 v 48.992877 c 0,4.074 -3.30222,7.375779 -7.37622,7.375779 z" /></g></svg>
