<svg class="chakra-icon css-pv6ryy" aria-hidden="true" width="200" height="200" xmlns="http://www.w3.org/2000/svg"><g fill="#5d0c8b"><path d="M90.132 42.4c5.6 0 9.6 3.2 12.8 8.8a15.2 15.2 0 0 1 10.4-4.8 45.6 45.6 0 0 0-42.4-14.4v.8c-9.6 1.6-16.8 0-20-5.6-.8 0-2.4-2.4-3.2-7.2-2.4 3.2-4.8 8-3.2 12.8 1.6 4.8 4 7.2 6.4 8-4 0-7.2-.8-10.4-3.2-2.4-1.6-3.2-3.2-5.6-7.2-1.6 3.2-1.6 6.4-.8 8 0 2.4 1.6 4.8 3.2 6.4 2.4 2.4 5.6 2.4 8 2.4-4 4.8-7.2 10.4-8.8 16 10.4-2.4 24.8-2.4 32.8-3.2 2.4-10.4 9.6-18.4 20.8-17.6zm24 40c4 0 8-6.4 8-14.4s-4-14.4-8-14.4c-4.8 0-8.8 6.4-8.8 14.4s4 14.4 8.8 14.4z"/><path fill-rule="evenodd" clip-rule="evenodd" d="M49 201H2V78c10-5 28-13 42-15 0 17 9 32 28 31 6-1 12-5 16-12 2 3 5 4 9 5 7 1 11-3 13-4l6-7c11 2 23 6 34 10 20 7 16 22 16 22h-1c-20-3-45-7-73 10l-5 3-10 8c-6 6-15 16-18 23-11 21-10 49-10 49z" style="stroke-width:10.5094" transform="matrix(.8 0 0 .8 33.332 19.2)"/><path d="M90.132 87.2c6.4 0 11.2-8.8 11.2-18.4 0-10.4-4.8-18.4-11.2-18.4-5.6 0-10.4 8-10.4 18.4 0 9.6 4.8 18.4 10.4 18.4z"/></g></svg>