<svg viewBox="0 0 526.316 526.316" width="200" height="200" xmlns:xlink="http://www.w3.org/1999/xlink" xmlns="http://www.w3.org/2000/svg"><defs><linearGradient id="d"><stop stop-color="#FFF" offset="0"/><stop stop-color="#c59641" stop-opacity="0" offset="1"/></linearGradient><linearGradient id="c"><stop stop-color="#edd19d" offset="0"/><stop stop-color="#edd19d" stop-opacity="0" offset="1"/></linearGradient><linearGradient id="a"><stop offset="0"/><stop stop-color="#743800" stop-opacity=".549" offset="1"/></linearGradient><linearGradient id="b"><stop stop-color="#9b6534" offset="0"/><stop stop-color="#e6a556" stop-opacity="0" offset="1"/></linearGradient><linearGradient id="e" y2="413.83" gradientUnits="userSpaceOnUse" y1="779.75" x2="411.91" x1="140.81"><stop stop-color="#0078ff" offset="0"/><stop stop-color="#FFF" offset="1"/></linearGradient><linearGradient id="w" x1="182.26" xlink:href="#a" gradientUnits="userSpaceOnUse" x2="229.5" y1="723.84" y2="723.84"/><linearGradient id="t" x1="248.86" xlink:href="#b" gradientUnits="userSpaceOnUse" y1="966.34" gradientTransform="matrix(1.15376 .04312 -.0464 1.24134 20.037 -254)" x2="123.42" y2="1014.9"/><linearGradient id="g" y2="730.53" gradientUnits="userSpaceOnUse" y1="979.53" x2="317.54" x1="222.41"><stop stop-color="#784421" offset="0"/><stop stop-color="#deb15a" offset="1"/></linearGradient><linearGradient id="y" y2="216.44" gradientUnits="userSpaceOnUse" y1="216.44" x2="214.07" x1="185.43"><stop stop-color="#4aa9ff" offset="0"/><stop stop-color="#4aa9ff" stop-opacity=".268" offset="1"/></linearGradient><linearGradient id="z" y2="209.99" gradientUnits="userSpaceOnUse" y1="225.17" x2="208.4" x1="193.34"><stop stop-color="#37a3ff" offset="0"/><stop stop-color="#d8e2e6" offset="1"/></linearGradient><linearGradient id="f" y2="657.19" gradientUnits="userSpaceOnUse" y1="1143.9" x2="373.74" x1="-12.03"><stop stop-color="#1483ff" offset="0"/><stop stop-color="#beddff" stop-opacity="0" offset="1"/></linearGradient><linearGradient id="i" x1="358.84" xlink:href="#c" gradientUnits="userSpaceOnUse" x2="297.43" y1="719.31" y2="759.44"/><linearGradient id="x" x1="114.76" xlink:href="#d" gradientUnits="userSpaceOnUse" x2="148.75" y1="772.6" y2="793.65"/><linearGradient id="B" x1="248.86" xlink:href="#b" gradientUnits="userSpaceOnUse" y1="966.34" gradientTransform="matrix(-1.15376 .04312 .0464 1.24134 504.09 -259.92)" x2="123.42" y2="1014.9"/><linearGradient id="h" x1="127.72" xlink:href="#d" gradientUnits="userSpaceOnUse" y1="767.61" gradientTransform="matrix(3.2299 4.18745 -2.95277 2.82998 2114.671 -1857)" x2="143.93" y2="796.84"/><linearGradient id="k" x1="353.91" xlink:href="#c" gradientUnits="userSpaceOnUse" y1="723.58" gradientTransform="translate(5.657 1.414)" x2="289.87" y2="760.59"/><linearGradient xlink:href="#e" id="m" gradientUnits="userSpaceOnUse" x1="140.81" y1="779.75" x2="411.91" y2="413.83"/><linearGradient xlink:href="#e" id="l" gradientUnits="userSpaceOnUse" x1="140.81" y1="779.75" x2="411.91" y2="413.83"/><linearGradient xlink:href="#f" id="q" gradientUnits="userSpaceOnUse" x1="-12.03" y1="1143.9" x2="373.74" y2="657.19"/><linearGradient xlink:href="#f" id="o" gradientUnits="userSpaceOnUse" x1="-12.03" y1="1143.9" x2="373.74" y2="657.19"/><radialGradient id="s" xlink:href="#b" gradientUnits="userSpaceOnUse" cy="978.43" cx="187.76" gradientTransform="matrix(1.03643 .56405 -.40945 .75236 398.38 139.458)" r="35.248"/><radialGradient id="v" xlink:href="#a" gradientUnits="userSpaceOnUse" cy="720.23" cx="312.26" gradientTransform="matrix(5.48693 -.69152 .06853 .54375 -1446.452 542.554)" r="39.318"/><radialGradient id="u" gradientUnits="userSpaceOnUse" cy="744.08" cx="210.9" gradientTransform="matrix(1 0 0 .7903 0 156.035)" r="24.991"><stop stop-color="#FFF" offset="0"/><stop stop-color="#c9d4e6" offset="1"/></radialGradient><radialGradient id="A" xlink:href="#b" gradientUnits="userSpaceOnUse" cy="978.43" cx="187.76" gradientTransform="matrix(-1.03643 .56405 .40945 .75236 125.747 133.537)" r="35.248"/><filter id="r" y="-.474" width="2.031" x="-.515" height="1.947"><feGaussianBlur stdDeviation="16.04"/></filter><filter id="p" x="-.037" y="-.035" width="1.073" height="1.071"><feGaussianBlur stdDeviation="6.918"/></filter><filter id="j" x="-.017" y="-.04" width="1.034" height="1.079"><feGaussianBlur stdDeviation="2.319"/></filter><filter id="n" y="-.197" width="1.104" x="-.053" height="1.394"><feGaussianBlur stdDeviation="2.732"/></filter></defs><path fill="#643400" d="M239.557 175.999c12.312 0 27.882 1.968 38.067 7.506 5.675-2.721 14.63-.991 21.447-2.329 30.226-5.934 47.838-4.069 53.198 12.422 3.31 10.182 4.75 30.264-6.46 41.18 1.166 3.164 6.349 21.4 6.049 23.166-5.228 30.717-27.767 31.133-40.85 38.724-4.378 4.716-2.48 16.643-.643 20.96 4.593 9.773 26.023 42.68 29.09 52.186 17.547 54.4 18.488 18.419-3.93 38.908-105.48 96.402-131.863 17.961-162.737-47.748-18.288-38.919-7.303-70.034-2.76-97.678-13.477-1.609-26.787-15.694-19.635-28.687 4.316-6.758 17.789-11.88 26.155-12.104 10.787-27.907 32.13-46.509 63.01-46.509z"/><path d="M232.63 700.38c14.348 0 30.866 3.84 42.736 10.562 6.614-3.302 15.686-4.675 23.599-6.457 35.532-8.003 63.451-2.815 68.734 20.641 3.272 14.528 4.582 35.862-10.548 47.316 3.114 2.273 8.213 28.096 7.281 31.745-6.397 25.041-18.397 28.194-49.695 43.61-5.103 5.721-5.68 22.617-3.538 27.856 5.353 11.862 31.952 50.104 35.526 61.64 20.45 66.022 20.616 23.564-5.51 48.43-122.92 116.99-153.67 20.83-189.65-58.916-21.311-47.233-13.157-86.932-7.863-120.48-15.705-1.952-33.772-16.142-25.437-31.91 5.03-8.202 20.963-14.66 30.713-14.932 12.57-33.868 47.667-59.106 83.654-59.106z" fill="url(#g)" style="fill:url(#g)" transform="translate(58.532 -381.606) scale(.79757)"/><path d="M179.364 267.089c-13.476-1.609-36.123-19.485-28.972-32.477 4.315-6.758 18.141-10.887 26.508-11.112-1.137.314 16.515 4.009 6.296 2.244-21.057-3.637-33.219 9.478-32.124 19.616.342 3.173 8.561 10.971 12.44 12.38 13.3 4.832 14.657 4.895 15.851 9.349z" fill="#643400"/><path opacity=".153" style="color:#000;fill:url(#h);enable-background:accumulate" d="M345.57 999.88c-12.662 34.055-79.218 41.317-101.45 17.539-27.246-29.14-76.655-78.405-83.888-116.99 12.419-54.13 138.87-43.266 153.03.588 13.811 42.761 39.034 72.775 32.305 98.86z" fill="url(#h)" transform="translate(58.532 -381.606) scale(.79757)"/><path d="M367.27 756.92c-1.296 3.54-5.186 11.649-8.965 13.908-2.187 1.307-1.778 1.9-1.843 1.264-.061-.606 1.519 3.392 2.228 5.063.694 1.633 5.912 21.483 5.048 26.606-1.237 7.332-6.867 18.616-10.48 20.069-13.953 5.614-39.745-11.22-56.258-11.22-31.204 0-62.5-42.864-62.5-66.75 0-23.886 62.546-42.75 93.75-42.75 19.792 0 25.643 2.845 35.305 14.991 6.507 8.181 6.744 30.547 3.715 38.818z" fill="url(#i)" style="fill:url(#i)" transform="translate(58.532 -381.606) scale(.79757)"/><path opacity=".206" stroke-linejoin="round" d="M235.13 241.272c.938-5.007 13.511-6.71 11.26-6.532-5.188.409-6.856 2.264-6.57 2.78 3.25 5.882 12.784 30.635 45.336 21.518 7.642-2.14 15.317-2.64 19.54-6.424 11.756-10.54 14.822-15.625 20.12-22.183 1.026-1.27 2.323.877 6.67 3.524.799.486 6.827.399 6.713-.656" stroke="#582d00" stroke-linecap="round" stroke-width="2.11" fill="none"/><path filter="url(#j)" fill="url(#k)" d="M360.26 767.22c-6.414.015-7.286-5.356-14.146-8.998-3.228-1.714-9.846-5.348-13.97-3.785-10.984 4.162-21.285 21.092-30.779 27.92-15.309 11.01-31.106 9.644-24.328 27.22 21.932 56.876-126.12 19.185 17.635 3.601-4.008-10.325 38.321-40.597 58.697-31.488 5.619 2.512 10.213 13.391 10.925 22.008 1.246 15.075-37.777 45.118-39.92 40.464-23.932-51.982-69.69-29.374-86.193-28.818-425.68 14.345-7.895-26.416-7.895-50.303 0-23.886 72.414-60.513 103.62-60.513 19.792 0 15.148-4.641 29.877 17.294 11.741 17.485 5.19 46.687-3.522 45.397z" style="fill:url(#k)" transform="translate(58.532 -381.606) scale(.79757)"/><path fill="#733200" d="M317.52 208.643c18.541-9.59 40.302-31.605 17.064-34.104-.705-.076-10.418-.579-11.19-.619-33.58 1.176-47.873 8.85-45.606 12.933 6.93 12.483 16.74 23.047 39.731 21.79z"/><g style="letter-spacing:0;word-spacing:0;fill:url(#l)" stroke-width="3" font-family="'Bitstream Charter'" transform="matrix(.81382 0 0 .78165 58.532 -381.606)" stroke="#0065d8" stroke-miterlimit="1" font-size="727.228" font-weight="bold" fill="url(#e)"><path d="M5.633 809.39c0 154.9 99.63 258.17 250.17 258.17 61.087 0 119.27-22.544 163.63-63.996 50.906-47.27 77.813-112.72 77.813-189.81 0-82.177-30.544-151.99-86.54-199.99-44.361-37.816-97.449-56.724-159.99-56.724-67.632 0-124.36 21.09-170.17 63.269-49.454 45.78-74.907 109.77-74.907 189.04m246.53-205.81c79.268 0 147.75 77.814 147.75 212.35 0 128.72-69.212 207.26-149.21 207.26-77.813 0-148.48-78.541-148.48-212.35 0-130.17 69.212-207.26 149.93-207.26" fill="url(#e)" style="fill:url(#m)"/></g><path opacity=".51" d="M214.83 784.56c.677.828 4.226-6.956 7.605-7.9 5.434-1.52 20.381-6.124 21.823-5.285.917.532-16.369 6.51-15.825 7.32 9.026 13.44 10.686 31.107 42.501 26.973 36.362-3.887 38.031-6.736 63.72-38.657 1.703-2.008 20.322 12.493 22.824 10.524" filter="url(#n)" stroke="#a05200" stroke-width="2.431" fill="none" transform="translate(58.532 -381.606) scale(.79757)"/><g style="letter-spacing:0;word-spacing:0;fill:url(#o)" font-family="'Bitstream Charter'" font-size="727.228" transform="matrix(.81382 0 0 .78165 58.532 -381.606)" font-weight="bold" fill="url(#f)"><path filter="url(#p)" d="M240.34 576.91c-72.63 1.28-145.5 39.53-182.62 102.84C24.096 737.82 18.944 808.8 32.342 873.6c12.889 64.093 54.223 123.08 114.26 150.65 75.529 35.796 171.44 31.43 239.66-18.949 48.211-35.351 80.506-90.94 88.017-150.22 9.903-67.286-3.885-140.15-46.209-194.34-33.61-43.78-84.79-73.61-139.57-81.27-15.868-2.507-32.076-2.692-48.156-2.563zm10.219 6.563c57.3-.797 110.42 36.57 135.78 86.784 33.995 62.412 39.516 137 28.429 206.33-9.836 55.267-37.095 110.04-84.252 142.26-43.858 29.68-105.72 33.22-150.86 4.377-47.37-28.33-76.45-79.7-88.319-132.61-15.919-66.64-11.783-138.81 14.629-202.15 20.142-45.645 58.041-85.92 107.12-99.5 12.185-3.372 24.779-5.353 37.469-5.47z" fill="url(#f)" style="fill:url(#q)"/></g><path opacity=".463" d="M204.81 957.6c-15.969-14.672-29.097 2.073-35.748 11.346-3.3 6.24-5.26 8.621-14.352 28.762-2.742 6.687-9.24 18.184-1.785 20.967 7.71 4.67 27.03-38.595 25.425-38.596-1.308 0-27.457 29.749-19.977 41.681 12.212 19.481 27.615-34.108 26.155-33.895-1.273.185-24.342 35.847-11.993 41.801 2.787 1.174 4.675-.695 7.752-3.255 9.604-4.971 24.23-15.377 26.522-21.522.687-3.07-25.897 15.829-26.112 20.575-.33 9.742 5.877 8.795 11.378 4.607 10.517-8.006 25.299-30.286 25.193-32.492 4.937-10.389 7.164-19.436 6.865-27.805-.183-5.107-11.367-10.976-19.322-12.174z" transform="matrix(.8091 .1912 -.07012 .39725 121.911 -2.222)" filter="url(#r)"/><path d="M221.883 382.146c-12.737-11.702-23.207 1.654-28.512 9.05-2.632 4.976-4.195 6.875-11.447 22.94-2.186 5.333-7.37 14.502-1.423 16.722 6.15 3.725 21.558-30.782 20.278-30.783-1.043 0-21.899 23.727-15.933 33.243 9.74 15.538 22.025-27.203 20.86-27.033-1.016.147-19.414 28.59-9.565 33.338 2.222.937 3.728-.553 6.182-2.595 7.66-3.965 19.325-12.264 21.153-17.165.549-2.449-20.654 12.624-20.826 16.41-.262 7.77 4.688 7.013 9.075 3.674 8.388-6.385 20.178-24.155 20.093-25.915 3.938-8.286 4.518-13.906 4.28-20.58-.146-4.074-7.87-10.35-14.214-11.306z" fill="#643400"/><path d="M220.19 977.82c.525-2.739-6.438-16.582-16.642-15.781-10.063-13.828-21.368-5.35-22.43-3.982-15.983 17.037-15.354 24.615-24.807 34.854-5.148 5.577-4.428 12.201-4.326 16.162.017.65.465 12.858 6.692 4.15 4.518-6.317 17.388-31.393 18.426-30.517 1.363 1.152-16.974 31.418-18.166 34.99-1.042 3.121 4.277 11.539 9.637 3.74 7.096-10.326 19.199-36.151 20.884-35.07 3.088 1.986-20.938 32.782-18.682 39.01 4.855 13.409 18.474-15.385 27.583-29.13 1.899-2.866 2.658-1.35 2.461-.985-4.687 8.69-35.625 50.72-5.553 29.084 10.893-7.838 18.246-26.346 24.923-46.525z" fill="url(#s)" style="fill:url(#s)" transform="translate(58.532 -381.606) scale(.79757)"/><path fill="url(#t)" d="M207.46 961.15c-26.851-29.059-45.653 23.478-55.995 45.73-3.826 8.233 1.663 15.981 7.389 6.793 4.518-6.318 17.21-31.836 18.249-30.96 1.363 1.153-16.991 31.412-18.166 34.99-1.042 3.172 4.277 11.78 9.637 3.74 6.95-10.425 19.199-36.15 20.884-35.069 3.088 1.985-20.938 32.781-18.682 39.01 4.855 13.408 18.474-15.386 27.583-29.13 1.899-2.866 2.675-1.34 2.461-.985-12.533 21.324-18.91 27.502-19.057 32.474 2.018 23.175 67.531-61.166 25.696-66.593z" style="fill:url(#t)" transform="translate(58.532 -381.606) scale(.79757)"/><path fill="#643400" d="M206.745 226.812c.432.59 3.054 1.549 13.688-.275 10.31-1.768 25.563-10.374 25.615-15.58.495-9.385-7.712-15.076-23.365-14.818-12.304.202-17.136 20.978-15.938 30.673z"/><path d="M187.52 761.17c10.981 5.006 46.665-8.936 46.772-19.397 0-10.416-9.196-15.843-25.326-15.843-16.129 0-21.446 24.823-21.446 35.239z" fill="url(#u)" style="fill:url(#u)" transform="translate(58.532 -381.606) scale(.79757)"/><path d="M325.11 738.05c22.971-11.47 40.761-32.974 16.134-36.467-20.623-4.246-28.85 2.637-43.412 6.553-22.014 4.64-23.009 1.462-20.684 4.83 9.45 13.691 18.215 26.143 47.962 25.083z" fill="url(#v)" style="fill:url(#v)" transform="translate(58.532 -381.606) scale(.79757)"/><path stroke-linejoin="round" d="M235.162 240.945c.54.66-.154-1.919 2.377-3.11 3.912-1.845 5.265-2.844 6.639-2.92 8.914-.494-5.304-.343-3.55 2.15 6.89 9.788 12.481 29.52 45.036 20.836 7.643-2.039 14.809-2.843 19.032-6.448 11.756-10.038 14.048-15.882 19.347-22.128 1.026-1.21 2.546.817 7.002 3.16 1.447.762 6.18.592 6.668.207" stroke="#582d00" stroke-linecap="round" stroke-width=".503" fill="none"/><path d="M223.79 721.52c-17.796-12.827-28.081 6.286-41.53 13.442 4.068-18.24 32.763-29.664 47.157-16.661.829 1.082-4.41 3.017-5.627 3.22z" fill="url(#w)" style="fill:url(#w)" transform="translate(58.532 -381.606) scale(.79757)"/><path style="color:#000;fill:url(#x);enable-background:accumulate" fill="url(#x)" d="M131.96 768.33c24.494-5.835 18.549 2.123 21.36 9.203 3.01 7.58-.05 21.649-6.241 22.406-7.587.929-18.301-3.416-22.728-10.265-6.031-7.882-4.61-15.743 7.61-21.344z" transform="translate(58.532 -381.606) scale(.79757)"/><path d="M210.25 216.44c0 5.764-4.701 10.438-10.5 10.438s-10.5-4.673-10.5-10.438c0-5.764 4.701-10.438 10.5-10.438s10.5 4.673 10.5 10.438z" transform="matrix(.71353 0 0 .67424 89.666 63.449)" stroke="url(#y)" stroke-linecap="square" stroke-width="2.903" fill="url(#z)" style="fill:url(#z);stroke:url(#linearGradient3994)"/><path fill="#643400" d="M313.212 377.425c12.737-11.702 23.207 1.653 28.512 9.049 2.632 4.977 4.194 6.876 11.447 22.94 2.187 5.333 7.37 14.503 1.423 16.722-6.149 3.725-21.558-30.782-20.278-30.783 1.043 0 21.899 23.727 15.933 33.243-9.74 15.538-22.025-27.203-20.86-27.033 1.015.148 19.414 28.59 9.565 33.339-2.223.936-3.729-.554-6.183-2.596-7.66-3.964-19.325-12.264-21.153-17.165-.548-2.448 20.655 12.625 20.826 16.41.263 7.77-4.687 7.014-9.075 3.674-8.388-6.385-20.177-24.155-20.093-25.914-3.937-8.286-4.518-13.907-4.279-20.581.145-4.074 7.87-10.35 14.215-11.305z"/><path fill="url(#A)" d="M303.93 971.9c-.525-2.739 6.438-16.582 16.642-15.781 10.063-13.828 21.368-5.35 22.43-3.982 15.983 17.037 15.354 24.615 24.807 34.854 5.148 5.577 4.428 12.201 4.326 16.162-.017.65-.465 12.858-6.692 4.15-4.518-6.317-17.388-31.394-18.426-30.517-1.363 1.152 16.974 31.418 18.166 34.99 1.042 3.121-4.277 11.539-9.637 3.74-7.096-10.326-19.199-36.151-20.884-35.07-3.088 1.986 20.938 32.782 18.682 39.01-4.855 13.409-18.474-15.385-27.583-29.131-1.899-2.866-2.657-1.35-2.461-.985 4.687 8.69 35.625 50.72 5.553 29.084-10.893-7.838-18.246-26.346-24.923-46.525z" style="fill:url(#A)" transform="translate(58.532 -381.606) scale(.79757)"/><path d="M316.66 955.22c26.851-29.059 45.653 23.478 55.995 45.73 3.826 8.233-1.663 15.981-7.389 6.793-4.518-6.318-17.21-31.836-18.249-30.96-1.364 1.153 16.991 31.412 18.166 34.99 1.042 3.172-4.277 11.78-9.637 3.74-6.95-10.425-19.199-36.15-20.884-35.069-3.089 1.986 20.938 32.782 18.682 39.01-4.855 13.409-18.474-15.385-27.583-29.131-1.899-2.866-2.675-1.34-2.461-.985 12.533 21.324 18.91 27.502 19.057 32.474-2.018 23.175-67.531-61.166-25.696-66.593z" fill="url(#B)" style="fill:url(#B)" transform="translate(58.532 -381.606) scale(.79757)"/><path style="color:#000;enable-background:accumulate" d="M283.94 743.56c-.609.123-1.247.313-1.869.465a58.74 58.74 0 0 0-2.01.483c-1.008.281-2.032.641-3.04.928-.851.232-1.711.497-2.568.75-.81.226-1.638.536-2.453.866-1.063.467-2.12.952-3.175 1.436-1.45.694-2.934 1.317-4.4 1.982a239.887 239.887 0 0 0-5.686 2.728c-1.365.673-2.742 1.336-4.038 2.075-.863.466-1.589.994-2.335 1.508-.465.326-.953.64-1.458.95l1.92-1.887a39.4 39.4 0 0 0 1.43-.949c.752-.517 1.51-1.035 2.38-1.499 1.303-.712 2.665-1.358 4.014-2.02 1.894-.925 3.79-1.851 5.712-2.736 1.478-.674 2.97-1.317 4.435-2.017 1.073-.493 2.144-.997 3.232-1.459.838-.33 1.683-.64 2.512-.868.854-.248 1.714-.514 2.562-.741 1.013-.293 2.04-.645 3.05-.927a44.347 44.347 0 0 1 2.043-.503c.622-.156 1.25-.322 1.873-.483zm3.49.08c-.559.261-1.129.596-1.693.889-.606.3-1.216.609-1.827.939-.905.508-1.806 1.097-2.711 1.612-.766.424-1.533.881-2.299 1.328-.727.408-1.451.903-2.157 1.414-.912.702-1.813 1.42-2.713 2.136-1.229 1.012-2.509 1.964-3.76 2.953a233.179 233.179 0 0 0-4.818 3.976c-1.152.972-2.319 1.937-3.387 2.958-.717.653-1.287 1.335-1.879 2.009a28.05 28.05 0 0 1-1.171 1.262l1.38-2.28c.4-.417.778-.835 1.146-1.254.596-.678 1.199-1.358 1.925-2.011 1.08-.996 2.236-1.94 3.376-2.898a256.39 256.39 0 0 1 4.841-3.991c1.261-1 2.545-1.973 3.786-2.995.915-.729 1.825-1.47 2.761-2.17.729-.517 1.47-1.016 2.215-1.431.765-.44 1.531-.9 2.295-1.319.908-.52 1.814-1.103 2.722-1.613.62-.34 1.238-.667 1.852-.966.563-.297 1.13-.604 1.693-.906zm3.05 3.35c-.559.261-1.129.596-1.693.889-.606.3-1.216.609-1.827.939-.905.508-1.806 1.097-2.711 1.612-.766.424-1.533.881-2.3 1.328-.726.408-1.45.903-2.156 1.414-.912.702-1.813 1.42-2.713 2.136-1.229 1.012-2.51 1.964-3.761 2.953a233.179 233.179 0 0 0-4.817 3.976c-1.152.972-2.319 1.937-3.387 2.958-.717.653-1.287 1.335-1.879 2.009-.367.424-.76.843-1.172 1.262l1.382-2.28c.398-.417.777-.835 1.144-1.254.597-.678 1.2-1.358 1.926-2.011 1.08-.996 2.236-1.94 3.376-2.898a256.39 256.39 0 0 1 4.841-3.991c1.261-1 2.545-1.973 3.786-2.995.915-.729 1.825-1.47 2.761-2.17.729-.517 1.47-1.016 2.215-1.431.765-.44 1.53-.9 2.295-1.319.908-.52 1.814-1.103 2.722-1.613.62-.34 1.238-.667 1.852-.966.563-.297 1.13-.604 1.693-.906zm5.04.52c-.476.384-.943.841-1.416 1.257-.512.432-1.024.875-1.533 1.337-.749.705-1.473 1.486-2.22 2.196-.634.59-1.262 1.213-1.892 1.825-.6.566-1.177 1.215-1.732 1.875-.706.894-1.397 1.8-2.088 2.705-.935 1.269-1.934 2.49-2.897 3.741a226.26 226.26 0 0 0-3.661 4.982c-.87 1.211-1.756 2.42-2.532 3.658-.53.801-.909 1.596-1.312 2.387a27.24 27.24 0 0 1-.815 1.498l.76-2.534c.28-.497.541-.99.79-1.483.407-.797.819-1.597 1.357-2.4.795-1.218 1.676-2.404 2.537-3.599a254.533 254.533 0 0 1 3.68-5c.97-1.264 1.967-2.508 2.911-3.788.702-.921 1.396-1.851 2.126-2.75.575-.671 1.167-1.328 1.785-1.905.63-.605 1.256-1.23 1.89-1.814.748-.717 1.48-1.494 2.23-2.2a42.252 42.252 0 0 1 1.55-1.37c.471-.419.942-.85 1.412-1.274zm.79 2.82c-.4.457-.778.985-1.169 1.472-.426.51-.851 1.03-1.27 1.57-.61.818-1.182 1.707-1.79 2.53-.52.686-1.025 1.403-1.536 2.11-.49.657-.941 1.391-1.369 2.134-.534.996-1.052 2.003-1.57 3.008-.692 1.404-1.457 2.773-2.18 4.164a221.867 221.867 0 0 0-2.71 5.512c-.64 1.337-1.294 2.673-1.836 4.022-.378.876-.608 1.721-.863 2.568a26.787 26.787 0 0 1-.533 1.61l.292-2.622c.187-.536.355-1.065.513-1.592.256-.852.518-1.707.903-2.587.564-1.331 1.219-2.645 1.853-3.964.891-1.85 1.785-3.7 2.725-5.534.727-1.405 1.486-2.795 2.185-4.212.526-1.023 1.043-2.054 1.6-3.06.446-.756.91-1.5 1.415-2.17.512-.701 1.016-1.42 1.536-2.1.607-.83 1.188-1.716 1.8-2.535.422-.554.848-1.092 1.281-1.605.388-.491.775-.993 1.161-1.488zm-10.82-9.88c-.621.026-1.283.115-1.923.168-.68.044-1.368.095-2.066.164-1.041.12-2.112.317-3.157.443-.878.097-1.772.224-2.66.34-.837.098-1.707.275-2.567.474-1.129.295-2.253.61-3.377.923-1.548.459-3.118.843-4.678 1.271-2.039.57-4.057 1.188-6.072 1.808-1.461.451-2.932.891-4.336 1.42-.93.324-1.736.732-2.56 1.124-.513.25-1.048.483-1.6.71l2.216-1.563c.539-.23 1.06-.469 1.572-.714.829-.394 1.664-.786 2.602-1.109 1.405-.5 2.859-.925 4.302-1.368a274.394 274.394 0 0 1 6.1-1.812c1.573-.435 3.155-.838 4.718-1.3 1.143-.32 2.285-.651 3.436-.937.883-.196 1.77-.37 2.626-.466.885-.112 1.779-.24 2.654-.333 1.049-.131 2.122-.32 3.167-.44a45 45 0 0 1 2.1-.18c.64-.056 1.288-.122 1.93-.184l-2.427 1.56z" transform="matrix(1.13422 -.3312 .2526 .52648 -218.81 -84.508)" fill="#bb8e4d"/><path style="color:#000;enable-background:accumulate" d="M283.94 743.56c-.609.123-1.247.313-1.869.465a58.74 58.74 0 0 0-2.01.483c-1.008.281-2.032.641-3.04.928-.851.232-1.711.497-2.568.75-.81.226-1.638.536-2.453.866-1.063.467-2.12.952-3.175 1.436-1.45.694-2.934 1.317-4.4 1.982a239.887 239.887 0 0 0-5.686 2.728c-1.365.673-2.742 1.336-4.038 2.075-.863.466-1.589.994-2.335 1.508-.465.326-.953.64-1.458.95l1.92-1.887a39.4 39.4 0 0 0 1.43-.949c.752-.517 1.51-1.035 2.38-1.499 1.303-.712 2.665-1.358 4.014-2.02 1.894-.925 3.79-1.851 5.712-2.736 1.478-.674 2.97-1.317 4.435-2.017 1.073-.493 2.144-.997 3.232-1.459.838-.33 1.683-.64 2.512-.868.854-.248 1.714-.514 2.562-.741 1.013-.293 2.04-.645 3.05-.927a44.347 44.347 0 0 1 2.043-.503c.622-.156 1.25-.322 1.873-.483zm3.49.08c-.559.261-1.129.596-1.693.889-.606.3-1.216.609-1.827.939-.905.508-1.806 1.097-2.711 1.612-.766.424-1.533.881-2.299 1.328-.727.408-1.451.903-2.157 1.414-.912.702-1.813 1.42-2.713 2.136-1.229 1.012-2.509 1.964-3.76 2.953a233.179 233.179 0 0 0-4.818 3.976c-1.152.972-2.319 1.937-3.387 2.958-.717.653-1.287 1.335-1.879 2.009a28.05 28.05 0 0 1-1.171 1.262l1.38-2.28c.4-.417.778-.835 1.146-1.254.596-.678 1.199-1.358 1.925-2.011 1.08-.996 2.236-1.94 3.376-2.898a256.39 256.39 0 0 1 4.841-3.991c1.261-1 2.545-1.973 3.786-2.995.915-.729 1.825-1.47 2.761-2.17.729-.517 1.47-1.016 2.215-1.431.765-.44 1.531-.9 2.295-1.319.908-.52 1.814-1.103 2.722-1.613.62-.34 1.238-.667 1.852-.966.563-.297 1.13-.604 1.693-.906zm3.05 3.35c-.559.261-1.129.596-1.693.889-.606.3-1.216.609-1.827.939-.905.508-1.806 1.097-2.711 1.612-.766.424-1.533.881-2.3 1.328-.726.408-1.45.903-2.156 1.414-.912.702-1.813 1.42-2.713 2.136-1.229 1.012-2.51 1.964-3.761 2.953a233.179 233.179 0 0 0-4.817 3.976c-1.152.972-2.319 1.937-3.387 2.958-.717.653-1.287 1.335-1.879 2.009-.367.424-.76.843-1.172 1.262l1.382-2.28c.398-.417.777-.835 1.144-1.254.597-.678 1.2-1.358 1.926-2.011 1.08-.996 2.236-1.94 3.376-2.898a256.39 256.39 0 0 1 4.841-3.991c1.261-1 2.545-1.973 3.786-2.995.915-.729 1.825-1.47 2.761-2.17.729-.517 1.47-1.016 2.215-1.431.765-.44 1.53-.9 2.295-1.319.908-.52 1.814-1.103 2.722-1.613.62-.34 1.238-.667 1.852-.966.563-.297 1.13-.604 1.693-.906zm5.04.52c-.476.384-.943.841-1.416 1.257-.512.432-1.024.875-1.533 1.337-.749.705-1.473 1.486-2.22 2.196-.634.59-1.262 1.213-1.892 1.825-.6.566-1.177 1.215-1.732 1.875-.706.894-1.397 1.8-2.088 2.705-.935 1.269-1.934 2.49-2.897 3.741a226.26 226.26 0 0 0-3.661 4.982c-.87 1.211-1.756 2.42-2.532 3.658-.53.801-.909 1.596-1.312 2.387a27.24 27.24 0 0 1-.815 1.498l.76-2.534c.28-.497.541-.99.79-1.483.407-.797.819-1.597 1.357-2.4.795-1.218 1.676-2.404 2.537-3.599a254.533 254.533 0 0 1 3.68-5c.97-1.264 1.967-2.508 2.911-3.788.702-.921 1.396-1.851 2.126-2.75.575-.671 1.167-1.328 1.785-1.905.63-.605 1.256-1.23 1.89-1.814.748-.717 1.48-1.494 2.23-2.2a42.252 42.252 0 0 1 1.55-1.37c.471-.419.942-.85 1.412-1.274zm.79 2.82c-.4.457-.778.985-1.169 1.472-.426.51-.851 1.03-1.27 1.57-.61.818-1.182 1.707-1.79 2.53-.52.686-1.025 1.403-1.536 2.11-.49.657-.941 1.391-1.369 2.134-.534.996-1.052 2.003-1.57 3.008-.692 1.404-1.457 2.773-2.18 4.164a221.867 221.867 0 0 0-2.71 5.512c-.64 1.337-1.294 2.673-1.836 4.022-.378.876-.608 1.721-.863 2.568a26.787 26.787 0 0 1-.533 1.61l.292-2.622c.187-.536.355-1.065.513-1.592.256-.852.518-1.707.903-2.587.564-1.331 1.219-2.645 1.853-3.964.891-1.85 1.785-3.7 2.725-5.534.727-1.405 1.486-2.795 2.185-4.212.526-1.023 1.043-2.054 1.6-3.06.446-.756.91-1.5 1.415-2.17.512-.701 1.016-1.42 1.536-2.1.607-.83 1.188-1.716 1.8-2.535.422-.554.848-1.092 1.281-1.605.388-.491.775-.993 1.161-1.488zm-10.82-9.88c-.621.026-1.283.115-1.923.168-.68.044-1.368.095-2.066.164-1.041.12-2.112.317-3.157.443-.878.097-1.772.224-2.66.34-.837.098-1.707.275-2.567.474-1.129.295-2.253.61-3.377.923-1.548.459-3.118.843-4.678 1.271-2.039.57-4.057 1.188-6.072 1.808-1.461.451-2.932.891-4.336 1.42-.93.324-1.736.732-2.56 1.124-.513.25-1.048.483-1.6.71l2.216-1.563c.539-.23 1.06-.469 1.572-.714.829-.394 1.664-.786 2.602-1.109 1.405-.5 2.859-.925 4.302-1.368a274.394 274.394 0 0 1 6.1-1.812c1.573-.435 3.155-.838 4.718-1.3 1.143-.32 2.285-.651 3.436-.937.883-.196 1.77-.37 2.626-.466.885-.112 1.779-.24 2.654-.333 1.049-.131 2.122-.32 3.167-.44a45 45 0 0 1 2.1-.18c.64-.056 1.288-.122 1.93-.184l-2.427 1.56z" transform="scale(-.79757 .79757) rotate(10.435 2622.88 -3405.85)" fill="#bb8e4d"/></svg>