<?xml version="1.0" encoding="UTF-8" standalone="no"?>
<svg
   version="1.0"
   width="200"
   height="200"
   id="svg11"
   sodipodi:docname="pclinuxos.svg"
   inkscape:version="1.4.2 (ebf0e940d0, 2025-05-08)"
   xmlns:inkscape="http://www.inkscape.org/namespaces/inkscape"
   xmlns:sodipodi="http://sodipodi.sourceforge.net/DTD/sodipodi-0.dtd"
   xmlns:xlink="http://www.w3.org/1999/xlink"
   xmlns="http://www.w3.org/2000/svg"
   xmlns:svg="http://www.w3.org/2000/svg">
  <sodipodi:namedview
     id="namedview11"
     pagecolor="#ffffff"
     bordercolor="#666666"
     borderopacity="1.0"
     inkscape:showpageshadow="2"
     inkscape:pageopacity="0.0"
     inkscape:pagecheckerboard="0"
     inkscape:deskcolor="#d1d1d1"
     inkscape:zoom="2.3136534"
     inkscape:cx="158.19137"
     inkscape:cy="159.0558"
     inkscape:window-width="1916"
     inkscape:window-height="1032"
     inkscape:window-x="0"
     inkscape:window-y="22"
     inkscape:window-maximized="1"
     inkscape:current-layer="svg11" />
  <defs
     id="defs8">
    <linearGradient
       id="b">
      <stop
         offset="0"
         style="stop-color:#bde9ff;stop-opacity:1"
         id="stop1" />
      <stop
         style="stop-color:#1c7dbd;stop-opacity:1"
         offset=".2"
         id="stop2" />
      <stop
         offset=".3"
         style="stop-color:#1e5ba1;stop-opacity:1"
         id="stop3" />
      <stop
         offset=".54"
         style="stop-color:#262e36;stop-opacity:1"
         id="stop4" />
      <stop
         offset=".73"
         style="stop-color:#186d99;stop-opacity:1"
         id="stop5" />
      <stop
         offset="1"
         style="stop-color:#0071bf;stop-opacity:1"
         id="stop6" />
    </linearGradient>
    <linearGradient
       id="a">
      <stop
         style="stop-color:#fff;stop-opacity:1"
         offset="0"
         id="stop7" />
      <stop
         style="stop-color:#707070;stop-opacity:1"
         offset="1"
         id="stop8" />
    </linearGradient>
    <linearGradient
       xlink:href="#a"
       id="d"
       gradientUnits="userSpaceOnUse"
       gradientTransform="matrix(0.56345708,0,0,0.60440075,-593.28161,-521.04544)"
       x1="1240.72"
       y1="1046.49"
       x2="1240.72"
       y2="1007.46" />
    <linearGradient
       xlink:href="#b"
       id="c"
       x1="649.46997"
       y1="5.0500002"
       x2="649.46997"
       y2="994.53003"
       gradientUnits="userSpaceOnUse"
       gradientTransform="matrix(0.20220019,0,0,0.20004934,-25.020837,7.9123447)" />
  </defs>
  <g
     id="g11"
     transform="matrix(0.79990578,0,0,0.79990578,14.967511,13.694166)">
    <path
       style="fill:url(#c);fill-opacity:1;stroke:#000000;stroke-width:2.04065;stroke-linecap:round;stroke-linejoin:round;stroke-miterlimit:4;stroke-dasharray:none;stroke-opacity:1"
       d="m 205.27507,107.895 a 98.97194,98.973424 0 1 1 -197.9438767,0 98.97194,98.973424 0 1 1 197.9438767,0 z"
       id="path8" />
    <path
       style="fill:#000000;fill-opacity:1;fill-rule:nonzero;stroke:none;stroke-width:0.758211"
       d="m 186.7252,108.15206 a 80.606963,80.603393 0 1 1 -161.213923,0 80.606963,80.603393 0 1 1 161.213923,0 z"
       id="path9" />
    <path
       style="font-style:normal;font-variant:normal;font-weight:700;font-stretch:normal;font-size:49.0059px;line-height:125%;font-family:'Bitstream Vera Sans';text-align:start;text-anchor:start;display:inline;overflow:visible;visibility:visible;fill:#000000;fill-opacity:1;fill-rule:evenodd;stroke:none;stroke-width:1.44063;marker:none"
       d="m 103.20975,98.619391 c -1.04074,0 -1.99168,0.236716 -2.85284,0.714229 a 7.9177355,7.9177355 0 0 0 -2.448783,2.18758 v -2.485515 h -5.077145 v 17.039455 h 5.081227 v -8.39117 c 0,-1.55089 0.302016,-2.76304 0.90605,-3.63644 a 2.8650775,2.8650775 0 0 1 2.501841,-1.31418 c 0.4367,0 0.82851,0.098 1.16725,0.29793 a 2.0569787,2.0569787 0 0 1 0.79994,0.81626 c 0.15101,0.26529 0.25712,0.67342 0.31426,1.23256 0.0653,0.55914 0.0898,1.5713 0.0898,3.04057 l 0.0204,0.0204 v 1.29378 c 0,2.30185 0.48976,4.06089 1.44479,5.26488 0.96727,1.21215 2.35492,1.8121 4.1915,1.8121 1.02849,0 1.98351,-0.22855 2.83243,-0.69382 a 8.0891504,8.0891504 0 0 0 2.42838,-2.20799 v 2.46511 h 5.10163 V 99.035685 h -5.10163 v 8.407495 c 0,1.55498 -0.30202,2.76713 -0.90605,3.64052 a 2.8569149,2.8569149 0 0 1 -2.48552,1.31419 2.2324749,2.2324749 0 0 1 -1.98351,-1.11421 3.4976801,3.4976801 0 0 1 -0.33059,-1.31418 31.344437,31.344437 0 0 1 -0.0939,-2.95894 v -1.31418 c 0,-2.30186 -0.47343,-4.0609 -1.42846,-5.26489 -0.94686,-1.212146 -2.33451,-1.812099 -4.17109,-1.812099 z M 30.358416,93.346343 h 9.068665 c 2.697744,0 4.766966,0.644846 6.203586,1.930458 1.448865,1.28153 2.171255,3.105874 2.171255,5.481189 0,2.38757 -0.72239,4.22416 -2.171255,5.50977 -1.43662,1.28153 -3.505842,1.91821 -6.203586,1.91821 h -3.603794 v 7.88917 H 30.358416 V 93.342262 m 5.468952,4.248639 v 6.350519 h 3.020167 c 1.06114,0 1.877401,-0.27345 2.456947,-0.82443 0.571382,-0.55506 0.865237,-1.34683 0.865237,-2.359 0,-1.012158 -0.289773,-1.795769 -0.865237,-2.342664 -0.579546,-0.546895 -1.395807,-0.824425 -2.456947,-0.824425 h -3.020167 m 30.932225,17.235359 a 13.382606,13.382606 0 0 1 -3.138525,1.2652 13.4275,13.4275 0 0 1 -3.40381,0.42446 c -3.53033,0 -6.326026,-1.05706 -8.391167,-3.16709 -2.06106,-2.12229 -3.093631,-4.99144 -3.093631,-8.61564 0,-3.63237 1.032571,-6.505604 3.093631,-8.61564 2.065141,-2.122279 4.856755,-3.183419 8.391167,-3.183419 1.183579,0 2.318182,0.142846 3.40381,0.424455 a 13.386687,13.386687 0 0 1 3.138525,1.265206 v 4.705746 a 11.631725,11.631725 0 0 0 -2.995679,-1.632522 9.3257864,9.3257864 0 0 0 -3.109956,-0.514245 c -1.946784,0 -3.481355,0.669334 -4.595552,2.008003 -1.118278,1.338676 -1.673335,3.183426 -1.673335,5.542416 0,2.34267 0.555057,4.18742 1.673335,5.52609 1.114197,1.33867 2.648768,2.008 4.595552,2.008 1.089709,0 2.12228,-0.17142 3.109956,-0.51833 a 11.631725,11.631725 0 0 0 2.995679,-1.62844 v 4.70575 M 150.23048,97.182771 c -1.66517,0 -2.95894,0.657091 -3.87724,1.979434 -0.91829,1.318265 -1.3754,3.175265 -1.3754,5.570985 0,2.38348 0.45711,4.2364 1.3754,5.55466 0.9183,1.32235 2.21207,1.97943 3.87724,1.97943 1.67334,0 2.97119,-0.65708 3.88949,-1.97943 0.91421,-1.31826 1.3754,-3.17118 1.3754,-5.55466 0,-2.39572 -0.46119,-4.25272 -1.3754,-5.570985 -0.9183,-1.322343 -2.21615,-1.979434 -3.88949,-1.979434 m 0,-4.24864 c 3.40381,0 6.07298,1.044814 8.00345,3.134443 1.93046,2.09371 2.89772,4.979196 2.89772,8.664616 0,3.67318 -0.96726,6.55457 -2.89772,8.64829 -1.93047,2.08963 -4.59964,3.13444 -8.00345,3.13444 -3.39972,0 -6.06482,-1.04481 -8.00752,-3.13444 -1.93046,-2.09372 -2.89365,-4.97511 -2.89365,-8.65237 0,-3.68134 0.96319,-6.570906 2.89773,-8.660536 1.93862,-2.089629 4.60372,-3.134443 7.99936,-3.134443 m 27.21007,1.12644 v 4.811861 a 18.58219,18.58219 0 0 0 -3.40381,-1.265205 12.635726,12.635726 0 0 0 -3.13852,-0.424456 c -1.30602,0 -2.26921,0.191821 -2.89773,0.575465 a 1.9712712,1.9712712 0 0 0 -0.93462,1.795774 c 0,0.6122 0.20814,1.08971 0.62444,1.43254 0.42853,0.33467 1.19175,0.62444 2.30186,0.86932 l 2.32634,0.502 c 2.35492,0.50608 4.03234,1.27745 5.0241,2.3141 0.99175,1.03665 1.48967,2.50593 1.48967,4.41597 0,2.50593 -0.69382,4.37108 -2.08555,5.59956 -1.37948,1.22031 -3.49768,1.82842 -6.34235,1.82842 -1.34683,0 -2.69367,-0.13876 -4.04866,-0.40813 a 23.728719,23.728719 0 0 1 -4.05681,-1.22439 v -4.94247 a 20.190226,20.190226 0 0 0 3.91805,1.7468 c 1.26521,0.38773 2.4896,0.57955 3.66094,0.57955 1.19174,0 2.10595,-0.21222 2.73855,-0.63668 a 2.0692226,2.0692226 0 0 0 0.95094,-1.82842 c 0,-0.71016 -0.2163,-1.25705 -0.653,-1.64478 -0.42446,-0.38364 -1.28153,-0.73055 -2.57123,-1.03664 l -2.11004,-0.50201 c -2.12227,-0.48567 -3.67317,-1.2652 -4.65676,-2.32634 -0.97544,-1.06522 -1.46111,-2.50184 -1.46111,-4.309863 0,-2.265124 0.68158,-4.003761 2.04065,-5.224072 1.36315,-1.21623 3.32218,-1.824344 5.87708,-1.824344 1.16318,0 2.36308,0.09795 3.59155,0.285691 a 29.956792,29.956792 0 0 1 3.81602,0.840749 M 68.930849,93.350423 h 5.46487 v 18.296507 h 9.591071 v 4.43229 H 68.930849 V 93.346343 m 58.852451,14.007047 -5.73832,-8.325868 h 5.37916 l 3.2528,5.052658 3.28954,-5.052658 h 5.37916 l -5.73424,8.297298 6.01993,8.7544 h -5.37917 l -3.57522,-5.38732 -3.53441,5.38732 h -5.37917 l 6.01585,-8.72583 M 88.239511,90.509834 c 0.869319,0 1.612117,0.338749 2.224313,1.020327 a 3.3752408,3.3752408 0 0 1 0.922375,2.383484 c 0,0.979513 -0.306098,1.795774 -0.922375,2.448783 a 2.8936467,2.8936467 0 0 1 -4.391487,-0.03265 3.562981,3.562981 0 0 1 -0.922375,-2.416133 c 0,-0.910133 0.310179,-1.705987 0.922375,-2.387565 a 2.8936467,2.8936467 0 0 1 2.163093,-1.020327 m 2.256963,25.573467 H 85.864191 V 103.3333 h -3.269127 v -4.293534 h 7.897329 V 116.0833"
       id="path10" />
    <path
       style="font-style:normal;font-variant:normal;font-weight:700;font-stretch:normal;font-size:49.0059px;line-height:125%;font-family:'Bitstream Vera Sans';text-align:start;text-anchor:start;display:inline;overflow:visible;visibility:visible;fill:url(#d);fill-opacity:1;fill-rule:evenodd;stroke:none;stroke-width:1.44063;marker:none"
       d="m 104.42598,100.19477 c -1.04482,0 -1.99577,0.2408 -2.85692,0.71424 a 7.9177355,7.9177355 0 0 0 -2.448784,2.18758 v -2.48553 H 94.04313 v 17.03947 h 5.081227 v -8.39117 c 0,-1.5509 0.302017,-2.76305 0.906053,-3.63645 a 2.8650775,2.8650775 0 0 1 2.50184,-1.31418 c 0.4367,0 0.8285,0.098 1.16725,0.30202 a 2.0569787,2.0569787 0 0 1 0.79994,0.81627 c 0.151,0.26119 0.25712,0.67341 0.31426,1.22847 0.0653,0.55914 0.0939,1.5713 0.0939,3.04465 l 0.0163,0.0163 v 1.29377 c 0,2.30594 0.48976,4.0609 1.44477,5.26897 0.96727,1.20806 2.35492,1.80802 4.19151,1.80802 1.02849,0 1.98351,-0.22856 2.8365,-0.69383 a 8.0891504,8.0891504 0 0 0 2.42839,-2.20391 v 2.46104 h 5.09346 v -17.03947 h -5.09346 v 8.41158 c 0,1.5509 -0.3061,2.76713 -0.91014,3.63644 a 2.8569149,2.8569149 0 0 1 -2.48551,1.31419 2.2324749,2.2324749 0 0 1 -1.98352,-1.1142 3.4976801,3.4976801 0 0 1 -0.33058,-1.3101 31.344437,31.344437 0 0 1 -0.0939,-2.96303 v -1.31418 c 0,-2.30185 -0.47344,-4.06089 -1.42846,-5.26489 -0.94687,-1.21214 -2.3345,-1.8121 -4.16701,-1.8121 z M 31.574646,94.921727 h 9.068664 c 2.693662,0 4.762885,0.644846 6.203587,1.934539 1.444782,1.277449 2.167174,3.101794 2.167174,5.477114 0,2.38756 -0.722392,4.22415 -2.171256,5.50976 -1.43662,1.28153 -3.505843,1.91822 -6.203587,1.91822 h -3.603793 v 7.88917 h -5.46487 V 94.917646 m 5.468951,4.252722 v 6.346432 h 3.016086 c 1.06114,0 1.877401,-0.27345 2.456947,-0.82035 0.575464,-0.55913 0.865236,-1.34683 0.865236,-2.36307 0,-1.01216 -0.289772,-1.79577 -0.865236,-2.34267 -0.579546,-0.546895 -1.395807,-0.820342 -2.456947,-0.820342 H 37.035435 M 67.96766,116.40165 a 13.382606,13.382606 0 0 1 -3.138525,1.2652 13.4275,13.4275 0 0 1 -3.40381,0.42446 c -3.53033,0 -6.326026,-1.05298 -8.387085,-3.1671 -2.065142,-2.12228 -3.097712,-4.99144 -3.097712,-8.61563 0,-3.63237 1.03257,-6.50561 3.097712,-8.615646 2.061059,-2.122279 4.856755,-3.183419 8.387085,-3.183419 a 13.386687,13.386687 0 0 1 6.542335,1.689661 v 4.705744 A 11.631725,11.631725 0 0 0 64.971981,99.2724 9.3257864,9.3257864 0 0 0 61.862025,98.758156 c -1.946783,0 -3.481354,0.669334 -4.595552,2.008004 -1.118278,1.33867 -1.673335,3.1875 -1.673335,5.54242 0,2.34266 0.555057,4.18741 1.673335,5.52608 1.114198,1.33867 2.648769,2.00801 4.595552,2.00801 1.089709,0 2.126361,-0.17142 3.109956,-0.51425 a 11.631725,11.631725 0 0 0 2.995679,-1.63253 v 4.70576 m 83.47089,-17.643494 c -1.66517,0 -2.95895,0.65709 -3.87724,1.979434 -0.91422,1.31826 -1.3754,3.17526 -1.3754,5.57099 0,2.38347 0.46118,4.23639 1.3754,5.55873 0.91829,1.31827 2.21207,1.97536 3.87724,1.97536 1.67333,0 2.9712,-0.65709 3.88948,-1.97536 0.9183,-1.32234 1.3754,-3.17526 1.3754,-5.55873 0,-2.39573 -0.4571,-4.25273 -1.3754,-5.57099 -0.91828,-1.322344 -2.21615,-1.979434 -3.88948,-1.979434 m 0,-4.24456 c 3.40381,0 6.07299,1.040734 8.00344,3.134444 1.93046,2.089629 2.89773,4.9792 2.89773,8.66054 0,3.67317 -0.96727,6.55457 -2.89773,8.64828 -1.93045,2.08963 -4.59963,3.13445 -8.00344,3.13445 -3.39565,0 -6.06482,-1.04482 -8.00345,-3.13445 -1.93045,-2.09371 -2.89772,-4.97511 -2.89772,-8.64828 0,-3.68543 0.96727,-6.570911 2.89772,-8.66054 1.93863,-2.09371 4.6078,-3.138525 7.99937,-3.138525 m 27.21007,1.126441 v 4.811864 a 18.58219,18.58219 0 0 0 -3.40381,-1.265209 12.635726,12.635726 0 0 0 -3.13853,-0.424455 c -1.30602,0 -2.2692,0.191821 -2.89364,0.579545 -0.62444,0.383643 -0.9387,0.979509 -0.9387,1.795769 0,0.60812 0.20815,1.08564 0.62444,1.42846 0.42854,0.33467 1.19582,0.62445 2.30186,0.86932 l 2.32634,0.502 c 2.35492,0.50609 4.03233,1.27745 5.02409,2.31411 0.99584,1.03664 1.48967,2.50592 1.48967,4.41597 0,2.50592 -0.69382,4.37516 -2.08146,5.60363 -1.38765,1.21623 -3.50176,1.82435 -6.34643,1.82435 -1.34683,0 -2.69366,-0.13469 -4.04457,-0.40813 a 23.728719,23.728719 0 0 1 -4.06091,-1.22031 v -4.94655 a 20.190226,20.190226 0 0 0 3.91806,1.75088 c 1.2652,0.38364 2.48959,0.57547 3.66093,0.57547 1.19174,0 2.10595,-0.21223 2.73856,-0.63669 a 2.0692226,2.0692226 0 0 0 0.95094,-1.82842 c 0,-0.71015 -0.21631,-1.25705 -0.65301,-1.64477 -0.42445,-0.38364 -1.28153,-0.73056 -2.57122,-1.03257 l -2.11004,-0.502 c -2.12228,-0.48976 -3.67317,-1.26521 -4.65677,-2.33042 -0.97543,-1.06523 -1.46111,-2.50185 -1.46111,-4.30987 0,-2.261042 0.68158,-3.999679 2.04066,-5.224071 1.36316,-1.21623 3.32218,-1.824344 5.87707,-1.824344 1.16318,0 2.36309,0.09795 3.59156,0.289773 a 29.956792,29.956792 0 0 1 3.81602,0.836668 M 70.138915,94.925809 h 5.46487 v 18.296501 h 9.591071 v 4.4323 H 70.138915 V 94.921727 m 58.852445,14.011133 -5.73832,-8.32587 h 5.37917 l 3.2528,5.05265 3.29361,-5.05673 h 5.37508 l -5.73015,8.2973 6.01584,8.7544 h -5.37916 l -3.57522,-5.38733 -3.53441,5.38733 h -5.37916 l 6.01584,-8.72175 M 89.447579,92.085219 c 0.869318,0 1.612115,0.338748 2.224311,1.020326 a 3.3752408,3.3752408 0 0 1 0.922376,2.383484 c 0,0.979514 -0.306098,1.795774 -0.922376,2.452865 a 2.8936467,2.8936467 0 0 1 -4.391486,-0.03265 3.562981,3.562981 0 0 1 -0.918293,-2.420215 c 0,-0.910131 0.306098,-1.705986 0.918293,-2.387565 a 2.8936467,2.8936467 0 0 1 2.163093,-1.020327 m 2.261044,25.573473 h -4.632283 v -12.74592 h -3.269127 v -4.29763 h 7.90141 v 17.04355"
       id="path11" />
  </g>
</svg>
