<svg width="200" height="200" viewBox="0 0 666.67 666.67" xml:space="preserve" style="clip-rule:evenodd;fill-rule:evenodd;stroke-linejoin:round;stroke-miterlimit:1.41421" xmlns="http://www.w3.org/2000/svg"><path d="M210.35 607.22c-.34-2.1-.84-4.3-1.49-6.6-1.54-5.44-4.92-10.07-9.5-13.85-1.2-1-2.5-1.94-3.88-2.82-5.3-3.38-11.7-5.85-18.53-7.32a72.21 72.21 0 0 0-14.13-1.6c-34.67-.77-56.24.4-90.38-.9l.02.06a117.36 117.36 0 0 0 38.8 20.57c.96.3 1.91.58 2.87.85 5.6.6 10.63 1.2 14.65 3.07 1.01.46 1.96 1 2.83 1.64 2.87 2.1 6.06 6.12 8.15 8.93 4.5 6 3.56 10.93 8.88 13.9.56.3 1.19.6 1.9.86 1.69.64 4.11 1.49 5.22-.91.16-.34.28-.77.39-1.27-.45-1.43-1.99-2.67-2.9-3.29a16.98 16.98 0 0 1-3.48-2.93c-2.19-2.25-2.33-6.06-3.87-8.71 1.93-.82 12.15-2.19 14.29-1.9 4.57.21 8.18.57 10.94 3.4 1.08.86 1.67 1.6 2.65 2.34l.2.15c4.33 3.16 8.33 4.28 11.89 5.37.93.28 1.82.55 2.69.87 1.33.48 2.58 1.05 3.75 1.81 1.39.92 3.75 3.34 3.85 5.42-3.5-1.12-1.19.3-6.34-.1-2.52-.29-5.09-.46-7.67-.64-4.02-.28-8.04-.58-11.8-1.3a34.53 34.53 0 0 1-3.28-.75l-.02.55c-.1 3.94 2.68 5.9-3.68 13.4-.05.08-.13.16-.2.25-1.69 1.97-10.45 5.71-13.18 6.43-11.64 2.33-20.5-5.24-34.52-1.42-4.93 1.83-8.55 9.82-10.81 15.8-3.02 7.93-5.4 17.57-8.14 27.06a116.38 116.38 0 0 0 46.75-17.87 15.22 15.22 0 0 1 3-3.11c.28-.22.57-.43.87-.6a10 10 0 0 1 2.13-.5c10.86-1.93 58.5-8.39 61.6-42.97.31-3.5.17-7.29-.52-11.37zM103.42 625.8c-6.38-1.93-8-2.25-12.06-5.39.07.33.17.7.3 1.08a115.51 115.51 0 0 0 35.15 12.85c-3.9-9.06-8.5-7.45-23.4-8.54zm29.52-4.1c-2.78-6.74-10.32-10.58-16.82-12.47-8.72-3.12-15.06-.12-33.46-8.8l.44.69a116.12 116.12 0 0 0 34.01 16.93c4.17.48 8.18 1.18 11.86 2.95 1.64.78 3.21 1.77 4.7 3.04a14.5 14.5 0 0 0-.73-2.34z" style="fill:url(#a);fill-rule:nonzero" transform="translate(-132.98 -1880.868) scale(3.4252)"/><path d="M114.13 595.6a116.16 116.16 0 0 1-41.67-21.41c2.14 6.6 11.64 13.57 18.08 16.32 8.22 3.5 16.38 4.3 23.59 5.1z" style="fill:#90d4d1" transform="translate(-171.345 -1900.046) scale(3.4252)"/><path d="M94.25 608.25a115.05 115.05 0 0 1-11.15-7.12c10 15.82 22.57 15.58 34.01 16.93a116.12 116.12 0 0 1-22.86-9.8zm32.56 26.1a115.51 115.51 0 0 1-35.14-12.85c1.38 3.98 6.35 10.26 12.94 11.66 2.86 1.03 2.1.76 6.97.62 7.14-.37 10.55-.6 15.6 1.46a63 63 0 0 0-.37-.9zm16.46 31.41-.24.32a117.3 117.3 0 0 1-50.59 30.4c1.5-4.14 2.83-8.47 4.08-12.84a116.38 116.38 0 0 0 46.75-17.87z" style="fill:#90d4d1" transform="translate(-132.98 -1880.868) scale(3.4252)"/><path d="M143.03 666.08c-6.04 8.29-9.12 24.12-12.66 33.28-5.14 13.34-12.3 22.95-27.95 24.31-3.93.35-27.59 1.24-30.11-.03.15-1.35 4.1-2.96 5.12-3.75 6.85-4.85 11.41-13.5 15.01-23.41a117.3 117.3 0 0 0 50.6-30.4z" style="fill:#14a0c4" transform="translate(-132.98 -1880.868) scale(3.4252)"/><defs><linearGradient id="a" x1="0" y1="0" x2="1" y2="0" gradientUnits="userSpaceOnUse" gradientTransform="translate(72.44 628.88) scale(138.584)"><stop offset="0%" style="stop-color:#54c4c6;stop-opacity:1"/><stop offset="100%" style="stop-color:#12bad5;stop-opacity:1"/></linearGradient></defs></svg>