<svg width="200" height="200" xmlns:xlink="http://www.w3.org/1999/xlink" xmlns="http://www.w3.org/2000/svg"><defs><linearGradient id="b"><stop style="stop-color:#d90893;stop-opacity:1" offset="0"/><stop style="stop-color:#908930;stop-opacity:0" offset="1"/></linearGradient><linearGradient id="a"><stop style="stop-color:#0a49f4;stop-opacity:1" offset="0"/><stop style="stop-color:#c60bf5;stop-opacity:1" offset="1"/></linearGradient><linearGradient xlink:href="#a" id="c" x1="200.641" y1="-54.75" x2="103.729" y2="-155.778" gradientUnits="userSpaceOnUse" gradientTransform="translate(-9.855 3.979) scale(.11719)"/><linearGradient xlink:href="#b" id="d" gradientUnits="userSpaceOnUse" x1="95.123" y1="-53.627" x2="206.628" y2="-147.92" gradientTransform="translate(-9.855 3.979) scale(.11719)"/><clipPath clipPathUnits="userSpaceOnUse" id="f"><path style="font-variation-settings:normal;opacity:1;fill:#ff2a2a;fill-opacity:1;stroke:none;stroke-width:8.46664;stroke-linecap:round;stroke-linejoin:round;stroke-miterlimit:4;stroke-dasharray:8.46664,8.46664;stroke-dashoffset:0;stroke-opacity:1;stop-color:#000;stop-opacity:1" d="M-166.118 31.799c-.087.729-.078 1.407-.1 2.154v8.467a8.467 8.467 0 0 1-8.467 8.467h-2.539a4.224 4.224 0 0 0-4.233 4.233 4.224 4.224 0 0 0 4.233 4.233h36.407c14.028 0 25.4-11.372 25.4-25.4 0-14.028-11.372-25.4-24.981-25.397-13.61.002-24.6 10.1-25.72 23.243z"/></clipPath><clipPath clipPathUnits="userSpaceOnUse" id="g"><path style="fill:red;fill-opacity:1;stroke-width:8.46667;stroke-linecap:round;stroke-linejoin:round;stroke-dasharray:8.46667,8.46667;stop-color:#000" d="M-185.7 114.387c0 25.718 20.848 46.566 46.566 46.566h67.735a4.224 4.224 0 0 0 4.233-4.233 4.224 4.224 0 0 0-4.233-4.233h-8.467c-7.014 0-12.7-5.686-12.7-12.7l-.003-25.4c0-25.718-20.848-46.567-46.566-46.567-25.717 0-46.566 20.849-46.566 46.567z"/></clipPath><clipPath clipPathUnits="userSpaceOnUse" id="e"><rect style="font-variation-settings:normal;vector-effect:none;fill:red;fill-opacity:1;stroke:none;stroke-width:.329999;stroke-linecap:round;stroke-linejoin:round;stroke-miterlimit:4;stroke-dasharray:none;stroke-dashoffset:0;stroke-opacity:1;-inkscape-stroke:none;stop-color:#000" width="135.467" height="135.467" x="84.1" y="-169.42" ry="23.479" transform="scale(-1)"/></clipPath></defs><g transform="translate(20 20) scale(10.07874)" style="stroke-width:.264584"><rect style="font-variation-settings:normal;vector-effect:none;fill:url(#c);fill-opacity:1;stroke:none;stroke-width:.0873123;stroke-linecap:round;stroke-linejoin:round;stroke-miterlimit:4;stroke-dasharray:none;stroke-dashoffset:0;stroke-opacity:1;-inkscape-stroke:none;stop-color:#000" width="15.875" height="15.875" y="-15.875" ry="2.751" transform="scale(1 -1)"/><rect style="font-variation-settings:normal;vector-effect:none;fill:url(#d);fill-opacity:1;stroke:none;stroke-width:.0873123;stroke-linecap:round;stroke-linejoin:round;stroke-miterlimit:4;stroke-dasharray:none;stroke-dashoffset:0;stroke-opacity:1;-inkscape-stroke:none;stop-color:#000" width="15.875" height="15.875" y="-15.875" ry="2.751" transform="scale(1 -1)"/><g clip-path="url(#e)" transform="matrix(-.11719 0 0 .11719 -9.855 -3.979)" style="stroke-width:2.25778"><g style="stroke-width:2.25778"><path style="font-variation-settings:normal;fill:#d6f7ff;fill-opacity:1;stroke:none;stroke-width:19.1158;stroke-linecap:round;stroke-linejoin:round;stroke-miterlimit:4;stroke-dasharray:19.1158,19.1158;stroke-dashoffset:0;stroke-opacity:1;stop-color:#000" d="M-166.118 31.799c-.087.729-.078 1.407-.1 2.154v8.467a8.467 8.467 0 0 1-8.467 8.467h-2.539a4.224 4.224 0 0 0-4.233 4.233 4.224 4.224 0 0 0 4.233 4.233h36.407c14.028 0 25.4-11.372 25.4-25.4 0-14.028-11.372-25.4-24.981-25.397-13.61.002-24.6 10.1-25.72 23.243z" transform="translate(-4.253)"/><path clip-path="url(#f)" style="fill:#fff;stroke-width:19.1158;stroke-linecap:round;stroke-linejoin:round;stroke-dasharray:19.1158,19.1158;stop-color:#000" d="M-187.239 42.429h20.731a4.224 4.224 0 0 1 4.233 4.233 4.224 4.224 0 0 1-4.233 4.234h-20.73a4.224 4.224 0 0 1-4.234-4.234 4.224 4.224 0 0 1 4.233-4.233z" transform="translate(-4.253)"/></g><path style="fill:#d6f7ff;fill-opacity:1;stroke-width:19.1158;stroke-linecap:round;stroke-linejoin:round;stroke-dasharray:19.1158,19.1158;stop-color:#000" d="M-194.177 114.387c0 25.718 20.848 46.566 46.566 46.566h67.735a4.224 4.224 0 0 0 4.234-4.233 4.224 4.224 0 0 0-4.234-4.233h-8.466c-7.014 0-12.7-5.686-12.7-12.7l-.003-25.4c0-25.718-20.849-46.567-46.567-46.567-25.717 0-46.566 20.849-46.566 46.567z"/><path style="font-variation-settings:normal;fill:#3e3752;fill-opacity:1;stroke:none;stroke-width:19.1158;stroke-linecap:round;stroke-linejoin:round;stroke-miterlimit:4;stroke-dasharray:19.1158,19.1158;stroke-dashoffset:0;stroke-opacity:1;stop-color:#000" d="M-139.264 127.087a4.092 4.092 0 0 0-4.101 4.1v.265a4.092 4.092 0 0 0 4.101 4.101h8.731a4.092 4.092 0 0 0 4.101-4.1v-.265a4.092 4.092 0 0 0-4.1-4.101zm19.05 0a4.092 4.092 0 0 0-4.101 4.1v.265a4.092 4.092 0 0 0 4.1 4.101h8.732a4.092 4.092 0 0 0 4.101-4.1v-.265a4.092 4.092 0 0 0-4.1-4.101zm19.05 0a4.092 4.092 0 0 0-4.102 4.1v.265a4.092 4.092 0 0 0 4.101 4.101h8.732a4.092 4.092 0 0 0 4.1-4.1v-.265a4.092 4.092 0 0 0-4.1-4.101zm19.05 0a4.092 4.092 0 0 0-4.102 4.1v.265a4.092 4.092 0 0 0 4.101 4.101h8.732a4.092 4.092 0 0 0 4.1-4.1v-.265a4.092 4.092 0 0 0-4.1-4.101zm-35.595 16.933c-2.487 0-4.49 1.888-4.49 4.233 0 2.346 2.003 4.234 4.49 4.234h16.42c2.487 0 4.49-1.888 4.49-4.234 0-2.345-2.003-4.233-4.49-4.233zm27.517 0c-2.488 0-4.49 1.888-4.49 4.233 0 2.346 2.002 4.234 4.49 4.234h16.42c2.487 0 4.49-1.888 4.49-4.234 0-2.345-2.003-4.233-4.49-4.233z" clip-path="url(#g)" transform="translate(-8.477)"/></g></g></svg>