<svg width="200" height="200" xmlns="http://www.w3.org/2000/svg"><path style="fill:#0d4781" d="M128 13 34 55v63c0 58 40 112 94 125 54-13 94-67 94-125V55Z" transform="matrix(.625 0 0 .625 20 20)"/><path style="fill:#1976d2" d="M128 0 23 47v69c0 65 45 125 105 140 60-15 105-75 105-140V47Zm0 128h82c-7 48-39 91-82 104V128H47V62l81-36Z" transform="matrix(.625 0 0 .625 20 20)"/><path style="fill:#fff" d="M128 48a80 80 0 1 0 0 160 80 80 0 0 0 0-160zm55 48h-23l-11-28a64 64 0 0 1 34 28zm-55-31c7 9 12 20 15 31h-30c3-11 8-22 15-32zm-62 79a66 66 0 0 1 0-32h27a142 142 0 0 0 0 32zm7 16h23a126 126 0 0 0 11 28 64 64 0 0 1-34-28Zm23-64H73a64 64 0 0 1 34-28c-5 9-8 18-11 28zm32 96a112 112 0 0 1-15-32h30c-3 11-8 22-15 32zm19-48h-38a122 122 0 0 1 0-32h38a120 120 0 0 1 0 32zm2 44 11-28h23a64 64 0 0 1-34 28zm14-44a122 122 0 0 0 0-32h27a66 66 0 0 1 0 32z" transform="matrix(.625 0 0 .625 20 20)"/></svg>