<svg width="200" height="200" xmlns="http://www.w3.org/2000/svg"><path style="fill:#0d4781" d="M128 12.8 33.7 54.7v62.8C33.7 175.7 74 230 128 243.2c54-13.2 94.3-67.5 94.3-125.7V54.7Z" transform="matrix(.625 0 0 .625 20 20)"/><path style="fill:#1976d2" d="M128 0 23.3 46.5v69.9c0 64.5 44.7 125 104.7 139.6 60-14.7 104.7-75 104.7-139.6V46.5Zm0 127.9h81.5c-6.2 48-38.2 90.6-81.5 104V128H46.5V61.7L128 25.5Z" transform="matrix(.625 0 0 .625 20 20)"/><path style="fill:#fff" d="M128 48.2a79.75 79.75 0 1 0 0 159.5 79.75 79.75 0 0 0 0-159.5zm55.2 47.9h-23.5c-2.6-10-6.2-19.6-11-28.4a64 64 0 0 1 34.5 28.4zM128 64.5c6.6 9.6 11.8 20.2 15.2 31.6h-30.4c3.4-11.4 8.6-22 15.2-31.6zM66.2 144a65.8 65.8 0 0 1 0-32h27c-.6 5.3-1.1 10.6-1.1 16s.5 10.7 1.1 16zm6.6 16h23.5a126 126 0 0 0 11 28.3A63.7 63.7 0 0 1 72.8 160Zm23.5-64H72.8a63.7 63.7 0 0 1 34.5-28.3c-4.8 8.8-8.4 18.4-11 28.4zm31.7 95.6a112.4 112.4 0 0 1-15.2-31.6h30.4c-3.4 11.4-8.6 22-15.2 31.6zm18.7-47.6h-37.4c-.7-5.3-1.2-10.6-1.2-16s.5-10.8 1.2-16h37.4c.7 5.2 1.2 10.6 1.2 16s-.5 10.7-1.2 16zm2 44.3c4.8-8.8 8.4-18.4 11-28.4h23.5a64 64 0 0 1-34.5 28.4zm14-44.3a121.8 121.8 0 0 0 .1-32h27a65.8 65.8 0 0 1 0 32z" transform="matrix(.625 0 0 .625 20 20)"/></svg>