<?xml version="1.0" encoding="UTF-8" standalone="no"?>
<svg
   fill="none"
   height="200"
   width="200"
   version="1.1"
   id="svg5"
   sodipodi:docname="prose.svg"
   inkscape:version="1.4.2 (ebf0e940d0, 2025-05-08)"
   xmlns:inkscape="http://www.inkscape.org/namespaces/inkscape"
   xmlns:sodipodi="http://sodipodi.sourceforge.net/DTD/sodipodi-0.dtd"
   xmlns="http://www.w3.org/2000/svg"
   xmlns:svg="http://www.w3.org/2000/svg">
  <defs
     id="defs5" />
  <sodipodi:namedview
     id="namedview5"
     pagecolor="#ffffff"
     bordercolor="#666666"
     borderopacity="1.0"
     inkscape:showpageshadow="2"
     inkscape:pageopacity="0.0"
     inkscape:pagecheckerboard="0"
     inkscape:deskcolor="#d1d1d1"
     inkscape:zoom="4.8117647"
     inkscape:cx="20.886308"
     inkscape:cy="86.454768"
     inkscape:window-width="1916"
     inkscape:window-height="1032"
     inkscape:window-x="0"
     inkscape:window-y="22"
     inkscape:window-maximized="1"
     inkscape:current-layer="svg5" />
  <radialGradient
     id="a"
     cx="0"
     cy="0"
     gradientTransform="matrix(-77.495178,-112.50361,112.50361,-77.495178,326.87133,197.59686)"
     gradientUnits="userSpaceOnUse"
     r="1">
    <stop
       offset="0"
       stop-color="#1e2d86"
       id="stop1" />
    <stop
       offset="1"
       stop-color="#4b5cc5"
       id="stop2" />
  </radialGradient>
  <g
     clip-path="url(#f)"
     transform="matrix(1.8823529,0,0,1.8823529,-435.5294,-162.58823)"
     id="g5"
     inkscape:label="logo">
    <rect
       fill="url(#a)"
       height="85"
       rx="20"
       width="85"
       x="242"
       y="97"
       style="fill:url(#a)"
       id="rect2"
       inkscape:label="background" />
    <path
       clip-rule="evenodd"
       d="m 266.89,124.87 21.69,-9.03 c 0.33,-0.14 0.7,-0.1 0.96,0.03 0.27,0.14 0.27,0.27 0.27,0.28 v 17.58 c -0.03,0.57 -0.44,1.25 -1.37,1.63 l -9.26,3.86 -6.64,2.76 -4.57,1.9 v 0.03 a 5.21,5.21 0 0 0 -1.97,1.76 6.72,6.72 0 0 1 -0.49,-2.49 v -16.6 c 0,-0.6 0.41,-1.31 1.37,-1.7 z m 25.96,-8.72 v 3.51 c 0.97,-0.13 2.06,0.08 2.94,0.81 l 5.62,4.68 1.17,0.97 a 10.43,10.43 0 0 1 3.94,8 v 16.61 a 4.98,4.98 0 0 1 -3.25,4.5 v 0.01 l -21.69,9.03 c -1.2,0.5 -2.5,0.39 -3.52,-0.14 a 3.37,3.37 0 0 1 -1.92,-2.98 v -3.51 a 3.78,3.78 0 0 1 -2.94,-0.81 l -6.2,-5.17 -0.1,-0.09 -0.48,-0.4 a 10.43,10.43 0 0 1 -3.94,-7.98 v -16.62 a 4.97,4.97 0 0 1 3.24,-4.5 l 21.7,-9.04 a 4.2,4.2 0 0 1 3.51,0.14 3.37,3.37 0 0 1 1.92,2.98 z m 8.16,17.24 0.02,0.03 -20.48,8.52 c -0.96,0.4 -1.37,1.12 -1.37,1.7 v 17.51 c 0,0.01 0,0.15 0.27,0.28 0.26,0.14 0.63,0.17 0.97,0.04 l 21.69,-9.04 c 0.96,-0.4 1.37,-1.12 1.37,-1.7 v -16.61 c 0,-0.85 -0.16,-1.69 -0.49,-2.5 a 5.2,5.2 0 0 1 -1.97,1.77 z m -8.16,-10.54 v 10.68 l 6.54,-2.73 c 0.82,-0.34 1.19,-0.9 1.28,-1.36 0.08,-0.45 -0.04,-0.99 -0.62,-1.47 l -6.2,-5.16 a 0.81,0.81 0 0 0 -0.76,-0.1 0.63,0.63 0 0 0 -0.24,0.14 z m -23.33,26.96 -0.65,-0.54 c -0.52,-0.47 -0.63,-0.98 -0.55,-1.4 0.1,-0.47 0.46,-1.03 1.28,-1.37 l 4.12,-1.72 2.42,-1 v 10.67 c -0.03,0.03 -0.1,0.1 -0.24,0.14 -0.3,0.1 -0.59,0.04 -0.76,-0.1 z"
       fill="#ffffff"
       fill-rule="evenodd"
       id="path2"
       inkscape:label="outline"
       style="display:inline" />
  </g>
</svg>
