<?xml version="1.0" encoding="UTF-8" standalone="no"?>
<svg
   version="1.1"
   viewBox="0 0 200 200"
   id="svg11"
   sodipodi:docname="psi.svg"
   width="200"
   height="200"
   inkscape:version="1.4.2 (ebf0e940d0, 2025-05-08)"
   xmlns:inkscape="http://www.inkscape.org/namespaces/inkscape"
   xmlns:sodipodi="http://sodipodi.sourceforge.net/DTD/sodipodi-0.dtd"
   xmlns:xlink="http://www.w3.org/1999/xlink"
   xmlns="http://www.w3.org/2000/svg"
   xmlns:svg="http://www.w3.org/2000/svg"
   xmlns:rdf="http://www.w3.org/1999/02/22-rdf-syntax-ns#"
   xmlns:cc="http://creativecommons.org/ns#"
   xmlns:dc="http://purl.org/dc/elements/1.1/">
  <sodipodi:namedview
     id="namedview11"
     pagecolor="#ffffff"
     bordercolor="#666666"
     borderopacity="1.0"
     inkscape:showpageshadow="2"
     inkscape:pageopacity="0.0"
     inkscape:pagecheckerboard="0"
     inkscape:deskcolor="#d1d1d1"
     inkscape:zoom="3.2078431"
     inkscape:cx="109.57518"
     inkscape:cy="76.06357"
     inkscape:window-width="1916"
     inkscape:window-height="1032"
     inkscape:window-x="0"
     inkscape:window-y="22"
     inkscape:window-maximized="1"
     inkscape:current-layer="svg11" />
  <defs
     id="defs9">
    <linearGradient
       id="a">
      <stop
         stop-color="#e8e8ff"
         offset="0"
         id="stop1" />
      <stop
         stop-color="#5b8de8"
         offset="1"
         id="stop2" />
    </linearGradient>
    <filter
       id="b"
       x="-0.18133334"
       y="-0.1400352"
       width="1.4625141"
       height="1.4269782"
       color-interpolation-filters="sRGB">
      <feGaussianBlur
         in="SourceAlpha"
         result="blur"
         stdDeviation="5.4"
         id="feGaussianBlur2" />
      <feColorMatrix
         result="bluralpha"
         values="1 0 0 0 0 0 1 0 0 0 0 0 1 0 0 0 0 0 0.5 0 "
         id="feColorMatrix2" />
      <feOffset
         dx="8"
         dy="16.4"
         in="bluralpha"
         result="offsetBlur"
         id="feOffset2" />
      <feMerge
         id="feMerge3">
        <feMergeNode
           in="offsetBlur"
           id="feMergeNode2" />
        <feMergeNode
           in="SourceGraphic"
           id="feMergeNode3" />
      </feMerge>
    </filter>
    <linearGradient
       id="g"
       x1="17.483"
       x2="12.133"
       y1="736.34003"
       y2="331.85999"
       gradientTransform="matrix(1.734,0,-0.3619125,1.25,296.31887,228.97988)"
       gradientUnits="userSpaceOnUse"
       xlink:href="#a" />
    <linearGradient
       id="f"
       x1="95.828003"
       x2="121.28"
       y1="223.67999"
       y2="275.10001"
       gradientUnits="userSpaceOnUse"
       xlink:href="#a" />
    <linearGradient
       id="e"
       x1="161.91"
       x2="54.148998"
       y1="226.64999"
       y2="136.92999"
       gradientUnits="userSpaceOnUse">
      <stop
         stop-color="#7979ff"
         offset="0"
         id="stop3" />
      <stop
         stop-color="#00f"
         offset="1"
         id="stop4" />
    </linearGradient>
    <linearGradient
       id="d"
       x1="11.28"
       x2="6.9088998"
       y1="124.5"
       y2="630.62"
       gradientUnits="userSpaceOnUse">
      <stop
         stop-color="#f0f0ff"
         offset="0"
         id="stop5" />
      <stop
         stop-color="#92b8f2"
         offset=".57283"
         id="stop6" />
      <stop
         stop-color="#ededfd"
         offset="1"
         id="stop7" />
    </linearGradient>
    <linearGradient
       id="c"
       x1="-170.28999"
       x2="-170.32001"
       y1="630.62"
       y2="263.07999"
       gradientUnits="userSpaceOnUse">
      <stop
         stop-color="#7979ff"
         offset="0"
         id="stop8" />
      <stop
         stop-color="#00f"
         offset="1"
         id="stop9" />
    </linearGradient>
  </defs>
  <metadata
     id="metadata9">
    <rdf:RDF>
      <cc:Work
         rdf:about="">
        <dc:format>image/svg+xml</dc:format>
        <dc:type
           rdf:resource="http://purl.org/dc/dcmitype/StillImage" />
      </cc:Work>
    </rdf:RDF>
  </metadata>
  <g
     transform="matrix(0.2394297,0,0,0.2394297,63.678616,-87.014717)"
     id="g11">
    <path
       transform="matrix(1.734,0,-0.3619125,1.25,296.31887,228.97989)"
       d="M 60.018,263.08 H 79.661 C 76.0176,249.511 67.955,237.142 60.018,236.294 Z m 32.857,0 c -3.3461,-15.72 -13.9,-40.041 -32.857,-45.357 v -21.429 c 28.032,4.4826 46.78,45.004 50,66.786 z M 60.018,176.651 v -22.857 c 41.543,6.6291 77.702,66.607 82.5,109.29 h -17.413 c -3.7249,-32.893 -33.393,-81.82 -65.087,-86.429 z"
       fill="url(#f)"
       filter="url(#b)"
       stroke="url(#e)"
       stroke-width="4"
       id="path9"
       style="fill:url(#f);stroke:url(#e)" />
    <path
       transform="matrix(1.734,0,-0.3619125,1.25,296.31887,228.97989)"
       d="m -92.026,364.95 c 1.5152,-27.779 -14.296,-12.709 -26.923,-4.1224 l -21.911,-50.523 c 17.295,-14.708 91.77,-49.395 94.801,45.055 0.45904,69.359 -17.92,146.22 33.706,163.64 v -300.52 l -3.778,-30.81 h 51.926 l -2.0717,30.808 0.4584,300.46 c 73.376,-34.522 40.231,-166.76 31.282,-223.47 h 48.805 c 35.209,159.92 19.099,255.65 -80.592,286.04 l 6.566,49.116 -55.866,2e-5 3.5228,-49.245 c -86.721,-25.853 -87.885,-139.6 -79.925,-216.43 z"
       fill="url(#d)"
       filter="url(#b)"
       stroke="url(#c)"
       stroke-linecap="square"
       stroke-width="6"
       id="path10"
       style="fill:url(#d);stroke:url(#c)" />
    <path
       d="m 375.19387,694.64239 c 0,0 -3.134,213.275 -238.725,250.65 l -10.4565,62.00251 -69.197499,0.4464 21.9525,-62.44872 c -166.737501,-15.4675 -79.04625041,-233 -79.04625041,-233 L 63.661121,720.3142 c -12.6275,38.5125 -72.5462505,149.21251 30.2875,171.31251 L 137.02362,725.2392 c 39.89625,1.00152 36.72125,1.11607 69.4025,-2.67862 l -54.42,169.0625 c 0,0 127.575,-13.89 148.475,-179.3375 36.48875,-6.25 74.7225,-17.6475 74.7225,-17.6475 z"
       fill="url(#g)"
       id="path11"
       style="fill:url(#g);stroke-width:1.25" />
  </g>
</svg>
