<svg width="200" height="200" xml:space="preserve" xmlns="http://www.w3.org/2000/svg"><path style="display:inline;fill:#333;fill-opacity:1" d="M744.5 344.3c-31.4-3.8-56-16.1-70.7-35.4a100.7 100.7 0 0 1-17.4-75.4 91 91 0 0 1 18-45c11-14.5 30-27 48-31.5a133 133 0 0 1 57.5 0 69 69 0 0 1 46.6 38.5c7.6 16 10.5 34.6 8.5 56.3-.6 6.8-1.4 13-1.7 13.7-.4 1.3-8.4 1.5-56 1.5-38.3 0-55.3.3-55.3 1a44 44 0 0 0 9.6 16.6c9 9 21 12.7 41.4 12.7a128 128 0 0 0 38-5.3c3.5-1 6.6-1.7 6.9-1.5.5.6 14.1 42.8 13.8 43l-9.2 2.7a202.3 202.3 0 0 1-60 8.6c-8.3 0-16.4-.3-18-.5zm30-119.5c-1.2-9.9-5.9-17.4-12.8-21a40.8 40.8 0 0 0-23.2-1.8c-8 2.7-16 13.4-18 24.3l-.7 3.7h55.5zm192.6 118.7c-15.8-2.1-28-5.6-40.6-11.5-34-16-55.3-43-65.4-82.5A246 246 0 0 1 857 213c0-4.2.7-13.2 1.5-20 6.5-54 36-92.2 84-108.7a169 169 0 0 1 99.3.1c37.3 12.8 67 45.7 76.5 84.6 3.8 15.7 4.7 23.5 4.7 40.7 0 33.7-7.7 59.8-24.7 83.5-19.4 27-47.8 43.8-84.3 49.9a222 222 0 0 1-46.9.4zm40.9-55.7c22.7-5.6 40.4-25.6 46.3-52.3a109 109 0 0 0-5-61.7 67.6 67.6 0 0 0-41.3-39.1c-9.4-3.2-30.6-3-39.9.2-7.4 2.6-16 7.7-21.5 13a83.5 83.5 0 0 0-19.4 34.6 128.8 128.8 0 0 0-.6 51.5c6.3 26.7 24 46.9 46.4 53 10 2.8 25.5 3.1 35 .8zm210 56.6c-10.6-1.2-30-5-40.8-8-15.2-4.2-33.4-11.2-33-12.7.5-2 17-51.2 17.3-51.5.1-.1 4 1.1 8.6 2.8a270 270 0 0 0 39.4 10.2 245 245 0 0 0 27.5 1.3c16.3 0 20.4-.3 25-1.8 11-3.7 15.6-9.7 14.7-19-1-10.7-10.2-16.5-40.2-25.3l-27.5-8a135.5 135.5 0 0 1-37-18.6c-20.1-15-27.6-39.7-21.3-69.8 7-33.3 38.8-58.8 81.8-65.5a198 198 0 0 1 104.3 13c.2.2-13.9 41.4-16.7 48.7l-1 2.7-4.8-1.5a220.5 220.5 0 0 0-57.7-8.4c-28.2.1-44.5 9.9-40.5 24.3 2.7 9.7 12.8 15.2 40.9 22.2 38 9.5 55 17 69.5 31 11.7 11.5 17.1 24.8 18.2 45 1.8 35-14 62.3-44.5 77.4-16.9 8.4-30.6 11.1-58.2 11.6-11.3.2-22 .1-24-.1zm-880.5-1a60.9 60.9 0 0 1-52.6-50.9c-1.7-8.2-1.9-14.5-1.9-72.3V157h64v52.4c0 53.7.4 59.9 4 66.9 6.9 13.1 25.1 15.4 42.4 5.3l4.6-2.7V157h65v185h-46.6l-4.9-11.8a376 376 0 0 0-5-12c-.2-.2-3.8 2.6-8 6.2a89.3 89.3 0 0 1-32.5 17c-6.8 1.6-23.4 2.8-28.5 2zM55 210.9V80l59.3.4c62.6.5 63.7.6 82 5.6 25 6.8 46 23.9 55.2 44.6 9.7 21.9 9.3 52.9-1.1 76.3-9.3 21-31 40-56.2 49.2-15.1 5.5-26.4 7.2-51.7 7.9l-23 .6-.3 38.8-.2 38.7H55Zm109.4-4.4a33 33 0 0 0 19.4-11 32 32 0 0 0 7.5-21.9c0-9.6-2.3-16.3-8-22.6-10-11.2-19.1-14-45.5-14H119v71h19.3c13 0 21.4-.5 26-1.5zm340.6 43V157h49.8l.5 2.3 2.7 13.2c1.1 6 2.3 11.6 2.5 12.3.3.8 2.5-1 5.4-4.6 9-10.7 23-19.6 36.4-22.7a74.1 74.1 0 0 1 43.5 4.4c3.9 2 4 2.2 3.2 5.3a15976.6 15976.6 0 0 0-13.5 50.5c-.2.8-2.2.4-6.3-1.3-7.7-3-20.9-4.6-29.8-3.3-8.2 1-18.8 6-25.7 12l-4.7 4V342h-64z" transform="translate(13.2 132.6) scale(.1239)"/><path fill="#030104" d="M175 114.9H25V20h150ZM42.6 97.2h114.8V37.6H42.6Z" style="stroke-width:2.52751" transform="translate(-6.7 3.4) scale(1.06667)"/></svg>