<svg width="200" height="200" viewBox="0 0 44.444 44.444" xmlns:xlink="http://www.w3.org/1999/xlink" xmlns="http://www.w3.org/2000/svg"><defs><linearGradient id="c"><stop style="stop-color:#000;stop-opacity:1" offset="0"/><stop style="stop-color:#000;stop-opacity:0" offset="1"/></linearGradient><linearGradient id="a"><stop style="stop-color:#4fa538;stop-opacity:1" offset="0"/><stop style="stop-color:#c9d05c;stop-opacity:1" offset="1"/></linearGradient><linearGradient id="b"><stop offset="0" style="stop-color:#fff8ac;stop-opacity:1"/><stop offset="1" style="stop-color:#f6bf3a;stop-opacity:1"/></linearGradient><linearGradient xlink:href="#a" id="d" x1="421.571" y1="543.798" x2="406.571" y2="497.798" gradientUnits="userSpaceOnUse"/><linearGradient xlink:href="#b" id="e" x1="416.571" y1="507.798" x2="421.566" y2="518.592" gradientUnits="userSpaceOnUse"/><linearGradient xlink:href="#c" id="f" x1="9" y1="14" x2="30" y2="35" gradientUnits="userSpaceOnUse"/></defs><g transform="matrix(.88886 0 0 .88889 -340.939 -443.378)"><rect style="fill:url(#d);fill-opacity:1" width="40" height="40" x="388.57" y="503.8" ry="3" rx="3"/><path style="opacity:.15;fill:#000;fill-opacity:1" d="M388.571 539.798v1c0 1.662 1.338 3 3 3h34c1.662 0 3-1.338 3-3v-1c0 1.662-1.338 3-3 3h-34c-1.662 0-3-1.338-3-3z"/><path style="opacity:.1;fill:#000;fill-opacity:1" d="m419.571 517.227 3.708 2.571-.98-4.714 3.272-3.286h-4.314l-1.686-4-1.686 4h-4.314l3.273 3.286-.98 4.714z"/><path d="m419.571 516.227 3.708 2.571-.98-4.714 3.272-3.286h-4.314l-1.686-4-1.686 4h-4.314l3.273 3.286-.98 4.714z" style="opacity:1;fill:url(#e);fill-opacity:1"/><path style="opacity:.25;fill:url(#f);fill-opacity:1;stroke:none;stroke-width:2;stroke-linecap:round;stroke-linejoin:round;stroke-miterlimit:4;stroke-dasharray:none;stroke-opacity:1" d="m18.404 13.852-8.418 3.103 6.916 6.916-6.865 3.16 4.777 4.778-4.123 4.125L18.758 44H41c1.662 0 3-1.338 3-3v-7.098L28.037 17.94Z" transform="translate(384.571 499.798)"/><g transform="translate(382.571 499.798)"><circle r="3" cy="34" cx="15" style="opacity:1;fill:#f9f9f9;fill-opacity:1;stroke:none"/><path d="M12 22v5h2.5a7.5 7.5 0 0 1 7.5 7.5V37h5v-2.5C27 27.596 21.404 22 14.5 22" style="opacity:1;fill:#f9f9f9;fill-opacity:1;stroke:none"/><path d="M12 12v5h3a17 17 0 0 1 17 17v3h5v-3a22 22 0 0 0-22-22Z" style="opacity:1;fill:#f9f9f9;fill-opacity:1;stroke:none"/></g></g></svg>