<svg width="320" height="320" xmlns="http://www.w3.org/2000/svg"><path style="fill:#000" d="M153 298c-6-2-107-58-110-61-2-1-5-4-6-7l-1-70 1-71 6-6c1-2 27-16 57-33l54-30h12l54 30c30 17 56 31 57 33l6 6 1 71-1 70c-1 3-4 6-6 7a2234 2234 0 0 1-116 63l-8-2zm21-45c8-3 14-11 16-19 3-8 3-11 1-18-3-9-8-16-16-20l-5-2v-33l14-7c13-7 13-7 15-6 9 5 12 6 21 6 11 0 16-2 23-8 9-9 12-24 7-35-3-7-10-14-16-17-7-4-20-4-28 0-11 6-17 15-18 28l-1 6-13 8-14 7-14-7-13-8-1-6c-1-13-7-22-18-28-8-4-21-4-28 0-6 3-13 10-16 17-5 11-2 26 7 35 7 6 12 8 23 8 9 0 12-1 21-6 2-1 2-1 15 6l13 7v33l-4 2c-8 4-13 11-16 20-2 7-2 10 1 18 3 11 12 19 23 22 5 1 15 0 21-3z"/></svg>