<svg width="200" height="200" xmlns="http://www.w3.org/2000/svg"><path d="M179.911 54.033a2.078 2.077 0 0 0-2.717-1.159l-15.593 5.435a162.41 162.334 0 0 1-20.87 5.477c-14.436 2.637-24.79-8.914-24.79-8.914a2.16 2.16 0 0 0-2.399-.68 32.935 32.935 0 0 0-3.04 1.16 87.681 87.64 0 0 1 11.356-31.972 1.755 1.755 0 0 0 0-2.477 2.44 2.439 0 0 0-2.72-.76A181.24 181.156 0 0 0 91.15 37.488C71.958 52.394 61.283 67.582 59.965 82.806c-1.001 12.39 7.156 20.502 14.953 27.976l1.36 1.318a30.067 30.053 0 0 1-1.919 23.939c-6.958 15.347-22.39 28.735-41.742 35.967a280.153 280.023 0 0 1-11.195 3.996 2.078 2.077 0 0 0-1.36 2.477 2.16 2.16 0 0 0 2.04 1.521h.519a228.699 228.593 0 0 0 43.98-15.706l4.001-2c24.787-12.865 38.022-27.973 39.54-44.598 1.04-10.592-5.236-17.706-11.995-23.98 8.637-11.987 36.625-21.5 36.826-21.5l27.629-9.591c8.834-2.796 15.631-5.473 15.99-5.635a2.001 2 0 0 0 1.201-2.795zm-73.445 3.478a68.25 68.218 0 0 0-23.432 18.183 21.951 21.94 0 0 1-1.519-10.271c1.04-11.388 13.235-24.616 15.113-26.616a199.59 199.497 0 0 1 18.634-11.708 85.402 85.363 0 0 0-8.996 30.412zM55.007 164.974a70.767 70.734 0 0 0 23.43-27.296 38.303 38.286 0 0 0 3.717-19.184 20.27 20.261 0 0 1 5.799 15.067c-1.519 14.547-19.51 24.937-19.67 25.098a192.308 192.219 0 0 1-13.276 6.315zm50.738-47.637c-1 11.428-8.316 21.18-18.313 29.253a26.75 26.737 0 0 0 4.519-12.549c1.039-10.91-6.597-18.502-14.074-25.775-7.477-7.274-14.592-14.388-13.753-24.82 1.039-12.23 8.675-23.14 17.992-32.37a34.945 34.928 0 0 0-5.078 14.188c-1.36 13.387 7.636 21.661 15.433 28.934 7.796 7.274 14.074 13.068 13.235 23.14zM94.709 90.562a62.612 62.583 0 0 1-9.676-10.472c7.318-11.71 23.99-19.343 28.869-21.302a34.344 34.328 0 0 0 18.99 9.312c-4.077 1.478-28.948 10.231-38.18 22.46z" fill="#fff" style="fill:#053766;fill-opacity:1;stroke-width:2.27348"/><path style="fill:#fff;fill-rule:evenodd;stroke:#000;stroke-width:.0101059;stroke-miterlimit:7.9;paint-order:markers stroke fill" d="M92.156 87.98c-2.316-2.245-5.579-5.918-6.487-7.303-.377-.576-.363-.656.305-1.68 2.758-4.232 8.43-9.26 15.328-13.593 2.614-1.642 8.992-4.984 11.212-5.876l1.388-.557 1.301 1.177c1.73 1.565 5.602 4.094 7.888 5.15 2.218 1.025 5.608 2.155 7.694 2.566l1.524.3-2.827 1.057c-10.016 3.75-20.261 8.93-26.426 13.365-1.852 1.332-6.473 5.263-6.489 5.52-.006.087-.442.635-.97 1.219l-.958 1.06zm-9.75-14.57c-.842-2.69-.978-7.855-.284-10.764 1.496-6.265 6.227-14.235 13.054-21.992 1.376-1.564 2.45-2.411 6.238-4.923 4.382-2.905 11.91-7.516 12.88-7.888.344-.132.423-.089.312.17-.081.192-.757 1.696-1.501 3.343-3.298 7.292-5.657 15.895-6.862 25.022l-.148 1.121-2.253 1.177c-6.249 3.265-11.122 6.894-16.649 12.397-2.27 2.26-4.15 4.11-4.18 4.11-.029 0-.302-.797-.607-1.772z"/><path style="fill:#fff;fill-rule:evenodd;stroke:#000;stroke-width:.0101059;stroke-miterlimit:7.9;paint-order:markers stroke fill" d="M88.538 145.205c.051-.12.504-1.064 1.007-2.1 3.352-6.901 3.42-14.328.187-20.733-1.948-3.861-4.403-6.882-10.634-13.081-8.487-8.444-10.479-10.837-12.615-15.159-1.633-3.304-2.201-5.643-2.203-9.07-.005-7.314 3.298-15.857 9.218-23.844 2.822-3.808 7.568-9.167 7.119-8.04-.08.202-.642 1.578-1.248 3.057-3.838 9.365-3.372 17.51 1.44 25.176 2.067 3.292 4.037 5.57 8.777 10.15 9.952 9.618 11.852 11.708 13.783 15.163 2.752 4.923 2.973 10.826.666 17.761-1.609 4.833-4.198 9.192-8.26 13.901-2.625 3.043-7.645 7.773-7.237 6.82z"/><path style="fill:#fff;fill-rule:evenodd;stroke:#000;stroke-width:.0101059;stroke-miterlimit:7.9;paint-order:markers stroke fill" d="M57.824 163.134c3.423-2.53 9.082-8.064 12.185-11.915 3.898-4.836 8.402-12.503 10.054-17.111 1.376-3.84 2.2-8.5 2.398-13.57l.057-1.467 1.122 1.416c2.435 3.076 3.87 6.978 4.068 11.056.154 3.194-.354 5.58-1.885 8.85-2.657 5.67-8.736 12.193-15.825 16.976-1.877 1.267-11.97 6.33-12.588 6.315-.176-.004.01-.252.414-.55z"/></svg>