<svg width="200" height="200" xmlns:xlink="http://www.w3.org/1999/xlink" xmlns="http://www.w3.org/2000/svg"><defs><linearGradient id="g"><stop offset="0" style="stop-color:black;stop-opacity:1"/><stop offset="1" style="stop-color:black;stop-opacity:0"/></linearGradient><linearGradient y2="35.74" x2="21.408" y1="36.39" x1="22.687" gradientTransform="matrix(-.999 .21486 .21466 .99997 41.634 -13.052)" gradientUnits="userSpaceOnUse" id="z" xlink:href="#a"/><linearGradient id="a"><stop offset="0" style="stop-color:#000;stop-opacity:1"/><stop offset="1" style="stop-color:#000;stop-opacity:0"/></linearGradient><linearGradient y2="35.803" x2="30.936" y1="29.553" x1="30.936" gradientTransform="translate(-36.661 -20.7) scale(1.33835)" gradientUnits="userSpaceOnUse" id="A" xlink:href="#b"/><linearGradient id="b"><stop offset="0" style="stop-color:#fff;stop-opacity:1"/><stop offset="1" style="stop-color:#c9c9c9;stop-opacity:1"/></linearGradient><linearGradient y2="35.74" x2="21.408" y1="36.39" x1="22.687" gradientTransform="matrix(-1.30848 .28115 .28115 1.30848 35.91 -26.212)" gradientUnits="userSpaceOnUse" id="B" xlink:href="#a"/><linearGradient y2="609.505" x2="302.857" y1="366.648" x1="302.857" gradientTransform="matrix(2.77439 0 0 1.9697 -1892.179 -872.885)" gradientUnits="userSpaceOnUse" id="C" xlink:href="#c"/><linearGradient id="c"><stop offset="0" style="stop-color:black;stop-opacity:0"/><stop style="stop-color:black;stop-opacity:1" offset=".5"/><stop offset="1" style="stop-color:black;stop-opacity:0"/></linearGradient><linearGradient id="h"><stop offset="0" style="stop-color:#fff;stop-opacity:1"/><stop offset="1" style="stop-color:#d6d6d2;stop-opacity:1"/></linearGradient><linearGradient y2="35.74" x2="21.408" y1="36.39" x1="22.687" gradientTransform="matrix(-.999 .21486 .21466 .99997 40.235 -14.816)" gradientUnits="userSpaceOnUse" id="G" xlink:href="#a"/><linearGradient y2="36.218" x2="22.627" y1="35.818" x1="20.662" gradientTransform="matrix(1.00482 .18573 -.18555 1.00579 -7.662 -14.513)" gradientUnits="userSpaceOnUse" id="H" xlink:href="#a"/><linearGradient id="i"><stop offset="0" style="stop-color:#000;stop-opacity:1"/><stop offset="1" style="stop-color:#000;stop-opacity:0"/></linearGradient><linearGradient id="j"><stop offset="0" style="stop-color:black;stop-opacity:1"/><stop offset="1" style="stop-color:black;stop-opacity:0"/></linearGradient><linearGradient y2="35.74" x2="21.408" y1="36.39" x1="22.687" gradientTransform="matrix(-.999 .21486 .21466 .99997 41.634 -13.052)" gradientUnits="userSpaceOnUse" id="n" xlink:href="#d"/><linearGradient id="d"><stop offset="0" style="stop-color:#000;stop-opacity:1"/><stop offset="1" style="stop-color:#000;stop-opacity:0"/></linearGradient><linearGradient y2="35.803" x2="30.936" y1="29.553" x1="30.936" gradientTransform="translate(-36.661 -20.7) scale(1.33835)" gradientUnits="userSpaceOnUse" id="o" xlink:href="#e"/><linearGradient id="e"><stop offset="0" style="stop-color:#fff;stop-opacity:1"/><stop offset="1" style="stop-color:#c9c9c9;stop-opacity:1"/></linearGradient><linearGradient y2="35.74" x2="21.408" y1="36.39" x1="22.687" gradientTransform="matrix(-1.30848 .28115 .28115 1.30848 35.91 -26.212)" gradientUnits="userSpaceOnUse" id="p" xlink:href="#d"/><linearGradient y2="609.505" x2="302.857" y1="366.648" x1="302.857" gradientTransform="matrix(2.77439 0 0 1.9697 -1892.179 -872.885)" gradientUnits="userSpaceOnUse" id="q" xlink:href="#f"/><linearGradient id="f"><stop offset="0" style="stop-color:black;stop-opacity:0"/><stop style="stop-color:black;stop-opacity:1" offset=".5"/><stop offset="1" style="stop-color:black;stop-opacity:0"/></linearGradient><linearGradient id="k"><stop offset="0" style="stop-color:#fff;stop-opacity:1"/><stop offset="1" style="stop-color:#d6d6d2;stop-opacity:1"/></linearGradient><linearGradient y2="35.74" x2="21.408" y1="36.39" x1="22.687" gradientTransform="matrix(-.999 .21486 .21466 .99997 40.235 -14.816)" gradientUnits="userSpaceOnUse" id="u" xlink:href="#d"/><linearGradient y2="36.218" x2="22.627" y1="35.818" x1="20.662" gradientTransform="matrix(1.00482 .18573 -.18555 1.00579 -7.662 -14.513)" gradientUnits="userSpaceOnUse" id="v" xlink:href="#d"/><linearGradient id="l"><stop offset="0" style="stop-color:#000;stop-opacity:1"/><stop offset="1" style="stop-color:#000;stop-opacity:0"/></linearGradient><radialGradient r="117.143" fy="486.648" fx="605.714" cy="486.648" cx="605.714" gradientTransform="matrix(2.77439 0 0 1.9697 -1891.633 -872.885)" gradientUnits="userSpaceOnUse" id="y" xlink:href="#g"/><radialGradient r="117.143" fy="486.648" fx="605.714" cy="486.648" cx="605.714" gradientTransform="matrix(2.77439 0 0 1.9697 -1891.633 -872.885)" gradientUnits="userSpaceOnUse" id="D" xlink:href="#g"/><radialGradient r="117.143" fy="486.648" fx="605.714" cy="486.648" cx="605.714" gradientTransform="matrix(-2.77439 0 0 1.9697 112.762 -872.885)" gradientUnits="userSpaceOnUse" id="E" xlink:href="#g"/><radialGradient r="17.986" fy="26.814" fx="24.754" cy="26.814" cx="24.754" gradientTransform="matrix(1.04618 0 0 1.01781 -9.084 -6.268)" gradientUnits="userSpaceOnUse" id="F" xlink:href="#h"/><radialGradient r="8.662" fy="19.009" fx="31.113" cy="19.009" cx="31.113" gradientUnits="userSpaceOnUse" id="I" xlink:href="#i"/><radialGradient r="17.986" fy="17.728" fx="29.922" cy="17.728" cx="29.922" gradientTransform="matrix(.55849 0 0 .56339 14.871 4.364)" gradientUnits="userSpaceOnUse" id="J" xlink:href="#h"/><radialGradient r="117.143" fy="486.648" fx="605.714" cy="486.648" cx="605.714" gradientTransform="matrix(2.77439 0 0 1.9697 -1891.633 -872.885)" gradientUnits="userSpaceOnUse" id="m" xlink:href="#j"/><radialGradient r="117.143" fy="486.648" fx="605.714" cy="486.648" cx="605.714" gradientTransform="matrix(2.77439 0 0 1.9697 -1891.633 -872.885)" gradientUnits="userSpaceOnUse" id="r" xlink:href="#j"/><radialGradient r="117.143" fy="486.648" fx="605.714" cy="486.648" cx="605.714" gradientTransform="matrix(-2.77439 0 0 1.9697 112.762 -872.885)" gradientUnits="userSpaceOnUse" id="s" xlink:href="#j"/><radialGradient r="17.986" fy="26.814" fx="24.754" cy="26.814" cx="24.754" gradientTransform="matrix(1.04618 0 0 1.01781 -9.084 -6.268)" gradientUnits="userSpaceOnUse" id="t" xlink:href="#k"/><radialGradient r="8.662" fy="19.009" fx="31.113" cy="19.009" cx="31.113" gradientUnits="userSpaceOnUse" id="w" xlink:href="#l"/><radialGradient r="17.986" fy="17.728" fx="29.922" cy="17.728" cx="29.922" gradientTransform="matrix(.55849 0 0 .56339 14.871 4.364)" gradientUnits="userSpaceOnUse" id="x" xlink:href="#k"/></defs><g style="display:inline"><g style="opacity:.788571"><g style="display:inline"><path d="M-219.619-150.68v478.33c142.874.9 345.4-107.17 345.4-239.196S-33.655-150.68-219.619-150.68z" style="color:#000;display:inline;overflow:visible;visibility:visible;opacity:.402062;fill:url(#m);fill-opacity:1;fill-rule:nonzero;stroke:none;stroke-width:1;marker:none" transform="matrix(.03788 0 0 .04454 63.835 130.617)"/></g><path d="M26.969 31.81c1.258-.595 1.844-2.048 1.844-2.048-.98-4.136-4.063-7-4.063-7s2.518 6.488 2.219 9.047z" style="color:#000;display:inline;overflow:visible;visibility:visible;opacity:.291209;fill:url(#n);fill-opacity:1;fill-rule:evenodd;stroke:none;stroke-width:1px;marker:none" transform="translate(-14.9 51.737) scale(2.62428)"/></g><g transform="translate(13.413 67.236) scale(2.62428)"><path d="M10.183 24.85h5.679l-3.313-3.075-.71.946-.71-.71z" style="color:#000;display:inline;overflow:visible;visibility:visible;fill:url(#o);fill-opacity:1;fill-rule:evenodd;stroke:none;stroke-width:1px;marker:none"/><path style="color:#000;display:inline;overflow:visible;visibility:visible;opacity:.227848;fill:url(#p);fill-opacity:1;fill-rule:evenodd;stroke:none;stroke-width:1px;marker:none" d="M16.7 32.49c1.649-.777 2.416-2.68 2.416-2.68-1.284-5.41-5.322-9.157-5.322-9.157s3.299 8.488 2.907 11.838z"/><g style="display:inline"><path style="color:#000;display:inline;overflow:visible;visibility:visible;opacity:.402062;fill:url(#q);fill-opacity:1;fill-rule:nonzero;stroke:none;stroke-width:1;marker:none" d="M-1559.252-150.697h1339.633V327.66h-1339.633z" transform="matrix(.01443 0 0 .01697 30.002 30.058)"/><path style="color:#000;display:inline;overflow:visible;visibility:visible;opacity:.402062;fill:url(#r);fill-opacity:1;fill-rule:nonzero;stroke:none;stroke-width:1;marker:none" d="M-219.619-150.68v478.33c142.874.9 345.4-107.17 345.4-239.196S-33.655-150.68-219.619-150.68z" transform="matrix(.01443 0 0 .01697 30.002 30.058)"/><path d="M-1559.252-150.68v478.33c-142.875.9-345.4-107.17-345.4-239.196s159.436-239.134 345.4-239.134z" style="color:#000;display:inline;overflow:visible;visibility:visible;opacity:.402062;fill:url(#s);fill-opacity:1;fill-rule:nonzero;stroke:none;stroke-width:1;marker:none" transform="matrix(.01443 0 0 .01697 30.002 30.058)"/></g><path d="M11.666 33.5H22.63c3.107 0 6.182-1.099 7.31-4.23 1.07-2.973.182-8.635-6.762-13.217H10.204c-6.944 4.23-7.811 10.014-6.213 13.394 1.63 3.443 4.386 4.053 7.675 4.053z" style="color:#000;display:inline;overflow:visible;visibility:visible;fill:url(#t);fill-opacity:1;fill-rule:evenodd;stroke:#888a85;stroke-width:1.29753;stroke-linecap:round;stroke-linejoin:round;stroke-miterlimit:4;stroke-dasharray:none;stroke-dashoffset:0;stroke-opacity:1;marker:none"/><path style="color:#000;display:inline;overflow:visible;visibility:visible;opacity:.291209;fill:url(#u);fill-opacity:1;fill-rule:evenodd;stroke:none;stroke-width:1px;marker:none" d="M25.57 30.045c1.258-.594 1.844-2.047 1.844-2.047-.98-4.136-4.063-7-4.063-7s2.518 6.488 2.219 9.047z"/><path d="M8.3 29.904c-1.276-.558-1.846-1.9-1.846-1.9.86-4.163 3.8-7.208 3.8-7.208S7.927 27.354 8.3 29.904z" style="color:#000;display:inline;overflow:visible;visibility:visible;opacity:.549451;fill:url(#v);fill-opacity:1;fill-rule:evenodd;stroke:none;stroke-width:1px;marker:none"/><path style="color:#000;display:inline;overflow:visible;visibility:visible;opacity:.642857;fill:none;stroke:#fff;stroke-width:1.29753;stroke-linecap:round;stroke-linejoin:round;stroke-miterlimit:4;stroke-dasharray:none;stroke-dashoffset:0;stroke-opacity:1;marker:none" d="m11.614 32.28 10.93-.022c2.75 0 5.493-.65 6.343-3.82.85-3.17-1.972-9.716-7.432-11.468l-10.4-.03c-5.572 3.306-7.407 8.714-5.99 11.686 1.419 2.972 3.354 3.513 6.55 3.654z"/><circle transform="matrix(1.0218 0 0 1.0228 -15.11 -5.362)" style="color:#000;display:inline;overflow:visible;visibility:visible;fill:url(#w);fill-opacity:1;fill-rule:evenodd;stroke:none;stroke-width:1px;marker:none" cx="31.113" cy="19.009" r="8.662"/><circle transform="translate(-13.713 -7.653) scale(.9813)" style="color:#000;display:inline;overflow:visible;visibility:visible;fill:url(#x);fill-opacity:1;fill-rule:evenodd;stroke:#888a85;stroke-width:1.32227;stroke-linecap:round;stroke-linejoin:round;stroke-miterlimit:4;stroke-dasharray:none;stroke-dashoffset:0;stroke-opacity:1;marker:none" cx="31.113" cy="19.009" r="8.662"/><ellipse transform="matrix(.75978 0 0 .7668 -6.79 -3.576)" style="color:#000;display:inline;overflow:visible;visibility:visible;opacity:.525714;fill:none;stroke:#fff;stroke-width:1.69995;stroke-linecap:round;stroke-linejoin:round;stroke-miterlimit:4;stroke-dasharray:none;stroke-dashoffset:0;stroke-opacity:1;marker:none" cx="31.113" cy="19.009" rx="9.577" ry="9.417"/></g></g><g style="display:inline"><g style="opacity:.788571"><g style="display:inline"><path d="M-219.619-150.68v478.33c142.874.9 345.4-107.17 345.4-239.196S-33.655-150.68-219.619-150.68z" style="color:#000;display:inline;overflow:visible;visibility:visible;opacity:.402062;fill:url(#y);fill-opacity:1;fill-rule:nonzero;stroke:none;stroke-width:1;marker:none" transform="matrix(.03788 0 0 .04454 146.923 132.313)"/></g><path d="M26.969 31.81c1.258-.595 1.844-2.048 1.844-2.048-.98-4.136-4.063-7-4.063-7s2.518 6.488 2.219 9.047z" style="color:#000;display:inline;overflow:visible;visibility:visible;opacity:.291209;fill:url(#z);fill-opacity:1;fill-rule:evenodd;stroke:none;stroke-width:1px;marker:none" transform="translate(68.189 53.433) scale(2.62428)"/></g><g transform="translate(96.5 68.932) scale(2.62428)"><path d="M10.183 24.85h5.679l-3.313-3.075-.71.946-.71-.71z" style="color:#000;display:inline;overflow:visible;visibility:visible;fill:url(#A);fill-opacity:1;fill-rule:evenodd;stroke:none;stroke-width:1px;marker:none"/><path style="color:#000;display:inline;overflow:visible;visibility:visible;opacity:.227848;fill:url(#B);fill-opacity:1;fill-rule:evenodd;stroke:none;stroke-width:1px;marker:none" d="M16.7 32.49c1.649-.777 2.416-2.68 2.416-2.68-1.284-5.41-5.322-9.157-5.322-9.157s3.299 8.488 2.907 11.838z"/><g style="display:inline"><path style="color:#000;display:inline;overflow:visible;visibility:visible;opacity:.402062;fill:url(#C);fill-opacity:1;fill-rule:nonzero;stroke:none;stroke-width:1;marker:none" d="M-1559.252-150.697h1339.633V327.66h-1339.633z" transform="matrix(.01443 0 0 .01697 30.002 30.058)"/><path style="color:#000;display:inline;overflow:visible;visibility:visible;opacity:.402062;fill:url(#D);fill-opacity:1;fill-rule:nonzero;stroke:none;stroke-width:1;marker:none" d="M-219.619-150.68v478.33c142.874.9 345.4-107.17 345.4-239.196S-33.655-150.68-219.619-150.68z" transform="matrix(.01443 0 0 .01697 30.002 30.058)"/><path d="M-1559.252-150.68v478.33c-142.875.9-345.4-107.17-345.4-239.196s159.436-239.134 345.4-239.134z" style="color:#000;display:inline;overflow:visible;visibility:visible;opacity:.402062;fill:url(#E);fill-opacity:1;fill-rule:nonzero;stroke:none;stroke-width:1;marker:none" transform="matrix(.01443 0 0 .01697 30.002 30.058)"/></g><path d="M11.666 33.5H22.63c3.107 0 6.182-1.099 7.31-4.23 1.07-2.973.182-8.635-6.762-13.217H10.204c-6.944 4.23-7.811 10.014-6.213 13.394 1.63 3.443 4.386 4.053 7.675 4.053z" style="color:#000;display:inline;overflow:visible;visibility:visible;fill:url(#F);fill-opacity:1;fill-rule:evenodd;stroke:#888a85;stroke-width:1.29753;stroke-linecap:round;stroke-linejoin:round;stroke-miterlimit:4;stroke-dasharray:none;stroke-dashoffset:0;stroke-opacity:1;marker:none"/><path style="color:#000;display:inline;overflow:visible;visibility:visible;opacity:.291209;fill:url(#G);fill-opacity:1;fill-rule:evenodd;stroke:none;stroke-width:1px;marker:none" d="M25.57 30.045c1.258-.594 1.844-2.047 1.844-2.047-.98-4.136-4.063-7-4.063-7s2.518 6.488 2.219 9.047z"/><path d="M8.3 29.904c-1.276-.558-1.846-1.9-1.846-1.9.86-4.163 3.8-7.208 3.8-7.208S7.927 27.354 8.3 29.904z" style="color:#000;display:inline;overflow:visible;visibility:visible;opacity:.549451;fill:url(#H);fill-opacity:1;fill-rule:evenodd;stroke:none;stroke-width:1px;marker:none"/><path style="color:#000;display:inline;overflow:visible;visibility:visible;opacity:.642857;fill:none;stroke:#fff;stroke-width:1.29753;stroke-linecap:round;stroke-linejoin:round;stroke-miterlimit:4;stroke-dasharray:none;stroke-dashoffset:0;stroke-opacity:1;marker:none" d="m11.614 32.28 10.93-.022c2.75 0 5.493-.65 6.343-3.82.85-3.17-1.972-9.716-7.432-11.468l-10.4-.03c-5.572 3.306-7.407 8.714-5.99 11.686 1.419 2.972 3.354 3.513 6.55 3.654z"/><circle transform="matrix(1.0218 0 0 1.0228 -15.11 -5.362)" style="color:#000;display:inline;overflow:visible;visibility:visible;fill:url(#I);fill-opacity:1;fill-rule:evenodd;stroke:none;stroke-width:1px;marker:none" cx="31.113" cy="19.009" r="8.662"/><circle transform="translate(-13.713 -7.653) scale(.9813)" style="color:#000;display:inline;overflow:visible;visibility:visible;fill:url(#J);fill-opacity:1;fill-rule:evenodd;stroke:#888a85;stroke-width:1.32227;stroke-linecap:round;stroke-linejoin:round;stroke-miterlimit:4;stroke-dasharray:none;stroke-dashoffset:0;stroke-opacity:1;marker:none" cx="31.113" cy="19.009" r="8.662"/><ellipse transform="matrix(.75978 0 0 .7668 -6.79 -3.576)" style="color:#000;display:inline;overflow:visible;visibility:visible;opacity:.525714;fill:none;stroke:#fff;stroke-width:1.69995;stroke-linecap:round;stroke-linejoin:round;stroke-miterlimit:4;stroke-dasharray:none;stroke-dashoffset:0;stroke-opacity:1;marker:none" cx="31.113" cy="19.009" rx="9.577" ry="9.417"/></g></g><g style="fill:#ccc"><path d="M17.294 1034.858c-.173 2.023-2.636 3.816-5.431 3.843-.699.01-1.482.014-1.482.014 0 .01-.732.762-1.449.986-.54.17-1.111-.13-1.111-.13.605-.265.989-1.114.846-1.426-.139-.304-.64-.382-1.57-1.527a2.934 2.934 0 0 1-.491-1.597c.009-2.646 2.664-3.99 4.855-4.237 2.554-.288 6.06 1.433 5.833 4.075z" style="fill:#ccc;fill-opacity:1;stroke:#fcaf3e;stroke-width:.616363;stroke-linecap:round;stroke-linejoin:round;stroke-miterlimit:4;stroke-dasharray:none;stroke-opacity:1" transform="translate(18.772 -5655.077) scale(5.52448)"/></g><path style="fill:#555753;stroke:#555753;stroke-width:.741636;stroke-linecap:round;stroke-linejoin:round;stroke-miterlimit:4;stroke-dasharray:none;stroke-opacity:1" d="m22.467 1024.085 1.31.01" transform="translate(18.04 -3417.97) scale(3.40509)"/><path style="font-size:4px;fill:#555753;stroke:#555753;stroke-width:1;stroke-linecap:round;stroke-linejoin:round;stroke-miterlimit:4;stroke-dasharray:none;stroke-opacity:1" d="M21.224 1019.418c3.444-.01 3.894-.015 3.638-.023" transform="translate(18.04 -3417.97) scale(3.40509)"/><path d="M26.892 1021.944c-.234 2.508-3.623 5.3-7.413 5.334-.947.015-2.798.143-2.798.143-.453.614-3.059 2.51-2.231 1.415l.822-1.869s-1.325-1.09-2.587-2.51c-.406-.54-.794-1.67-.792-2.36.012-3.281 3.977-5.482 6.947-5.806 3.509-.384 9.475 1.729 8.052 5.653v0z" style="fill:none;stroke:#fce987;stroke-width:1;stroke-linecap:round;stroke-linejoin:round;stroke-miterlimit:4;stroke-dasharray:none;stroke-opacity:1" transform="translate(18.04 -3417.97) scale(3.40509)"/><path style="fill:#555753;stroke:#555753;stroke-width:1;stroke-linecap:round;stroke-linejoin:round;stroke-miterlimit:4;stroke-dasharray:none;stroke-opacity:1" d="M16.063 1021.77h4.287" transform="translate(18.04 -3417.97) scale(3.40509)"/><path style="fill:#555753;stroke:#555753;stroke-width:.741636;stroke-linecap:round;stroke-linejoin:round;stroke-miterlimit:4;stroke-dasharray:none;stroke-opacity:1" d="M21.664 1021.735c3.444-.01 3.083-.015 2.827-.023" transform="translate(18.04 -3417.97) scale(3.40509)"/><path style="fill:#555753;stroke:#555753;stroke-width:1;stroke-linecap:round;stroke-linejoin:round;stroke-miterlimit:4;stroke-dasharray:none;stroke-opacity:1" d="M16.793 1024.134h4.287" transform="translate(18.04 -3417.97) scale(3.40509)"/><g style="fill:#ececec"><path d="M15.249 1035.555c.098 1.841 2.025 3.395 4.525 3.18.633-.054 1.344-.103 1.344-.103 0 .01.722.634 1.388.781.503.111.997-.204.997-.204-.569-.193-.982-.932-.877-1.226.102-.286.55-.396 1.304-1.506.238-.417.276-.987.246-1.346 0 0 0 0 0 0-.075-1.812-2.74-2.995-4.704-2.933-2.032.063-4.322 1.504-4.223 3.356z" style="fill:#ececec;fill-opacity:1;stroke:#fcaf3e;stroke-width:.578155;stroke-linecap:round;stroke-linejoin:round;stroke-miterlimit:4;stroke-dasharray:none;stroke-opacity:1" transform="translate(.451 -6030.88) scale(5.88958)"/></g><path style="fill:#555753;stroke:#555753;stroke-width:.9;stroke-linecap:round;stroke-linejoin:round;stroke-miterlimit:4;stroke-dasharray:none;stroke-opacity:1" d="m27.875 1023.553 1.332.01m-5.598-.022c3.503-.01 3.136-.016 2.875-.023" transform="translate(18.04 -3417.97) scale(3.40509)"/><path style="font-size:4px;fill:#555753;stroke:#555753;stroke-width:.9;stroke-linecap:round;stroke-linejoin:round;stroke-miterlimit:4;stroke-dasharray:none;stroke-opacity:1" d="M30.354 1023.547c3.503-.01 3.962-.016 3.701-.023" transform="translate(18.04 -3417.97) scale(3.40509)"/><path style="fill:#555753;stroke:#555753;stroke-width:.9;stroke-linecap:round;stroke-linejoin:round;stroke-miterlimit:4;stroke-dasharray:none;stroke-opacity:1" d="M27.056 1025.545h3.477" transform="translate(18.04 -3417.97) scale(3.40509)"/><path d="M28.098 1028.325c.904.055 3.573-.183 3.573-.183 1.201 1.064 2.562 2.02 2.693 1.757 0 0-1.217-1.389-1.15-2.541.147-.381 1.823-1.25 2.335-2.973 1.775-5.978-11.912-7.974-13.366-1.15-.314 3.2 2.951 4.91 5.915 5.09z" style="fill:none;stroke:#fce987;stroke-width:1;stroke-linecap:butt;stroke-linejoin:round;stroke-miterlimit:4;stroke-dasharray:none;stroke-opacity:1" transform="translate(18.04 -3417.97) scale(3.40509)"/><path style="fill:#555753;stroke:#555753;stroke-width:.9;stroke-linecap:round;stroke-linejoin:round;stroke-miterlimit:4;stroke-dasharray:none;stroke-opacity:1" d="m31.927 1025.512 1.332.01m-8.876.037 1.332.01" transform="translate(18.04 -3417.97) scale(3.40509)"/><path style="font-size:4px;fill:#555753;stroke:#555753;stroke-width:.9;stroke-linecap:round;stroke-linejoin:round;stroke-miterlimit:4;stroke-dasharray:none;stroke-opacity:1" d="M24.848 1021.517c3.503-.01 3.961-.016 3.7-.023" transform="translate(18.04 -3417.97) scale(3.40509)"/><path style="fill:#555753;stroke:#555753;stroke-width:1;stroke-linecap:round;stroke-linejoin:round;stroke-miterlimit:4;stroke-dasharray:none;stroke-opacity:1" d="m18.786 1019.423 1.31.01m-5.505-.021c3.444-.01 3.084-.015 2.828-.023m-3.894 2.393H14.8" transform="translate(18.04 -3417.97) scale(3.40509)"/><path style="fill:#555753;stroke:#555753;stroke-width:.9;stroke-linecap:round;stroke-linejoin:round;stroke-miterlimit:4;stroke-dasharray:none;stroke-opacity:1" d="M30.213 1021.483c3.503-.01 3.136-.016 2.876-.023" transform="translate(18.04 -3417.97) scale(3.40509)"/><path style="fill:#555753;stroke:#555753;stroke-width:1;stroke-linecap:round;stroke-linejoin:round;stroke-miterlimit:4;stroke-dasharray:none;stroke-opacity:1" d="m14.017 1024.131 1.31.01" transform="translate(18.04 -3417.97) scale(3.40509)"/></svg>