<svg width="200" height="200" xmlns="http://www.w3.org/2000/svg"><defs><radialGradient id="a" gradientTransform="scale(.94311 1.06032)" gradientUnits="userSpaceOnUse" cx="12.69" cy="13.03" fx="10.76" fy="13.36" r="4.7" spreadMethod="pad"><stop stop-color="#fff" offset="0"/><stop offset="1"/></radialGradient></defs><g transform="translate(17.05 16.68) scale(.54259)"><ellipse cx="152.88" cy="153.56" rx="147.44" ry="145.18" style="fill:#ff0"/><g stroke-miterlimit="2"><g style="fill:#000"><path transform="matrix(1.02222 0 0 1.00808 25.77 125.05)" d="M17.37-34.27C-17.09 43.8 8.72 106.89 77.15 133.4 44.33 108.45 30.1 80.44 46.3 50.37c15.6-.9 27.54-6.84 33.85-43.62C33.2 22.64 27.48-19.09 17.37-34.27Z" style="fill:#000;stroke:#000;stroke-width:1.41733;stroke-linecap:butt;stroke-linejoin:miter;stroke-miterlimit:2"/><path transform="matrix(1.02222 0 0 1.00808 77.95 151.4)" d="M3.14 55.34c-.54 16.83 7.33 25.79 15.52 28.93C39.9 86 50.81 92.8 74.48 79.47 57.6 29.67 42.92-6.12 32.76.86 16.46 22.2 11.08 38.76 12.74 45.2c.7 14.21-1.3 13.17-9.6 10.13Z" style="fill:#000;stroke:#000;stroke-width:1.41733;stroke-linecap:butt;stroke-linejoin:miter;stroke-miterlimit:2"/><path transform="matrix(1.02222 0 0 1.00808 108.83 127.81)" d="M0 3.78c43.99-16.3 40.78 20.74 44.4 100.48-9.3-24.6-29.3-89.93-41.8-79.86C7.77 16.26 11.38-.46 0 3.78Z" style="fill:#000;stroke:#000;stroke-width:1.41733;stroke-linecap:butt;stroke-linejoin:miter;stroke-miterlimit:2"/><path d="M.85 91.84c-16.21-70.05 128.5-165.7 228.62.45 16.12 27.44.94 82.39-14.98 100.05-15.93 17.67-36.38 36.04-76.88 38.6-24.61 1.54-24.46-24.72-25.36-32.12-7.14-72.06-1.55-118.08-44.93-98.73C16.67 112.64 5.1 106 .85 91.84Z" style="fill:#000;fill-rule:evenodd;stroke:#000;stroke-width:1.41733;stroke-linecap:butt;stroke-linejoin:miter;stroke-miterlimit:2" transform="matrix(1.02222 0 0 1.00808 38.9 32.46)"/><path transform="matrix(1.02222 0 0 1.00808 87.3 64.15)" d="M56.72 19.23C37.97 17.13 29.67-.58 21.7 0 9.74.91.02 12.01 0 23c-.02 10.98 5.27 21.52 20.06 20.7 14.78-.82 17.84-18 36.66-24.46Z" style="fill:#000;stroke:#000;stroke-width:1.41733;stroke-linecap:square;stroke-linejoin:miter;stroke-miterlimit:2"/><path transform="matrix(.99219 -.24742 .17907 .99341 96.7 77.76)" d="M20.24 11.46C20.24 5.13 15.71 0 10.12 0 4.53 0 0 5.13 0 11.46 0 17.78 4.53 22.9 10.12 22.9c5.59 0 10.12-5.13 10.12-11.45" style="fill:#000;fill-rule:evenodd;stroke:#000;stroke-width:1.25;stroke-linecap:square;stroke-linejoin:miter;stroke-miterlimit:2"/></g><g style="fill:none"><path transform="matrix(1.02222 0 0 1.00808 29.7 116.64)" d="M17.37-34.27C-17.09 43.8 8.72 106.89 77.15 133.4 44.33 108.45 30.1 80.44 46.3 50.37c15.6-.9 27.54-6.84 33.85-43.62C33.2 22.64 27.48-19.09 17.37-34.27Z" style="fill:#2e2e2e;stroke:#000;stroke-width:1.41733;stroke-linecap:butt;stroke-linejoin:miter;stroke-miterlimit:2"/><path transform="matrix(1.02222 0 0 1.00808 81.87 143)" d="M3.14 55.34c-.54 16.83 7.33 25.79 15.52 28.93C39.9 86 50.81 92.8 74.48 79.47 57.6 29.67 42.92-6.12 32.76.86 16.46 22.2 11.08 38.76 12.74 45.2c.7 14.21-1.3 13.17-9.6 10.13Z" style="fill:#2e2e2e;stroke:#000;stroke-width:1.41733;stroke-linecap:butt;stroke-linejoin:miter;stroke-miterlimit:2"/><path transform="matrix(1.02222 0 0 1.00808 112.75 119.41)" d="M0 3.78c43.99-16.3 40.78 20.74 44.4 100.48-9.3-24.6-29.3-89.93-41.8-79.86C7.77 16.26 11.38-.46 0 3.78Z" style="fill:#dfa700;stroke:#000;stroke-width:1.41733;stroke-linecap:butt;stroke-linejoin:miter;stroke-miterlimit:2"/><path d="M.85 91.84c-16.21-70.05 128.5-165.7 228.62.45 16.12 27.44.94 82.39-14.98 100.05-15.93 17.67-36.38 36.04-76.88 38.6-24.61 1.54-24.46-24.72-25.36-32.12-7.14-72.06-1.55-118.08-44.93-98.73C16.67 112.64 5.1 106 .85 91.84Z" style="fill:#005ddf;fill-rule:evenodd;stroke:#000;stroke-width:1.41733;stroke-linecap:butt;stroke-linejoin:miter;stroke-miterlimit:2" transform="matrix(1.02222 0 0 1.00808 42.82 24.06)"/><path transform="matrix(1.02222 0 0 1.00808 91.22 55.75)" d="M62.15 19C43.4 16.9 36.75-.14 22.36.01 10.37.15-.35 10.81-.38 21.8-.4 32.78 7.9 45.78 22.68 44.95 37.47 44.13 43.33 25.47 62.15 19z" style="fill:#dfa700;stroke:#000;stroke-width:1.41733;stroke-linecap:square;stroke-linejoin:miter;stroke-miterlimit:2"/><path transform="matrix(.99219 -.24742 .17907 .99341 100.62 69.36)" d="M9.42.55C3.82.55 0 5.13 0 11.45c0 6.33 5.37 11.3 10.95 11.3 5.6 0 9.98-4.72 9.4-11.43C19.75 4.62 15 .55 9.41.55Z" style="fill:url(#a);fill-rule:evenodd;stroke:#000;stroke-width:1.25;stroke-linecap:square;stroke-linejoin:miter;stroke-miterlimit:2"/></g></g></g></svg>