<svg xml:space="preserve" width="200" height="200" xmlns="http://www.w3.org/2000/svg"><circle style="font-variation-settings:normal;display:inline;opacity:1;vector-effect:none;fill:#fff;fill-opacity:1;fill-rule:evenodd;stroke-width:1.274;stroke-linecap:butt;stroke-linejoin:miter;stroke-miterlimit:4;stroke-dasharray:none;stroke-dashoffset:0;stroke-opacity:1;-inkscape-stroke:none;stop-color:#000;stop-opacity:1" cx="100" cy="100" r="70"/><path d="M24.463 13.864c34.81 7.682 28.778 18.869 14.296 28.268a713.455 713.455 0 0 1-27.232 8.214c5.401-.658 10.298-1.08 14.718-1.305a258.146 258.146 0 0 1-12.678 5.692A2297.83 2297.83 0 0 1 36.46 48.92c23.952.938 25.718 11.483 3.58 31.827 33.292-17.109 42.033-29.71 22.264-37.837 10.145-2.11 14.01-2.407 16.16-2.215-5.165-3.208-8.735-4.848-12.733-5.155 8.774-11.69-9.969-19.017-41.27-21.676Z" style="fill:#235071;fill-opacity:1;fill-rule:nonzero;stroke:#235071;stroke-width:1.31552;stroke-linecap:butt;stroke-linejoin:round;stroke-miterlimit:4;stroke-dasharray:none;stroke-opacity:1" transform="translate(20.043 19.971) scale(1.79875)"/><path d="M67.284 38.48c0 .603-.537 1.085-1.195 1.085s-1.19-.482-1.19-1.085c0-.604.537-1.086 1.19-1.086.658 0 1.195.488 1.195 1.086z" style="fill:#ffa859;fill-opacity:1;fill-rule:nonzero;stroke:none;stroke-width:.54836" transform="translate(20.043 19.971) scale(1.79875)"/><path style="fill:#ffd632;fill-opacity:0;fill-rule:nonzero;stroke:#235071;stroke-width:6.56518;stroke-linecap:round;stroke-linejoin:miter;stroke-miterlimit:4;stroke-dasharray:none;stroke-dashoffset:0;stroke-opacity:1" d="M3.36 41.997a41.193 41.193 0 1 1-.064 1.532" fill="none" transform="translate(20.043 19.971) scale(1.79875)"/></svg>