<svg width="1200" height="200" xmlns="http://www.w3.org/2000/svg"><path style="fill:#d0d0d0;fill-opacity:1;stroke-width:.871975" d="M459.38 153.22c-1.44-.98-2.62-2.76-2.62-3.95 0-2.79 4.34-5.73 8.46-5.73 4.92 0 9.03-2.29 11.73-6.52l2.44-3.84-10.24-24.9c-5.63-13.69-11.08-25.8-12.1-26.9-1-1.1-2.82-2-4.02-2-1.39 0-2.17-.83-2.17-2.3 0-2.17.78-2.29 15.33-2.29 14.38 0 15.34.14 15.34 2.22 0 1.56-.95 2.32-3.25 2.58-2.3.25-3.35 1.1-3.61 2.89-.36 2.48 9.65 32.13 11.44 33.88.5.5 3.97-5.97 7.7-14.37 7.67-17.25 8.23-21.8 2.76-22.4-2.3-.26-3.25-1.02-3.25-2.58 0-2.05.93-2.22 11.8-2.22 10.79 0 11.8.19 11.8 2.17 0 1.33-1.09 2.43-2.8 2.85-3.83.93-4.44 1.97-21.34 36.33-8.17 16.6-16.03 31.43-17.48 32.95-2.63 2.78-8.86 5.91-11.76 5.91-.85 0-2.72-.8-4.16-1.78zM199 128.78c-12.76-3.24-20.64-13.35-20.64-26.49 0-17.72 16.56-31.25 33.95-27.72 10.88 2.2 16.07 7.52 17.54 17.96l.73 5.18h-38.4l.75 7c1.3 12.16 7.48 19.35 16.61 19.35 4.79 0 11.84-2.53 15.15-5.44 1.85-1.63 2.33-1.67 3.22-.28 3.41 5.37-18.18 13.17-28.91 10.44zm17.1-40.45a8.96 8.96 0 0 0-8.96-8.96c-4.65 0-10.36 4.34-12.1 9.18l-1.23 3.43h22.29zm127.4 39.51c-2.42-1.21-5-3.8-6.24-6.27-1.91-3.8-1.95-4.6-.4-8.2 2.21-5.14 6.68-8.28 20-14.05l10.83-4.7-.17-5.96c-.2-7.58-2.63-10.43-8.84-10.43-4.22 0-4.7.36-7.46 5.64-1.62 3.1-4 5.97-5.28 6.37-7.64 2.35-9.9-8.04-2.76-12.7 10.44-6.8 32.15-3.8 35.97 4.99.75 1.73 1.67 11.4 2.03 21.47l.67 18.33 3.47.58c4.65.78 4.47 2.44-.52 4.92-6.92 3.44-15.34.04-15.34-6.19 0-2.8-1.94-2.78-3.48.03-3.4 6.17-15.7 9.55-22.47 6.17zm18.95-8.4c3.5-1.81 5.83-7.28 5.83-13.65 0-6.87-.66-7.04-9.06-2.37-8.98 5-11.59 9.55-8.6 14.99 1.38 2.48 7.94 3.06 11.83 1.04zm56.05 8.7a39.25 39.25 0 0 1-8-4.07l-3.35-2.41-4.37 3.5c-2.4 1.91-4.75 3.49-5.22 3.49-.46 0-1-16.43-1.2-36.5-.38-39.14-.56-40.28-6.4-40.28-1.7 0-2.8-.67-2.8-1.71 0-.95.21-1.72.48-1.72s4.65-.78 9.73-1.72c5.09-.95 9.91-1.72 10.72-1.72 1.12 0 1.48 4.43 1.48 18.33 0 10.09.33 18.34.73 18.34.4 0 2.48-1.5 4.62-3.32 10.47-8.93 28.52-3.14 35.1 11.25 2.82 6.2 3.02 17.22.4 23.15-5.6 12.7-20.05 19.66-31.92 15.4zm11.6-5.38c5.17-2.29 7.2-8.2 7.2-21.04 0-8.73-.51-12.44-2.13-15.6-4.77-9.3-17.94-8.77-22.67.91-2.63 5.38-3.51 17.3-1.8 24.25 2.5 10.11 11.05 15.17 19.4 11.48zm139.7 5.49c-13.06-3.54-21.07-14.06-21-27.56.04-10.43 6.95-20.06 17.58-24.51 5.55-2.33 18.3-2.23 23.93.17 6.29 2.7 12.76 8.59 15.24 13.9 2.62 5.6 2.85 15.98.48 21.5-5.6 13-21.87 20.4-36.24 16.5zm14.51-5.98c5.4-2.71 8.05-9.5 8.05-20.55s-2.66-17.84-8.05-20.55c-11.76-5.9-20.15 2.65-20.15 20.55 0 17.9 8.39 26.46 20.15 20.55zm157.33 5.9c-27.18-6.53-40.36-32.1-28.67-55.57 7.73-15.5 28.41-25.25 46.64-22 18.35 3.3 30.77 14.22 35.19 30.98 4.34 16.48-4.03 33.8-20.4 42.19-11.23 5.75-21.46 7.13-32.76 4.4zm21.32-6.28c10.17-4.48 15.84-15.45 15.84-30.64 0-11.38-1.87-18.93-6.3-25.36-5.25-7.63-12.02-10.85-21.69-10.31-9.85.55-16.04 4.7-20.95 14.02-3.39 6.43-3.55 7.4-3.5 20.58.08 15 1.16 18.88 7.23 25.89 6.57 7.58 19.55 10.16 29.37 5.82zm64.88 6.26a39.25 39.25 0 0 1-8-4.08l-3.35-2.41-4.37 3.5c-2.4 1.91-4.75 3.49-5.21 3.49-.47 0-1.01-16.43-1.2-36.5-.4-39.14-.57-40.28-6.4-40.28-1.71 0-2.81-.67-2.81-1.71 0-.95.22-1.72.48-1.72.27 0 4.65-.78 9.74-1.72 5.08-.95 9.9-1.72 10.72-1.72 1.11 0 1.47 4.43 1.47 18.33 0 10.09.33 18.34.73 18.34.4 0 2.48-1.5 4.62-3.32 10.47-8.93 28.52-3.14 35.1 11.25 2.82 6.2 3.02 17.22.4 23.15-5.6 12.7-20.05 19.66-31.92 15.4zm11.6-5.4c5.17-2.28 7.2-8.2 7.2-21.03 0-8.73-.51-12.44-2.13-15.6-4.77-9.3-17.94-8.77-22.67.91-2.63 5.38-3.51 17.3-1.8 24.25 2.5 10.11 11.05 15.17 19.4 11.48zm41.69 5.46c-2.44-.87-5.2-2.2-6.11-2.94-1.34-1.08-1.95-.87-2.98 1.01-2.47 4.48-3.58 2.38-3.58-6.8 0-7.16.36-9.17 1.67-9.17.93 0 2.29 1.79 3.03 3.98 1.9 5.6 7.4 9.77 12.86 9.77 6.2 0 8.66-2.06 8.19-6.87-.4-4.1-3.91-7.27-15.2-13.75-8.78-5.04-11.8-13.88-7.52-21.93 3.73-7.01 14.69-9.38 23.27-5.03 2.89 1.46 3.38 1.46 3.96-.01 1.5-3.83 2.77-1.2 2.77 5.77 0 8.35-2.12 10.12-4.74 3.96-1.89-4.43-5.42-6.82-10.04-6.82-4.5 0-6.46 1.8-6.46 5.95 0 3.82 2.5 6.45 10.2 10.76 7.87 4.39 11.22 6.99 13.66 10.58 2.4 3.53 2.72 10.22.71 14.5-3.05 6.52-15.16 10.12-23.7 7.04zm50.44.57c-12.76-3.24-20.65-13.35-20.65-26.49 0-17.72 16.57-31.25 33.96-27.72 10.88 2.2 16.07 7.52 17.54 17.96l.73 5.18h-38.4l.75 7c1.3 12.16 7.48 19.35 16.61 19.35 4.78 0 11.84-2.53 15.14-5.44 1.86-1.63 2.34-1.67 3.22-.28 3.42 5.37-18.17 13.17-28.9 10.44zm17.1-40.45a8.96 8.96 0 0 0-8.96-8.96c-4.65 0-10.36 4.34-12.1 9.18l-1.23 3.43h22.29zm84.53 30.86-9.04-22.87c-2.67-6.75-5.82-13.44-7.01-14.87l-2.16-2.6-1.79 4.17c-2.32 5.38-5.9 6.54-10.35 3.35-4.43-3.18-6.51-3.04-8.96.6-4.4 6.52-6.66 27.72-3.59 33.65 1.12 2.16 2.58 2.96 5.88 3.23 3.44.27 4.4.84 4.4 2.57 0 2.1-.97 2.23-17.1 2.23-16.33 0-17.11-.11-17.11-2.3 0-1.66.78-2.29 2.86-2.29 5.84 0 6.59-2.23 6.46-19.27-.14-19.02-.6-20.92-5.54-23.05-2.1-.91-3.65-2.19-3.42-2.84.4-1.19 12.06-3.96 17.04-4.06 2.12-.04 2.66.59 2.67 3.1 0 1.74.34 4.32.73 5.74.67 2.44.96 2.3 5.32-2.5 4.74-5.23 11.37-8.33 14.92-6.97 1.1.42 9.05.7 17.65.63 14.83-.14 15.63-.03 15.63 2.12 0 1.62-.93 2.37-3.25 2.63-2.2.24-3.35 1.1-3.59 2.7-.42 2.9 10.52 32.32 12.14 32.62 1.22.22 13.5-27.88 13.54-31 .04-2.38-2.3-4.54-4.92-4.54-1.34 0-2.13-.84-2.13-2.29 0-2.12.79-2.29 10.62-2.29 9.83 0 10.62.17 10.62 2.3 0 1.25-.62 2.28-1.38 2.28-3.13 0-5.82 4.57-15.83 26.94L1046 129.8h-8.6zm59.98 9.6c-12.76-3.25-20.64-13.36-20.64-26.5 0-17.72 16.56-31.25 33.95-27.72 10.88 2.2 16.07 7.52 17.54 17.96l.73 5.18h-38.4l.75 7c1.31 12.16 7.48 19.35 16.61 19.35 4.79 0 11.84-2.53 15.15-5.44 1.85-1.63 2.33-1.67 3.22-.28 3.41 5.37-18.18 13.17-28.9 10.44zm17.1-40.46a8.96 8.96 0 0 0-8.96-8.96c-4.64 0-10.36 4.34-12.1 9.18l-1.22 3.43h22.29zM43.89 126.35c0-1.86.78-2.29 4.18-2.29a9.5 9.5 0 0 0 7.07-2.81l2.9-2.81v-30.3c0-34.47.98-31.68-11.13-31.68-12.72 0-17.25 2.83-19 11.86-1.47 7.63-2.9 4.33-2.9-6.7v-10.9h40.6c25.23 0 40.75-.41 41-1.1.34-.98 16.71-4.62 20.74-4.62 1.11 0 1.47 4.45 1.47 18.44v18.43l3.6-2.94c10.27-8.4 25.99-5.8 32 5.27 2.33 4.28 2.73 7 3.12 20.96.24 8.82.98 16.68 1.65 17.47.66.79 2.47 1.43 4.01 1.43 2.02 0 2.8.65 2.8 2.3 0 2.17-.78 2.29-15.33 2.29s-15.33-.12-15.33-2.3c0-1.64.78-2.29 2.8-2.29 5.14 0 5.65-2.02 5.24-21.04-.36-16.95-.5-17.87-3.24-20.7-6-6.2-17.44-2.13-20.1 7.15-1.57 5.51-1.57 29.52 0 32.38.79 1.42 2.47 2.21 4.72 2.21 2.71 0 3.5.52 3.5 2.3 0 2.17-.79 2.29-15.93 2.29-14.95 0-15.92-.14-15.92-2.22 0-1.56.95-2.32 3.21-2.58 5.92-.66 6.31-3.1 5.96-37.14-.35-33.57-.6-34.83-6.66-34.84h-3.1l.38 10.31c.32 8.77.1 10.32-1.48 10.32-1.08 0-1.85-.98-1.85-2.33 0-1.28-.78-4.13-1.73-6.34-2.4-5.6-7.71-7.56-19.29-7.13l-9.06.33v31.19c0 35.06-.18 34.35 8.68 35.5 3.75.5 4.88 1.14 4.88 2.79 0 2-1.28 2.14-21.23 2.14-20.45 0-21.24-.09-21.24-2.3zm212.33.58c0-1.05 1.1-1.72 2.82-1.72 1.55 0 4.07-.99 5.6-2.19 2.78-2.18 2.8-2.32 3.16-30.65.43-32.4-.19-36.46-5.7-37.63-1.93-.42-3.52-1.49-3.52-2.38 0-1.34 3.33-1.63 18.66-1.63 21.38 0 30.57 1.29 37.66 5.29 13.02 7.33 11.22 21.9-3.53 28.54l-5.7 2.56 5.07.75c19.98 2.93 27.14 25.33 11.16 34.92-7.18 4.31-18.25 5.81-42.97 5.84-19.4.01-22.7-.23-22.7-1.7zm50.1-5.64c5.58-2.27 8.1-7.43 7.44-15.2-.92-10.83-7.75-15.24-23.62-15.25h-7.96v12.5c0 6.88.34 13.39.76 14.45 1.83 4.64 15.52 6.69 23.38 3.5zM299 83.54c6.54-2.68 8.52-5.84 8.48-13.47-.04-5.81-.5-7.2-3.27-9.9-2.87-2.78-4.24-3.17-12.64-3.54l-9.41-.41V85.1h6.52c3.6 0 8.24-.7 10.32-1.56zm215.55 42.81c0-1.66.79-2.29 2.88-2.29 6.12 0 6.56-2.36 6.56-35.7 0-17.29-.5-31.9-1.16-33.57-.78-2-2.34-3.2-4.77-3.66-1.98-.39-3.4-1.28-3.17-1.97.4-1.18 13.43-3.93 19.36-4.09l2.6-.07.35 37.64c.38 40.37.54 41.42 6.4 41.42 2.01 0 2.8.65 2.8 2.3 0 2.17-.79 2.29-15.93 2.29-15.13 0-15.92-.12-15.92-2.3zm97.91 0c0-1.66.79-2.29 2.88-2.29 5.47 0 6.57-3.52 6.42-20.6-.19-20.55-.6-22.27-5.47-22.73-7.2-.67-4.38-3.31 5.31-4.97l9.15-1.56.95 4.3.95 4.31 4.36-3.31c11.4-8.67 25.69-7.13 32.96 3.55 3.07 4.5 3.27 5.63 3.83 21.45.33 9.18 1.02 17.34 1.55 18.13.52.79 2.25 1.43 3.83 1.43 2.1 0 2.88.63 2.88 2.3 0 2.17-.79 2.29-15.34 2.29-14.54 0-15.33-.12-15.33-2.3 0-1.64.79-2.29 2.8-2.29 1.55 0 3.44-.74 4.22-1.65 1.93-2.26 2.91-16.73 1.86-27.59-.74-7.73-1.33-9.43-4.2-12.21-4.36-4.25-10.19-4.37-15.13-.33-4.77 3.9-6.42 11.51-5.89 27.22.44 13.11 1.07 14.5 6.6 14.54 1.87.02 2.66.7 2.66 2.31 0 2.18-.79 2.3-15.92 2.3-15.14 0-15.93-.12-15.93-2.3zm515.51 0c0-1.66.79-2.29 2.87-2.29 5.83 0 6.58-2.23 6.45-19.27-.14-19.02-.6-20.92-5.54-23.05-2.1-.91-3.64-2.19-3.42-2.84.4-1.19 12.07-3.96 17.04-4.06 2.12-.04 2.66.59 2.67 3.1.01 1.74.34 4.32.73 5.74.68 2.44.97 2.3 5.32-2.5 5.59-6.17 11.36-8.4 16.43-6.35 4 1.6 5.55 5.7 3.68 9.69-1.87 3.98-5.75 4.72-9.75 1.85-4.42-3.18-6.5-3.04-8.96.6-4.4 6.52-6.66 27.72-3.59 33.65 1.12 2.16 2.58 2.96 5.89 3.23 3.43.27 4.4.84 4.4 2.57 0 2.1-.97 2.23-17.11 2.23-16.32 0-17.1-.11-17.1-2.3z"/></svg>