<svg width="200" height="200" fill="none" xmlns="http://www.w3.org/2000/svg"><path d="M100 178.88a78.88 78.88 0 1 0 0-157.76 78.88 78.88 0 0 0 0 157.76z" fill="#000" stroke="#fff" stroke-width="2.24"/><path d="M26.6 60.6v15.3h-9.1v12.2h9V121c0 6.6 1.7 11.3 4.9 14.2a19 19 0 0 0 13 4.2c3.5 0 6.8-.5 10-1.5v-12.6a24.4 24.4 0 0 1-4.9.4c-2 0-3.7-.4-4.7-1.2-1.1-.9-1.6-2.6-1.6-5.2V88h18L74 138.3h13.8L99.6 99l11.8 39.3h13.9L138 88h14.6v33c0 6.6 1.6 11.3 4.8 14.2a19 19 0 0 0 13 4.2c3.5 0 6.9-.5 10-1.5v-12.6a24 24 0 0 1-4.9.4c-2 0-3.7-.4-4.7-1.2-1-.9-1.6-2.6-1.6-5.2V88h10.5V75.9h-10.5V60.6h-16.6v15.3H125l-8.1 39.6L105.6 76h-12l-11.2 39.7L74.2 76h-31V60.6Z" fill="#fff" style="stroke-width:.889245" transform="matrix(.8 0 0 .8 20 20)"/></svg>