<svg width="200" height="200" xml:space="preserve" xmlns="http://www.w3.org/2000/svg"><g clip-rule="evenodd" fill-rule="evenodd"><path d="M168.448 81.76c.32-2.833.552-6.377 1.672-8.809.84 2.528 1.12 5.792 2.848 7.696 2.24-.52 4.72-.4 7.032.088-1.384 1.824-4.392 3.064-6.184 4.24 2.16 1.816 3.216 3.936 4.4 6.464-3.136-.048-6-2.784-8.424-4.256-2.08 2.352-3.56 4.648-6.616 5.496 1.104-2.344 3.68-4.392 4.008-6.84-2.448-.912-5.48-2.864-7.072-4.84 2.528.16 5.808.48 8.336.776" fill="#af0084"/><path d="M171.056 99.735c.232-2.056.392-4.64 1.208-6.4.616 1.832.808 4.2 2.072 5.576a11.84 11.84 0 0 1 5.104.072c-1 1.312-3.176 2.224-4.48 3.072 1.56 1.312 2.344 2.864 3.192 4.696-2.28-.04-4.36-2.032-6.12-3.08-1.512 1.704-2.576 3.384-4.816 3.984.8-1.696 2.688-3.2 2.912-4.952a13.488 13.488 0 0 1-5.128-3.52c1.824.112 4.216.344 6.04.552" fill="#98c000"/><path d="M163.24 113.927c.168-1.432.272-3.2.832-4.424.416 1.264.56 2.904 1.44 3.856 1.12-.264 2.368-.2 3.52.048-.688.912-2.2 1.536-3.096 2.12 1.096.912 1.616 1.984 2.216 3.248-1.592-.024-3.024-1.392-4.24-2.136-1.048 1.168-1.792 2.328-3.328 2.76.56-1.176 1.848-2.216 2-3.424a9.024 9.024 0 0 1-3.536-2.44 75.527 75.527 0 0 1 4.176.4" fill="#f08400"/><path d="M46.434 113.015c-1.304 0-16.016 14.32-17.448 16.016-1.2 1.328-1.848 3.784-3.904 4.056-2.192.296-2.688-.56-3.744-2.2-.984-1.568-2.2-4.336-.456-5.472 1.68-1.08 22.528-20.184 23.184-20.96.8-.824-.096-2.872-.472-5.96a55.447 55.447 0 0 1-.44-11.512 77.615 77.615 0 0 1 2.32-12.888c.64-2.384.256-7.096 3.592-7.24.68.16 5.791 3.696 4.415 8.36-2 6.68-3.911 14.192-3.32 21.36.105 1.376.665 2.576 1.545 1.936 9.44-6.744 24.223-14.064 28-15.36 1.823-.592 3.68-1.048 5.575-1.28 1.352.16 2.384 1.432 3.448 2.344 5.336 4.568-5.04 20.832-5.92 25.784.832 0 1.728-1.264 3.32-2.712a277.885 277.885 0 0 0 6.24-5.84c2.992-2.208 5.584-4.264 9.344-4.744 9.048-1.144 6.344 11.872 4.296 16.536 1.176 0 4.024-3.28 6.304-5.44 1.144-1.088 2.424-2.24 3.584-3.312 1.376-1.264 2.016-1.92 3.056-1.416.688.208 3.728 2.032 3.896 4.832.128 2.264-.784 4.488-1.248 6.664-.384 1.824-.288 7.752 2.168 7.76a8.08 8.08 0 0 1 3.4-1.184c1.864-.32 1.776.288 3.312.856 2.4.904.232 4.304-1.04 5.576a9.376 9.376 0 0 1-6.568 2.76c-2.68-.048-4.792-1.688-6-4.008-.656-1.28-1.52-5.968-1.84-7.36-.32-1.36-.04-3.008-1.496-1.616-4.104 3.952-8.336 7.624-12.504 11.52-4.592 4.28-8.984-1.6-8.152-6.416.824-4.696 4.88-10.44 5.6-15.104-1.92 0-5.2 3.384-6.432 4.784a273.037 273.037 0 0 1-6.512 7.16c-2.264 2.4-4.216 4.6-6.512 6.976-1.648 1.72-3.536 4.168-6.32 4.32-1.376-.216-3.56-2.496-3.936-5.4-.32-2.416.296-5.088 1.232-7.32 2.688-6.44 10.032-20.048 11.76-26.824-3.52.344-18.488 7.256-28.384 15.496-2.863 2.344-.224 6.68.976 9.56 1.28 3.072 5.064 8.64 6.2 9.584 2.96 2.464.592 4.64-2.344 4.48-1.256-.88-2.76-1.84-3.936-3.008a28.16 28.16 0 0 1-3.383-4.208c-2.016-3.008-3.96-6.48-4.48-10.128m106.414-38.376c-.848-3.12-4.744 1.64-6.696 4.16-5.4 6.944-10.32 21.088-11.12 23.696-2.423 8-3.36 17.84 1.88 24.872 3.04 4.096 8.408 4.416 13.672 2.904 2.704-.784 5.424-2.72 6.352-4.848.768-1.76 1.168-5.04-2.712-2.536-1.496.96-4.24 2.032-9.168 1.952-1.648-.024-4.36-2.4-5.088-4.848-1.28-3.984-.744-9.304-.744-9.304 1.12-6.88 4.312-14.328 7.112-20.576a125.503 125.503 0 0 1 5.64-10.344s1.584-2.496.88-5.152z" fill="#005fad"/></g></svg>