<?xml version="1.0" encoding="UTF-8" standalone="no"?>
<!-- Created with Inkscape (http://www.inkscape.org/) -->

<svg
   width="400mm"
   height="150mm"
   viewBox="0 0 400 150"
   version="1.1"
   id="svg1"
   inkscape:version="1.4.2 (ebf0e940d0, 2025-05-08)"
   sodipodi:docname="xmpp_motto.svg"
   xmlns:inkscape="http://www.inkscape.org/namespaces/inkscape"
   xmlns:sodipodi="http://sodipodi.sourceforge.net/DTD/sodipodi-0.dtd"
   xmlns="http://www.w3.org/2000/svg"
   xmlns:svg="http://www.w3.org/2000/svg">
  <sodipodi:namedview
     id="namedview1"
     pagecolor="#ffffff"
     bordercolor="#999999"
     borderopacity="1"
     inkscape:showpageshadow="2"
     inkscape:pageopacity="0"
     inkscape:pagecheckerboard="0"
     inkscape:deskcolor="#d1d1d1"
     inkscape:document-units="mm"
     inkscape:zoom="0.72159091"
     inkscape:cx="725.48031"
     inkscape:cy="325.66929"
     inkscape:window-width="1916"
     inkscape:window-height="1032"
     inkscape:window-x="0"
     inkscape:window-y="22"
     inkscape:window-maximized="1"
     inkscape:current-layer="layer1" />
  <defs
     id="defs1">
    <rect
       x="216.18898"
       y="166.29921"
       width="1049.8647"
       height="443.43962"
       id="rect1" />
  </defs>
  <g
     inkscape:label="Layer 1"
     inkscape:groupmode="layer"
     id="layer1">
    <text
       xml:space="preserve"
       transform="matrix(0.29813301,0,0,0.29813301,-21.150511,-31.919635)"
       id="text1"
       style="font-style:normal;font-variant:normal;font-weight:normal;font-stretch:normal;font-size:66.2642px;font-family:FreeSerif;-inkscape-font-specification:FreeSerif;text-align:center;writing-mode:lr-tb;direction:ltr;white-space:pre;shape-inside:url(#rect1);shape-padding:0;display:inline;fill:#ebebeb;stroke-width:18"><tspan
         x="741.12207"
         y="227.59321"
         id="tspan3"><tspan
           style="font-weight:bold;fill:#000000"
           id="tspan1">
</tspan></tspan><tspan
         x="262.09811"
         y="310.42346"
         id="tspan5"><tspan
           style="font-weight:bold;fill:#000000"
           id="tspan4">The universal messaging standard
</tspan></tspan><tspan
         x="311.49817"
         y="393.2537"
         id="tspan7"><tspan
           style="font-weight:bold;fill:#000000"
           id="tspan6">Tried and tested. Independent. </tspan></tspan><tspan
         x="510.95349"
         y="476.08393"
         id="tspan9"><tspan
           style="font-weight:bold;fill:#000000"
           id="tspan8">Privacy-focused.</tspan></tspan></text>
    <g
       id="svg6"
       transform="matrix(0.27027027,0,0,0.27027027,258.04137,20.518852)">
      <path
         id="use1"
         d="m 369.24691,329.58025 c 19,-16 22,-39 30,-59 5,-13 14,-24 23,-35 -12,34 -5,58 -34,82 5,-2 10,-6 14,-9 23,-19 57,-22 71,-53 -4,23 -22,43 -41,56 -19,12 -43,11 -63,18 m -50,12 c -3,-1 -7,-1 -11,-2 14,-2 27,-7 37,-16 15,-14 28,-28 44,-39 -17,34 -23,48 -51,54 0,0 8,-1 12,-2 30,-6 66,2 88,-23 -9,16 -26,29 -42,35 -26,8 -53,-1 -77,-7 m 95,-49 c 0,0 6,-11 8,-18 7,-27 3,-60 15,-86 -2,15 4,28 5,42 2,19 -5,32 -10,41 0,0 7,-9 10,-14 14,-22 43,-37 45,-64 4,59 -37,75 -73,99 m 14,-175 c -4,-8 -6,-18.000003 -8,-27.000003 2,4 4,8 7,11.000003 19,16 30,25 35,50 l -2,-22 c -2,-22 10,-46.000003 -3,-65.000003 13,14 20,32 20,50.000003 0,24 -14,41 -15,64 -4,-24 -24,-41 -34,-61 m 7,-44.000003 c -9,-8 -20,-15 -28,-25 -9,-12 -17,-26 -29,-37 16,7 34,13 45,30 6,10 7,22 12,32 m 20,48.000003 c -4,-8 -11,-16 -18,-22.000003 -18,-13 -36,-30 -37,-52 10,24 41,28 48,53.000003 0,0 -4,-15.000003 -5,-18.000003 -5,-17 -4,-37 -21,-48 33,7 35,43 33,70.000003 0,6 -1,11 0,17 m -5,116 c 0,0 2,-19 -1,-27 -8,-24 -16,-50 -15,-75 8,30 33,40 22,81 4,-8 5,-17 8,-25 6,-22 23,-41 18,-67 8,23 8,41 0,65 -5,18 -23,31 -32,48"
         sodipodi:nodetypes="cccccccccccccccccccccccccccccscsccccccccccccccccccccccc" />
    </g>
    <path
       id="branch"
       d="m 42.162159,109.5946 c -5.135132,-4.32433 -5.945943,-10.54054 -8.108107,-15.94595 -1.351345,-3.51351 -3.783777,-6.48649 -6.21621,-9.45946 3.243243,9.18919 1.351345,15.67568 9.189185,22.16217 -1.351355,-0.54055 -2.702698,-1.62162 -3.783786,-2.43243 C 27.027031,98.78378 17.837835,97.97297 14.054056,89.5946 15.135135,95.81082 20,101.21622 25.135132,104.72974 c 5.135143,3.24324 11.621628,2.97296 17.027027,4.86486 m 13.513518,3.24324 c 0.810811,-0.27027 1.891889,-0.27027 2.972977,-0.54054 -3.783788,-0.54054 -7.297298,-1.89189 -10.000008,-4.32432 -4.054054,-3.78379 -7.567564,-7.56758 -11.891886,-10.54054 4.594588,9.18918 6.21621,12.97297 13.783785,14.59459 0,0 -2.162166,-0.27027 -3.243243,-0.54054 -8.108109,-1.62162 -17.837838,0.54054 -23.783791,-6.21622 2.432432,4.32433 7.02703,7.83784 11.351352,9.45946 7.027029,2.16217 14.324327,-0.27026 20.810814,-1.89189 M 29.999997,99.59459 c 0,0 -1.621621,-2.97296 -2.162155,-4.86486 -1.891899,-7.2973 -0.810811,-16.21622 -4.054054,-23.243236 0.540533,4.054056 -1.081088,7.567566 -1.351355,11.351346 -0.540544,5.13513 1.351355,8.64865 2.702699,11.08108 0,0 -1.891888,-2.43243 -2.702699,-3.78378 C 18.648645,84.18919 10.810814,80.13513 10.27027,72.837838 9.1891917,88.78379 20.270267,93.10811 29.999997,99.59459 M 26.21622,52.2973 c 1.081078,-2.162166 1.621622,-4.864865 2.162156,-7.297298 -0.540534,1.081078 -1.081078,2.162166 -1.891889,2.972977 -5.135132,4.324321 -8.108108,6.756754 -9.459463,13.513507 l 0.540544,-5.945942 c 0.540544,-5.945943 -2.7027,-12.43243 0.810811,-17.567573 -3.513511,3.783788 -5.40541,8.648653 -5.40541,13.513518 0,6.486487 3.783788,11.081085 4.054055,17.297295 C 18.108112,62.297297 23.513511,57.702709 26.21622,52.2973 M 24.324321,40.405404 c 2.432433,-2.162155 5.40541,-4.054054 7.567575,-6.756754 2.432433,-3.243243 4.594588,-7.027031 7.837831,-10 -4.32432,1.891892 -9.189186,3.513513 -12.162162,8.108112 -1.621622,2.702699 -1.891889,5.945943 -3.243244,8.648642 M 18.918923,53.378378 C 20,51.216222 21.891889,49.054057 23.783788,47.432435 c 4.864865,-3.51351 9.72973,-8.108109 9.999997,-14.054052 -2.7027,6.486487 -11.081085,7.567565 -12.972974,14.324319 0,0 1.081078,-4.054055 1.351355,-4.864865 1.351345,-4.594588 1.081078,-9.999998 5.675676,-12.972974 -8.918919,1.891899 -9.459463,11.621629 -8.918919,18.918927 0,1.621621 0.270266,2.972966 0,4.594588 m 1.351344,31.351352 c 0,0 -0.540534,-5.13513 0.270277,-7.2973 2.162156,-6.48648 4.324321,-13.513511 4.054055,-20.270265 -2.162166,8.108109 -8.91892,10.810808 -5.945954,21.891895 -1.081077,-2.16217 -1.351344,-4.5946 -2.162155,-6.756755 -1.621622,-5.945953 -6.21622,-11.081085 -4.864865,-18.108116 -2.1621664,6.21622 -2.1621664,11.081085 0,17.567572 1.351344,4.864859 6.21621,8.378369 8.648642,12.972969"
       style="stroke-width:0.27027"
       sodipodi:nodetypes="cccccccccccccccccccccccccccccscsccccccccccccccccccccccc" />
    <g
       id="svg12"
       transform="matrix(0.56409357,0,0,0.564037,143.71813,-62.653794)">
      <path
         d="M 33.04,164.237 20.923,150.981 h 10.533 l 8.261,9.293 8.262,-9.293 H 58.51 l -12.107,13.247 13.03,13.329 H 48.485 l -8.777,-9.655 -8.759,9.655 H 20 L 33.03,164.228 Z M 62.457,150.981 H 74.98 l 9.22,17.102 9.213,-17.102 h 12.514 v 26.576 H 98 V 158.464 H 97.928 L 87.25,177.557 H 81.151 L 70.474,158.464 h -0.082 v 19.093 H 62.466 V 150.98 Z m 49.008,0 h 22.214 c 7.746,0 9.62,3.89 9.62,9.103 v 2.28 c 0,3.963 -1.729,8.506 -7.493,8.506 h -16.197 v 6.696 h -8.144 v -26.594 z m 8.144,13.292 h 12.668 c 1.9,0 2.642,-1.248 2.642,-2.832 v -1.022 c 0,-1.801 -0.878,-2.833 -3.348,-2.833 H 119.61 v 6.678 z m 28.105,-13.292 h 22.215 c 7.745,0 9.619,3.89 9.619,9.103 v 2.28 c 0,3.963 -1.72,8.506 -7.493,8.506 h -16.188 v 6.696 h -8.144 v -26.594 z m 8.153,13.292 h 12.668 c 1.9,0 2.642,-1.248 2.642,-2.832 v -1.022 c 0,-1.801 -0.877,-2.833 -3.348,-2.833 h -11.962 v 6.678 z"
         id="path12" />
    </g>
  </g>
</svg>
