<svg xml:space="preserve" width="200" height="200" xmlns="http://www.w3.org/2000/svg"><linearGradient id="a" y2="0" gradientUnits="userSpaceOnUse" x2="-1073.2" gradientTransform="translate(1196.6 15.37)" y1="126.85" x1="-1073.2"><stop stop-color="#1b3967" offset=".01"/><stop stop-color="#13b5ea" offset=".47"/><stop stop-color="#002b5c" offset=".99"/></linearGradient><linearGradient id="b" y2="0" gradientUnits="userSpaceOnUse" x2="-1073.2" gradientTransform="matrix(-1 0 0 1 -994.79 15.37)" y1="126.85" x1="-1073.2"><stop stop-color="#1b3967" offset=".01"/><stop stop-color="#13b5ea" offset=".47"/><stop stop-color="#002b5c" offset=".99"/></linearGradient><path d="M151.8 29.56c.08 1.31-1.78.97-1.78 2.3 0 38.54-46.56 97.36-91.69 108.72v1.64c59.95-5.52 128.56-67.8 130.07-126.85Z" style="fill:url(#a)" transform="translate(9.522 8.526) scale(.90488)"/><path d="M133.67 34.3c.08 1.31.12 2.63.12 3.96 0 38.55-30.7 90.5-75.82 101.86v1.64c59.04-2.8 105.8-63.03 105.8-109.2 0-2.38-.12-4.73-.36-7.06l-29.73 8.8z" style="fill:#e96d1f" transform="translate(9.522 8.526) scale(.90488)"/><path d="m163.7 24.95-7.63 2.72c.05.97.07 2.26.07 3.23 0 41.22-37.27 98.2-87.27 107.12-3.25 1.09-7.54 2.08-10.93 2.93v1.64c65.25-5.56 111.1-71.87 105.76-117.64Z" style="fill:#d9541e" transform="translate(9.522 8.526) scale(.90488)"/><path d="M50.01 29.56c-.08 1.31 1.79.96 1.79 2.29 0 38.55 46.56 97.37 91.69 108.73v1.64C83.53 136.7 14.93 74.42 13.42 15.37l36.6 14.19z" style="fill:url(#b)" transform="translate(9.522 8.526) scale(.90488)"/><path d="M68.14 34.3a68.4 68.4 0 0 0-.12 3.96c0 38.55 30.7 90.5 75.83 101.86v1.64c-59.04-2.8-105.81-63.03-105.81-109.2 0-2.38.13-4.73.37-7.06z" style="fill:#a0ce67" transform="translate(9.522 8.526) scale(.90488)"/><path d="m38.13 24.95 7.61 2.72a86.6 86.6 0 0 0-.06 3.23c0 41.22 37.27 98.2 87.27 107.12 3.24 1.09 7.54 2.07 10.93 2.93v1.64C78.63 137.03 32.78 70.72 38.12 24.95Z" style="fill:#439639" transform="translate(9.522 8.526) scale(.90488)"/><path d="m33.04 164.237-12.117-13.256h10.533l8.261 9.293 8.262-9.293H58.51l-12.107 13.247 13.03 13.329H48.485l-8.777-9.655-8.759 9.655H20l13.03-13.329zm29.417-13.256H74.98l9.22 17.102 9.213-17.102h12.514v26.576H98v-19.093h-.072L87.25 177.557h-6.099l-10.677-19.093h-.082v19.093h-7.926V150.98zm49.008 0h22.214c7.746 0 9.62 3.89 9.62 9.103v2.28c0 3.963-1.729 8.506-7.493 8.506h-16.197v6.696h-8.144v-26.594zm8.144 13.292h12.668c1.9 0 2.642-1.248 2.642-2.832v-1.022c0-1.801-.878-2.833-3.348-2.833H119.61v6.678zm28.105-13.292h22.215c7.745 0 9.619 3.89 9.619 9.103v2.28c0 3.963-1.72 8.506-7.493 8.506h-16.188v6.696h-8.144v-26.594zm8.153 13.292h12.668c1.9 0 2.642-1.248 2.642-2.832v-1.022c0-1.801-.877-2.833-3.348-2.833h-11.962v6.678z"/></svg>