<svg width="200" height="200" xmlns:xlink="http://www.w3.org/1999/xlink" xmlns="http://www.w3.org/2000/svg"><defs><linearGradient id="c"><stop style="stop-color:#803300;stop-opacity:1" offset="0"/><stop style="stop-color:#632800;stop-opacity:1" offset="1"/></linearGradient><linearGradient id="b"><stop style="stop-color:#7d5d5d;stop-opacity:1" offset="0"/><stop style="stop-color:#653a3a;stop-opacity:1" offset="1"/></linearGradient><linearGradient id="a"><stop offset="0" style="stop-color:#c8b7b7;stop-opacity:1"/><stop offset="1" style="stop-color:#916f6f;stop-opacity:1"/></linearGradient><linearGradient xlink:href="#a" id="h" x1="163.93" y1="136.62" x2="221.34" y2="103.28" gradientUnits="userSpaceOnUse" gradientTransform="matrix(.43084 0 0 .43179 -32.5 816.95)"/><linearGradient xlink:href="#a" id="i" x1="485.89" y1="130.26" x2="531.95" y2="162.58" gradientUnits="userSpaceOnUse" gradientTransform="matrix(.43084 0 0 .43179 -32.5 816.95)"/><linearGradient xlink:href="#b" id="d" x1="374.64" y1="428.84" x2="371.53" y2="297.52" gradientUnits="userSpaceOnUse" gradientTransform="matrix(.43084 0 0 .43179 -32.5 816.95)"/><linearGradient xlink:href="#b" id="f" x1="476.27" y1="351.55" x2="494.49" y2="344.48" gradientUnits="userSpaceOnUse" gradientTransform="matrix(.43084 0 0 .43179 -32.5 816.95)"/><linearGradient xlink:href="#b" id="e" x1="267.55" y1="363.71" x2="243.7" y2="356.64" gradientUnits="userSpaceOnUse" gradientTransform="matrix(.43084 0 0 .43179 -32.5 816.95)"/><radialGradient xlink:href="#c" id="g" cx="374.31" cy="290.83" fx="374.31" fy="290.83" r="110.28" gradientTransform="matrix(.51642 -.00884 .00347 .20388 -65.93 877.32)" gradientUnits="userSpaceOnUse"/></defs><g transform="translate(12.73 -578.08) scale(.72727)"><path style="fill:#9c3;fill-opacity:1;stroke:#690;stroke-width:4.865;stroke-miterlimit:4;stroke-dasharray:none;stroke-opacity:1" d="M53.27 845.18c-10.27.28-19.58 9.05-20.37 19.37-.26 20.53-.04 41.08-.11 61.61.05 24.54-.11 49.09.08 73.62.62 10.72 10.38 19.87 21.13 19.79 44.35-.02 88.71.07 133.06-.05 10.73-.44 20.04-10.06 20.13-20.8.01-44.47.09-88.95-.03-133.42-.42-10.47-9.66-19.64-20.04-20.1-44.61-.11-89.23-.05-133.85-.02z"/><path style="fill:#690;fill-opacity:1;fill-rule:evenodd;stroke:#690;stroke-width:1.1952px;stroke-linecap:butt;stroke-linejoin:miter;stroke-opacity:1" d="M38.52 918.35c10.15-33.56 1.58-9.9 18.87 16.62 2.02-8.49.92-11.21 3.73-27.28 2.38 10.85 6.65 27.92 13.05 34.7 6.4-4.37 11.61-12.35 17.25-18.62 3.3-4.29 10.06-18.57 9.5-4.34.81 6.11 2.27 20.63 6.22 19.6 4.73-11.44 3.3-46.95 10.62-55.94 2.6 29.16 12.24 39.27 21.04 5.13 1.2 14.14 7.17 22.33 11.5 32.75 1.03 3.03 3.99 14.8 3.31 5.25 3.11-14.58 5.73 13.26 10.2 8.39 3.22-9.86 3.38-13.1 7.14-22.7 4.37-26.44-1.01-3.47 12.67 20.56 9.83-23.16 6.3-52.63 11.75 6.5 2.73-8.5 4.25-23.67 5.88-27.2 3 10.94 6.26 17.73 5.95 30.16.56 12.42-.04 24.91.45 37.32-1.65 12.07-1.54 26.25-10 32.92-7.4 9.63-17.82 4.44-26.71 6.66-12.36 3.52-25.11 1.37-37.65 1.9-14.93.84-29.8-2.49-44.74-1.5-14.7-.27-29.67 1.73-44.01-3.86-8.42-6.17-11.74-21.53-12.08-34.34-2.35-29.68.34-36.7 6.06-62.68z"/><path style="fill:#4c7800;fill-opacity:1;fill-rule:evenodd;stroke:none;stroke-width:1px;stroke-linecap:butt;stroke-linejoin:miter;stroke-opacity:1" d="M38.18 974.47c1.13-3.26 3.7-13.93 4.52-5.11 3.53 6 1.47 13.15 2.6 19.71 3.22-.37 5.34-10 6.32-14.43 1.85 7.03 3.85 14.14 8.72 19.8 2.5-3.42 2.93-9.5 5.16-13.8 1.07-3.5 4.32-7 5.09-1.33 2.4 7.64 3.68 16.15 9.17 22.39 6.36.63 7.54-9.39 10.06-13.84 4.2-10.37 11.09-19.4 15.6-29.59 4.83-5.07 4.8 6.61 7.07 9.35 3.6 9.94 6.23 20.36 11.04 29.77 5.31 6.17 6.01-8.3 9.89-10.7 3.51 1.76 3.4 12.28 7.25 10.96 2.59-6.45 4.92-12.97 6.44-19.74 2.5-2.8 2.9 12.35 8.78 7.3 2.58-5.3 4.7-11.8 10.22-14.8 6.14 1.23 2.97 10.86 7.03 15 3.34 9.12 6.64-3.03 9.64-5.88 1.6-3.07 3.85-7.29 4.22-1.65 1.1 3.26.84 13.57 5.2 11.2 2.83-5.41 2.92-10.2 9.34-19.35 5.06 12.33 8.87 26.06 2.97 37.76-1.27 9.1-11.14 10.26-18.41 12.21-8.53 1.1-17.25.2-25.86.5-14.3.07-28.57-.18-42.86.34-6.04-.6-12.1-.55-18.11-.34-7.04-.84-14.14.86-21.12-.72-6.15-.27-12.45-2.22-18.42.22-18.53 2.33-29.73-7.2-29.02-23.35-.8-3.96 5.58-17.68 7.47-21.88z"/><rect ry="21.96" rx="21.96" y="844.79" x="32.43" height="175.14" width="175.14" style="fill:none;fill-opacity:1;stroke:#690;stroke-width:4.865;stroke-miterlimit:4;stroke-dasharray:none;stroke-opacity:1"/><path d="M126.58 1042.14c-7.09.18-13.67-2.79-18.76-7.51-5.88-4.29-9.38-10.83-12.75-17.11-4.2-8.58-9.09-16.96-10.92-26.52-1.8-5.77.33-4.98-6.29-6.52-2.35-.6-2.93-.66-5.13-1.5-3.3-1.66-6.82-4.9-6.02-9.15.08-3.34 2.74-9.3 3.97-12.04.92-1.66 3.06-3.12 2.2-5.1.53-4.64 1.35-9.53 3.38-13.63 1.24-2.66 3.15-5.54 4.61-8.03-2.2-.96-5.2 2.94-6.49.83-.05-2.06 1.5-4.41 2.6-6.28 1.74-2.95 7.68-3.44 1.05-5.05-5.49-2-9.78-5.95-14.1-9.82-2.3-3.45-6.16-5.84-8.53-9.38-2.88-3.5-6.06-7.57-7.44-11.71-2.1-4.06-4.09-8.1-6.23-12.07a39.56 39.56 0 0 1-3.86-12.65 73.55 73.55 0 0 0-.82-8.27c.15-4.44.67-9.14 1.84-13.7.5-2.98 1.32-6.24 1.35-8.7.3-6.21 4.3-11.88 9.24-15.47.38 5.05.22 10.87.87 15.3.28 3.28 1.18 5.67 2.4 8.5 1.7 2.86 3.81 6.8 5.93 10.02 3.59 4.56 7.81 9.48 11.03 14.55 1.6 2.05 3.16 4.78 5.24 6.72 1.5 2.06 3.4 3.44 4.94 4.94 2.98 3.22 6.5 5.62 9.54 8.55 1.6 1.6 3.27 2.74 4.46 3.85 2.86 2.65 4.76 3.97 9.66 8.18 1.9 1.34 3.97 3.23 4.84 2.25 4.52-1.79 10.4-1.35 15.35.41 1.56.7 3.27 2.72 4.69 2.15 3.76-3.51 9.33-4.94 14.38-4.83 3.05.34 4-3.05 6.18-4.5 5.02-6.46 11.4-11.62 17.1-17.33 1.35-2.02 4.4-5.33 6.04-7.83 1.81-2.28 3.88-6.44 5.53-8.22 3.55-5.41 7.22-11.15 9.74-16.75 2.53-6.56 5.91-12.69 7.94-18.97.6-1.8 1.78-3.52 2.07-5.45 1.7-2.13 3.96 1.32 4.92 2.72 3.45 6.21 4.59 12.96 6.72 19.5 2.04 8.06.68 16.89-1.7 24.9-1 6.47-3.55 13.38-5.5 19.27-.28 1.8-2.06 4.97-3.2 6.6-2.76 5.62-6.86 10.25-10.77 15-3.91 4.21-8.17 8.33-13.11 10.99-1.37.03-4.2 1.86-1.7 3.44 1.07 1.48 3.06 4.95-.15 4.6-3.22-.54-6.8-.15-2.64 2.96 3.23 3.92 3.43 10.07 2.6 14.83 1.43.75 4.86 1.58 5.21 4.63 2.64 6.3 7.65 11.96 9.05 18.41.18 2.94-1.39 4.88-2.79 6.78a11.46 11.46 0 0 1-11.17 2.62c-2.79-1.28-1.52 3.81-2.36 5.23-1.2 6.55-3.81 12.3-7.14 17.9a140.22 140.22 0 0 1-9.82 17.75 142.4 142.4 0 0 1-6.85 7.68c-7.05 7.33-11.25 12.08-20.43 12.03z" style="fill:#000;fill-opacity:1;stroke:#000;stroke-width:.431;stroke-miterlimit:4;stroke-dasharray:none;stroke-opacity:1" transform="translate(-4.84)"/><path d="M124.95 1039.44c.45-5.43 2.23-13.3-4.44-14.04a2.82 2.82 0 0 1 .35-5.28c3.62-2.06 7.58-3.65 11.57-1.64 3.68 1.9 2.4 7.9-1.82 7.54-3.55-.44-2.82 2.89-2.88 4.52.1 3.4.47 10.83 5.66 7.48 4.84-2.2 8.82-6.01 12.2-10.56 3.26-3.35 6.74-7.14 9.41-11.56 2.4-3.1-2.18-4.8-2.18-4.8-11.23-6.57-24.75-9.36-37.53-6.67-4.9 1.82-9.97 3.44-14.6 5.79-3.73 1.47-5.8 3.9-2.37 7.66 3.54 6.23 7.53 12.43 13.66 16.47 3.6 3 8.23 5.3 12.97 5.09z" style="fill:#fca;fill-opacity:1;stroke:#000;stroke-width:.431314;stroke-opacity:1" transform="translate(-4.84)"/><path d="M127.78 1028.55c-.33-.86-.25.77 0 0z" style="fill:#ff8080;fill-opacity:1;stroke:#000;stroke-width:.431314;stroke-opacity:1" transform="translate(-4.84)"/><path d="M95.11 1009.96c6.2-5 14.12-7.03 21.55-9.48 9.1-1.26 18.94-.64 27.73 2.8 4.74 1.7 9.06 4.28 13.38 6.8 3.13-6.6 7.2-12.7 9.15-19.67a203.7 203.7 0 0 0 3.24-27.78c1.54-4.32-3.76-3.66-3.47-7.73-1.45-6.71-7.97-10.61-12.69-15.02-1.55-1.16-4.15-4.5-5.25-1.19-2.4 3.81-3.79 7.12-6 11.29-1.3 1.78-1.82 3.89-3.05 5.17-.6 2.78-4.95 3.74-5.69.55-2.5-3.27-5.1-6.45-7.22-10.03-1.9-2.62-4.22-4.88-5.58-7.8-3 5.05-6.55 9.7-9.49 14.75-.6 1.42-5.63 5.42-1.34 4.74 3.67.75 6.9 3.76 8.67 6.93.82 2.15 2.76 5.04 1.42 8.05-1.46 4.72-3.66 9.56-8.52 11.3-1.6.77-4.76.47-6.74-.59-5.26-3.75-6.02-11.55-5.24-16.73 1.05-3.26 2.6-6.25 5.44-8.23 1.2-.66-1.4-2-1.98-2.9-3.18-1.27-7.98-13.19-9.55-6.4a62.8 62.8 0 0 0-1.78 11.77c1.05 2.38-2.27 4.18-4-.02-1.21-4.84-5.14-12.13-4-2.4-1.4 8.55-1.83 17.38.78 25.69 1.08 3.56 1.6 7.08 3.06 10.3 1.77 5.55 3.68 11.16 6.85 16.05l.32-.22z" style="fill:url(#d);fill-opacity:1;stroke:#000;stroke-width:.431314;stroke-opacity:1" transform="translate(-4.84)"/><path d="M144.76 985.1c-5-.74-5.72-6.8-7.36-10.8-1.25-5.53-2.3-12.7 3.17-16.23 4.09-3.26 10.85-3.88 14.42.61 2.91 4.1 3.19 10.22 2.5 15.17-1.44 5.63-6.09 11.96-12.73 11.26z" style="fill:#000;fill-opacity:1;stroke:#000;stroke-width:.431314;stroke-opacity:1" transform="translate(-4.84)"/><path d="M146.5 982.38c7.5-2.2 9.93-11.64 7.75-18.51-.4-4.63-5.18-7.52-9.28-5.41-4.2 1.23-6.9 6-5.82 10.41.64 4.56 1.75 9.53 4.73 13.07a3.2 3.2 0 0 0 2.62.44z" style="fill:#fff;fill-opacity:1;stroke:#000;stroke-width:.431314;stroke-opacity:1" transform="translate(-4.84)"/><path d="M148.65 963.36c5.7 2.6 3.15 13.82.3 15.26-6.94 3.76-6.1-15.14-.3-15.26z" style="fill:#2b1100;fill-opacity:1;stroke:none;stroke-width:.431314;stroke-opacity:1" transform="translate(-4.84)"/><path d="M145.86 972.31c4.6-4-4.9-2.6 0 0z" style="fill:#fff;fill-opacity:1;stroke:none;stroke-width:.431314;stroke-opacity:1" transform="translate(-4.84)"/><path d="M81.05 982.23c.57-2.46-.06-6.16-.13-8.64-1.1-4.78.3-9.22-.13-14.11.17-2.5.9-4.77 1.03-7.26-3.13 4.12-7.15 8.17-9.55 13.02-.88 3.6-2.02 6.12-2.78 9.67-.16 5.82 6.93 7.75 11.56 7.32z" style="fill:url(#e);fill-opacity:1;stroke:#000;stroke-width:.431314;stroke-opacity:1" transform="translate(-4.84)"/><path d="M108.9 981.26c1.93-.1 3.37-.88 5.11-2.74 3.48-3.72 4.97-9.54 2.11-13.86-1.66-4.29-8.78-6.85-11.25-1.94-3.51 5.32-3.07 13.32 1.22 18.09l1.53.52 1.29-.07z" style="fill:#fff;fill-opacity:1;stroke:#000;stroke-width:.431314;stroke-opacity:1" transform="translate(-4.84)"/><path d="M108.88 978.72c-6.61-2.24-2.28-19 4.29-13.12 2.5 3.91 2.75 14.37-4.3 13.12z" style="fill:#2b1100;fill-opacity:1;stroke:none;stroke-width:.431314;stroke-opacity:1" transform="translate(-4.84)"/><path d="M108.48 974.48c4.49-4.73-5.62-2.7 0 0z" style="fill:#fff;fill-opacity:1;stroke:none;stroke-width:.431314;stroke-opacity:1" transform="translate(-4.84)"/><path d="M176.6 979.5c5.47-.06 10-6.97 6.3-11.67a288.41 288.41 0 0 0-8.44-15.06c-4.39.14-.35 6.6-1.18 9.59-.07 5.27-1.07 10.67-1.24 16.25 1.38.72 3.2.52 4.56.89z" style="fill:url(#f);fill-opacity:1;stroke:#000;stroke-width:.431314;stroke-opacity:1" transform="translate(-4.84)"/><path d="M89.73 956.6c.18-5.32-.18-12.28 5.6-15.11 3.14 4.44 6.82 8.58 10.63 12.5 1.8-.74 1.52-.69 2.27-2.03 3.44-5.56 7.52-10.68 10.35-16.58 3.7-3.67 6.25 1.56 7.92 4.54 3.39 3.54 5.67 8.1 8.45 11.82 1.25 2.14 2.69 1.81 3.27-.66 2.26-3.78 3.65-7.06 5.58-10.59 1.6-2.35 3.2-8.24 6.75-6.1 6.56 3.57 11.62 9.23 16.75 14.6 1.62 4.57 3.13-.03 2.9-2.85.96-5.01-.92-9.48-4.5-13.07-1.4-1.63-5.63-4.55-2.31-6.3 1.25 1.08 6.4 3.04 6.33.26-3.04-4.94-7.15-9.73-12.76-11.85-4.15-2.53-14.99-.16-16.2-2.76 2.66-2.53 7.2-4.16 9.82-5.5-6.39-.75-13.16-1.07-18.77 2.7-3.12 3.89-6.7.43-10.16-.75-6.53-1.46-13.71-1.07-19.34 3.1-2.65 2.48 12.15 4.16 3.87 6.52-6.03 2.7-12.78 3.78-17.92 7.95-3.68 2.5-9 2.7-11.51 6.78 2.3.54 12.5-2.07 6.86 3.9-2.83 5.14-7.17 10-7.7 16 4.32-4.66 11.67-10.95 11.94.74-.04.95.61 3.3 1.88 2.75z" style="fill:url(#g);fill-opacity:1;stroke:#000;stroke-width:.431314;stroke-opacity:1" transform="translate(-4.84)"/><path d="M86.15 923.85a32.7 32.7 0 0 1 15.85-6.68c-1.53-1.95-12.18-.71-3.96-5.26 1.54-1.69 8.37-3.87 5.05-5.7-4.79-3.5-9.03-8.27-14.23-11.86-3.05-2.48-5.58-5.43-8.58-7.64-.57 1.7-1.72 1.46-3.15 3.14-1.63 1.5-4.1 3.58-5.74 3.78-2.4-1.53-.59-3.93 1.74-4.72 1.72-.81 3.1-2.5 3.92-3.57 2.09-.62-.84-2.63-1.78-3.62-.8-1.19-2.72-2.21-2.38-3.07-2.25-.82-3.14-3.71-4.76-5.31-4.04-5.54-7.53-11.1-12.13-16.02-2.3.7-3.96 2.79-6.6 2.18-2.5.26-4.4-5.18-.78-3.25 2.15.19 6.89-1.45 4.3-4.1-1.3-2.4-3.46-6.2-4.21-7.77-1.97-2.48-.4-8.17-.91-11.5.37-8.33-2.3-1.47-3.42 1.47-1.56 6.64-1.82 13.26-3.67 19.85-.4 6.53-.25 12.33 1.15 18.68a38.5 38.5 0 0 0 3.57 9.26c2.9.24 5.42-1.88 7.56-3.88 1.57-2.17 4.3 1.54 2.02 2.57-2 2.22-4.96 5.08-7.92 4.35 3.37 7 6.4 14.2 11.86 19.91 3.41 4 7.24 7.53 10.67 11.06 2.12.88 3.67 4.5 6.07 2.53 2.13-1.58 13.37-8.1 7.83-2.27a63.2 63.2 0 0 1-6.9 4.68c1.78 1.1 4.14 1.86 6.4 2.57 1.2-.67 2.02.07 3.13.2z" style="fill:url(#h);fill-opacity:1;stroke:#000;stroke-width:.431314;stroke-opacity:1" transform="translate(-4.84)"/><path d="M170.17 922.05c4.16-1.03 7.67-4.26 11-7.07 4.42-4.54 8.36-9.02 11.87-14.5 1.06-1.03 2.84-3.01 1.81-4.11-3.24.32-6.4-2.6-6.78-5.67 2.76-1.78 5.37 5.66 9.27 2.5 2-4.29 3.27-8.98 4.81-13.2 1.58-5.2 2.43-10.5 3.81-15.47.46-2.47 1.1-3.97 1.1-6.95.75-3.36.15-5.7-3.93-4.57-5.85-1.34-.73-4.04 2.96-2.87 1.75-1.83-.9-5.5-1.18-8.05-.9-2.15-1.04-4.41-1.94-6.38a22.5 22.5 0 0 0-3.85-8.54c-1.81 5.14-4 10.14-6.1 15.19-1.32 4.53-3.82 8.68-5.54 12.69-2.85 5.36-6.05 9.78-9.2 14.9 5.1.02 10.9-.38 14.66-4.2 2.2-.24 2.72 2.16 1.05 3.09-2.23 2.4-5.13 2.96-8.08 3.92-3.69 1.52-8.73-2.5-10.25 1.03a95.4 95.4 0 0 1-10.23 12.91c-4.61 4.4-9.8 8.69-13.48 13.69 2.98 2.5 8.47 2.87 12.05.9 2.94 4.78-12.66 2.02-14.97 1.8 4.41.9 15.86 9.3 4.34 7.37-7.85 1.33 2.9 1.2 5.46 2.65 4.44 2.02 8.35 5.55 11.34 8.94z" style="fill:url(#i);fill-opacity:1;stroke:#000;stroke-width:.431314;stroke-opacity:1" transform="translate(-4.84)"/><path d="M186.43 913.82c-.8-.25-.14.26 0 0zm21.26-44.29c-.48-.5-.62.2 0 0zM51.54 858.9c-.11-.29-.56.3 0 0zm3.5-1.54c-1.18-.26-.27.28 0 0z" style="fill:#ff8080;fill-opacity:1;stroke:#000;stroke-width:.431314;stroke-opacity:1" transform="translate(-4.84)"/></g></svg>