<svg xmlns="http://www.w3.org/2000/svg" version="1.1" xmlns:xlink="http://www.w3.org/1999/xlink" viewBox="0 0 200 200"><rect width="200" height="200" fill="url('#gradient')"></rect><defs><linearGradient id="gradient" gradientTransform="rotate(45 0.5 0.5)"><stop offset="0%" stop-color="#3c4845"></stop><stop offset="100%" stop-color="#1b7974"></stop></linearGradient></defs><g><g fill="#3df383" transform="matrix(6.499294781382228,0,0,6.499294781382228,17.361626854568343,134.51375235219936)" stroke="#c2d02d" stroke-width="0.2"><path d="M1.16-10.57L4.46-10.57L4.46 0.36Q4.45 2.24 3.39 3.25Q2.32 4.27 0.42 4.27L0.42 4.27Q-0.40 4.27-1.13 4.10L-1.13 4.10L-1.13 1.61Q-0.57 1.70-0.21 1.70L-0.21 1.70Q1.16 1.70 1.16 0.34L1.16 0.34L1.16-10.57ZM0.92-13.29L0.92-13.29Q0.92-13.99 1.43-14.44Q1.93-14.89 2.74-14.89Q3.55-14.89 4.06-14.44Q4.57-13.99 4.57-13.29Q4.57-12.59 4.06-12.14Q3.55-11.69 2.74-11.69Q1.93-11.69 1.43-12.14Q0.92-12.59 0.92-13.29ZM13.79-10.57L15.45-4.34L16.51-10.57L19.67-10.57L17.18 0L14.39 0L12.65-6.27L10.89 0L8.11 0L5.62-10.57L8.77-10.57L9.81-4.19L11.49-10.57L13.79-10.57ZM21.39-13.19L24.68-13.19L24.68-10.57L26.42-10.57L26.42-8.28L24.68-8.28L24.68-3.45Q24.68-2.85 24.89-2.62Q25.11-2.38 25.74-2.38L25.74-2.38Q26.23-2.38 26.56-2.44L26.56-2.44L26.56-0.09Q25.67 0.20 24.71 0.20L24.71 0.20Q23.01 0.20 22.20-0.61Q21.39-1.41 21.39-3.04L21.39-3.04L21.39-8.28L20.04-8.28L20.04-10.57L21.39-10.57L21.39-13.19Z"></path></g></g></svg>