<?xml version="1.0" encoding="UTF-8" standalone="no"?>
<svg
   width="14"
   height="14"
   viewBox="0 0 14 14"
   version="1.1"
   id="svg10"
   sodipodi:docname="failed_green.svg"
   inkscape:version="1.1 (c68e22c387, 2021-05-23)"
   inkscape:export-filename="/home/dosimont/git/alya-cicd/web/img/png/failed_green.png"
   inkscape:export-xdpi="300.29901"
   inkscape:export-ydpi="300.29901"
   xmlns:inkscape="http://www.inkscape.org/namespaces/inkscape"
   xmlns:sodipodi="http://sodipodi.sourceforge.net/DTD/sodipodi-0.dtd"
   xmlns="http://www.w3.org/2000/svg"
   xmlns:svg="http://www.w3.org/2000/svg">
  <defs
     id="defs14" />
  <sodipodi:namedview
     id="namedview12"
     pagecolor="#ffffff"
     bordercolor="#666666"
     borderopacity="1.0"
     inkscape:pageshadow="2"
     inkscape:pageopacity="0.0"
     inkscape:pagecheckerboard="0"
     showgrid="false"
     inkscape:zoom="55.428571"
     inkscape:cx="6.9909794"
     inkscape:cy="6.9909794"
     inkscape:window-width="2560"
     inkscape:window-height="1376"
     inkscape:window-x="0"
     inkscape:window-y="0"
     inkscape:window-maximized="1"
     inkscape:current-layer="g8" />
  <g
     fill-rule="evenodd"
     id="g8">
    <path
       d="M0 7a7 7 0 1 1 14 0A7 7 0 0 1 0 7z"
       id="path2"
       style="fill:#3eae3e;fill-opacity:1" />
    <path
       d="M13 7A6 6 0 1 0 1 7a6 6 0 0 0 12 0z"
       fill="#FFF"
       style="fill: var(--svg-status-bg, #fff);"
       id="path4" />
    <path
       d="M7 5.969L5.599 4.568a.29.29 0 0 0-.413.004l-.614.614a.294.294 0 0 0-.004.413L5.968 7l-1.4 1.401a.29.29 0 0 0 .004.413l.614.614c.113.114.3.117.413.004L7 8.032l1.401 1.4a.29.29 0 0 0 .413-.004l.614-.614a.294.294 0 0 0 .004-.413L8.032 7l1.4-1.401a.29.29 0 0 0-.004-.413l-.614-.614a.294.294 0 0 0-.413-.004L7 5.968z"
       id="path6"
       style="fill:#3eae3e;fill-opacity:1" />
  </g>
</svg>
