<?xml version="1.0" encoding="UTF-8" standalone="no"?>
<svg
   width="14"
   height="14"
   viewBox="0 0 14 14"
   version="1.1"
   id="svg19163"
   sodipodi:docname="manual.svg"
   inkscape:export-filename="/home/dosimont/git/alya-cicd/web/img/png/tolerance.png"
   inkscape:export-xdpi="300.29901"
   inkscape:export-ydpi="300.29901"
   inkscape:version="1.1.2 (0a00cf5339, 2022-02-04)"
   xmlns:inkscape="http://www.inkscape.org/namespaces/inkscape"
   xmlns:sodipodi="http://sodipodi.sourceforge.net/DTD/sodipodi-0.dtd"
   xmlns="http://www.w3.org/2000/svg"
   xmlns:svg="http://www.w3.org/2000/svg">
  <defs
     id="defs19167" />
  <sodipodi:namedview
     id="namedview19165"
     pagecolor="#ffffff"
     bordercolor="#666666"
     borderopacity="1.0"
     inkscape:pageshadow="2"
     inkscape:pageopacity="0.0"
     inkscape:pagecheckerboard="0"
     showgrid="false"
     inkscape:zoom="57.285714"
     inkscape:cx="6.9912718"
     inkscape:cy="7"
     inkscape:window-width="1920"
     inkscape:window-height="1011"
     inkscape:window-x="0"
     inkscape:window-y="0"
     inkscape:window-maximized="1"
     inkscape:current-layer="svg19163" />
  <g
     fill-rule="evenodd"
     id="g19161">
    <path
       d="M0 7a7 7 0 1 1 14 0A7 7 0 0 1 0 7z"
       id="path19155" />
    <path
       d="M13 7A6 6 0 1 0 1 7a6 6 0 0 0 12 0z"
       fill="#FFF"
       style="fill: var(--svg-status-bg, #fff);"
       id="path19157" />
    <path
       d="M10.5 7.63V6.37l-.787-.13c-.044-.175-.132-.349-.263-.61l.481-.652-.918-.913-.657.478a2.346 2.346 0 0 0-.612-.26L7.656 3.5H6.388l-.132.783c-.219.043-.394.13-.612.26l-.657-.478-.918.913.437.652c-.131.218-.175.392-.262.61l-.744.086v1.261l.787.13c.044.218.132.392.263.61l-.438.651.92.913.655-.434c.175.086.394.173.613.26l.131.783h1.313l.131-.783c.219-.043.394-.13.613-.26l.656.478.918-.913-.48-.652c.13-.218.218-.435.262-.61l.656-.13zM7 8.283a1.285 1.285 0 0 1-1.313-1.305c0-.739.57-1.304 1.313-1.304.744 0 1.313.565 1.313 1.304 0 .74-.57 1.305-1.313 1.305z"
       id="path19159" />
  </g>
</svg>
