<?xml version="1.0" encoding="UTF-8" standalone="no"?>
<svg
   width="14"
   height="14"
   viewBox="0 0 14 14"
   version="1.1"
   id="svg10"
   sodipodi:docname="success.svg"
   inkscape:export-filename="/home/dosimont/git/alya-cicd/web/img/svg/success.png"
   inkscape:export-xdpi="300.29901"
   inkscape:export-ydpi="300.29901"
   inkscape:version="1.1.2 (0a00cf5339, 2022-02-04)"
   xmlns:inkscape="http://www.inkscape.org/namespaces/inkscape"
   xmlns:sodipodi="http://sodipodi.sourceforge.net/DTD/sodipodi-0.dtd"
   xmlns="http://www.w3.org/2000/svg"
   xmlns:svg="http://www.w3.org/2000/svg">
  <defs
     id="defs14" />
  <sodipodi:namedview
     id="namedview12"
     pagecolor="#ffffff"
     bordercolor="#666666"
     borderopacity="1.0"
     inkscape:pageshadow="2"
     inkscape:pageopacity="0.0"
     inkscape:pagecheckerboard="0"
     showgrid="false"
     inkscape:zoom="57.285714"
     inkscape:cx="6.9912718"
     inkscape:cy="7"
     inkscape:window-width="1920"
     inkscape:window-height="1011"
     inkscape:window-x="0"
     inkscape:window-y="0"
     inkscape:window-maximized="1"
     inkscape:current-layer="g8" />
  <g
     fill-rule="evenodd"
     id="g8">
    <path
       d="M0 7a7 7 0 1 1 14 0A7 7 0 0 1 0 7z"
       id="path2"
       style="fill:#3eae3e;fill-opacity:1" />
    <path
       d="M13 7A6 6 0 1 0 1 7a6 6 0 0 0 12 0z"
       fill="#FFF"
       style="fill: var(--svg-status-bg, #fff);"
       id="path4" />
    <path
       d="M6.278 7.697L5.045 6.464a.296.296 0 0 0-.42-.002l-.613.614a.298.298 0 0 0 .002.42l1.91 1.909a.5.5 0 0 0 .703.005l.265-.265L9.997 6.04a.291.291 0 0 0-.009-.408l-.614-.614a.29.29 0 0 0-.408-.009L6.278 7.697z"
       id="path6"
       style="fill:#3eae3e;fill-opacity:1" />
  </g>
</svg>
