<?xml version="1.0" encoding="utf-8" standalone="no"?>
<!DOCTYPE svg PUBLIC "-//W3C//DTD SVG 1.1//EN"
  "http://www.w3.org/Graphics/SVG/1.1/DTD/svg11.dtd">
<svg xmlns:xlink="http://www.w3.org/1999/xlink" width="567.318055pt" height="242.03625pt" viewBox="0 0 567.318055 242.03625" xmlns="http://www.w3.org/2000/svg" version="1.1">
 <metadata>
  <rdf:RDF xmlns:dc="http://purl.org/dc/elements/1.1/" xmlns:cc="http://creativecommons.org/ns#" xmlns:rdf="http://www.w3.org/1999/02/22-rdf-syntax-ns#">
   <cc:Work>
    <dc:type rdf:resource="http://purl.org/dc/dcmitype/StillImage"/>
    <dc:date>2025-12-18T17:31:28.888307</dc:date>
    <dc:format>image/svg+xml</dc:format>
    <dc:creator>
     <cc:Agent>
      <dc:title>Matplotlib v3.10.0, https://matplotlib.org/</dc:title>
     </cc:Agent>
    </dc:creator>
   </cc:Work>
  </rdf:RDF>
 </metadata>
 <defs>
  <style type="text/css">*{stroke-linejoin: round; stroke-linecap: butt}</style>
 </defs>
 <g id="figure_1">
  <g id="patch_1">
   <path d="M 0 242.03625 
L 567.318055 242.03625 
L 567.318055 0 
L 0 0 
z
" style="fill: #ffffff"/>
  </g>
  <g id="axes_1">
   <g id="patch_2">
    <path d="M 51.378125 170.198125 
L 281.11204 170.198125 
L 281.11204 22.318125 
L 51.378125 22.318125 
z
" style="fill: #ffffff"/>
   </g>
   <g id="FillBetweenPolyCollection_1"/>
   <g id="matplotlib.axis_1">
    <g id="xtick_1">
     <g id="line2d_1">
      <defs>
       <path id="m18d973ae76" d="M 0 0 
L 0 3.5 
" style="stroke: #000000; stroke-width: 0.8"/>
      </defs>
      <g>
       <use xlink:href="#m18d973ae76" x="61.820576" y="170.198125" style="stroke: #000000; stroke-width: 0.8"/>
      </g>
     </g>
     <g id="text_1">
      <!-- 0 -->
      <g transform="translate(58.639326 184.796562) scale(0.1 -0.1)">
       <defs>
        <path id="DejaVuSans-30" d="M 2034 4250 
Q 1547 4250 1301 3770 
Q 1056 3291 1056 2328 
Q 1056 1369 1301 889 
Q 1547 409 2034 409 
Q 2525 409 2770 889 
Q 3016 1369 3016 2328 
Q 3016 3291 2770 3770 
Q 2525 4250 2034 4250 
z
M 2034 4750 
Q 2819 4750 3233 4129 
Q 3647 3509 3647 2328 
Q 3647 1150 3233 529 
Q 2819 -91 2034 -91 
Q 1250 -91 836 529 
Q 422 1150 422 2328 
Q 422 3509 836 4129 
Q 1250 4750 2034 4750 
z
" transform="scale(0.015625)"/>
       </defs>
       <use xlink:href="#DejaVuSans-30"/>
      </g>
     </g>
    </g>
    <g id="xtick_2">
     <g id="line2d_2">
      <g>
       <use xlink:href="#m18d973ae76" x="114.295202" y="170.198125" style="stroke: #000000; stroke-width: 0.8"/>
      </g>
     </g>
     <g id="text_2">
      <!-- 50 -->
      <g transform="translate(107.932702 184.796562) scale(0.1 -0.1)">
       <defs>
        <path id="DejaVuSans-35" d="M 691 4666 
L 3169 4666 
L 3169 4134 
L 1269 4134 
L 1269 2991 
Q 1406 3038 1543 3061 
Q 1681 3084 1819 3084 
Q 2600 3084 3056 2656 
Q 3513 2228 3513 1497 
Q 3513 744 3044 326 
Q 2575 -91 1722 -91 
Q 1428 -91 1123 -41 
Q 819 9 494 109 
L 494 744 
Q 775 591 1075 516 
Q 1375 441 1709 441 
Q 2250 441 2565 725 
Q 2881 1009 2881 1497 
Q 2881 1984 2565 2268 
Q 2250 2553 1709 2553 
Q 1456 2553 1204 2497 
Q 953 2441 691 2322 
L 691 4666 
z
" transform="scale(0.015625)"/>
       </defs>
       <use xlink:href="#DejaVuSans-35"/>
       <use xlink:href="#DejaVuSans-30" transform="translate(63.623047 0)"/>
      </g>
     </g>
    </g>
    <g id="xtick_3">
     <g id="line2d_3">
      <g>
       <use xlink:href="#m18d973ae76" x="166.769829" y="170.198125" style="stroke: #000000; stroke-width: 0.8"/>
      </g>
     </g>
     <g id="text_3">
      <!-- 100 -->
      <g transform="translate(157.226079 184.796562) scale(0.1 -0.1)">
       <defs>
        <path id="DejaVuSans-31" d="M 794 531 
L 1825 531 
L 1825 4091 
L 703 3866 
L 703 4441 
L 1819 4666 
L 2450 4666 
L 2450 531 
L 3481 531 
L 3481 0 
L 794 0 
L 794 531 
z
" transform="scale(0.015625)"/>
       </defs>
       <use xlink:href="#DejaVuSans-31"/>
       <use xlink:href="#DejaVuSans-30" transform="translate(63.623047 0)"/>
       <use xlink:href="#DejaVuSans-30" transform="translate(127.246094 0)"/>
      </g>
     </g>
    </g>
    <g id="xtick_4">
     <g id="line2d_4">
      <g>
       <use xlink:href="#m18d973ae76" x="219.244455" y="170.198125" style="stroke: #000000; stroke-width: 0.8"/>
      </g>
     </g>
     <g id="text_4">
      <!-- 150 -->
      <g transform="translate(209.700705 184.796562) scale(0.1 -0.1)">
       <use xlink:href="#DejaVuSans-31"/>
       <use xlink:href="#DejaVuSans-35" transform="translate(63.623047 0)"/>
       <use xlink:href="#DejaVuSans-30" transform="translate(127.246094 0)"/>
      </g>
     </g>
    </g>
    <g id="xtick_5">
     <g id="line2d_5">
      <g>
       <use xlink:href="#m18d973ae76" x="271.719082" y="170.198125" style="stroke: #000000; stroke-width: 0.8"/>
      </g>
     </g>
     <g id="text_5">
      <!-- 200 -->
      <g transform="translate(262.175332 184.796562) scale(0.1 -0.1)">
       <defs>
        <path id="DejaVuSans-32" d="M 1228 531 
L 3431 531 
L 3431 0 
L 469 0 
L 469 531 
Q 828 903 1448 1529 
Q 2069 2156 2228 2338 
Q 2531 2678 2651 2914 
Q 2772 3150 2772 3378 
Q 2772 3750 2511 3984 
Q 2250 4219 1831 4219 
Q 1534 4219 1204 4116 
Q 875 4013 500 3803 
L 500 4441 
Q 881 4594 1212 4672 
Q 1544 4750 1819 4750 
Q 2544 4750 2975 4387 
Q 3406 4025 3406 3419 
Q 3406 3131 3298 2873 
Q 3191 2616 2906 2266 
Q 2828 2175 2409 1742 
Q 1991 1309 1228 531 
z
" transform="scale(0.015625)"/>
       </defs>
       <use xlink:href="#DejaVuSans-32"/>
       <use xlink:href="#DejaVuSans-30" transform="translate(63.623047 0)"/>
       <use xlink:href="#DejaVuSans-30" transform="translate(127.246094 0)"/>
      </g>
     </g>
    </g>
    <g id="text_6">
     <!-- Epoch -->
     <g transform="translate(150.934145 198.474688) scale(0.1 -0.1)">
      <defs>
       <path id="DejaVuSans-45" d="M 628 4666 
L 3578 4666 
L 3578 4134 
L 1259 4134 
L 1259 2753 
L 3481 2753 
L 3481 2222 
L 1259 2222 
L 1259 531 
L 3634 531 
L 3634 0 
L 628 0 
L 628 4666 
z
" transform="scale(0.015625)"/>
       <path id="DejaVuSans-70" d="M 1159 525 
L 1159 -1331 
L 581 -1331 
L 581 3500 
L 1159 3500 
L 1159 2969 
Q 1341 3281 1617 3432 
Q 1894 3584 2278 3584 
Q 2916 3584 3314 3078 
Q 3713 2572 3713 1747 
Q 3713 922 3314 415 
Q 2916 -91 2278 -91 
Q 1894 -91 1617 61 
Q 1341 213 1159 525 
z
M 3116 1747 
Q 3116 2381 2855 2742 
Q 2594 3103 2138 3103 
Q 1681 3103 1420 2742 
Q 1159 2381 1159 1747 
Q 1159 1113 1420 752 
Q 1681 391 2138 391 
Q 2594 391 2855 752 
Q 3116 1113 3116 1747 
z
" transform="scale(0.015625)"/>
       <path id="DejaVuSans-6f" d="M 1959 3097 
Q 1497 3097 1228 2736 
Q 959 2375 959 1747 
Q 959 1119 1226 758 
Q 1494 397 1959 397 
Q 2419 397 2687 759 
Q 2956 1122 2956 1747 
Q 2956 2369 2687 2733 
Q 2419 3097 1959 3097 
z
M 1959 3584 
Q 2709 3584 3137 3096 
Q 3566 2609 3566 1747 
Q 3566 888 3137 398 
Q 2709 -91 1959 -91 
Q 1206 -91 779 398 
Q 353 888 353 1747 
Q 353 2609 779 3096 
Q 1206 3584 1959 3584 
z
" transform="scale(0.015625)"/>
       <path id="DejaVuSans-63" d="M 3122 3366 
L 3122 2828 
Q 2878 2963 2633 3030 
Q 2388 3097 2138 3097 
Q 1578 3097 1268 2742 
Q 959 2388 959 1747 
Q 959 1106 1268 751 
Q 1578 397 2138 397 
Q 2388 397 2633 464 
Q 2878 531 3122 666 
L 3122 134 
Q 2881 22 2623 -34 
Q 2366 -91 2075 -91 
Q 1284 -91 818 406 
Q 353 903 353 1747 
Q 353 2603 823 3093 
Q 1294 3584 2113 3584 
Q 2378 3584 2631 3529 
Q 2884 3475 3122 3366 
z
" transform="scale(0.015625)"/>
       <path id="DejaVuSans-68" d="M 3513 2113 
L 3513 0 
L 2938 0 
L 2938 2094 
Q 2938 2591 2744 2837 
Q 2550 3084 2163 3084 
Q 1697 3084 1428 2787 
Q 1159 2491 1159 1978 
L 1159 0 
L 581 0 
L 581 4863 
L 1159 4863 
L 1159 2956 
Q 1366 3272 1645 3428 
Q 1925 3584 2291 3584 
Q 2894 3584 3203 3211 
Q 3513 2838 3513 2113 
z
" transform="scale(0.015625)"/>
      </defs>
      <use xlink:href="#DejaVuSans-45"/>
      <use xlink:href="#DejaVuSans-70" transform="translate(63.183594 0)"/>
      <use xlink:href="#DejaVuSans-6f" transform="translate(126.660156 0)"/>
      <use xlink:href="#DejaVuSans-63" transform="translate(187.841797 0)"/>
      <use xlink:href="#DejaVuSans-68" transform="translate(242.822266 0)"/>
     </g>
    </g>
   </g>
   <g id="matplotlib.axis_2">
    <g id="ytick_1">
     <g id="line2d_6">
      <defs>
       <path id="medaf78d998" d="M 0 0 
L -3.5 0 
" style="stroke: #000000; stroke-width: 0.8"/>
      </defs>
      <g>
       <use xlink:href="#medaf78d998" x="51.378125" y="161.495453" style="stroke: #000000; stroke-width: 0.8"/>
      </g>
     </g>
     <g id="text_7">
      <!-- $\mathdefault{10^{-4}}$ -->
      <g transform="translate(20.878125 165.294672) scale(0.1 -0.1)">
       <defs>
        <path id="DejaVuSans-2212" d="M 678 2272 
L 4684 2272 
L 4684 1741 
L 678 1741 
L 678 2272 
z
" transform="scale(0.015625)"/>
        <path id="DejaVuSans-34" d="M 2419 4116 
L 825 1625 
L 2419 1625 
L 2419 4116 
z
M 2253 4666 
L 3047 4666 
L 3047 1625 
L 3713 1625 
L 3713 1100 
L 3047 1100 
L 3047 0 
L 2419 0 
L 2419 1100 
L 313 1100 
L 313 1709 
L 2253 4666 
z
" transform="scale(0.015625)"/>
       </defs>
       <use xlink:href="#DejaVuSans-31" transform="translate(0 0.684375)"/>
       <use xlink:href="#DejaVuSans-30" transform="translate(63.623047 0.684375)"/>
       <use xlink:href="#DejaVuSans-2212" transform="translate(128.203125 38.965625) scale(0.7)"/>
       <use xlink:href="#DejaVuSans-34" transform="translate(186.855469 38.965625) scale(0.7)"/>
      </g>
     </g>
    </g>
    <g id="ytick_2">
     <g id="line2d_7">
      <g>
       <use xlink:href="#medaf78d998" x="51.378125" y="129.634576" style="stroke: #000000; stroke-width: 0.8"/>
      </g>
     </g>
     <g id="text_8">
      <!-- $\mathdefault{10^{-3}}$ -->
      <g transform="translate(20.878125 133.433795) scale(0.1 -0.1)">
       <defs>
        <path id="DejaVuSans-33" d="M 2597 2516 
Q 3050 2419 3304 2112 
Q 3559 1806 3559 1356 
Q 3559 666 3084 287 
Q 2609 -91 1734 -91 
Q 1441 -91 1130 -33 
Q 819 25 488 141 
L 488 750 
Q 750 597 1062 519 
Q 1375 441 1716 441 
Q 2309 441 2620 675 
Q 2931 909 2931 1356 
Q 2931 1769 2642 2001 
Q 2353 2234 1838 2234 
L 1294 2234 
L 1294 2753 
L 1863 2753 
Q 2328 2753 2575 2939 
Q 2822 3125 2822 3475 
Q 2822 3834 2567 4026 
Q 2313 4219 1838 4219 
Q 1578 4219 1281 4162 
Q 984 4106 628 3988 
L 628 4550 
Q 988 4650 1302 4700 
Q 1616 4750 1894 4750 
Q 2613 4750 3031 4423 
Q 3450 4097 3450 3541 
Q 3450 3153 3228 2886 
Q 3006 2619 2597 2516 
z
" transform="scale(0.015625)"/>
       </defs>
       <use xlink:href="#DejaVuSans-31" transform="translate(0 0.765625)"/>
       <use xlink:href="#DejaVuSans-30" transform="translate(63.623047 0.765625)"/>
       <use xlink:href="#DejaVuSans-2212" transform="translate(128.203125 39.046875) scale(0.7)"/>
       <use xlink:href="#DejaVuSans-33" transform="translate(186.855469 39.046875) scale(0.7)"/>
      </g>
     </g>
    </g>
    <g id="ytick_3">
     <g id="line2d_8">
      <g>
       <use xlink:href="#medaf78d998" x="51.378125" y="97.773699" style="stroke: #000000; stroke-width: 0.8"/>
      </g>
     </g>
     <g id="text_9">
      <!-- $\mathdefault{10^{-2}}$ -->
      <g transform="translate(20.878125 101.572917) scale(0.1 -0.1)">
       <use xlink:href="#DejaVuSans-31" transform="translate(0 0.765625)"/>
       <use xlink:href="#DejaVuSans-30" transform="translate(63.623047 0.765625)"/>
       <use xlink:href="#DejaVuSans-2212" transform="translate(128.203125 39.046875) scale(0.7)"/>
       <use xlink:href="#DejaVuSans-32" transform="translate(186.855469 39.046875) scale(0.7)"/>
      </g>
     </g>
    </g>
    <g id="ytick_4">
     <g id="line2d_9">
      <g>
       <use xlink:href="#medaf78d998" x="51.378125" y="65.912821" style="stroke: #000000; stroke-width: 0.8"/>
      </g>
     </g>
     <g id="text_10">
      <!-- $\mathdefault{10^{-1}}$ -->
      <g transform="translate(20.878125 69.71204) scale(0.1 -0.1)">
       <use xlink:href="#DejaVuSans-31" transform="translate(0 0.684375)"/>
       <use xlink:href="#DejaVuSans-30" transform="translate(63.623047 0.684375)"/>
       <use xlink:href="#DejaVuSans-2212" transform="translate(128.203125 38.965625) scale(0.7)"/>
       <use xlink:href="#DejaVuSans-31" transform="translate(186.855469 38.965625) scale(0.7)"/>
      </g>
     </g>
    </g>
    <g id="ytick_5">
     <g id="line2d_10">
      <g>
       <use xlink:href="#medaf78d998" x="51.378125" y="34.051944" style="stroke: #000000; stroke-width: 0.8"/>
      </g>
     </g>
     <g id="text_11">
      <!-- $\mathdefault{10^{0}}$ -->
      <g transform="translate(26.778125 37.851163) scale(0.1 -0.1)">
       <use xlink:href="#DejaVuSans-31" transform="translate(0 0.765625)"/>
       <use xlink:href="#DejaVuSans-30" transform="translate(63.623047 0.765625)"/>
       <use xlink:href="#DejaVuSans-30" transform="translate(128.203125 39.046875) scale(0.7)"/>
      </g>
     </g>
    </g>
    <g id="ytick_6">
     <g id="line2d_11">
      <defs>
       <path id="m329fb976fb" d="M 0 0 
L -2 0 
" style="stroke: #000000; stroke-width: 0.6"/>
      </defs>
      <g>
       <use xlink:href="#m329fb976fb" x="51.378125" y="168.563749" style="stroke: #000000; stroke-width: 0.6"/>
      </g>
     </g>
    </g>
    <g id="ytick_7">
     <g id="line2d_12">
      <g>
       <use xlink:href="#m329fb976fb" x="51.378125" y="166.430766" style="stroke: #000000; stroke-width: 0.6"/>
      </g>
     </g>
    </g>
    <g id="ytick_8">
     <g id="line2d_13">
      <g>
       <use xlink:href="#m329fb976fb" x="51.378125" y="164.583091" style="stroke: #000000; stroke-width: 0.6"/>
      </g>
     </g>
    </g>
    <g id="ytick_9">
     <g id="line2d_14">
      <g>
       <use xlink:href="#m329fb976fb" x="51.378125" y="162.953327" style="stroke: #000000; stroke-width: 0.6"/>
      </g>
     </g>
    </g>
    <g id="ytick_10">
     <g id="line2d_15">
      <g>
       <use xlink:href="#m329fb976fb" x="51.378125" y="151.904374" style="stroke: #000000; stroke-width: 0.6"/>
      </g>
     </g>
    </g>
    <g id="ytick_11">
     <g id="line2d_16">
      <g>
       <use xlink:href="#m329fb976fb" x="51.378125" y="146.293952" style="stroke: #000000; stroke-width: 0.6"/>
      </g>
     </g>
    </g>
    <g id="ytick_12">
     <g id="line2d_17">
      <g>
       <use xlink:href="#m329fb976fb" x="51.378125" y="142.313294" style="stroke: #000000; stroke-width: 0.6"/>
      </g>
     </g>
    </g>
    <g id="ytick_13">
     <g id="line2d_18">
      <g>
       <use xlink:href="#m329fb976fb" x="51.378125" y="139.225656" style="stroke: #000000; stroke-width: 0.6"/>
      </g>
     </g>
    </g>
    <g id="ytick_14">
     <g id="line2d_19">
      <g>
       <use xlink:href="#m329fb976fb" x="51.378125" y="136.702872" style="stroke: #000000; stroke-width: 0.6"/>
      </g>
     </g>
    </g>
    <g id="ytick_15">
     <g id="line2d_20">
      <g>
       <use xlink:href="#m329fb976fb" x="51.378125" y="134.569888" style="stroke: #000000; stroke-width: 0.6"/>
      </g>
     </g>
    </g>
    <g id="ytick_16">
     <g id="line2d_21">
      <g>
       <use xlink:href="#m329fb976fb" x="51.378125" y="132.722214" style="stroke: #000000; stroke-width: 0.6"/>
      </g>
     </g>
    </g>
    <g id="ytick_17">
     <g id="line2d_22">
      <g>
       <use xlink:href="#m329fb976fb" x="51.378125" y="131.09245" style="stroke: #000000; stroke-width: 0.6"/>
      </g>
     </g>
    </g>
    <g id="ytick_18">
     <g id="line2d_23">
      <g>
       <use xlink:href="#m329fb976fb" x="51.378125" y="120.043496" style="stroke: #000000; stroke-width: 0.6"/>
      </g>
     </g>
    </g>
    <g id="ytick_19">
     <g id="line2d_24">
      <g>
       <use xlink:href="#m329fb976fb" x="51.378125" y="114.433074" style="stroke: #000000; stroke-width: 0.6"/>
      </g>
     </g>
    </g>
    <g id="ytick_20">
     <g id="line2d_25">
      <g>
       <use xlink:href="#m329fb976fb" x="51.378125" y="110.452416" style="stroke: #000000; stroke-width: 0.6"/>
      </g>
     </g>
    </g>
    <g id="ytick_21">
     <g id="line2d_26">
      <g>
       <use xlink:href="#m329fb976fb" x="51.378125" y="107.364778" style="stroke: #000000; stroke-width: 0.6"/>
      </g>
     </g>
    </g>
    <g id="ytick_22">
     <g id="line2d_27">
      <g>
       <use xlink:href="#m329fb976fb" x="51.378125" y="104.841994" style="stroke: #000000; stroke-width: 0.6"/>
      </g>
     </g>
    </g>
    <g id="ytick_23">
     <g id="line2d_28">
      <g>
       <use xlink:href="#m329fb976fb" x="51.378125" y="102.709011" style="stroke: #000000; stroke-width: 0.6"/>
      </g>
     </g>
    </g>
    <g id="ytick_24">
     <g id="line2d_29">
      <g>
       <use xlink:href="#m329fb976fb" x="51.378125" y="100.861337" style="stroke: #000000; stroke-width: 0.6"/>
      </g>
     </g>
    </g>
    <g id="ytick_25">
     <g id="line2d_30">
      <g>
       <use xlink:href="#m329fb976fb" x="51.378125" y="99.231572" style="stroke: #000000; stroke-width: 0.6"/>
      </g>
     </g>
    </g>
    <g id="ytick_26">
     <g id="line2d_31">
      <g>
       <use xlink:href="#m329fb976fb" x="51.378125" y="88.182619" style="stroke: #000000; stroke-width: 0.6"/>
      </g>
     </g>
    </g>
    <g id="ytick_27">
     <g id="line2d_32">
      <g>
       <use xlink:href="#m329fb976fb" x="51.378125" y="82.572197" style="stroke: #000000; stroke-width: 0.6"/>
      </g>
     </g>
    </g>
    <g id="ytick_28">
     <g id="line2d_33">
      <g>
       <use xlink:href="#m329fb976fb" x="51.378125" y="78.591539" style="stroke: #000000; stroke-width: 0.6"/>
      </g>
     </g>
    </g>
    <g id="ytick_29">
     <g id="line2d_34">
      <g>
       <use xlink:href="#m329fb976fb" x="51.378125" y="75.503901" style="stroke: #000000; stroke-width: 0.6"/>
      </g>
     </g>
    </g>
    <g id="ytick_30">
     <g id="line2d_35">
      <g>
       <use xlink:href="#m329fb976fb" x="51.378125" y="72.981117" style="stroke: #000000; stroke-width: 0.6"/>
      </g>
     </g>
    </g>
    <g id="ytick_31">
     <g id="line2d_36">
      <g>
       <use xlink:href="#m329fb976fb" x="51.378125" y="70.848134" style="stroke: #000000; stroke-width: 0.6"/>
      </g>
     </g>
    </g>
    <g id="ytick_32">
     <g id="line2d_37">
      <g>
       <use xlink:href="#m329fb976fb" x="51.378125" y="69.000459" style="stroke: #000000; stroke-width: 0.6"/>
      </g>
     </g>
    </g>
    <g id="ytick_33">
     <g id="line2d_38">
      <g>
       <use xlink:href="#m329fb976fb" x="51.378125" y="67.370695" style="stroke: #000000; stroke-width: 0.6"/>
      </g>
     </g>
    </g>
    <g id="ytick_34">
     <g id="line2d_39">
      <g>
       <use xlink:href="#m329fb976fb" x="51.378125" y="56.321741" style="stroke: #000000; stroke-width: 0.6"/>
      </g>
     </g>
    </g>
    <g id="ytick_35">
     <g id="line2d_40">
      <g>
       <use xlink:href="#m329fb976fb" x="51.378125" y="50.711319" style="stroke: #000000; stroke-width: 0.6"/>
      </g>
     </g>
    </g>
    <g id="ytick_36">
     <g id="line2d_41">
      <g>
       <use xlink:href="#m329fb976fb" x="51.378125" y="46.730662" style="stroke: #000000; stroke-width: 0.6"/>
      </g>
     </g>
    </g>
    <g id="ytick_37">
     <g id="line2d_42">
      <g>
       <use xlink:href="#m329fb976fb" x="51.378125" y="43.643024" style="stroke: #000000; stroke-width: 0.6"/>
      </g>
     </g>
    </g>
    <g id="ytick_38">
     <g id="line2d_43">
      <g>
       <use xlink:href="#m329fb976fb" x="51.378125" y="41.12024" style="stroke: #000000; stroke-width: 0.6"/>
      </g>
     </g>
    </g>
    <g id="ytick_39">
     <g id="line2d_44">
      <g>
       <use xlink:href="#m329fb976fb" x="51.378125" y="38.987256" style="stroke: #000000; stroke-width: 0.6"/>
      </g>
     </g>
    </g>
    <g id="ytick_40">
     <g id="line2d_45">
      <g>
       <use xlink:href="#m329fb976fb" x="51.378125" y="37.139582" style="stroke: #000000; stroke-width: 0.6"/>
      </g>
     </g>
    </g>
    <g id="ytick_41">
     <g id="line2d_46">
      <g>
       <use xlink:href="#m329fb976fb" x="51.378125" y="35.509818" style="stroke: #000000; stroke-width: 0.6"/>
      </g>
     </g>
    </g>
    <g id="ytick_42">
     <g id="line2d_47">
      <g>
       <use xlink:href="#m329fb976fb" x="51.378125" y="24.460864" style="stroke: #000000; stroke-width: 0.6"/>
      </g>
     </g>
    </g>
    <g id="text_12">
     <!-- Train Loss -->
     <g transform="translate(14.798438 120.808125) rotate(-90) scale(0.1 -0.1)">
      <defs>
       <path id="DejaVuSans-54" d="M -19 4666 
L 3928 4666 
L 3928 4134 
L 2272 4134 
L 2272 0 
L 1638 0 
L 1638 4134 
L -19 4134 
L -19 4666 
z
" transform="scale(0.015625)"/>
       <path id="DejaVuSans-72" d="M 2631 2963 
Q 2534 3019 2420 3045 
Q 2306 3072 2169 3072 
Q 1681 3072 1420 2755 
Q 1159 2438 1159 1844 
L 1159 0 
L 581 0 
L 581 3500 
L 1159 3500 
L 1159 2956 
Q 1341 3275 1631 3429 
Q 1922 3584 2338 3584 
Q 2397 3584 2469 3576 
Q 2541 3569 2628 3553 
L 2631 2963 
z
" transform="scale(0.015625)"/>
       <path id="DejaVuSans-61" d="M 2194 1759 
Q 1497 1759 1228 1600 
Q 959 1441 959 1056 
Q 959 750 1161 570 
Q 1363 391 1709 391 
Q 2188 391 2477 730 
Q 2766 1069 2766 1631 
L 2766 1759 
L 2194 1759 
z
M 3341 1997 
L 3341 0 
L 2766 0 
L 2766 531 
Q 2569 213 2275 61 
Q 1981 -91 1556 -91 
Q 1019 -91 701 211 
Q 384 513 384 1019 
Q 384 1609 779 1909 
Q 1175 2209 1959 2209 
L 2766 2209 
L 2766 2266 
Q 2766 2663 2505 2880 
Q 2244 3097 1772 3097 
Q 1472 3097 1187 3025 
Q 903 2953 641 2809 
L 641 3341 
Q 956 3463 1253 3523 
Q 1550 3584 1831 3584 
Q 2591 3584 2966 3190 
Q 3341 2797 3341 1997 
z
" transform="scale(0.015625)"/>
       <path id="DejaVuSans-69" d="M 603 3500 
L 1178 3500 
L 1178 0 
L 603 0 
L 603 3500 
z
M 603 4863 
L 1178 4863 
L 1178 4134 
L 603 4134 
L 603 4863 
z
" transform="scale(0.015625)"/>
       <path id="DejaVuSans-6e" d="M 3513 2113 
L 3513 0 
L 2938 0 
L 2938 2094 
Q 2938 2591 2744 2837 
Q 2550 3084 2163 3084 
Q 1697 3084 1428 2787 
Q 1159 2491 1159 1978 
L 1159 0 
L 581 0 
L 581 3500 
L 1159 3500 
L 1159 2956 
Q 1366 3272 1645 3428 
Q 1925 3584 2291 3584 
Q 2894 3584 3203 3211 
Q 3513 2838 3513 2113 
z
" transform="scale(0.015625)"/>
       <path id="DejaVuSans-20" transform="scale(0.015625)"/>
       <path id="DejaVuSans-4c" d="M 628 4666 
L 1259 4666 
L 1259 531 
L 3531 531 
L 3531 0 
L 628 0 
L 628 4666 
z
" transform="scale(0.015625)"/>
       <path id="DejaVuSans-73" d="M 2834 3397 
L 2834 2853 
Q 2591 2978 2328 3040 
Q 2066 3103 1784 3103 
Q 1356 3103 1142 2972 
Q 928 2841 928 2578 
Q 928 2378 1081 2264 
Q 1234 2150 1697 2047 
L 1894 2003 
Q 2506 1872 2764 1633 
Q 3022 1394 3022 966 
Q 3022 478 2636 193 
Q 2250 -91 1575 -91 
Q 1294 -91 989 -36 
Q 684 19 347 128 
L 347 722 
Q 666 556 975 473 
Q 1284 391 1588 391 
Q 1994 391 2212 530 
Q 2431 669 2431 922 
Q 2431 1156 2273 1281 
Q 2116 1406 1581 1522 
L 1381 1569 
Q 847 1681 609 1914 
Q 372 2147 372 2553 
Q 372 3047 722 3315 
Q 1072 3584 1716 3584 
Q 2034 3584 2315 3537 
Q 2597 3491 2834 3397 
z
" transform="scale(0.015625)"/>
      </defs>
      <use xlink:href="#DejaVuSans-54"/>
      <use xlink:href="#DejaVuSans-72" transform="translate(46.333984 0)"/>
      <use xlink:href="#DejaVuSans-61" transform="translate(87.447266 0)"/>
      <use xlink:href="#DejaVuSans-69" transform="translate(148.726562 0)"/>
      <use xlink:href="#DejaVuSans-6e" transform="translate(176.509766 0)"/>
      <use xlink:href="#DejaVuSans-20" transform="translate(239.888672 0)"/>
      <use xlink:href="#DejaVuSans-4c" transform="translate(271.675781 0)"/>
      <use xlink:href="#DejaVuSans-6f" transform="translate(325.638672 0)"/>
      <use xlink:href="#DejaVuSans-73" transform="translate(386.820312 0)"/>
      <use xlink:href="#DejaVuSans-73" transform="translate(438.919922 0)"/>
     </g>
    </g>
   </g>
   <g id="line2d_48">
    <path d="M 61.820576 34.497099 
L 62.870068 41.97017 
L 63.919561 36.615653 
L 64.969053 39.10083 
L 66.018546 42.451252 
L 67.068038 40.497103 
L 68.117531 38.26317 
L 70.216516 45.168582 
L 71.266008 42.813068 
L 72.315501 29.039943 
L 73.364993 48.332638 
L 74.414486 44.599529 
L 75.463979 36.050716 
L 76.513471 51.440763 
L 77.562964 59.840061 
L 78.612456 37.64403 
L 79.661949 40.798481 
L 80.711441 56.931105 
L 81.760934 61.447185 
L 82.810426 47.412082 
L 83.859919 46.70467 
L 84.909411 43.920512 
L 85.958904 50.523756 
L 87.008396 41.833196 
L 88.057889 53.670512 
L 89.107381 36.580783 
L 90.156874 51.385363 
L 91.206367 52.027285 
L 92.255859 42.628781 
L 93.305352 49.191116 
L 94.354844 45.442948 
L 95.404337 54.891078 
L 96.453829 47.43224 
L 97.503322 48.443294 
L 98.552814 38.161944 
L 99.602307 58.412982 
L 100.651799 51.613841 
L 101.701292 39.269089 
L 102.750784 41.477009 
L 103.800277 78.18298 
L 104.849769 78.031534 
L 105.899262 63.421209 
L 106.948754 56.5723 
L 107.998247 39.53378 
L 109.04774 44.209871 
L 110.097232 54.660556 
L 111.146725 53.572067 
L 112.196217 51.281645 
L 113.24571 66.476687 
L 114.295202 38.946313 
L 115.344695 60.775399 
L 116.394187 62.205749 
L 117.44368 58.688213 
L 118.493172 38.203509 
L 119.542665 41.877523 
L 120.592157 63.981647 
L 121.64165 44.213819 
L 122.691142 83.283783 
L 123.740635 66.874073 
L 124.790127 70.191779 
L 125.83962 55.384461 
L 126.889113 43.339128 
L 127.938605 48.574457 
L 128.988098 48.316121 
L 130.03759 73.148206 
L 132.136575 52.015845 
L 133.186068 52.585681 
L 134.23556 55.188768 
L 135.285053 69.834411 
L 136.334545 68.617371 
L 137.384038 52.684327 
L 138.43353 89.253565 
L 139.483023 90.222795 
L 140.532515 99.03089 
L 141.582008 58.945932 
L 142.6315 56.343806 
L 143.680993 60.724511 
L 145.779978 49.412919 
L 146.829471 68.941591 
L 147.878963 73.506994 
L 148.928456 73.035845 
L 149.977948 79.012914 
L 151.027441 47.122968 
L 152.076933 65.05732 
L 153.126426 89.413954 
L 154.175918 79.16302 
L 155.225411 90.027653 
L 156.274903 62.920358 
L 157.324396 73.458454 
L 158.373888 91.169256 
L 159.423381 92.163736 
L 160.472873 83.301894 
L 161.522366 72.936595 
L 162.571859 94.333856 
L 163.621351 97.6938 
L 164.670844 104.340192 
L 165.720336 73.250721 
L 166.769829 103.168915 
L 167.819321 92.85718 
L 168.868814 103.479421 
L 169.918306 78.372257 
L 170.967799 82.654059 
L 172.017291 115.309123 
L 173.066784 93.100525 
L 174.116276 79.972744 
L 175.165769 107.440553 
L 176.215261 114.048961 
L 177.264754 108.616773 
L 178.314246 91.664575 
L 179.363739 72.705952 
L 180.413232 104.539302 
L 181.462724 113.754 
L 182.512217 95.940678 
L 183.561709 86.337852 
L 184.611202 135.311849 
L 185.660694 97.921832 
L 186.710187 128.897863 
L 187.759679 82.365652 
L 188.809172 89.499894 
L 189.858664 106.756019 
L 190.908157 96.780808 
L 191.957649 143.761062 
L 193.007142 115.308663 
L 194.056634 133.939908 
L 195.106127 126.762434 
L 196.155619 121.085762 
L 197.205112 99.784251 
L 198.254605 61.503659 
L 199.304097 75.44973 
L 200.35359 114.999972 
L 201.403082 123.558339 
L 202.452575 111.150987 
L 203.502067 115.261237 
L 204.55156 93.754484 
L 205.601052 113.411647 
L 206.650545 121.619654 
L 207.700037 108.091022 
L 208.74953 53.701879 
L 209.799022 158.560451 
L 210.848515 99.31665 
L 211.898007 69.981075 
L 212.9475 69.655688 
L 213.996992 82.138037 
L 215.046485 132.311897 
L 216.095978 143.939194 
L 217.14547 101.449834 
L 218.194963 125.841328 
L 219.244455 99.881764 
L 220.293948 132.515287 
L 221.34344 161.139611 
L 222.392933 129.600008 
L 223.442425 108.774308 
L 224.491918 140.483389 
L 225.54141 148.344883 
L 227.640395 101.740329 
L 228.689888 139.273042 
L 229.73938 150.385813 
L 230.788873 147.372538 
L 231.838365 136.542227 
L 232.887858 127.095773 
L 233.937351 119.710626 
L 234.986843 94.844378 
L 236.036336 158.01365 
L 237.085828 163.476307 
L 238.135321 135.807386 
L 239.184813 148.191237 
L 240.234306 122.776713 
L 241.283798 138.410935 
L 242.333291 111.316677 
L 243.382783 133.837097 
L 244.432276 148.355007 
L 245.481768 87.611123 
L 246.531261 140.775681 
L 247.580753 125.444567 
L 248.630246 144.056144 
L 249.679738 107.590717 
L 250.729231 119.238367 
L 251.778724 121.611359 
L 252.828216 115.158351 
L 253.877709 147.237873 
L 254.927201 94.693118 
L 255.976694 133.47627 
L 257.026186 121.47509 
L 258.075679 127.519322 
L 259.125171 124.455801 
L 260.174664 157.481071 
L 261.224156 136.1737 
L 262.273649 89.344592 
L 263.323141 122.442236 
L 264.372634 141.111953 
L 265.422126 148.949717 
L 266.471619 120.228728 
L 267.521111 96.148758 
L 268.570604 139.013085 
L 269.620097 149.259907 
L 270.669589 109.295817 
L 270.669589 109.295817 
" clip-path="url(#p986dde7eec)" style="fill: none; stroke: #1f77b4; stroke-opacity: 0.8; stroke-width: 1.5; stroke-linecap: square"/>
   </g>
   <g id="line2d_49"/>
   <g id="patch_3">
    <path d="M 51.378125 170.198125 
L 51.378125 22.318125 
" style="fill: none; stroke: #000000; stroke-width: 0.8; stroke-linejoin: miter; stroke-linecap: square"/>
   </g>
   <g id="patch_4">
    <path d="M 281.11204 170.198125 
L 281.11204 22.318125 
" style="fill: none; stroke: #000000; stroke-width: 0.8; stroke-linejoin: miter; stroke-linecap: square"/>
   </g>
   <g id="patch_5">
    <path d="M 51.378125 170.198125 
L 281.11204 170.198125 
" style="fill: none; stroke: #000000; stroke-width: 0.8; stroke-linejoin: miter; stroke-linecap: square"/>
   </g>
   <g id="patch_6">
    <path d="M 51.378125 22.318125 
L 281.11204 22.318125 
" style="fill: none; stroke: #000000; stroke-width: 0.8; stroke-linejoin: miter; stroke-linecap: square"/>
   </g>
   <g id="text_13">
    <!-- Train Loss -->
    <g transform="translate(136.785082 16.318125) scale(0.12 -0.12)">
     <use xlink:href="#DejaVuSans-54"/>
     <use xlink:href="#DejaVuSans-72" transform="translate(46.333984 0)"/>
     <use xlink:href="#DejaVuSans-61" transform="translate(87.447266 0)"/>
     <use xlink:href="#DejaVuSans-69" transform="translate(148.726562 0)"/>
     <use xlink:href="#DejaVuSans-6e" transform="translate(176.509766 0)"/>
     <use xlink:href="#DejaVuSans-20" transform="translate(239.888672 0)"/>
     <use xlink:href="#DejaVuSans-4c" transform="translate(271.675781 0)"/>
     <use xlink:href="#DejaVuSans-6f" transform="translate(325.638672 0)"/>
     <use xlink:href="#DejaVuSans-73" transform="translate(386.820312 0)"/>
     <use xlink:href="#DejaVuSans-73" transform="translate(438.919922 0)"/>
    </g>
   </g>
  </g>
  <g id="axes_2">
   <g id="patch_7">
    <path d="M 330.233348 170.198125 
L 559.967263 170.198125 
L 559.967263 22.318125 
L 330.233348 22.318125 
z
" style="fill: #ffffff"/>
   </g>
   <g id="FillBetweenPolyCollection_2"/>
   <g id="matplotlib.axis_3">
    <g id="xtick_6">
     <g id="line2d_50">
      <g>
       <use xlink:href="#m18d973ae76" x="340.675799" y="170.198125" style="stroke: #000000; stroke-width: 0.8"/>
      </g>
     </g>
     <g id="text_14">
      <!-- 0 -->
      <g transform="translate(337.494549 184.796562) scale(0.1 -0.1)">
       <use xlink:href="#DejaVuSans-30"/>
      </g>
     </g>
    </g>
    <g id="xtick_7">
     <g id="line2d_51">
      <g>
       <use xlink:href="#m18d973ae76" x="393.150425" y="170.198125" style="stroke: #000000; stroke-width: 0.8"/>
      </g>
     </g>
     <g id="text_15">
      <!-- 50 -->
      <g transform="translate(386.787925 184.796562) scale(0.1 -0.1)">
       <use xlink:href="#DejaVuSans-35"/>
       <use xlink:href="#DejaVuSans-30" transform="translate(63.623047 0)"/>
      </g>
     </g>
    </g>
    <g id="xtick_8">
     <g id="line2d_52">
      <g>
       <use xlink:href="#m18d973ae76" x="445.625052" y="170.198125" style="stroke: #000000; stroke-width: 0.8"/>
      </g>
     </g>
     <g id="text_16">
      <!-- 100 -->
      <g transform="translate(436.081302 184.796562) scale(0.1 -0.1)">
       <use xlink:href="#DejaVuSans-31"/>
       <use xlink:href="#DejaVuSans-30" transform="translate(63.623047 0)"/>
       <use xlink:href="#DejaVuSans-30" transform="translate(127.246094 0)"/>
      </g>
     </g>
    </g>
    <g id="xtick_9">
     <g id="line2d_53">
      <g>
       <use xlink:href="#m18d973ae76" x="498.099678" y="170.198125" style="stroke: #000000; stroke-width: 0.8"/>
      </g>
     </g>
     <g id="text_17">
      <!-- 150 -->
      <g transform="translate(488.555928 184.796562) scale(0.1 -0.1)">
       <use xlink:href="#DejaVuSans-31"/>
       <use xlink:href="#DejaVuSans-35" transform="translate(63.623047 0)"/>
       <use xlink:href="#DejaVuSans-30" transform="translate(127.246094 0)"/>
      </g>
     </g>
    </g>
    <g id="xtick_10">
     <g id="line2d_54">
      <g>
       <use xlink:href="#m18d973ae76" x="550.574305" y="170.198125" style="stroke: #000000; stroke-width: 0.8"/>
      </g>
     </g>
     <g id="text_18">
      <!-- 200 -->
      <g transform="translate(541.030555 184.796562) scale(0.1 -0.1)">
       <use xlink:href="#DejaVuSans-32"/>
       <use xlink:href="#DejaVuSans-30" transform="translate(63.623047 0)"/>
       <use xlink:href="#DejaVuSans-30" transform="translate(127.246094 0)"/>
      </g>
     </g>
    </g>
    <g id="text_19">
     <!-- Epoch -->
     <g transform="translate(429.789368 198.474688) scale(0.1 -0.1)">
      <use xlink:href="#DejaVuSans-45"/>
      <use xlink:href="#DejaVuSans-70" transform="translate(63.183594 0)"/>
      <use xlink:href="#DejaVuSans-6f" transform="translate(126.660156 0)"/>
      <use xlink:href="#DejaVuSans-63" transform="translate(187.841797 0)"/>
      <use xlink:href="#DejaVuSans-68" transform="translate(242.822266 0)"/>
     </g>
    </g>
   </g>
   <g id="matplotlib.axis_4">
    <g id="ytick_43">
     <g id="line2d_55">
      <g>
       <use xlink:href="#medaf78d998" x="330.233348" y="165.555218" style="stroke: #000000; stroke-width: 0.8"/>
      </g>
     </g>
     <g id="text_20">
      <!-- 0.5 -->
      <g transform="translate(307.330223 169.354436) scale(0.1 -0.1)">
       <defs>
        <path id="DejaVuSans-2e" d="M 684 794 
L 1344 794 
L 1344 0 
L 684 0 
L 684 794 
z
" transform="scale(0.015625)"/>
       </defs>
       <use xlink:href="#DejaVuSans-30"/>
       <use xlink:href="#DejaVuSans-2e" transform="translate(63.623047 0)"/>
       <use xlink:href="#DejaVuSans-35" transform="translate(95.410156 0)"/>
      </g>
     </g>
    </g>
    <g id="ytick_44">
     <g id="line2d_56">
      <g>
       <use xlink:href="#medaf78d998" x="330.233348" y="137.836381" style="stroke: #000000; stroke-width: 0.8"/>
      </g>
     </g>
     <g id="text_21">
      <!-- 0.6 -->
      <g transform="translate(307.330223 141.635599) scale(0.1 -0.1)">
       <defs>
        <path id="DejaVuSans-36" d="M 2113 2584 
Q 1688 2584 1439 2293 
Q 1191 2003 1191 1497 
Q 1191 994 1439 701 
Q 1688 409 2113 409 
Q 2538 409 2786 701 
Q 3034 994 3034 1497 
Q 3034 2003 2786 2293 
Q 2538 2584 2113 2584 
z
M 3366 4563 
L 3366 3988 
Q 3128 4100 2886 4159 
Q 2644 4219 2406 4219 
Q 1781 4219 1451 3797 
Q 1122 3375 1075 2522 
Q 1259 2794 1537 2939 
Q 1816 3084 2150 3084 
Q 2853 3084 3261 2657 
Q 3669 2231 3669 1497 
Q 3669 778 3244 343 
Q 2819 -91 2113 -91 
Q 1303 -91 875 529 
Q 447 1150 447 2328 
Q 447 3434 972 4092 
Q 1497 4750 2381 4750 
Q 2619 4750 2861 4703 
Q 3103 4656 3366 4563 
z
" transform="scale(0.015625)"/>
       </defs>
       <use xlink:href="#DejaVuSans-30"/>
       <use xlink:href="#DejaVuSans-2e" transform="translate(63.623047 0)"/>
       <use xlink:href="#DejaVuSans-36" transform="translate(95.410156 0)"/>
      </g>
     </g>
    </g>
    <g id="ytick_45">
     <g id="line2d_57">
      <g>
       <use xlink:href="#medaf78d998" x="330.233348" y="110.117544" style="stroke: #000000; stroke-width: 0.8"/>
      </g>
     </g>
     <g id="text_22">
      <!-- 0.7 -->
      <g transform="translate(307.330223 113.916762) scale(0.1 -0.1)">
       <defs>
        <path id="DejaVuSans-37" d="M 525 4666 
L 3525 4666 
L 3525 4397 
L 1831 0 
L 1172 0 
L 2766 4134 
L 525 4134 
L 525 4666 
z
" transform="scale(0.015625)"/>
       </defs>
       <use xlink:href="#DejaVuSans-30"/>
       <use xlink:href="#DejaVuSans-2e" transform="translate(63.623047 0)"/>
       <use xlink:href="#DejaVuSans-37" transform="translate(95.410156 0)"/>
      </g>
     </g>
    </g>
    <g id="ytick_46">
     <g id="line2d_58">
      <g>
       <use xlink:href="#medaf78d998" x="330.233348" y="82.398706" style="stroke: #000000; stroke-width: 0.8"/>
      </g>
     </g>
     <g id="text_23">
      <!-- 0.8 -->
      <g transform="translate(307.330223 86.197925) scale(0.1 -0.1)">
       <defs>
        <path id="DejaVuSans-38" d="M 2034 2216 
Q 1584 2216 1326 1975 
Q 1069 1734 1069 1313 
Q 1069 891 1326 650 
Q 1584 409 2034 409 
Q 2484 409 2743 651 
Q 3003 894 3003 1313 
Q 3003 1734 2745 1975 
Q 2488 2216 2034 2216 
z
M 1403 2484 
Q 997 2584 770 2862 
Q 544 3141 544 3541 
Q 544 4100 942 4425 
Q 1341 4750 2034 4750 
Q 2731 4750 3128 4425 
Q 3525 4100 3525 3541 
Q 3525 3141 3298 2862 
Q 3072 2584 2669 2484 
Q 3125 2378 3379 2068 
Q 3634 1759 3634 1313 
Q 3634 634 3220 271 
Q 2806 -91 2034 -91 
Q 1263 -91 848 271 
Q 434 634 434 1313 
Q 434 1759 690 2068 
Q 947 2378 1403 2484 
z
M 1172 3481 
Q 1172 3119 1398 2916 
Q 1625 2713 2034 2713 
Q 2441 2713 2670 2916 
Q 2900 3119 2900 3481 
Q 2900 3844 2670 4047 
Q 2441 4250 2034 4250 
Q 1625 4250 1398 4047 
Q 1172 3844 1172 3481 
z
" transform="scale(0.015625)"/>
       </defs>
       <use xlink:href="#DejaVuSans-30"/>
       <use xlink:href="#DejaVuSans-2e" transform="translate(63.623047 0)"/>
       <use xlink:href="#DejaVuSans-38" transform="translate(95.410156 0)"/>
      </g>
     </g>
    </g>
    <g id="ytick_47">
     <g id="line2d_59">
      <g>
       <use xlink:href="#medaf78d998" x="330.233348" y="54.679869" style="stroke: #000000; stroke-width: 0.8"/>
      </g>
     </g>
     <g id="text_24">
      <!-- 0.9 -->
      <g transform="translate(307.330223 58.479088) scale(0.1 -0.1)">
       <defs>
        <path id="DejaVuSans-39" d="M 703 97 
L 703 672 
Q 941 559 1184 500 
Q 1428 441 1663 441 
Q 2288 441 2617 861 
Q 2947 1281 2994 2138 
Q 2813 1869 2534 1725 
Q 2256 1581 1919 1581 
Q 1219 1581 811 2004 
Q 403 2428 403 3163 
Q 403 3881 828 4315 
Q 1253 4750 1959 4750 
Q 2769 4750 3195 4129 
Q 3622 3509 3622 2328 
Q 3622 1225 3098 567 
Q 2575 -91 1691 -91 
Q 1453 -91 1209 -44 
Q 966 3 703 97 
z
M 1959 2075 
Q 2384 2075 2632 2365 
Q 2881 2656 2881 3163 
Q 2881 3666 2632 3958 
Q 2384 4250 1959 4250 
Q 1534 4250 1286 3958 
Q 1038 3666 1038 3163 
Q 1038 2656 1286 2365 
Q 1534 2075 1959 2075 
z
" transform="scale(0.015625)"/>
       </defs>
       <use xlink:href="#DejaVuSans-30"/>
       <use xlink:href="#DejaVuSans-2e" transform="translate(63.623047 0)"/>
       <use xlink:href="#DejaVuSans-39" transform="translate(95.410156 0)"/>
      </g>
     </g>
    </g>
    <g id="ytick_48">
     <g id="line2d_60">
      <g>
       <use xlink:href="#medaf78d998" x="330.233348" y="26.961032" style="stroke: #000000; stroke-width: 0.8"/>
      </g>
     </g>
     <g id="text_25">
      <!-- 1.0 -->
      <g transform="translate(307.330223 30.760251) scale(0.1 -0.1)">
       <use xlink:href="#DejaVuSans-31"/>
       <use xlink:href="#DejaVuSans-2e" transform="translate(63.623047 0)"/>
       <use xlink:href="#DejaVuSans-30" transform="translate(95.410156 0)"/>
      </g>
     </g>
    </g>
    <g id="text_26">
     <!-- Test Accuracy -->
     <g transform="translate(301.250536 130.520625) rotate(-90) scale(0.1 -0.1)">
      <defs>
       <path id="DejaVuSans-65" d="M 3597 1894 
L 3597 1613 
L 953 1613 
Q 991 1019 1311 708 
Q 1631 397 2203 397 
Q 2534 397 2845 478 
Q 3156 559 3463 722 
L 3463 178 
Q 3153 47 2828 -22 
Q 2503 -91 2169 -91 
Q 1331 -91 842 396 
Q 353 884 353 1716 
Q 353 2575 817 3079 
Q 1281 3584 2069 3584 
Q 2775 3584 3186 3129 
Q 3597 2675 3597 1894 
z
M 3022 2063 
Q 3016 2534 2758 2815 
Q 2500 3097 2075 3097 
Q 1594 3097 1305 2825 
Q 1016 2553 972 2059 
L 3022 2063 
z
" transform="scale(0.015625)"/>
       <path id="DejaVuSans-74" d="M 1172 4494 
L 1172 3500 
L 2356 3500 
L 2356 3053 
L 1172 3053 
L 1172 1153 
Q 1172 725 1289 603 
Q 1406 481 1766 481 
L 2356 481 
L 2356 0 
L 1766 0 
Q 1100 0 847 248 
Q 594 497 594 1153 
L 594 3053 
L 172 3053 
L 172 3500 
L 594 3500 
L 594 4494 
L 1172 4494 
z
" transform="scale(0.015625)"/>
       <path id="DejaVuSans-41" d="M 2188 4044 
L 1331 1722 
L 3047 1722 
L 2188 4044 
z
M 1831 4666 
L 2547 4666 
L 4325 0 
L 3669 0 
L 3244 1197 
L 1141 1197 
L 716 0 
L 50 0 
L 1831 4666 
z
" transform="scale(0.015625)"/>
       <path id="DejaVuSans-75" d="M 544 1381 
L 544 3500 
L 1119 3500 
L 1119 1403 
Q 1119 906 1312 657 
Q 1506 409 1894 409 
Q 2359 409 2629 706 
Q 2900 1003 2900 1516 
L 2900 3500 
L 3475 3500 
L 3475 0 
L 2900 0 
L 2900 538 
Q 2691 219 2414 64 
Q 2138 -91 1772 -91 
Q 1169 -91 856 284 
Q 544 659 544 1381 
z
M 1991 3584 
L 1991 3584 
z
" transform="scale(0.015625)"/>
       <path id="DejaVuSans-79" d="M 2059 -325 
Q 1816 -950 1584 -1140 
Q 1353 -1331 966 -1331 
L 506 -1331 
L 506 -850 
L 844 -850 
Q 1081 -850 1212 -737 
Q 1344 -625 1503 -206 
L 1606 56 
L 191 3500 
L 800 3500 
L 1894 763 
L 2988 3500 
L 3597 3500 
L 2059 -325 
z
" transform="scale(0.015625)"/>
      </defs>
      <use xlink:href="#DejaVuSans-54"/>
      <use xlink:href="#DejaVuSans-65" transform="translate(44.083984 0)"/>
      <use xlink:href="#DejaVuSans-73" transform="translate(105.607422 0)"/>
      <use xlink:href="#DejaVuSans-74" transform="translate(157.707031 0)"/>
      <use xlink:href="#DejaVuSans-20" transform="translate(196.916016 0)"/>
      <use xlink:href="#DejaVuSans-41" transform="translate(228.703125 0)"/>
      <use xlink:href="#DejaVuSans-63" transform="translate(295.361328 0)"/>
      <use xlink:href="#DejaVuSans-63" transform="translate(350.341797 0)"/>
      <use xlink:href="#DejaVuSans-75" transform="translate(405.322266 0)"/>
      <use xlink:href="#DejaVuSans-72" transform="translate(468.701172 0)"/>
      <use xlink:href="#DejaVuSans-61" transform="translate(509.814453 0)"/>
      <use xlink:href="#DejaVuSans-63" transform="translate(571.09375 0)"/>
      <use xlink:href="#DejaVuSans-79" transform="translate(626.074219 0)"/>
     </g>
    </g>
   </g>
   <g id="line2d_61">
    <path d="M 340.675799 163.476307 
L 341.725291 154.467677 
L 342.774784 146.845004 
L 343.824276 142.687182 
L 344.873769 125.362909 
L 345.923261 121.205071 
L 348.022246 91.407333 
L 349.071739 81.705733 
L 350.121231 76.161971 
L 351.170724 74.08306 
L 352.220217 69.925222 
L 353.269709 76.161971 
L 354.319202 78.240882 
L 355.368694 73.39009 
L 356.418187 71.311179 
L 357.467679 63.688489 
L 358.517172 63.688489 
L 359.566664 62.302549 
L 360.616157 56.065817 
L 361.665649 63.688489 
L 362.715142 65.07443 
L 363.764634 56.065817 
L 364.814127 56.758787 
L 365.863619 62.995519 
L 366.913112 57.451757 
L 367.962604 60.916608 
L 369.012097 66.460371 
L 370.06159 58.144727 
L 371.111082 54.679876 
L 372.160575 63.688489 
L 373.210067 62.995519 
L 374.25956 62.995519 
L 375.309052 60.223638 
L 376.358545 61.609579 
L 377.408037 65.7674 
L 378.45753 62.995519 
L 379.507022 56.065817 
L 380.556515 53.986906 
L 381.606007 62.302549 
L 382.6555 60.916608 
L 384.754485 60.916608 
L 385.803977 64.38146 
L 386.85347 56.065817 
L 387.902963 61.609579 
L 388.952455 60.916608 
L 390.001948 58.144727 
L 392.100933 62.302549 
L 393.150425 62.995519 
L 394.199918 60.223638 
L 395.24941 56.758787 
L 397.348395 53.986906 
L 398.397888 58.144727 
L 399.44738 56.065817 
L 400.496873 56.065817 
L 401.546365 55.372846 
L 402.595858 57.451757 
L 403.64535 57.451757 
L 404.694843 58.837698 
L 405.744336 56.758787 
L 406.793828 53.293936 
L 407.843321 52.600949 
L 408.892813 56.758787 
L 409.942306 55.372846 
L 410.991798 52.600949 
L 412.041291 56.065817 
L 413.090783 50.522038 
L 414.140276 47.750157 
L 415.189768 47.057187 
L 416.239261 49.829068 
L 417.288753 44.978276 
L 418.338246 41.513424 
L 419.387738 44.285306 
L 420.437231 46.364216 
L 421.486724 44.285306 
L 422.536216 41.513424 
L 423.585709 40.127484 
L 424.635201 37.355603 
L 425.684694 38.048573 
L 426.734186 38.048573 
L 428.833171 35.276676 
L 429.882664 35.969662 
L 430.932156 37.355603 
L 431.981649 35.969662 
L 433.031141 36.662633 
L 434.080634 33.890735 
L 435.130126 38.741543 
L 436.179619 32.504795 
L 437.229111 33.890735 
L 438.278604 32.504795 
L 439.328097 32.504795 
L 440.377589 31.811824 
L 441.427082 32.504795 
L 443.526067 31.118854 
L 447.724037 31.118854 
L 448.773529 30.425884 
L 450.872514 30.425884 
L 451.922007 31.811824 
L 452.971499 29.732913 
L 454.020992 30.425884 
L 455.070484 30.425884 
L 456.119977 31.118854 
L 457.16947 31.118854 
L 458.218962 29.732913 
L 459.268455 31.118854 
L 465.56541 31.118854 
L 466.614902 30.425884 
L 467.664395 30.425884 
L 468.713887 31.118854 
L 469.76338 30.425884 
L 470.812872 30.425884 
L 471.862365 31.118854 
L 472.911857 31.118854 
L 473.96135 30.425884 
L 477.109828 30.425884 
L 478.15932 29.039943 
L 481.307798 31.118854 
L 482.35729 29.732913 
L 483.406783 30.425884 
L 484.456275 30.425884 
L 485.505768 29.732913 
L 486.55526 30.425884 
L 487.604753 30.425884 
L 488.654245 31.811824 
L 489.703738 30.425884 
L 490.75323 30.425884 
L 491.802723 29.732913 
L 492.852216 31.118854 
L 493.901708 30.425884 
L 494.951201 30.425884 
L 496.000693 29.732913 
L 497.050186 29.732913 
L 498.099678 30.425884 
L 499.149171 29.732913 
L 500.198663 29.732913 
L 501.248156 30.425884 
L 502.297648 29.732913 
L 503.347141 29.732913 
L 504.396633 30.425884 
L 506.495618 30.425884 
L 507.545111 31.118854 
L 508.594603 29.732913 
L 509.644096 29.732913 
L 510.693589 30.425884 
L 520.139021 30.425884 
L 521.188514 29.732913 
L 522.238006 29.732913 
L 523.287499 30.425884 
L 525.386484 30.425884 
L 526.435976 31.118854 
L 527.485469 31.118854 
L 528.534962 30.425884 
L 529.584454 30.425884 
L 530.633947 29.039943 
L 531.683439 30.425884 
L 532.732932 29.732913 
L 533.782424 30.425884 
L 534.831917 30.425884 
L 535.881409 29.039943 
L 537.980394 30.425884 
L 540.079379 30.425884 
L 541.128872 29.732913 
L 542.178364 31.118854 
L 543.227857 29.732913 
L 544.277349 30.425884 
L 547.425827 30.425884 
L 548.47532 29.732913 
L 549.524812 29.732913 
L 549.524812 29.732913 
" clip-path="url(#p59b03fd4b6)" style="fill: none; stroke: #1f77b4; stroke-opacity: 0.8; stroke-width: 1.5; stroke-linecap: square"/>
   </g>
   <g id="patch_8">
    <path d="M 330.233348 170.198125 
L 330.233348 22.318125 
" style="fill: none; stroke: #000000; stroke-width: 0.8; stroke-linejoin: miter; stroke-linecap: square"/>
   </g>
   <g id="patch_9">
    <path d="M 559.967263 170.198125 
L 559.967263 22.318125 
" style="fill: none; stroke: #000000; stroke-width: 0.8; stroke-linejoin: miter; stroke-linecap: square"/>
   </g>
   <g id="patch_10">
    <path d="M 330.233348 170.198125 
L 559.967263 170.198125 
" style="fill: none; stroke: #000000; stroke-width: 0.8; stroke-linejoin: miter; stroke-linecap: square"/>
   </g>
   <g id="patch_11">
    <path d="M 330.233348 22.318125 
L 559.967263 22.318125 
" style="fill: none; stroke: #000000; stroke-width: 0.8; stroke-linejoin: miter; stroke-linecap: square"/>
   </g>
   <g id="text_27">
    <!-- Test Accuracy -->
    <g transform="translate(403.985305 16.318125) scale(0.12 -0.12)">
     <use xlink:href="#DejaVuSans-54"/>
     <use xlink:href="#DejaVuSans-65" transform="translate(44.083984 0)"/>
     <use xlink:href="#DejaVuSans-73" transform="translate(105.607422 0)"/>
     <use xlink:href="#DejaVuSans-74" transform="translate(157.707031 0)"/>
     <use xlink:href="#DejaVuSans-20" transform="translate(196.916016 0)"/>
     <use xlink:href="#DejaVuSans-41" transform="translate(228.703125 0)"/>
     <use xlink:href="#DejaVuSans-63" transform="translate(295.361328 0)"/>
     <use xlink:href="#DejaVuSans-63" transform="translate(350.341797 0)"/>
     <use xlink:href="#DejaVuSans-75" transform="translate(405.322266 0)"/>
     <use xlink:href="#DejaVuSans-72" transform="translate(468.701172 0)"/>
     <use xlink:href="#DejaVuSans-61" transform="translate(509.814453 0)"/>
     <use xlink:href="#DejaVuSans-63" transform="translate(571.09375 0)"/>
     <use xlink:href="#DejaVuSans-79" transform="translate(626.074219 0)"/>
    </g>
   </g>
  </g>
  <g id="legend_1">
   <g id="line2d_62">
    <path d="M 248.685134 225.256563 
L 258.685134 225.256563 
L 268.685134 225.256563 
" style="fill: none; stroke: #1f77b4; stroke-opacity: 0.8; stroke-width: 1.5; stroke-linecap: square"/>
   </g>
   <g id="text_28">
    <!-- IBVI MLP -->
    <g transform="translate(276.685134 228.756563) scale(0.1 -0.1)">
     <defs>
      <path id="DejaVuSans-49" d="M 628 4666 
L 1259 4666 
L 1259 0 
L 628 0 
L 628 4666 
z
" transform="scale(0.015625)"/>
      <path id="DejaVuSans-42" d="M 1259 2228 
L 1259 519 
L 2272 519 
Q 2781 519 3026 730 
Q 3272 941 3272 1375 
Q 3272 1813 3026 2020 
Q 2781 2228 2272 2228 
L 1259 2228 
z
M 1259 4147 
L 1259 2741 
L 2194 2741 
Q 2656 2741 2882 2914 
Q 3109 3088 3109 3444 
Q 3109 3797 2882 3972 
Q 2656 4147 2194 4147 
L 1259 4147 
z
M 628 4666 
L 2241 4666 
Q 2963 4666 3353 4366 
Q 3744 4066 3744 3513 
Q 3744 3084 3544 2831 
Q 3344 2578 2956 2516 
Q 3422 2416 3680 2098 
Q 3938 1781 3938 1306 
Q 3938 681 3513 340 
Q 3088 0 2303 0 
L 628 0 
L 628 4666 
z
" transform="scale(0.015625)"/>
      <path id="DejaVuSans-56" d="M 1831 0 
L 50 4666 
L 709 4666 
L 2188 738 
L 3669 4666 
L 4325 4666 
L 2547 0 
L 1831 0 
z
" transform="scale(0.015625)"/>
      <path id="DejaVuSans-4d" d="M 628 4666 
L 1569 4666 
L 2759 1491 
L 3956 4666 
L 4897 4666 
L 4897 0 
L 4281 0 
L 4281 4097 
L 3078 897 
L 2444 897 
L 1241 4097 
L 1241 0 
L 628 0 
L 628 4666 
z
" transform="scale(0.015625)"/>
      <path id="DejaVuSans-50" d="M 1259 4147 
L 1259 2394 
L 2053 2394 
Q 2494 2394 2734 2622 
Q 2975 2850 2975 3272 
Q 2975 3691 2734 3919 
Q 2494 4147 2053 4147 
L 1259 4147 
z
M 628 4666 
L 2053 4666 
Q 2838 4666 3239 4311 
Q 3641 3956 3641 3272 
Q 3641 2581 3239 2228 
Q 2838 1875 2053 1875 
L 1259 1875 
L 1259 0 
L 628 0 
L 628 4666 
z
" transform="scale(0.015625)"/>
     </defs>
     <use xlink:href="#DejaVuSans-49"/>
     <use xlink:href="#DejaVuSans-42" transform="translate(29.492188 0)"/>
     <use xlink:href="#DejaVuSans-56" transform="translate(94.970703 0)"/>
     <use xlink:href="#DejaVuSans-49" transform="translate(163.378906 0)"/>
     <use xlink:href="#DejaVuSans-20" transform="translate(192.871094 0)"/>
     <use xlink:href="#DejaVuSans-4d" transform="translate(224.658203 0)"/>
     <use xlink:href="#DejaVuSans-4c" transform="translate(310.9375 0)"/>
     <use xlink:href="#DejaVuSans-50" transform="translate(366.650391 0)"/>
    </g>
   </g>
  </g>
 </g>
 <defs>
  <clipPath id="p986dde7eec">
   <rect x="51.378125" y="22.318125" width="229.733915" height="147.88"/>
  </clipPath>
  <clipPath id="p59b03fd4b6">
   <rect x="330.233348" y="22.318125" width="229.733915" height="147.88"/>
  </clipPath>
 </defs>
</svg>
